<?xml version="1.0" encoding="utf-8" standalone="no"?>
<!DOCTYPE svg PUBLIC "-//W3C//DTD SVG 1.1//EN"
  "http://www.w3.org/Graphics/SVG/1.1/DTD/svg11.dtd">
<!-- Created with matplotlib (https://matplotlib.org/) -->
<svg height="338.905312pt" version="1.1" viewBox="0 0 453.901562 338.905312" width="453.901562pt" xmlns="http://www.w3.org/2000/svg" xmlns:xlink="http://www.w3.org/1999/xlink">
 <metadata>
  <rdf:RDF xmlns:cc="http://creativecommons.org/ns#" xmlns:dc="http://purl.org/dc/elements/1.1/" xmlns:rdf="http://www.w3.org/1999/02/22-rdf-syntax-ns#">
   <cc:Work>
    <dc:type rdf:resource="http://purl.org/dc/dcmitype/StillImage"/>
    <dc:date>2023-01-29T21:11:09.935438</dc:date>
    <dc:format>image/svg+xml</dc:format>
    <dc:creator>
     <cc:Agent>
      <dc:title>Matplotlib v3.3.4, https://matplotlib.org/</dc:title>
     </cc:Agent>
    </dc:creator>
   </cc:Work>
  </rdf:RDF>
 </metadata>
 <defs>
  <style type="text/css">*{stroke-linecap:butt;stroke-linejoin:round;}</style>
 </defs>
 <g id="figure_1">
  <g id="patch_1">
   <path d="M 0 338.905312 
L 453.901562 338.905312 
L 453.901562 0 
L 0 0 
z
" style="fill:#ffffff;"/>
  </g>
  <g id="axes_1">
   <g id="patch_2">
    <path d="M 38.864063 315.56 
L 446.701563 315.56 
L 446.701563 7.2 
L 38.864063 7.2 
z
" style="fill:#ffffff;"/>
   </g>
   <g id="matplotlib.axis_1">
    <g id="xtick_1">
     <g id="line2d_1">
      <defs>
       <path d="M 0 0 
L 0 3.5 
" id="m907858bf9b" style="stroke:#262626;stroke-width:0.8;"/>
      </defs>
      <g>
       <use style="fill:#262626;stroke:#262626;stroke-width:0.8;" x="140.823438" xlink:href="#m907858bf9b" y="315.56"/>
      </g>
     </g>
     <g id="text_1">
      <text style="fill:#262626;font-family:Arial;font-size:10px;font-stretch:normal;font-style:normal;font-weight:normal;text-anchor:middle;" transform="rotate(-0, 140.823438, 329.717812)" x="140.823438" y="329.717812">within network</text>
     </g>
    </g>
    <g id="xtick_2">
     <g id="line2d_2">
      <g>
       <use style="fill:#262626;stroke:#262626;stroke-width:0.8;" x="344.742188" xlink:href="#m907858bf9b" y="315.56"/>
      </g>
     </g>
     <g id="text_2">
      <text style="fill:#262626;font-family:Arial;font-size:10px;font-stretch:normal;font-style:normal;font-weight:normal;text-anchor:middle;" transform="rotate(-0, 344.742188, 329.717812)" x="344.742188" y="329.717812">between network</text>
     </g>
    </g>
   </g>
   <g id="matplotlib.axis_2">
    <g id="ytick_1">
     <g id="line2d_3">
      <defs>
       <path d="M 0 0 
L -3.5 0 
" id="m8a7b581252" style="stroke:#262626;stroke-width:0.8;"/>
      </defs>
      <g>
       <use style="fill:#262626;stroke:#262626;stroke-width:0.8;" x="38.864063" xlink:href="#m8a7b581252" y="314.485133"/>
      </g>
     </g>
     <g id="text_3">
      <text style="fill:#262626;font-family:Arial;font-size:10px;font-stretch:normal;font-style:normal;font-weight:normal;text-anchor:end;" transform="rotate(-0, 31.864063, 318.064039)" x="31.864063" y="318.064039">−4</text>
     </g>
    </g>
    <g id="ytick_2">
     <g id="line2d_4">
      <g>
       <use style="fill:#262626;stroke:#262626;stroke-width:0.8;" x="38.864063" xlink:href="#m8a7b581252" y="273.301603"/>
      </g>
     </g>
     <g id="text_4">
      <text style="fill:#262626;font-family:Arial;font-size:10px;font-stretch:normal;font-style:normal;font-weight:normal;text-anchor:end;" transform="rotate(-0, 31.864063, 276.880509)" x="31.864063" y="276.880509">−2</text>
     </g>
    </g>
    <g id="ytick_3">
     <g id="line2d_5">
      <g>
       <use style="fill:#262626;stroke:#262626;stroke-width:0.8;" x="38.864063" xlink:href="#m8a7b581252" y="232.118072"/>
      </g>
     </g>
     <g id="text_5">
      <text style="fill:#262626;font-family:Arial;font-size:10px;font-stretch:normal;font-style:normal;font-weight:normal;text-anchor:end;" transform="rotate(-0, 31.864063, 235.696979)" x="31.864063" y="235.696979">0</text>
     </g>
    </g>
    <g id="ytick_4">
     <g id="line2d_6">
      <g>
       <use style="fill:#262626;stroke:#262626;stroke-width:0.8;" x="38.864063" xlink:href="#m8a7b581252" y="190.934542"/>
      </g>
     </g>
     <g id="text_6">
      <text style="fill:#262626;font-family:Arial;font-size:10px;font-stretch:normal;font-style:normal;font-weight:normal;text-anchor:end;" transform="rotate(-0, 31.864063, 194.513448)" x="31.864063" y="194.513448">2</text>
     </g>
    </g>
    <g id="ytick_5">
     <g id="line2d_7">
      <g>
       <use style="fill:#262626;stroke:#262626;stroke-width:0.8;" x="38.864063" xlink:href="#m8a7b581252" y="149.751012"/>
      </g>
     </g>
     <g id="text_7">
      <text style="fill:#262626;font-family:Arial;font-size:10px;font-stretch:normal;font-style:normal;font-weight:normal;text-anchor:end;" transform="rotate(-0, 31.864063, 153.329918)" x="31.864063" y="153.329918">4</text>
     </g>
    </g>
    <g id="ytick_6">
     <g id="line2d_8">
      <g>
       <use style="fill:#262626;stroke:#262626;stroke-width:0.8;" x="38.864063" xlink:href="#m8a7b581252" y="108.567482"/>
      </g>
     </g>
     <g id="text_8">
      <text style="fill:#262626;font-family:Arial;font-size:10px;font-stretch:normal;font-style:normal;font-weight:normal;text-anchor:end;" transform="rotate(-0, 31.864063, 112.146388)" x="31.864063" y="112.146388">6</text>
     </g>
    </g>
    <g id="ytick_7">
     <g id="line2d_9">
      <g>
       <use style="fill:#262626;stroke:#262626;stroke-width:0.8;" x="38.864063" xlink:href="#m8a7b581252" y="67.383951"/>
      </g>
     </g>
     <g id="text_9">
      <text style="fill:#262626;font-family:Arial;font-size:10px;font-stretch:normal;font-style:normal;font-weight:normal;text-anchor:end;" transform="rotate(-0, 31.864063, 70.962858)" x="31.864063" y="70.962858">8</text>
     </g>
    </g>
    <g id="ytick_8">
     <g id="line2d_10">
      <g>
       <use style="fill:#262626;stroke:#262626;stroke-width:0.8;" x="38.864063" xlink:href="#m8a7b581252" y="26.200421"/>
      </g>
     </g>
     <g id="text_10">
      <text style="fill:#262626;font-family:Arial;font-size:10px;font-stretch:normal;font-style:normal;font-weight:normal;text-anchor:end;" transform="rotate(-0, 31.864063, 29.779327)" x="31.864063" y="29.779327">10</text>
     </g>
    </g>
    <g id="text_11">
     <text style="fill:#262626;font-family:Arial;font-size:10px;font-stretch:normal;font-style:normal;font-weight:normal;text-anchor:middle;" transform="rotate(-90, 14.357813, 161.38)" x="14.357813" y="161.38">standardized shortest path length</text>
    </g>
   </g>
   <g id="PolyCollection_1">
    <defs>
     <path d="M 140.847986 -39.011937 
L 140.798889 -39.011937 
L 140.788284 -41.396968 
L 140.772561 -43.781999 
L 140.752669 -46.167029 
L 140.731398 -48.55206 
L 140.690068 -50.937091 
L 140.580737 -53.322122 
L 140.366782 -55.707152 
L 140.084661 -58.092183 
L 139.765069 -60.477214 
L 139.383886 -62.862244 
L 138.86469 -65.247275 
L 138.117429 -67.632306 
L 137.091285 -70.017337 
L 135.740854 -72.402367 
L 133.987899 -74.787398 
L 131.857036 -77.172429 
L 129.326998 -79.557459 
L 126.125636 -81.94249 
L 122.029324 -84.327521 
L 117.206176 -86.712551 
L 112.008001 -89.097582 
L 106.256527 -91.482613 
L 99.850686 -93.867644 
L 93.353802 -96.252674 
L 87.137277 -98.637705 
L 80.932644 -101.022736 
L 74.634995 -103.407766 
L 69.081417 -105.792797 
L 65.614752 -108.177828 
L 64.206259 -110.562859 
L 63.827113 -112.947889 
L 63.823676 -115.33292 
L 63.748218 -117.717951 
L 63.536099 -120.102981 
L 63.549368 -122.488012 
L 63.836709 -124.873043 
L 63.664574 -127.258074 
L 63.36427 -129.643104 
L 63.899341 -132.028135 
L 64.849531 -134.413166 
L 65.385086 -136.798196 
L 65.341661 -139.183227 
L 65.46934 -141.568258 
L 66.626293 -143.953289 
L 68.357362 -146.338319 
L 70.173771 -148.72335 
L 72.148699 -151.108381 
L 74.053359 -153.493411 
L 76.115038 -155.878442 
L 78.760562 -158.263473 
L 81.36479 -160.648504 
L 83.491886 -163.033534 
L 85.716159 -165.418565 
L 88.540428 -167.803596 
L 91.941799 -170.188626 
L 95.500539 -172.573657 
L 98.905879 -174.958688 
L 102.267101 -177.343718 
L 105.541521 -179.728749 
L 108.657541 -182.11378 
L 111.465326 -184.498811 
L 114.010901 -186.883841 
L 116.801033 -189.268872 
L 119.85866 -191.653903 
L 122.459407 -194.038933 
L 124.422617 -196.423964 
L 126.373468 -198.808995 
L 128.458628 -201.194026 
L 130.182092 -203.579056 
L 131.41566 -205.964087 
L 132.523855 -208.349118 
L 133.755749 -210.734148 
L 134.962791 -213.119179 
L 135.983542 -215.50421 
L 136.786236 -217.889241 
L 137.471804 -220.274271 
L 138.097285 -222.659302 
L 138.578362 -225.044333 
L 138.925969 -227.429363 
L 139.252139 -229.814394 
L 139.573261 -232.199425 
L 139.828749 -234.584456 
L 140.005013 -236.969486 
L 140.141557 -239.354517 
L 140.274029 -241.739548 
L 140.399662 -244.124578 
L 140.495111 -246.509609 
L 140.559381 -248.89464 
L 140.599884 -251.279671 
L 140.626346 -253.664701 
L 140.657694 -256.049732 
L 140.691134 -258.434763 
L 140.717045 -260.819793 
L 140.747837 -263.204824 
L 140.783596 -265.589855 
L 140.808939 -267.974885 
L 140.817767 -270.359916 
L 140.815242 -272.744947 
L 140.812149 -275.129978 
L 140.834726 -275.129978 
L 140.834726 -275.129978 
L 140.831633 -272.744947 
L 140.829108 -270.359916 
L 140.837936 -267.974885 
L 140.863279 -265.589855 
L 140.899038 -263.204824 
L 140.92983 -260.819793 
L 140.955741 -258.434763 
L 140.989181 -256.049732 
L 141.020529 -253.664701 
L 141.046991 -251.279671 
L 141.087494 -248.89464 
L 141.151764 -246.509609 
L 141.247213 -244.124578 
L 141.372846 -241.739548 
L 141.505318 -239.354517 
L 141.641862 -236.969486 
L 141.818126 -234.584456 
L 142.073614 -232.199425 
L 142.394736 -229.814394 
L 142.720906 -227.429363 
L 143.068513 -225.044333 
L 143.54959 -222.659302 
L 144.175071 -220.274271 
L 144.860639 -217.889241 
L 145.663333 -215.50421 
L 146.684084 -213.119179 
L 147.891126 -210.734148 
L 149.12302 -208.349118 
L 150.231215 -205.964087 
L 151.464783 -203.579056 
L 153.188247 -201.194026 
L 155.273407 -198.808995 
L 157.224258 -196.423964 
L 159.187468 -194.038933 
L 161.788215 -191.653903 
L 164.845842 -189.268872 
L 167.635974 -186.883841 
L 170.181549 -184.498811 
L 172.989334 -182.11378 
L 176.105354 -179.728749 
L 179.379774 -177.343718 
L 182.740996 -174.958688 
L 186.146336 -172.573657 
L 189.705076 -170.188626 
L 193.106447 -167.803596 
L 195.930716 -165.418565 
L 198.154989 -163.033534 
L 200.282085 -160.648504 
L 202.886313 -158.263473 
L 205.531837 -155.878442 
L 207.593516 -153.493411 
L 209.498176 -151.108381 
L 211.473104 -148.72335 
L 213.289513 -146.338319 
L 215.020582 -143.953289 
L 216.177535 -141.568258 
L 216.305214 -139.183227 
L 216.261789 -136.798196 
L 216.797344 -134.413166 
L 217.747534 -132.028135 
L 218.282605 -129.643104 
L 217.982301 -127.258074 
L 217.810166 -124.873043 
L 218.097507 -122.488012 
L 218.110776 -120.102981 
L 217.898657 -117.717951 
L 217.823199 -115.33292 
L 217.819762 -112.947889 
L 217.440616 -110.562859 
L 216.032123 -108.177828 
L 212.565458 -105.792797 
L 207.01188 -103.407766 
L 200.714231 -101.022736 
L 194.509598 -98.637705 
L 188.293073 -96.252674 
L 181.796189 -93.867644 
L 175.390348 -91.482613 
L 169.638874 -89.097582 
L 164.440699 -86.712551 
L 159.617551 -84.327521 
L 155.521239 -81.94249 
L 152.319877 -79.557459 
L 149.789839 -77.172429 
L 147.658976 -74.787398 
L 145.906021 -72.402367 
L 144.55559 -70.017337 
L 143.529446 -67.632306 
L 142.782185 -65.247275 
L 142.262989 -62.862244 
L 141.881806 -60.477214 
L 141.562214 -58.092183 
L 141.280093 -55.707152 
L 141.066138 -53.322122 
L 140.956807 -50.937091 
L 140.915477 -48.55206 
L 140.894206 -46.167029 
L 140.874314 -43.781999 
L 140.858591 -41.396968 
L 140.847986 -39.011937 
z
" id="mb030c1ca56" style="stroke:#404040;stroke-width:1.5;"/>
    </defs>
    <g clip-path="url(#pdad26b4ba3)">
     <use style="fill:#5573cd;stroke:#404040;stroke-width:1.5;" x="0" xlink:href="#mb030c1ca56" y="338.905312"/>
    </g>
   </g>
   <g id="PolyCollection_2">
    <defs>
     <path d="M 344.754259 -37.361676 
L 344.730116 -37.361676 
L 344.716601 -40.193265 
L 344.699515 -43.024853 
L 344.685815 -45.856442 
L 344.641668 -48.688031 
L 344.560344 -51.519619 
L 344.481486 -54.351208 
L 344.390596 -57.182796 
L 344.201453 -60.014385 
L 343.912962 -62.845974 
L 343.457907 -65.677562 
L 342.809271 -68.509151 
L 341.899221 -71.340739 
L 340.811426 -74.172328 
L 339.415365 -77.003917 
L 337.415008 -79.835505 
L 334.868527 -82.667094 
L 331.900823 -85.498683 
L 328.154103 -88.330271 
L 323.563161 -91.16186 
L 318.456976 -93.993448 
L 313.095793 -96.825037 
L 307.480475 -99.656626 
L 302.39701 -102.488214 
L 297.800057 -105.319803 
L 293.03823 -108.151391 
L 288.752578 -110.98298 
L 285.276823 -113.814569 
L 282.215406 -116.646157 
L 279.175206 -119.477746 
L 276.58453 -122.309335 
L 273.998124 -125.140923 
L 271.551647 -127.972512 
L 269.323715 -130.8041 
L 267.555498 -133.635689 
L 266.053119 -136.467278 
L 264.795119 -139.298866 
L 263.688444 -142.130455 
L 263.174688 -144.962043 
L 263.325687 -147.793632 
L 264.264406 -150.625221 
L 266.388909 -153.456809 
L 268.486253 -156.288398 
L 270.687418 -159.119987 
L 273.569091 -161.951575 
L 277.16454 -164.783164 
L 280.53944 -167.614752 
L 284.422145 -170.446341 
L 288.714751 -173.27793 
L 293.281209 -176.109518 
L 297.91417 -178.941107 
L 302.172078 -181.772695 
L 306.156732 -184.604284 
L 310.241228 -187.435873 
L 314.359622 -190.267461 
L 317.897083 -193.09905 
L 320.932772 -195.930638 
L 324.168936 -198.762227 
L 327.028655 -201.593816 
L 329.454583 -204.425404 
L 331.649901 -207.256993 
L 333.771258 -210.088582 
L 335.600143 -212.92017 
L 336.940558 -215.751759 
L 338.128965 -218.583347 
L 339.384936 -221.414936 
L 340.536961 -224.246525 
L 341.338947 -227.078113 
L 341.971919 -229.909702 
L 342.427665 -232.74129 
L 342.8394 -235.572879 
L 343.181631 -238.404468 
L 343.522477 -241.236056 
L 343.83128 -244.067645 
L 344.066261 -246.899234 
L 344.200762 -249.730822 
L 344.322721 -252.562411 
L 344.441826 -255.393999 
L 344.510623 -258.225588 
L 344.548985 -261.057177 
L 344.558276 -263.888765 
L 344.58507 -266.720354 
L 344.618173 -269.551942 
L 344.645501 -272.383531 
L 344.65929 -275.21512 
L 344.664714 -278.046708 
L 344.683393 -280.878297 
L 344.706823 -283.709886 
L 344.704248 -286.541474 
L 344.70464 -289.373063 
L 344.72198 -292.204651 
L 344.727821 -295.03624 
L 344.72895 -297.867829 
L 344.733742 -300.699417 
L 344.736761 -303.531006 
L 344.739087 -306.362594 
L 344.739397 -309.194183 
L 344.741602 -312.025772 
L 344.740908 -314.85736 
L 344.738959 -317.688949 
L 344.745416 -317.688949 
L 344.745416 -317.688949 
L 344.743467 -314.85736 
L 344.742773 -312.025772 
L 344.744978 -309.194183 
L 344.745288 -306.362594 
L 344.747614 -303.531006 
L 344.750633 -300.699417 
L 344.755425 -297.867829 
L 344.756554 -295.03624 
L 344.762395 -292.204651 
L 344.779735 -289.373063 
L 344.780127 -286.541474 
L 344.777552 -283.709886 
L 344.800982 -280.878297 
L 344.819661 -278.046708 
L 344.825085 -275.21512 
L 344.838874 -272.383531 
L 344.866202 -269.551942 
L 344.899305 -266.720354 
L 344.926099 -263.888765 
L 344.93539 -261.057177 
L 344.973752 -258.225588 
L 345.042549 -255.393999 
L 345.161654 -252.562411 
L 345.283613 -249.730822 
L 345.418114 -246.899234 
L 345.653095 -244.067645 
L 345.961898 -241.236056 
L 346.302744 -238.404468 
L 346.644975 -235.572879 
L 347.05671 -232.74129 
L 347.512456 -229.909702 
L 348.145428 -227.078113 
L 348.947414 -224.246525 
L 350.099439 -221.414936 
L 351.35541 -218.583347 
L 352.543817 -215.751759 
L 353.884232 -212.92017 
L 355.713117 -210.088582 
L 357.834474 -207.256993 
L 360.029792 -204.425404 
L 362.45572 -201.593816 
L 365.315439 -198.762227 
L 368.551603 -195.930638 
L 371.587292 -193.09905 
L 375.124753 -190.267461 
L 379.243147 -187.435873 
L 383.327643 -184.604284 
L 387.312297 -181.772695 
L 391.570205 -178.941107 
L 396.203166 -176.109518 
L 400.769624 -173.27793 
L 405.06223 -170.446341 
L 408.944935 -167.614752 
L 412.319835 -164.783164 
L 415.915284 -161.951575 
L 418.796957 -159.119987 
L 420.998122 -156.288398 
L 423.095466 -153.456809 
L 425.219969 -150.625221 
L 426.158688 -147.793632 
L 426.309687 -144.962043 
L 425.795931 -142.130455 
L 424.689256 -139.298866 
L 423.431256 -136.467278 
L 421.928877 -133.635689 
L 420.16066 -130.8041 
L 417.932728 -127.972512 
L 415.486251 -125.140923 
L 412.899845 -122.309335 
L 410.309169 -119.477746 
L 407.268969 -116.646157 
L 404.207552 -113.814569 
L 400.731797 -110.98298 
L 396.446145 -108.151391 
L 391.684318 -105.319803 
L 387.087365 -102.488214 
L 382.0039 -99.656626 
L 376.388582 -96.825037 
L 371.027399 -93.993448 
L 365.921214 -91.16186 
L 361.330272 -88.330271 
L 357.583552 -85.498683 
L 354.615848 -82.667094 
L 352.069367 -79.835505 
L 350.06901 -77.003917 
L 348.672949 -74.172328 
L 347.585154 -71.340739 
L 346.675104 -68.509151 
L 346.026468 -65.677562 
L 345.571413 -62.845974 
L 345.282922 -60.014385 
L 345.093779 -57.182796 
L 345.002889 -54.351208 
L 344.924031 -51.519619 
L 344.842707 -48.688031 
L 344.79856 -45.856442 
L 344.78486 -43.024853 
L 344.767774 -40.193265 
L 344.754259 -37.361676 
z
" id="md74b968abe" style="stroke:#404040;stroke-width:1.5;"/>
    </defs>
    <g clip-path="url(#pdad26b4ba3)">
     <use style="fill:#a03434;stroke:#404040;stroke-width:1.5;" x="0" xlink:href="#md74b968abe" y="338.905312"/>
    </g>
   </g>
   <g id="line2d_11">
    <path clip-path="url(#pdad26b4ba3)" d="M 64.597076 225.618521 
L 217.049799 225.618521 
" style="fill:none;stroke:#404040;stroke-dasharray:3.375,3.375;stroke-dashoffset:0;stroke-width:1.5;"/>
   </g>
   <g id="line2d_12">
    <path clip-path="url(#pdad26b4ba3)" d="M 65.609271 203.716592 
L 216.037604 203.716592 
" style="fill:none;stroke:#404040;stroke-dasharray:6.75,6.75;stroke-dashoffset:0;stroke-width:1.5;"/>
   </g>
   <g id="line2d_13">
    <path clip-path="url(#pdad26b4ba3)" d="M 79.381191 179.928772 
L 202.265684 179.928772 
" style="fill:none;stroke:#404040;stroke-dasharray:3.375,3.375;stroke-dashoffset:0;stroke-width:1.5;"/>
   </g>
   <g id="line2d_14">
    <path clip-path="url(#pdad26b4ba3)" d="M 277.266106 216.688942 
L 412.218269 216.688942 
" style="fill:none;stroke:#404040;stroke-dasharray:3.375,3.375;stroke-dashoffset:0;stroke-width:1.5;"/>
   </g>
   <g id="line2d_15">
    <path clip-path="url(#pdad26b4ba3)" d="M 263.990363 194.590553 
L 425.494012 194.590553 
" style="fill:none;stroke:#404040;stroke-dasharray:6.75,6.75;stroke-dashoffset:0;stroke-width:1.5;"/>
   </g>
   <g id="line2d_16">
    <path clip-path="url(#pdad26b4ba3)" d="M 281.181467 172.397465 
L 408.302908 172.397465 
" style="fill:none;stroke:#404040;stroke-dasharray:3.375,3.375;stroke-dashoffset:0;stroke-width:1.5;"/>
   </g>
   <g id="patch_3">
    <path d="M 38.864063 314.485133 
L 38.864063 26.200421 
" style="fill:none;stroke:#262626;stroke-linecap:square;stroke-linejoin:miter;stroke-width:0.8;"/>
   </g>
   <g id="patch_4">
    <path d="M 140.823438 315.56 
L 344.742188 315.56 
" style="fill:none;stroke:#262626;stroke-linecap:square;stroke-linejoin:miter;stroke-width:0.8;"/>
   </g>
   <g id="text_12">
    <text style="fill:#262626;font-family:Arial;font-size:10px;font-stretch:normal;font-style:normal;font-weight:normal;text-anchor:middle;" transform="rotate(-0, 242.782813, 19.228864)" x="242.782813" y="19.228864">*</text>
   </g>
  </g>
 </g>
 <defs>
  <clipPath id="pdad26b4ba3">
   <rect height="308.36" width="407.8375" x="38.864063" y="7.2"/>
  </clipPath>
 </defs>
</svg>
