<?xml version="1.0" encoding="utf-8" standalone="no"?>
<!DOCTYPE svg PUBLIC "-//W3C//DTD SVG 1.1//EN"
  "http://www.w3.org/Graphics/SVG/1.1/DTD/svg11.dtd">
<!-- Created with matplotlib (https://matplotlib.org/) -->
<svg height="338.905312pt" version="1.1" viewBox="0 0 453.901562 338.905312" width="453.901562pt" xmlns="http://www.w3.org/2000/svg" xmlns:xlink="http://www.w3.org/1999/xlink">
 <metadata>
  <rdf:RDF xmlns:cc="http://creativecommons.org/ns#" xmlns:dc="http://purl.org/dc/elements/1.1/" xmlns:rdf="http://www.w3.org/1999/02/22-rdf-syntax-ns#">
   <cc:Work>
    <dc:type rdf:resource="http://purl.org/dc/dcmitype/StillImage"/>
    <dc:date>2023-03-28T13:13:43.153645</dc:date>
    <dc:format>image/svg+xml</dc:format>
    <dc:creator>
     <cc:Agent>
      <dc:title>Matplotlib v3.3.4, https://matplotlib.org/</dc:title>
     </cc:Agent>
    </dc:creator>
   </cc:Work>
  </rdf:RDF>
 </metadata>
 <defs>
  <style type="text/css">*{stroke-linecap:butt;stroke-linejoin:round;}</style>
 </defs>
 <g id="figure_1">
  <g id="patch_1">
   <path d="M 0 338.905312 
L 453.901562 338.905312 
L 453.901562 0 
L 0 0 
z
" style="fill:#ffffff;"/>
  </g>
  <g id="axes_1">
   <g id="patch_2">
    <path d="M 38.864063 315.56 
L 446.701563 315.56 
L 446.701563 7.2 
L 38.864063 7.2 
z
" style="fill:#ffffff;"/>
   </g>
   <g id="matplotlib.axis_1">
    <g id="xtick_1">
     <g id="line2d_1">
      <defs>
       <path d="M 0 0 
L 0 3.5 
" id="mb78aac06a7" style="stroke:#262626;stroke-width:0.8;"/>
      </defs>
      <g>
       <use style="fill:#262626;stroke:#262626;stroke-width:0.8;" x="140.823438" xlink:href="#mb78aac06a7" y="315.56"/>
      </g>
     </g>
     <g id="text_1">
      <text style="fill:#262626;font-family:Arial;font-size:10px;font-stretch:normal;font-style:normal;font-weight:normal;text-anchor:middle;" transform="rotate(-0, 140.823438, 329.717812)" x="140.823438" y="329.717812">within network</text>
     </g>
    </g>
    <g id="xtick_2">
     <g id="line2d_2">
      <g>
       <use style="fill:#262626;stroke:#262626;stroke-width:0.8;" x="344.742188" xlink:href="#mb78aac06a7" y="315.56"/>
      </g>
     </g>
     <g id="text_2">
      <text style="fill:#262626;font-family:Arial;font-size:10px;font-stretch:normal;font-style:normal;font-weight:normal;text-anchor:middle;" transform="rotate(-0, 344.742188, 329.717812)" x="344.742188" y="329.717812">between network</text>
     </g>
    </g>
   </g>
   <g id="matplotlib.axis_2">
    <g id="ytick_1">
     <g id="line2d_3">
      <defs>
       <path d="M 0 0 
L -3.5 0 
" id="me1ef1b5476" style="stroke:#262626;stroke-width:0.8;"/>
      </defs>
      <g>
       <use style="fill:#262626;stroke:#262626;stroke-width:0.8;" x="38.864063" xlink:href="#me1ef1b5476" y="299.094254"/>
      </g>
     </g>
     <g id="text_3">
      <text style="fill:#262626;font-family:Arial;font-size:10px;font-stretch:normal;font-style:normal;font-weight:normal;text-anchor:end;" transform="rotate(-0, 31.864063, 302.673161)" x="31.864063" y="302.673161">−4</text>
     </g>
    </g>
    <g id="ytick_2">
     <g id="line2d_4">
      <g>
       <use style="fill:#262626;stroke:#262626;stroke-width:0.8;" x="38.864063" xlink:href="#me1ef1b5476" y="260.072055"/>
      </g>
     </g>
     <g id="text_4">
      <text style="fill:#262626;font-family:Arial;font-size:10px;font-stretch:normal;font-style:normal;font-weight:normal;text-anchor:end;" transform="rotate(-0, 31.864063, 263.650961)" x="31.864063" y="263.650961">−2</text>
     </g>
    </g>
    <g id="ytick_3">
     <g id="line2d_5">
      <g>
       <use style="fill:#262626;stroke:#262626;stroke-width:0.8;" x="38.864063" xlink:href="#me1ef1b5476" y="221.049855"/>
      </g>
     </g>
     <g id="text_5">
      <text style="fill:#262626;font-family:Arial;font-size:10px;font-stretch:normal;font-style:normal;font-weight:normal;text-anchor:end;" transform="rotate(-0, 31.864063, 224.628761)" x="31.864063" y="224.628761">0</text>
     </g>
    </g>
    <g id="ytick_4">
     <g id="line2d_6">
      <g>
       <use style="fill:#262626;stroke:#262626;stroke-width:0.8;" x="38.864063" xlink:href="#me1ef1b5476" y="182.027655"/>
      </g>
     </g>
     <g id="text_6">
      <text style="fill:#262626;font-family:Arial;font-size:10px;font-stretch:normal;font-style:normal;font-weight:normal;text-anchor:end;" transform="rotate(-0, 31.864063, 185.606561)" x="31.864063" y="185.606561">2</text>
     </g>
    </g>
    <g id="ytick_5">
     <g id="line2d_7">
      <g>
       <use style="fill:#262626;stroke:#262626;stroke-width:0.8;" x="38.864063" xlink:href="#me1ef1b5476" y="143.005455"/>
      </g>
     </g>
     <g id="text_7">
      <text style="fill:#262626;font-family:Arial;font-size:10px;font-stretch:normal;font-style:normal;font-weight:normal;text-anchor:end;" transform="rotate(-0, 31.864063, 146.584361)" x="31.864063" y="146.584361">4</text>
     </g>
    </g>
    <g id="ytick_6">
     <g id="line2d_8">
      <g>
       <use style="fill:#262626;stroke:#262626;stroke-width:0.8;" x="38.864063" xlink:href="#me1ef1b5476" y="103.983255"/>
      </g>
     </g>
     <g id="text_8">
      <text style="fill:#262626;font-family:Arial;font-size:10px;font-stretch:normal;font-style:normal;font-weight:normal;text-anchor:end;" transform="rotate(-0, 31.864063, 107.562161)" x="31.864063" y="107.562161">6</text>
     </g>
    </g>
    <g id="ytick_7">
     <g id="line2d_9">
      <g>
       <use style="fill:#262626;stroke:#262626;stroke-width:0.8;" x="38.864063" xlink:href="#me1ef1b5476" y="64.961055"/>
      </g>
     </g>
     <g id="text_9">
      <text style="fill:#262626;font-family:Arial;font-size:10px;font-stretch:normal;font-style:normal;font-weight:normal;text-anchor:end;" transform="rotate(-0, 31.864063, 68.539962)" x="31.864063" y="68.539962">8</text>
     </g>
    </g>
    <g id="ytick_8">
     <g id="line2d_10">
      <g>
       <use style="fill:#262626;stroke:#262626;stroke-width:0.8;" x="38.864063" xlink:href="#me1ef1b5476" y="25.938855"/>
      </g>
     </g>
     <g id="text_10">
      <text style="fill:#262626;font-family:Arial;font-size:10px;font-stretch:normal;font-style:normal;font-weight:normal;text-anchor:end;" transform="rotate(-0, 31.864063, 29.517762)" x="31.864063" y="29.517762">10</text>
     </g>
    </g>
    <g id="text_11">
     <text style="fill:#262626;font-family:Arial;font-size:10px;font-stretch:normal;font-style:normal;font-weight:normal;text-anchor:middle;" transform="rotate(-90, 14.357813, 161.38)" x="14.357813" y="161.38">standardized shortest path length</text>
    </g>
   </g>
   <g id="PolyCollection_1">
    <defs>
     <path d="M 140.844394 -37.361676 
L 140.802481 -37.361676 
L 140.80605 -39.785937 
L 140.809244 -42.210198 
L 140.800089 -44.634458 
L 140.786751 -47.058719 
L 140.767478 -49.48298 
L 140.733305 -51.907241 
L 140.68801 -54.331501 
L 140.634594 -56.755762 
L 140.570896 -59.180023 
L 140.474024 -61.604284 
L 140.302998 -64.028545 
L 140.029049 -66.452805 
L 139.626415 -68.877066 
L 139.091705 -71.301327 
L 138.389639 -73.725588 
L 137.501389 -76.149848 
L 136.411022 -78.574109 
L 134.986538 -80.99837 
L 133.076457 -83.422631 
L 130.726499 -85.846891 
L 128.042764 -88.271152 
L 125.125001 -90.695413 
L 121.749117 -93.119674 
L 117.374437 -95.543934 
L 112.114693 -97.968195 
L 106.730102 -100.392456 
L 101.06863 -102.816717 
L 94.400657 -105.240978 
L 87.2637 -107.665238 
L 80.540968 -110.089499 
L 74.038649 -112.51376 
L 67.53501 -114.938021 
L 62.379078 -117.362281 
L 60.606087 -119.786542 
L 61.441972 -122.210803 
L 62.950014 -124.635064 
L 64.327927 -127.059324 
L 65.231426 -129.483585 
L 65.808573 -131.907846 
L 66.440915 -134.332107 
L 66.619148 -136.756367 
L 66.414756 -139.180628 
L 66.934276 -141.604889 
L 67.917713 -144.02915 
L 68.460322 -146.453411 
L 68.427706 -148.877671 
L 68.762452 -151.301932 
L 70.168046 -153.726193 
L 71.98259 -156.150454 
L 73.921064 -158.574714 
L 75.937185 -160.998975 
L 77.92656 -163.423236 
L 80.422943 -165.847497 
L 83.179838 -168.271757 
L 85.475548 -170.696018 
L 87.720267 -173.120279 
L 90.562024 -175.54454 
L 94.03342 -177.9688 
L 97.674517 -180.393061 
L 101.17016 -182.817322 
L 104.613586 -185.241583 
L 107.940376 -187.665844 
L 111.04969 -190.090104 
L 113.794308 -192.514365 
L 116.491426 -194.938626 
L 119.559283 -197.362887 
L 122.461201 -199.787147 
L 124.645081 -202.211408 
L 126.62075 -204.635669 
L 128.750264 -207.05993 
L 130.555384 -209.48419 
L 131.840421 -211.908451 
L 132.995662 -214.332712 
L 134.264568 -216.756973 
L 135.468022 -219.181233 
L 136.44984 -221.605494 
L 137.220792 -224.029755 
L 137.902303 -226.454016 
L 138.477117 -228.878277 
L 138.883271 -231.302537 
L 139.219627 -233.726798 
L 139.554138 -236.151059 
L 139.832964 -238.57532 
L 140.02444 -240.99958 
L 140.167482 -243.423841 
L 140.303546 -245.848102 
L 140.429668 -248.272363 
L 140.522234 -250.696623 
L 140.582276 -253.120884 
L 140.618257 -255.545145 
L 140.646244 -257.969406 
L 140.680913 -260.393666 
L 140.710896 -262.817927 
L 140.739411 -265.242188 
L 140.775477 -267.666449 
L 140.805062 -270.09071 
L 140.81724 -272.51497 
L 140.815874 -274.939231 
L 140.812856 -277.363492 
L 140.834019 -277.363492 
L 140.834019 -277.363492 
L 140.831001 -274.939231 
L 140.829635 -272.51497 
L 140.841813 -270.09071 
L 140.871398 -267.666449 
L 140.907464 -265.242188 
L 140.935979 -262.817927 
L 140.965962 -260.393666 
L 141.000631 -257.969406 
L 141.028618 -255.545145 
L 141.064599 -253.120884 
L 141.124641 -250.696623 
L 141.217207 -248.272363 
L 141.343329 -245.848102 
L 141.479393 -243.423841 
L 141.622435 -240.99958 
L 141.813911 -238.57532 
L 142.092737 -236.151059 
L 142.427248 -233.726798 
L 142.763604 -231.302537 
L 143.169758 -228.878277 
L 143.744572 -226.454016 
L 144.426083 -224.029755 
L 145.197035 -221.605494 
L 146.178853 -219.181233 
L 147.382307 -216.756973 
L 148.651213 -214.332712 
L 149.806454 -211.908451 
L 151.091491 -209.48419 
L 152.896611 -207.05993 
L 155.026125 -204.635669 
L 157.001794 -202.211408 
L 159.185674 -199.787147 
L 162.087592 -197.362887 
L 165.155449 -194.938626 
L 167.852567 -192.514365 
L 170.597185 -190.090104 
L 173.706499 -187.665844 
L 177.033289 -185.241583 
L 180.476715 -182.817322 
L 183.972358 -180.393061 
L 187.613455 -177.9688 
L 191.084851 -175.54454 
L 193.926608 -173.120279 
L 196.171327 -170.696018 
L 198.467037 -168.271757 
L 201.223932 -165.847497 
L 203.720315 -163.423236 
L 205.70969 -160.998975 
L 207.725811 -158.574714 
L 209.664285 -156.150454 
L 211.478829 -153.726193 
L 212.884423 -151.301932 
L 213.219169 -148.877671 
L 213.186553 -146.453411 
L 213.729162 -144.02915 
L 214.712599 -141.604889 
L 215.232119 -139.180628 
L 215.027727 -136.756367 
L 215.20596 -134.332107 
L 215.838302 -131.907846 
L 216.415449 -129.483585 
L 217.318948 -127.059324 
L 218.696861 -124.635064 
L 220.204903 -122.210803 
L 221.040788 -119.786542 
L 219.267797 -117.362281 
L 214.111865 -114.938021 
L 207.608226 -112.51376 
L 201.105907 -110.089499 
L 194.383175 -107.665238 
L 187.246218 -105.240978 
L 180.578245 -102.816717 
L 174.916773 -100.392456 
L 169.532182 -97.968195 
L 164.272438 -95.543934 
L 159.897758 -93.119674 
L 156.521874 -90.695413 
L 153.604111 -88.271152 
L 150.920376 -85.846891 
L 148.570418 -83.422631 
L 146.660337 -80.99837 
L 145.235853 -78.574109 
L 144.145486 -76.149848 
L 143.257236 -73.725588 
L 142.55517 -71.301327 
L 142.02046 -68.877066 
L 141.617826 -66.452805 
L 141.343877 -64.028545 
L 141.172851 -61.604284 
L 141.075979 -59.180023 
L 141.012281 -56.755762 
L 140.958865 -54.331501 
L 140.91357 -51.907241 
L 140.879397 -49.48298 
L 140.860124 -47.058719 
L 140.846786 -44.634458 
L 140.837631 -42.210198 
L 140.840825 -39.785937 
L 140.844394 -37.361676 
z
" id="m4c54a8af48" style="stroke:#404040;stroke-width:1.5;"/>
    </defs>
    <g clip-path="url(#p96d390e8e9)">
     <use style="fill:#5573cd;stroke:#404040;stroke-width:1.5;" x="0" xlink:href="#m4c54a8af48" y="338.905312"/>
    </g>
   </g>
   <g id="PolyCollection_2">
    <defs>
     <path d="M 344.750195 -41.566859 
L 344.73418 -41.566859 
L 344.735737 -44.355971 
L 344.737509 -47.145083 
L 344.730894 -49.934195 
L 344.710956 -52.723307 
L 344.688567 -55.512419 
L 344.64609 -58.301531 
L 344.582911 -61.090643 
L 344.480194 -63.879755 
L 344.347667 -66.668867 
L 344.183342 -69.457979 
L 343.883249 -72.247091 
L 343.446381 -75.036203 
L 342.838678 -77.825315 
L 342.013715 -80.614427 
L 340.874593 -83.403539 
L 339.467338 -86.192651 
L 337.908665 -88.981763 
L 335.8191 -91.770875 
L 333.129278 -94.559987 
L 330.021783 -97.349099 
L 326.206782 -100.138211 
L 321.591424 -102.927323 
L 316.436655 -105.716435 
L 310.955543 -108.505547 
L 305.147069 -111.294659 
L 300.139694 -114.083771 
L 295.589835 -116.872883 
L 290.917331 -119.661995 
L 286.940828 -122.451107 
L 283.726284 -125.24022 
L 280.784151 -128.029332 
L 277.923586 -130.818444 
L 275.437911 -133.607556 
L 272.778132 -136.396668 
L 270.412518 -139.18578 
L 268.302957 -141.974892 
L 266.650899 -144.764004 
L 265.247544 -147.553116 
L 264.016938 -150.342228 
L 263.219848 -153.13134 
L 263.174688 -155.920452 
L 263.879026 -158.709564 
L 265.840949 -161.498676 
L 268.09183 -164.287788 
L 270.328268 -167.0769 
L 273.211204 -169.866012 
L 276.922487 -172.655124 
L 280.449395 -175.444236 
L 284.485064 -178.233348 
L 288.958056 -181.02246 
L 293.729051 -183.811572 
L 298.511689 -186.600684 
L 302.877386 -189.389796 
L 307.014343 -192.178908 
L 311.315406 -194.96802 
L 315.470626 -197.757132 
L 318.928436 -200.546244 
L 322.120628 -203.335356 
L 325.438231 -206.124468 
L 328.144288 -208.91358 
L 330.573339 -211.702692 
L 332.77518 -214.491804 
L 334.890675 -217.280916 
L 336.448495 -220.070028 
L 337.71954 -222.85914 
L 338.988709 -225.648252 
L 340.260597 -228.437364 
L 341.173213 -231.226476 
L 341.865583 -234.015588 
L 342.363049 -236.8047 
L 342.797285 -239.593812 
L 343.157665 -242.382924 
L 343.512251 -245.172036 
L 343.833439 -247.961148 
L 344.073601 -250.75026 
L 344.21098 -253.539372 
L 344.339264 -256.328484 
L 344.456449 -259.117596 
L 344.520534 -261.906708 
L 344.552837 -264.69582 
L 344.56255 -267.484933 
L 344.597541 -270.274045 
L 344.627731 -273.063157 
L 344.653913 -275.852269 
L 344.660836 -278.641381 
L 344.671543 -281.430493 
L 344.697859 -284.219605 
L 344.707647 -287.008717 
L 344.701709 -289.797829 
L 344.715854 -292.586941 
L 344.727523 -295.376053 
L 344.727942 -298.165165 
L 344.732953 -300.954277 
L 344.735936 -303.743389 
L 344.739062 -306.532501 
L 344.739192 -309.321613 
L 344.741481 -312.110725 
L 344.740977 -314.899837 
L 344.739004 -317.688949 
L 344.745371 -317.688949 
L 344.745371 -317.688949 
L 344.743398 -314.899837 
L 344.742894 -312.110725 
L 344.745183 -309.321613 
L 344.745313 -306.532501 
L 344.748439 -303.743389 
L 344.751422 -300.954277 
L 344.756433 -298.165165 
L 344.756852 -295.376053 
L 344.768521 -292.586941 
L 344.782666 -289.797829 
L 344.776728 -287.008717 
L 344.786516 -284.219605 
L 344.812832 -281.430493 
L 344.823539 -278.641381 
L 344.830462 -275.852269 
L 344.856644 -273.063157 
L 344.886834 -270.274045 
L 344.921825 -267.484933 
L 344.931538 -264.69582 
L 344.963841 -261.906708 
L 345.027926 -259.117596 
L 345.145111 -256.328484 
L 345.273395 -253.539372 
L 345.410774 -250.75026 
L 345.650936 -247.961148 
L 345.972124 -245.172036 
L 346.32671 -242.382924 
L 346.68709 -239.593812 
L 347.121326 -236.8047 
L 347.618792 -234.015588 
L 348.311162 -231.226476 
L 349.223778 -228.437364 
L 350.495666 -225.648252 
L 351.764835 -222.85914 
L 353.03588 -220.070028 
L 354.5937 -217.280916 
L 356.709195 -214.491804 
L 358.911036 -211.702692 
L 361.340087 -208.91358 
L 364.046144 -206.124468 
L 367.363747 -203.335356 
L 370.555939 -200.546244 
L 374.013749 -197.757132 
L 378.168969 -194.96802 
L 382.470032 -192.178908 
L 386.606989 -189.389796 
L 390.972686 -186.600684 
L 395.755324 -183.811572 
L 400.526319 -181.02246 
L 404.999311 -178.233348 
L 409.03498 -175.444236 
L 412.561888 -172.655124 
L 416.273171 -169.866012 
L 419.156107 -167.0769 
L 421.392545 -164.287788 
L 423.643426 -161.498676 
L 425.605349 -158.709564 
L 426.309687 -155.920452 
L 426.264527 -153.13134 
L 425.467437 -150.342228 
L 424.236831 -147.553116 
L 422.833476 -144.764004 
L 421.181418 -141.974892 
L 419.071857 -139.18578 
L 416.706243 -136.396668 
L 414.046464 -133.607556 
L 411.560789 -130.818444 
L 408.700224 -128.029332 
L 405.758091 -125.24022 
L 402.543547 -122.451107 
L 398.567044 -119.661995 
L 393.89454 -116.872883 
L 389.344681 -114.083771 
L 384.337306 -111.294659 
L 378.528832 -108.505547 
L 373.04772 -105.716435 
L 367.892951 -102.927323 
L 363.277593 -100.138211 
L 359.462592 -97.349099 
L 356.355097 -94.559987 
L 353.665275 -91.770875 
L 351.57571 -88.981763 
L 350.017037 -86.192651 
L 348.609782 -83.403539 
L 347.47066 -80.614427 
L 346.645697 -77.825315 
L 346.037994 -75.036203 
L 345.601126 -72.247091 
L 345.301033 -69.457979 
L 345.136708 -66.668867 
L 345.004181 -63.879755 
L 344.901464 -61.090643 
L 344.838285 -58.301531 
L 344.795808 -55.512419 
L 344.773419 -52.723307 
L 344.753481 -49.934195 
L 344.746866 -47.145083 
L 344.748638 -44.355971 
L 344.750195 -41.566859 
z
" id="mb8747c3c23" style="stroke:#404040;stroke-width:1.5;"/>
    </defs>
    <g clip-path="url(#p96d390e8e9)">
     <use style="fill:#a03434;stroke:#404040;stroke-width:1.5;" x="0" xlink:href="#mb8747c3c23" y="338.905312"/>
    </g>
   </g>
   <g id="line2d_11">
    <path clip-path="url(#p96d390e8e9)" d="M 61.40826 218.042114 
L 220.238615 218.042114 
" style="fill:none;stroke:#404040;stroke-dasharray:3.375,3.375;stroke-dashoffset:0;stroke-width:1.5;"/>
   </g>
   <g id="line2d_12">
    <path clip-path="url(#p96d390e8e9)" d="M 67.673168 196.590082 
L 213.973707 196.590082 
" style="fill:none;stroke:#404040;stroke-dasharray:6.75,6.75;stroke-dashoffset:0;stroke-width:1.5;"/>
   </g>
   <g id="line2d_13">
    <path clip-path="url(#p96d390e8e9)" d="M 81.026948 173.151572 
L 200.619927 173.151572 
" style="fill:none;stroke:#404040;stroke-dasharray:3.375,3.375;stroke-dashoffset:0;stroke-width:1.5;"/>
   </g>
   <g id="line2d_14">
    <path clip-path="url(#p96d390e8e9)" d="M 278.591772 207.426049 
L 410.892603 207.426049 
" style="fill:none;stroke:#404040;stroke-dasharray:3.375,3.375;stroke-dashoffset:0;stroke-width:1.5;"/>
   </g>
   <g id="line2d_15">
    <path clip-path="url(#p96d390e8e9)" d="M 264.035072 186.036585 
L 425.449303 186.036585 
" style="fill:none;stroke:#404040;stroke-dasharray:6.75,6.75;stroke-dashoffset:0;stroke-width:1.5;"/>
   </g>
   <g id="line2d_16">
    <path clip-path="url(#p96d390e8e9)" d="M 281.092323 164.818052 
L 408.392052 164.818052 
" style="fill:none;stroke:#404040;stroke-dasharray:3.375,3.375;stroke-dashoffset:0;stroke-width:1.5;"/>
   </g>
   <g id="patch_3">
    <path d="M 38.864063 299.094254 
L 38.864063 25.938855 
" style="fill:none;stroke:#262626;stroke-linecap:square;stroke-linejoin:miter;stroke-width:0.8;"/>
   </g>
   <g id="patch_4">
    <path d="M 140.823438 315.56 
L 344.742188 315.56 
" style="fill:none;stroke:#262626;stroke-linecap:square;stroke-linejoin:miter;stroke-width:0.8;"/>
   </g>
   <g id="text_12">
    <text style="fill:#262626;font-family:Arial;font-size:10px;font-stretch:normal;font-style:normal;font-weight:normal;text-anchor:middle;" transform="rotate(-0, 242.782813, 19.228864)" x="242.782813" y="19.228864">*</text>
   </g>
  </g>
 </g>
 <defs>
  <clipPath id="p96d390e8e9">
   <rect height="308.36" width="407.8375" x="38.864063" y="7.2"/>
  </clipPath>
 </defs>
</svg>
