<?xml version="1.0" encoding="utf-8" standalone="no"?>
<!DOCTYPE svg PUBLIC "-//W3C//DTD SVG 1.1//EN"
  "http://www.w3.org/Graphics/SVG/1.1/DTD/svg11.dtd">
<svg height="337.998125pt" version="1.1" viewBox="0 0 453.270312 337.998125" width="453.270312pt" xmlns="http://www.w3.org/2000/svg" xmlns:xlink="http://www.w3.org/1999/xlink">
 <metadata>
  <rdf:RDF xmlns:cc="http://creativecommons.org/ns#" xmlns:dc="http://purl.org/dc/elements/1.1/" xmlns:rdf="http://www.w3.org/1999/02/22-rdf-syntax-ns#">
   <cc:Work>
    <dc:type rdf:resource="http://purl.org/dc/dcmitype/StillImage"/>
    <dc:date>2022-09-28T04:07:31.030137</dc:date>
    <dc:format>image/svg+xml</dc:format>
    <dc:creator>
     <cc:Agent>
      <dc:title>Matplotlib v3.4.3, https://matplotlib.org/</dc:title>
     </cc:Agent>
    </dc:creator>
   </cc:Work>
  </rdf:RDF>
 </metadata>
 <defs>
  <style type="text/css">*{stroke-linecap:butt;stroke-linejoin:round;}</style>
 </defs>
 <g id="figure_1">
  <g id="patch_1">
   <path d="M 0 337.998125 
L 453.270312 337.998125 
L 453.270312 0 
L 0 0 
z
" style="fill:#ffffff;"/>
  </g>
  <g id="axes_1">
   <g id="patch_2">
    <path d="M 42.620313 314.12 
L 446.070312 314.12 
L 446.070312 7.2 
L 42.620313 7.2 
z
" style="fill:#ffffff;"/>
   </g>
   <g id="matplotlib.axis_1">
    <g id="xtick_1">
     <g id="line2d_1">
      <defs>
       <path d="M 0 0 
L 0 3.5 
" id="m1aa95f1861" style="stroke:#262626;stroke-width:0.8;"/>
      </defs>
      <g>
       <use style="fill:#262626;stroke:#262626;stroke-width:0.8;" x="143.482813" xlink:href="#m1aa95f1861" y="314.12"/>
      </g>
     </g>
     <g id="text_1">
      <text style="fill:#262626;font-family:DejaVu Sans;font-size:10px;font-stretch:normal;font-style:normal;font-weight:normal;text-anchor:middle;" transform="rotate(-0, 143.482813, 328.718437)" x="143.482813" y="328.718437">within network</text>
     </g>
    </g>
    <g id="xtick_2">
     <g id="line2d_2">
      <g>
       <use style="fill:#262626;stroke:#262626;stroke-width:0.8;" x="345.207813" xlink:href="#m1aa95f1861" y="314.12"/>
      </g>
     </g>
     <g id="text_2">
      <text style="fill:#262626;font-family:DejaVu Sans;font-size:10px;font-stretch:normal;font-style:normal;font-weight:normal;text-anchor:middle;" transform="rotate(-0, 345.207813, 328.718437)" x="345.207813" y="328.718437">between network</text>
     </g>
    </g>
   </g>
   <g id="matplotlib.axis_2">
    <g id="ytick_1">
     <g id="line2d_3">
      <defs>
       <path d="M 0 0 
L -3.5 0 
" id="m47cadd6588" style="stroke:#262626;stroke-width:0.8;"/>
      </defs>
      <g>
       <use style="fill:#262626;stroke:#262626;stroke-width:0.8;" x="42.620313" xlink:href="#m47cadd6588" y="297.731147"/>
      </g>
     </g>
     <g id="text_3">
      <text style="fill:#262626;font-family:DejaVu Sans;font-size:10px;font-stretch:normal;font-style:normal;font-weight:normal;text-anchor:end;" transform="rotate(-0, 35.620313, 301.530366)" x="35.620313" y="301.530366">−4</text>
     </g>
    </g>
    <g id="ytick_2">
     <g id="line2d_4">
      <g>
       <use style="fill:#262626;stroke:#262626;stroke-width:0.8;" x="42.620313" xlink:href="#m47cadd6588" y="258.891176"/>
      </g>
     </g>
     <g id="text_4">
      <text style="fill:#262626;font-family:DejaVu Sans;font-size:10px;font-stretch:normal;font-style:normal;font-weight:normal;text-anchor:end;" transform="rotate(-0, 35.620313, 262.690395)" x="35.620313" y="262.690395">−2</text>
     </g>
    </g>
    <g id="ytick_3">
     <g id="line2d_5">
      <g>
       <use style="fill:#262626;stroke:#262626;stroke-width:0.8;" x="42.620313" xlink:href="#m47cadd6588" y="220.051204"/>
      </g>
     </g>
     <g id="text_5">
      <text style="fill:#262626;font-family:DejaVu Sans;font-size:10px;font-stretch:normal;font-style:normal;font-weight:normal;text-anchor:end;" transform="rotate(-0, 35.620313, 223.850423)" x="35.620313" y="223.850423">0</text>
     </g>
    </g>
    <g id="ytick_4">
     <g id="line2d_6">
      <g>
       <use style="fill:#262626;stroke:#262626;stroke-width:0.8;" x="42.620313" xlink:href="#m47cadd6588" y="181.211233"/>
      </g>
     </g>
     <g id="text_6">
      <text style="fill:#262626;font-family:DejaVu Sans;font-size:10px;font-stretch:normal;font-style:normal;font-weight:normal;text-anchor:end;" transform="rotate(-0, 35.620313, 185.010452)" x="35.620313" y="185.010452">2</text>
     </g>
    </g>
    <g id="ytick_5">
     <g id="line2d_7">
      <g>
       <use style="fill:#262626;stroke:#262626;stroke-width:0.8;" x="42.620313" xlink:href="#m47cadd6588" y="142.371262"/>
      </g>
     </g>
     <g id="text_7">
      <text style="fill:#262626;font-family:DejaVu Sans;font-size:10px;font-stretch:normal;font-style:normal;font-weight:normal;text-anchor:end;" transform="rotate(-0, 35.620313, 146.17048)" x="35.620313" y="146.17048">4</text>
     </g>
    </g>
    <g id="ytick_6">
     <g id="line2d_8">
      <g>
       <use style="fill:#262626;stroke:#262626;stroke-width:0.8;" x="42.620313" xlink:href="#m47cadd6588" y="103.53129"/>
      </g>
     </g>
     <g id="text_8">
      <text style="fill:#262626;font-family:DejaVu Sans;font-size:10px;font-stretch:normal;font-style:normal;font-weight:normal;text-anchor:end;" transform="rotate(-0, 35.620313, 107.330509)" x="35.620313" y="107.330509">6</text>
     </g>
    </g>
    <g id="ytick_7">
     <g id="line2d_9">
      <g>
       <use style="fill:#262626;stroke:#262626;stroke-width:0.8;" x="42.620313" xlink:href="#m47cadd6588" y="64.691319"/>
      </g>
     </g>
     <g id="text_9">
      <text style="fill:#262626;font-family:DejaVu Sans;font-size:10px;font-stretch:normal;font-style:normal;font-weight:normal;text-anchor:end;" transform="rotate(-0, 35.620313, 68.490538)" x="35.620313" y="68.490538">8</text>
     </g>
    </g>
    <g id="ytick_8">
     <g id="line2d_10">
      <g>
       <use style="fill:#262626;stroke:#262626;stroke-width:0.8;" x="42.620313" xlink:href="#m47cadd6588" y="25.851347"/>
      </g>
     </g>
     <g id="text_10">
      <text style="fill:#262626;font-family:DejaVu Sans;font-size:10px;font-stretch:normal;font-style:normal;font-weight:normal;text-anchor:end;" transform="rotate(-0, 35.620313, 29.650566)" x="35.620313" y="29.650566">10</text>
     </g>
    </g>
    <g id="text_11">
     <text style="fill:#262626;font-family:DejaVu Sans;font-size:10px;font-stretch:normal;font-style:normal;font-weight:normal;text-anchor:middle;" transform="rotate(-90, 14.798438, 160.66)" x="14.798438" y="160.66">standardized shortest path length</text>
    </g>
   </g>
   <g id="PolyCollection_1">
    <defs>
     <path d="M 143.503544 -37.829034 
L 143.462081 -37.829034 
L 143.465612 -40.241974 
L 143.468772 -42.654914 
L 143.459715 -45.067853 
L 143.44652 -47.480793 
L 143.427455 -49.893733 
L 143.39365 -52.306673 
L 143.348842 -54.719613 
L 143.296001 -57.132552 
L 143.232988 -59.545492 
L 143.137158 -61.958432 
L 142.967972 -64.371372 
L 142.69697 -66.784312 
L 142.298668 -69.197251 
L 141.76971 -71.610191 
L 141.075196 -74.023131 
L 140.196502 -76.436071 
L 139.117866 -78.849011 
L 137.708706 -81.26195 
L 135.819174 -83.67489 
L 133.494497 -86.08783 
L 130.839633 -88.50077 
L 127.953259 -90.913709 
L 124.613693 -93.326649 
L 120.286076 -95.739589 
L 115.082916 -98.152529 
L 109.756252 -100.565469 
L 104.155685 -102.978408 
L 97.559447 -105.391348 
L 90.499269 -107.804288 
L 83.848859 -110.217228 
L 77.416492 -112.630168 
L 70.982819 -115.043107 
L 65.882354 -117.456047 
L 64.128437 -119.868987 
L 64.95533 -122.281927 
L 66.447148 -124.694867 
L 67.810237 -127.107806 
L 68.704017 -129.520746 
L 69.274955 -131.933686 
L 69.900495 -134.346626 
L 70.07681 -136.759565 
L 69.874617 -139.172505 
L 70.388548 -141.585445 
L 71.361405 -143.998385 
L 71.898176 -146.411325 
L 71.865912 -148.824264 
L 72.197056 -151.237204 
L 73.587529 -153.650144 
L 75.382552 -156.063084 
L 77.300172 -158.476024 
L 79.294604 -160.888963 
L 81.262577 -163.301903 
L 83.732104 -165.714843 
L 86.459341 -168.127783 
L 88.730354 -170.540723 
L 90.950924 -172.953662 
L 93.762109 -175.366602 
L 97.19616 -177.779542 
L 100.798086 -180.192482 
L 104.256124 -182.605422 
L 107.662506 -185.018361 
L 110.953506 -187.431301 
L 114.029369 -189.844241 
L 116.744462 -192.257181 
L 119.412564 -194.67012 
L 122.447417 -197.08306 
L 125.318116 -199.496 
L 127.478502 -201.90894 
L 129.432917 -204.32188 
L 131.539522 -206.734819 
L 133.325222 -209.147759 
L 134.596435 -211.560699 
L 135.739248 -213.973639 
L 136.994503 -216.386579 
L 138.18501 -218.799518 
L 139.156266 -221.212458 
L 139.918924 -223.625398 
L 140.593103 -226.038338 
L 141.161733 -228.451278 
L 141.563518 -230.864217 
L 141.896256 -233.277157 
L 142.227168 -235.690097 
L 142.502994 -238.103037 
L 142.69241 -240.515976 
L 142.833913 -242.928916 
L 142.968514 -245.341856 
L 143.093279 -247.754796 
L 143.184849 -250.167736 
L 143.244246 -252.580675 
L 143.27984 -254.993615 
L 143.307525 -257.406555 
L 143.341822 -259.819495 
L 143.371482 -262.232435 
L 143.39969 -264.645374 
L 143.435368 -267.058314 
L 143.464635 -269.471254 
L 143.476682 -271.884194 
L 143.47533 -274.297134 
L 143.472345 -276.710073 
L 143.49328 -276.710073 
L 143.49328 -276.710073 
L 143.490295 -274.297134 
L 143.488943 -271.884194 
L 143.50099 -269.471254 
L 143.530257 -267.058314 
L 143.565935 -264.645374 
L 143.594143 -262.232435 
L 143.623803 -259.819495 
L 143.6581 -257.406555 
L 143.685785 -254.993615 
L 143.721379 -252.580675 
L 143.780776 -250.167736 
L 143.872346 -247.754796 
L 143.997111 -245.341856 
L 144.131712 -242.928916 
L 144.273215 -240.515976 
L 144.462631 -238.103037 
L 144.738457 -235.690097 
L 145.069369 -233.277157 
L 145.402107 -230.864217 
L 145.803892 -228.451278 
L 146.372522 -226.038338 
L 147.046701 -223.625398 
L 147.809359 -221.212458 
L 148.780615 -218.799518 
L 149.971122 -216.386579 
L 151.226377 -213.973639 
L 152.36919 -211.560699 
L 153.640403 -209.147759 
L 155.426103 -206.734819 
L 157.532708 -204.32188 
L 159.487123 -201.90894 
L 161.647509 -199.496 
L 164.518208 -197.08306 
L 167.553061 -194.67012 
L 170.221163 -192.257181 
L 172.936256 -189.844241 
L 176.012119 -187.431301 
L 179.303119 -185.018361 
L 182.709501 -182.605422 
L 186.167539 -180.192482 
L 189.769465 -177.779542 
L 193.203516 -175.366602 
L 196.014701 -172.953662 
L 198.235271 -170.540723 
L 200.506284 -168.127783 
L 203.233521 -165.714843 
L 205.703048 -163.301903 
L 207.671021 -160.888963 
L 209.665453 -158.476024 
L 211.583073 -156.063084 
L 213.378096 -153.650144 
L 214.768569 -151.237204 
L 215.099713 -148.824264 
L 215.067449 -146.411325 
L 215.60422 -143.998385 
L 216.577077 -141.585445 
L 217.091008 -139.172505 
L 216.888815 -136.759565 
L 217.06513 -134.346626 
L 217.69067 -131.933686 
L 218.261608 -129.520746 
L 219.155388 -127.107806 
L 220.518477 -124.694867 
L 222.010295 -122.281927 
L 222.837188 -119.868987 
L 221.083271 -117.456047 
L 215.982806 -115.043107 
L 209.549133 -112.630168 
L 203.116766 -110.217228 
L 196.466356 -107.804288 
L 189.406178 -105.391348 
L 182.80994 -102.978408 
L 177.209373 -100.565469 
L 171.882709 -98.152529 
L 166.679549 -95.739589 
L 162.351932 -93.326649 
L 159.012366 -90.913709 
L 156.125992 -88.50077 
L 153.471128 -86.08783 
L 151.146451 -83.67489 
L 149.256919 -81.26195 
L 147.847759 -78.849011 
L 146.769123 -76.436071 
L 145.890429 -74.023131 
L 145.195915 -71.610191 
L 144.666957 -69.197251 
L 144.268655 -66.784312 
L 143.997653 -64.371372 
L 143.828467 -61.958432 
L 143.732637 -59.545492 
L 143.669624 -57.132552 
L 143.616783 -54.719613 
L 143.571975 -52.306673 
L 143.53817 -49.893733 
L 143.519105 -47.480793 
L 143.50591 -45.067853 
L 143.496853 -42.654914 
L 143.500013 -40.241974 
L 143.503544 -37.829034 
z
" id="m83c956ed57" style="stroke:#404040;stroke-width:1.5;"/>
    </defs>
    <g clip-path="url(#p2b025992b1)">
     <use style="fill:#5573cd;stroke:#404040;stroke-width:1.5;" x="0" xlink:href="#m83c956ed57" y="337.998125"/>
    </g>
   </g>
   <g id="PolyCollection_2">
    <defs>
     <path d="M 345.215734 -42.014579 
L 345.199891 -42.014579 
L 345.201431 -44.790666 
L 345.203185 -47.566754 
L 345.19664 -50.342841 
L 345.176917 -53.118928 
L 345.154769 -55.895015 
L 345.112749 -58.671103 
L 345.050249 -61.44719 
L 344.948638 -64.223277 
L 344.817536 -66.999364 
L 344.654979 -69.775452 
L 344.358114 -72.551539 
L 343.925946 -75.327626 
L 343.324781 -78.103713 
L 342.508693 -80.879801 
L 341.381825 -83.655888 
L 339.989709 -86.431975 
L 338.447805 -89.208062 
L 336.38072 -91.98415 
L 333.719834 -94.760237 
L 330.645769 -97.536324 
L 326.87181 -100.312411 
L 322.306104 -103.088498 
L 317.20679 -105.864586 
L 311.784644 -108.640673 
L 306.038656 -111.41676 
L 301.08515 -114.192847 
L 296.584239 -116.968935 
L 291.962001 -119.745022 
L 288.028277 -122.521109 
L 284.848315 -125.297196 
L 281.937834 -128.073284 
L 279.108042 -130.849371 
L 276.649109 -133.625458 
L 274.017944 -136.401545 
L 271.677779 -139.177633 
L 269.590912 -141.95372 
L 267.956627 -144.729807 
L 266.568369 -147.505894 
L 265.351002 -150.281982 
L 264.562487 -153.058069 
L 264.517812 -155.834156 
L 265.214574 -158.610243 
L 267.155391 -161.386331 
L 269.382057 -164.162418 
L 271.594435 -166.938505 
L 274.446356 -169.714592 
L 278.117714 -172.490679 
L 281.606679 -175.266767 
L 285.598933 -178.042854 
L 290.023805 -180.818941 
L 294.743474 -183.595028 
L 299.47466 -186.371116 
L 303.793391 -189.147203 
L 307.885843 -191.92329 
L 312.140635 -194.699377 
L 316.251154 -197.475465 
L 319.671765 -200.251552 
L 322.829615 -203.027639 
L 326.111527 -205.803726 
L 328.788473 -208.579814 
L 331.191392 -211.355901 
L 333.369546 -214.131988 
L 335.462282 -216.908075 
L 337.003343 -219.684163 
L 338.260715 -222.46025 
L 339.51623 -225.236337 
L 340.774435 -228.012424 
L 341.677233 -230.788511 
L 342.362154 -233.564599 
L 342.854269 -236.340686 
L 343.283833 -239.116773 
L 343.640336 -241.89286 
L 343.991108 -244.668948 
L 344.308841 -247.445035 
L 344.546418 -250.221122 
L 344.68232 -252.997209 
L 344.809223 -255.773297 
L 344.925148 -258.549384 
L 344.988544 -261.325471 
L 345.020499 -264.101558 
L 345.030107 -266.877646 
L 345.064722 -269.653733 
L 345.094588 -272.42982 
L 345.120488 -275.205907 
L 345.127336 -277.981995 
L 345.137928 -280.758082 
L 345.163961 -283.534169 
L 345.173644 -286.310256 
L 345.16777 -289.086344 
L 345.181762 -291.862431 
L 345.193306 -294.638518 
L 345.19372 -297.414605 
L 345.198677 -300.190692 
L 345.201628 -302.96678 
L 345.204721 -305.742867 
L 345.204849 -308.518954 
L 345.207113 -311.295041 
L 345.206615 -314.071129 
L 345.204663 -316.847216 
L 345.210962 -316.847216 
L 345.210962 -316.847216 
L 345.20901 -314.071129 
L 345.208512 -311.295041 
L 345.210776 -308.518954 
L 345.210904 -305.742867 
L 345.213997 -302.96678 
L 345.216948 -300.190692 
L 345.221905 -297.414605 
L 345.222319 -294.638518 
L 345.233863 -291.862431 
L 345.247855 -289.086344 
L 345.241981 -286.310256 
L 345.251664 -283.534169 
L 345.277697 -280.758082 
L 345.288289 -277.981995 
L 345.295137 -275.205907 
L 345.321037 -272.42982 
L 345.350903 -269.653733 
L 345.385518 -266.877646 
L 345.395126 -264.101558 
L 345.427081 -261.325471 
L 345.490477 -258.549384 
L 345.606402 -255.773297 
L 345.733305 -252.997209 
L 345.869207 -250.221122 
L 346.106784 -247.445035 
L 346.424517 -244.668948 
L 346.775289 -241.89286 
L 347.131792 -239.116773 
L 347.561356 -236.340686 
L 348.053471 -233.564599 
L 348.738392 -230.788511 
L 349.64119 -228.012424 
L 350.899395 -225.236337 
L 352.15491 -222.46025 
L 353.412282 -219.684163 
L 354.953343 -216.908075 
L 357.046079 -214.131988 
L 359.224233 -211.355901 
L 361.627152 -208.579814 
L 364.304098 -205.803726 
L 367.58601 -203.027639 
L 370.74386 -200.251552 
L 374.164471 -197.475465 
L 378.27499 -194.699377 
L 382.529782 -191.92329 
L 386.622234 -189.147203 
L 390.940965 -186.371116 
L 395.672151 -183.595028 
L 400.39182 -180.818941 
L 404.816692 -178.042854 
L 408.808946 -175.266767 
L 412.297911 -172.490679 
L 415.969269 -169.714592 
L 418.82119 -166.938505 
L 421.033568 -164.162418 
L 423.260234 -161.386331 
L 425.201051 -158.610243 
L 425.897812 -155.834156 
L 425.853138 -153.058069 
L 425.064623 -150.281982 
L 423.847256 -147.505894 
L 422.458998 -144.729807 
L 420.824713 -141.95372 
L 418.737846 -139.177633 
L 416.397681 -136.401545 
L 413.766516 -133.625458 
L 411.307583 -130.849371 
L 408.477791 -128.073284 
L 405.56731 -125.297196 
L 402.387348 -122.521109 
L 398.453624 -119.745022 
L 393.831386 -116.968935 
L 389.330475 -114.192847 
L 384.376969 -111.41676 
L 378.630981 -108.640673 
L 373.208835 -105.864586 
L 368.109521 -103.088498 
L 363.543815 -100.312411 
L 359.769856 -97.536324 
L 356.695791 -94.760237 
L 354.034905 -91.98415 
L 351.96782 -89.208062 
L 350.425916 -86.431975 
L 349.0338 -83.655888 
L 347.906932 -80.879801 
L 347.090844 -78.103713 
L 346.489679 -75.327626 
L 346.057511 -72.551539 
L 345.760646 -69.775452 
L 345.598089 -66.999364 
L 345.466987 -64.223277 
L 345.365376 -61.44719 
L 345.302876 -58.671103 
L 345.260856 -55.895015 
L 345.238708 -53.118928 
L 345.218985 -50.342841 
L 345.21244 -47.566754 
L 345.214194 -44.790666 
L 345.215734 -42.014579 
z
" id="m3060203fec" style="stroke:#404040;stroke-width:1.5;"/>
    </defs>
    <g clip-path="url(#p2b025992b1)">
     <use style="fill:#a03434;stroke:#404040;stroke-width:1.5;" x="0" xlink:href="#m3060203fec" y="337.998125"/>
    </g>
   </g>
   <g id="line2d_11">
    <path clip-path="url(#p2b025992b1)" d="M 64.921981 217.05751 
L 222.043644 217.05751 
" style="fill:none;stroke:#404040;stroke-dasharray:3.375,3.375;stroke-dashoffset:0;stroke-width:1.5;"/>
   </g>
   <g id="line2d_12">
    <path clip-path="url(#p2b025992b1)" d="M 71.119491 195.705656 
L 215.846134 195.705656 
" style="fill:none;stroke:#404040;stroke-dasharray:6.75,6.75;stroke-dashoffset:0;stroke-width:1.5;"/>
   </g>
   <g id="line2d_13">
    <path clip-path="url(#p2b025992b1)" d="M 84.329611 172.376601 
L 202.636014 172.376601 
" style="fill:none;stroke:#404040;stroke-dasharray:3.375,3.375;stroke-dashoffset:0;stroke-width:1.5;"/>
   </g>
   <g id="line2d_14">
    <path clip-path="url(#p2b025992b1)" d="M 279.76904 206.49102 
L 410.646585 206.49102 
" style="fill:none;stroke:#404040;stroke-dasharray:3.375,3.375;stroke-dashoffset:0;stroke-width:1.5;"/>
   </g>
   <g id="line2d_15">
    <path clip-path="url(#p2b025992b1)" d="M 265.368941 185.201442 
L 425.046684 185.201442 
" style="fill:none;stroke:#404040;stroke-dasharray:6.75,6.75;stroke-dashoffset:0;stroke-width:1.5;"/>
   </g>
   <g id="line2d_16">
    <path clip-path="url(#p2b025992b1)" d="M 282.242691 164.081997 
L 408.172934 164.081997 
" style="fill:none;stroke:#404040;stroke-dasharray:3.375,3.375;stroke-dashoffset:0;stroke-width:1.5;"/>
   </g>
   <g id="patch_3">
    <path d="M 42.620313 297.731147 
L 42.620313 25.851347 
" style="fill:none;stroke:#262626;stroke-linecap:square;stroke-linejoin:miter;stroke-width:0.8;"/>
   </g>
   <g id="patch_4">
    <path d="M 143.482813 314.12 
L 345.207813 314.12 
" style="fill:none;stroke:#262626;stroke-linecap:square;stroke-linejoin:miter;stroke-width:0.8;"/>
   </g>
   <g id="text_12">
    <text style="fill:#262626;font-family:DejaVu Sans;font-size:10px;font-stretch:normal;font-style:normal;font-weight:normal;text-anchor:middle;" transform="rotate(-0, 244.345313, 19.071222)" x="244.345313" y="19.071222">*</text>
   </g>
  </g>
 </g>
 <defs>
  <clipPath id="p2b025992b1">
   <rect height="306.92" width="403.45" x="42.620313" y="7.2"/>
  </clipPath>
 </defs>
</svg>
