<svg class="main-svg" xmlns="http://www.w3.org/2000/svg" xmlns:xlink="http://www.w3.org/1999/xlink" width="700" height="500" style="" viewBox="0 0 700 500"><rect x="0" y="0" width="700" height="500" style="fill: rgb(255, 255, 255); fill-opacity: 1;"/><defs id="defs-b66b80"><g class="clips"><clipPath id="clipb66b80polar-for-traces"><path d="M160,0A160,160 0,1,0 -160,-1.9594348786357652e-14A160,160 0,1,0 160,3.9188697572715304e-14Z" transform="translate(160,160)"/></clipPath></g><g class="gradients"/></defs><g class="bglayer"/><g class="layer-below"><g class="imagelayer"/><g class="shapelayer"/></g><g class="cartesianlayer"/><g class="polarlayer"><g class="polar"><g class="polarsublayer draglayer"/><g class="polarsublayer plotbg"><path d="M160,0A160,160 0,1,0 -160,-1.9594348786357652e-14A160,160 0,1,0 160,3.9188697572715304e-14Z" transform="translate(344,260)" style="fill: rgb(229, 236, 246); fill-opacity: 1;"/></g><g class="polarsublayer backplot"><g class="maplayer"/></g><g class="polarsublayer angular-grid" style="fill: none;"><path class="angularaxisgrid" d="M344,260L504,260" style="stroke: rgb(255, 255, 255); stroke-opacity: 1; stroke-width: 1px;"/><path class="angularaxisgrid" d="M344,260L393.97211725191124,108.00398854785288" style="stroke: rgb(255, 255, 255); stroke-opacity: 1; stroke-width: 1px;"/><path class="angularaxisgrid" d="M344,260L215.21515628298457,165.05546867363077" style="stroke: rgb(255, 255, 255); stroke-opacity: 1; stroke-width: 1px;"/><path class="angularaxisgrid" d="M344,260L213.58224136689176,352.68877080378354" style="stroke: rgb(255, 255, 255); stroke-opacity: 1; stroke-width: 1px;"/><path class="angularaxisgrid" d="M344,260L391.31919964020113,412.8427078581467" style="stroke: rgb(255, 255, 255); stroke-opacity: 1; stroke-width: 1px;"/></g><g class="polarsublayer radial-grid" transform="translate(344,260)" style="fill: none;"><path class="xgrid" d="M3.17,0A3.17,3.17 0,1,0 -3.17,-3.8821303532971097e-16A3.17,3.17 0,1,0 3.17,7.764260706594219e-16Z" style="stroke: rgb(255, 255, 255); stroke-opacity: 1; stroke-width: 1px;"/><path class="xgrid" d="M21.04,0A21.04,21.04 0,1,0 -21.04,-2.576656865406031e-15A21.04,21.04 0,1,0 21.04,5.153313730812062e-15Z" style="stroke: rgb(255, 255, 255); stroke-opacity: 1; stroke-width: 1px;"/><path class="xgrid" d="M38.9,0A38.9,38.9 0,1,0 -38.9,-4.763876048683204e-15A38.9,38.9 0,1,0 38.9,9.527752097366407e-15Z" style="stroke: rgb(255, 255, 255); stroke-opacity: 1; stroke-width: 1px;"/><path class="xgrid" d="M56.77,0A56.77,56.77 0,1,0 -56.77,-6.952319878759524e-15A56.77,56.77 0,1,0 56.77,1.3904639757519049e-14Z" style="stroke: rgb(255, 255, 255); stroke-opacity: 1; stroke-width: 1px;"/><path class="xgrid" d="M74.64,0A74.64,74.64 0,1,0 -74.64,-9.140763708835844e-15A74.64,74.64 0,1,0 74.64,1.8281527417671688e-14Z" style="stroke: rgb(255, 255, 255); stroke-opacity: 1; stroke-width: 1px;"/><path class="xgrid" d="M92.5,0A92.5,92.5 0,1,0 -92.5,-1.1327982892113017e-14A92.5,92.5 0,1,0 92.5,2.2655965784226034e-14Z" style="stroke: rgb(255, 255, 255); stroke-opacity: 1; stroke-width: 1px;"/><path class="xgrid" d="M110.37,0A110.37,110.37 0,1,0 -110.37,-1.3516426722189338e-14A110.37,110.37 0,1,0 110.37,2.7032853444378677e-14Z" style="stroke: rgb(255, 255, 255); stroke-opacity: 1; stroke-width: 1px;"/><path class="xgrid" d="M128.24,0A128.24,128.24 0,1,0 -128.24,-1.570487055226566e-14A128.24,128.24 0,1,0 128.24,3.140974110453132e-14Z" style="stroke: rgb(255, 255, 255); stroke-opacity: 1; stroke-width: 1px;"/><path class="xgrid" d="M146.11,0A146.11,146.11 0,1,0 -146.11,-1.789331438234198e-14A146.11,146.11 0,1,0 146.11,3.578662876468396e-14Z" style="stroke: rgb(255, 255, 255); stroke-opacity: 1; stroke-width: 1px;"/></g><g class="polarsublayer frontplot" transform="translate(184,100)"><g class="barlayer"/><g class="scatterlayer"><g class="trace scatter trace82dc26" style="stroke-miterlimit: 2; opacity: 1;"><g class="fills" clip-path="url('#clipb66b80polar-for-traces')"/><g class="errorbars"/><g class="lines"><path class="js-line" d="M234.64,160Q234.64,159.13 234.63,158.7C234.62,158.27 234.6,157.83 234.59,157.4C234.57,156.97 234.56,156.53 234.54,156.1C234.52,155.67 234.49,155.24 234.46,154.81C234.43,154.38 234.39,153.94 234.35,153.51C234.31,153.08 234.27,152.65 234.23,152.22C234.18,151.79 234.13,151.36 234.08,150.93C234.03,150.5 233.97,150.07 233.91,149.64C233.85,149.21 233.79,148.79 233.72,148.36C233.65,147.93 233.59,147.5 233.51,147.07C233.44,146.64 233.35,146.22 233.27,145.8C233.19,145.37 233.1,144.94 233.01,144.52C232.92,144.1 232.83,143.68 232.73,143.26C232.63,142.84 232.53,142.41 232.43,141.99C232.33,141.57 232.22,141.15 232.11,140.73C232,140.31 231.88,139.9 231.76,139.48C231.64,139.07 231.52,138.65 231.39,138.24C231.26,137.83 231.13,137.41 231,137C230.87,136.59 230.73,136.18 230.59,135.77C230.45,135.36 230.31,134.95 230.16,134.54C230.01,134.13 229.86,133.72 229.71,133.32C229.55,132.91 229.39,132.51 229.23,132.11C229.07,131.71 228.91,131.31 228.74,130.91C228.57,130.51 228.4,130.12 228.22,129.72C228.04,129.33 227.86,128.93 227.68,128.54C227.5,128.15 227.31,127.76 227.12,127.37C226.93,126.98 226.75,126.59 226.55,126.2C226.36,125.81 226.15,125.43 225.95,125.05C225.75,124.67 225.54,124.29 225.33,123.91C225.12,123.53 224.91,123.15 224.69,122.78C224.47,122.4 224.25,122.03 224.03,121.66C223.81,121.29 223.59,120.92 223.36,120.55C223.13,120.18 222.9,119.81 222.66,119.45C222.43,119.09 222.19,118.73 221.95,118.37C221.71,118.01 221.46,117.65 221.21,117.29C220.96,116.93 220.71,116.58 220.46,116.23C220.21,115.88 219.95,115.53 219.69,115.19C219.43,114.84 219.17,114.5 218.9,114.16C218.63,113.82 218.36,113.48 218.09,113.14C217.82,112.8 217.55,112.47 217.27,112.14C216.99,111.81 216.71,111.48 216.43,111.15C216.15,110.82 215.86,110.49 215.57,110.17C215.28,109.85 214.99,109.53 214.69,109.21C214.4,108.89 214.1,108.58 213.8,108.27C213.5,107.96 213.2,107.65 212.89,107.34C212.59,107.03 212.28,106.73 211.97,106.43C211.66,106.13 211.35,105.83 211.03,105.53C210.71,105.23 210.39,104.94 210.07,104.65C209.75,104.36 209.43,104.07 209.1,103.79C208.77,103.5 208.44,103.22 208.11,102.94C207.78,102.66 207.45,102.38 207.11,102.11C206.78,101.84 206.44,101.57 206.1,101.3C205.76,101.03 205.41,100.77 205.07,100.51C204.72,100.25 204.38,99.99 204.03,99.73C203.68,99.48 203.32,99.23 202.97,98.98C202.61,98.73 202.26,98.48 201.9,98.24C201.54,98 201.18,97.76 200.82,97.52C200.46,97.28 200.1,97.05 199.73,96.82C199.36,96.59 198.99,96.36 198.62,96.13C198.25,95.91 197.88,95.69 197.51,95.47C197.14,95.25 196.76,95.04 196.38,94.83C196,94.62 195.62,94.41 195.24,94.2C194.86,94 194.48,93.8 194.09,93.6C193.71,93.4 193.32,93.21 192.93,93.02C192.54,92.83 192.15,92.64 191.76,92.46C191.37,92.27 190.97,92.09 190.57,91.91C190.18,91.73 189.79,91.56 189.39,91.39C188.99,91.22 188.59,91.05 188.19,90.89C187.79,90.73 187.38,90.57 186.98,90.41C186.57,90.25 186.17,90.1 185.76,89.95C185.35,89.8 184.95,89.65 184.54,89.51C184.13,89.37 183.72,89.23 183.31,89.1C182.9,88.96 182.48,88.83 182.07,88.7C181.66,88.57 181.24,88.45 180.83,88.33C180.41,88.21 180,88.09 179.58,87.98C179.16,87.87 178.74,87.76 178.32,87.65C177.9,87.54 177.48,87.44 177.06,87.34C176.64,87.24 176.21,87.14 175.79,87.05C175.37,86.96 174.94,86.87 174.52,86.79C174.09,86.71 173.67,86.63 173.24,86.55C172.81,86.47 172.39,86.4 171.96,86.33C171.53,86.26 171.11,86.19 170.68,86.13C170.25,86.07 169.82,86.02 169.39,85.96C168.96,85.91 168.53,85.85 168.1,85.8C167.67,85.75 167.24,85.71 166.81,85.67C166.38,85.63 165.95,85.6 165.52,85.57C165.09,85.54 164.65,85.51 164.22,85.48C163.79,85.46 163.35,85.44 162.92,85.42C162.49,85.4 162.05,85.39 161.62,85.38C161.19,85.37 160.75,85.36 160.32,85.36C159.89,85.36 159.46,85.36 159.03,85.37C158.6,85.38 158.16,85.39 157.73,85.4C157.3,85.41 156.86,85.43 156.43,85.45C156,85.47 155.56,85.49 155.13,85.52C154.7,85.55 154.27,85.58 153.84,85.62C153.41,85.66 152.97,85.7 152.54,85.74C152.11,85.78 151.68,85.83 151.25,85.88C150.82,85.93 150.39,85.98 149.96,86.04C149.53,86.1 149.11,86.16 148.68,86.23C148.25,86.3 147.82,86.37 147.39,86.44C146.96,86.51 146.54,86.59 146.12,86.67C145.69,86.75 145.27,86.83 144.84,86.92C144.42,87.01 143.99,87.09 143.57,87.19C143.15,87.28 142.73,87.39 142.31,87.49C141.89,87.59 141.47,87.7 141.05,87.81C140.63,87.92 140.22,88.03 139.8,88.15C139.38,88.27 138.97,88.38 138.55,88.51C138.14,88.63 137.72,88.77 137.31,88.9C136.9,89.03 136.48,89.16 136.07,89.3C135.66,89.44 135.26,89.58 134.85,89.73C134.44,89.88 134.04,90.03 133.63,90.18C133.23,90.33 132.82,90.49 132.42,90.65C132.02,90.81 131.61,90.97 131.21,91.14C130.81,91.31 130.42,91.48 130.02,91.65C129.62,91.82 129.22,92 128.83,92.18C128.44,92.36 128.05,92.54 127.66,92.73C127.27,92.92 126.88,93.11 126.49,93.31C126.1,93.5 125.72,93.7 125.34,93.9C124.96,94.1 124.57,94.3 124.19,94.51C123.81,94.72 123.44,94.94 123.06,95.15C122.68,95.37 122.3,95.58 121.93,95.8C121.56,96.02 121.19,96.24 120.82,96.47C120.45,96.7 120.08,96.93 119.72,97.16C119.36,97.39 119,97.63 118.64,97.87C118.28,98.11 117.92,98.35 117.56,98.6C117.2,98.85 116.85,99.1 116.5,99.35C116.15,99.6 115.8,99.86 115.45,100.12C115.1,100.38 114.75,100.64 114.41,100.9C114.07,101.16 113.73,101.43 113.39,101.7C113.05,101.97 112.71,102.24 112.38,102.52C112.05,102.8 111.72,103.08 111.39,103.36C111.06,103.64 110.73,103.93 110.41,104.22C110.09,104.51 109.77,104.8 109.45,105.09C109.13,105.38 108.81,105.68 108.5,105.98C108.19,106.28 107.88,106.58 107.57,106.88C107.26,107.18 106.95,107.49 106.65,107.8C106.35,108.11 106.05,108.42 105.75,108.74C105.45,109.05 105.16,109.37 104.87,109.69C104.58,110.01 104.29,110.33 104,110.66C103.71,110.98 103.43,111.31 103.15,111.64C102.87,111.97 102.59,112.31 102.32,112.64C102.04,112.98 101.77,113.31 101.5,113.65C101.23,113.99 100.96,114.33 100.7,114.67C100.44,115.01 100.18,115.36 99.92,115.71C99.66,116.06 99.41,116.41 99.16,116.76C98.91,117.11 98.66,117.47 98.42,117.83C98.17,118.19 97.93,118.55 97.69,118.91C97.45,119.27 97.22,119.64 96.99,120C96.76,120.37 96.53,120.73 96.3,121.1C96.07,121.47 95.85,121.84 95.63,122.21C95.41,122.58 95.2,122.96 94.99,123.34C94.78,123.72 94.57,124.1 94.36,124.48C94.15,124.86 93.95,125.24 93.75,125.62C93.55,126 93.35,126.39 93.16,126.78C92.97,127.17 92.78,127.56 92.59,127.95C92.41,128.34 92.23,128.74 92.05,129.13C91.87,129.53 91.69,129.92 91.52,130.32C91.35,130.72 91.17,131.11 91.01,131.51C90.84,131.91 90.69,132.32 90.53,132.72C90.37,133.12 90.21,133.52 90.06,133.93C89.91,134.33 89.76,134.74 89.62,135.15C89.48,135.56 89.34,135.97 89.2,136.38C89.06,136.79 88.93,137.21 88.8,137.62C88.67,138.03 88.54,138.45 88.42,138.86C88.3,139.28 88.18,139.69 88.06,140.11C87.95,140.53 87.84,140.94 87.73,141.36C87.62,141.78 87.51,142.2 87.41,142.62C87.31,143.04 87.21,143.47 87.12,143.89C87.03,144.31 86.93,144.74 86.85,145.16C86.76,145.59 86.69,146.01 86.61,146.44C86.53,146.87 86.45,147.29 86.38,147.72C86.31,148.15 86.24,148.57 86.18,149C86.12,149.43 86.06,149.85 86,150.28C85.94,150.71 85.89,151.14 85.84,151.57C85.79,152 85.74,152.44 85.7,152.87C85.66,153.3 85.62,153.73 85.59,154.16C85.56,154.59 85.53,155.03 85.5,155.46C85.47,155.89 85.45,156.32 85.43,156.75C85.41,157.18 85.4,157.62 85.39,158.05C85.38,158.48 85.37,158.92 85.37,159.35C85.37,159.78 85.37,160.22 85.37,160.65C85.37,161.08 85.38,161.52 85.39,161.95C85.4,162.38 85.41,162.82 85.43,163.25C85.45,163.68 85.47,164.11 85.5,164.54C85.53,164.97 85.56,165.41 85.59,165.84C85.62,166.27 85.66,166.7 85.7,167.13C85.74,167.56 85.79,168 85.84,168.43C85.89,168.86 85.94,169.29 86,169.72C86.06,170.15 86.12,170.57 86.18,171C86.24,171.43 86.31,171.85 86.38,172.28C86.45,172.71 86.53,173.13 86.61,173.56C86.69,173.99 86.76,174.41 86.85,174.84C86.93,175.26 87.03,175.69 87.12,176.11C87.21,176.53 87.31,176.96 87.41,177.38C87.51,177.8 87.62,178.22 87.73,178.64C87.84,179.06 87.95,179.47 88.06,179.89C88.18,180.31 88.3,180.72 88.42,181.14C88.54,181.55 88.67,181.97 88.8,182.38C88.93,182.79 89.06,183.21 89.2,183.62C89.34,184.03 89.48,184.44 89.62,184.85C89.76,185.26 89.91,185.67 90.06,186.07C90.21,186.48 90.37,186.88 90.53,187.28C90.69,187.68 90.84,188.09 91.01,188.49C91.17,188.89 91.35,189.28 91.52,189.68C91.69,190.08 91.87,190.47 92.05,190.87C92.23,191.26 92.41,191.66 92.59,192.05C92.78,192.44 92.97,192.83 93.16,193.22C93.35,193.61 93.55,194 93.75,194.38C93.95,194.76 94.15,195.14 94.36,195.52C94.57,195.9 94.78,196.28 94.99,196.66C95.2,197.04 95.41,197.42 95.63,197.79C95.85,198.16 96.07,198.53 96.3,198.9C96.53,199.27 96.76,199.63 96.99,200C97.22,200.36 97.45,200.73 97.69,201.09C97.93,201.45 98.17,201.81 98.42,202.17C98.66,202.53 98.91,202.89 99.16,203.24C99.41,203.59 99.66,203.94 99.92,204.29C100.18,204.64 100.44,204.99 100.7,205.33C100.96,205.67 101.23,206.01 101.5,206.35C101.77,206.69 102.04,207.02 102.32,207.36C102.59,207.69 102.87,208.03 103.15,208.36C103.43,208.69 103.71,209.02 104,209.34C104.29,209.67 104.58,209.99 104.87,210.31C105.16,210.63 105.45,210.95 105.75,211.26C106.05,211.58 106.35,211.89 106.65,212.2C106.95,212.51 107.26,212.82 107.57,213.12C107.88,213.42 108.19,213.72 108.5,214.02C108.81,214.32 109.13,214.62 109.45,214.91C109.77,215.2 110.09,215.49 110.41,215.78C110.73,216.07 111.06,216.36 111.39,216.64C111.72,216.92 112.05,217.2 112.38,217.48C112.71,217.76 113.05,218.03 113.39,218.3C113.73,218.57 114.07,218.84 114.41,219.1C114.75,219.36 115.1,219.62 115.45,219.88C115.8,220.14 116.15,220.4 116.5,220.65C116.85,220.9 117.2,221.15 117.56,221.4C117.92,221.65 118.28,221.89 118.64,222.13C119,222.37 119.36,222.61 119.72,222.84C120.08,223.07 120.45,223.3 120.82,223.53C121.19,223.76 121.56,223.98 121.93,224.2C122.3,224.42 122.68,224.63 123.06,224.85C123.44,225.06 123.81,225.28 124.19,225.49C124.57,225.7 124.96,225.9 125.34,226.1C125.72,226.3 126.1,226.5 126.49,226.69C126.88,226.89 127.27,227.08 127.66,227.27C128.05,227.46 128.44,227.64 128.83,227.82C129.22,228 129.62,228.18 130.02,228.35C130.42,228.52 130.81,228.69 131.21,228.86C131.61,229.03 132.02,229.19 132.42,229.35C132.82,229.51 133.23,229.67 133.63,229.82C134.04,229.97 134.44,230.12 134.85,230.27C135.26,230.42 135.66,230.56 136.07,230.7C136.48,230.84 136.9,230.97 137.31,231.1C137.72,231.23 138.14,231.37 138.55,231.49C138.97,231.62 139.38,231.73 139.8,231.85C140.22,231.97 140.63,232.08 141.05,232.19C141.47,232.3 141.89,232.41 142.31,232.51C142.73,232.61 143.15,232.72 143.57,232.81C143.99,232.91 144.42,232.99 144.84,233.08C145.27,233.17 145.69,233.25 146.12,233.33C146.54,233.41 146.96,233.49 147.39,233.56C147.82,233.63 148.25,233.7 148.68,233.77C149.11,233.84 149.53,233.9 149.96,233.96C150.39,234.02 150.82,234.07 151.25,234.12C151.68,234.17 152.11,234.22 152.54,234.26C152.97,234.3 153.41,234.34 153.84,234.38C154.27,234.42 154.7,234.45 155.13,234.48C155.56,234.51 156,234.53 156.43,234.55C156.86,234.57 157.3,234.59 157.73,234.6C158.16,234.61 158.6,234.62 159.03,234.63C159.46,234.64 159.89,234.64 160.32,234.64C160.75,234.64 161.19,234.63 161.62,234.62C162.05,234.61 162.49,234.6 162.92,234.58C163.35,234.56 163.79,234.54 164.22,234.52C164.65,234.49 165.09,234.46 165.52,234.43C165.95,234.4 166.38,234.37 166.81,234.33C167.24,234.29 167.67,234.25 168.1,234.2C168.53,234.15 168.96,234.09 169.39,234.04C169.82,233.98 170.25,233.93 170.68,233.87C171.11,233.81 171.53,233.74 171.96,233.67C172.39,233.6 172.81,233.53 173.24,233.45C173.67,233.37 174.09,233.29 174.52,233.21C174.94,233.13 175.37,233.04 175.79,232.95C176.21,232.86 176.64,232.76 177.06,232.66C177.48,232.56 177.9,232.46 178.32,232.35C178.74,232.24 179.16,232.13 179.58,232.02C180,231.91 180.41,231.79 180.83,231.67C181.24,231.55 181.66,231.43 182.07,231.3C182.48,231.17 182.9,231.04 183.31,230.9C183.72,230.77 184.13,230.63 184.54,230.49C184.95,230.35 185.35,230.2 185.76,230.05C186.17,229.9 186.57,229.75 186.98,229.59C187.38,229.43 187.79,229.27 188.19,229.11C188.59,228.95 188.99,228.78 189.39,228.61C189.79,228.44 190.18,228.27 190.57,228.09C190.97,227.91 191.37,227.73 191.76,227.54C192.15,227.36 192.54,227.17 192.93,226.98C193.32,226.79 193.71,226.6 194.09,226.4C194.48,226.2 194.86,226 195.24,225.8C195.62,225.59 196,225.38 196.38,225.17C196.76,224.96 197.14,224.75 197.51,224.53C197.88,224.31 198.25,224.09 198.62,223.87C198.99,223.64 199.36,223.41 199.73,223.18C200.1,222.95 200.46,222.72 200.82,222.48C201.18,222.24 201.54,222 201.9,221.76C202.26,221.52 202.61,221.27 202.97,221.02C203.32,220.77 203.68,220.52 204.03,220.27C204.38,220.01 204.72,219.75 205.07,219.49C205.41,219.23 205.76,218.97 206.1,218.7C206.44,218.43 206.78,218.16 207.11,217.89C207.45,217.62 207.78,217.34 208.11,217.06C208.44,216.78 208.77,216.5 209.1,216.21C209.43,215.93 209.75,215.64 210.07,215.35C210.39,215.06 210.71,214.77 211.03,214.47C211.35,214.17 211.66,213.87 211.97,213.57C212.28,213.27 212.59,212.97 212.89,212.66C213.2,212.35 213.5,212.04 213.8,211.73C214.1,211.42 214.4,211.11 214.69,210.79C214.99,210.47 215.28,210.15 215.57,209.83C215.86,209.51 216.15,209.18 216.43,208.85C216.71,208.52 216.99,208.19 217.27,207.86C217.55,207.53 217.82,207.2 218.09,206.86C218.36,206.52 218.63,206.18 218.9,205.84C219.17,205.5 219.43,205.16 219.69,204.81C219.95,204.47 220.21,204.12 220.46,203.77C220.71,203.42 220.96,203.07 221.21,202.71C221.46,202.35 221.71,201.99 221.95,201.63C222.19,201.27 222.43,200.91 222.66,200.55C222.9,200.19 223.13,199.82 223.36,199.45C223.59,199.08 223.81,198.71 224.03,198.34C224.25,197.97 224.47,197.6 224.69,197.22C224.91,196.85 225.12,196.47 225.33,196.09C225.54,195.71 225.75,195.33 225.95,194.95C226.15,194.57 226.36,194.19 226.55,193.8C226.75,193.41 226.93,193.02 227.12,192.63C227.31,192.24 227.5,191.85 227.68,191.46C227.86,191.07 228.04,190.67 228.22,190.28C228.4,189.88 228.57,189.49 228.74,189.09C228.91,188.69 229.07,188.29 229.23,187.89C229.39,187.49 229.55,187.09 229.71,186.68C229.86,186.28 230.01,185.87 230.16,185.46C230.31,185.05 230.45,184.64 230.59,184.23C230.73,183.82 230.87,183.41 231,183C231.13,182.59 231.26,182.17 231.39,181.76C231.52,181.35 231.64,180.93 231.76,180.52C231.88,180.1 232,179.69 232.11,179.27C232.22,178.85 232.33,178.43 232.43,178.01C232.53,177.59 232.63,177.16 232.73,176.74C232.83,176.32 232.92,175.9 233.01,175.48C233.1,175.06 233.19,174.63 233.27,174.2C233.35,173.78 233.44,173.36 233.51,172.93C233.59,172.5 233.65,172.07 233.72,171.64C233.79,171.21 233.85,170.79 233.91,170.36C233.97,169.93 234.03,169.5 234.08,169.07C234.13,168.64 234.18,168.21 234.23,167.78C234.27,167.35 234.31,166.92 234.35,166.49C234.39,166.06 234.43,165.62 234.46,165.19C234.49,164.76 234.52,164.33 234.54,163.9Q234.56,163.47 234.59,162.6" clip-path="url('#clipb66b80polar-for-traces')" style="vector-effect: non-scaling-stroke; fill: none; stroke: rgb(0, 0, 0); stroke-opacity: 1; stroke-width: 2px; opacity: 1;"/></g><g class="points" clip-path="url('#clipb66b80polar-for-traces')"/><g class="text" clip-path="url('#clipb66b80polar-for-traces')"/></g><g class="trace scatter traceb6b6cb" style="stroke-miterlimit: 2; opacity: 1;"><g class="fills" clip-path="url('#clipb66b80polar-for-traces')"><g><path class="js-fill" d="M316.14,160L208.8,11.57L156.98,157.77L122.35,186.76L204.83,304.8L316.11,162.72Z" style="fill: rgb(99, 110, 250); fill-opacity: 0.5; stroke-width: 0;"/></g></g><g class="errorbars"/><g class="lines"><path class="js-line" d="M316.14,160L208.8,11.57L156.98,157.77L122.35,186.76L204.83,304.8L316.11,162.72" clip-path="url('#clipb66b80polar-for-traces')" style="vector-effect: non-scaling-stroke; fill: none; stroke: rgb(99, 110, 250); stroke-opacity: 1; stroke-width: 2px; opacity: 1;"/></g><g class="points"><path class="point" transform="translate(316.14,160)" d="M3,0A3,3 0 1,1 0,-3A3,3 0 0,1 3,0Z" style="opacity: 1; stroke-width: 0px; fill: rgb(99, 110, 250); fill-opacity: 1;"/><path class="point" transform="translate(208.8,11.57)" d="M3,0A3,3 0 1,1 0,-3A3,3 0 0,1 3,0Z" style="opacity: 1; stroke-width: 0px; fill: rgb(99, 110, 250); fill-opacity: 1;"/><path class="point" transform="translate(156.98,157.77)" d="M3,0A3,3 0 1,1 0,-3A3,3 0 0,1 3,0Z" style="opacity: 1; stroke-width: 0px; fill: rgb(99, 110, 250); fill-opacity: 1;"/><path class="point" transform="translate(122.35,186.76)" d="M3,0A3,3 0 1,1 0,-3A3,3 0 0,1 3,0Z" style="opacity: 1; stroke-width: 0px; fill: rgb(99, 110, 250); fill-opacity: 1;"/><path class="point" transform="translate(204.83,304.8)" d="M3,0A3,3 0 1,1 0,-3A3,3 0 0,1 3,0Z" style="opacity: 1; stroke-width: 0px; fill: rgb(99, 110, 250); fill-opacity: 1;"/><path class="point" transform="translate(316.11,162.72)" d="M3,0A3,3 0 1,1 0,-3A3,3 0 0,1 3,0Z" style="opacity: 1; stroke-width: 0px; fill: rgb(99, 110, 250); fill-opacity: 1;"/></g><g class="text"/></g></g></g><g class="polarsublayer angular-line"><path d="M160,0A160,160 0,1,0 -160,-1.9594348786357652e-14A160,160 0,1,0 160,3.9188697572715304e-14Z" transform="translate(344,260)" stroke-width="1" style="fill: none; stroke: rgb(255, 255, 255); stroke-opacity: 1;"/></g><g class="polarsublayer radial-line"><line x1="0" y1="0" x2="160" y2="0" transform="translate(344,260)rotate(0)" stroke-width="1" style="fill: none; stroke: rgb(255, 255, 255); stroke-opacity: 1;"/></g><g class="polarsublayer angular-axis"><g class="angularaxistick"><text text-anchor="start" x="2.9000000000000004" y="4.199999999999999" transform="translate(504,260)" style="font-family: 'Open Sans', verdana, arial, sans-serif; font-size: 12px; fill: rgb(42, 63, 95); fill-opacity: 1; white-space: pre;">shortest paths</text></g><g class="angularaxistick"><text text-anchor="start" x="0.9057446251908914" y="-3.7230998014897034" transform="translate(393.97211725191124,108.00398854785288)" style="font-family: 'Open Sans', verdana, arial, sans-serif; font-size: 12px; fill: rgb(42, 63, 95); fill-opacity: 1; white-space: pre;">search information</text></g><g class="angularaxistick"><text text-anchor="end" x="-2.334225292370905" y="0.23556454738567334" transform="translate(215.21515628298457,165.05546867363077)" style="font-family: 'Open Sans', verdana, arial, sans-serif; font-size: 12px; fill: rgb(42, 63, 95); fill-opacity: 1; white-space: pre;">path transitivity</text></g><g class="angularaxistick"><text text-anchor="end" x="-2.3638218752250872" y="12.055107945221435" transform="translate(213.58224136689176,352.68877080378354)" style="font-family: 'Open Sans', verdana, arial, sans-serif; font-size: 12px; fill: rgb(42, 63, 95); fill-opacity: 1; white-space: pre;">communicability</text></g><g class="angularaxistick"><text text-anchor="start" x="0.8576604934786455" y="15.475606159845194" transform="translate(391.31919964020113,412.8427078581467)" style="font-family: 'Open Sans', verdana, arial, sans-serif; font-size: 12px; fill: rgb(42, 63, 95); fill-opacity: 1; white-space: pre;">mean first-passage time</text></g></g><g class="polarsublayer radial-axis" transform="translate(344,260)rotate(0)"><g class="xtick"><text text-anchor="start" x="0" y="14.9" transform="translate(3.17,0) rotate(90,0,8.9)" style="font-family: 'Open Sans', verdana, arial, sans-serif; font-size: 12px; fill: rgb(42, 63, 95); fill-opacity: 1; white-space: pre;">−0.8</text></g><g class="xtick"><text text-anchor="start" x="0" y="14.9" transform="translate(21.04,0) rotate(90,0,8.9)" style="font-family: 'Open Sans', verdana, arial, sans-serif; font-size: 12px; fill: rgb(42, 63, 95); fill-opacity: 1; white-space: pre;">−0.6</text></g><g class="xtick"><text text-anchor="start" x="0" y="14.9" transform="translate(38.9,0) rotate(90,0,8.9)" style="font-family: 'Open Sans', verdana, arial, sans-serif; font-size: 12px; fill: rgb(42, 63, 95); fill-opacity: 1; white-space: pre;">−0.4</text></g><g class="xtick"><text text-anchor="start" x="0" y="14.9" transform="translate(56.77,0) rotate(90,0,8.9)" style="font-family: 'Open Sans', verdana, arial, sans-serif; font-size: 12px; fill: rgb(42, 63, 95); fill-opacity: 1; white-space: pre;">−0.2</text></g><g class="xtick"><text text-anchor="start" x="0" y="14.9" transform="translate(74.64,0) rotate(90,0,8.9)" style="font-family: 'Open Sans', verdana, arial, sans-serif; font-size: 12px; fill: rgb(42, 63, 95); fill-opacity: 1; white-space: pre;">0</text></g><g class="xtick"><text text-anchor="start" x="0" y="14.9" transform="translate(92.5,0) rotate(90,0,8.9)" style="font-family: 'Open Sans', verdana, arial, sans-serif; font-size: 12px; fill: rgb(42, 63, 95); fill-opacity: 1; white-space: pre;">0.2</text></g><g class="xtick"><text text-anchor="start" x="0" y="14.9" transform="translate(110.37,0) rotate(90,0,8.9)" style="font-family: 'Open Sans', verdana, arial, sans-serif; font-size: 12px; fill: rgb(42, 63, 95); fill-opacity: 1; white-space: pre;">0.4</text></g><g class="xtick"><text text-anchor="start" x="0" y="14.9" transform="translate(128.24,0) rotate(90,0,8.9)" style="font-family: 'Open Sans', verdana, arial, sans-serif; font-size: 12px; fill: rgb(42, 63, 95); fill-opacity: 1; white-space: pre;">0.6</text></g><g class="xtick"><text text-anchor="start" x="0" y="14.9" transform="translate(146.11,0) rotate(90,0,8.9)" style="font-family: 'Open Sans', verdana, arial, sans-serif; font-size: 12px; fill: rgb(42, 63, 95); fill-opacity: 1; white-space: pre;">0.8</text></g></g></g></g><g class="ternarylayer"/><g class="geolayer"/><g class="funnelarealayer"/><g class="pielayer"/><g class="treemaplayer"/><g class="sunburstlayer"/><g class="glimages"/><defs id="topdefs-b66b80"><g class="clips"/><clipPath id="legendb66b80"><rect width="69" height="29" x="0" y="0"/></clipPath></defs><g class="layer-above"><g class="imagelayer"/><g class="shapelayer"/></g><g class="infolayer"><g class="legend" pointer-events="all" transform="translate(618.5600000000001, 100)"><rect class="bg" shape-rendering="crispEdges" style="stroke: rgb(68, 68, 68); stroke-opacity: 1; fill: rgb(255, 255, 255); fill-opacity: 1; stroke-width: 0px;" width="69" height="29" x="0" y="0"/><g class="scrollbox" transform="translate(0, 0)" clip-path="url('#legendb66b80')"><g class="groups"><g class="traces" transform="translate(0, 14.5)" style="opacity: 1;"><text class="legendtext" text-anchor="start" x="40" y="4.680000000000001" style="font-family: 'Open Sans', verdana, arial, sans-serif; font-size: 12px; fill: rgb(42, 63, 95); fill-opacity: 1; white-space: pre;">PC1</text><g class="layers" style="opacity: 1;"><g class="legendfill"><path class="js-fill" d="M5,0h30v6h-30z" style="stroke-width: 0; fill: rgb(99, 110, 250); fill-opacity: 0.5;"/></g><g class="legendlines"><path class="js-line" d="M5,0h30" style="fill: none; stroke: rgb(99, 110, 250); stroke-opacity: 1; stroke-width: 2px;"/></g><g class="legendsymbols"><g class="legendpoints"><path class="scatterpts" transform="translate(20,0)" d="M3,0A3,3 0 1,1 0,-3A3,3 0 0,1 3,0Z" style="opacity: 1; stroke-width: 0px; fill: rgb(99, 110, 250); fill-opacity: 1;"/></g></g></g><rect class="legendtoggle" x="0" y="-9.5" width="63.25" height="19" style="fill: rgb(0, 0, 0); fill-opacity: 0;"/></g></g></g><rect class="scrollbar" rx="20" ry="3" width="0" height="0" style="fill: rgb(128, 139, 164); fill-opacity: 1;" x="0" y="0"/></g><g class="g-gtitle"/><g class="g-polartitle"/></g></svg>