<svg class="main-svg" xmlns="http://www.w3.org/2000/svg" xmlns:xlink="http://www.w3.org/1999/xlink" width="700" height="500" style="" viewBox="0 0 700 500"><rect x="0" y="0" width="700" height="500" style="fill: rgb(255, 255, 255); fill-opacity: 1;"/><defs id="defs-e9185c"><g class="clips"><clipPath id="clipe9185cpolar-for-traces"><path d="M160,0A160,160 0,1,0 -160,-1.9594348786357652e-14A160,160 0,1,0 160,3.9188697572715304e-14Z" transform="translate(160,160)"/></clipPath></g><g class="gradients"/></defs><g class="bglayer"/><g class="layer-below"><g class="imagelayer"/><g class="shapelayer"/></g><g class="cartesianlayer"/><g class="polarlayer"><g class="polar"><g class="polarsublayer draglayer"/><g class="polarsublayer plotbg"><path d="M160,0A160,160 0,1,0 -160,-1.9594348786357652e-14A160,160 0,1,0 160,3.9188697572715304e-14Z" transform="translate(344,260)" style="fill: rgb(229, 236, 246); fill-opacity: 1;"/></g><g class="polarsublayer backplot"><g class="maplayer"/></g><g class="polarsublayer angular-grid" style="fill: none;"><path class="angularaxisgrid" d="M344,260L504,260" style="stroke: rgb(255, 255, 255); stroke-opacity: 1; stroke-width: 1px;"/><path class="angularaxisgrid" d="M344,260L393.97211725191124,108.00398854785288" style="stroke: rgb(255, 255, 255); stroke-opacity: 1; stroke-width: 1px;"/><path class="angularaxisgrid" d="M344,260L215.21515628298457,165.05546867363077" style="stroke: rgb(255, 255, 255); stroke-opacity: 1; stroke-width: 1px;"/><path class="angularaxisgrid" d="M344,260L213.58224136689176,352.68877080378354" style="stroke: rgb(255, 255, 255); stroke-opacity: 1; stroke-width: 1px;"/><path class="angularaxisgrid" d="M344,260L391.31919964020113,412.8427078581467" style="stroke: rgb(255, 255, 255); stroke-opacity: 1; stroke-width: 1px;"/></g><g class="polarsublayer radial-grid" transform="translate(344,260)" style="fill: none;"><path class="xgrid" d="M10.46,0A10.46,10.46 0,1,0 -10.46,-1.2809805519081315e-15A10.46,10.46 0,1,0 10.46,2.561961103816263e-15Z" style="stroke: rgb(255, 255, 255); stroke-opacity: 1; stroke-width: 1px;"/><path class="xgrid" d="M40.81,0A40.81,40.81 0,1,0 -40.81,-4.997783587320349e-15A40.81,40.81 0,1,0 40.81,9.995567174640698e-15Z" style="stroke: rgb(255, 255, 255); stroke-opacity: 1; stroke-width: 1px;"/><path class="xgrid" d="M71.16,0A71.16,71.16 0,1,0 -71.16,-8.714586622732565e-15A71.16,71.16 0,1,0 71.16,1.742917324546513e-14Z" style="stroke: rgb(255, 255, 255); stroke-opacity: 1; stroke-width: 1px;"/><path class="xgrid" d="M101.51,0A101.51,101.51 0,1,0 -101.51,-1.2431389658144783e-14A101.51,101.51 0,1,0 101.51,2.4862779316289567e-14Z" style="stroke: rgb(255, 255, 255); stroke-opacity: 1; stroke-width: 1px;"/><path class="xgrid" d="M131.86,0A131.86,131.86 0,1,0 -131.86,-1.6148192693557e-14A131.86,131.86 0,1,0 131.86,3.2296385387114e-14Z" style="stroke: rgb(255, 255, 255); stroke-opacity: 1; stroke-width: 1px;"/></g><g class="polarsublayer frontplot" transform="translate(184,100)"><g class="barlayer"/><g class="scatterlayer"><g class="trace scatter trace581867" style="stroke-miterlimit: 2; opacity: 1;"><g class="fills" clip-path="url('#clipe9185cpolar-for-traces')"/><g class="errorbars"/><g class="lines"><path class="js-line" d="M170.46,160Q170.45,159.88 170.45,159.82C170.45,159.76 170.45,159.7 170.45,159.64C170.45,159.58 170.44,159.51 170.44,159.45C170.44,159.39 170.43,159.33 170.43,159.27C170.43,159.21 170.42,159.15 170.42,159.09C170.41,159.03 170.41,158.97 170.4,158.91C170.39,158.85 170.39,158.79 170.38,158.73C170.37,158.67 170.36,158.61 170.35,158.55C170.34,158.49 170.34,158.43 170.33,158.37C170.32,158.31 170.31,158.25 170.3,158.19C170.29,158.13 170.27,158.07 170.26,158.01C170.25,157.95 170.24,157.89 170.23,157.83C170.22,157.77 170.2,157.71 170.19,157.65C170.18,157.59 170.16,157.54 170.15,157.48C170.13,157.42 170.12,157.36 170.1,157.3C170.08,157.24 170.07,157.19 170.05,157.13C170.03,157.07 170.02,157.01 170,156.95C169.98,156.89 169.97,156.84 169.95,156.78C169.93,156.72 169.91,156.67 169.89,156.61C169.87,156.55 169.85,156.49 169.83,156.43C169.81,156.37 169.78,156.32 169.76,156.26C169.74,156.2 169.72,156.15 169.7,156.09C169.68,156.04 169.65,155.98 169.63,155.93C169.61,155.87 169.58,155.82 169.56,155.76C169.53,155.7 169.51,155.65 169.48,155.59C169.45,155.54 169.43,155.48 169.4,155.43C169.37,155.38 169.35,155.32 169.32,155.27C169.29,155.21 169.27,155.16 169.24,155.1C169.21,155.05 169.18,154.99 169.15,154.94C169.12,154.89 169.09,154.84 169.06,154.79C169.03,154.74 169,154.68 168.97,154.63C168.94,154.58 168.91,154.52 168.88,154.47C168.85,154.42 168.81,154.37 168.78,154.32C168.75,154.27 168.71,154.22 168.68,154.17C168.64,154.12 168.61,154.07 168.57,154.02C168.54,153.97 168.5,153.92 168.47,153.87C168.43,153.82 168.4,153.77 168.36,153.72C168.32,153.67 168.29,153.63 168.25,153.58C168.21,153.53 168.18,153.49 168.14,153.44C168.1,153.39 168.06,153.35 168.02,153.3C167.98,153.25 167.94,153.21 167.9,153.16C167.86,153.11 167.82,153.07 167.78,153.02C167.74,152.98 167.7,152.93 167.66,152.89C167.62,152.84 167.58,152.8 167.54,152.75C167.5,152.71 167.45,152.66 167.41,152.62C167.37,152.58 167.32,152.54 167.28,152.5C167.24,152.46 167.19,152.41 167.15,152.37C167.1,152.33 167.06,152.29 167.01,152.25C166.97,152.21 166.92,152.17 166.88,152.13C166.83,152.09 166.79,152.05 166.74,152.01C166.69,151.97 166.65,151.93 166.6,151.89C166.55,151.85 166.51,151.82 166.46,151.78C166.41,151.74 166.36,151.71 166.31,151.67C166.26,151.63 166.22,151.6 166.17,151.56C166.12,151.52 166.07,151.49 166.02,151.45C165.97,151.42 165.92,151.38 165.87,151.35C165.82,151.32 165.77,151.28 165.72,151.25C165.67,151.22 165.62,151.18 165.57,151.15C165.52,151.12 165.46,151.08 165.41,151.05C165.36,151.02 165.3,150.99 165.25,150.96C165.2,150.93 165.15,150.9 165.1,150.87C165.05,150.84 164.99,150.81 164.94,150.78C164.88,150.75 164.83,150.73 164.77,150.7C164.72,150.67 164.66,150.65 164.61,150.62C164.56,150.59 164.5,150.57 164.45,150.54C164.39,150.51 164.34,150.49 164.28,150.46C164.23,150.44 164.17,150.41 164.12,150.39C164.06,150.37 164.01,150.34 163.95,150.32C163.89,150.3 163.84,150.27 163.78,150.25C163.72,150.23 163.67,150.21 163.61,150.19C163.55,150.17 163.5,150.15 163.44,150.13C163.38,150.11 163.33,150.09 163.27,150.07C163.21,150.05 163.15,150.03 163.09,150.01C163.03,149.99 162.98,149.98 162.92,149.96C162.86,149.94 162.8,149.93 162.74,149.91C162.68,149.89 162.63,149.87 162.57,149.86C162.51,149.84 162.45,149.83 162.39,149.82C162.33,149.81 162.27,149.79 162.21,149.78C162.15,149.77 162.09,149.75 162.03,149.74C161.97,149.73 161.92,149.72 161.86,149.71C161.8,149.7 161.74,149.69 161.68,149.68C161.62,149.67 161.56,149.66 161.5,149.65C161.44,149.64 161.38,149.64 161.32,149.63C161.26,149.62 161.2,149.62 161.14,149.61C161.08,149.6 161.01,149.6 160.95,149.59C160.89,149.58 160.83,149.58 160.77,149.57C160.71,149.57 160.65,149.56 160.59,149.56C160.53,149.56 160.47,149.55 160.41,149.55C160.35,149.55 160.29,149.55 160.23,149.55C160.17,149.55 160.11,149.54 160.05,149.54C159.99,149.54 159.92,149.55 159.86,149.55C159.8,149.55 159.74,149.55 159.68,149.55C159.62,149.55 159.56,149.56 159.5,149.56C159.44,149.56 159.38,149.57 159.32,149.57C159.26,149.57 159.2,149.58 159.14,149.58C159.08,149.59 159.02,149.59 158.96,149.6C158.9,149.61 158.83,149.61 158.77,149.62C158.71,149.63 158.65,149.63 158.59,149.64C158.53,149.65 158.47,149.66 158.41,149.67C158.35,149.68 158.29,149.68 158.23,149.69C158.17,149.7 158.12,149.72 158.06,149.73C158,149.74 157.94,149.75 157.88,149.76C157.82,149.77 157.76,149.79 157.7,149.8C157.64,149.81 157.58,149.82 157.52,149.84C157.46,149.85 157.41,149.87 157.35,149.89C157.29,149.91 157.23,149.92 157.17,149.94C157.11,149.96 157.05,149.97 156.99,149.99C156.93,150.01 156.88,150.02 156.82,150.04C156.76,150.06 156.71,150.08 156.65,150.1C156.59,150.12 156.54,150.14 156.48,150.16C156.42,150.18 156.37,150.2 156.31,150.22C156.25,150.24 156.2,150.27 156.14,150.29C156.08,150.31 156.03,150.33 155.97,150.35C155.91,150.37 155.86,150.4 155.8,150.43C155.74,150.45 155.69,150.47 155.63,150.5C155.58,150.52 155.52,150.55 155.47,150.58C155.42,150.61 155.36,150.63 155.31,150.66C155.25,150.69 155.2,150.71 155.14,150.74C155.09,150.77 155.03,150.8 154.98,150.83C154.93,150.86 154.88,150.89 154.83,150.92C154.78,150.95 154.72,150.98 154.67,151.01C154.62,151.04 154.56,151.07 154.51,151.1C154.46,151.13 154.41,151.17 154.36,151.2C154.31,151.23 154.26,151.27 154.21,151.3C154.16,151.33 154.11,151.37 154.06,151.4C154.01,151.43 153.96,151.47 153.91,151.5C153.86,151.54 153.81,151.57 153.76,151.61C153.71,151.65 153.66,151.68 153.61,151.72C153.56,151.76 153.52,151.79 153.47,151.83C153.42,151.87 153.38,151.91 153.33,151.95C153.28,151.99 153.24,152.03 153.19,152.07C153.14,152.11 153.1,152.15 153.05,152.19C153.01,152.23 152.96,152.27 152.92,152.31C152.88,152.35 152.83,152.39 152.79,152.43C152.75,152.47 152.7,152.52 152.66,152.56C152.62,152.6 152.57,152.65 152.53,152.69C152.49,152.73 152.44,152.78 152.4,152.82C152.36,152.86 152.32,152.91 152.28,152.95C152.24,153 152.2,153.04 152.16,153.09C152.12,153.14 152.08,153.18 152.04,153.23C152,153.28 151.96,153.32 151.92,153.37C151.88,153.42 151.85,153.46 151.81,153.51C151.77,153.56 151.73,153.6 151.69,153.65C151.65,153.7 151.62,153.75 151.58,153.8C151.55,153.85 151.51,153.89 151.48,153.94C151.44,153.99 151.41,154.04 151.37,154.09C151.34,154.14 151.3,154.19 151.27,154.24C151.24,154.29 151.2,154.35 151.17,154.4C151.14,154.45 151.11,154.5 151.08,154.55C151.05,154.6 151.01,154.66 150.98,154.71C150.95,154.76 150.92,154.81 150.89,154.86C150.86,154.91 150.83,154.97 150.8,155.02C150.77,155.07 150.75,155.13 150.72,155.18C150.69,155.24 150.67,155.29 150.64,155.35C150.61,155.4 150.59,155.46 150.56,155.51C150.53,155.57 150.51,155.62 150.48,155.68C150.46,155.73 150.43,155.79 150.41,155.84C150.39,155.9 150.36,155.95 150.34,156.01C150.32,156.07 150.29,156.12 150.27,156.18C150.25,156.24 150.22,156.29 150.2,156.35C150.18,156.41 150.16,156.46 150.14,156.52C150.12,156.58 150.1,156.63 150.08,156.69C150.06,156.75 150.05,156.8 150.03,156.86C150.01,156.92 149.99,156.98 149.97,157.04C149.95,157.1 149.93,157.15 149.92,157.21C149.9,157.27 149.89,157.33 149.88,157.39C149.86,157.45 149.85,157.51 149.83,157.57C149.82,157.63 149.8,157.68 149.79,157.74C149.78,157.8 149.76,157.86 149.75,157.92C149.74,157.98 149.73,158.04 149.72,158.1C149.71,158.16 149.7,158.22 149.69,158.28C149.68,158.34 149.67,158.4 149.66,158.46C149.65,158.52 149.64,158.58 149.63,158.64C149.62,158.7 149.62,158.76 149.61,158.82C149.6,158.88 149.6,158.94 149.59,159C149.59,159.06 149.58,159.12 149.58,159.18C149.57,159.24 149.56,159.3 149.56,159.36C149.55,159.42 149.55,159.49 149.55,159.55C149.55,159.61 149.55,159.67 149.55,159.73C149.55,159.79 149.55,159.85 149.55,159.91C149.55,159.97 149.55,160.03 149.55,160.09C149.55,160.15 149.55,160.21 149.55,160.27C149.55,160.33 149.55,160.39 149.55,160.45C149.55,160.51 149.55,160.58 149.56,160.64C149.56,160.7 149.57,160.76 149.58,160.82C149.58,160.88 149.59,160.94 149.59,161C149.6,161.06 149.6,161.12 149.61,161.18C149.62,161.24 149.62,161.3 149.63,161.36C149.64,161.42 149.65,161.48 149.66,161.54C149.67,161.6 149.68,161.66 149.69,161.72C149.7,161.78 149.71,161.84 149.72,161.9C149.73,161.96 149.74,162.02 149.75,162.08C149.76,162.14 149.78,162.2 149.79,162.26C149.8,162.32 149.82,162.37 149.83,162.43C149.85,162.49 149.86,162.55 149.88,162.61C149.89,162.67 149.9,162.73 149.92,162.79C149.93,162.85 149.95,162.9 149.97,162.96C149.99,163.02 150.01,163.08 150.03,163.14C150.05,163.2 150.06,163.25 150.08,163.31C150.1,163.37 150.12,163.42 150.14,163.48C150.16,163.54 150.18,163.59 150.2,163.65C150.22,163.71 150.25,163.76 150.27,163.82C150.29,163.88 150.32,163.93 150.34,163.99C150.36,164.05 150.39,164.1 150.41,164.16C150.43,164.21 150.46,164.27 150.48,164.32C150.51,164.38 150.53,164.43 150.56,164.49C150.59,164.54 150.61,164.6 150.64,164.65C150.67,164.71 150.69,164.76 150.72,164.82C150.75,164.87 150.77,164.93 150.8,164.98C150.83,165.03 150.86,165.09 150.89,165.14C150.92,165.19 150.95,165.24 150.98,165.29C151.01,165.34 151.05,165.4 151.08,165.45C151.11,165.5 151.14,165.55 151.17,165.6C151.2,165.65 151.24,165.71 151.27,165.76C151.3,165.81 151.34,165.86 151.37,165.91C151.41,165.96 151.44,166.01 151.48,166.06C151.51,166.11 151.55,166.15 151.58,166.2C151.62,166.25 151.65,166.3 151.69,166.35C151.73,166.4 151.77,166.44 151.81,166.49C151.85,166.54 151.88,166.58 151.92,166.63C151.96,166.68 152,166.72 152.04,166.77C152.08,166.82 152.12,166.86 152.16,166.91C152.2,166.96 152.24,167 152.28,167.05C152.32,167.09 152.36,167.14 152.4,167.18C152.44,167.22 152.49,167.27 152.53,167.31C152.57,167.35 152.62,167.4 152.66,167.44C152.7,167.48 152.75,167.53 152.79,167.57C152.83,167.61 152.88,167.65 152.92,167.69C152.96,167.73 153.01,167.77 153.05,167.81C153.1,167.85 153.14,167.89 153.19,167.93C153.24,167.97 153.28,168.01 153.33,168.05C153.38,168.09 153.42,168.13 153.47,168.17C153.52,168.21 153.56,168.24 153.61,168.28C153.66,168.32 153.71,168.35 153.76,168.39C153.81,168.43 153.86,168.46 153.91,168.5C153.96,168.53 154.01,168.57 154.06,168.6C154.11,168.63 154.16,168.67 154.21,168.7C154.26,168.73 154.31,168.77 154.36,168.8C154.41,168.83 154.46,168.87 154.51,168.9C154.56,168.93 154.62,168.96 154.67,168.99C154.72,169.02 154.78,169.05 154.83,169.08C154.88,169.11 154.93,169.14 154.98,169.17C155.03,169.2 155.09,169.23 155.14,169.26C155.2,169.29 155.25,169.31 155.31,169.34C155.36,169.37 155.42,169.39 155.47,169.42C155.52,169.45 155.58,169.48 155.63,169.5C155.69,169.53 155.74,169.55 155.8,169.57C155.86,169.6 155.91,169.63 155.97,169.65C156.03,169.67 156.08,169.69 156.14,169.71C156.2,169.73 156.25,169.76 156.31,169.78C156.37,169.8 156.42,169.82 156.48,169.84C156.54,169.86 156.59,169.88 156.65,169.9C156.71,169.92 156.76,169.94 156.82,169.96C156.88,169.98 156.93,169.99 156.99,170.01C157.05,170.03 157.11,170.04 157.17,170.06C157.23,170.08 157.29,170.09 157.35,170.11C157.41,170.13 157.46,170.15 157.52,170.16C157.58,170.18 157.64,170.19 157.7,170.2C157.76,170.21 157.82,170.23 157.88,170.24C157.94,170.25 158,170.26 158.06,170.27C158.12,170.28 158.17,170.3 158.23,170.31C158.29,170.32 158.35,170.32 158.41,170.33C158.47,170.34 158.53,170.35 158.59,170.36C158.65,170.37 158.71,170.37 158.77,170.38C158.83,170.39 158.9,170.39 158.96,170.4C159.02,170.41 159.08,170.41 159.14,170.42C159.2,170.42 159.26,170.43 159.32,170.43C159.38,170.43 159.44,170.44 159.5,170.44C159.56,170.44 159.62,170.45 159.68,170.45C159.74,170.45 159.8,170.45 159.86,170.45C159.92,170.45 159.99,170.46 160.05,170.46C160.11,170.46 160.17,170.45 160.23,170.45C160.29,170.45 160.35,170.45 160.41,170.45C160.47,170.45 160.53,170.44 160.59,170.44C160.65,170.44 160.71,170.43 160.77,170.43C160.83,170.42 160.89,170.42 160.95,170.41C161.01,170.4 161.08,170.4 161.14,170.39C161.2,170.38 161.26,170.38 161.32,170.37C161.38,170.36 161.44,170.36 161.5,170.35C161.56,170.34 161.62,170.33 161.68,170.32C161.74,170.31 161.8,170.3 161.86,170.29C161.92,170.28 161.97,170.27 162.03,170.26C162.09,170.25 162.15,170.23 162.21,170.22C162.27,170.21 162.33,170.19 162.39,170.18C162.45,170.17 162.51,170.16 162.57,170.14C162.63,170.13 162.68,170.11 162.74,170.09C162.8,170.07 162.86,170.06 162.92,170.04C162.98,170.02 163.03,170.01 163.09,169.99C163.15,169.97 163.21,169.95 163.27,169.93C163.33,169.91 163.38,169.89 163.44,169.87C163.5,169.85 163.55,169.83 163.61,169.81C163.67,169.79 163.72,169.77 163.78,169.75C163.84,169.73 163.89,169.7 163.95,169.68C164.01,169.66 164.06,169.63 164.12,169.61C164.17,169.59 164.23,169.56 164.28,169.54C164.34,169.51 164.39,169.49 164.45,169.46C164.5,169.43 164.56,169.41 164.61,169.38C164.66,169.35 164.72,169.33 164.77,169.3C164.83,169.27 164.88,169.25 164.94,169.22C164.99,169.19 165.05,169.16 165.1,169.13C165.15,169.1 165.2,169.07 165.25,169.04C165.3,169.01 165.36,168.98 165.41,168.95C165.46,168.92 165.52,168.88 165.57,168.85C165.62,168.82 165.67,168.78 165.72,168.75C165.77,168.72 165.82,168.68 165.87,168.65C165.92,168.62 165.97,168.58 166.02,168.55C166.07,168.51 166.12,168.48 166.17,168.44C166.22,168.4 166.26,168.37 166.31,168.33C166.36,168.29 166.41,168.26 166.46,168.22C166.51,168.18 166.55,168.15 166.6,168.11C166.65,168.07 166.69,168.03 166.74,167.99C166.79,167.95 166.83,167.91 166.88,167.87C166.92,167.83 166.97,167.79 167.01,167.75C167.06,167.71 167.1,167.67 167.15,167.63C167.19,167.59 167.24,167.54 167.28,167.5C167.32,167.46 167.37,167.42 167.41,167.38C167.45,167.34 167.5,167.29 167.54,167.25C167.58,167.2 167.62,167.16 167.66,167.11C167.7,167.07 167.74,167.02 167.78,166.98C167.82,166.93 167.86,166.89 167.9,166.84C167.94,166.79 167.98,166.75 168.02,166.7C168.06,166.65 168.1,166.61 168.14,166.56C168.18,166.51 168.21,166.47 168.25,166.42C168.29,166.37 168.32,166.33 168.36,166.28C168.4,166.23 168.43,166.18 168.47,166.13C168.5,166.08 168.54,166.03 168.57,165.98C168.61,165.93 168.64,165.88 168.68,165.83C168.71,165.78 168.75,165.73 168.78,165.68C168.81,165.63 168.85,165.58 168.88,165.53C168.91,165.48 168.94,165.42 168.97,165.37C169,165.32 169.03,165.26 169.06,165.21C169.09,165.16 169.12,165.11 169.15,165.06C169.18,165.01 169.21,164.95 169.24,164.9C169.27,164.84 169.29,164.79 169.32,164.73C169.35,164.68 169.37,164.62 169.4,164.57C169.43,164.52 169.45,164.46 169.48,164.41C169.51,164.35 169.53,164.3 169.56,164.24C169.58,164.18 169.61,164.13 169.63,164.07C169.65,164.02 169.68,163.96 169.7,163.91C169.72,163.85 169.74,163.8 169.76,163.74C169.78,163.68 169.81,163.63 169.83,163.57C169.85,163.51 169.87,163.45 169.89,163.39C169.91,163.33 169.93,163.28 169.95,163.22C169.97,163.16 169.98,163.11 170,163.05C170.02,162.99 170.03,162.93 170.05,162.87C170.07,162.81 170.08,162.76 170.1,162.7C170.12,162.64 170.13,162.58 170.15,162.52C170.16,162.46 170.18,162.41 170.19,162.35C170.2,162.29 170.22,162.23 170.23,162.17C170.24,162.11 170.25,162.05 170.26,161.99C170.27,161.93 170.29,161.87 170.3,161.81C170.31,161.75 170.32,161.69 170.33,161.63C170.34,161.57 170.34,161.51 170.35,161.45C170.36,161.39 170.37,161.33 170.38,161.27C170.39,161.21 170.39,161.15 170.4,161.09C170.41,161.03 170.41,160.97 170.42,160.91C170.42,160.85 170.43,160.79 170.43,160.73C170.43,160.67 170.44,160.61 170.44,160.55Q170.44,160.49 170.45,160.36" clip-path="url('#clipe9185cpolar-for-traces')" style="vector-effect: non-scaling-stroke; fill: none; stroke: rgb(0, 0, 0); stroke-opacity: 1; stroke-width: 2px; opacity: 1;"/></g><g class="points" clip-path="url('#clipe9185cpolar-for-traces')"/><g class="text" clip-path="url('#clipe9185cpolar-for-traces')"/></g><g class="trace scatter trace47d119" style="stroke-miterlimit: 2; opacity: 1;"><g class="fills" clip-path="url('#clipe9185cpolar-for-traces')"><g><path class="js-fill" d="M316.25,160L206.41,18.83L156.98,157.77L88.53,210.79L181.61,229.8L316.23,162.72Z" style="fill: rgb(99, 110, 250); fill-opacity: 0.5; stroke-width: 0;"/></g></g><g class="errorbars"/><g class="lines"><path class="js-line" d="M316.25,160L206.41,18.83L156.98,157.77L88.53,210.79L181.61,229.8L316.23,162.72" clip-path="url('#clipe9185cpolar-for-traces')" style="vector-effect: non-scaling-stroke; fill: none; stroke: rgb(99, 110, 250); stroke-opacity: 1; stroke-width: 2px; opacity: 1;"/></g><g class="points"><path class="point" transform="translate(316.25,160)" d="M3,0A3,3 0 1,1 0,-3A3,3 0 0,1 3,0Z" style="opacity: 1; stroke-width: 0px; fill: rgb(99, 110, 250); fill-opacity: 1;"/><path class="point" transform="translate(206.41,18.83)" d="M3,0A3,3 0 1,1 0,-3A3,3 0 0,1 3,0Z" style="opacity: 1; stroke-width: 0px; fill: rgb(99, 110, 250); fill-opacity: 1;"/><path class="point" transform="translate(156.98,157.77)" d="M3,0A3,3 0 1,1 0,-3A3,3 0 0,1 3,0Z" style="opacity: 1; stroke-width: 0px; fill: rgb(99, 110, 250); fill-opacity: 1;"/><path class="point" transform="translate(88.53,210.79)" d="M3,0A3,3 0 1,1 0,-3A3,3 0 0,1 3,0Z" style="opacity: 1; stroke-width: 0px; fill: rgb(99, 110, 250); fill-opacity: 1;"/><path class="point" transform="translate(181.61,229.8)" d="M3,0A3,3 0 1,1 0,-3A3,3 0 0,1 3,0Z" style="opacity: 1; stroke-width: 0px; fill: rgb(99, 110, 250); fill-opacity: 1;"/><path class="point" transform="translate(316.23,162.72)" d="M3,0A3,3 0 1,1 0,-3A3,3 0 0,1 3,0Z" style="opacity: 1; stroke-width: 0px; fill: rgb(99, 110, 250); fill-opacity: 1;"/></g><g class="text"/></g></g></g><g class="polarsublayer angular-line"><path d="M160,0A160,160 0,1,0 -160,-1.9594348786357652e-14A160,160 0,1,0 160,3.9188697572715304e-14Z" transform="translate(344,260)" stroke-width="1" style="fill: none; stroke: rgb(255, 255, 255); stroke-opacity: 1;"/></g><g class="polarsublayer radial-line"><line x1="0" y1="0" x2="160" y2="0" transform="translate(344,260)rotate(0)" stroke-width="1" style="fill: none; stroke: rgb(255, 255, 255); stroke-opacity: 1;"/></g><g class="polarsublayer angular-axis"><g class="angularaxistick"><text text-anchor="start" x="2.9000000000000004" y="4.199999999999999" transform="translate(504,260)" style="font-family: 'Open Sans', verdana, arial, sans-serif; font-size: 12px; fill: rgb(42, 63, 95); fill-opacity: 1; white-space: pre;">shortest paths</text></g><g class="angularaxistick"><text text-anchor="start" x="0.9057446251908914" y="-3.7230998014897034" transform="translate(393.97211725191124,108.00398854785288)" style="font-family: 'Open Sans', verdana, arial, sans-serif; font-size: 12px; fill: rgb(42, 63, 95); fill-opacity: 1; white-space: pre;">search information</text></g><g class="angularaxistick"><text text-anchor="end" x="-2.334225292370905" y="0.23556454738567334" transform="translate(215.21515628298457,165.05546867363077)" style="font-family: 'Open Sans', verdana, arial, sans-serif; font-size: 12px; fill: rgb(42, 63, 95); fill-opacity: 1; white-space: pre;">path transitivity</text></g><g class="angularaxistick"><text text-anchor="end" x="-2.3638218752250872" y="12.055107945221435" transform="translate(213.58224136689176,352.68877080378354)" style="font-family: 'Open Sans', verdana, arial, sans-serif; font-size: 12px; fill: rgb(42, 63, 95); fill-opacity: 1; white-space: pre;">communicability</text></g><g class="angularaxistick"><text text-anchor="start" x="0.8576604934786455" y="15.475606159845194" transform="translate(391.31919964020113,412.8427078581467)" style="font-family: 'Open Sans', verdana, arial, sans-serif; font-size: 12px; fill: rgb(42, 63, 95); fill-opacity: 1; white-space: pre;">mean first-passage time</text></g></g><g class="polarsublayer radial-axis" transform="translate(344,260)rotate(0)"><g class="xtick"><text text-anchor="middle" x="0" y="14.9" transform="translate(10.46,0)" style="font-family: 'Open Sans', verdana, arial, sans-serif; font-size: 12px; fill: rgb(42, 63, 95); fill-opacity: 1; white-space: pre;">0</text></g><g class="xtick"><text text-anchor="middle" x="0" y="14.9" transform="translate(40.81,0)" style="font-family: 'Open Sans', verdana, arial, sans-serif; font-size: 12px; fill: rgb(42, 63, 95); fill-opacity: 1; white-space: pre;">0.2</text></g><g class="xtick"><text text-anchor="middle" x="0" y="14.9" transform="translate(71.16,0)" style="font-family: 'Open Sans', verdana, arial, sans-serif; font-size: 12px; fill: rgb(42, 63, 95); fill-opacity: 1; white-space: pre;">0.4</text></g><g class="xtick"><text text-anchor="middle" x="0" y="14.9" transform="translate(101.51,0)" style="font-family: 'Open Sans', verdana, arial, sans-serif; font-size: 12px; fill: rgb(42, 63, 95); fill-opacity: 1; white-space: pre;">0.6</text></g><g class="xtick"><text text-anchor="middle" x="0" y="14.9" transform="translate(131.86,0)" style="font-family: 'Open Sans', verdana, arial, sans-serif; font-size: 12px; fill: rgb(42, 63, 95); fill-opacity: 1; white-space: pre;">0.8</text></g></g></g></g><g class="ternarylayer"/><g class="geolayer"/><g class="funnelarealayer"/><g class="pielayer"/><g class="treemaplayer"/><g class="sunburstlayer"/><g class="glimages"/><defs id="topdefs-e9185c"><g class="clips"/><clipPath id="legende9185c"><rect width="69" height="29" x="0" y="0"/></clipPath></defs><g class="layer-above"><g class="imagelayer"/><g class="shapelayer"/></g><g class="infolayer"><g class="legend" pointer-events="all" transform="translate(618.5600000000001, 100)"><rect class="bg" shape-rendering="crispEdges" width="69" height="29" x="0" y="0" style="stroke: rgb(68, 68, 68); stroke-opacity: 1; fill: rgb(255, 255, 255); fill-opacity: 1; stroke-width: 0px;"/><g class="scrollbox" transform="translate(0, 0)" clip-path="url('#legende9185c')"><g class="groups"><g class="traces" transform="translate(0, 14.5)" style="opacity: 1;"><text class="legendtext" text-anchor="start" x="40" y="4.680000000000001" style="font-family: 'Open Sans', verdana, arial, sans-serif; font-size: 12px; fill: rgb(42, 63, 95); fill-opacity: 1; white-space: pre;">PC1</text><g class="layers" style="opacity: 1;"><g class="legendfill"><path class="js-fill" d="M5,0h30v6h-30z" style="stroke-width: 0; fill: rgb(99, 110, 250); fill-opacity: 0.5;"/></g><g class="legendlines"><path class="js-line" d="M5,0h30" style="fill: none; stroke: rgb(99, 110, 250); stroke-opacity: 1; stroke-width: 2px;"/></g><g class="legendsymbols"><g class="legendpoints"><path class="scatterpts" transform="translate(20,0)" d="M3,0A3,3 0 1,1 0,-3A3,3 0 0,1 3,0Z" style="opacity: 1; stroke-width: 0px; fill: rgb(99, 110, 250); fill-opacity: 1;"/></g></g></g><rect class="legendtoggle" x="0" y="-9.5" width="63.25" height="19" style="fill: rgb(0, 0, 0); fill-opacity: 0;"/></g></g></g><rect class="scrollbar" rx="20" ry="3" width="0" height="0" x="0" y="0" style="fill: rgb(128, 139, 164); fill-opacity: 1;"/></g><g class="g-gtitle"/><g class="g-polartitle"/></g></svg>