<?xml version="1.0" encoding="utf-8" standalone="no"?>
<!DOCTYPE svg PUBLIC "-//W3C//DTD SVG 1.1//EN"
  "http://www.w3.org/Graphics/SVG/1.1/DTD/svg11.dtd">
<svg height="337.998125pt" version="1.1" viewBox="0 0 453.242813 337.998125" width="453.242813pt" xmlns="http://www.w3.org/2000/svg" xmlns:xlink="http://www.w3.org/1999/xlink">
 <metadata>
  <rdf:RDF xmlns:cc="http://creativecommons.org/ns#" xmlns:dc="http://purl.org/dc/elements/1.1/" xmlns:rdf="http://www.w3.org/1999/02/22-rdf-syntax-ns#">
   <cc:Work>
    <dc:type rdf:resource="http://purl.org/dc/dcmitype/StillImage"/>
    <dc:date>2022-09-28T04:18:22.762447</dc:date>
    <dc:format>image/svg+xml</dc:format>
    <dc:creator>
     <cc:Agent>
      <dc:title>Matplotlib v3.4.3, https://matplotlib.org/</dc:title>
     </cc:Agent>
    </dc:creator>
   </cc:Work>
  </rdf:RDF>
 </metadata>
 <defs>
  <style type="text/css">*{stroke-linecap:butt;stroke-linejoin:round;}</style>
 </defs>
 <g id="figure_1">
  <g id="patch_1">
   <path d="M 0 337.998125 
L 453.242813 337.998125 
L 453.242813 0 
L 0 0 
z
" style="fill:#ffffff;"/>
  </g>
  <g id="axes_1">
   <g id="patch_2">
    <path d="M 48.982813 314.12 
L 446.042812 314.12 
L 446.042812 7.2 
L 48.982813 7.2 
z
" style="fill:#ffffff;"/>
   </g>
   <g id="matplotlib.axis_1">
    <g id="xtick_1">
     <g id="line2d_1">
      <defs>
       <path d="M 0 0 
L 0 3.5 
" id="me1d28ace61" style="stroke:#262626;stroke-width:0.8;"/>
      </defs>
      <g>
       <use style="fill:#262626;stroke:#262626;stroke-width:0.8;" x="148.247813" xlink:href="#me1d28ace61" y="314.12"/>
      </g>
     </g>
     <g id="text_1">
      <text style="fill:#262626;font-family:DejaVu Sans;font-size:10px;font-stretch:normal;font-style:normal;font-weight:normal;text-anchor:middle;" transform="rotate(-0, 148.247813, 328.718437)" x="148.247813" y="328.718437">within network</text>
     </g>
    </g>
    <g id="xtick_2">
     <g id="line2d_2">
      <g>
       <use style="fill:#262626;stroke:#262626;stroke-width:0.8;" x="346.777812" xlink:href="#me1d28ace61" y="314.12"/>
      </g>
     </g>
     <g id="text_2">
      <text style="fill:#262626;font-family:DejaVu Sans;font-size:10px;font-stretch:normal;font-style:normal;font-weight:normal;text-anchor:middle;" transform="rotate(-0, 346.777812, 328.718437)" x="346.777812" y="328.718437">between network</text>
     </g>
    </g>
   </g>
   <g id="matplotlib.axis_2">
    <g id="ytick_1">
     <g id="line2d_3">
      <defs>
       <path d="M 0 0 
L -3.5 0 
" id="m4e78bf9a29" style="stroke:#262626;stroke-width:0.8;"/>
      </defs>
      <g>
       <use style="fill:#262626;stroke:#262626;stroke-width:0.8;" x="48.982813" xlink:href="#m4e78bf9a29" y="309.097921"/>
      </g>
     </g>
     <g id="text_3">
      <text style="fill:#262626;font-family:DejaVu Sans;font-size:10px;font-stretch:normal;font-style:normal;font-weight:normal;text-anchor:end;" transform="rotate(-0, 41.982813, 312.897139)" x="41.982813" y="312.897139">−60</text>
     </g>
    </g>
    <g id="ytick_2">
     <g id="line2d_4">
      <g>
       <use style="fill:#262626;stroke:#262626;stroke-width:0.8;" x="48.982813" xlink:href="#m4e78bf9a29" y="272.265673"/>
      </g>
     </g>
     <g id="text_4">
      <text style="fill:#262626;font-family:DejaVu Sans;font-size:10px;font-stretch:normal;font-style:normal;font-weight:normal;text-anchor:end;" transform="rotate(-0, 41.982813, 276.064892)" x="41.982813" y="276.064892">−50</text>
     </g>
    </g>
    <g id="ytick_3">
     <g id="line2d_5">
      <g>
       <use style="fill:#262626;stroke:#262626;stroke-width:0.8;" x="48.982813" xlink:href="#m4e78bf9a29" y="235.433426"/>
      </g>
     </g>
     <g id="text_5">
      <text style="fill:#262626;font-family:DejaVu Sans;font-size:10px;font-stretch:normal;font-style:normal;font-weight:normal;text-anchor:end;" transform="rotate(-0, 41.982813, 239.232644)" x="41.982813" y="239.232644">−40</text>
     </g>
    </g>
    <g id="ytick_4">
     <g id="line2d_6">
      <g>
       <use style="fill:#262626;stroke:#262626;stroke-width:0.8;" x="48.982813" xlink:href="#m4e78bf9a29" y="198.601178"/>
      </g>
     </g>
     <g id="text_6">
      <text style="fill:#262626;font-family:DejaVu Sans;font-size:10px;font-stretch:normal;font-style:normal;font-weight:normal;text-anchor:end;" transform="rotate(-0, 41.982813, 202.400397)" x="41.982813" y="202.400397">−30</text>
     </g>
    </g>
    <g id="ytick_5">
     <g id="line2d_7">
      <g>
       <use style="fill:#262626;stroke:#262626;stroke-width:0.8;" x="48.982813" xlink:href="#m4e78bf9a29" y="161.768931"/>
      </g>
     </g>
     <g id="text_7">
      <text style="fill:#262626;font-family:DejaVu Sans;font-size:10px;font-stretch:normal;font-style:normal;font-weight:normal;text-anchor:end;" transform="rotate(-0, 41.982813, 165.56815)" x="41.982813" y="165.56815">−20</text>
     </g>
    </g>
    <g id="ytick_6">
     <g id="line2d_8">
      <g>
       <use style="fill:#262626;stroke:#262626;stroke-width:0.8;" x="48.982813" xlink:href="#m4e78bf9a29" y="124.936683"/>
      </g>
     </g>
     <g id="text_8">
      <text style="fill:#262626;font-family:DejaVu Sans;font-size:10px;font-stretch:normal;font-style:normal;font-weight:normal;text-anchor:end;" transform="rotate(-0, 41.982813, 128.735902)" x="41.982813" y="128.735902">−10</text>
     </g>
    </g>
    <g id="ytick_7">
     <g id="line2d_9">
      <g>
       <use style="fill:#262626;stroke:#262626;stroke-width:0.8;" x="48.982813" xlink:href="#m4e78bf9a29" y="88.104436"/>
      </g>
     </g>
     <g id="text_9">
      <text style="fill:#262626;font-family:DejaVu Sans;font-size:10px;font-stretch:normal;font-style:normal;font-weight:normal;text-anchor:end;" transform="rotate(-0, 41.982813, 91.903655)" x="41.982813" y="91.903655">0</text>
     </g>
    </g>
    <g id="ytick_8">
     <g id="line2d_10">
      <g>
       <use style="fill:#262626;stroke:#262626;stroke-width:0.8;" x="48.982813" xlink:href="#m4e78bf9a29" y="51.272188"/>
      </g>
     </g>
     <g id="text_10">
      <text style="fill:#262626;font-family:DejaVu Sans;font-size:10px;font-stretch:normal;font-style:normal;font-weight:normal;text-anchor:end;" transform="rotate(-0, 41.982813, 55.071407)" x="41.982813" y="55.071407">10</text>
     </g>
    </g>
    <g id="ytick_9">
     <g id="line2d_11">
      <g>
       <use style="fill:#262626;stroke:#262626;stroke-width:0.8;" x="48.982813" xlink:href="#m4e78bf9a29" y="14.439941"/>
      </g>
     </g>
     <g id="text_11">
      <text style="fill:#262626;font-family:DejaVu Sans;font-size:10px;font-stretch:normal;font-style:normal;font-weight:normal;text-anchor:end;" transform="rotate(-0, 41.982813, 18.23916)" x="41.982813" y="18.23916">20</text>
     </g>
    </g>
    <g id="text_12">
     <text style="fill:#262626;font-family:DejaVu Sans;font-size:10px;font-stretch:normal;font-style:normal;font-weight:normal;text-anchor:middle;" transform="rotate(-90, 14.798438, 160.66)" x="14.798438" y="160.66">standardized shortest path length</text>
    </g>
   </g>
   <g id="PolyCollection_1">
    <defs>
     <path d="M 148.250434 -37.829034 
L 148.245191 -37.829034 
L 148.247386 -40.6474 
L 148.242141 -43.465765 
L 148.24779 -46.284131 
L 148.247812 -49.102496 
L 148.247713 -51.920861 
L 148.246258 -54.739227 
L 148.247812 -57.557592 
L 148.247813 -60.375958 
L 148.247813 -63.194323 
L 148.247812 -66.012689 
L 148.247726 -68.831054 
L 148.246067 -71.64942 
L 148.246268 -74.467785 
L 148.247812 -77.286151 
L 148.247719 -80.104516 
L 148.246217 -82.922882 
L 148.247812 -85.741247 
L 148.247813 -88.559613 
L 148.247813 -91.377978 
L 148.247813 -94.196344 
L 148.247813 -97.014709 
L 148.247813 -99.833074 
L 148.247813 -102.65144 
L 148.247813 -105.469805 
L 148.247813 -108.288171 
L 148.247811 -111.106536 
L 148.245263 -113.924902 
L 148.247803 -116.743267 
L 148.246068 -119.561633 
L 148.242942 -122.379998 
L 148.246404 -125.198364 
L 148.247684 -128.016729 
L 148.246416 -130.835095 
L 148.247812 -133.65346 
L 148.247812 -136.471826 
L 148.247225 -139.290191 
L 148.247304 -142.108557 
L 148.243023 -144.926922 
L 148.24776 -147.745288 
L 148.245688 -150.563653 
L 148.246291 -153.382018 
L 148.245964 -156.200384 
L 148.24548 -159.018749 
L 148.243444 -161.837115 
L 148.244792 -164.65548 
L 148.247424 -167.473846 
L 148.233595 -170.292211 
L 148.240942 -173.110577 
L 148.23383 -175.928942 
L 148.231528 -178.747308 
L 148.227706 -181.565673 
L 148.207351 -184.384039 
L 148.197171 -187.202404 
L 148.202439 -190.02077 
L 148.179798 -192.839135 
L 148.169253 -195.657501 
L 148.143593 -198.475866 
L 148.097746 -201.294232 
L 148.056619 -204.112597 
L 147.92721 -206.930962 
L 147.804404 -209.749328 
L 147.521553 -212.567693 
L 147.183858 -215.386059 
L 146.744233 -218.204424 
L 146.154019 -221.02279 
L 145.69409 -223.841155 
L 144.746887 -226.659521 
L 143.179392 -229.477886 
L 141.317176 -232.296252 
L 138.166879 -235.114617 
L 133.718364 -237.932983 
L 126.095323 -240.751348 
L 114.238891 -243.569714 
L 103.81384 -246.388079 
L 94.794557 -249.206445 
L 89.738471 -252.02481 
L 102.199994 -254.843176 
L 128.399933 -257.661541 
L 144.116741 -260.479906 
L 147.850499 -263.298272 
L 148.191657 -266.116637 
L 148.242447 -268.935003 
L 148.245895 -271.753368 
L 148.247812 -274.571734 
L 148.247647 -277.390099 
L 148.246383 -280.208465 
L 148.244598 -283.02683 
L 148.247812 -285.845196 
L 148.247813 -288.663561 
L 148.247813 -291.481927 
L 148.247812 -294.300292 
L 148.247663 -297.118658 
L 148.241714 -299.937023 
L 148.239886 -302.755389 
L 148.238032 -305.573754 
L 148.247794 -308.392119 
L 148.24772 -311.210485 
L 148.246184 -314.02885 
L 148.242861 -316.847216 
L 148.252764 -316.847216 
L 148.252764 -316.847216 
L 148.249441 -314.02885 
L 148.247905 -311.210485 
L 148.247831 -308.392119 
L 148.257593 -305.573754 
L 148.255739 -302.755389 
L 148.253911 -299.937023 
L 148.247962 -297.118658 
L 148.247813 -294.300292 
L 148.247813 -291.481927 
L 148.247813 -288.663561 
L 148.247813 -285.845196 
L 148.251027 -283.02683 
L 148.249242 -280.208465 
L 148.247978 -277.390099 
L 148.247813 -274.571734 
L 148.24973 -271.753368 
L 148.253178 -268.935003 
L 148.303968 -266.116637 
L 148.645126 -263.298272 
L 152.378884 -260.479906 
L 168.095692 -257.661541 
L 194.295631 -254.843176 
L 206.757154 -252.02481 
L 201.701068 -249.206445 
L 192.681785 -246.388079 
L 182.256734 -243.569714 
L 170.400302 -240.751348 
L 162.777261 -237.932983 
L 158.328746 -235.114617 
L 155.178449 -232.296252 
L 153.316233 -229.477886 
L 151.748738 -226.659521 
L 150.801535 -223.841155 
L 150.341606 -221.02279 
L 149.751392 -218.204424 
L 149.311767 -215.386059 
L 148.974072 -212.567693 
L 148.691221 -209.749328 
L 148.568415 -206.930962 
L 148.439006 -204.112597 
L 148.397879 -201.294232 
L 148.352032 -198.475866 
L 148.326372 -195.657501 
L 148.315827 -192.839135 
L 148.293186 -190.02077 
L 148.298454 -187.202404 
L 148.288274 -184.384039 
L 148.267919 -181.565673 
L 148.264097 -178.747308 
L 148.261795 -175.928942 
L 148.254683 -173.110577 
L 148.26203 -170.292211 
L 148.248201 -167.473846 
L 148.250833 -164.65548 
L 148.252181 -161.837115 
L 148.250145 -159.018749 
L 148.249661 -156.200384 
L 148.249334 -153.382018 
L 148.249937 -150.563653 
L 148.247865 -147.745288 
L 148.252602 -144.926922 
L 148.248321 -142.108557 
L 148.2484 -139.290191 
L 148.247813 -136.471826 
L 148.247813 -133.65346 
L 148.249209 -130.835095 
L 148.247941 -128.016729 
L 148.249221 -125.198364 
L 148.252683 -122.379998 
L 148.249557 -119.561633 
L 148.247822 -116.743267 
L 148.250362 -113.924902 
L 148.247814 -111.106536 
L 148.247813 -108.288171 
L 148.247813 -105.469805 
L 148.247813 -102.65144 
L 148.247813 -99.833074 
L 148.247813 -97.014709 
L 148.247813 -94.196344 
L 148.247813 -91.377978 
L 148.247813 -88.559613 
L 148.247813 -85.741247 
L 148.249408 -82.922882 
L 148.247906 -80.104516 
L 148.247813 -77.286151 
L 148.249357 -74.467785 
L 148.249558 -71.64942 
L 148.247899 -68.831054 
L 148.247813 -66.012689 
L 148.247813 -63.194323 
L 148.247813 -60.375958 
L 148.247813 -57.557592 
L 148.249367 -54.739227 
L 148.247912 -51.920861 
L 148.247813 -49.102496 
L 148.247835 -46.284131 
L 148.253484 -43.465765 
L 148.248239 -40.6474 
L 148.250434 -37.829034 
z
" id="me1bc102fb2" style="stroke:#404040;stroke-width:1.5;"/>
    </defs>
    <g clip-path="url(#pcf385924b7)">
     <use style="fill:#5573cd;stroke:#404040;stroke-width:1.5;" x="0" xlink:href="#me1bc102fb2" y="337.998125"/>
    </g>
   </g>
   <g id="PolyCollection_2">
    <defs>
     <path d="M 346.779646 -183.549907 
L 346.775979 -183.549907 
L 346.777725 -184.853009 
L 346.777812 -186.15611 
L 346.777812 -187.459212 
L 346.77628 -188.762314 
L 346.776592 -190.065415 
L 346.776507 -191.368517 
L 346.777812 -192.671618 
L 346.777704 -193.97472 
L 346.776744 -195.277822 
L 346.775022 -196.580923 
L 346.773199 -197.884025 
L 346.770114 -199.187127 
L 346.772377 -200.490228 
L 346.772329 -201.79333 
L 346.769041 -203.096431 
L 346.765967 -204.399533 
L 346.763676 -205.702635 
L 346.76865 -207.005736 
L 346.760692 -208.308838 
L 346.761024 -209.611939 
L 346.751248 -210.915041 
L 346.738236 -212.218143 
L 346.728369 -213.521244 
L 346.724262 -214.824346 
L 346.691175 -216.127447 
L 346.683878 -217.430549 
L 346.674877 -218.733651 
L 346.623428 -220.036752 
L 346.567268 -221.339854 
L 346.538883 -222.642955 
L 346.476734 -223.946057 
L 346.339238 -225.249159 
L 346.259041 -226.55226 
L 346.087 -227.855362 
L 345.909245 -229.158463 
L 345.657675 -230.461565 
L 345.326447 -231.764667 
L 344.833184 -233.067768 
L 344.184332 -234.37087 
L 343.272876 -235.673972 
L 341.983975 -236.977073 
L 339.98202 -238.280175 
L 337.605921 -239.583276 
L 334.487509 -240.886378 
L 330.274083 -242.18948 
L 324.942631 -243.492581 
L 318.525252 -244.795683 
L 311.055527 -246.098784 
L 301.803497 -247.401886 
L 291.013406 -248.704988 
L 279.999546 -250.008089 
L 271.802751 -251.311191 
L 267.365813 -252.614292 
L 270.456257 -253.917394 
L 281.713262 -255.220496 
L 298.838339 -256.523597 
L 316.247693 -257.826699 
L 330.606454 -259.1298 
L 339.479738 -260.432902 
L 344.014351 -261.736004 
L 345.889603 -263.039105 
L 346.503669 -264.342207 
L 346.706171 -265.645309 
L 346.740359 -266.94841 
L 346.75926 -268.251512 
L 346.774424 -269.554613 
L 346.774277 -270.857715 
L 346.776612 -272.160817 
L 346.776087 -273.463918 
L 346.775601 -274.76702 
L 346.776419 -276.070121 
L 346.777209 -277.373223 
L 346.776575 -278.676325 
L 346.776097 -279.979426 
L 346.777433 -281.282528 
L 346.774737 -282.585629 
L 346.777721 -283.888731 
L 346.775444 -285.191833 
L 346.777489 -286.494934 
L 346.774717 -287.798036 
L 346.776571 -289.101137 
L 346.776773 -290.404239 
L 346.777797 -291.707341 
L 346.772894 -293.010442 
L 346.77643 -294.313544 
L 346.777659 -295.616646 
L 346.775002 -296.919747 
L 346.775155 -298.222849 
L 346.777615 -299.52595 
L 346.773756 -300.829052 
L 346.775447 -302.132154 
L 346.773249 -303.435255 
L 346.772086 -304.738357 
L 346.766937 -306.041458 
L 346.769137 -307.34456 
L 346.774639 -308.647662 
L 346.773566 -309.950763 
L 346.775388 -311.253865 
L 346.775945 -312.556966 
L 346.77968 -312.556966 
L 346.77968 -312.556966 
L 346.780237 -311.253865 
L 346.782059 -309.950763 
L 346.780986 -308.647662 
L 346.786488 -307.34456 
L 346.788688 -306.041458 
L 346.783539 -304.738357 
L 346.782376 -303.435255 
L 346.780178 -302.132154 
L 346.781869 -300.829052 
L 346.77801 -299.52595 
L 346.78047 -298.222849 
L 346.780623 -296.919747 
L 346.777966 -295.616646 
L 346.779195 -294.313544 
L 346.782731 -293.010442 
L 346.777828 -291.707341 
L 346.778852 -290.404239 
L 346.779054 -289.101137 
L 346.780908 -287.798036 
L 346.778136 -286.494934 
L 346.780181 -285.191833 
L 346.777904 -283.888731 
L 346.780888 -282.585629 
L 346.778192 -281.282528 
L 346.779528 -279.979426 
L 346.77905 -278.676325 
L 346.778416 -277.373223 
L 346.779206 -276.070121 
L 346.780024 -274.76702 
L 346.779538 -273.463918 
L 346.779013 -272.160817 
L 346.781348 -270.857715 
L 346.781201 -269.554613 
L 346.796365 -268.251512 
L 346.815266 -266.94841 
L 346.849454 -265.645309 
L 347.051956 -264.342207 
L 347.666022 -263.039105 
L 349.541274 -261.736004 
L 354.075887 -260.432902 
L 362.949171 -259.1298 
L 377.307932 -257.826699 
L 394.717286 -256.523597 
L 411.842363 -255.220496 
L 423.099368 -253.917394 
L 426.189812 -252.614292 
L 421.752874 -251.311191 
L 413.556079 -250.008089 
L 402.542219 -248.704988 
L 391.752128 -247.401886 
L 382.500098 -246.098784 
L 375.030373 -244.795683 
L 368.612994 -243.492581 
L 363.281542 -242.18948 
L 359.068116 -240.886378 
L 355.949704 -239.583276 
L 353.573605 -238.280175 
L 351.57165 -236.977073 
L 350.282749 -235.673972 
L 349.371293 -234.37087 
L 348.722441 -233.067768 
L 348.229178 -231.764667 
L 347.89795 -230.461565 
L 347.64638 -229.158463 
L 347.468625 -227.855362 
L 347.296584 -226.55226 
L 347.216387 -225.249159 
L 347.078891 -223.946057 
L 347.016742 -222.642955 
L 346.988357 -221.339854 
L 346.932197 -220.036752 
L 346.880748 -218.733651 
L 346.871747 -217.430549 
L 346.86445 -216.127447 
L 346.831363 -214.824346 
L 346.827256 -213.521244 
L 346.817389 -212.218143 
L 346.804377 -210.915041 
L 346.794601 -209.611939 
L 346.794933 -208.308838 
L 346.786975 -207.005736 
L 346.791949 -205.702635 
L 346.789658 -204.399533 
L 346.786584 -203.096431 
L 346.783296 -201.79333 
L 346.783248 -200.490228 
L 346.785511 -199.187127 
L 346.782426 -197.884025 
L 346.780603 -196.580923 
L 346.778881 -195.277822 
L 346.777921 -193.97472 
L 346.777813 -192.671618 
L 346.779118 -191.368517 
L 346.779033 -190.065415 
L 346.779345 -188.762314 
L 346.777813 -187.459212 
L 346.777813 -186.15611 
L 346.7779 -184.853009 
L 346.779646 -183.549907 
z
" id="m190624967d" style="stroke:#404040;stroke-width:1.5;"/>
    </defs>
    <g clip-path="url(#pcf385924b7)">
     <use style="fill:#a03434;stroke:#404040;stroke-width:1.5;" x="0" xlink:href="#m190624967d" y="337.998125"/>
    </g>
   </g>
   <g id="line2d_12">
    <path clip-path="url(#pcf385924b7)" d="M 114.57898 94.81102 
L 181.916645 94.81102 
" style="fill:none;stroke:#404040;stroke-dasharray:3.375,3.375;stroke-dashoffset:0;stroke-width:1.5;"/>
   </g>
   <g id="line2d_13">
    <path clip-path="url(#pcf385924b7)" d="M 95.32909 89.301892 
L 201.166535 89.301892 
" style="fill:none;stroke:#404040;stroke-dasharray:6.75,6.75;stroke-dashoffset:0;stroke-width:1.5;"/>
   </g>
   <g id="line2d_14">
    <path clip-path="url(#pcf385924b7)" d="M 90.323565 85.191212 
L 206.17206 85.191212 
" style="fill:none;stroke:#404040;stroke-dasharray:3.375,3.375;stroke-dashoffset:0;stroke-width:1.5;"/>
   </g>
   <g id="line2d_15">
    <path clip-path="url(#pcf385924b7)" d="M 302.25324 90.352759 
L 391.302385 90.352759 
" style="fill:none;stroke:#404040;stroke-dasharray:3.375,3.375;stroke-dashoffset:0;stroke-width:1.5;"/>
   </g>
   <g id="line2d_16">
    <path clip-path="url(#pcf385924b7)" d="M 272.552502 86.590882 
L 421.003123 86.590882 
" style="fill:none;stroke:#404040;stroke-dasharray:6.75,6.75;stroke-dashoffset:0;stroke-width:1.5;"/>
   </g>
   <g id="line2d_17">
    <path clip-path="url(#pcf385924b7)" d="M 271.219472 83.584166 
L 422.336153 83.584166 
" style="fill:none;stroke:#404040;stroke-dasharray:3.375,3.375;stroke-dashoffset:0;stroke-width:1.5;"/>
   </g>
   <g id="patch_3">
    <path d="M 48.982813 309.097921 
L 48.982813 14.439941 
" style="fill:none;stroke:#262626;stroke-linecap:square;stroke-linejoin:miter;stroke-width:0.8;"/>
   </g>
   <g id="patch_4">
    <path d="M 148.247813 314.12 
L 346.777812 314.12 
" style="fill:none;stroke:#262626;stroke-linecap:square;stroke-linejoin:miter;stroke-width:0.8;"/>
   </g>
   <g id="text_13">
    <text style="fill:#262626;font-family:DejaVu Sans;font-size:10px;font-stretch:normal;font-style:normal;font-weight:normal;text-anchor:middle;" transform="rotate(-0, 247.512812, 19.071222)" x="247.512812" y="19.071222">*</text>
   </g>
  </g>
 </g>
 <defs>
  <clipPath id="pcf385924b7">
   <rect height="306.92" width="397.06" x="48.982813" y="7.2"/>
  </clipPath>
 </defs>
</svg>
