<?xml version="1.0" encoding="utf-8" standalone="no"?>
<!DOCTYPE svg PUBLIC "-//W3C//DTD SVG 1.1//EN"
  "http://www.w3.org/Graphics/SVG/1.1/DTD/svg11.dtd">
<!-- Created with matplotlib (https://matplotlib.org/) -->
<svg height="338.905312pt" version="1.1" viewBox="0 0 454.057812 338.905312" width="454.057812pt" xmlns="http://www.w3.org/2000/svg" xmlns:xlink="http://www.w3.org/1999/xlink">
 <metadata>
  <rdf:RDF xmlns:cc="http://creativecommons.org/ns#" xmlns:dc="http://purl.org/dc/elements/1.1/" xmlns:rdf="http://www.w3.org/1999/02/22-rdf-syntax-ns#">
   <cc:Work>
    <dc:type rdf:resource="http://purl.org/dc/dcmitype/StillImage"/>
    <dc:date>2023-03-28T13:30:36.877125</dc:date>
    <dc:format>image/svg+xml</dc:format>
    <dc:creator>
     <cc:Agent>
      <dc:title>Matplotlib v3.3.4, https://matplotlib.org/</dc:title>
     </cc:Agent>
    </dc:creator>
   </cc:Work>
  </rdf:RDF>
 </metadata>
 <defs>
  <style type="text/css">*{stroke-linecap:butt;stroke-linejoin:round;}</style>
 </defs>
 <g id="figure_1">
  <g id="patch_1">
   <path d="M 0 338.905312 
L 454.057812 338.905312 
L 454.057812 0 
L 0 0 
z
" style="fill:#ffffff;"/>
  </g>
  <g id="axes_1">
   <g id="patch_2">
    <path d="M 44.307813 315.56 
L 446.857813 315.56 
L 446.857813 7.2 
L 44.307813 7.2 
z
" style="fill:#ffffff;"/>
   </g>
   <g id="matplotlib.axis_1">
    <g id="xtick_1">
     <g id="line2d_1">
      <defs>
       <path d="M 0 0 
L 0 3.5 
" id="m3f9b9e90b4" style="stroke:#262626;stroke-width:0.8;"/>
      </defs>
      <g>
       <use style="fill:#262626;stroke:#262626;stroke-width:0.8;" x="144.945312" xlink:href="#m3f9b9e90b4" y="315.56"/>
      </g>
     </g>
     <g id="text_1">
      <text style="fill:#262626;font-family:Arial;font-size:10px;font-stretch:normal;font-style:normal;font-weight:normal;text-anchor:middle;" transform="rotate(-0, 144.945312, 329.717812)" x="144.945312" y="329.717812">within network</text>
     </g>
    </g>
    <g id="xtick_2">
     <g id="line2d_2">
      <g>
       <use style="fill:#262626;stroke:#262626;stroke-width:0.8;" x="346.220312" xlink:href="#m3f9b9e90b4" y="315.56"/>
      </g>
     </g>
     <g id="text_2">
      <text style="fill:#262626;font-family:Arial;font-size:10px;font-stretch:normal;font-style:normal;font-weight:normal;text-anchor:middle;" transform="rotate(-0, 346.220312, 329.717812)" x="346.220312" y="329.717812">between network</text>
     </g>
    </g>
   </g>
   <g id="matplotlib.axis_2">
    <g id="ytick_1">
     <g id="line2d_3">
      <defs>
       <path d="M 0 0 
L -3.5 0 
" id="m68f571599a" style="stroke:#262626;stroke-width:0.8;"/>
      </defs>
      <g>
       <use style="fill:#262626;stroke:#262626;stroke-width:0.8;" x="44.307813" xlink:href="#m68f571599a" y="293.276674"/>
      </g>
     </g>
     <g id="text_3">
      <text style="fill:#262626;font-family:Arial;font-size:10px;font-stretch:normal;font-style:normal;font-weight:normal;text-anchor:end;" transform="rotate(-0, 37.307813, 296.85558)" x="37.307813" y="296.85558">−15</text>
     </g>
    </g>
    <g id="ytick_2">
     <g id="line2d_4">
      <g>
       <use style="fill:#262626;stroke:#262626;stroke-width:0.8;" x="44.307813" xlink:href="#m68f571599a" y="252.276522"/>
      </g>
     </g>
     <g id="text_4">
      <text style="fill:#262626;font-family:Arial;font-size:10px;font-stretch:normal;font-style:normal;font-weight:normal;text-anchor:end;" transform="rotate(-0, 37.307813, 255.855429)" x="37.307813" y="255.855429">−10</text>
     </g>
    </g>
    <g id="ytick_3">
     <g id="line2d_5">
      <g>
       <use style="fill:#262626;stroke:#262626;stroke-width:0.8;" x="44.307813" xlink:href="#m68f571599a" y="211.276371"/>
      </g>
     </g>
     <g id="text_5">
      <text style="fill:#262626;font-family:Arial;font-size:10px;font-stretch:normal;font-style:normal;font-weight:normal;text-anchor:end;" transform="rotate(-0, 37.307813, 214.855277)" x="37.307813" y="214.855277">−5</text>
     </g>
    </g>
    <g id="ytick_4">
     <g id="line2d_6">
      <g>
       <use style="fill:#262626;stroke:#262626;stroke-width:0.8;" x="44.307813" xlink:href="#m68f571599a" y="170.276219"/>
      </g>
     </g>
     <g id="text_6">
      <text style="fill:#262626;font-family:Arial;font-size:10px;font-stretch:normal;font-style:normal;font-weight:normal;text-anchor:end;" transform="rotate(-0, 37.307813, 173.855126)" x="37.307813" y="173.855126">0</text>
     </g>
    </g>
    <g id="ytick_5">
     <g id="line2d_7">
      <g>
       <use style="fill:#262626;stroke:#262626;stroke-width:0.8;" x="44.307813" xlink:href="#m68f571599a" y="129.276068"/>
      </g>
     </g>
     <g id="text_7">
      <text style="fill:#262626;font-family:Arial;font-size:10px;font-stretch:normal;font-style:normal;font-weight:normal;text-anchor:end;" transform="rotate(-0, 37.307813, 132.854974)" x="37.307813" y="132.854974">5</text>
     </g>
    </g>
    <g id="ytick_6">
     <g id="line2d_8">
      <g>
       <use style="fill:#262626;stroke:#262626;stroke-width:0.8;" x="44.307813" xlink:href="#m68f571599a" y="88.275916"/>
      </g>
     </g>
     <g id="text_8">
      <text style="fill:#262626;font-family:Arial;font-size:10px;font-stretch:normal;font-style:normal;font-weight:normal;text-anchor:end;" transform="rotate(-0, 37.307813, 91.854823)" x="37.307813" y="91.854823">10</text>
     </g>
    </g>
    <g id="ytick_7">
     <g id="line2d_9">
      <g>
       <use style="fill:#262626;stroke:#262626;stroke-width:0.8;" x="44.307813" xlink:href="#m68f571599a" y="47.275765"/>
      </g>
     </g>
     <g id="text_9">
      <text style="fill:#262626;font-family:Arial;font-size:10px;font-stretch:normal;font-style:normal;font-weight:normal;text-anchor:end;" transform="rotate(-0, 37.307813, 50.854671)" x="37.307813" y="50.854671">15</text>
     </g>
    </g>
    <g id="text_10">
     <text style="fill:#262626;font-family:Arial;font-size:10px;font-stretch:normal;font-style:normal;font-weight:normal;text-anchor:middle;" transform="rotate(-90, 14.357813, 161.38)" x="14.357813" y="161.38">PC1 score</text>
    </g>
   </g>
   <g id="PolyCollection_1">
    <defs>
     <path d="M 144.94892 -37.361676 
L 144.941705 -37.361676 
L 144.944847 -40.193265 
L 144.942576 -43.024853 
L 144.941386 -45.856442 
L 144.943536 -48.688031 
L 144.942908 -51.519619 
L 144.939371 -54.351208 
L 144.944967 -57.182796 
L 144.942664 -60.014385 
L 144.943315 -62.845974 
L 144.937353 -65.677562 
L 144.930342 -68.509151 
L 144.929447 -71.340739 
L 144.932508 -74.172328 
L 144.933389 -77.003917 
L 144.930709 -79.835505 
L 144.928011 -82.667094 
L 144.925399 -85.498683 
L 144.907277 -88.330271 
L 144.894935 -91.16186 
L 144.87632 -93.993448 
L 144.829207 -96.825037 
L 144.757409 -99.656626 
L 144.62755 -102.488214 
L 144.501863 -105.319803 
L 144.386056 -108.151391 
L 144.067592 -110.98298 
L 143.788508 -113.814569 
L 143.286698 -116.646157 
L 142.529643 -119.477746 
L 141.817835 -122.309335 
L 141.062639 -125.140923 
L 140.183103 -127.972512 
L 138.972203 -130.8041 
L 137.370626 -133.635689 
L 135.629683 -136.467278 
L 133.54189 -139.298866 
L 130.940726 -142.130455 
L 127.338156 -144.962043 
L 123.123885 -147.793632 
L 117.964228 -150.625221 
L 111.221915 -153.456809 
L 106.297696 -156.288398 
L 100.481034 -159.119987 
L 96.31754 -161.951575 
L 91.88487 -164.783164 
L 87.352079 -167.614752 
L 83.745464 -170.446341 
L 82.356335 -173.27793 
L 85.703307 -176.109518 
L 93.172827 -178.941107 
L 104.958086 -181.772695 
L 118.473623 -184.604284 
L 129.696722 -187.435873 
L 137.354681 -190.267461 
L 141.90032 -193.09905 
L 143.933796 -195.930638 
L 144.588711 -198.762227 
L 144.828827 -201.593816 
L 144.88026 -204.425404 
L 144.921155 -207.256993 
L 144.939451 -210.088582 
L 144.939373 -212.92017 
L 144.939851 -215.751759 
L 144.945136 -218.583347 
L 144.945312 -221.414936 
L 144.945312 -224.246525 
L 144.945312 -227.078113 
L 144.945272 -229.909702 
L 144.942921 -232.74129 
L 144.943517 -235.572879 
L 144.943444 -238.404468 
L 144.938808 -241.236056 
L 144.944983 -244.067645 
L 144.945312 -246.899234 
L 144.945312 -249.730822 
L 144.945312 -252.562411 
L 144.945312 -255.393999 
L 144.945312 -258.225588 
L 144.945312 -261.057177 
L 144.945312 -263.888765 
L 144.945312 -266.720354 
L 144.945312 -269.551942 
L 144.945312 -272.383531 
L 144.944887 -275.21512 
L 144.938716 -278.046708 
L 144.939127 -280.878297 
L 144.937848 -283.709886 
L 144.936206 -286.541474 
L 144.938115 -289.373063 
L 144.932745 -292.204651 
L 144.943007 -295.03624 
L 144.945302 -297.867829 
L 144.945312 -300.699417 
L 144.945312 -303.531006 
L 144.945131 -306.362594 
L 144.941925 -309.194183 
L 144.944508 -312.025772 
L 144.943666 -314.85736 
L 144.938747 -317.688949 
L 144.951878 -317.688949 
L 144.951878 -317.688949 
L 144.946959 -314.85736 
L 144.946117 -312.025772 
L 144.9487 -309.194183 
L 144.945494 -306.362594 
L 144.945313 -303.531006 
L 144.945313 -300.699417 
L 144.945323 -297.867829 
L 144.947618 -295.03624 
L 144.95788 -292.204651 
L 144.95251 -289.373063 
L 144.954419 -286.541474 
L 144.952777 -283.709886 
L 144.951498 -280.878297 
L 144.951909 -278.046708 
L 144.945738 -275.21512 
L 144.945313 -272.383531 
L 144.945313 -269.551942 
L 144.945312 -266.720354 
L 144.945312 -263.888765 
L 144.945312 -261.057177 
L 144.945312 -258.225588 
L 144.945312 -255.393999 
L 144.945312 -252.562411 
L 144.945313 -249.730822 
L 144.945313 -246.899234 
L 144.945642 -244.067645 
L 144.951817 -241.236056 
L 144.947181 -238.404468 
L 144.947108 -235.572879 
L 144.947704 -232.74129 
L 144.945353 -229.909702 
L 144.945313 -227.078113 
L 144.945313 -224.246525 
L 144.945313 -221.414936 
L 144.945489 -218.583347 
L 144.950774 -215.751759 
L 144.951252 -212.92017 
L 144.951174 -210.088582 
L 144.96947 -207.256993 
L 145.010365 -204.425404 
L 145.061798 -201.593816 
L 145.301914 -198.762227 
L 145.956829 -195.930638 
L 147.990305 -193.09905 
L 152.535944 -190.267461 
L 160.193903 -187.435873 
L 171.417002 -184.604284 
L 184.932539 -181.772695 
L 196.717798 -178.941107 
L 204.187318 -176.109518 
L 207.53429 -173.27793 
L 206.145161 -170.446341 
L 202.538546 -167.614752 
L 198.005755 -164.783164 
L 193.573085 -161.951575 
L 189.409591 -159.119987 
L 183.592929 -156.288398 
L 178.66871 -153.456809 
L 171.926397 -150.625221 
L 166.76674 -147.793632 
L 162.552469 -144.962043 
L 158.949899 -142.130455 
L 156.348735 -139.298866 
L 154.260942 -136.467278 
L 152.519999 -133.635689 
L 150.918422 -130.8041 
L 149.707522 -127.972512 
L 148.827986 -125.140923 
L 148.07279 -122.309335 
L 147.360982 -119.477746 
L 146.603927 -116.646157 
L 146.102117 -113.814569 
L 145.823033 -110.98298 
L 145.504569 -108.151391 
L 145.388762 -105.319803 
L 145.263075 -102.488214 
L 145.133216 -99.656626 
L 145.061418 -96.825037 
L 145.014305 -93.993448 
L 144.99569 -91.16186 
L 144.983348 -88.330271 
L 144.965226 -85.498683 
L 144.962614 -82.667094 
L 144.959916 -79.835505 
L 144.957236 -77.003917 
L 144.958117 -74.172328 
L 144.961178 -71.340739 
L 144.960283 -68.509151 
L 144.953272 -65.677562 
L 144.94731 -62.845974 
L 144.947961 -60.014385 
L 144.945658 -57.182796 
L 144.951254 -54.351208 
L 144.947717 -51.519619 
L 144.947089 -48.688031 
L 144.949239 -45.856442 
L 144.948049 -43.024853 
L 144.945778 -40.193265 
L 144.94892 -37.361676 
z
" id="me017ad6963" style="stroke:#404040;stroke-width:1.5;"/>
    </defs>
    <g clip-path="url(#pbaa95ce928)">
     <use style="fill:#5573cd;stroke:#404040;stroke-width:1.5;" x="0" xlink:href="#me017ad6963" y="338.905312"/>
    </g>
   </g>
   <g id="PolyCollection_2">
    <defs>
     <path d="M 346.222097 -86.913612 
L 346.218528 -86.913612 
L 346.219195 -89.148196 
L 346.216059 -91.382781 
L 346.216992 -93.617366 
L 346.207668 -95.85195 
L 346.214529 -98.086535 
L 346.212786 -100.321119 
L 346.197603 -102.555704 
L 346.182963 -104.790289 
L 346.179549 -107.024873 
L 346.167146 -109.259458 
L 346.129717 -111.494042 
L 346.09071 -113.728627 
L 346.058594 -115.963212 
L 346.00358 -118.197796 
L 345.876584 -120.432381 
L 345.778247 -122.666966 
L 345.640494 -124.90155 
L 345.393191 -127.136135 
L 345.168148 -129.370719 
L 344.765121 -131.605304 
L 344.302016 -133.839889 
L 343.692277 -136.074473 
L 342.809167 -138.309058 
L 341.670781 -140.543642 
L 340.066502 -142.778227 
L 338.268091 -145.012812 
L 335.873429 -147.247396 
L 333.166402 -149.481981 
L 329.548585 -151.716565 
L 325.260342 -153.95115 
L 320.42444 -156.185735 
L 314.83026 -158.420319 
L 308.529168 -160.654904 
L 301.181521 -162.889489 
L 292.714184 -165.124073 
L 284.418142 -167.358658 
L 275.865855 -169.593242 
L 269.804741 -171.827827 
L 265.710312 -174.062412 
L 266.148867 -176.296996 
L 271.323085 -178.531581 
L 281.43364 -180.766165 
L 294.866364 -183.00075 
L 309.017087 -185.235335 
L 321.828164 -187.469919 
L 331.830236 -189.704504 
L 338.485401 -191.939088 
L 342.472844 -194.173673 
L 344.541877 -196.408258 
L 345.571063 -198.642842 
L 345.950554 -200.877427 
L 346.123127 -203.112012 
L 346.174581 -205.346596 
L 346.188962 -207.581181 
L 346.202553 -209.815765 
L 346.216077 -212.05035 
L 346.213121 -214.284935 
L 346.220087 -216.519519 
L 346.21765 -218.754104 
L 346.218393 -220.988688 
L 346.218783 -223.223273 
L 346.215825 -225.457858 
L 346.220034 -227.692442 
L 346.219637 -229.927027 
L 346.217804 -232.161611 
L 346.218478 -234.396196 
L 346.219842 -236.630781 
L 346.219646 -238.865365 
L 346.217455 -241.09995 
L 346.219524 -243.334535 
L 346.219893 -245.569119 
L 346.218581 -247.803704 
L 346.2201 -250.038288 
L 346.217217 -252.272873 
L 346.219132 -254.507458 
L 346.219199 -256.742042 
L 346.219364 -258.976627 
L 346.220311 -261.211211 
L 346.218707 -263.445796 
L 346.21633 -265.680381 
L 346.219005 -267.914965 
L 346.22026 -270.14955 
L 346.21717 -272.384135 
L 346.219321 -274.618719 
L 346.217925 -276.853304 
L 346.220152 -279.087888 
L 346.216948 -281.322473 
L 346.216612 -283.557058 
L 346.216932 -285.791642 
L 346.215469 -288.026227 
L 346.213513 -290.260811 
L 346.211015 -292.495396 
L 346.210092 -294.729981 
L 346.21279 -296.964565 
L 346.216988 -299.19915 
L 346.217966 -301.433734 
L 346.216346 -303.668319 
L 346.216037 -305.902904 
L 346.218446 -308.137488 
L 346.222179 -308.137488 
L 346.222179 -308.137488 
L 346.224588 -305.902904 
L 346.224279 -303.668319 
L 346.222659 -301.433734 
L 346.223637 -299.19915 
L 346.227835 -296.964565 
L 346.230533 -294.729981 
L 346.22961 -292.495396 
L 346.227112 -290.260811 
L 346.225156 -288.026227 
L 346.223693 -285.791642 
L 346.224013 -283.557058 
L 346.223677 -281.322473 
L 346.220473 -279.087888 
L 346.2227 -276.853304 
L 346.221304 -274.618719 
L 346.223455 -272.384135 
L 346.220365 -270.14955 
L 346.22162 -267.914965 
L 346.224295 -265.680381 
L 346.221918 -263.445796 
L 346.220314 -261.211211 
L 346.221261 -258.976627 
L 346.221426 -256.742042 
L 346.221493 -254.507458 
L 346.223408 -252.272873 
L 346.220525 -250.038288 
L 346.222044 -247.803704 
L 346.220732 -245.569119 
L 346.221101 -243.334535 
L 346.22317 -241.09995 
L 346.220979 -238.865365 
L 346.220783 -236.630781 
L 346.222147 -234.396196 
L 346.222821 -232.161611 
L 346.220988 -229.927027 
L 346.220591 -227.692442 
L 346.2248 -225.457858 
L 346.221842 -223.223273 
L 346.222232 -220.988688 
L 346.222975 -218.754104 
L 346.220538 -216.519519 
L 346.227504 -214.284935 
L 346.224548 -212.05035 
L 346.238072 -209.815765 
L 346.251663 -207.581181 
L 346.266044 -205.346596 
L 346.317498 -203.112012 
L 346.490071 -200.877427 
L 346.869562 -198.642842 
L 347.898748 -196.408258 
L 349.967781 -194.173673 
L 353.955224 -191.939088 
L 360.610389 -189.704504 
L 370.612461 -187.469919 
L 383.423538 -185.235335 
L 397.574261 -183.00075 
L 411.006985 -180.766165 
L 421.11754 -178.531581 
L 426.291758 -176.296996 
L 426.730312 -174.062412 
L 422.635884 -171.827827 
L 416.57477 -169.593242 
L 408.022483 -167.358658 
L 399.726441 -165.124073 
L 391.259104 -162.889489 
L 383.911457 -160.654904 
L 377.610365 -158.420319 
L 372.016185 -156.185735 
L 367.180283 -153.95115 
L 362.89204 -151.716565 
L 359.274223 -149.481981 
L 356.567196 -147.247396 
L 354.172534 -145.012812 
L 352.374123 -142.778227 
L 350.769844 -140.543642 
L 349.631458 -138.309058 
L 348.748348 -136.074473 
L 348.138609 -133.839889 
L 347.675504 -131.605304 
L 347.272477 -129.370719 
L 347.047434 -127.136135 
L 346.800131 -124.90155 
L 346.662378 -122.666966 
L 346.564041 -120.432381 
L 346.437045 -118.197796 
L 346.382031 -115.963212 
L 346.349915 -113.728627 
L 346.310908 -111.494042 
L 346.273479 -109.259458 
L 346.261076 -107.024873 
L 346.257662 -104.790289 
L 346.243022 -102.555704 
L 346.227839 -100.321119 
L 346.226096 -98.086535 
L 346.232957 -95.85195 
L 346.223633 -93.617366 
L 346.224566 -91.382781 
L 346.22143 -89.148196 
L 346.222097 -86.913612 
z
" id="m74691d13cf" style="stroke:#404040;stroke-width:1.5;"/>
    </defs>
    <g clip-path="url(#pbaa95ce928)">
     <use style="fill:#a03434;stroke:#404040;stroke-width:1.5;" x="0" xlink:href="#m74691d13cf" y="338.905312"/>
    </g>
   </g>
   <g id="line2d_10">
    <path clip-path="url(#pbaa95ce928)" d="M 106.684172 182.747119 
L 183.206453 182.747119 
" style="fill:none;stroke:#404040;stroke-dasharray:3.375,3.375;stroke-dashoffset:0;stroke-width:1.5;"/>
   </g>
   <g id="line2d_11">
    <path clip-path="url(#pbaa95ce928)" d="M 87.928011 171.850063 
L 201.962614 171.850063 
" style="fill:none;stroke:#404040;stroke-dasharray:6.75,6.75;stroke-dashoffset:0;stroke-width:1.5;"/>
   </g>
   <g id="line2d_12">
    <path clip-path="url(#pbaa95ce928)" d="M 86.295727 163.287222 
L 203.594898 163.287222 
" style="fill:none;stroke:#404040;stroke-dasharray:3.375,3.375;stroke-dashoffset:0;stroke-width:1.5;"/>
   </g>
   <g id="line2d_13">
    <path clip-path="url(#pbaa95ce928)" d="M 293.249245 174.827901 
L 399.19138 174.827901 
" style="fill:none;stroke:#404040;stroke-dasharray:3.375,3.375;stroke-dashoffset:0;stroke-width:1.5;"/>
   </g>
   <g id="line2d_14">
    <path clip-path="url(#pbaa95ce928)" d="M 270.568897 166.716102 
L 421.871728 166.716102 
" style="fill:none;stroke:#404040;stroke-dasharray:6.75,6.75;stroke-dashoffset:0;stroke-width:1.5;"/>
   </g>
   <g id="line2d_15">
    <path clip-path="url(#pbaa95ce928)" d="M 272.072057 160.113829 
L 420.368568 160.113829 
" style="fill:none;stroke:#404040;stroke-dasharray:3.375,3.375;stroke-dashoffset:0;stroke-width:1.5;"/>
   </g>
   <g id="patch_3">
    <path d="M 44.307813 293.276674 
L 44.307813 47.275765 
" style="fill:none;stroke:#262626;stroke-linecap:square;stroke-linejoin:miter;stroke-width:0.8;"/>
   </g>
   <g id="patch_4">
    <path d="M 144.945312 315.56 
L 346.220312 315.56 
" style="fill:none;stroke:#262626;stroke-linecap:square;stroke-linejoin:miter;stroke-width:0.8;"/>
   </g>
   <g id="text_11">
    <text style="fill:#262626;font-family:Arial;font-size:10px;font-stretch:normal;font-style:normal;font-weight:normal;text-anchor:middle;" transform="rotate(-0, 245.582812, 19.228864)" x="245.582812" y="19.228864">*</text>
   </g>
  </g>
 </g>
 <defs>
  <clipPath id="pbaa95ce928">
   <rect height="308.36" width="402.55" x="44.307813" y="7.2"/>
  </clipPath>
 </defs>
</svg>
