<?xml version="1.0" encoding="utf-8" standalone="no"?>
<!DOCTYPE svg PUBLIC "-//W3C//DTD SVG 1.1//EN"
  "http://www.w3.org/Graphics/SVG/1.1/DTD/svg11.dtd">
<!-- Created with matplotlib (https://matplotlib.org/) -->
<svg height="338.905312pt" version="1.1" viewBox="0 0 454.057812 338.905312" width="454.057812pt" xmlns="http://www.w3.org/2000/svg" xmlns:xlink="http://www.w3.org/1999/xlink">
 <metadata>
  <rdf:RDF xmlns:cc="http://creativecommons.org/ns#" xmlns:dc="http://purl.org/dc/elements/1.1/" xmlns:rdf="http://www.w3.org/1999/02/22-rdf-syntax-ns#">
   <cc:Work>
    <dc:type rdf:resource="http://purl.org/dc/dcmitype/StillImage"/>
    <dc:date>2023-03-28T13:24:55.986978</dc:date>
    <dc:format>image/svg+xml</dc:format>
    <dc:creator>
     <cc:Agent>
      <dc:title>Matplotlib v3.3.4, https://matplotlib.org/</dc:title>
     </cc:Agent>
    </dc:creator>
   </cc:Work>
  </rdf:RDF>
 </metadata>
 <defs>
  <style type="text/css">*{stroke-linecap:butt;stroke-linejoin:round;}</style>
 </defs>
 <g id="figure_1">
  <g id="patch_1">
   <path d="M 0 338.905312 
L 454.057812 338.905312 
L 454.057812 0 
L 0 0 
z
" style="fill:#ffffff;"/>
  </g>
  <g id="axes_1">
   <g id="patch_2">
    <path d="M 44.307813 315.56 
L 446.857813 315.56 
L 446.857813 7.2 
L 44.307813 7.2 
z
" style="fill:#ffffff;"/>
   </g>
   <g id="matplotlib.axis_1">
    <g id="xtick_1">
     <g id="line2d_1">
      <defs>
       <path d="M 0 0 
L 0 3.5 
" id="m7809f2e7cd" style="stroke:#262626;stroke-width:0.8;"/>
      </defs>
      <g>
       <use style="fill:#262626;stroke:#262626;stroke-width:0.8;" x="144.945312" xlink:href="#m7809f2e7cd" y="315.56"/>
      </g>
     </g>
     <g id="text_1">
      <text style="fill:#262626;font-family:Arial;font-size:10px;font-stretch:normal;font-style:normal;font-weight:normal;text-anchor:middle;" transform="rotate(-0, 144.945312, 329.717812)" x="144.945312" y="329.717812">within network</text>
     </g>
    </g>
    <g id="xtick_2">
     <g id="line2d_2">
      <g>
       <use style="fill:#262626;stroke:#262626;stroke-width:0.8;" x="346.220312" xlink:href="#m7809f2e7cd" y="315.56"/>
      </g>
     </g>
     <g id="text_2">
      <text style="fill:#262626;font-family:Arial;font-size:10px;font-stretch:normal;font-style:normal;font-weight:normal;text-anchor:middle;" transform="rotate(-0, 346.220312, 329.717812)" x="346.220312" y="329.717812">between network</text>
     </g>
    </g>
   </g>
   <g id="matplotlib.axis_2">
    <g id="ytick_1">
     <g id="line2d_3">
      <defs>
       <path d="M 0 0 
L -3.5 0 
" id="m7984118b87" style="stroke:#262626;stroke-width:0.8;"/>
      </defs>
      <g>
       <use style="fill:#262626;stroke:#262626;stroke-width:0.8;" x="44.307813" xlink:href="#m7984118b87" y="310.514358"/>
      </g>
     </g>
     <g id="text_3">
      <text style="fill:#262626;font-family:Arial;font-size:10px;font-stretch:normal;font-style:normal;font-weight:normal;text-anchor:end;" transform="rotate(-0, 37.307813, 314.093264)" x="37.307813" y="314.093264">−60</text>
     </g>
    </g>
    <g id="ytick_2">
     <g id="line2d_4">
      <g>
       <use style="fill:#262626;stroke:#262626;stroke-width:0.8;" x="44.307813" xlink:href="#m7984118b87" y="273.509302"/>
      </g>
     </g>
     <g id="text_4">
      <text style="fill:#262626;font-family:Arial;font-size:10px;font-stretch:normal;font-style:normal;font-weight:normal;text-anchor:end;" transform="rotate(-0, 37.307813, 277.088208)" x="37.307813" y="277.088208">−50</text>
     </g>
    </g>
    <g id="ytick_3">
     <g id="line2d_5">
      <g>
       <use style="fill:#262626;stroke:#262626;stroke-width:0.8;" x="44.307813" xlink:href="#m7984118b87" y="236.504246"/>
      </g>
     </g>
     <g id="text_5">
      <text style="fill:#262626;font-family:Arial;font-size:10px;font-stretch:normal;font-style:normal;font-weight:normal;text-anchor:end;" transform="rotate(-0, 37.307813, 240.083152)" x="37.307813" y="240.083152">−40</text>
     </g>
    </g>
    <g id="ytick_4">
     <g id="line2d_6">
      <g>
       <use style="fill:#262626;stroke:#262626;stroke-width:0.8;" x="44.307813" xlink:href="#m7984118b87" y="199.49919"/>
      </g>
     </g>
     <g id="text_6">
      <text style="fill:#262626;font-family:Arial;font-size:10px;font-stretch:normal;font-style:normal;font-weight:normal;text-anchor:end;" transform="rotate(-0, 37.307813, 203.078096)" x="37.307813" y="203.078096">−30</text>
     </g>
    </g>
    <g id="ytick_5">
     <g id="line2d_7">
      <g>
       <use style="fill:#262626;stroke:#262626;stroke-width:0.8;" x="44.307813" xlink:href="#m7984118b87" y="162.494134"/>
      </g>
     </g>
     <g id="text_7">
      <text style="fill:#262626;font-family:Arial;font-size:10px;font-stretch:normal;font-style:normal;font-weight:normal;text-anchor:end;" transform="rotate(-0, 37.307813, 166.07304)" x="37.307813" y="166.07304">−20</text>
     </g>
    </g>
    <g id="ytick_6">
     <g id="line2d_8">
      <g>
       <use style="fill:#262626;stroke:#262626;stroke-width:0.8;" x="44.307813" xlink:href="#m7984118b87" y="125.489078"/>
      </g>
     </g>
     <g id="text_8">
      <text style="fill:#262626;font-family:Arial;font-size:10px;font-stretch:normal;font-style:normal;font-weight:normal;text-anchor:end;" transform="rotate(-0, 37.307813, 129.067984)" x="37.307813" y="129.067984">−10</text>
     </g>
    </g>
    <g id="ytick_7">
     <g id="line2d_9">
      <g>
       <use style="fill:#262626;stroke:#262626;stroke-width:0.8;" x="44.307813" xlink:href="#m7984118b87" y="88.484021"/>
      </g>
     </g>
     <g id="text_9">
      <text style="fill:#262626;font-family:Arial;font-size:10px;font-stretch:normal;font-style:normal;font-weight:normal;text-anchor:end;" transform="rotate(-0, 37.307813, 92.062928)" x="37.307813" y="92.062928">0</text>
     </g>
    </g>
    <g id="ytick_8">
     <g id="line2d_10">
      <g>
       <use style="fill:#262626;stroke:#262626;stroke-width:0.8;" x="44.307813" xlink:href="#m7984118b87" y="51.478965"/>
      </g>
     </g>
     <g id="text_10">
      <text style="fill:#262626;font-family:Arial;font-size:10px;font-stretch:normal;font-style:normal;font-weight:normal;text-anchor:end;" transform="rotate(-0, 37.307813, 55.057872)" x="37.307813" y="55.057872">10</text>
     </g>
    </g>
    <g id="ytick_9">
     <g id="line2d_11">
      <g>
       <use style="fill:#262626;stroke:#262626;stroke-width:0.8;" x="44.307813" xlink:href="#m7984118b87" y="14.473909"/>
      </g>
     </g>
     <g id="text_11">
      <text style="fill:#262626;font-family:Arial;font-size:10px;font-stretch:normal;font-style:normal;font-weight:normal;text-anchor:end;" transform="rotate(-0, 37.307813, 18.052815)" x="37.307813" y="18.052815">20</text>
     </g>
    </g>
    <g id="text_12">
     <text style="fill:#262626;font-family:Arial;font-size:10px;font-stretch:normal;font-style:normal;font-weight:normal;text-anchor:middle;" transform="rotate(-90, 14.357813, 161.38)" x="14.357813" y="161.38">PC1 score</text>
    </g>
   </g>
   <g id="PolyCollection_1">
    <defs>
     <path d="M 144.94797 -37.361676 
L 144.942655 -37.361676 
L 144.94488 -40.193265 
L 144.939563 -43.024853 
L 144.94529 -45.856442 
L 144.945312 -48.688031 
L 144.945211 -51.519619 
L 144.943736 -54.351208 
L 144.945312 -57.182796 
L 144.945312 -60.014385 
L 144.945312 -62.845974 
L 144.945312 -65.677562 
L 144.945225 -68.509151 
L 144.943543 -71.340739 
L 144.943747 -74.172328 
L 144.945312 -77.003917 
L 144.945217 -79.835505 
L 144.943695 -82.667094 
L 144.945312 -85.498683 
L 144.945312 -88.330271 
L 144.945312 -91.16186 
L 144.945312 -93.993448 
L 144.945312 -96.825037 
L 144.945312 -99.656626 
L 144.945312 -102.488214 
L 144.945312 -105.319803 
L 144.945312 -108.151391 
L 144.945311 -110.98298 
L 144.942728 -113.814569 
L 144.945302 -116.646157 
L 144.943544 -119.477746 
L 144.940374 -122.309335 
L 144.943885 -125.140923 
L 144.945182 -127.972512 
L 144.943896 -130.8041 
L 144.945312 -133.635689 
L 144.945312 -136.467278 
L 144.944717 -139.298866 
L 144.944797 -142.130455 
L 144.940457 -144.962043 
L 144.945259 -147.793632 
L 144.943159 -150.625221 
L 144.94377 -153.456809 
L 144.943438 -156.288398 
L 144.942947 -159.119987 
L 144.940884 -161.951575 
L 144.94225 -164.783164 
L 144.944919 -167.614752 
L 144.930898 -170.446341 
L 144.938347 -173.27793 
L 144.931137 -176.109518 
L 144.928803 -178.941107 
L 144.924928 -181.772695 
L 144.904291 -184.604284 
L 144.893971 -187.435873 
L 144.899312 -190.267461 
L 144.876357 -193.09905 
L 144.865667 -195.930638 
L 144.839652 -198.762227 
L 144.793171 -201.593816 
L 144.751476 -204.425404 
L 144.620277 -207.256993 
L 144.495773 -210.088582 
L 144.209011 -212.92017 
L 143.866647 -215.751759 
L 143.420944 -218.583347 
L 142.822569 -221.414936 
L 142.35628 -224.246525 
L 141.395981 -227.078113 
L 139.806813 -229.909702 
L 137.918849 -232.74129 
L 134.724993 -235.572879 
L 130.214971 -238.404468 
L 122.486529 -241.236056 
L 110.466163 -244.067645 
L 99.896968 -246.899234 
L 90.752979 -249.730822 
L 85.626985 -252.562411 
L 98.260808 -255.393999 
L 124.823003 -258.225588 
L 140.757122 -261.057177 
L 144.542505 -263.888765 
L 144.888381 -266.720354 
L 144.939872 -269.551942 
L 144.943369 -272.383531 
L 144.945312 -275.21512 
L 144.945145 -278.046708 
L 144.943863 -280.878297 
L 144.942054 -283.709886 
L 144.945312 -286.541474 
L 144.945312 -289.373063 
L 144.945312 -292.204651 
L 144.945312 -295.03624 
L 144.945161 -297.867829 
L 144.939129 -300.699417 
L 144.937277 -303.531006 
L 144.935397 -306.362594 
L 144.945294 -309.194183 
L 144.945219 -312.025772 
L 144.943662 -314.85736 
L 144.940293 -317.688949 
L 144.950332 -317.688949 
L 144.950332 -317.688949 
L 144.946963 -314.85736 
L 144.945406 -312.025772 
L 144.945331 -309.194183 
L 144.955228 -306.362594 
L 144.953348 -303.531006 
L 144.951496 -300.699417 
L 144.945464 -297.867829 
L 144.945313 -295.03624 
L 144.945312 -292.204651 
L 144.945312 -289.373063 
L 144.945313 -286.541474 
L 144.948571 -283.709886 
L 144.946762 -280.878297 
L 144.94548 -278.046708 
L 144.945313 -275.21512 
L 144.947256 -272.383531 
L 144.950753 -269.551942 
L 145.002244 -266.720354 
L 145.34812 -263.888765 
L 149.133503 -261.057177 
L 165.067622 -258.225588 
L 191.629817 -255.393999 
L 204.26364 -252.562411 
L 199.137646 -249.730822 
L 189.993657 -246.899234 
L 179.424462 -244.067645 
L 167.404096 -241.236056 
L 159.675654 -238.404468 
L 155.165632 -235.572879 
L 151.971776 -232.74129 
L 150.083812 -229.909702 
L 148.494644 -227.078113 
L 147.534345 -224.246525 
L 147.068056 -221.414936 
L 146.469681 -218.583347 
L 146.023978 -215.751759 
L 145.681614 -212.92017 
L 145.394852 -210.088582 
L 145.270348 -207.256993 
L 145.139149 -204.425404 
L 145.097454 -201.593816 
L 145.050973 -198.762227 
L 145.024958 -195.930638 
L 145.014268 -193.09905 
L 144.991313 -190.267461 
L 144.996654 -187.435873 
L 144.986334 -184.604284 
L 144.965697 -181.772695 
L 144.961822 -178.941107 
L 144.959488 -176.109518 
L 144.952278 -173.27793 
L 144.959727 -170.446341 
L 144.945706 -167.614752 
L 144.948375 -164.783164 
L 144.949741 -161.951575 
L 144.947678 -159.119987 
L 144.947187 -156.288398 
L 144.946855 -153.456809 
L 144.947466 -150.625221 
L 144.945366 -147.793632 
L 144.950168 -144.962043 
L 144.945828 -142.130455 
L 144.945908 -139.298866 
L 144.945313 -136.467278 
L 144.945313 -133.635689 
L 144.946729 -130.8041 
L 144.945443 -127.972512 
L 144.94674 -125.140923 
L 144.950251 -122.309335 
L 144.947081 -119.477746 
L 144.945323 -116.646157 
L 144.947897 -113.814569 
L 144.945314 -110.98298 
L 144.945312 -108.151391 
L 144.945312 -105.319803 
L 144.945312 -102.488214 
L 144.945312 -99.656626 
L 144.945312 -96.825037 
L 144.945312 -93.993448 
L 144.945312 -91.16186 
L 144.945312 -88.330271 
L 144.945313 -85.498683 
L 144.94693 -82.667094 
L 144.945408 -79.835505 
L 144.945313 -77.003917 
L 144.946878 -74.172328 
L 144.947082 -71.340739 
L 144.9454 -68.509151 
L 144.945313 -65.677562 
L 144.945312 -62.845974 
L 144.945312 -60.014385 
L 144.945313 -57.182796 
L 144.946889 -54.351208 
L 144.945414 -51.519619 
L 144.945313 -48.688031 
L 144.945335 -45.856442 
L 144.951062 -43.024853 
L 144.945745 -40.193265 
L 144.94797 -37.361676 
z
" id="mc643f7da7f" style="stroke:#404040;stroke-width:1.5;"/>
    </defs>
    <g clip-path="url(#pb46b618251)">
     <use style="fill:#5573cd;stroke:#404040;stroke-width:1.5;" x="0" xlink:href="#mc643f7da7f" y="338.905312"/>
    </g>
   </g>
   <g id="PolyCollection_2">
    <defs>
     <path d="M 346.222171 -183.766239 
L 346.218454 -183.766239 
L 346.220224 -185.075454 
L 346.220312 -186.38467 
L 346.220312 -187.693885 
L 346.218759 -189.003101 
L 346.219075 -190.312316 
L 346.218989 -191.621532 
L 346.220312 -192.930747 
L 346.220203 -194.239963 
L 346.219229 -195.549178 
L 346.217483 -196.858394 
L 346.215636 -198.167609 
L 346.212508 -199.476825 
L 346.214802 -200.78604 
L 346.214753 -202.095256 
L 346.21142 -203.404471 
L 346.208303 -204.713687 
L 346.20598 -206.022902 
L 346.211023 -207.332117 
L 346.202955 -208.641333 
L 346.203292 -209.950548 
L 346.193381 -211.259764 
L 346.180189 -212.568979 
L 346.170186 -213.878195 
L 346.166022 -215.18741 
L 346.132477 -216.496626 
L 346.125079 -217.805841 
L 346.115954 -219.115057 
L 346.063794 -220.424272 
L 346.006857 -221.733488 
L 345.978079 -223.042703 
L 345.915071 -224.351919 
L 345.775674 -225.661134 
L 345.694368 -226.970349 
L 345.519948 -228.279565 
L 345.339735 -229.58878 
L 345.084688 -230.897996 
L 344.748879 -232.207211 
L 344.248796 -233.516427 
L 343.590973 -234.825642 
L 342.666915 -236.134858 
L 341.360192 -237.444073 
L 339.330557 -238.753289 
L 336.921604 -240.062504 
L 333.760076 -241.37172 
L 329.488393 -242.680935 
L 324.083224 -243.990151 
L 317.577115 -245.299366 
L 310.004108 -246.608582 
L 300.624154 -247.917797 
L 289.684872 -249.227012 
L 278.518727 -250.536228 
L 270.208599 -251.845443 
L 265.710312 -253.154659 
L 268.843487 -254.463874 
L 280.256139 -255.77309 
L 297.617998 -257.082305 
L 315.268064 -258.391521 
L 329.825359 -259.700736 
L 338.82133 -261.009952 
L 343.418641 -262.319167 
L 345.319822 -263.628383 
L 345.942379 -264.937598 
L 346.147681 -266.246814 
L 346.182341 -267.556029 
L 346.201504 -268.865245 
L 346.216877 -270.17446 
L 346.216728 -271.483675 
L 346.219096 -272.792891 
L 346.218563 -274.102106 
L 346.218071 -275.411322 
L 346.218899 -276.720537 
L 346.219701 -278.029753 
L 346.219058 -279.338968 
L 346.218574 -280.648184 
L 346.219928 -281.957399 
L 346.217194 -283.266615 
L 346.22022 -284.57583 
L 346.217912 -285.885046 
L 346.219984 -287.194261 
L 346.217174 -288.503477 
L 346.219053 -289.812692 
L 346.219259 -291.121907 
L 346.220297 -292.431123 
L 346.215326 -293.740338 
L 346.218911 -295.049554 
L 346.220157 -296.358769 
L 346.217463 -297.667985 
L 346.217618 -298.9772 
L 346.220112 -300.286416 
L 346.216199 -301.595631 
L 346.217915 -302.904847 
L 346.215686 -304.214062 
L 346.214507 -305.523278 
L 346.209287 -306.832493 
L 346.211517 -308.141709 
L 346.217095 -309.450924 
L 346.216007 -310.76014 
L 346.217855 -312.069355 
L 346.218419 -313.37857 
L 346.222206 -313.37857 
L 346.222206 -313.37857 
L 346.22277 -312.069355 
L 346.224618 -310.76014 
L 346.22353 -309.450924 
L 346.229108 -308.141709 
L 346.231338 -306.832493 
L 346.226118 -305.523278 
L 346.224939 -304.214062 
L 346.22271 -302.904847 
L 346.224426 -301.595631 
L 346.220513 -300.286416 
L 346.223007 -298.9772 
L 346.223162 -297.667985 
L 346.220468 -296.358769 
L 346.221714 -295.049554 
L 346.225299 -293.740338 
L 346.220328 -292.431123 
L 346.221366 -291.121907 
L 346.221572 -289.812692 
L 346.223451 -288.503477 
L 346.220641 -287.194261 
L 346.222713 -285.885046 
L 346.220405 -284.57583 
L 346.223431 -283.266615 
L 346.220697 -281.957399 
L 346.222051 -280.648184 
L 346.221567 -279.338968 
L 346.220924 -278.029753 
L 346.221726 -276.720537 
L 346.222554 -275.411322 
L 346.222062 -274.102106 
L 346.221529 -272.792891 
L 346.223897 -271.483675 
L 346.223748 -270.17446 
L 346.239121 -268.865245 
L 346.258284 -267.556029 
L 346.292944 -266.246814 
L 346.498246 -264.937598 
L 347.120803 -263.628383 
L 349.021984 -262.319167 
L 353.619295 -261.009952 
L 362.615266 -259.700736 
L 377.172561 -258.391521 
L 394.822627 -257.082305 
L 412.184486 -255.77309 
L 423.597138 -254.463874 
L 426.730312 -253.154659 
L 422.232026 -251.845443 
L 413.921898 -250.536228 
L 402.755753 -249.227012 
L 391.816471 -247.917797 
L 382.436517 -246.608582 
L 374.86351 -245.299366 
L 368.357401 -243.990151 
L 362.952232 -242.680935 
L 358.680549 -241.37172 
L 355.519021 -240.062504 
L 353.110068 -238.753289 
L 351.080433 -237.444073 
L 349.77371 -236.134858 
L 348.849652 -234.825642 
L 348.191829 -233.516427 
L 347.691746 -232.207211 
L 347.355937 -230.897996 
L 347.10089 -229.58878 
L 346.920677 -228.279565 
L 346.746257 -226.970349 
L 346.664951 -225.661134 
L 346.525554 -224.351919 
L 346.462546 -223.042703 
L 346.433768 -221.733488 
L 346.376831 -220.424272 
L 346.324671 -219.115057 
L 346.315546 -217.805841 
L 346.308148 -216.496626 
L 346.274603 -215.18741 
L 346.270439 -213.878195 
L 346.260436 -212.568979 
L 346.247244 -211.259764 
L 346.237333 -209.950548 
L 346.23767 -208.641333 
L 346.229602 -207.332117 
L 346.234645 -206.022902 
L 346.232322 -204.713687 
L 346.229205 -203.404471 
L 346.225872 -202.095256 
L 346.225823 -200.78604 
L 346.228117 -199.476825 
L 346.224989 -198.167609 
L 346.223142 -196.858394 
L 346.221396 -195.549178 
L 346.220422 -194.239963 
L 346.220313 -192.930747 
L 346.221636 -191.621532 
L 346.22155 -190.312316 
L 346.221866 -189.003101 
L 346.220313 -187.693885 
L 346.220313 -186.38467 
L 346.220401 -185.075454 
L 346.222171 -183.766239 
z
" id="m13a0331a35" style="stroke:#404040;stroke-width:1.5;"/>
    </defs>
    <g clip-path="url(#pb46b618251)">
     <use style="fill:#a03434;stroke:#404040;stroke-width:1.5;" x="0" xlink:href="#m13a0331a35" y="338.905312"/>
    </g>
   </g>
   <g id="line2d_12">
    <path clip-path="url(#pb46b618251)" d="M 110.810954 95.222071 
L 179.079671 95.222071 
" style="fill:none;stroke:#404040;stroke-dasharray:3.375,3.375;stroke-dashoffset:0;stroke-width:1.5;"/>
   </g>
   <g id="line2d_13">
    <path clip-path="url(#pb46b618251)" d="M 91.294902 89.687095 
L 198.595723 89.687095 
" style="fill:none;stroke:#404040;stroke-dasharray:6.75,6.75;stroke-dashoffset:0;stroke-width:1.5;"/>
   </g>
   <g id="line2d_14">
    <path clip-path="url(#pb46b618251)" d="M 86.220168 85.557129 
L 203.670457 85.557129 
" style="fill:none;stroke:#404040;stroke-dasharray:3.375,3.375;stroke-dashoffset:0;stroke-width:1.5;"/>
   </g>
   <g id="line2d_15">
    <path clip-path="url(#pb46b618251)" d="M 301.080115 90.742893 
L 391.36051 90.742893 
" style="fill:none;stroke:#404040;stroke-dasharray:3.375,3.375;stroke-dashoffset:0;stroke-width:1.5;"/>
   </g>
   <g id="line2d_16">
    <path clip-path="url(#pb46b618251)" d="M 270.968716 86.963366 
L 421.471909 86.963366 
" style="fill:none;stroke:#404040;stroke-dasharray:6.75,6.75;stroke-dashoffset:0;stroke-width:1.5;"/>
   </g>
   <g id="line2d_17">
    <path clip-path="url(#pb46b618251)" d="M 269.617255 83.942544 
L 422.82337 83.942544 
" style="fill:none;stroke:#404040;stroke-dasharray:3.375,3.375;stroke-dashoffset:0;stroke-width:1.5;"/>
   </g>
   <g id="patch_3">
    <path d="M 44.307813 310.514358 
L 44.307813 14.473909 
" style="fill:none;stroke:#262626;stroke-linecap:square;stroke-linejoin:miter;stroke-width:0.8;"/>
   </g>
   <g id="patch_4">
    <path d="M 144.945312 315.56 
L 346.220312 315.56 
" style="fill:none;stroke:#262626;stroke-linecap:square;stroke-linejoin:miter;stroke-width:0.8;"/>
   </g>
   <g id="text_13">
    <text style="fill:#262626;font-family:Arial;font-size:10px;font-stretch:normal;font-style:normal;font-weight:normal;text-anchor:middle;" transform="rotate(-0, 245.582812, 19.228864)" x="245.582812" y="19.228864">*</text>
   </g>
  </g>
 </g>
 <defs>
  <clipPath id="pb46b618251">
   <rect height="308.36" width="402.55" x="44.307813" y="7.2"/>
  </clipPath>
 </defs>
</svg>
