<?xml version="1.0" encoding="utf-8" standalone="no"?>
<!DOCTYPE svg PUBLIC "-//W3C//DTD SVG 1.1//EN"
  "http://www.w3.org/Graphics/SVG/1.1/DTD/svg11.dtd">
<!-- Created with matplotlib (https://matplotlib.org/) -->
<svg height="338.905312pt" version="1.1" viewBox="0 0 453.8825 338.905312" width="453.8825pt" xmlns="http://www.w3.org/2000/svg" xmlns:xlink="http://www.w3.org/1999/xlink">
 <metadata>
  <rdf:RDF xmlns:cc="http://creativecommons.org/ns#" xmlns:dc="http://purl.org/dc/elements/1.1/" xmlns:rdf="http://www.w3.org/1999/02/22-rdf-syntax-ns#">
   <cc:Work>
    <dc:type rdf:resource="http://purl.org/dc/dcmitype/StillImage"/>
    <dc:date>2023-01-31T15:43:21.178041</dc:date>
    <dc:format>image/svg+xml</dc:format>
    <dc:creator>
     <cc:Agent>
      <dc:title>Matplotlib v3.3.4, https://matplotlib.org/</dc:title>
     </cc:Agent>
    </dc:creator>
   </cc:Work>
  </rdf:RDF>
 </metadata>
 <defs>
  <style type="text/css">*{stroke-linecap:butt;stroke-linejoin:round;}</style>
 </defs>
 <g id="figure_1">
  <g id="patch_1">
   <path d="M 0 338.905312 
L 453.8825 338.905312 
L 453.8825 0 
L 0 0 
z
" style="fill:#ffffff;"/>
  </g>
  <g id="axes_1">
   <g id="patch_2">
    <path d="M 44.425 315.56 
L 446.6825 315.56 
L 446.6825 7.2 
L 44.425 7.2 
z
" style="fill:#ffffff;"/>
   </g>
   <g id="matplotlib.axis_1">
    <g id="xtick_1">
     <g id="line2d_1">
      <defs>
       <path d="M 0 0 
L 0 3.5 
" id="m948f37b891" style="stroke:#262626;stroke-width:0.8;"/>
      </defs>
      <g>
       <use style="fill:#262626;stroke:#262626;stroke-width:0.8;" x="144.989375" xlink:href="#m948f37b891" y="315.56"/>
      </g>
     </g>
     <g id="text_1">
      <text style="fill:#262626;font-family:Arial;font-size:10px;font-stretch:normal;font-style:normal;font-weight:normal;text-anchor:middle;" transform="rotate(-0, 144.989375, 329.717812)" x="144.989375" y="329.717812">within network</text>
     </g>
    </g>
    <g id="xtick_2">
     <g id="line2d_2">
      <g>
       <use style="fill:#262626;stroke:#262626;stroke-width:0.8;" x="346.118125" xlink:href="#m948f37b891" y="315.56"/>
      </g>
     </g>
     <g id="text_2">
      <text style="fill:#262626;font-family:Arial;font-size:10px;font-stretch:normal;font-style:normal;font-weight:normal;text-anchor:middle;" transform="rotate(-0, 346.118125, 329.717812)" x="346.118125" y="329.717812">between network</text>
     </g>
    </g>
   </g>
   <g id="matplotlib.axis_2">
    <g id="ytick_1">
     <g id="line2d_3">
      <defs>
       <path d="M 0 0 
L -3.5 0 
" id="m48f5cc7016" style="stroke:#262626;stroke-width:0.8;"/>
      </defs>
      <g>
       <use style="fill:#262626;stroke:#262626;stroke-width:0.8;" x="44.425" xlink:href="#m48f5cc7016" y="293.276674"/>
      </g>
     </g>
     <g id="text_3">
      <text style="fill:#262626;font-family:Arial;font-size:10px;font-stretch:normal;font-style:normal;font-weight:normal;text-anchor:end;" transform="rotate(-0, 37.425, 296.85558)" x="37.425" y="296.85558">−15</text>
     </g>
    </g>
    <g id="ytick_2">
     <g id="line2d_4">
      <g>
       <use style="fill:#262626;stroke:#262626;stroke-width:0.8;" x="44.425" xlink:href="#m48f5cc7016" y="252.276522"/>
      </g>
     </g>
     <g id="text_4">
      <text style="fill:#262626;font-family:Arial;font-size:10px;font-stretch:normal;font-style:normal;font-weight:normal;text-anchor:end;" transform="rotate(-0, 37.425, 255.855429)" x="37.425" y="255.855429">−10</text>
     </g>
    </g>
    <g id="ytick_3">
     <g id="line2d_5">
      <g>
       <use style="fill:#262626;stroke:#262626;stroke-width:0.8;" x="44.425" xlink:href="#m48f5cc7016" y="211.276371"/>
      </g>
     </g>
     <g id="text_5">
      <text style="fill:#262626;font-family:Arial;font-size:10px;font-stretch:normal;font-style:normal;font-weight:normal;text-anchor:end;" transform="rotate(-0, 37.425, 214.855277)" x="37.425" y="214.855277">−5</text>
     </g>
    </g>
    <g id="ytick_4">
     <g id="line2d_6">
      <g>
       <use style="fill:#262626;stroke:#262626;stroke-width:0.8;" x="44.425" xlink:href="#m48f5cc7016" y="170.276219"/>
      </g>
     </g>
     <g id="text_6">
      <text style="fill:#262626;font-family:Arial;font-size:10px;font-stretch:normal;font-style:normal;font-weight:normal;text-anchor:end;" transform="rotate(-0, 37.425, 173.855126)" x="37.425" y="173.855126">0</text>
     </g>
    </g>
    <g id="ytick_5">
     <g id="line2d_7">
      <g>
       <use style="fill:#262626;stroke:#262626;stroke-width:0.8;" x="44.425" xlink:href="#m48f5cc7016" y="129.276068"/>
      </g>
     </g>
     <g id="text_7">
      <text style="fill:#262626;font-family:Arial;font-size:10px;font-stretch:normal;font-style:normal;font-weight:normal;text-anchor:end;" transform="rotate(-0, 37.425, 132.854974)" x="37.425" y="132.854974">5</text>
     </g>
    </g>
    <g id="ytick_6">
     <g id="line2d_8">
      <g>
       <use style="fill:#262626;stroke:#262626;stroke-width:0.8;" x="44.425" xlink:href="#m48f5cc7016" y="88.275916"/>
      </g>
     </g>
     <g id="text_8">
      <text style="fill:#262626;font-family:Arial;font-size:10px;font-stretch:normal;font-style:normal;font-weight:normal;text-anchor:end;" transform="rotate(-0, 37.425, 91.854823)" x="37.425" y="91.854823">10</text>
     </g>
    </g>
    <g id="ytick_7">
     <g id="line2d_9">
      <g>
       <use style="fill:#262626;stroke:#262626;stroke-width:0.8;" x="44.425" xlink:href="#m48f5cc7016" y="47.275765"/>
      </g>
     </g>
     <g id="text_9">
      <text style="fill:#262626;font-family:Arial;font-size:10px;font-stretch:normal;font-style:normal;font-weight:normal;text-anchor:end;" transform="rotate(-0, 37.425, 50.854671)" x="37.425" y="50.854671">15</text>
     </g>
    </g>
    <g id="text_10">
     <text style="fill:#262626;font-family:Arial;font-size:10px;font-stretch:normal;font-style:normal;font-weight:normal;text-anchor:middle;" transform="rotate(-90, 14.357813, 161.38)" x="14.357813" y="161.38">standardized shortest path length</text>
    </g>
   </g>
   <g id="PolyCollection_1">
    <defs>
     <path d="M 144.99298 -37.361676 
L 144.98577 -37.361676 
L 144.988909 -40.193265 
L 144.98664 -43.024853 
L 144.985452 -45.856442 
L 144.9876 -48.688031 
L 144.986973 -51.519619 
L 144.983438 -54.351208 
L 144.98903 -57.182796 
L 144.986728 -60.014385 
L 144.987379 -62.845974 
L 144.981421 -65.677562 
L 144.974415 -68.509151 
L 144.973521 -71.340739 
L 144.97658 -74.172328 
L 144.97746 -77.003917 
L 144.974783 -79.835505 
L 144.972086 -82.667094 
L 144.969476 -85.498683 
L 144.951367 -88.330271 
L 144.939034 -91.16186 
L 144.920432 -93.993448 
L 144.873354 -96.825037 
L 144.801608 -99.656626 
L 144.671844 -102.488214 
L 144.546248 -105.319803 
L 144.430525 -108.151391 
L 144.112292 -110.98298 
L 143.833411 -113.814569 
L 143.331966 -116.646157 
L 142.57546 -119.477746 
L 141.86417 -122.309335 
L 141.109523 -125.140923 
L 140.230626 -127.972512 
L 139.020606 -130.8041 
L 137.420192 -133.635689 
L 135.680514 -136.467278 
L 133.594239 -139.298866 
L 130.994965 -142.130455 
L 127.395012 -144.962043 
L 123.183804 -147.793632 
L 118.027895 -150.625221 
L 111.290482 -153.456809 
L 106.369841 -156.288398 
L 100.557405 -159.119987 
L 96.396937 -161.951575 
L 91.967488 -164.783164 
L 87.43799 -167.614752 
L 83.833996 -170.446341 
L 82.445875 -173.27793 
L 85.790415 -176.109518 
L 93.254508 -178.941107 
L 105.031204 -181.772695 
L 118.53692 -184.604284 
L 129.751865 -187.435873 
L 137.404259 -190.267461 
L 141.946595 -193.09905 
L 143.978594 -195.930638 
L 144.633032 -198.762227 
L 144.872975 -201.593816 
L 144.92437 -204.425404 
L 144.965235 -207.256993 
L 144.983517 -210.088582 
L 144.983439 -212.92017 
L 144.983917 -215.751759 
L 144.989199 -218.583347 
L 144.989375 -221.414936 
L 144.989375 -224.246525 
L 144.989375 -227.078113 
L 144.989335 -229.909702 
L 144.986985 -232.74129 
L 144.987581 -235.572879 
L 144.987508 -238.404468 
L 144.982875 -241.236056 
L 144.989046 -244.067645 
L 144.989375 -246.899234 
L 144.989375 -249.730822 
L 144.989375 -252.562411 
L 144.989375 -255.393999 
L 144.989375 -258.225588 
L 144.989375 -261.057177 
L 144.989375 -263.888765 
L 144.989375 -266.720354 
L 144.989375 -269.551942 
L 144.989375 -272.383531 
L 144.98895 -275.21512 
L 144.982783 -278.046708 
L 144.983194 -280.878297 
L 144.981916 -283.709886 
L 144.980275 -286.541474 
L 144.982183 -289.373063 
L 144.976816 -292.204651 
L 144.987072 -295.03624 
L 144.989364 -297.867829 
L 144.989375 -300.699417 
L 144.989375 -303.531006 
L 144.989194 -306.362594 
L 144.98599 -309.194183 
L 144.988571 -312.025772 
L 144.98773 -314.85736 
L 144.982814 -317.688949 
L 144.995936 -317.688949 
L 144.995936 -317.688949 
L 144.99102 -314.85736 
L 144.990179 -312.025772 
L 144.99276 -309.194183 
L 144.989556 -306.362594 
L 144.989375 -303.531006 
L 144.989375 -300.699417 
L 144.989386 -297.867829 
L 144.991678 -295.03624 
L 145.001934 -292.204651 
L 144.996567 -289.373063 
L 144.998475 -286.541474 
L 144.996834 -283.709886 
L 144.995556 -280.878297 
L 144.995967 -278.046708 
L 144.9898 -275.21512 
L 144.989375 -272.383531 
L 144.989375 -269.551942 
L 144.989375 -266.720354 
L 144.989375 -263.888765 
L 144.989375 -261.057177 
L 144.989375 -258.225588 
L 144.989375 -255.393999 
L 144.989375 -252.562411 
L 144.989375 -249.730822 
L 144.989375 -246.899234 
L 144.989704 -244.067645 
L 144.995875 -241.236056 
L 144.991242 -238.404468 
L 144.991169 -235.572879 
L 144.991765 -232.74129 
L 144.989415 -229.909702 
L 144.989375 -227.078113 
L 144.989375 -224.246525 
L 144.989375 -221.414936 
L 144.989551 -218.583347 
L 144.994833 -215.751759 
L 144.995311 -212.92017 
L 144.995233 -210.088582 
L 145.013515 -207.256993 
L 145.05438 -204.425404 
L 145.105775 -201.593816 
L 145.345718 -198.762227 
L 146.000156 -195.930638 
L 148.032155 -193.09905 
L 152.574491 -190.267461 
L 160.226885 -187.435873 
L 171.44183 -184.604284 
L 184.947546 -181.772695 
L 196.724242 -178.941107 
L 204.188335 -176.109518 
L 207.532875 -173.27793 
L 206.144754 -170.446341 
L 202.54076 -167.614752 
L 198.011262 -164.783164 
L 193.581813 -161.951575 
L 189.421345 -159.119987 
L 183.608909 -156.288398 
L 178.688268 -153.456809 
L 171.950855 -150.625221 
L 166.794946 -147.793632 
L 162.583738 -144.962043 
L 158.983785 -142.130455 
L 156.384511 -139.298866 
L 154.298236 -136.467278 
L 152.558558 -133.635689 
L 150.958144 -130.8041 
L 149.748124 -127.972512 
L 148.869227 -125.140923 
L 148.11458 -122.309335 
L 147.40329 -119.477746 
L 146.646784 -116.646157 
L 146.145339 -113.814569 
L 145.866458 -110.98298 
L 145.548225 -108.151391 
L 145.432502 -105.319803 
L 145.306906 -102.488214 
L 145.177142 -99.656626 
L 145.105396 -96.825037 
L 145.058318 -93.993448 
L 145.039716 -91.16186 
L 145.027383 -88.330271 
L 145.009274 -85.498683 
L 145.006664 -82.667094 
L 145.003967 -79.835505 
L 145.00129 -77.003917 
L 145.00217 -74.172328 
L 145.005229 -71.340739 
L 145.004335 -68.509151 
L 144.997329 -65.677562 
L 144.991371 -62.845974 
L 144.992022 -60.014385 
L 144.98972 -57.182796 
L 144.995312 -54.351208 
L 144.991777 -51.519619 
L 144.99115 -48.688031 
L 144.993298 -45.856442 
L 144.99211 -43.024853 
L 144.989841 -40.193265 
L 144.99298 -37.361676 
z
" id="mf668ab658c" style="stroke:#404040;stroke-width:1.5;"/>
    </defs>
    <g clip-path="url(#pedd89d607c)">
     <use style="fill:#5573cd;stroke:#404040;stroke-width:1.5;" x="0" xlink:href="#mf668ab658c" y="338.905312"/>
    </g>
   </g>
   <g id="PolyCollection_2">
    <defs>
     <path d="M 346.119909 -86.913612 
L 346.116341 -86.913612 
L 346.117008 -89.148196 
L 346.113874 -91.382781 
L 346.114807 -93.617366 
L 346.105489 -95.85195 
L 346.112345 -98.086535 
L 346.110604 -100.321119 
L 346.095432 -102.555704 
L 346.080803 -104.790289 
L 346.077391 -107.024873 
L 346.064997 -109.259458 
L 346.027595 -111.494042 
L 345.988617 -113.728627 
L 345.956524 -115.963212 
L 345.90155 -118.197796 
L 345.774646 -120.432381 
L 345.676381 -122.666966 
L 345.538728 -124.90155 
L 345.291604 -127.136135 
L 345.066725 -129.370719 
L 344.663991 -131.605304 
L 344.201222 -133.839889 
L 343.591926 -136.074473 
L 342.709458 -138.309058 
L 341.571899 -140.543642 
L 339.968786 -142.778227 
L 338.171682 -145.012812 
L 335.77876 -147.247396 
L 333.0737 -149.481981 
L 329.458511 -151.716565 
L 325.173384 -153.95115 
L 320.340996 -156.185735 
L 314.750881 -158.420319 
L 308.454367 -160.654904 
L 301.11206 -162.889489 
L 292.650875 -165.124073 
L 284.360861 -167.358658 
L 275.814788 -169.593242 
L 269.758079 -171.827827 
L 265.666625 -174.062412 
L 266.10486 -176.296996 
L 271.275319 -178.531581 
L 281.378527 -180.766165 
L 294.801491 -183.00075 
L 308.941932 -185.235335 
L 321.7437 -187.469919 
L 331.738504 -189.704504 
L 338.388834 -191.939088 
L 342.373379 -194.173673 
L 344.440909 -196.408258 
L 345.469348 -198.642842 
L 345.848563 -200.877427 
L 346.02101 -203.112012 
L 346.072427 -205.346596 
L 346.086797 -207.581181 
L 346.100378 -209.815765 
L 346.113893 -212.05035 
L 346.110939 -214.284935 
L 346.117899 -216.519519 
L 346.115464 -218.754104 
L 346.116207 -220.988688 
L 346.116596 -223.223273 
L 346.113641 -225.457858 
L 346.117847 -227.692442 
L 346.11745 -229.927027 
L 346.115619 -232.161611 
L 346.116292 -234.396196 
L 346.117655 -236.630781 
L 346.117459 -238.865365 
L 346.115269 -241.09995 
L 346.117337 -243.334535 
L 346.117706 -245.569119 
L 346.116395 -247.803704 
L 346.117913 -250.038288 
L 346.115031 -252.272873 
L 346.116945 -254.507458 
L 346.117012 -256.742042 
L 346.117177 -258.976627 
L 346.118123 -261.211211 
L 346.116521 -263.445796 
L 346.114146 -265.680381 
L 346.116819 -267.914965 
L 346.118073 -270.14955 
L 346.114984 -272.384135 
L 346.117134 -274.618719 
L 346.115739 -276.853304 
L 346.117965 -279.087888 
L 346.114763 -281.322473 
L 346.114428 -283.557058 
L 346.114747 -285.791642 
L 346.113285 -288.026227 
L 346.11133 -290.260811 
L 346.108835 -292.495396 
L 346.107912 -294.729981 
L 346.110607 -296.964565 
L 346.114803 -299.19915 
L 346.11578 -301.433734 
L 346.114161 -303.668319 
L 346.113853 -305.902904 
L 346.11626 -308.137488 
L 346.11999 -308.137488 
L 346.11999 -308.137488 
L 346.122397 -305.902904 
L 346.122089 -303.668319 
L 346.12047 -301.433734 
L 346.121447 -299.19915 
L 346.125643 -296.964565 
L 346.128338 -294.729981 
L 346.127415 -292.495396 
L 346.12492 -290.260811 
L 346.122965 -288.026227 
L 346.121503 -285.791642 
L 346.121822 -283.557058 
L 346.121487 -281.322473 
L 346.118285 -279.087888 
L 346.120511 -276.853304 
L 346.119116 -274.618719 
L 346.121266 -272.384135 
L 346.118177 -270.14955 
L 346.119431 -267.914965 
L 346.122104 -265.680381 
L 346.119729 -263.445796 
L 346.118127 -261.211211 
L 346.119073 -258.976627 
L 346.119238 -256.742042 
L 346.119305 -254.507458 
L 346.121219 -252.272873 
L 346.118337 -250.038288 
L 346.119855 -247.803704 
L 346.118544 -245.569119 
L 346.118913 -243.334535 
L 346.120981 -241.09995 
L 346.118791 -238.865365 
L 346.118595 -236.630781 
L 346.119958 -234.396196 
L 346.120631 -232.161611 
L 346.1188 -229.927027 
L 346.118403 -227.692442 
L 346.122609 -225.457858 
L 346.119654 -223.223273 
L 346.120043 -220.988688 
L 346.120786 -218.754104 
L 346.118351 -216.519519 
L 346.125311 -214.284935 
L 346.122357 -212.05035 
L 346.135872 -209.815765 
L 346.149453 -207.581181 
L 346.163823 -205.346596 
L 346.21524 -203.112012 
L 346.387687 -200.877427 
L 346.766902 -198.642842 
L 347.795341 -196.408258 
L 349.862871 -194.173673 
L 353.847416 -191.939088 
L 360.497746 -189.704504 
L 370.49255 -187.469919 
L 383.294318 -185.235335 
L 397.434759 -183.00075 
L 410.857723 -180.766165 
L 420.960931 -178.531581 
L 426.13139 -176.296996 
L 426.569625 -174.062412 
L 422.478171 -171.827827 
L 416.421462 -169.593242 
L 407.875389 -167.358658 
L 399.585375 -165.124073 
L 391.12419 -162.889489 
L 383.781883 -160.654904 
L 377.485369 -158.420319 
L 371.895254 -156.185735 
L 367.062866 -153.95115 
L 362.777739 -151.716565 
L 359.16255 -149.481981 
L 356.45749 -147.247396 
L 354.064568 -145.012812 
L 352.267464 -142.778227 
L 350.664351 -140.543642 
L 349.526792 -138.309058 
L 348.644324 -136.074473 
L 348.035028 -133.839889 
L 347.572259 -131.605304 
L 347.169525 -129.370719 
L 346.944646 -127.136135 
L 346.697522 -124.90155 
L 346.559869 -122.666966 
L 346.461604 -120.432381 
L 346.3347 -118.197796 
L 346.279726 -115.963212 
L 346.247633 -113.728627 
L 346.208655 -111.494042 
L 346.171253 -109.259458 
L 346.158859 -107.024873 
L 346.155447 -104.790289 
L 346.140818 -102.555704 
L 346.125646 -100.321119 
L 346.123905 -98.086535 
L 346.130761 -95.85195 
L 346.121443 -93.617366 
L 346.122376 -91.382781 
L 346.119242 -89.148196 
L 346.119909 -86.913612 
z
" id="mcfe6cc5bd7" style="stroke:#404040;stroke-width:1.5;"/>
    </defs>
    <g clip-path="url(#pedd89d607c)">
     <use style="fill:#a03434;stroke:#404040;stroke-width:1.5;" x="0" xlink:href="#mcfe6cc5bd7" y="338.905312"/>
    </g>
   </g>
   <g id="line2d_10">
    <path clip-path="url(#pedd89d607c)" d="M 106.756036 182.747119 
L 183.222714 182.747119 
" style="fill:none;stroke:#404040;stroke-dasharray:3.375,3.375;stroke-dashoffset:0;stroke-width:1.5;"/>
   </g>
   <g id="line2d_11">
    <path clip-path="url(#pedd89d607c)" d="M 88.013504 171.850063 
L 201.965246 171.850063 
" style="fill:none;stroke:#404040;stroke-dasharray:6.75,6.75;stroke-dashoffset:0;stroke-width:1.5;"/>
   </g>
   <g id="line2d_12">
    <path clip-path="url(#pedd89d607c)" d="M 86.382405 163.287222 
L 203.596345 163.287222 
" style="fill:none;stroke:#404040;stroke-dasharray:3.375,3.375;stroke-dashoffset:0;stroke-width:1.5;"/>
   </g>
   <g id="line2d_13">
    <path clip-path="url(#pedd89d607c)" d="M 293.185547 174.827901 
L 399.050703 174.827901 
" style="fill:none;stroke:#404040;stroke-dasharray:3.375,3.375;stroke-dashoffset:0;stroke-width:1.5;"/>
   </g>
   <g id="line2d_14">
    <path clip-path="url(#pedd89d607c)" d="M 270.521679 166.716102 
L 421.714571 166.716102 
" style="fill:none;stroke:#404040;stroke-dasharray:6.75,6.75;stroke-dashoffset:0;stroke-width:1.5;"/>
   </g>
   <g id="line2d_15">
    <path clip-path="url(#pedd89d607c)" d="M 272.023747 160.113829 
L 420.212503 160.113829 
" style="fill:none;stroke:#404040;stroke-dasharray:3.375,3.375;stroke-dashoffset:0;stroke-width:1.5;"/>
   </g>
   <g id="patch_3">
    <path d="M 44.425 293.276674 
L 44.425 47.275765 
" style="fill:none;stroke:#262626;stroke-linecap:square;stroke-linejoin:miter;stroke-width:0.8;"/>
   </g>
   <g id="patch_4">
    <path d="M 144.989375 315.56 
L 346.118125 315.56 
" style="fill:none;stroke:#262626;stroke-linecap:square;stroke-linejoin:miter;stroke-width:0.8;"/>
   </g>
   <g id="text_11">
    <text style="fill:#262626;font-family:Arial;font-size:10px;font-stretch:normal;font-style:normal;font-weight:normal;text-anchor:middle;" transform="rotate(-0, 245.55375, 19.228864)" x="245.55375" y="19.228864">*</text>
   </g>
  </g>
 </g>
 <defs>
  <clipPath id="pedd89d607c">
   <rect height="308.36" width="402.2575" x="44.425" y="7.2"/>
  </clipPath>
 </defs>
</svg>
