<?xml version="1.0" encoding="utf-8" standalone="no"?>
<!DOCTYPE svg PUBLIC "-//W3C//DTD SVG 1.1//EN"
  "http://www.w3.org/Graphics/SVG/1.1/DTD/svg11.dtd">
<svg height="337.998125pt" version="1.1" viewBox="0 0 453.242813 337.998125" width="453.242813pt" xmlns="http://www.w3.org/2000/svg" xmlns:xlink="http://www.w3.org/1999/xlink">
 <metadata>
  <rdf:RDF xmlns:cc="http://creativecommons.org/ns#" xmlns:dc="http://purl.org/dc/elements/1.1/" xmlns:rdf="http://www.w3.org/1999/02/22-rdf-syntax-ns#">
   <cc:Work>
    <dc:type rdf:resource="http://purl.org/dc/dcmitype/StillImage"/>
    <dc:date>2022-09-28T04:23:48.921003</dc:date>
    <dc:format>image/svg+xml</dc:format>
    <dc:creator>
     <cc:Agent>
      <dc:title>Matplotlib v3.4.3, https://matplotlib.org/</dc:title>
     </cc:Agent>
    </dc:creator>
   </cc:Work>
  </rdf:RDF>
 </metadata>
 <defs>
  <style type="text/css">*{stroke-linecap:butt;stroke-linejoin:round;}</style>
 </defs>
 <g id="figure_1">
  <g id="patch_1">
   <path d="M 0 337.998125 
L 453.242813 337.998125 
L 453.242813 0 
L 0 0 
z
" style="fill:#ffffff;"/>
  </g>
  <g id="axes_1">
   <g id="patch_2">
    <path d="M 48.982813 314.12 
L 446.042812 314.12 
L 446.042812 7.2 
L 48.982813 7.2 
z
" style="fill:#ffffff;"/>
   </g>
   <g id="matplotlib.axis_1">
    <g id="xtick_1">
     <g id="line2d_1">
      <defs>
       <path d="M 0 0 
L 0 3.5 
" id="mb2baf53746" style="stroke:#262626;stroke-width:0.8;"/>
      </defs>
      <g>
       <use style="fill:#262626;stroke:#262626;stroke-width:0.8;" x="148.247813" xlink:href="#mb2baf53746" y="314.12"/>
      </g>
     </g>
     <g id="text_1">
      <text style="fill:#262626;font-family:DejaVu Sans;font-size:10px;font-stretch:normal;font-style:normal;font-weight:normal;text-anchor:middle;" transform="rotate(-0, 148.247813, 328.718437)" x="148.247813" y="328.718437">within network</text>
     </g>
    </g>
    <g id="xtick_2">
     <g id="line2d_2">
      <g>
       <use style="fill:#262626;stroke:#262626;stroke-width:0.8;" x="346.777812" xlink:href="#mb2baf53746" y="314.12"/>
      </g>
     </g>
     <g id="text_2">
      <text style="fill:#262626;font-family:DejaVu Sans;font-size:10px;font-stretch:normal;font-style:normal;font-weight:normal;text-anchor:middle;" transform="rotate(-0, 346.777812, 328.718437)" x="346.777812" y="328.718437">between network</text>
     </g>
    </g>
   </g>
   <g id="matplotlib.axis_2">
    <g id="ytick_1">
     <g id="line2d_3">
      <defs>
       <path d="M 0 0 
L -3.5 0 
" id="m820223361a" style="stroke:#262626;stroke-width:0.8;"/>
      </defs>
      <g>
       <use style="fill:#262626;stroke:#262626;stroke-width:0.8;" x="48.982813" xlink:href="#m820223361a" y="291.940734"/>
      </g>
     </g>
     <g id="text_3">
      <text style="fill:#262626;font-family:DejaVu Sans;font-size:10px;font-stretch:normal;font-style:normal;font-weight:normal;text-anchor:end;" transform="rotate(-0, 41.982813, 295.739953)" x="41.982813" y="295.739953">−15</text>
     </g>
    </g>
    <g id="ytick_2">
     <g id="line2d_4">
      <g>
       <use style="fill:#262626;stroke:#262626;stroke-width:0.8;" x="48.982813" xlink:href="#m820223361a" y="251.132048"/>
      </g>
     </g>
     <g id="text_4">
      <text style="fill:#262626;font-family:DejaVu Sans;font-size:10px;font-stretch:normal;font-style:normal;font-weight:normal;text-anchor:end;" transform="rotate(-0, 41.982813, 254.931267)" x="41.982813" y="254.931267">−10</text>
     </g>
    </g>
    <g id="ytick_3">
     <g id="line2d_5">
      <g>
       <use style="fill:#262626;stroke:#262626;stroke-width:0.8;" x="48.982813" xlink:href="#m820223361a" y="210.323362"/>
      </g>
     </g>
     <g id="text_5">
      <text style="fill:#262626;font-family:DejaVu Sans;font-size:10px;font-stretch:normal;font-style:normal;font-weight:normal;text-anchor:end;" transform="rotate(-0, 41.982813, 214.12258)" x="41.982813" y="214.12258">−5</text>
     </g>
    </g>
    <g id="ytick_4">
     <g id="line2d_6">
      <g>
       <use style="fill:#262626;stroke:#262626;stroke-width:0.8;" x="48.982813" xlink:href="#m820223361a" y="169.514675"/>
      </g>
     </g>
     <g id="text_6">
      <text style="fill:#262626;font-family:DejaVu Sans;font-size:10px;font-stretch:normal;font-style:normal;font-weight:normal;text-anchor:end;" transform="rotate(-0, 41.982813, 173.313894)" x="41.982813" y="173.313894">0</text>
     </g>
    </g>
    <g id="ytick_5">
     <g id="line2d_7">
      <g>
       <use style="fill:#262626;stroke:#262626;stroke-width:0.8;" x="48.982813" xlink:href="#m820223361a" y="128.705989"/>
      </g>
     </g>
     <g id="text_7">
      <text style="fill:#262626;font-family:DejaVu Sans;font-size:10px;font-stretch:normal;font-style:normal;font-weight:normal;text-anchor:end;" transform="rotate(-0, 41.982813, 132.505208)" x="41.982813" y="132.505208">5</text>
     </g>
    </g>
    <g id="ytick_6">
     <g id="line2d_8">
      <g>
       <use style="fill:#262626;stroke:#262626;stroke-width:0.8;" x="48.982813" xlink:href="#m820223361a" y="87.897303"/>
      </g>
     </g>
     <g id="text_8">
      <text style="fill:#262626;font-family:DejaVu Sans;font-size:10px;font-stretch:normal;font-style:normal;font-weight:normal;text-anchor:end;" transform="rotate(-0, 41.982813, 91.696521)" x="41.982813" y="91.696521">10</text>
     </g>
    </g>
    <g id="ytick_7">
     <g id="line2d_9">
      <g>
       <use style="fill:#262626;stroke:#262626;stroke-width:0.8;" x="48.982813" xlink:href="#m820223361a" y="47.088616"/>
      </g>
     </g>
     <g id="text_9">
      <text style="fill:#262626;font-family:DejaVu Sans;font-size:10px;font-stretch:normal;font-style:normal;font-weight:normal;text-anchor:end;" transform="rotate(-0, 41.982813, 50.887835)" x="41.982813" y="50.887835">15</text>
     </g>
    </g>
    <g id="text_10">
     <text style="fill:#262626;font-family:DejaVu Sans;font-size:10px;font-stretch:normal;font-style:normal;font-weight:normal;text-anchor:middle;" transform="rotate(-90, 14.798438, 160.66)" x="14.798438" y="160.66">standardized shortest path length</text>
    </g>
   </g>
   <g id="PolyCollection_1">
    <defs>
     <path d="M 148.251371 -37.829034 
L 148.244254 -37.829034 
L 148.247353 -40.6474 
L 148.245113 -43.465765 
L 148.24394 -46.284131 
L 148.24606 -49.102496 
L 148.245441 -51.920861 
L 148.241952 -54.739227 
L 148.247472 -57.557592 
L 148.2452 -60.375958 
L 148.245842 -63.194323 
L 148.239961 -66.012689 
L 148.233046 -68.831054 
L 148.232163 -71.64942 
L 148.235183 -74.467785 
L 148.236051 -77.286151 
L 148.233409 -80.104516 
L 148.230747 -82.922882 
L 148.228171 -85.741247 
L 148.210296 -88.559613 
L 148.198122 -91.377978 
L 148.179761 -94.196344 
L 148.13329 -97.014709 
L 148.062472 -99.833074 
L 147.934384 -102.65144 
L 147.810411 -105.469805 
L 147.696183 -108.288171 
L 147.382063 -111.106536 
L 147.106784 -113.924902 
L 146.611818 -116.743267 
L 145.865088 -119.561633 
L 145.162988 -122.379998 
L 144.418092 -125.198364 
L 143.55055 -128.016729 
L 142.356165 -130.835095 
L 140.77643 -133.65346 
L 139.05923 -136.471826 
L 136.999911 -139.290191 
L 134.434222 -142.108557 
L 130.880783 -144.926922 
L 126.723987 -147.745288 
L 121.634697 -150.563653 
L 114.984337 -153.382018 
L 110.127275 -156.200384 
L 104.389941 -159.018749 
L 100.283229 -161.837115 
L 95.911012 -164.65548 
L 91.440039 -167.473846 
L 87.882611 -170.292211 
L 86.512427 -173.110577 
L 89.813752 -175.928942 
L 97.181403 -178.747308 
L 108.805934 -181.565673 
L 122.137145 -184.384039 
L 133.207184 -187.202404 
L 140.760702 -190.02077 
L 145.244348 -192.839135 
L 147.250091 -195.657501 
L 147.896074 -198.475866 
L 148.132916 -201.294232 
L 148.183647 -204.112597 
L 148.223985 -206.930962 
L 148.242031 -209.749328 
L 148.241954 -212.567693 
L 148.242425 -215.386059 
L 148.247639 -218.204424 
L 148.247812 -221.02279 
L 148.247812 -223.841155 
L 148.247812 -226.659521 
L 148.247773 -229.477886 
L 148.245454 -232.296252 
L 148.246041 -235.114617 
L 148.245969 -237.932983 
L 148.241397 -240.751348 
L 148.247488 -243.569714 
L 148.247812 -246.388079 
L 148.247812 -249.206445 
L 148.247813 -252.02481 
L 148.247813 -254.843176 
L 148.247813 -257.661541 
L 148.247813 -260.479906 
L 148.247813 -263.298272 
L 148.247813 -266.116637 
L 148.247812 -268.935003 
L 148.247812 -271.753368 
L 148.247393 -274.571734 
L 148.241305 -277.390099 
L 148.241711 -280.208465 
L 148.24045 -283.02683 
L 148.23883 -285.845196 
L 148.240713 -288.663561 
L 148.235416 -291.481927 
L 148.245539 -294.300292 
L 148.247802 -297.118658 
L 148.247812 -299.937023 
L 148.247812 -302.755389 
L 148.247634 -305.573754 
L 148.244471 -308.392119 
L 148.247019 -311.210485 
L 148.246189 -314.02885 
L 148.241336 -316.847216 
L 148.254289 -316.847216 
L 148.254289 -316.847216 
L 148.249436 -314.02885 
L 148.248606 -311.210485 
L 148.251154 -308.392119 
L 148.247991 -305.573754 
L 148.247813 -302.755389 
L 148.247813 -299.937023 
L 148.247823 -297.118658 
L 148.250086 -294.300292 
L 148.260209 -291.481927 
L 148.254912 -288.663561 
L 148.256795 -285.845196 
L 148.255175 -283.02683 
L 148.253914 -280.208465 
L 148.25432 -277.390099 
L 148.248232 -274.571734 
L 148.247813 -271.753368 
L 148.247813 -268.935003 
L 148.247813 -266.116637 
L 148.247813 -263.298272 
L 148.247813 -260.479906 
L 148.247813 -257.661541 
L 148.247813 -254.843176 
L 148.247813 -252.02481 
L 148.247813 -249.206445 
L 148.247813 -246.388079 
L 148.248137 -243.569714 
L 148.254228 -240.751348 
L 148.249656 -237.932983 
L 148.249584 -235.114617 
L 148.250171 -232.296252 
L 148.247852 -229.477886 
L 148.247813 -226.659521 
L 148.247813 -223.841155 
L 148.247813 -221.02279 
L 148.247986 -218.204424 
L 148.2532 -215.386059 
L 148.253671 -212.567693 
L 148.253594 -209.749328 
L 148.27164 -206.930962 
L 148.311978 -204.112597 
L 148.362709 -201.294232 
L 148.599551 -198.475866 
L 149.245534 -195.657501 
L 151.251277 -192.839135 
L 155.734923 -190.02077 
L 163.288441 -187.202404 
L 174.35848 -184.384039 
L 187.689691 -181.565673 
L 199.314222 -178.747308 
L 206.681873 -175.928942 
L 209.983198 -173.110577 
L 208.613014 -170.292211 
L 205.055586 -167.473846 
L 200.584613 -164.65548 
L 196.212396 -161.837115 
L 192.105684 -159.018749 
L 186.36835 -156.200384 
L 181.511288 -153.382018 
L 174.860928 -150.563653 
L 169.771638 -147.745288 
L 165.614842 -144.926922 
L 162.061403 -142.108557 
L 159.495714 -139.290191 
L 157.436395 -136.471826 
L 155.719195 -133.65346 
L 154.13946 -130.835095 
L 152.945075 -128.016729 
L 152.077533 -125.198364 
L 151.332637 -122.379998 
L 150.630537 -119.561633 
L 149.883807 -116.743267 
L 149.388841 -113.924902 
L 149.113562 -111.106536 
L 148.799442 -108.288171 
L 148.685214 -105.469805 
L 148.561241 -102.65144 
L 148.433153 -99.833074 
L 148.362335 -97.014709 
L 148.315864 -94.196344 
L 148.297503 -91.377978 
L 148.285329 -88.559613 
L 148.267454 -85.741247 
L 148.264878 -82.922882 
L 148.262216 -80.104516 
L 148.259574 -77.286151 
L 148.260442 -74.467785 
L 148.263462 -71.64942 
L 148.262579 -68.831054 
L 148.255664 -66.012689 
L 148.249783 -63.194323 
L 148.250425 -60.375958 
L 148.248153 -57.557592 
L 148.253673 -54.739227 
L 148.250184 -51.920861 
L 148.249565 -49.102496 
L 148.251685 -46.284131 
L 148.250512 -43.465765 
L 148.248272 -40.6474 
L 148.251371 -37.829034 
z
" id="mb5eae7c72e" style="stroke:#404040;stroke-width:1.5;"/>
    </defs>
    <g clip-path="url(#p5ed9f691e2)">
     <use style="fill:#5573cd;stroke:#404040;stroke-width:1.5;" x="0" xlink:href="#mb5eae7c72e" y="337.998125"/>
    </g>
   </g>
   <g id="PolyCollection_2">
    <defs>
     <path d="M 346.779573 -87.149569 
L 346.776052 -87.149569 
L 346.77671 -89.373718 
L 346.773617 -91.597868 
L 346.774537 -93.822017 
L 346.76534 -96.046166 
L 346.772108 -98.270316 
L 346.770389 -100.494465 
L 346.755413 -102.718615 
L 346.740972 -104.942764 
L 346.737604 -107.166913 
L 346.725371 -109.391063 
L 346.688453 -111.615212 
L 346.649977 -113.839362 
L 346.6183 -116.063511 
L 346.564036 -118.28766 
L 346.438772 -120.51181 
L 346.341776 -122.735959 
L 346.205902 -124.960109 
L 345.961971 -127.184258 
L 345.739997 -129.408407 
L 345.342467 -131.632557 
L 344.885678 -133.856706 
L 344.284254 -136.080856 
L 343.413189 -138.305005 
L 342.290328 -140.529154 
L 340.707928 -142.753304 
L 338.934044 -144.977453 
L 336.57204 -147.201603 
L 333.901932 -149.425752 
L 330.333455 -151.649901 
L 326.103695 -153.874051 
L 321.333745 -156.0982 
L 315.815859 -158.32235 
L 309.600702 -160.546499 
L 302.353263 -162.770648 
L 294.001403 -164.994798 
L 285.818503 -167.218947 
L 277.382853 -169.443097 
L 271.404401 -171.667246 
L 267.365813 -173.891395 
L 267.798386 -176.115545 
L 272.902037 -178.339694 
L 282.874704 -180.563844 
L 296.124232 -182.787993 
L 310.081966 -185.012142 
L 322.718325 -187.236292 
L 332.583988 -189.460441 
L 339.14839 -191.684591 
L 343.081452 -193.90874 
L 345.122267 -196.132889 
L 346.137418 -198.357039 
L 346.511733 -200.581188 
L 346.681952 -202.805338 
L 346.732705 -205.029487 
L 346.74689 -207.253636 
L 346.760295 -209.477786 
L 346.773635 -211.701935 
L 346.770719 -213.926085 
L 346.77759 -216.150234 
L 346.775186 -218.374383 
L 346.775919 -220.598533 
L 346.776303 -222.822682 
L 346.773386 -225.046832 
L 346.777538 -227.270981 
L 346.777146 -229.49513 
L 346.775338 -231.71928 
L 346.776003 -233.943429 
L 346.777349 -236.167579 
L 346.777155 -238.391728 
L 346.774994 -240.615877 
L 346.777034 -242.840027 
L 346.777399 -245.064176 
L 346.776105 -247.288326 
L 346.777603 -249.512475 
L 346.774759 -251.736624 
L 346.776648 -253.960774 
L 346.776714 -256.184923 
L 346.776876 -258.409073 
L 346.777811 -260.633222 
L 346.776229 -262.857371 
L 346.773884 -265.081521 
L 346.776523 -267.30567 
L 346.777761 -269.52982 
L 346.774713 -271.753969 
L 346.776834 -273.978118 
L 346.775457 -276.202268 
L 346.777655 -278.426417 
L 346.774494 -280.650567 
L 346.774163 -282.874716 
L 346.774478 -285.098865 
L 346.773035 -287.323015 
L 346.771106 -289.547164 
L 346.768642 -291.771314 
L 346.767732 -293.995463 
L 346.770392 -296.219612 
L 346.774533 -298.443762 
L 346.775498 -300.667911 
L 346.7739 -302.892061 
L 346.773595 -305.11621 
L 346.775971 -307.340359 
L 346.779654 -307.340359 
L 346.779654 -307.340359 
L 346.78203 -305.11621 
L 346.781725 -302.892061 
L 346.780127 -300.667911 
L 346.781092 -298.443762 
L 346.785233 -296.219612 
L 346.787893 -293.995463 
L 346.786983 -291.771314 
L 346.784519 -289.547164 
L 346.78259 -287.323015 
L 346.781147 -285.098865 
L 346.781462 -282.874716 
L 346.781131 -280.650567 
L 346.77797 -278.426417 
L 346.780168 -276.202268 
L 346.778791 -273.978118 
L 346.780912 -271.753969 
L 346.777864 -269.52982 
L 346.779102 -267.30567 
L 346.781741 -265.081521 
L 346.779396 -262.857371 
L 346.777814 -260.633222 
L 346.778749 -258.409073 
L 346.778911 -256.184923 
L 346.778977 -253.960774 
L 346.780866 -251.736624 
L 346.778022 -249.512475 
L 346.77952 -247.288326 
L 346.778226 -245.064176 
L 346.778591 -242.840027 
L 346.780631 -240.615877 
L 346.77847 -238.391728 
L 346.778276 -236.167579 
L 346.779622 -233.943429 
L 346.780287 -231.71928 
L 346.778479 -229.49513 
L 346.778087 -227.270981 
L 346.782239 -225.046832 
L 346.779322 -222.822682 
L 346.779706 -220.598533 
L 346.780439 -218.374383 
L 346.778035 -216.150234 
L 346.784906 -213.926085 
L 346.78199 -211.701935 
L 346.79533 -209.477786 
L 346.808735 -207.253636 
L 346.82292 -205.029487 
L 346.873673 -202.805338 
L 347.043892 -200.581188 
L 347.418207 -198.357039 
L 348.433358 -196.132889 
L 350.474173 -193.90874 
L 354.407235 -191.684591 
L 360.971637 -189.460441 
L 370.8373 -187.236292 
L 383.473659 -185.012142 
L 397.431393 -182.787993 
L 410.680921 -180.563844 
L 420.653588 -178.339694 
L 425.757239 -176.115545 
L 426.189812 -173.891395 
L 422.151224 -171.667246 
L 416.172772 -169.443097 
L 407.737122 -167.218947 
L 399.554222 -164.994798 
L 391.202362 -162.770648 
L 383.954923 -160.546499 
L 377.739766 -158.32235 
L 372.22188 -156.0982 
L 367.45193 -153.874051 
L 363.22217 -151.649901 
L 359.653693 -149.425752 
L 356.983585 -147.201603 
L 354.621581 -144.977453 
L 352.847697 -142.753304 
L 351.265297 -140.529154 
L 350.142436 -138.305005 
L 349.271371 -136.080856 
L 348.669947 -133.856706 
L 348.213158 -131.632557 
L 347.815628 -129.408407 
L 347.593654 -127.184258 
L 347.349723 -124.960109 
L 347.213849 -122.735959 
L 347.116853 -120.51181 
L 346.991589 -118.28766 
L 346.937325 -116.063511 
L 346.905648 -113.839362 
L 346.867172 -111.615212 
L 346.830254 -109.391063 
L 346.818021 -107.166913 
L 346.814653 -104.942764 
L 346.800212 -102.718615 
L 346.785236 -100.494465 
L 346.783517 -98.270316 
L 346.790285 -96.046166 
L 346.781088 -93.822017 
L 346.782008 -91.597868 
L 346.778915 -89.373718 
L 346.779573 -87.149569 
z
" id="m3f228ed256" style="stroke:#404040;stroke-width:1.5;"/>
    </defs>
    <g clip-path="url(#p5ed9f691e2)">
     <use style="fill:#a03434;stroke:#404040;stroke-width:1.5;" x="0" xlink:href="#m3f228ed256" y="337.998125"/>
    </g>
   </g>
   <g id="line2d_10">
    <path clip-path="url(#p5ed9f691e2)" d="M 110.50848 181.927338 
L 185.987145 181.927338 
" style="fill:none;stroke:#404040;stroke-dasharray:3.375,3.375;stroke-dashoffset:0;stroke-width:1.5;"/>
   </g>
   <g id="line2d_11">
    <path clip-path="url(#p5ed9f691e2)" d="M 92.008116 171.081169 
L 204.487509 171.081169 
" style="fill:none;stroke:#404040;stroke-dasharray:6.75,6.75;stroke-dashoffset:0;stroke-width:1.5;"/>
   </g>
   <g id="line2d_12">
    <path clip-path="url(#p5ed9f691e2)" d="M 90.398093 162.558316 
L 206.097532 162.558316 
" style="fill:none;stroke:#404040;stroke-dasharray:3.375,3.375;stroke-dashoffset:0;stroke-width:1.5;"/>
   </g>
   <g id="line2d_13">
    <path clip-path="url(#p5ed9f691e2)" d="M 294.529167 174.045101 
L 399.026458 174.045101 
" style="fill:none;stroke:#404040;stroke-dasharray:3.375,3.375;stroke-dashoffset:0;stroke-width:1.5;"/>
   </g>
   <g id="line2d_14">
    <path clip-path="url(#p5ed9f691e2)" d="M 272.158135 165.971183 
L 421.39749 165.971183 
" style="fill:none;stroke:#404040;stroke-dasharray:6.75,6.75;stroke-dashoffset:0;stroke-width:1.5;"/>
   </g>
   <g id="line2d_15">
    <path clip-path="url(#p5ed9f691e2)" d="M 273.640795 159.399742 
L 419.91483 159.399742 
" style="fill:none;stroke:#404040;stroke-dasharray:3.375,3.375;stroke-dashoffset:0;stroke-width:1.5;"/>
   </g>
   <g id="patch_3">
    <path d="M 48.982813 291.940734 
L 48.982813 47.088616 
" style="fill:none;stroke:#262626;stroke-linecap:square;stroke-linejoin:miter;stroke-width:0.8;"/>
   </g>
   <g id="patch_4">
    <path d="M 148.247813 314.12 
L 346.777812 314.12 
" style="fill:none;stroke:#262626;stroke-linecap:square;stroke-linejoin:miter;stroke-width:0.8;"/>
   </g>
   <g id="text_11">
    <text style="fill:#262626;font-family:DejaVu Sans;font-size:10px;font-stretch:normal;font-style:normal;font-weight:normal;text-anchor:middle;" transform="rotate(-0, 247.512812, 19.071222)" x="247.512812" y="19.071222">*</text>
   </g>
  </g>
 </g>
 <defs>
  <clipPath id="p5ed9f691e2">
   <rect height="306.92" width="397.06" x="48.982813" y="7.2"/>
  </clipPath>
 </defs>
</svg>
