<?xml version="1.0" encoding="utf-8" standalone="no"?>
<!DOCTYPE svg PUBLIC "-//W3C//DTD SVG 1.1//EN"
  "http://www.w3.org/Graphics/SVG/1.1/DTD/svg11.dtd">
<!-- Created with matplotlib (https://matplotlib.org/) -->
<svg height="338.905312pt" version="1.1" viewBox="0 0 453.8825 338.905312" width="453.8825pt" xmlns="http://www.w3.org/2000/svg" xmlns:xlink="http://www.w3.org/1999/xlink">
 <metadata>
  <rdf:RDF xmlns:cc="http://creativecommons.org/ns#" xmlns:dc="http://purl.org/dc/elements/1.1/" xmlns:rdf="http://www.w3.org/1999/02/22-rdf-syntax-ns#">
   <cc:Work>
    <dc:type rdf:resource="http://purl.org/dc/dcmitype/StillImage"/>
    <dc:date>2023-01-29T21:16:28.690350</dc:date>
    <dc:format>image/svg+xml</dc:format>
    <dc:creator>
     <cc:Agent>
      <dc:title>Matplotlib v3.3.4, https://matplotlib.org/</dc:title>
     </cc:Agent>
    </dc:creator>
   </cc:Work>
  </rdf:RDF>
 </metadata>
 <defs>
  <style type="text/css">*{stroke-linecap:butt;stroke-linejoin:round;}</style>
 </defs>
 <g id="figure_1">
  <g id="patch_1">
   <path d="M 0 338.905312 
L 453.8825 338.905312 
L 453.8825 0 
L 0 0 
z
" style="fill:#ffffff;"/>
  </g>
  <g id="axes_1">
   <g id="patch_2">
    <path d="M 44.425 315.56 
L 446.6825 315.56 
L 446.6825 7.2 
L 44.425 7.2 
z
" style="fill:#ffffff;"/>
   </g>
   <g id="matplotlib.axis_1">
    <g id="xtick_1">
     <g id="line2d_1">
      <defs>
       <path d="M 0 0 
L 0 3.5 
" id="m15ee864196" style="stroke:#262626;stroke-width:0.8;"/>
      </defs>
      <g>
       <use style="fill:#262626;stroke:#262626;stroke-width:0.8;" x="144.989375" xlink:href="#m15ee864196" y="315.56"/>
      </g>
     </g>
     <g id="text_1">
      <text style="fill:#262626;font-family:Arial;font-size:10px;font-stretch:normal;font-style:normal;font-weight:normal;text-anchor:middle;" transform="rotate(-0, 144.989375, 329.717812)" x="144.989375" y="329.717812">within network</text>
     </g>
    </g>
    <g id="xtick_2">
     <g id="line2d_2">
      <g>
       <use style="fill:#262626;stroke:#262626;stroke-width:0.8;" x="346.118125" xlink:href="#m15ee864196" y="315.56"/>
      </g>
     </g>
     <g id="text_2">
      <text style="fill:#262626;font-family:Arial;font-size:10px;font-stretch:normal;font-style:normal;font-weight:normal;text-anchor:middle;" transform="rotate(-0, 346.118125, 329.717812)" x="346.118125" y="329.717812">between network</text>
     </g>
    </g>
   </g>
   <g id="matplotlib.axis_2">
    <g id="ytick_1">
     <g id="line2d_3">
      <defs>
       <path d="M 0 0 
L -3.5 0 
" id="ma573f0f4b4" style="stroke:#262626;stroke-width:0.8;"/>
      </defs>
      <g>
       <use style="fill:#262626;stroke:#262626;stroke-width:0.8;" x="44.425" xlink:href="#ma573f0f4b4" y="310.514358"/>
      </g>
     </g>
     <g id="text_3">
      <text style="fill:#262626;font-family:Arial;font-size:10px;font-stretch:normal;font-style:normal;font-weight:normal;text-anchor:end;" transform="rotate(-0, 37.425, 314.093264)" x="37.425" y="314.093264">−60</text>
     </g>
    </g>
    <g id="ytick_2">
     <g id="line2d_4">
      <g>
       <use style="fill:#262626;stroke:#262626;stroke-width:0.8;" x="44.425" xlink:href="#ma573f0f4b4" y="273.509302"/>
      </g>
     </g>
     <g id="text_4">
      <text style="fill:#262626;font-family:Arial;font-size:10px;font-stretch:normal;font-style:normal;font-weight:normal;text-anchor:end;" transform="rotate(-0, 37.425, 277.088208)" x="37.425" y="277.088208">−50</text>
     </g>
    </g>
    <g id="ytick_3">
     <g id="line2d_5">
      <g>
       <use style="fill:#262626;stroke:#262626;stroke-width:0.8;" x="44.425" xlink:href="#ma573f0f4b4" y="236.504246"/>
      </g>
     </g>
     <g id="text_5">
      <text style="fill:#262626;font-family:Arial;font-size:10px;font-stretch:normal;font-style:normal;font-weight:normal;text-anchor:end;" transform="rotate(-0, 37.425, 240.083152)" x="37.425" y="240.083152">−40</text>
     </g>
    </g>
    <g id="ytick_4">
     <g id="line2d_6">
      <g>
       <use style="fill:#262626;stroke:#262626;stroke-width:0.8;" x="44.425" xlink:href="#ma573f0f4b4" y="199.49919"/>
      </g>
     </g>
     <g id="text_6">
      <text style="fill:#262626;font-family:Arial;font-size:10px;font-stretch:normal;font-style:normal;font-weight:normal;text-anchor:end;" transform="rotate(-0, 37.425, 203.078096)" x="37.425" y="203.078096">−30</text>
     </g>
    </g>
    <g id="ytick_5">
     <g id="line2d_7">
      <g>
       <use style="fill:#262626;stroke:#262626;stroke-width:0.8;" x="44.425" xlink:href="#ma573f0f4b4" y="162.494134"/>
      </g>
     </g>
     <g id="text_7">
      <text style="fill:#262626;font-family:Arial;font-size:10px;font-stretch:normal;font-style:normal;font-weight:normal;text-anchor:end;" transform="rotate(-0, 37.425, 166.07304)" x="37.425" y="166.07304">−20</text>
     </g>
    </g>
    <g id="ytick_6">
     <g id="line2d_8">
      <g>
       <use style="fill:#262626;stroke:#262626;stroke-width:0.8;" x="44.425" xlink:href="#ma573f0f4b4" y="125.489078"/>
      </g>
     </g>
     <g id="text_8">
      <text style="fill:#262626;font-family:Arial;font-size:10px;font-stretch:normal;font-style:normal;font-weight:normal;text-anchor:end;" transform="rotate(-0, 37.425, 129.067984)" x="37.425" y="129.067984">−10</text>
     </g>
    </g>
    <g id="ytick_7">
     <g id="line2d_9">
      <g>
       <use style="fill:#262626;stroke:#262626;stroke-width:0.8;" x="44.425" xlink:href="#ma573f0f4b4" y="88.484021"/>
      </g>
     </g>
     <g id="text_9">
      <text style="fill:#262626;font-family:Arial;font-size:10px;font-stretch:normal;font-style:normal;font-weight:normal;text-anchor:end;" transform="rotate(-0, 37.425, 92.062928)" x="37.425" y="92.062928">0</text>
     </g>
    </g>
    <g id="ytick_8">
     <g id="line2d_10">
      <g>
       <use style="fill:#262626;stroke:#262626;stroke-width:0.8;" x="44.425" xlink:href="#ma573f0f4b4" y="51.478965"/>
      </g>
     </g>
     <g id="text_10">
      <text style="fill:#262626;font-family:Arial;font-size:10px;font-stretch:normal;font-style:normal;font-weight:normal;text-anchor:end;" transform="rotate(-0, 37.425, 55.057872)" x="37.425" y="55.057872">10</text>
     </g>
    </g>
    <g id="ytick_9">
     <g id="line2d_11">
      <g>
       <use style="fill:#262626;stroke:#262626;stroke-width:0.8;" x="44.425" xlink:href="#ma573f0f4b4" y="14.473909"/>
      </g>
     </g>
     <g id="text_11">
      <text style="fill:#262626;font-family:Arial;font-size:10px;font-stretch:normal;font-style:normal;font-weight:normal;text-anchor:end;" transform="rotate(-0, 37.425, 18.052815)" x="37.425" y="18.052815">20</text>
     </g>
    </g>
    <g id="text_12">
     <text style="fill:#262626;font-family:Arial;font-size:10px;font-stretch:normal;font-style:normal;font-weight:normal;text-anchor:middle;" transform="rotate(-90, 14.357813, 161.38)" x="14.357813" y="161.38">standardized shortest path length</text>
    </g>
   </g>
   <g id="PolyCollection_1">
    <defs>
     <path d="M 144.992031 -37.361676 
L 144.986719 -37.361676 
L 144.988943 -40.193265 
L 144.98363 -43.024853 
L 144.989352 -45.856442 
L 144.989375 -48.688031 
L 144.989274 -51.519619 
L 144.9878 -54.351208 
L 144.989375 -57.182796 
L 144.989375 -60.014385 
L 144.989375 -62.845974 
L 144.989375 -65.677562 
L 144.989287 -68.509151 
L 144.987607 -71.340739 
L 144.98781 -74.172328 
L 144.989375 -77.003917 
L 144.98928 -79.835505 
L 144.987759 -82.667094 
L 144.989375 -85.498683 
L 144.989375 -88.330271 
L 144.989375 -91.16186 
L 144.989375 -93.993448 
L 144.989375 -96.825037 
L 144.989375 -99.656626 
L 144.989375 -102.488214 
L 144.989375 -105.319803 
L 144.989375 -108.151391 
L 144.989373 -110.98298 
L 144.986792 -113.814569 
L 144.989365 -116.646157 
L 144.987607 -119.477746 
L 144.98444 -122.309335 
L 144.987948 -125.140923 
L 144.989245 -127.972512 
L 144.98796 -130.8041 
L 144.989375 -133.635689 
L 144.989375 -136.467278 
L 144.98878 -139.298866 
L 144.98886 -142.130455 
L 144.984523 -144.962043 
L 144.989322 -147.793632 
L 144.987223 -150.625221 
L 144.987834 -153.456809 
L 144.987502 -156.288398 
L 144.987012 -159.119987 
L 144.984949 -161.951575 
L 144.986315 -164.783164 
L 144.988982 -167.614752 
L 144.974971 -170.446341 
L 144.982414 -173.27793 
L 144.97521 -176.109518 
L 144.972877 -178.941107 
L 144.969006 -181.772695 
L 144.948383 -184.604284 
L 144.93807 -187.435873 
L 144.943408 -190.267461 
L 144.92047 -193.09905 
L 144.909787 -195.930638 
L 144.883791 -198.762227 
L 144.837344 -201.593816 
L 144.795679 -204.425404 
L 144.664576 -207.256993 
L 144.540163 -210.088582 
L 144.253609 -212.92017 
L 143.911493 -215.751759 
L 143.466114 -218.583347 
L 142.868174 -221.414936 
L 142.402224 -224.246525 
L 141.442623 -227.078113 
L 139.854609 -229.909702 
L 137.968017 -232.74129 
L 134.776482 -235.572879 
L 130.269736 -238.404468 
L 122.54691 -241.236056 
L 110.535278 -244.067645 
L 99.973764 -246.899234 
L 90.836419 -249.730822 
L 85.714149 -252.562411 
L 98.338792 -255.393999 
L 124.881687 -258.225588 
L 140.804228 -261.057177 
L 144.586861 -263.888765 
L 144.932485 -266.720354 
L 144.983939 -269.551942 
L 144.987433 -272.383531 
L 144.989375 -275.21512 
L 144.989208 -278.046708 
L 144.987927 -280.878297 
L 144.986119 -283.709886 
L 144.989375 -286.541474 
L 144.989375 -289.373063 
L 144.989375 -292.204651 
L 144.989375 -295.03624 
L 144.989224 -297.867829 
L 144.983196 -300.699417 
L 144.981345 -303.531006 
L 144.979467 -306.362594 
L 144.989356 -309.194183 
L 144.989281 -312.025772 
L 144.987726 -314.85736 
L 144.984359 -317.688949 
L 144.994391 -317.688949 
L 144.994391 -317.688949 
L 144.991024 -314.85736 
L 144.989469 -312.025772 
L 144.989394 -309.194183 
L 144.999283 -306.362594 
L 144.997405 -303.531006 
L 144.995554 -300.699417 
L 144.989526 -297.867829 
L 144.989375 -295.03624 
L 144.989375 -292.204651 
L 144.989375 -289.373063 
L 144.989375 -286.541474 
L 144.992631 -283.709886 
L 144.990823 -280.878297 
L 144.989542 -278.046708 
L 144.989375 -275.21512 
L 144.991317 -272.383531 
L 144.994811 -269.551942 
L 145.046265 -266.720354 
L 145.391889 -263.888765 
L 149.174522 -261.057177 
L 165.097063 -258.225588 
L 191.639958 -255.393999 
L 204.264601 -252.562411 
L 199.142331 -249.730822 
L 190.004986 -246.899234 
L 179.443472 -244.067645 
L 167.43184 -241.236056 
L 159.709014 -238.404468 
L 155.202268 -235.572879 
L 152.010733 -232.74129 
L 150.124141 -229.909702 
L 148.536127 -227.078113 
L 147.576526 -224.246525 
L 147.110576 -221.414936 
L 146.512636 -218.583347 
L 146.067257 -215.751759 
L 145.725141 -212.92017 
L 145.438587 -210.088582 
L 145.314174 -207.256993 
L 145.183071 -204.425404 
L 145.141406 -201.593816 
L 145.094959 -198.762227 
L 145.068963 -195.930638 
L 145.05828 -193.09905 
L 145.035342 -190.267461 
L 145.04068 -187.435873 
L 145.030367 -184.604284 
L 145.009744 -181.772695 
L 145.005873 -178.941107 
L 145.00354 -176.109518 
L 144.996336 -173.27793 
L 145.003779 -170.446341 
L 144.989768 -167.614752 
L 144.992435 -164.783164 
L 144.993801 -161.951575 
L 144.991738 -159.119987 
L 144.991248 -156.288398 
L 144.990916 -153.456809 
L 144.991527 -150.625221 
L 144.989428 -147.793632 
L 144.994227 -144.962043 
L 144.98989 -142.130455 
L 144.98997 -139.298866 
L 144.989375 -136.467278 
L 144.989375 -133.635689 
L 144.99079 -130.8041 
L 144.989505 -127.972512 
L 144.990802 -125.140923 
L 144.99431 -122.309335 
L 144.991143 -119.477746 
L 144.989385 -116.646157 
L 144.991958 -113.814569 
L 144.989377 -110.98298 
L 144.989375 -108.151391 
L 144.989375 -105.319803 
L 144.989375 -102.488214 
L 144.989375 -99.656626 
L 144.989375 -96.825037 
L 144.989375 -93.993448 
L 144.989375 -91.16186 
L 144.989375 -88.330271 
L 144.989375 -85.498683 
L 144.990991 -82.667094 
L 144.98947 -79.835505 
L 144.989375 -77.003917 
L 144.99094 -74.172328 
L 144.991143 -71.340739 
L 144.989463 -68.509151 
L 144.989375 -65.677562 
L 144.989375 -62.845974 
L 144.989375 -60.014385 
L 144.989375 -57.182796 
L 144.99095 -54.351208 
L 144.989476 -51.519619 
L 144.989375 -48.688031 
L 144.989398 -45.856442 
L 144.99512 -43.024853 
L 144.989807 -40.193265 
L 144.992031 -37.361676 
z
" id="mc5d16dd79b" style="stroke:#404040;stroke-width:1.5;"/>
    </defs>
    <g clip-path="url(#pe6aa306c28)">
     <use style="fill:#5573cd;stroke:#404040;stroke-width:1.5;" x="0" xlink:href="#mc5d16dd79b" y="338.905312"/>
    </g>
   </g>
   <g id="PolyCollection_2">
    <defs>
     <path d="M 346.119982 -183.766239 
L 346.116268 -183.766239 
L 346.118036 -185.075454 
L 346.118125 -186.38467 
L 346.118125 -187.693885 
L 346.116572 -189.003101 
L 346.116888 -190.312316 
L 346.116802 -191.621532 
L 346.118125 -192.930747 
L 346.118015 -194.239963 
L 346.117042 -195.549178 
L 346.115298 -196.858394 
L 346.113451 -198.167609 
L 346.110326 -199.476825 
L 346.112618 -200.78604 
L 346.11257 -202.095256 
L 346.109239 -203.404471 
L 346.106124 -204.713687 
L 346.103803 -206.022902 
L 346.108842 -207.332117 
L 346.10078 -208.641333 
L 346.101117 -209.950548 
L 346.091213 -211.259764 
L 346.078031 -212.568979 
L 346.068035 -213.878195 
L 346.063874 -215.18741 
L 346.030353 -216.496626 
L 346.022961 -217.805841 
L 346.013842 -219.115057 
L 345.96172 -220.424272 
L 345.904825 -221.733488 
L 345.876068 -223.042703 
L 345.813105 -224.351919 
L 345.67381 -225.661134 
L 345.592563 -226.970349 
L 345.41827 -228.279565 
L 345.238188 -229.58878 
L 344.983325 -230.897996 
L 344.647761 -232.207211 
L 344.148041 -233.516427 
L 343.490696 -234.825642 
L 342.567309 -236.134858 
L 341.261536 -237.444073 
L 339.233376 -238.753289 
L 336.826173 -240.062504 
L 333.666942 -241.37172 
L 329.398363 -242.680935 
L 323.997121 -243.990151 
L 317.49574 -245.299366 
L 309.928236 -246.608582 
L 300.555097 -247.917797 
L 289.623764 -249.227012 
L 278.465733 -250.536228 
L 270.161643 -251.845443 
L 265.666625 -253.154659 
L 268.797523 -254.463874 
L 280.201882 -255.77309 
L 297.551126 -257.082305 
L 315.188367 -258.391521 
L 329.735085 -259.700736 
L 338.724519 -261.009952 
L 343.31849 -262.319167 
L 345.218289 -263.628383 
L 345.840393 -264.937598 
L 346.045546 -266.246814 
L 346.080181 -267.556029 
L 346.09933 -268.865245 
L 346.114692 -270.17446 
L 346.114543 -271.483675 
L 346.116909 -272.792891 
L 346.116377 -274.102106 
L 346.115885 -275.411322 
L 346.116713 -276.720537 
L 346.117514 -278.029753 
L 346.116872 -279.338968 
L 346.116387 -280.648184 
L 346.117741 -281.957399 
L 346.115009 -283.266615 
L 346.118033 -284.57583 
L 346.115726 -285.885046 
L 346.117797 -287.194261 
L 346.114989 -288.503477 
L 346.116867 -289.812692 
L 346.117072 -291.121907 
L 346.118109 -292.431123 
L 346.113142 -293.740338 
L 346.116724 -295.049554 
L 346.11797 -296.358769 
L 346.115278 -297.667985 
L 346.115433 -298.9772 
L 346.117925 -300.286416 
L 346.114015 -301.595631 
L 346.115729 -302.904847 
L 346.113502 -304.214062 
L 346.112324 -305.523278 
L 346.107107 -306.832493 
L 346.109336 -308.141709 
L 346.11491 -309.450924 
L 346.113823 -310.76014 
L 346.115669 -312.069355 
L 346.116233 -313.37857 
L 346.120017 -313.37857 
L 346.120017 -313.37857 
L 346.120581 -312.069355 
L 346.122427 -310.76014 
L 346.12134 -309.450924 
L 346.126914 -308.141709 
L 346.129143 -306.832493 
L 346.123926 -305.523278 
L 346.122748 -304.214062 
L 346.120521 -302.904847 
L 346.122235 -301.595631 
L 346.118325 -300.286416 
L 346.120817 -298.9772 
L 346.120972 -297.667985 
L 346.11828 -296.358769 
L 346.119526 -295.049554 
L 346.123108 -293.740338 
L 346.118141 -292.431123 
L 346.119178 -291.121907 
L 346.119383 -289.812692 
L 346.121261 -288.503477 
L 346.118453 -287.194261 
L 346.120524 -285.885046 
L 346.118217 -284.57583 
L 346.121241 -283.266615 
L 346.118509 -281.957399 
L 346.119863 -280.648184 
L 346.119378 -279.338968 
L 346.118736 -278.029753 
L 346.119537 -276.720537 
L 346.120365 -275.411322 
L 346.119873 -274.102106 
L 346.119341 -272.792891 
L 346.121707 -271.483675 
L 346.121558 -270.17446 
L 346.13692 -268.865245 
L 346.156069 -267.556029 
L 346.190704 -266.246814 
L 346.395857 -264.937598 
L 347.017961 -263.628383 
L 348.91776 -262.319167 
L 353.511731 -261.009952 
L 362.501165 -259.700736 
L 377.047883 -258.391521 
L 394.685124 -257.082305 
L 412.034368 -255.77309 
L 423.438727 -254.463874 
L 426.569625 -253.154659 
L 422.074607 -251.845443 
L 413.770517 -250.536228 
L 402.612486 -249.227012 
L 391.681153 -247.917797 
L 382.308014 -246.608582 
L 374.74051 -245.299366 
L 368.239129 -243.990151 
L 362.837887 -242.680935 
L 358.569308 -241.37172 
L 355.410077 -240.062504 
L 353.002874 -238.753289 
L 350.974714 -237.444073 
L 349.668941 -236.134858 
L 348.745554 -234.825642 
L 348.088209 -233.516427 
L 347.588489 -232.207211 
L 347.252925 -230.897996 
L 346.998062 -229.58878 
L 346.81798 -228.279565 
L 346.643687 -226.970349 
L 346.56244 -225.661134 
L 346.423145 -224.351919 
L 346.360182 -223.042703 
L 346.331425 -221.733488 
L 346.27453 -220.424272 
L 346.222408 -219.115057 
L 346.213289 -217.805841 
L 346.205897 -216.496626 
L 346.172376 -215.18741 
L 346.168215 -213.878195 
L 346.158219 -212.568979 
L 346.145037 -211.259764 
L 346.135133 -209.950548 
L 346.13547 -208.641333 
L 346.127408 -207.332117 
L 346.132447 -206.022902 
L 346.130126 -204.713687 
L 346.127011 -203.404471 
L 346.12368 -202.095256 
L 346.123632 -200.78604 
L 346.125924 -199.476825 
L 346.122799 -198.167609 
L 346.120952 -196.858394 
L 346.119208 -195.549178 
L 346.118235 -194.239963 
L 346.118125 -192.930747 
L 346.119448 -191.621532 
L 346.119362 -190.312316 
L 346.119678 -189.003101 
L 346.118125 -187.693885 
L 346.118125 -186.38467 
L 346.118214 -185.075454 
L 346.119982 -183.766239 
z
" id="m8445007415" style="stroke:#404040;stroke-width:1.5;"/>
    </defs>
    <g clip-path="url(#pe6aa306c28)">
     <use style="fill:#a03434;stroke:#404040;stroke-width:1.5;" x="0" xlink:href="#m8445007415" y="338.905312"/>
    </g>
   </g>
   <g id="line2d_12">
    <path clip-path="url(#pe6aa306c28)" d="M 110.879819 95.222071 
L 179.098931 95.222071 
" style="fill:none;stroke:#404040;stroke-dasharray:3.375,3.375;stroke-dashoffset:0;stroke-width:1.5;"/>
   </g>
   <g id="line2d_13">
    <path clip-path="url(#pe6aa306c28)" d="M 91.377948 89.687095 
L 198.600802 89.687095 
" style="fill:none;stroke:#404040;stroke-dasharray:6.75,6.75;stroke-dashoffset:0;stroke-width:1.5;"/>
   </g>
   <g id="line2d_14">
    <path clip-path="url(#pe6aa306c28)" d="M 86.306901 85.557129 
L 203.671849 85.557129 
" style="fill:none;stroke:#404040;stroke-dasharray:3.375,3.375;stroke-dashoffset:0;stroke-width:1.5;"/>
   </g>
   <g id="line2d_15">
    <path clip-path="url(#pe6aa306c28)" d="M 301.010728 90.742893 
L 391.225522 90.742893 
" style="fill:none;stroke:#404040;stroke-dasharray:3.375,3.375;stroke-dashoffset:0;stroke-width:1.5;"/>
   </g>
   <g id="line2d_16">
    <path clip-path="url(#pe6aa306c28)" d="M 270.921208 86.963366 
L 421.315042 86.963366 
" style="fill:none;stroke:#404040;stroke-dasharray:6.75,6.75;stroke-dashoffset:0;stroke-width:1.5;"/>
   </g>
   <g id="line2d_17">
    <path clip-path="url(#pe6aa306c28)" d="M 269.570729 83.942544 
L 422.665521 83.942544 
" style="fill:none;stroke:#404040;stroke-dasharray:3.375,3.375;stroke-dashoffset:0;stroke-width:1.5;"/>
   </g>
   <g id="patch_3">
    <path d="M 44.425 310.514358 
L 44.425 14.473909 
" style="fill:none;stroke:#262626;stroke-linecap:square;stroke-linejoin:miter;stroke-width:0.8;"/>
   </g>
   <g id="patch_4">
    <path d="M 144.989375 315.56 
L 346.118125 315.56 
" style="fill:none;stroke:#262626;stroke-linecap:square;stroke-linejoin:miter;stroke-width:0.8;"/>
   </g>
   <g id="text_13">
    <text style="fill:#262626;font-family:Arial;font-size:10px;font-stretch:normal;font-style:normal;font-weight:normal;text-anchor:middle;" transform="rotate(-0, 245.55375, 19.228864)" x="245.55375" y="19.228864">*</text>
   </g>
  </g>
 </g>
 <defs>
  <clipPath id="pe6aa306c28">
   <rect height="308.36" width="402.2575" x="44.425" y="7.2"/>
  </clipPath>
 </defs>
</svg>
