<?xml version="1.0" encoding="utf-8" standalone="no"?>
<!DOCTYPE svg PUBLIC "-//W3C//DTD SVG 1.1//EN"
  "http://www.w3.org/Graphics/SVG/1.1/DTD/svg11.dtd">
<!-- Created with matplotlib (https://matplotlib.org/) -->
<svg height="338.905312pt" version="1.1" viewBox="0 0 453.901562 338.905312" width="453.901562pt" xmlns="http://www.w3.org/2000/svg" xmlns:xlink="http://www.w3.org/1999/xlink">
 <metadata>
  <rdf:RDF xmlns:cc="http://creativecommons.org/ns#" xmlns:dc="http://purl.org/dc/elements/1.1/" xmlns:rdf="http://www.w3.org/1999/02/22-rdf-syntax-ns#">
   <cc:Work>
    <dc:type rdf:resource="http://purl.org/dc/dcmitype/StillImage"/>
    <dc:date>2023-03-28T12:45:39.565511</dc:date>
    <dc:format>image/svg+xml</dc:format>
    <dc:creator>
     <cc:Agent>
      <dc:title>Matplotlib v3.3.4, https://matplotlib.org/</dc:title>
     </cc:Agent>
    </dc:creator>
   </cc:Work>
  </rdf:RDF>
 </metadata>
 <defs>
  <style type="text/css">*{stroke-linecap:butt;stroke-linejoin:round;}</style>
 </defs>
 <g id="figure_1">
  <g id="patch_1">
   <path d="M 0 338.905312 
L 453.901562 338.905312 
L 453.901562 0 
L 0 0 
z
" style="fill:#ffffff;"/>
  </g>
  <g id="axes_1">
   <g id="patch_2">
    <path d="M 38.864063 315.56 
L 446.701563 315.56 
L 446.701563 7.2 
L 38.864063 7.2 
z
" style="fill:#ffffff;"/>
   </g>
   <g id="matplotlib.axis_1">
    <g id="xtick_1">
     <g id="line2d_1">
      <defs>
       <path d="M 0 0 
L 0 3.5 
" id="mf3b9f385bb" style="stroke:#262626;stroke-width:0.8;"/>
      </defs>
      <g>
       <use style="fill:#262626;stroke:#262626;stroke-width:0.8;" x="140.823438" xlink:href="#mf3b9f385bb" y="315.56"/>
      </g>
     </g>
     <g id="text_1">
      <text style="fill:#262626;font-family:Arial;font-size:10px;font-stretch:normal;font-style:normal;font-weight:normal;text-anchor:middle;" transform="rotate(-0, 140.823438, 329.717812)" x="140.823438" y="329.717812">within network</text>
     </g>
    </g>
    <g id="xtick_2">
     <g id="line2d_2">
      <g>
       <use style="fill:#262626;stroke:#262626;stroke-width:0.8;" x="344.742188" xlink:href="#mf3b9f385bb" y="315.56"/>
      </g>
     </g>
     <g id="text_2">
      <text style="fill:#262626;font-family:Arial;font-size:10px;font-stretch:normal;font-style:normal;font-weight:normal;text-anchor:middle;" transform="rotate(-0, 344.742188, 329.717812)" x="344.742188" y="329.717812">between network</text>
     </g>
    </g>
   </g>
   <g id="matplotlib.axis_2">
    <g id="ytick_1">
     <g id="line2d_3">
      <defs>
       <path d="M 0 0 
L -3.5 0 
" id="m3d40fb4dc7" style="stroke:#262626;stroke-width:0.8;"/>
      </defs>
      <g>
       <use style="fill:#262626;stroke:#262626;stroke-width:0.8;" x="38.864063" xlink:href="#m3d40fb4dc7" y="289.203836"/>
      </g>
     </g>
     <g id="text_3">
      <text style="fill:#262626;font-family:Arial;font-size:10px;font-stretch:normal;font-style:normal;font-weight:normal;text-anchor:end;" transform="rotate(-0, 31.864063, 292.782742)" x="31.864063" y="292.782742">−4</text>
     </g>
    </g>
    <g id="ytick_2">
     <g id="line2d_4">
      <g>
       <use style="fill:#262626;stroke:#262626;stroke-width:0.8;" x="38.864063" xlink:href="#m3d40fb4dc7" y="241.73085"/>
      </g>
     </g>
     <g id="text_4">
      <text style="fill:#262626;font-family:Arial;font-size:10px;font-stretch:normal;font-style:normal;font-weight:normal;text-anchor:end;" transform="rotate(-0, 31.864063, 245.309756)" x="31.864063" y="245.309756">−2</text>
     </g>
    </g>
    <g id="ytick_3">
     <g id="line2d_5">
      <g>
       <use style="fill:#262626;stroke:#262626;stroke-width:0.8;" x="38.864063" xlink:href="#m3d40fb4dc7" y="194.257865"/>
      </g>
     </g>
     <g id="text_5">
      <text style="fill:#262626;font-family:Arial;font-size:10px;font-stretch:normal;font-style:normal;font-weight:normal;text-anchor:end;" transform="rotate(-0, 31.864063, 197.836771)" x="31.864063" y="197.836771">0</text>
     </g>
    </g>
    <g id="ytick_4">
     <g id="line2d_6">
      <g>
       <use style="fill:#262626;stroke:#262626;stroke-width:0.8;" x="38.864063" xlink:href="#m3d40fb4dc7" y="146.784879"/>
      </g>
     </g>
     <g id="text_6">
      <text style="fill:#262626;font-family:Arial;font-size:10px;font-stretch:normal;font-style:normal;font-weight:normal;text-anchor:end;" transform="rotate(-0, 31.864063, 150.363785)" x="31.864063" y="150.363785">2</text>
     </g>
    </g>
    <g id="ytick_5">
     <g id="line2d_7">
      <g>
       <use style="fill:#262626;stroke:#262626;stroke-width:0.8;" x="38.864063" xlink:href="#m3d40fb4dc7" y="99.311893"/>
      </g>
     </g>
     <g id="text_7">
      <text style="fill:#262626;font-family:Arial;font-size:10px;font-stretch:normal;font-style:normal;font-weight:normal;text-anchor:end;" transform="rotate(-0, 31.864063, 102.8908)" x="31.864063" y="102.8908">4</text>
     </g>
    </g>
    <g id="ytick_6">
     <g id="line2d_8">
      <g>
       <use style="fill:#262626;stroke:#262626;stroke-width:0.8;" x="38.864063" xlink:href="#m3d40fb4dc7" y="51.838908"/>
      </g>
     </g>
     <g id="text_8">
      <text style="fill:#262626;font-family:Arial;font-size:10px;font-stretch:normal;font-style:normal;font-weight:normal;text-anchor:end;" transform="rotate(-0, 31.864063, 55.417814)" x="31.864063" y="55.417814">6</text>
     </g>
    </g>
    <g id="text_9">
     <text style="fill:#262626;font-family:Arial;font-size:10px;font-stretch:normal;font-style:normal;font-weight:normal;text-anchor:middle;" transform="rotate(-90, 14.357813, 161.38)" x="14.357813" y="161.38">standardized shortest path length</text>
    </g>
   </g>
   <g id="PolyCollection_1">
    <defs>
     <path d="M 142.076694 -38.940444 
L 139.570181 -38.940444 
L 139.006935 -41.537654 
L 138.27142 -44.134864 
L 137.338109 -46.732075 
L 136.180539 -49.329285 
L 134.768471 -51.926495 
L 133.068475 -54.523705 
L 131.052222 -57.120916 
L 128.712471 -59.718126 
L 126.080298 -62.315336 
L 123.233559 -64.912546 
L 120.289631 -67.509757 
L 117.383595 -70.106967 
L 114.640884 -72.704177 
L 112.155696 -75.301388 
L 109.982624 -77.898598 
L 108.142239 -80.495808 
L 106.63549 -83.093018 
L 105.4588 -85.690229 
L 104.612336 -88.287439 
L 104.097919 -90.884649 
L 103.908717 -93.481859 
L 104.016615 -96.07907 
L 104.362882 -98.67628 
L 104.85467 -101.27349 
L 105.367259 -103.870701 
L 105.751486 -106.467911 
L 105.846322 -109.065121 
L 105.496641 -111.662331 
L 104.5756 -114.259542 
L 103.00959 -116.856752 
L 100.800682 -119.453962 
L 98.037785 -122.051172 
L 94.887468 -124.648383 
L 91.562413 -127.245593 
L 88.277394 -129.842803 
L 85.210513 -132.440013 
L 82.483581 -135.037224 
L 80.162936 -137.634434 
L 78.271292 -140.231644 
L 76.800859 -142.828855 
L 75.725234 -145.426065 
L 75.012885 -148.023275 
L 74.642533 -150.620485 
L 74.61373 -153.217696 
L 74.943108 -155.814906 
L 75.643072 -158.412116 
L 76.69202 -161.009326 
L 78.014246 -163.606537 
L 79.485212 -166.203747 
L 80.963181 -168.800957 
L 82.330468 -171.398168 
L 83.520078 -173.995378 
L 84.513303 -176.592588 
L 85.314159 -179.189798 
L 85.921538 -181.787009 
L 86.318367 -184.384219 
L 86.482098 -186.981429 
L 86.406263 -189.578639 
L 86.119313 -192.17585 
L 85.693065 -194.77306 
L 85.239837 -197.37027 
L 84.899083 -199.96748 
L 84.81364 -202.564691 
L 85.098383 -205.161901 
L 85.810607 -207.759111 
L 86.935691 -210.356322 
L 88.397616 -212.953532 
L 90.092288 -215.550742 
L 91.929679 -218.147952 
L 93.86585 -220.745163 
L 95.910613 -223.342373 
L 98.108051 -225.939583 
L 100.500229 -228.536793 
L 103.092755 -231.134004 
L 105.839656 -233.731214 
L 108.654054 -236.328424 
L 111.437084 -238.925635 
L 114.109141 -241.522845 
L 116.629153 -244.120055 
L 118.995906 -246.717265 
L 121.234301 -249.314476 
L 123.374641 -251.911686 
L 125.434168 -254.508896 
L 127.407658 -257.106106 
L 129.26918 -259.703317 
L 130.98207 -262.300527 
L 132.511297 -264.897737 
L 133.833037 -267.494948 
L 134.939323 -270.092158 
L 135.83864 -272.689368 
L 136.554271 -275.286578 
L 137.121334 -277.883789 
L 137.582157 -280.480999 
L 137.979656 -283.078209 
L 138.349659 -285.675419 
L 138.714527 -288.27263 
L 139.080485 -290.86984 
L 139.439686 -293.46705 
L 139.77597 -296.06426 
L 141.870905 -296.06426 
L 141.870905 -296.06426 
L 142.207189 -293.46705 
L 142.56639 -290.86984 
L 142.932348 -288.27263 
L 143.297216 -285.675419 
L 143.667219 -283.078209 
L 144.064718 -280.480999 
L 144.525541 -277.883789 
L 145.092604 -275.286578 
L 145.808235 -272.689368 
L 146.707552 -270.092158 
L 147.813838 -267.494948 
L 149.135578 -264.897737 
L 150.664805 -262.300527 
L 152.377695 -259.703317 
L 154.239217 -257.106106 
L 156.212707 -254.508896 
L 158.272234 -251.911686 
L 160.412574 -249.314476 
L 162.650969 -246.717265 
L 165.017722 -244.120055 
L 167.537734 -241.522845 
L 170.209791 -238.925635 
L 172.992821 -236.328424 
L 175.807219 -233.731214 
L 178.55412 -231.134004 
L 181.146646 -228.536793 
L 183.538824 -225.939583 
L 185.736262 -223.342373 
L 187.781025 -220.745163 
L 189.717196 -218.147952 
L 191.554587 -215.550742 
L 193.249259 -212.953532 
L 194.711184 -210.356322 
L 195.836268 -207.759111 
L 196.548492 -205.161901 
L 196.833235 -202.564691 
L 196.747792 -199.96748 
L 196.407038 -197.37027 
L 195.95381 -194.77306 
L 195.527562 -192.17585 
L 195.240612 -189.578639 
L 195.164777 -186.981429 
L 195.328508 -184.384219 
L 195.725337 -181.787009 
L 196.332716 -179.189798 
L 197.133572 -176.592588 
L 198.126797 -173.995378 
L 199.316407 -171.398168 
L 200.683694 -168.800957 
L 202.161663 -166.203747 
L 203.632629 -163.606537 
L 204.954855 -161.009326 
L 206.003803 -158.412116 
L 206.703767 -155.814906 
L 207.033145 -153.217696 
L 207.004342 -150.620485 
L 206.63399 -148.023275 
L 205.921641 -145.426065 
L 204.846016 -142.828855 
L 203.375583 -140.231644 
L 201.483939 -137.634434 
L 199.163294 -135.037224 
L 196.436362 -132.440013 
L 193.369481 -129.842803 
L 190.084462 -127.245593 
L 186.759407 -124.648383 
L 183.60909 -122.051172 
L 180.846193 -119.453962 
L 178.637285 -116.856752 
L 177.071275 -114.259542 
L 176.150234 -111.662331 
L 175.800553 -109.065121 
L 175.895389 -106.467911 
L 176.279616 -103.870701 
L 176.792205 -101.27349 
L 177.283993 -98.67628 
L 177.63026 -96.07907 
L 177.738158 -93.481859 
L 177.548956 -90.884649 
L 177.034539 -88.287439 
L 176.188075 -85.690229 
L 175.011385 -83.093018 
L 173.504636 -80.495808 
L 171.664251 -77.898598 
L 169.491179 -75.301388 
L 167.005991 -72.704177 
L 164.26328 -70.106967 
L 161.357244 -67.509757 
L 158.413316 -64.912546 
L 155.566577 -62.315336 
L 152.934404 -59.718126 
L 150.594653 -57.120916 
L 148.5784 -54.523705 
L 146.878404 -51.926495 
L 145.466336 -49.329285 
L 144.308766 -46.732075 
L 143.375455 -44.134864 
L 142.63994 -41.537654 
L 142.076694 -38.940444 
z
" id="m458e316d5d" style="stroke:#404040;stroke-width:1.5;"/>
    </defs>
    <g clip-path="url(#p641593bddb)">
     <use style="fill:#5573cd;stroke:#404040;stroke-width:1.5;" x="0" xlink:href="#m458e316d5d" y="338.905312"/>
    </g>
   </g>
   <g id="PolyCollection_2">
    <defs>
     <path d="M 344.817173 -37.361676 
L 344.667202 -37.361676 
L 344.63756 -40.193265 
L 344.594368 -43.024853 
L 344.518457 -45.856442 
L 344.395264 -48.688031 
L 344.226084 -51.519619 
L 344.019542 -54.351208 
L 343.765926 -57.182796 
L 343.4254 -60.014385 
L 342.945793 -62.845974 
L 342.289592 -65.677562 
L 341.450596 -68.509151 
L 340.447769 -71.340739 
L 339.296144 -74.172328 
L 337.988289 -77.003917 
L 336.516475 -79.835505 
L 334.929402 -82.667094 
L 333.362679 -85.498683 
L 331.942048 -88.330271 
L 330.625408 -91.16186 
L 329.251683 -93.993448 
L 327.810681 -96.825037 
L 326.563096 -99.656626 
L 325.828627 -102.488214 
L 325.708292 -105.319803 
L 326.015973 -108.151391 
L 326.400462 -110.98298 
L 326.492479 -113.814569 
L 325.958419 -116.646157 
L 324.51653 -119.477746 
L 322.046017 -122.309335 
L 318.680114 -125.140923 
L 314.684795 -127.972512 
L 310.251277 -130.8041 
L 305.450509 -133.635689 
L 300.346552 -136.467278 
L 295.142141 -139.298866 
L 290.236225 -142.130455 
L 286.066838 -144.962043 
L 282.843985 -147.793632 
L 280.513941 -150.625221 
L 278.953502 -153.456809 
L 277.993058 -156.288398 
L 277.261667 -159.119987 
L 276.317575 -161.951575 
L 275.048366 -164.783164 
L 273.73185 -167.614752 
L 272.636609 -170.446341 
L 271.746109 -173.27793 
L 270.879926 -176.109518 
L 269.89768 -178.941107 
L 268.785274 -181.772695 
L 267.692737 -184.604284 
L 266.84125 -187.435873 
L 266.249918 -190.267461 
L 265.648258 -193.09905 
L 264.797127 -195.930638 
L 263.823224 -198.762227 
L 263.174688 -201.593816 
L 263.305716 -204.425404 
L 264.417665 -207.256993 
L 266.449224 -210.088582 
L 269.217229 -212.92017 
L 272.46514 -215.751759 
L 275.82528 -218.583347 
L 278.948706 -221.414936 
L 281.833936 -224.246525 
L 284.927549 -227.078113 
L 288.681109 -229.909702 
L 293.060635 -232.74129 
L 297.671039 -235.572879 
L 302.224945 -238.404468 
L 306.684413 -241.236056 
L 311.066789 -244.067645 
L 315.299422 -246.899234 
L 319.241034 -249.730822 
L 322.756365 -252.562411 
L 325.770313 -255.393999 
L 328.317883 -258.225588 
L 330.552961 -261.057177 
L 332.633208 -263.888765 
L 334.570338 -266.720354 
L 336.250803 -269.551942 
L 337.616958 -272.383531 
L 338.75822 -275.21512 
L 339.797594 -278.046708 
L 340.75786 -280.878297 
L 341.583968 -283.709886 
L 342.246825 -286.541474 
L 342.768691 -289.373063 
L 343.175875 -292.204651 
L 343.483722 -295.03624 
L 343.718653 -297.867829 
L 343.918758 -300.699417 
L 344.10962 -303.531006 
L 344.287331 -306.362594 
L 344.428413 -309.194183 
L 344.520543 -312.025772 
L 344.578616 -314.85736 
L 344.62596 -317.688949 
L 344.858415 -317.688949 
L 344.858415 -317.688949 
L 344.905759 -314.85736 
L 344.963832 -312.025772 
L 345.055962 -309.194183 
L 345.197044 -306.362594 
L 345.374755 -303.531006 
L 345.565617 -300.699417 
L 345.765722 -297.867829 
L 346.000653 -295.03624 
L 346.3085 -292.204651 
L 346.715684 -289.373063 
L 347.23755 -286.541474 
L 347.900407 -283.709886 
L 348.726515 -280.878297 
L 349.686781 -278.046708 
L 350.726155 -275.21512 
L 351.867417 -272.383531 
L 353.233572 -269.551942 
L 354.914037 -266.720354 
L 356.851167 -263.888765 
L 358.931414 -261.057177 
L 361.166492 -258.225588 
L 363.714062 -255.393999 
L 366.72801 -252.562411 
L 370.243341 -249.730822 
L 374.184953 -246.899234 
L 378.417586 -244.067645 
L 382.799962 -241.236056 
L 387.25943 -238.404468 
L 391.813336 -235.572879 
L 396.42374 -232.74129 
L 400.803266 -229.909702 
L 404.556826 -227.078113 
L 407.650439 -224.246525 
L 410.535669 -221.414936 
L 413.659095 -218.583347 
L 417.019235 -215.751759 
L 420.267146 -212.92017 
L 423.035151 -210.088582 
L 425.06671 -207.256993 
L 426.178659 -204.425404 
L 426.309687 -201.593816 
L 425.661151 -198.762227 
L 424.687248 -195.930638 
L 423.836117 -193.09905 
L 423.234457 -190.267461 
L 422.643125 -187.435873 
L 421.791638 -184.604284 
L 420.699101 -181.772695 
L 419.586695 -178.941107 
L 418.604449 -176.109518 
L 417.738266 -173.27793 
L 416.847766 -170.446341 
L 415.752525 -167.614752 
L 414.436009 -164.783164 
L 413.1668 -161.951575 
L 412.222708 -159.119987 
L 411.491317 -156.288398 
L 410.530873 -153.456809 
L 408.970434 -150.625221 
L 406.64039 -147.793632 
L 403.417537 -144.962043 
L 399.24815 -142.130455 
L 394.342234 -139.298866 
L 389.137823 -136.467278 
L 384.033866 -133.635689 
L 379.233098 -130.8041 
L 374.79958 -127.972512 
L 370.804261 -125.140923 
L 367.438358 -122.309335 
L 364.967845 -119.477746 
L 363.525956 -116.646157 
L 362.991896 -113.814569 
L 363.083913 -110.98298 
L 363.468402 -108.151391 
L 363.776083 -105.319803 
L 363.655748 -102.488214 
L 362.921279 -99.656626 
L 361.673694 -96.825037 
L 360.232692 -93.993448 
L 358.858967 -91.16186 
L 357.542327 -88.330271 
L 356.121696 -85.498683 
L 354.554973 -82.667094 
L 352.9679 -79.835505 
L 351.496086 -77.003917 
L 350.188231 -74.172328 
L 349.036606 -71.340739 
L 348.033779 -68.509151 
L 347.194783 -65.677562 
L 346.538582 -62.845974 
L 346.058975 -60.014385 
L 345.718449 -57.182796 
L 345.464833 -54.351208 
L 345.258291 -51.519619 
L 345.089111 -48.688031 
L 344.965918 -45.856442 
L 344.890007 -43.024853 
L 344.846815 -40.193265 
L 344.817173 -37.361676 
z
" id="m1d84f48e07" style="stroke:#404040;stroke-width:1.5;"/>
    </defs>
    <g clip-path="url(#p641593bddb)">
     <use style="fill:#a03434;stroke:#404040;stroke-width:1.5;" x="0" xlink:href="#m1d84f48e07" y="338.905312"/>
    </g>
   </g>
   <g id="line2d_9">
    <path clip-path="url(#p641593bddb)" d="M 92.055023 211.897277 
L 189.591852 211.897277 
" style="fill:none;stroke:#404040;stroke-dasharray:3.375,3.375;stroke-dashoffset:0;stroke-width:1.5;"/>
   </g>
   <g id="line2d_10">
    <path clip-path="url(#p641593bddb)" d="M 77.333334 176.841202 
L 204.313541 176.841202 
" style="fill:none;stroke:#404040;stroke-dasharray:6.75,6.75;stroke-dashoffset:0;stroke-width:1.5;"/>
   </g>
   <g id="line2d_11">
    <path clip-path="url(#p641593bddb)" d="M 85.373738 136.197827 
L 196.273137 136.197827 
" style="fill:none;stroke:#404040;stroke-dasharray:3.375,3.375;stroke-dashoffset:0;stroke-width:1.5;"/>
   </g>
   <g id="line2d_12">
    <path clip-path="url(#p641593bddb)" d="M 279.611389 184.901749 
L 409.872986 184.901749 
" style="fill:none;stroke:#404040;stroke-dasharray:3.375,3.375;stroke-dashoffset:0;stroke-width:1.5;"/>
   </g>
   <g id="line2d_13">
    <path clip-path="url(#p641593bddb)" d="M 268.463231 153.221989 
L 421.021144 153.221989 
" style="fill:none;stroke:#404040;stroke-dasharray:6.75,6.75;stroke-dashoffset:0;stroke-width:1.5;"/>
   </g>
   <g id="line2d_14">
    <path clip-path="url(#p641593bddb)" d="M 269.972479 125.039629 
L 419.511896 125.039629 
" style="fill:none;stroke:#404040;stroke-dasharray:3.375,3.375;stroke-dashoffset:0;stroke-width:1.5;"/>
   </g>
   <g id="patch_3">
    <path d="M 38.864063 289.203836 
L 38.864063 51.838908 
" style="fill:none;stroke:#262626;stroke-linecap:square;stroke-linejoin:miter;stroke-width:0.8;"/>
   </g>
   <g id="patch_4">
    <path d="M 140.823438 315.56 
L 344.742188 315.56 
" style="fill:none;stroke:#262626;stroke-linecap:square;stroke-linejoin:miter;stroke-width:0.8;"/>
   </g>
   <g id="text_10">
    <text style="fill:#262626;font-family:Arial;font-size:10px;font-stretch:normal;font-style:normal;font-weight:normal;text-anchor:middle;" transform="rotate(-0, 242.782813, 19.228864)" x="242.782813" y="19.228864">*</text>
   </g>
  </g>
 </g>
 <defs>
  <clipPath id="p641593bddb">
   <rect height="308.36" width="407.8375" x="38.864063" y="7.2"/>
  </clipPath>
 </defs>
</svg>
