<?xml version="1.0" encoding="utf-8" standalone="no"?>
<!DOCTYPE svg PUBLIC "-//W3C//DTD SVG 1.1//EN"
  "http://www.w3.org/Graphics/SVG/1.1/DTD/svg11.dtd">
<svg height="337.998125pt" version="1.1" viewBox="0 0 453.270312 337.998125" width="453.270312pt" xmlns="http://www.w3.org/2000/svg" xmlns:xlink="http://www.w3.org/1999/xlink">
 <metadata>
  <rdf:RDF xmlns:cc="http://creativecommons.org/ns#" xmlns:dc="http://purl.org/dc/elements/1.1/" xmlns:rdf="http://www.w3.org/1999/02/22-rdf-syntax-ns#">
   <cc:Work>
    <dc:type rdf:resource="http://purl.org/dc/dcmitype/StillImage"/>
    <dc:date>2022-09-28T03:40:18.563410</dc:date>
    <dc:format>image/svg+xml</dc:format>
    <dc:creator>
     <cc:Agent>
      <dc:title>Matplotlib v3.4.3, https://matplotlib.org/</dc:title>
     </cc:Agent>
    </dc:creator>
   </cc:Work>
  </rdf:RDF>
 </metadata>
 <defs>
  <style type="text/css">*{stroke-linecap:butt;stroke-linejoin:round;}</style>
 </defs>
 <g id="figure_1">
  <g id="patch_1">
   <path d="M 0 337.998125 
L 453.270312 337.998125 
L 453.270312 0 
L 0 0 
z
" style="fill:#ffffff;"/>
  </g>
  <g id="axes_1">
   <g id="patch_2">
    <path d="M 42.620313 314.12 
L 446.070312 314.12 
L 446.070312 7.2 
L 42.620313 7.2 
z
" style="fill:#ffffff;"/>
   </g>
   <g id="matplotlib.axis_1">
    <g id="xtick_1">
     <g id="line2d_1">
      <defs>
       <path d="M 0 0 
L 0 3.5 
" id="m892bdcb72c" style="stroke:#262626;stroke-width:0.8;"/>
      </defs>
      <g>
       <use style="fill:#262626;stroke:#262626;stroke-width:0.8;" x="143.482813" xlink:href="#m892bdcb72c" y="314.12"/>
      </g>
     </g>
     <g id="text_1">
      <text style="fill:#262626;font-family:DejaVu Sans;font-size:10px;font-stretch:normal;font-style:normal;font-weight:normal;text-anchor:middle;" transform="rotate(-0, 143.482813, 328.718437)" x="143.482813" y="328.718437">within network</text>
     </g>
    </g>
    <g id="xtick_2">
     <g id="line2d_2">
      <g>
       <use style="fill:#262626;stroke:#262626;stroke-width:0.8;" x="345.207813" xlink:href="#m892bdcb72c" y="314.12"/>
      </g>
     </g>
     <g id="text_2">
      <text style="fill:#262626;font-family:DejaVu Sans;font-size:10px;font-stretch:normal;font-style:normal;font-weight:normal;text-anchor:middle;" transform="rotate(-0, 345.207813, 328.718437)" x="345.207813" y="328.718437">between network</text>
     </g>
    </g>
   </g>
   <g id="matplotlib.axis_2">
    <g id="ytick_1">
     <g id="line2d_3">
      <defs>
       <path d="M 0 0 
L -3.5 0 
" id="mc4f0f1e725" style="stroke:#262626;stroke-width:0.8;"/>
      </defs>
      <g>
       <use style="fill:#262626;stroke:#262626;stroke-width:0.8;" x="42.620313" xlink:href="#mc4f0f1e725" y="287.886915"/>
      </g>
     </g>
     <g id="text_3">
      <text style="fill:#262626;font-family:DejaVu Sans;font-size:10px;font-stretch:normal;font-style:normal;font-weight:normal;text-anchor:end;" transform="rotate(-0, 35.620313, 291.686134)" x="35.620313" y="291.686134">−4</text>
     </g>
    </g>
    <g id="ytick_2">
     <g id="line2d_4">
      <g>
       <use style="fill:#262626;stroke:#262626;stroke-width:0.8;" x="42.620313" xlink:href="#mc4f0f1e725" y="240.635622"/>
      </g>
     </g>
     <g id="text_4">
      <text style="fill:#262626;font-family:DejaVu Sans;font-size:10px;font-stretch:normal;font-style:normal;font-weight:normal;text-anchor:end;" transform="rotate(-0, 35.620313, 244.434841)" x="35.620313" y="244.434841">−2</text>
     </g>
    </g>
    <g id="ytick_3">
     <g id="line2d_5">
      <g>
       <use style="fill:#262626;stroke:#262626;stroke-width:0.8;" x="42.620313" xlink:href="#mc4f0f1e725" y="193.384329"/>
      </g>
     </g>
     <g id="text_5">
      <text style="fill:#262626;font-family:DejaVu Sans;font-size:10px;font-stretch:normal;font-style:normal;font-weight:normal;text-anchor:end;" transform="rotate(-0, 35.620313, 197.183548)" x="35.620313" y="197.183548">0</text>
     </g>
    </g>
    <g id="ytick_4">
     <g id="line2d_6">
      <g>
       <use style="fill:#262626;stroke:#262626;stroke-width:0.8;" x="42.620313" xlink:href="#mc4f0f1e725" y="146.133036"/>
      </g>
     </g>
     <g id="text_6">
      <text style="fill:#262626;font-family:DejaVu Sans;font-size:10px;font-stretch:normal;font-style:normal;font-weight:normal;text-anchor:end;" transform="rotate(-0, 35.620313, 149.932255)" x="35.620313" y="149.932255">2</text>
     </g>
    </g>
    <g id="ytick_5">
     <g id="line2d_7">
      <g>
       <use style="fill:#262626;stroke:#262626;stroke-width:0.8;" x="42.620313" xlink:href="#mc4f0f1e725" y="98.881743"/>
      </g>
     </g>
     <g id="text_7">
      <text style="fill:#262626;font-family:DejaVu Sans;font-size:10px;font-stretch:normal;font-style:normal;font-weight:normal;text-anchor:end;" transform="rotate(-0, 35.620313, 102.680962)" x="35.620313" y="102.680962">4</text>
     </g>
    </g>
    <g id="ytick_6">
     <g id="line2d_8">
      <g>
       <use style="fill:#262626;stroke:#262626;stroke-width:0.8;" x="42.620313" xlink:href="#mc4f0f1e725" y="51.63045"/>
      </g>
     </g>
     <g id="text_8">
      <text style="fill:#262626;font-family:DejaVu Sans;font-size:10px;font-stretch:normal;font-style:normal;font-weight:normal;text-anchor:end;" transform="rotate(-0, 35.620313, 55.429669)" x="35.620313" y="55.429669">6</text>
     </g>
    </g>
    <g id="text_9">
     <text style="fill:#262626;font-family:DejaVu Sans;font-size:10px;font-stretch:normal;font-style:normal;font-weight:normal;text-anchor:middle;" transform="rotate(-90, 14.798438, 160.66)" x="14.798438" y="160.66">standardized shortest path length</text>
    </g>
   </g>
   <g id="PolyCollection_1">
    <defs>
     <path d="M 144.722586 -39.400429 
L 142.243039 -39.400429 
L 141.685851 -41.985511 
L 140.95825 -44.570592 
L 140.034979 -47.155674 
L 138.889862 -49.740756 
L 137.492985 -52.325837 
L 135.811278 -54.910919 
L 133.816715 -57.496001 
L 131.502136 -60.081082 
L 128.898279 -62.666164 
L 126.082166 -65.251246 
L 123.169908 -67.836327 
L 120.295135 -70.421409 
L 117.58193 -73.00649 
L 115.123477 -75.591572 
L 112.973783 -78.176654 
L 111.153197 -80.761735 
L 109.662657 -83.346817 
L 108.498627 -85.931899 
L 107.661269 -88.51698 
L 107.152386 -91.102062 
L 106.965219 -93.687144 
L 107.071956 -96.272225 
L 107.414498 -98.857307 
L 107.900995 -101.442389 
L 108.40807 -104.02747 
L 108.788163 -106.612552 
L 108.881979 -109.197633 
L 108.53606 -111.782715 
L 107.624928 -114.367797 
L 106.075765 -116.952878 
L 103.89062 -119.53796 
L 101.157446 -122.123042 
L 98.041021 -124.708123 
L 94.751736 -127.293205 
L 91.502058 -129.878287 
L 88.468169 -132.463368 
L 85.770574 -135.04845 
L 83.474895 -137.633532 
L 81.6036 -140.218613 
L 80.148986 -142.803695 
L 79.084933 -145.388777 
L 78.380248 -147.973858 
L 78.013879 -150.55894 
L 77.985386 -153.144021 
L 78.311221 -155.729103 
L 79.003655 -158.314185 
L 80.041318 -160.899266 
L 81.34932 -163.484348 
L 82.804461 -166.06943 
L 84.26653 -168.654511 
L 85.619108 -171.239593 
L 86.79592 -173.824675 
L 87.77846 -176.409756 
L 88.570701 -178.994838 
L 89.171546 -181.57992 
L 89.564106 -184.165001 
L 89.726075 -186.750083 
L 89.651055 -189.335164 
L 89.367193 -191.920246 
L 88.94553 -194.505328 
L 88.497178 -197.090409 
L 88.16009 -199.675491 
L 88.075566 -202.260573 
L 88.357246 -204.845654 
L 89.061808 -207.430736 
L 90.174789 -210.015818 
L 91.620986 -212.600899 
L 93.297427 -215.185981 
L 95.115051 -217.771063 
L 97.030393 -220.356144 
L 99.053158 -222.941226 
L 101.226957 -225.526308 
L 103.593399 -228.111389 
L 106.158036 -230.696471 
L 108.875385 -233.281552 
L 111.659506 -235.866634 
L 114.412596 -238.451716 
L 117.055908 -241.036797 
L 119.548809 -243.621879 
L 121.890101 -246.206961 
L 124.104415 -248.792042 
L 126.221729 -251.377124 
L 128.2591 -253.962206 
L 130.21136 -256.547287 
L 132.052856 -259.132369 
L 133.747318 -261.717451 
L 135.260094 -264.302532 
L 136.567614 -266.887614 
L 137.662 -269.472695 
L 138.551641 -272.057777 
L 139.259573 -274.642859 
L 139.820536 -277.22794 
L 140.276401 -279.813022 
L 140.669624 -282.398104 
L 141.035647 -284.983185 
L 141.396589 -287.568267 
L 141.75861 -290.153349 
L 142.113947 -292.73843 
L 142.446613 -295.323512 
L 144.519012 -295.323512 
L 144.519012 -295.323512 
L 144.851678 -292.73843 
L 145.207015 -290.153349 
L 145.569036 -287.568267 
L 145.929978 -284.983185 
L 146.296001 -282.398104 
L 146.689224 -279.813022 
L 147.145089 -277.22794 
L 147.706052 -274.642859 
L 148.413984 -272.057777 
L 149.303625 -269.472695 
L 150.398011 -266.887614 
L 151.705531 -264.302532 
L 153.218307 -261.717451 
L 154.912769 -259.132369 
L 156.754265 -256.547287 
L 158.706525 -253.962206 
L 160.743896 -251.377124 
L 162.86121 -248.792042 
L 165.075524 -246.206961 
L 167.416816 -243.621879 
L 169.909717 -241.036797 
L 172.553029 -238.451716 
L 175.306119 -235.866634 
L 178.09024 -233.281552 
L 180.807589 -230.696471 
L 183.372226 -228.111389 
L 185.738668 -225.526308 
L 187.912467 -222.941226 
L 189.935232 -220.356144 
L 191.850574 -217.771063 
L 193.668198 -215.185981 
L 195.344639 -212.600899 
L 196.790836 -210.015818 
L 197.903817 -207.430736 
L 198.608379 -204.845654 
L 198.890059 -202.260573 
L 198.805535 -199.675491 
L 198.468447 -197.090409 
L 198.020095 -194.505328 
L 197.598432 -191.920246 
L 197.31457 -189.335164 
L 197.23955 -186.750083 
L 197.401519 -184.165001 
L 197.794079 -181.57992 
L 198.394924 -178.994838 
L 199.187165 -176.409756 
L 200.169705 -173.824675 
L 201.346517 -171.239593 
L 202.699095 -168.654511 
L 204.161164 -166.06943 
L 205.616305 -163.484348 
L 206.924307 -160.899266 
L 207.96197 -158.314185 
L 208.654404 -155.729103 
L 208.980239 -153.144021 
L 208.951746 -150.55894 
L 208.585377 -147.973858 
L 207.880692 -145.388777 
L 206.816639 -142.803695 
L 205.362025 -140.218613 
L 203.49073 -137.633532 
L 201.195051 -135.04845 
L 198.497456 -132.463368 
L 195.463567 -129.878287 
L 192.213889 -127.293205 
L 188.924604 -124.708123 
L 185.808179 -122.123042 
L 183.075005 -119.53796 
L 180.88986 -116.952878 
L 179.340697 -114.367797 
L 178.429565 -111.782715 
L 178.083646 -109.197633 
L 178.177462 -106.612552 
L 178.557555 -104.02747 
L 179.06463 -101.442389 
L 179.551127 -98.857307 
L 179.893669 -96.272225 
L 180.000406 -93.687144 
L 179.813239 -91.102062 
L 179.304356 -88.51698 
L 178.466998 -85.931899 
L 177.302968 -83.346817 
L 175.812428 -80.761735 
L 173.991842 -78.176654 
L 171.842148 -75.591572 
L 169.383695 -73.00649 
L 166.67049 -70.421409 
L 163.795717 -67.836327 
L 160.883459 -65.251246 
L 158.067346 -62.666164 
L 155.463489 -60.081082 
L 153.14891 -57.496001 
L 151.154347 -54.910919 
L 149.47264 -52.325837 
L 148.075763 -49.740756 
L 146.930646 -47.155674 
L 146.007375 -44.570592 
L 145.279774 -41.985511 
L 144.722586 -39.400429 
z
" id="m42e1ad360c" style="stroke:#404040;stroke-width:1.5;"/>
    </defs>
    <g clip-path="url(#pca4b93ab60)">
     <use style="fill:#5573cd;stroke:#404040;stroke-width:1.5;" x="0" xlink:href="#m42e1ad360c" y="337.998125"/>
    </g>
   </g>
   <g id="PolyCollection_2">
    <defs>
     <path d="M 345.281992 -37.829034 
L 345.133633 -37.829034 
L 345.104311 -40.6474 
L 345.061583 -43.465765 
L 344.986489 -46.284131 
L 344.864622 -49.102496 
L 344.697261 -51.920861 
L 344.492941 -54.739227 
L 344.242053 -57.557592 
L 343.905191 -60.375958 
L 343.430743 -63.194323 
L 342.781602 -66.012689 
L 341.951631 -68.831054 
L 340.959594 -71.64942 
L 339.820357 -74.467785 
L 338.526572 -77.286151 
L 337.070592 -80.104516 
L 335.500592 -82.922882 
L 333.950724 -85.741247 
L 332.545376 -88.559613 
L 331.2429 -91.377978 
L 329.883955 -94.196344 
L 328.458455 -97.014709 
L 327.224291 -99.833074 
L 326.497723 -102.65144 
L 326.378682 -105.469805 
L 326.683053 -108.288171 
L 327.063407 -111.106536 
L 327.154434 -113.924902 
L 326.626119 -116.743267 
L 325.199742 -119.561633 
L 322.755806 -122.379998 
L 319.426113 -125.198364 
L 315.473776 -128.016729 
L 311.087954 -130.835095 
L 306.338832 -133.65346 
L 301.289784 -136.471826 
L 296.141361 -139.290191 
L 291.288223 -142.108557 
L 287.16369 -144.926922 
L 283.975508 -147.745288 
L 281.670531 -150.563653 
L 280.12688 -153.382018 
L 279.176767 -156.200384 
L 278.453245 -159.018749 
L 277.519309 -161.837115 
L 276.263754 -164.65548 
L 274.961402 -167.473846 
L 273.877943 -170.292211 
L 272.997023 -173.110577 
L 272.140158 -175.928942 
L 271.168479 -178.747308 
L 270.06804 -181.565673 
L 268.987257 -184.384039 
L 268.14493 -187.202404 
L 267.55996 -190.02077 
L 266.964773 -192.839135 
L 266.122798 -195.657501 
L 265.159372 -198.475866 
L 264.517812 -201.294232 
L 264.647432 -204.112597 
L 265.747418 -206.930962 
L 267.757121 -209.749328 
L 270.495349 -212.567693 
L 273.708319 -215.386059 
L 277.03231 -218.204424 
L 280.122135 -221.02279 
L 282.976325 -223.841155 
L 286.036658 -226.659521 
L 289.749837 -229.477886 
L 294.082248 -232.296252 
L 298.643054 -235.114617 
L 303.147969 -237.932983 
L 307.559462 -240.751348 
L 311.894693 -243.569714 
L 316.081791 -246.388079 
L 319.980999 -249.206445 
L 323.458512 -252.02481 
L 326.440036 -254.843176 
L 328.9602 -257.661541 
L 331.171234 -260.479906 
L 333.229101 -263.298272 
L 335.145391 -266.116637 
L 336.807778 -268.935003 
L 338.159236 -271.753368 
L 339.28822 -274.571734 
L 340.316413 -277.390099 
L 341.266348 -280.208465 
L 342.083569 -283.02683 
L 342.739295 -285.845196 
L 343.255547 -288.663561 
L 343.65835 -291.481927 
L 343.962885 -294.300292 
L 344.195289 -297.118658 
L 344.393242 -299.937023 
L 344.58205 -302.755389 
L 344.75785 -305.573754 
L 344.897414 -308.392119 
L 344.988552 -311.210485 
L 345.046001 -314.02885 
L 345.092835 -316.847216 
L 345.32279 -316.847216 
L 345.32279 -316.847216 
L 345.369624 -314.02885 
L 345.427073 -311.210485 
L 345.518211 -308.392119 
L 345.657775 -305.573754 
L 345.833575 -302.755389 
L 346.022383 -299.937023 
L 346.220336 -297.118658 
L 346.45274 -294.300292 
L 346.757275 -291.481927 
L 347.160078 -288.663561 
L 347.67633 -285.845196 
L 348.332056 -283.02683 
L 349.149277 -280.208465 
L 350.099212 -277.390099 
L 351.127405 -274.571734 
L 352.256389 -271.753368 
L 353.607847 -268.935003 
L 355.270234 -266.116637 
L 357.186524 -263.298272 
L 359.244391 -260.479906 
L 361.455425 -257.661541 
L 363.975589 -254.843176 
L 366.957113 -252.02481 
L 370.434626 -249.206445 
L 374.333834 -246.388079 
L 378.520932 -243.569714 
L 382.856163 -240.751348 
L 387.267656 -237.932983 
L 391.772571 -235.114617 
L 396.333377 -232.296252 
L 400.665788 -229.477886 
L 404.378967 -226.659521 
L 407.4393 -223.841155 
L 410.29349 -221.02279 
L 413.383315 -218.204424 
L 416.707306 -215.386059 
L 419.920276 -212.567693 
L 422.658504 -209.749328 
L 424.668207 -206.930962 
L 425.768193 -204.112597 
L 425.897812 -201.294232 
L 425.256253 -198.475866 
L 424.292827 -195.657501 
L 423.450852 -192.839135 
L 422.855665 -190.02077 
L 422.270695 -187.202404 
L 421.428368 -184.384039 
L 420.347585 -181.565673 
L 419.247146 -178.747308 
L 418.275467 -175.928942 
L 417.418602 -173.110577 
L 416.537682 -170.292211 
L 415.454223 -167.473846 
L 414.151871 -164.65548 
L 412.896316 -161.837115 
L 411.96238 -159.018749 
L 411.238858 -156.200384 
L 410.288745 -153.382018 
L 408.745094 -150.563653 
L 406.440117 -147.745288 
L 403.251935 -144.926922 
L 399.127402 -142.108557 
L 394.274264 -139.290191 
L 389.125841 -136.471826 
L 384.076793 -133.65346 
L 379.327671 -130.835095 
L 374.941849 -128.016729 
L 370.989512 -125.198364 
L 367.659819 -122.379998 
L 365.215883 -119.561633 
L 363.789506 -116.743267 
L 363.261191 -113.924902 
L 363.352218 -111.106536 
L 363.732572 -108.288171 
L 364.036943 -105.469805 
L 363.917902 -102.65144 
L 363.191334 -99.833074 
L 361.95717 -97.014709 
L 360.53167 -94.196344 
L 359.172725 -91.377978 
L 357.870249 -88.559613 
L 356.464901 -85.741247 
L 354.915033 -82.922882 
L 353.345033 -80.104516 
L 351.889053 -77.286151 
L 350.595268 -74.467785 
L 349.456031 -71.64942 
L 348.463994 -68.831054 
L 347.634023 -66.012689 
L 346.984882 -63.194323 
L 346.510434 -60.375958 
L 346.173572 -57.557592 
L 345.922684 -54.739227 
L 345.718364 -51.920861 
L 345.551003 -49.102496 
L 345.429136 -46.284131 
L 345.354042 -43.465765 
L 345.311314 -40.6474 
L 345.281992 -37.829034 
z
" id="m3431c0520a" style="stroke:#404040;stroke-width:1.5;"/>
    </defs>
    <g clip-path="url(#pca4b93ab60)">
     <use style="fill:#a03434;stroke:#404040;stroke-width:1.5;" x="0" xlink:href="#m3431c0520a" y="337.998125"/>
    </g>
   </g>
   <g id="line2d_9">
    <path clip-path="url(#pca4b93ab60)" d="M 95.239047 210.941369 
L 191.726578 210.941369 
" style="fill:none;stroke:#404040;stroke-dasharray:3.375,3.375;stroke-dashoffset:0;stroke-width:1.5;"/>
   </g>
   <g id="line2d_10">
    <path clip-path="url(#pca4b93ab60)" d="M 80.675733 176.049 
L 206.289892 176.049 
" style="fill:none;stroke:#404040;stroke-dasharray:6.75,6.75;stroke-dashoffset:0;stroke-width:1.5;"/>
   </g>
   <g id="line2d_11">
    <path clip-path="url(#pca4b93ab60)" d="M 88.629638 135.595424 
L 198.335987 135.595424 
" style="fill:none;stroke:#404040;stroke-dasharray:3.375,3.375;stroke-dashoffset:0;stroke-width:1.5;"/>
   </g>
   <g id="line2d_12">
    <path clip-path="url(#pca4b93ab60)" d="M 280.777689 184.071906 
L 409.637936 184.071906 
" style="fill:none;stroke:#404040;stroke-dasharray:3.375,3.375;stroke-dashoffset:0;stroke-width:1.5;"/>
   </g>
   <g id="line2d_13">
    <path clip-path="url(#pca4b93ab60)" d="M 269.749462 152.540086 
L 420.666163 152.540086 
" style="fill:none;stroke:#404040;stroke-dasharray:6.75,6.75;stroke-dashoffset:0;stroke-width:1.5;"/>
   </g>
   <g id="line2d_14">
    <path clip-path="url(#pca4b93ab60)" d="M 271.242473 124.489334 
L 419.173152 124.489334 
" style="fill:none;stroke:#404040;stroke-dasharray:3.375,3.375;stroke-dashoffset:0;stroke-width:1.5;"/>
   </g>
   <g id="patch_3">
    <path d="M 42.620313 287.886915 
L 42.620313 51.63045 
" style="fill:none;stroke:#262626;stroke-linecap:square;stroke-linejoin:miter;stroke-width:0.8;"/>
   </g>
   <g id="patch_4">
    <path d="M 143.482813 314.12 
L 345.207813 314.12 
" style="fill:none;stroke:#262626;stroke-linecap:square;stroke-linejoin:miter;stroke-width:0.8;"/>
   </g>
   <g id="text_10">
    <text style="fill:#262626;font-family:DejaVu Sans;font-size:10px;font-stretch:normal;font-style:normal;font-weight:normal;text-anchor:middle;" transform="rotate(-0, 244.345313, 19.071222)" x="244.345313" y="19.071222">*</text>
   </g>
  </g>
 </g>
 <defs>
  <clipPath id="pca4b93ab60">
   <rect height="306.92" width="403.45" x="42.620313" y="7.2"/>
  </clipPath>
 </defs>
</svg>
