<?xml version="1.0" encoding="utf-8" standalone="no"?>
<!DOCTYPE svg PUBLIC "-//W3C//DTD SVG 1.1//EN"
  "http://www.w3.org/Graphics/SVG/1.1/DTD/svg11.dtd">
<svg height="337.998125pt" version="1.1" viewBox="0 0 453.360937 337.998125" width="453.360937pt" xmlns="http://www.w3.org/2000/svg" xmlns:xlink="http://www.w3.org/1999/xlink">
 <metadata>
  <rdf:RDF xmlns:cc="http://creativecommons.org/ns#" xmlns:dc="http://purl.org/dc/elements/1.1/" xmlns:rdf="http://www.w3.org/1999/02/22-rdf-syntax-ns#">
   <cc:Work>
    <dc:type rdf:resource="http://purl.org/dc/dcmitype/StillImage"/>
    <dc:date>2022-09-28T03:51:12.377674</dc:date>
    <dc:format>image/svg+xml</dc:format>
    <dc:creator>
     <cc:Agent>
      <dc:title>Matplotlib v3.4.3, https://matplotlib.org/</dc:title>
     </cc:Agent>
    </dc:creator>
   </cc:Work>
  </rdf:RDF>
 </metadata>
 <defs>
  <style type="text/css">*{stroke-linecap:butt;stroke-linejoin:round;}</style>
 </defs>
 <g id="figure_1">
  <g id="patch_1">
   <path d="M 0 337.998125 
L 453.360937 337.998125 
L 453.360937 0 
L 0 0 
z
" style="fill:#ffffff;"/>
  </g>
  <g id="axes_1">
   <g id="patch_2">
    <path d="M 52.160938 314.12 
L 446.160937 314.12 
L 446.160937 7.2 
L 52.160938 7.2 
z
" style="fill:#ffffff;"/>
   </g>
   <g id="matplotlib.axis_1">
    <g id="xtick_1">
     <g id="line2d_1">
      <defs>
       <path d="M 0 0 
L 0 3.5 
" id="m91ba60b9c8" style="stroke:#262626;stroke-width:0.8;"/>
      </defs>
      <g>
       <use style="fill:#262626;stroke:#262626;stroke-width:0.8;" x="150.660938" xlink:href="#m91ba60b9c8" y="314.12"/>
      </g>
     </g>
     <g id="text_1">
      <text style="fill:#262626;font-family:DejaVu Sans;font-size:10px;font-stretch:normal;font-style:normal;font-weight:normal;text-anchor:middle;" transform="rotate(-0, 150.660938, 328.718437)" x="150.660938" y="328.718437">within network</text>
     </g>
    </g>
    <g id="xtick_2">
     <g id="line2d_2">
      <g>
       <use style="fill:#262626;stroke:#262626;stroke-width:0.8;" x="347.660938" xlink:href="#m91ba60b9c8" y="314.12"/>
      </g>
     </g>
     <g id="text_2">
      <text style="fill:#262626;font-family:DejaVu Sans;font-size:10px;font-stretch:normal;font-style:normal;font-weight:normal;text-anchor:middle;" transform="rotate(-0, 347.660938, 328.718437)" x="347.660938" y="328.718437">between network</text>
     </g>
    </g>
   </g>
   <g id="matplotlib.axis_2">
    <g id="ytick_1">
     <g id="line2d_3">
      <defs>
       <path d="M 0 0 
L -3.5 0 
" id="me4951b54fa" style="stroke:#262626;stroke-width:0.8;"/>
      </defs>
      <g>
       <use style="fill:#262626;stroke:#262626;stroke-width:0.8;" x="52.160938" xlink:href="#me4951b54fa" y="311.410572"/>
      </g>
     </g>
     <g id="text_3">
      <text style="fill:#262626;font-family:DejaVu Sans;font-size:10px;font-stretch:normal;font-style:normal;font-weight:normal;text-anchor:end;" transform="rotate(-0, 45.160938, 315.209791)" x="45.160938" y="315.209791">−7.5</text>
     </g>
    </g>
    <g id="ytick_2">
     <g id="line2d_4">
      <g>
       <use style="fill:#262626;stroke:#262626;stroke-width:0.8;" x="52.160938" xlink:href="#me4951b54fa" y="276.90511"/>
      </g>
     </g>
     <g id="text_4">
      <text style="fill:#262626;font-family:DejaVu Sans;font-size:10px;font-stretch:normal;font-style:normal;font-weight:normal;text-anchor:end;" transform="rotate(-0, 45.160938, 280.704329)" x="45.160938" y="280.704329">−5.0</text>
     </g>
    </g>
    <g id="ytick_3">
     <g id="line2d_5">
      <g>
       <use style="fill:#262626;stroke:#262626;stroke-width:0.8;" x="52.160938" xlink:href="#me4951b54fa" y="242.399647"/>
      </g>
     </g>
     <g id="text_5">
      <text style="fill:#262626;font-family:DejaVu Sans;font-size:10px;font-stretch:normal;font-style:normal;font-weight:normal;text-anchor:end;" transform="rotate(-0, 45.160938, 246.198866)" x="45.160938" y="246.198866">−2.5</text>
     </g>
    </g>
    <g id="ytick_4">
     <g id="line2d_6">
      <g>
       <use style="fill:#262626;stroke:#262626;stroke-width:0.8;" x="52.160938" xlink:href="#me4951b54fa" y="207.894185"/>
      </g>
     </g>
     <g id="text_6">
      <text style="fill:#262626;font-family:DejaVu Sans;font-size:10px;font-stretch:normal;font-style:normal;font-weight:normal;text-anchor:end;" transform="rotate(-0, 45.160938, 211.693404)" x="45.160938" y="211.693404">0.0</text>
     </g>
    </g>
    <g id="ytick_5">
     <g id="line2d_7">
      <g>
       <use style="fill:#262626;stroke:#262626;stroke-width:0.8;" x="52.160938" xlink:href="#me4951b54fa" y="173.388723"/>
      </g>
     </g>
     <g id="text_7">
      <text style="fill:#262626;font-family:DejaVu Sans;font-size:10px;font-stretch:normal;font-style:normal;font-weight:normal;text-anchor:end;" transform="rotate(-0, 45.160938, 177.187941)" x="45.160938" y="177.187941">2.5</text>
     </g>
    </g>
    <g id="ytick_6">
     <g id="line2d_8">
      <g>
       <use style="fill:#262626;stroke:#262626;stroke-width:0.8;" x="52.160938" xlink:href="#me4951b54fa" y="138.88326"/>
      </g>
     </g>
     <g id="text_8">
      <text style="fill:#262626;font-family:DejaVu Sans;font-size:10px;font-stretch:normal;font-style:normal;font-weight:normal;text-anchor:end;" transform="rotate(-0, 45.160938, 142.682479)" x="45.160938" y="142.682479">5.0</text>
     </g>
    </g>
    <g id="ytick_7">
     <g id="line2d_9">
      <g>
       <use style="fill:#262626;stroke:#262626;stroke-width:0.8;" x="52.160938" xlink:href="#me4951b54fa" y="104.377798"/>
      </g>
     </g>
     <g id="text_9">
      <text style="fill:#262626;font-family:DejaVu Sans;font-size:10px;font-stretch:normal;font-style:normal;font-weight:normal;text-anchor:end;" transform="rotate(-0, 45.160938, 108.177017)" x="45.160938" y="108.177017">7.5</text>
     </g>
    </g>
    <g id="ytick_8">
     <g id="line2d_10">
      <g>
       <use style="fill:#262626;stroke:#262626;stroke-width:0.8;" x="52.160938" xlink:href="#me4951b54fa" y="69.872336"/>
      </g>
     </g>
     <g id="text_10">
      <text style="fill:#262626;font-family:DejaVu Sans;font-size:10px;font-stretch:normal;font-style:normal;font-weight:normal;text-anchor:end;" transform="rotate(-0, 45.160938, 73.671554)" x="45.160938" y="73.671554">10.0</text>
     </g>
    </g>
    <g id="ytick_9">
     <g id="line2d_11">
      <g>
       <use style="fill:#262626;stroke:#262626;stroke-width:0.8;" x="52.160938" xlink:href="#me4951b54fa" y="35.366873"/>
      </g>
     </g>
     <g id="text_11">
      <text style="fill:#262626;font-family:DejaVu Sans;font-size:10px;font-stretch:normal;font-style:normal;font-weight:normal;text-anchor:end;" transform="rotate(-0, 45.160938, 39.166092)" x="45.160938" y="39.166092">12.5</text>
     </g>
    </g>
    <g id="text_12">
     <text style="fill:#262626;font-family:DejaVu Sans;font-size:10px;font-stretch:normal;font-style:normal;font-weight:normal;text-anchor:middle;" transform="rotate(-90, 14.798438, 160.66)" x="14.798438" y="160.66">standardized shortest path length</text>
    </g>
   </g>
   <g id="PolyCollection_1">
    <defs>
     <path d="M 150.693592 -37.829034 
L 150.628283 -37.829034 
L 150.602371 -40.499332 
L 150.579038 -43.169631 
L 150.539593 -45.839929 
L 150.441564 -48.510227 
L 150.262781 -51.180526 
L 150.002222 -53.850824 
L 149.645174 -56.521122 
L 149.133248 -59.19142 
L 148.353229 -61.861719 
L 147.239803 -64.532017 
L 145.923906 -67.202315 
L 144.572341 -69.872614 
L 143.140845 -72.542912 
L 141.596312 -75.21321 
L 140.133587 -77.883509 
L 138.880168 -80.553807 
L 137.871686 -83.224105 
L 137.214898 -85.894403 
L 136.821428 -88.564702 
L 136.225098 -91.235 
L 135.066963 -93.905298 
L 133.321065 -96.575597 
L 130.945749 -99.245895 
L 127.839967 -101.916193 
L 124.048372 -104.586492 
L 119.97124 -107.25679 
L 116.131374 -109.927088 
L 112.772359 -112.597386 
L 110.078531 -115.267685 
L 108.182157 -117.937983 
L 107.107102 -120.608281 
L 106.646937 -123.27858 
L 106.12791 -125.948878 
L 104.947875 -128.619176 
L 103.146475 -131.289474 
L 101.180988 -133.959773 
L 99.077173 -136.630071 
L 96.344532 -139.300369 
L 93.162791 -141.970668 
L 90.511638 -144.640966 
L 88.756764 -147.311264 
L 87.404808 -149.981563 
L 86.16185 -152.651861 
L 85.176624 -155.322159 
L 84.83686 -157.992457 
L 85.328516 -160.662756 
L 86.393958 -163.333054 
L 87.71755 -166.003352 
L 89.155172 -168.673651 
L 90.357401 -171.343949 
L 91.088999 -174.014247 
L 91.603707 -176.684546 
L 92.008439 -179.354844 
L 92.374792 -182.025142 
L 93.344623 -184.69544 
L 95.08493 -187.365739 
L 97.360806 -190.036037 
L 100.381657 -192.706335 
L 103.916975 -195.376634 
L 107.409423 -198.046932 
L 110.935858 -200.71723 
L 114.785311 -203.387528 
L 118.894111 -206.057827 
L 122.786283 -208.728125 
L 126.108489 -211.398423 
L 128.923681 -214.068722 
L 131.454317 -216.73902 
L 133.9702 -219.409318 
L 136.534229 -222.079617 
L 138.980393 -224.749915 
L 141.147508 -227.420213 
L 142.940723 -230.090511 
L 144.393831 -232.76081 
L 145.6179 -235.431108 
L 146.669572 -238.101406 
L 147.492947 -240.771705 
L 148.10462 -243.442003 
L 148.623981 -246.112301 
L 149.098673 -248.7826 
L 149.509255 -251.452898 
L 149.815678 -254.123196 
L 150.0147 -256.793494 
L 150.151263 -259.463793 
L 150.249163 -262.134091 
L 150.332995 -264.804389 
L 150.42148 -267.474688 
L 150.490921 -270.144986 
L 150.52176 -272.815284 
L 150.530593 -275.485582 
L 150.544106 -278.155881 
L 150.573541 -280.826179 
L 150.608695 -283.496477 
L 150.6372 -286.166776 
L 150.653546 -288.837074 
L 150.659026 -291.507372 
L 150.657885 -294.177671 
L 150.652234 -296.847969 
L 150.646268 -299.518267 
L 150.64661 -302.188565 
L 150.675265 -302.188565 
L 150.675265 -302.188565 
L 150.675607 -299.518267 
L 150.669641 -296.847969 
L 150.66399 -294.177671 
L 150.662849 -291.507372 
L 150.668329 -288.837074 
L 150.684675 -286.166776 
L 150.71318 -283.496477 
L 150.748334 -280.826179 
L 150.777769 -278.155881 
L 150.791282 -275.485582 
L 150.800115 -272.815284 
L 150.830954 -270.144986 
L 150.900395 -267.474688 
L 150.98888 -264.804389 
L 151.072712 -262.134091 
L 151.170612 -259.463793 
L 151.307175 -256.793494 
L 151.506197 -254.123196 
L 151.81262 -251.452898 
L 152.223202 -248.7826 
L 152.697894 -246.112301 
L 153.217255 -243.442003 
L 153.828928 -240.771705 
L 154.652303 -238.101406 
L 155.703975 -235.431108 
L 156.928044 -232.76081 
L 158.381152 -230.090511 
L 160.174367 -227.420213 
L 162.341482 -224.749915 
L 164.787646 -222.079617 
L 167.351675 -219.409318 
L 169.867558 -216.73902 
L 172.398194 -214.068722 
L 175.213386 -211.398423 
L 178.535592 -208.728125 
L 182.427764 -206.057827 
L 186.536564 -203.387528 
L 190.386017 -200.71723 
L 193.912452 -198.046932 
L 197.4049 -195.376634 
L 200.940218 -192.706335 
L 203.961069 -190.036037 
L 206.236945 -187.365739 
L 207.977252 -184.69544 
L 208.947083 -182.025142 
L 209.313436 -179.354844 
L 209.718168 -176.684546 
L 210.232876 -174.014247 
L 210.964474 -171.343949 
L 212.166703 -168.673651 
L 213.604325 -166.003352 
L 214.927917 -163.333054 
L 215.993359 -160.662756 
L 216.485015 -157.992457 
L 216.145251 -155.322159 
L 215.160025 -152.651861 
L 213.917067 -149.981563 
L 212.565111 -147.311264 
L 210.810237 -144.640966 
L 208.159084 -141.970668 
L 204.977343 -139.300369 
L 202.244702 -136.630071 
L 200.140887 -133.959773 
L 198.1754 -131.289474 
L 196.374 -128.619176 
L 195.193965 -125.948878 
L 194.674938 -123.27858 
L 194.214773 -120.608281 
L 193.139718 -117.937983 
L 191.243344 -115.267685 
L 188.549516 -112.597386 
L 185.190501 -109.927088 
L 181.350635 -107.25679 
L 177.273503 -104.586492 
L 173.481908 -101.916193 
L 170.376126 -99.245895 
L 168.00081 -96.575597 
L 166.254912 -93.905298 
L 165.096777 -91.235 
L 164.500447 -88.564702 
L 164.106977 -85.894403 
L 163.450189 -83.224105 
L 162.441707 -80.553807 
L 161.188288 -77.883509 
L 159.725563 -75.21321 
L 158.18103 -72.542912 
L 156.749534 -69.872614 
L 155.397969 -67.202315 
L 154.082072 -64.532017 
L 152.968646 -61.861719 
L 152.188627 -59.19142 
L 151.676701 -56.521122 
L 151.319653 -53.850824 
L 151.059094 -51.180526 
L 150.880311 -48.510227 
L 150.782282 -45.839929 
L 150.742837 -43.169631 
L 150.719504 -40.499332 
L 150.693592 -37.829034 
z
" id="m7def0e9f77" style="stroke:#404040;stroke-width:1.5;"/>
    </defs>
    <g clip-path="url(#pa840571d8f)">
     <use style="fill:#5573cd;stroke:#404040;stroke-width:1.5;" x="0" xlink:href="#m7def0e9f77" y="337.998125"/>
    </g>
   </g>
   <g id="PolyCollection_2">
    <defs>
     <path d="M 347.66695 -50.920594 
L 347.654925 -50.920594 
L 347.647856 -53.606722 
L 347.624697 -56.292849 
L 347.586875 -58.978977 
L 347.526133 -61.665104 
L 347.449426 -64.351232 
L 347.325849 -67.037359 
L 347.123904 -69.723487 
L 346.905798 -72.409614 
L 346.607005 -75.095742 
L 346.212918 -77.781869 
L 345.837171 -80.467997 
L 345.407723 -83.154124 
L 344.887935 -85.840252 
L 344.217522 -88.526379 
L 343.667251 -91.212507 
L 343.270187 -93.898634 
L 342.694004 -96.584762 
L 341.859979 -99.270889 
L 340.773807 -101.957017 
L 339.358247 -104.643144 
L 337.189841 -107.329272 
L 334.323274 -110.015399 
L 331.020292 -112.701527 
L 327.596202 -115.387654 
L 324.691957 -118.073782 
L 322.474672 -120.759909 
L 320.562234 -123.446037 
L 319.400275 -126.132164 
L 318.15282 -128.818292 
L 316.193691 -131.504419 
L 313.551268 -134.190547 
L 310.777482 -136.876674 
L 307.417825 -139.562802 
L 302.755545 -142.248929 
L 297.119509 -144.935056 
L 291.874045 -147.621184 
L 287.61861 -150.307311 
L 283.705375 -152.993439 
L 279.815621 -155.679566 
L 277.284179 -158.365694 
L 275.652105 -161.051821 
L 273.974736 -163.737949 
L 272.212695 -166.424076 
L 270.835675 -169.110204 
L 270.234941 -171.796331 
L 269.594764 -174.482459 
L 269.18296 -177.168586 
L 268.860937 -179.854714 
L 269.004456 -182.540841 
L 269.66428 -185.226969 
L 270.94688 -187.913096 
L 273.42471 -190.599224 
L 276.923078 -193.285351 
L 280.852352 -195.971479 
L 285.231267 -198.657606 
L 290.108917 -201.343734 
L 295.060472 -204.029861 
L 300.193502 -206.715989 
L 305.664312 -209.402116 
L 310.44773 -212.088244 
L 314.819509 -214.774371 
L 319.233346 -217.460499 
L 323.405272 -220.146626 
L 326.998753 -222.832754 
L 330.135611 -225.518881 
L 333.119226 -228.205009 
L 335.624294 -230.891136 
L 337.602806 -233.577264 
L 339.358601 -236.263391 
L 340.981106 -238.949519 
L 342.433222 -241.635646 
L 343.531265 -244.321774 
L 344.282353 -247.007901 
L 344.91989 -249.694029 
L 345.523511 -252.380156 
L 346.017617 -255.066284 
L 346.457681 -257.752411 
L 346.736793 -260.438539 
L 346.921327 -263.124666 
L 347.053769 -265.810794 
L 347.178518 -268.496921 
L 347.284167 -271.183049 
L 347.367146 -273.869176 
L 347.439248 -276.555304 
L 347.497261 -279.241431 
L 347.561574 -281.927559 
L 347.58674 -284.613686 
L 347.581427 -287.299814 
L 347.611076 -289.985941 
L 347.631416 -292.672068 
L 347.639574 -295.358196 
L 347.640798 -298.044323 
L 347.638603 -300.730451 
L 347.647517 -303.416578 
L 347.657764 -306.102706 
L 347.660717 -308.788833 
L 347.660834 -311.474961 
L 347.659658 -314.161088 
L 347.657944 -316.847216 
L 347.663931 -316.847216 
L 347.663931 -316.847216 
L 347.662217 -314.161088 
L 347.661041 -311.474961 
L 347.661158 -308.788833 
L 347.664111 -306.102706 
L 347.674358 -303.416578 
L 347.683272 -300.730451 
L 347.681077 -298.044323 
L 347.682301 -295.358196 
L 347.690459 -292.672068 
L 347.710799 -289.985941 
L 347.740448 -287.299814 
L 347.735135 -284.613686 
L 347.760301 -281.927559 
L 347.824614 -279.241431 
L 347.882627 -276.555304 
L 347.954729 -273.869176 
L 348.037708 -271.183049 
L 348.143357 -268.496921 
L 348.268106 -265.810794 
L 348.400548 -263.124666 
L 348.585082 -260.438539 
L 348.864194 -257.752411 
L 349.304258 -255.066284 
L 349.798364 -252.380156 
L 350.401985 -249.694029 
L 351.039522 -247.007901 
L 351.79061 -244.321774 
L 352.888653 -241.635646 
L 354.340769 -238.949519 
L 355.963274 -236.263391 
L 357.719069 -233.577264 
L 359.697581 -230.891136 
L 362.202649 -228.205009 
L 365.186264 -225.518881 
L 368.323122 -222.832754 
L 371.916603 -220.146626 
L 376.088529 -217.460499 
L 380.502366 -214.774371 
L 384.874145 -212.088244 
L 389.657563 -209.402116 
L 395.128373 -206.715989 
L 400.261403 -204.029861 
L 405.212958 -201.343734 
L 410.090608 -198.657606 
L 414.469523 -195.971479 
L 418.398797 -193.285351 
L 421.897165 -190.599224 
L 424.374995 -187.913096 
L 425.657595 -185.226969 
L 426.317419 -182.540841 
L 426.460938 -179.854714 
L 426.138915 -177.168586 
L 425.727111 -174.482459 
L 425.086934 -171.796331 
L 424.4862 -169.110204 
L 423.10918 -166.424076 
L 421.347139 -163.737949 
L 419.66977 -161.051821 
L 418.037696 -158.365694 
L 415.506254 -155.679566 
L 411.6165 -152.993439 
L 407.703265 -150.307311 
L 403.44783 -147.621184 
L 398.202366 -144.935056 
L 392.56633 -142.248929 
L 387.90405 -139.562802 
L 384.544393 -136.876674 
L 381.770607 -134.190547 
L 379.128184 -131.504419 
L 377.169055 -128.818292 
L 375.9216 -126.132164 
L 374.759641 -123.446037 
L 372.847203 -120.759909 
L 370.629918 -118.073782 
L 367.725673 -115.387654 
L 364.301583 -112.701527 
L 360.998601 -110.015399 
L 358.132034 -107.329272 
L 355.963628 -104.643144 
L 354.548068 -101.957017 
L 353.461896 -99.270889 
L 352.627871 -96.584762 
L 352.051688 -93.898634 
L 351.654624 -91.212507 
L 351.104353 -88.526379 
L 350.43394 -85.840252 
L 349.914152 -83.154124 
L 349.484704 -80.467997 
L 349.108957 -77.781869 
L 348.71487 -75.095742 
L 348.416077 -72.409614 
L 348.197971 -69.723487 
L 347.996026 -67.037359 
L 347.872449 -64.351232 
L 347.795742 -61.665104 
L 347.735 -58.978977 
L 347.697178 -56.292849 
L 347.674019 -53.606722 
L 347.66695 -50.920594 
z
" id="m21637b525a" style="stroke:#404040;stroke-width:1.5;"/>
    </defs>
    <g clip-path="url(#pa840571d8f)">
     <use style="fill:#a03434;stroke:#404040;stroke-width:1.5;" x="0" xlink:href="#m21637b525a" y="337.998125"/>
    </g>
   </g>
   <g id="line2d_12">
    <path clip-path="url(#pa840571d8f)" d="M 103.621619 207.274019 
L 197.700256 207.274019 
" style="fill:none;stroke:#404040;stroke-dasharray:3.375,3.375;stroke-dashoffset:0;stroke-width:1.5;"/>
   </g>
   <g id="line2d_13">
    <path clip-path="url(#pa840571d8f)" d="M 85.495101 180.196542 
L 215.826774 180.196542 
" style="fill:none;stroke:#404040;stroke-dasharray:6.75,6.75;stroke-dashoffset:0;stroke-width:1.5;"/>
   </g>
   <g id="line2d_14">
    <path clip-path="url(#pa840571d8f)" d="M 93.917787 154.493664 
L 207.404088 154.493664 
" style="fill:none;stroke:#404040;stroke-dasharray:3.375,3.375;stroke-dashoffset:0;stroke-width:1.5;"/>
   </g>
   <g id="line2d_15">
    <path clip-path="url(#pa840571d8f)" d="M 288.219033 186.677162 
L 407.102842 186.677162 
" style="fill:none;stroke:#404040;stroke-dasharray:3.375,3.375;stroke-dashoffset:0;stroke-width:1.5;"/>
   </g>
   <g id="line2d_16">
    <path clip-path="url(#pa840571d8f)" d="M 270.375426 164.753257 
L 424.946449 164.753257 
" style="fill:none;stroke:#404040;stroke-dasharray:6.75,6.75;stroke-dashoffset:0;stroke-width:1.5;"/>
   </g>
   <g id="line2d_17">
    <path clip-path="url(#pa840571d8f)" d="M 277.630457 144.265141 
L 417.691418 144.265141 
" style="fill:none;stroke:#404040;stroke-dasharray:3.375,3.375;stroke-dashoffset:0;stroke-width:1.5;"/>
   </g>
   <g id="patch_3">
    <path d="M 52.160938 311.410572 
L 52.160938 35.366873 
" style="fill:none;stroke:#262626;stroke-linecap:square;stroke-linejoin:miter;stroke-width:0.8;"/>
   </g>
   <g id="patch_4">
    <path d="M 150.660938 314.12 
L 347.660938 314.12 
" style="fill:none;stroke:#262626;stroke-linecap:square;stroke-linejoin:miter;stroke-width:0.8;"/>
   </g>
   <g id="text_13">
    <text style="fill:#262626;font-family:DejaVu Sans;font-size:10px;font-stretch:normal;font-style:normal;font-weight:normal;text-anchor:middle;" transform="rotate(-0, 249.160938, 19.071222)" x="249.160938" y="19.071222">*</text>
   </g>
  </g>
 </g>
 <defs>
  <clipPath id="pa840571d8f">
   <rect height="306.92" width="394" x="52.160938" y="7.2"/>
  </clipPath>
 </defs>
</svg>
