<?xml version="1.0" encoding="utf-8" standalone="no"?>
<!DOCTYPE svg PUBLIC "-//W3C//DTD SVG 1.1//EN"
  "http://www.w3.org/Graphics/SVG/1.1/DTD/svg11.dtd">
<!-- Created with matplotlib (https://matplotlib.org/) -->
<svg height="338.905312pt" version="1.1" viewBox="0 0 453.870625 338.905312" width="453.870625pt" xmlns="http://www.w3.org/2000/svg" xmlns:xlink="http://www.w3.org/1999/xlink">
 <metadata>
  <rdf:RDF xmlns:cc="http://creativecommons.org/ns#" xmlns:dc="http://purl.org/dc/elements/1.1/" xmlns:rdf="http://www.w3.org/1999/02/22-rdf-syntax-ns#">
   <cc:Work>
    <dc:type rdf:resource="http://purl.org/dc/dcmitype/StillImage"/>
    <dc:date>2023-03-28T12:56:54.638447</dc:date>
    <dc:format>image/svg+xml</dc:format>
    <dc:creator>
     <cc:Agent>
      <dc:title>Matplotlib v3.3.4, https://matplotlib.org/</dc:title>
     </cc:Agent>
    </dc:creator>
   </cc:Work>
  </rdf:RDF>
 </metadata>
 <defs>
  <style type="text/css">*{stroke-linecap:butt;stroke-linejoin:round;}</style>
 </defs>
 <g id="figure_1">
  <g id="patch_1">
   <path d="M 0 338.905312 
L 453.870625 338.905312 
L 453.870625 0 
L 0 0 
z
" style="fill:#ffffff;"/>
  </g>
  <g id="axes_1">
   <g id="patch_2">
    <path d="M 47.203125 315.56 
L 446.670625 315.56 
L 446.670625 7.2 
L 47.203125 7.2 
z
" style="fill:#ffffff;"/>
   </g>
   <g id="matplotlib.axis_1">
    <g id="xtick_1">
     <g id="line2d_1">
      <defs>
       <path d="M 0 0 
L 0 3.5 
" id="m99feb4486e" style="stroke:#262626;stroke-width:0.8;"/>
      </defs>
      <g>
       <use style="fill:#262626;stroke:#262626;stroke-width:0.8;" x="147.07" xlink:href="#m99feb4486e" y="315.56"/>
      </g>
     </g>
     <g id="text_1">
      <text style="fill:#262626;font-family:Arial;font-size:10px;font-stretch:normal;font-style:normal;font-weight:normal;text-anchor:middle;" transform="rotate(-0, 147.07, 329.717812)" x="147.07" y="329.717812">within network</text>
     </g>
    </g>
    <g id="xtick_2">
     <g id="line2d_2">
      <g>
       <use style="fill:#262626;stroke:#262626;stroke-width:0.8;" x="346.80375" xlink:href="#m99feb4486e" y="315.56"/>
      </g>
     </g>
     <g id="text_2">
      <text style="fill:#262626;font-family:Arial;font-size:10px;font-stretch:normal;font-style:normal;font-weight:normal;text-anchor:middle;" transform="rotate(-0, 346.80375, 329.717812)" x="346.80375" y="329.717812">between network</text>
     </g>
    </g>
   </g>
   <g id="matplotlib.axis_2">
    <g id="ytick_1">
     <g id="line2d_3">
      <defs>
       <path d="M 0 0 
L -3.5 0 
" id="m33ace749f8" style="stroke:#262626;stroke-width:0.8;"/>
      </defs>
      <g>
       <use style="fill:#262626;stroke:#262626;stroke-width:0.8;" x="47.203125" xlink:href="#m33ace749f8" y="312.83786"/>
      </g>
     </g>
     <g id="text_3">
      <text style="fill:#262626;font-family:Arial;font-size:10px;font-stretch:normal;font-style:normal;font-weight:normal;text-anchor:end;" transform="rotate(-0, 40.203125, 316.416766)" x="40.203125" y="316.416766">−7.5</text>
     </g>
    </g>
    <g id="ytick_2">
     <g id="line2d_4">
      <g>
       <use style="fill:#262626;stroke:#262626;stroke-width:0.8;" x="47.203125" xlink:href="#m33ace749f8" y="278.170506"/>
      </g>
     </g>
     <g id="text_4">
      <text style="fill:#262626;font-family:Arial;font-size:10px;font-stretch:normal;font-style:normal;font-weight:normal;text-anchor:end;" transform="rotate(-0, 40.203125, 281.749412)" x="40.203125" y="281.749412">−5.0</text>
     </g>
    </g>
    <g id="ytick_3">
     <g id="line2d_5">
      <g>
       <use style="fill:#262626;stroke:#262626;stroke-width:0.8;" x="47.203125" xlink:href="#m33ace749f8" y="243.503152"/>
      </g>
     </g>
     <g id="text_5">
      <text style="fill:#262626;font-family:Arial;font-size:10px;font-stretch:normal;font-style:normal;font-weight:normal;text-anchor:end;" transform="rotate(-0, 40.203125, 247.082058)" x="40.203125" y="247.082058">−2.5</text>
     </g>
    </g>
    <g id="ytick_4">
     <g id="line2d_6">
      <g>
       <use style="fill:#262626;stroke:#262626;stroke-width:0.8;" x="47.203125" xlink:href="#m33ace749f8" y="208.835797"/>
      </g>
     </g>
     <g id="text_6">
      <text style="fill:#262626;font-family:Arial;font-size:10px;font-stretch:normal;font-style:normal;font-weight:normal;text-anchor:end;" transform="rotate(-0, 40.203125, 212.414704)" x="40.203125" y="212.414704">0.0</text>
     </g>
    </g>
    <g id="ytick_5">
     <g id="line2d_7">
      <g>
       <use style="fill:#262626;stroke:#262626;stroke-width:0.8;" x="47.203125" xlink:href="#m33ace749f8" y="174.168443"/>
      </g>
     </g>
     <g id="text_7">
      <text style="fill:#262626;font-family:Arial;font-size:10px;font-stretch:normal;font-style:normal;font-weight:normal;text-anchor:end;" transform="rotate(-0, 40.203125, 177.747349)" x="40.203125" y="177.747349">2.5</text>
     </g>
    </g>
    <g id="ytick_6">
     <g id="line2d_8">
      <g>
       <use style="fill:#262626;stroke:#262626;stroke-width:0.8;" x="47.203125" xlink:href="#m33ace749f8" y="139.501089"/>
      </g>
     </g>
     <g id="text_8">
      <text style="fill:#262626;font-family:Arial;font-size:10px;font-stretch:normal;font-style:normal;font-weight:normal;text-anchor:end;" transform="rotate(-0, 40.203125, 143.079995)" x="40.203125" y="143.079995">5.0</text>
     </g>
    </g>
    <g id="ytick_7">
     <g id="line2d_9">
      <g>
       <use style="fill:#262626;stroke:#262626;stroke-width:0.8;" x="47.203125" xlink:href="#m33ace749f8" y="104.833734"/>
      </g>
     </g>
     <g id="text_9">
      <text style="fill:#262626;font-family:Arial;font-size:10px;font-stretch:normal;font-style:normal;font-weight:normal;text-anchor:end;" transform="rotate(-0, 40.203125, 108.412641)" x="40.203125" y="108.412641">7.5</text>
     </g>
    </g>
    <g id="ytick_8">
     <g id="line2d_10">
      <g>
       <use style="fill:#262626;stroke:#262626;stroke-width:0.8;" x="47.203125" xlink:href="#m33ace749f8" y="70.16638"/>
      </g>
     </g>
     <g id="text_10">
      <text style="fill:#262626;font-family:Arial;font-size:10px;font-stretch:normal;font-style:normal;font-weight:normal;text-anchor:end;" transform="rotate(-0, 40.203125, 73.745286)" x="40.203125" y="73.745286">10.0</text>
     </g>
    </g>
    <g id="ytick_9">
     <g id="line2d_11">
      <g>
       <use style="fill:#262626;stroke:#262626;stroke-width:0.8;" x="47.203125" xlink:href="#m33ace749f8" y="35.499026"/>
      </g>
     </g>
     <g id="text_11">
      <text style="fill:#262626;font-family:Arial;font-size:10px;font-stretch:normal;font-style:normal;font-weight:normal;text-anchor:end;" transform="rotate(-0, 40.203125, 39.077932)" x="40.203125" y="39.077932">12.5</text>
     </g>
    </g>
    <g id="text_12">
     <text style="fill:#262626;font-family:Arial;font-size:10px;font-stretch:normal;font-style:normal;font-weight:normal;text-anchor:middle;" transform="rotate(-90, 14.357813, 161.38)" x="14.357813" y="161.38">standardized shortest path length</text>
    </g>
   </g>
   <g id="PolyCollection_1">
    <defs>
     <path d="M 147.103108 -37.361676 
L 147.036892 -37.361676 
L 147.010621 -40.044503 
L 146.986964 -42.72733 
L 146.946972 -45.410156 
L 146.847583 -48.092983 
L 146.666318 -50.77581 
L 146.402144 -53.458637 
L 146.040141 -56.141463 
L 145.521111 -58.82429 
L 144.730268 -61.507117 
L 143.60139 -64.189944 
L 142.267233 -66.87277 
L 140.896913 -69.555597 
L 139.445551 -72.238424 
L 137.879585 -74.92125 
L 136.396562 -77.604077 
L 135.12575 -80.286904 
L 134.103273 -82.969731 
L 133.437371 -85.652557 
L 133.038441 -88.335384 
L 132.433836 -91.018211 
L 131.259629 -93.701038 
L 129.489503 -96.383864 
L 127.081226 -99.066691 
L 123.932345 -101.749518 
L 120.088135 -104.432345 
L 115.954425 -107.115171 
L 112.061273 -109.797998 
L 108.655645 -112.480825 
L 105.924436 -115.163652 
L 104.001746 -117.846478 
L 102.911772 -120.529305 
L 102.445221 -123.212132 
L 101.918992 -125.894959 
L 100.722581 -128.577785 
L 98.896183 -131.260612 
L 96.903422 -133.943439 
L 94.770413 -136.626265 
L 91.999851 -139.309092 
L 88.773957 -141.991919 
L 86.086014 -144.674746 
L 84.306788 -147.357572 
L 82.936071 -150.040399 
L 81.675865 -152.723226 
L 80.676967 -155.406053 
L 80.332488 -158.088879 
L 80.830966 -160.771706 
L 81.911193 -163.454533 
L 83.253154 -166.13736 
L 84.710725 -168.820186 
L 85.929637 -171.503013 
L 86.671387 -174.18584 
L 87.193238 -176.868667 
L 87.603587 -179.551493 
L 87.975023 -182.23432 
L 88.958313 -184.917147 
L 90.72277 -187.599974 
L 93.030228 -190.2828 
L 96.092999 -192.965627 
L 99.677377 -195.648454 
L 103.218288 -198.33128 
L 106.793659 -201.014107 
L 110.696531 -203.696934 
L 114.862348 -206.379761 
L 118.808531 -209.062587 
L 122.176839 -211.745414 
L 125.031098 -214.428241 
L 127.596851 -217.111068 
L 130.147647 -219.793894 
L 132.747256 -222.476721 
L 135.227365 -225.159548 
L 137.424554 -227.842375 
L 139.242653 -230.525201 
L 140.715925 -233.208028 
L 141.956981 -235.890855 
L 143.023247 -238.573682 
L 143.858047 -241.256508 
L 144.478208 -243.939335 
L 145.004777 -246.622162 
L 145.486056 -249.304989 
L 145.902336 -251.987815 
L 146.213011 -254.670642 
L 146.414795 -257.353469 
L 146.553253 -260.036295 
L 146.652511 -262.719122 
L 146.737506 -265.401949 
L 146.827219 -268.084776 
L 146.897624 -270.767602 
L 146.928891 -273.450429 
L 146.937847 -276.133256 
L 146.951547 -278.816083 
L 146.981391 -281.498909 
L 147.017033 -284.181736 
L 147.045933 -286.864563 
L 147.062506 -289.54739 
L 147.068062 -292.230216 
L 147.066905 -294.913043 
L 147.061176 -297.59587 
L 147.055127 -300.278697 
L 147.055474 -302.961523 
L 147.084526 -302.961523 
L 147.084526 -302.961523 
L 147.084873 -300.278697 
L 147.078824 -297.59587 
L 147.073095 -294.913043 
L 147.071938 -292.230216 
L 147.077494 -289.54739 
L 147.094067 -286.864563 
L 147.122967 -284.181736 
L 147.158609 -281.498909 
L 147.188453 -278.816083 
L 147.202153 -276.133256 
L 147.211109 -273.450429 
L 147.242376 -270.767602 
L 147.312781 -268.084776 
L 147.402494 -265.401949 
L 147.487489 -262.719122 
L 147.586747 -260.036295 
L 147.725205 -257.353469 
L 147.926989 -254.670642 
L 148.237664 -251.987815 
L 148.653944 -249.304989 
L 149.135223 -246.622162 
L 149.661792 -243.939335 
L 150.281953 -241.256508 
L 151.116753 -238.573682 
L 152.183019 -235.890855 
L 153.424075 -233.208028 
L 154.897347 -230.525201 
L 156.715446 -227.842375 
L 158.912635 -225.159548 
L 161.392744 -222.476721 
L 163.992353 -219.793894 
L 166.543149 -217.111068 
L 169.108902 -214.428241 
L 171.963161 -211.745414 
L 175.331469 -209.062587 
L 179.277652 -206.379761 
L 183.443469 -203.696934 
L 187.346341 -201.014107 
L 190.921712 -198.33128 
L 194.462623 -195.648454 
L 198.047001 -192.965627 
L 201.109772 -190.2828 
L 203.41723 -187.599974 
L 205.181687 -184.917147 
L 206.164977 -182.23432 
L 206.536413 -179.551493 
L 206.946762 -176.868667 
L 207.468613 -174.18584 
L 208.210363 -171.503013 
L 209.429275 -168.820186 
L 210.886846 -166.13736 
L 212.228807 -163.454533 
L 213.309034 -160.771706 
L 213.807512 -158.088879 
L 213.463033 -155.406053 
L 212.464135 -152.723226 
L 211.203929 -150.040399 
L 209.833212 -147.357572 
L 208.053986 -144.674746 
L 205.366043 -141.991919 
L 202.140149 -139.309092 
L 199.369587 -136.626265 
L 197.236578 -133.943439 
L 195.243817 -131.260612 
L 193.417419 -128.577785 
L 192.221008 -125.894959 
L 191.694779 -123.212132 
L 191.228228 -120.529305 
L 190.138254 -117.846478 
L 188.215564 -115.163652 
L 185.484355 -112.480825 
L 182.078727 -109.797998 
L 178.185575 -107.115171 
L 174.051865 -104.432345 
L 170.207655 -101.749518 
L 167.058774 -99.066691 
L 164.650497 -96.383864 
L 162.880371 -93.701038 
L 161.706164 -91.018211 
L 161.101559 -88.335384 
L 160.702629 -85.652557 
L 160.036727 -82.969731 
L 159.01425 -80.286904 
L 157.743438 -77.604077 
L 156.260415 -74.92125 
L 154.694449 -72.238424 
L 153.243087 -69.555597 
L 151.872767 -66.87277 
L 150.53861 -64.189944 
L 149.409732 -61.507117 
L 148.618889 -58.82429 
L 148.099859 -56.141463 
L 147.737856 -53.458637 
L 147.473682 -50.77581 
L 147.292417 -48.092983 
L 147.193028 -45.410156 
L 147.153036 -42.72733 
L 147.129379 -40.044503 
L 147.103108 -37.361676 
z
" id="m9f449bc8bc" style="stroke:#404040;stroke-width:1.5;"/>
    </defs>
    <g clip-path="url(#p4a2a24d4fe)">
     <use style="fill:#5573cd;stroke:#404040;stroke-width:1.5;" x="0" xlink:href="#m9f449bc8bc" y="338.905312"/>
    </g>
   </g>
   <g id="PolyCollection_2">
    <defs>
     <path d="M 346.809846 -50.514659 
L 346.797654 -50.514659 
L 346.790487 -53.213389 
L 346.767007 -55.912119 
L 346.72866 -58.61085 
L 346.667075 -61.30958 
L 346.589304 -64.00831 
L 346.464011 -66.70704 
L 346.259264 -69.40577 
L 346.038131 -72.104501 
L 345.735192 -74.803231 
L 345.335637 -77.501961 
L 344.954675 -80.200691 
L 344.519268 -82.899421 
L 343.992266 -85.598152 
L 343.31255 -88.296882 
L 342.754644 -90.995612 
L 342.35207 -93.694342 
L 341.767891 -96.393072 
L 340.922293 -99.091803 
L 339.821048 -101.790533 
L 338.385844 -104.489263 
L 336.187347 -107.187993 
L 333.281001 -109.886723 
L 329.932184 -112.585454 
L 326.460578 -115.284184 
L 323.516032 -117.982914 
L 321.267977 -120.681644 
L 319.329001 -123.380374 
L 318.150917 -126.079105 
L 316.886151 -128.777835 
L 314.899836 -131.476565 
L 312.220744 -134.175295 
L 309.408467 -136.874025 
L 306.002188 -139.572756 
L 301.275209 -142.271486 
L 295.560963 -144.970216 
L 290.242708 -147.668946 
L 285.928221 -150.367676 
L 281.960683 -153.066407 
L 278.01695 -155.765137 
L 275.45038 -158.463867 
L 273.795657 -161.162597 
L 272.095012 -163.861327 
L 270.30852 -166.560058 
L 268.912391 -169.258788 
L 268.30332 -171.957518 
L 267.65426 -174.656248 
L 267.236741 -177.354978 
L 266.91025 -180.053709 
L 267.05576 -182.752439 
L 267.72474 -185.451169 
L 269.025139 -188.149899 
L 271.537353 -190.848629 
L 275.084268 -193.54736 
L 279.068068 -196.24609 
L 283.507749 -198.94482 
L 288.453086 -201.64355 
L 293.473353 -204.34228 
L 298.677613 -207.041011 
L 304.224341 -209.739741 
L 309.074139 -212.438471 
L 313.506584 -215.137201 
L 317.981671 -217.835931 
L 322.211491 -220.534662 
L 325.854838 -223.233392 
L 329.035226 -225.932122 
L 332.060244 -228.630852 
L 334.600075 -231.329582 
L 336.606043 -234.028313 
L 338.386203 -236.727043 
L 340.031223 -239.425773 
L 341.50349 -242.124503 
L 342.61677 -244.823233 
L 343.378281 -247.521964 
L 344.024665 -250.220694 
L 344.636663 -252.919424 
L 345.137626 -255.618154 
L 345.583796 -258.316884 
L 345.866781 -261.015615 
L 346.053876 -263.714345 
L 346.188155 -266.413075 
L 346.314636 -269.111805 
L 346.421751 -271.810535 
L 346.505882 -274.509266 
L 346.578984 -277.207996 
L 346.637802 -279.906726 
L 346.703007 -282.605456 
L 346.728523 -285.304186 
L 346.723137 -288.002917 
L 346.753196 -290.701647 
L 346.773819 -293.400377 
L 346.78209 -296.099107 
L 346.783331 -298.797837 
L 346.781105 -301.496568 
L 346.790144 -304.195298 
L 346.800533 -306.894028 
L 346.803526 -309.592758 
L 346.803645 -312.291488 
L 346.802452 -314.990219 
L 346.800715 -317.688949 
L 346.806785 -317.688949 
L 346.806785 -317.688949 
L 346.805048 -314.990219 
L 346.803855 -312.291488 
L 346.803974 -309.592758 
L 346.806967 -306.894028 
L 346.817356 -304.195298 
L 346.826395 -301.496568 
L 346.824169 -298.797837 
L 346.82541 -296.099107 
L 346.833681 -293.400377 
L 346.854304 -290.701647 
L 346.884363 -288.002917 
L 346.878977 -285.304186 
L 346.904493 -282.605456 
L 346.969698 -279.906726 
L 347.028516 -277.207996 
L 347.101618 -274.509266 
L 347.185749 -271.810535 
L 347.292864 -269.111805 
L 347.419345 -266.413075 
L 347.553624 -263.714345 
L 347.740719 -261.015615 
L 348.023704 -258.316884 
L 348.469874 -255.618154 
L 348.970837 -252.919424 
L 349.582835 -250.220694 
L 350.229219 -247.521964 
L 350.99073 -244.823233 
L 352.10401 -242.124503 
L 353.576277 -239.425773 
L 355.221297 -236.727043 
L 357.001457 -234.028313 
L 359.007425 -231.329582 
L 361.547256 -228.630852 
L 364.572274 -225.932122 
L 367.752662 -223.233392 
L 371.396009 -220.534662 
L 375.625829 -217.835931 
L 380.100916 -215.137201 
L 384.533361 -212.438471 
L 389.383159 -209.739741 
L 394.929887 -207.041011 
L 400.134147 -204.34228 
L 405.154414 -201.64355 
L 410.099751 -198.94482 
L 414.539432 -196.24609 
L 418.523232 -193.54736 
L 422.070147 -190.848629 
L 424.582361 -188.149899 
L 425.88276 -185.451169 
L 426.55174 -182.752439 
L 426.69725 -180.053709 
L 426.370759 -177.354978 
L 425.95324 -174.656248 
L 425.30418 -171.957518 
L 424.695109 -169.258788 
L 423.29898 -166.560058 
L 421.512488 -163.861327 
L 419.811843 -161.162597 
L 418.15712 -158.463867 
L 415.59055 -155.765137 
L 411.646817 -153.066407 
L 407.679279 -150.367676 
L 403.364792 -147.668946 
L 398.046537 -144.970216 
L 392.332291 -142.271486 
L 387.605312 -139.572756 
L 384.199033 -136.874025 
L 381.386756 -134.175295 
L 378.707664 -131.476565 
L 376.721349 -128.777835 
L 375.456583 -126.079105 
L 374.278499 -123.380374 
L 372.339523 -120.681644 
L 370.091468 -117.982914 
L 367.146922 -115.284184 
L 363.675316 -112.585454 
L 360.326499 -109.886723 
L 357.420153 -107.187993 
L 355.221656 -104.489263 
L 353.786452 -101.790533 
L 352.685207 -99.091803 
L 351.839609 -96.393072 
L 351.25543 -93.694342 
L 350.852856 -90.995612 
L 350.29495 -88.296882 
L 349.615234 -85.598152 
L 349.088232 -82.899421 
L 348.652825 -80.200691 
L 348.271863 -77.501961 
L 347.872308 -74.803231 
L 347.569369 -72.104501 
L 347.348236 -69.40577 
L 347.143489 -66.70704 
L 347.018196 -64.00831 
L 346.940425 -61.30958 
L 346.87884 -58.61085 
L 346.840493 -55.912119 
L 346.817013 -53.213389 
L 346.809846 -50.514659 
z
" id="m7ac70dda4d" style="stroke:#404040;stroke-width:1.5;"/>
    </defs>
    <g clip-path="url(#p4a2a24d4fe)">
     <use style="fill:#a03434;stroke:#404040;stroke-width:1.5;" x="0" xlink:href="#m7ac70dda4d" y="338.905312"/>
    </g>
   </g>
   <g id="line2d_12">
    <path clip-path="url(#p4a2a24d4fe)" d="M 99.377922 208.212722 
L 194.762078 208.212722 
" style="fill:none;stroke:#404040;stroke-dasharray:3.375,3.375;stroke-dashoffset:0;stroke-width:1.5;"/>
   </g>
   <g id="line2d_13">
    <path clip-path="url(#p4a2a24d4fe)" d="M 80.999863 181.008203 
L 213.140137 181.008203 
" style="fill:none;stroke:#404040;stroke-dasharray:6.75,6.75;stroke-dashoffset:0;stroke-width:1.5;"/>
   </g>
   <g id="line2d_14">
    <path clip-path="url(#p4a2a24d4fe)" d="M 89.53943 155.184733 
L 204.60057 155.184733 
" style="fill:none;stroke:#404040;stroke-dasharray:3.375,3.375;stroke-dashoffset:0;stroke-width:1.5;"/>
   </g>
   <g id="line2d_15">
    <path clip-path="url(#p4a2a24d4fe)" d="M 286.536976 187.519229 
L 407.070524 187.519229 
" style="fill:none;stroke:#404040;stroke-dasharray:3.375,3.375;stroke-dashoffset:0;stroke-width:1.5;"/>
   </g>
   <g id="line2d_16">
    <path clip-path="url(#p4a2a24d4fe)" d="M 268.445754 165.492461 
L 425.161746 165.492461 
" style="fill:none;stroke:#404040;stroke-dasharray:6.75,6.75;stroke-dashoffset:0;stroke-width:1.5;"/>
   </g>
   <g id="line2d_17">
    <path clip-path="url(#p4a2a24d4fe)" d="M 275.801463 144.90822 
L 417.806037 144.90822 
" style="fill:none;stroke:#404040;stroke-dasharray:3.375,3.375;stroke-dashoffset:0;stroke-width:1.5;"/>
   </g>
   <g id="patch_3">
    <path d="M 47.203125 312.83786 
L 47.203125 35.499026 
" style="fill:none;stroke:#262626;stroke-linecap:square;stroke-linejoin:miter;stroke-width:0.8;"/>
   </g>
   <g id="patch_4">
    <path d="M 147.07 315.56 
L 346.80375 315.56 
" style="fill:none;stroke:#262626;stroke-linecap:square;stroke-linejoin:miter;stroke-width:0.8;"/>
   </g>
   <g id="text_13">
    <text style="fill:#262626;font-family:Arial;font-size:10px;font-stretch:normal;font-style:normal;font-weight:normal;text-anchor:middle;" transform="rotate(-0, 246.936875, 19.228864)" x="246.936875" y="19.228864">*</text>
   </g>
  </g>
 </g>
 <defs>
  <clipPath id="p4a2a24d4fe">
   <rect height="308.36" width="399.4675" x="47.203125" y="7.2"/>
  </clipPath>
 </defs>
</svg>
