<?xml version="1.0" encoding="utf-8" standalone="no"?>
<!DOCTYPE svg PUBLIC "-//W3C//DTD SVG 1.1//EN"
  "http://www.w3.org/Graphics/SVG/1.1/DTD/svg11.dtd">
<svg height="337.998125pt" version="1.1" viewBox="0 0 453.360937 337.998125" width="453.360937pt" xmlns="http://www.w3.org/2000/svg" xmlns:xlink="http://www.w3.org/1999/xlink">
 <metadata>
  <rdf:RDF xmlns:cc="http://creativecommons.org/ns#" xmlns:dc="http://purl.org/dc/elements/1.1/" xmlns:rdf="http://www.w3.org/1999/02/22-rdf-syntax-ns#">
   <cc:Work>
    <dc:type rdf:resource="http://purl.org/dc/dcmitype/StillImage"/>
    <dc:date>2022-09-28T03:45:45.410839</dc:date>
    <dc:format>image/svg+xml</dc:format>
    <dc:creator>
     <cc:Agent>
      <dc:title>Matplotlib v3.4.3, https://matplotlib.org/</dc:title>
     </cc:Agent>
    </dc:creator>
   </cc:Work>
  </rdf:RDF>
 </metadata>
 <defs>
  <style type="text/css">*{stroke-linecap:butt;stroke-linejoin:round;}</style>
 </defs>
 <g id="figure_1">
  <g id="patch_1">
   <path d="M 0 337.998125 
L 453.360937 337.998125 
L 453.360937 0 
L 0 0 
z
" style="fill:#ffffff;"/>
  </g>
  <g id="axes_1">
   <g id="patch_2">
    <path d="M 52.160938 314.12 
L 446.160937 314.12 
L 446.160937 7.2 
L 52.160938 7.2 
z
" style="fill:#ffffff;"/>
   </g>
   <g id="matplotlib.axis_1">
    <g id="xtick_1">
     <g id="line2d_1">
      <defs>
       <path d="M 0 0 
L 0 3.5 
" id="m40fd1528bf" style="stroke:#262626;stroke-width:0.8;"/>
      </defs>
      <g>
       <use style="fill:#262626;stroke:#262626;stroke-width:0.8;" x="150.660938" xlink:href="#m40fd1528bf" y="314.12"/>
      </g>
     </g>
     <g id="text_1">
      <text style="fill:#262626;font-family:DejaVu Sans;font-size:10px;font-stretch:normal;font-style:normal;font-weight:normal;text-anchor:middle;" transform="rotate(-0, 150.660938, 328.718437)" x="150.660938" y="328.718437">within network</text>
     </g>
    </g>
    <g id="xtick_2">
     <g id="line2d_2">
      <g>
       <use style="fill:#262626;stroke:#262626;stroke-width:0.8;" x="347.660938" xlink:href="#m40fd1528bf" y="314.12"/>
      </g>
     </g>
     <g id="text_2">
      <text style="fill:#262626;font-family:DejaVu Sans;font-size:10px;font-stretch:normal;font-style:normal;font-weight:normal;text-anchor:middle;" transform="rotate(-0, 347.660938, 328.718437)" x="347.660938" y="328.718437">between network</text>
     </g>
    </g>
   </g>
   <g id="matplotlib.axis_2">
    <g id="ytick_1">
     <g id="line2d_3">
      <defs>
       <path d="M 0 0 
L -3.5 0 
" id="m36c42e34ef" style="stroke:#262626;stroke-width:0.8;"/>
      </defs>
      <g>
       <use style="fill:#262626;stroke:#262626;stroke-width:0.8;" x="52.160938" xlink:href="#m36c42e34ef" y="292.319159"/>
      </g>
     </g>
     <g id="text_3">
      <text style="fill:#262626;font-family:DejaVu Sans;font-size:10px;font-stretch:normal;font-style:normal;font-weight:normal;text-anchor:end;" transform="rotate(-0, 45.160938, 296.118378)" x="45.160938" y="296.118378">−7.5</text>
     </g>
    </g>
    <g id="ytick_2">
     <g id="line2d_4">
      <g>
       <use style="fill:#262626;stroke:#262626;stroke-width:0.8;" x="52.160938" xlink:href="#m36c42e34ef" y="257.882573"/>
      </g>
     </g>
     <g id="text_4">
      <text style="fill:#262626;font-family:DejaVu Sans;font-size:10px;font-stretch:normal;font-style:normal;font-weight:normal;text-anchor:end;" transform="rotate(-0, 45.160938, 261.681791)" x="45.160938" y="261.681791">−5.0</text>
     </g>
    </g>
    <g id="ytick_3">
     <g id="line2d_5">
      <g>
       <use style="fill:#262626;stroke:#262626;stroke-width:0.8;" x="52.160938" xlink:href="#m36c42e34ef" y="223.445986"/>
      </g>
     </g>
     <g id="text_5">
      <text style="fill:#262626;font-family:DejaVu Sans;font-size:10px;font-stretch:normal;font-style:normal;font-weight:normal;text-anchor:end;" transform="rotate(-0, 45.160938, 227.245205)" x="45.160938" y="227.245205">−2.5</text>
     </g>
    </g>
    <g id="ytick_4">
     <g id="line2d_6">
      <g>
       <use style="fill:#262626;stroke:#262626;stroke-width:0.8;" x="52.160938" xlink:href="#m36c42e34ef" y="189.0094"/>
      </g>
     </g>
     <g id="text_6">
      <text style="fill:#262626;font-family:DejaVu Sans;font-size:10px;font-stretch:normal;font-style:normal;font-weight:normal;text-anchor:end;" transform="rotate(-0, 45.160938, 192.808618)" x="45.160938" y="192.808618">0.0</text>
     </g>
    </g>
    <g id="ytick_5">
     <g id="line2d_7">
      <g>
       <use style="fill:#262626;stroke:#262626;stroke-width:0.8;" x="52.160938" xlink:href="#m36c42e34ef" y="154.572813"/>
      </g>
     </g>
     <g id="text_7">
      <text style="fill:#262626;font-family:DejaVu Sans;font-size:10px;font-stretch:normal;font-style:normal;font-weight:normal;text-anchor:end;" transform="rotate(-0, 45.160938, 158.372032)" x="45.160938" y="158.372032">2.5</text>
     </g>
    </g>
    <g id="ytick_6">
     <g id="line2d_8">
      <g>
       <use style="fill:#262626;stroke:#262626;stroke-width:0.8;" x="52.160938" xlink:href="#m36c42e34ef" y="120.136227"/>
      </g>
     </g>
     <g id="text_8">
      <text style="fill:#262626;font-family:DejaVu Sans;font-size:10px;font-stretch:normal;font-style:normal;font-weight:normal;text-anchor:end;" transform="rotate(-0, 45.160938, 123.935445)" x="45.160938" y="123.935445">5.0</text>
     </g>
    </g>
    <g id="ytick_7">
     <g id="line2d_9">
      <g>
       <use style="fill:#262626;stroke:#262626;stroke-width:0.8;" x="52.160938" xlink:href="#m36c42e34ef" y="85.69964"/>
      </g>
     </g>
     <g id="text_9">
      <text style="fill:#262626;font-family:DejaVu Sans;font-size:10px;font-stretch:normal;font-style:normal;font-weight:normal;text-anchor:end;" transform="rotate(-0, 45.160938, 89.498859)" x="45.160938" y="89.498859">7.5</text>
     </g>
    </g>
    <g id="ytick_8">
     <g id="line2d_10">
      <g>
       <use style="fill:#262626;stroke:#262626;stroke-width:0.8;" x="52.160938" xlink:href="#m36c42e34ef" y="51.263054"/>
      </g>
     </g>
     <g id="text_10">
      <text style="fill:#262626;font-family:DejaVu Sans;font-size:10px;font-stretch:normal;font-style:normal;font-weight:normal;text-anchor:end;" transform="rotate(-0, 45.160938, 55.062273)" x="45.160938" y="55.062273">10.0</text>
     </g>
    </g>
    <g id="ytick_9">
     <g id="line2d_11">
      <g>
       <use style="fill:#262626;stroke:#262626;stroke-width:0.8;" x="52.160938" xlink:href="#m36c42e34ef" y="16.826467"/>
      </g>
     </g>
     <g id="text_11">
      <text style="fill:#262626;font-family:DejaVu Sans;font-size:10px;font-stretch:normal;font-style:normal;font-weight:normal;text-anchor:end;" transform="rotate(-0, 45.160938, 20.625686)" x="45.160938" y="20.625686">12.5</text>
     </g>
    </g>
    <g id="text_12">
     <text style="fill:#262626;font-family:DejaVu Sans;font-size:10px;font-stretch:normal;font-style:normal;font-weight:normal;text-anchor:middle;" transform="rotate(-90, 14.798438, 160.66)" x="14.798438" y="160.66">standardized shortest path length</text>
    </g>
   </g>
   <g id="PolyCollection_1">
    <defs>
     <path d="M 150.664255 -37.829034 
L 150.65762 -37.829034 
L 150.657913 -40.345578 
L 150.654854 -42.862123 
L 150.651334 -45.378667 
L 150.655094 -47.895212 
L 150.65744 -50.411756 
L 150.655064 -52.9283 
L 150.652913 -55.444845 
L 150.650197 -57.961389 
L 150.643293 -60.477933 
L 150.631241 -62.994478 
L 150.616387 -65.511022 
L 150.599146 -68.027566 
L 150.576364 -70.544111 
L 150.534064 -73.060655 
L 150.478219 -75.577199 
L 150.404028 -78.093744 
L 150.310657 -80.610288 
L 150.191106 -83.126833 
L 150.026679 -85.643377 
L 149.897366 -88.159921 
L 149.787163 -90.676466 
L 149.637048 -93.19301 
L 149.450403 -95.709554 
L 149.288279 -98.226099 
L 149.098818 -100.742643 
L 148.730997 -103.259187 
L 148.03119 -105.775732 
L 146.778566 -108.292276 
L 144.954193 -110.808821 
L 143.196798 -113.325365 
L 142.731583 -115.841909 
L 143.772032 -118.358454 
L 144.891113 -120.874998 
L 144.656237 -123.391542 
L 143.165055 -125.908087 
L 140.829923 -128.424631 
L 137.583944 -130.941175 
L 133.646867 -133.45772 
L 129.700602 -135.974264 
L 127.311425 -138.490808 
L 128.7748 -141.007353 
L 133.759362 -143.523897 
L 139.092807 -146.040442 
L 141.7122 -148.556986 
L 139.24991 -151.07353 
L 129.243415 -153.590075 
L 113.82582 -156.106619 
L 103.967189 -158.623163 
L 106.183817 -161.139708 
L 115.718309 -163.656252 
L 125.923512 -166.172796 
L 133.949588 -168.689341 
L 139.419801 -171.205885 
L 142.906752 -173.722429 
L 144.726414 -176.238974 
L 143.883509 -178.755518 
L 135.940089 -181.272063 
L 117.255712 -183.788607 
L 102.529842 -186.305151 
L 110.181157 -188.821696 
L 128.489322 -191.33824 
L 140.262524 -193.854784 
L 145.286045 -196.371329 
L 147.496498 -198.887873 
L 148.5689 -201.404417 
L 148.885294 -203.920962 
L 148.442402 -206.437506 
L 147.323546 -208.954051 
L 146.010625 -211.470595 
L 145.261461 -213.987139 
L 145.447356 -216.503684 
L 146.281854 -219.020228 
L 147.287983 -221.536772 
L 148.184071 -224.053317 
L 148.895042 -226.569861 
L 149.455961 -229.086405 
L 149.855575 -231.60295 
L 150.103859 -234.119494 
L 150.258844 -236.636038 
L 150.369624 -239.152583 
L 150.459626 -241.669127 
L 150.525908 -244.185672 
L 150.561431 -246.702216 
L 150.575951 -249.21876 
L 150.576443 -251.735305 
L 150.569309 -254.251849 
L 150.582636 -256.768393 
L 150.600535 -259.284938 
L 150.614057 -261.801482 
L 150.624681 -264.318026 
L 150.627713 -266.834571 
L 150.63109 -269.351115 
L 150.637934 -271.86766 
L 150.641243 -274.384204 
L 150.645059 -276.900748 
L 150.652031 -279.417293 
L 150.656527 -281.933837 
L 150.656306 -284.450381 
L 150.654374 -286.966926 
L 150.667501 -286.966926 
L 150.667501 -286.966926 
L 150.665569 -284.450381 
L 150.665348 -281.933837 
L 150.669844 -279.417293 
L 150.676816 -276.900748 
L 150.680632 -274.384204 
L 150.683941 -271.86766 
L 150.690785 -269.351115 
L 150.694162 -266.834571 
L 150.697194 -264.318026 
L 150.707818 -261.801482 
L 150.72134 -259.284938 
L 150.739239 -256.768393 
L 150.752566 -254.251849 
L 150.745432 -251.735305 
L 150.745924 -249.21876 
L 150.760444 -246.702216 
L 150.795967 -244.185672 
L 150.862249 -241.669127 
L 150.952251 -239.152583 
L 151.063031 -236.636038 
L 151.218016 -234.119494 
L 151.4663 -231.60295 
L 151.865914 -229.086405 
L 152.426833 -226.569861 
L 153.137804 -224.053317 
L 154.033892 -221.536772 
L 155.040021 -219.020228 
L 155.874519 -216.503684 
L 156.060414 -213.987139 
L 155.31125 -211.470595 
L 153.998329 -208.954051 
L 152.879473 -206.437506 
L 152.436581 -203.920962 
L 152.752975 -201.404417 
L 153.825377 -198.887873 
L 156.03583 -196.371329 
L 161.059351 -193.854784 
L 172.832553 -191.33824 
L 191.140718 -188.821696 
L 198.792033 -186.305151 
L 184.066163 -183.788607 
L 165.381786 -181.272063 
L 157.438366 -178.755518 
L 156.595461 -176.238974 
L 158.415123 -173.722429 
L 161.902074 -171.205885 
L 167.372287 -168.689341 
L 175.398363 -166.172796 
L 185.603566 -163.656252 
L 195.138058 -161.139708 
L 197.354686 -158.623163 
L 187.496055 -156.106619 
L 172.07846 -153.590075 
L 162.071965 -151.07353 
L 159.609675 -148.556986 
L 162.229068 -146.040442 
L 167.562513 -143.523897 
L 172.547075 -141.007353 
L 174.01045 -138.490808 
L 171.621273 -135.974264 
L 167.675008 -133.45772 
L 163.737931 -130.941175 
L 160.491952 -128.424631 
L 158.15682 -125.908087 
L 156.665638 -123.391542 
L 156.430762 -120.874998 
L 157.549843 -118.358454 
L 158.590292 -115.841909 
L 158.125077 -113.325365 
L 156.367682 -110.808821 
L 154.543309 -108.292276 
L 153.290685 -105.775732 
L 152.590878 -103.259187 
L 152.223057 -100.742643 
L 152.033596 -98.226099 
L 151.871472 -95.709554 
L 151.684827 -93.19301 
L 151.534712 -90.676466 
L 151.424509 -88.159921 
L 151.295196 -85.643377 
L 151.130769 -83.126833 
L 151.011218 -80.610288 
L 150.917847 -78.093744 
L 150.843656 -75.577199 
L 150.787811 -73.060655 
L 150.745511 -70.544111 
L 150.722729 -68.027566 
L 150.705488 -65.511022 
L 150.690634 -62.994478 
L 150.678582 -60.477933 
L 150.671678 -57.961389 
L 150.668962 -55.444845 
L 150.666811 -52.9283 
L 150.664435 -50.411756 
L 150.666781 -47.895212 
L 150.670541 -45.378667 
L 150.667021 -42.862123 
L 150.663962 -40.345578 
L 150.664255 -37.829034 
z
" id="m021e164a55" style="stroke:#404040;stroke-width:1.5;"/>
    </defs>
    <g clip-path="url(#p30a3d5fa2c)">
     <use style="fill:#5573cd;stroke:#404040;stroke-width:1.5;" x="0" xlink:href="#m021e164a55" y="337.998125"/>
    </g>
   </g>
   <g id="PolyCollection_2">
    <defs>
     <path d="M 347.666048 -57.51653 
L 347.655827 -57.51653 
L 347.658457 -60.136032 
L 347.659778 -62.755534 
L 347.658263 -65.375036 
L 347.654482 -67.994538 
L 347.654483 -70.61404 
L 347.654963 -73.233542 
L 347.650441 -75.853044 
L 347.642956 -78.472545 
L 347.630024 -81.092047 
L 347.626168 -83.711549 
L 347.599228 -86.331051 
L 347.577069 -88.950553 
L 347.555288 -91.570055 
L 347.541553 -94.189557 
L 347.513698 -96.809059 
L 347.456613 -99.42856 
L 347.360284 -102.048062 
L 347.210247 -104.667564 
L 346.9581 -107.287066 
L 346.478896 -109.906568 
L 345.653766 -112.52607 
L 344.875559 -115.145572 
L 344.990678 -117.765073 
L 345.338444 -120.384575 
L 345.094519 -123.004077 
L 344.163268 -125.623579 
L 342.659542 -128.243081 
L 340.516602 -130.862583 
L 337.9605 -133.482085 
L 335.295423 -136.101587 
L 333.899913 -138.721088 
L 334.897871 -141.34059 
L 337.640538 -143.960092 
L 340.565621 -146.579594 
L 341.712638 -149.199096 
L 338.325027 -151.818598 
L 323.613546 -154.4381 
L 301.288254 -157.057602 
L 294.541123 -159.677103 
L 304.193999 -162.296605 
L 317.581854 -164.916107 
L 328.128298 -167.535609 
L 334.754578 -170.155111 
L 338.743942 -172.774613 
L 340.826462 -175.394115 
L 341.557462 -178.013617 
L 337.247685 -180.633118 
L 309.709229 -183.25262 
L 268.860937 -185.872122 
L 281.582652 -188.491624 
L 319.279347 -191.111126 
L 335.680696 -193.730628 
L 341.483814 -196.35013 
L 343.883012 -198.969632 
L 344.945404 -201.589133 
L 345.256513 -204.208635 
L 344.384953 -206.828137 
L 342.035708 -209.447639 
L 339.460757 -212.067141 
L 338.473937 -214.686643 
L 339.431698 -217.306145 
L 341.505341 -219.925647 
L 343.217543 -222.545148 
L 344.555842 -225.16465 
L 345.544309 -227.784152 
L 346.185776 -230.403654 
L 346.634014 -233.023156 
L 346.949714 -235.642658 
L 347.146268 -238.26216 
L 347.254395 -240.881662 
L 347.348822 -243.501163 
L 347.391532 -246.120665 
L 347.439671 -248.740167 
L 347.470565 -251.359669 
L 347.486967 -253.979171 
L 347.520855 -256.598673 
L 347.558321 -259.218175 
L 347.57642 -261.837677 
L 347.592459 -264.457178 
L 347.605537 -267.07668 
L 347.610406 -269.696182 
L 347.620969 -272.315684 
L 347.631855 -274.935186 
L 347.644175 -277.554688 
L 347.6501 -280.17419 
L 347.651815 -282.793692 
L 347.65336 -285.413193 
L 347.656847 -288.032695 
L 347.659866 -290.652197 
L 347.657419 -293.271699 
L 347.657817 -295.891201 
L 347.659201 -298.510703 
L 347.658577 -301.130205 
L 347.658762 -303.749707 
L 347.659782 -306.369208 
L 347.660883 -308.98871 
L 347.660933 -311.608212 
L 347.660666 -314.227714 
L 347.659851 -316.847216 
L 347.662024 -316.847216 
L 347.662024 -316.847216 
L 347.661209 -314.227714 
L 347.660942 -311.608212 
L 347.660992 -308.98871 
L 347.662093 -306.369208 
L 347.663113 -303.749707 
L 347.663298 -301.130205 
L 347.662674 -298.510703 
L 347.664058 -295.891201 
L 347.664456 -293.271699 
L 347.662009 -290.652197 
L 347.665028 -288.032695 
L 347.668515 -285.413193 
L 347.67006 -282.793692 
L 347.671775 -280.17419 
L 347.6777 -277.554688 
L 347.69002 -274.935186 
L 347.700906 -272.315684 
L 347.711469 -269.696182 
L 347.716338 -267.07668 
L 347.729416 -264.457178 
L 347.745455 -261.837677 
L 347.763554 -259.218175 
L 347.80102 -256.598673 
L 347.834908 -253.979171 
L 347.85131 -251.359669 
L 347.882204 -248.740167 
L 347.930343 -246.120665 
L 347.973053 -243.501163 
L 348.06748 -240.881662 
L 348.175607 -238.26216 
L 348.372161 -235.642658 
L 348.687861 -233.023156 
L 349.136099 -230.403654 
L 349.777566 -227.784152 
L 350.766033 -225.16465 
L 352.104332 -222.545148 
L 353.816534 -219.925647 
L 355.890177 -217.306145 
L 356.847938 -214.686643 
L 355.861118 -212.067141 
L 353.286167 -209.447639 
L 350.936922 -206.828137 
L 350.065362 -204.208635 
L 350.376471 -201.589133 
L 351.438863 -198.969632 
L 353.838061 -196.35013 
L 359.641179 -193.730628 
L 376.042528 -191.111126 
L 413.739223 -188.491624 
L 426.460938 -185.872122 
L 385.612646 -183.25262 
L 358.07419 -180.633118 
L 353.764413 -178.013617 
L 354.495413 -175.394115 
L 356.577933 -172.774613 
L 360.567297 -170.155111 
L 367.193577 -167.535609 
L 377.740021 -164.916107 
L 391.127876 -162.296605 
L 400.780752 -159.677103 
L 394.033621 -157.057602 
L 371.708329 -154.4381 
L 356.996848 -151.818598 
L 353.609237 -149.199096 
L 354.756254 -146.579594 
L 357.681337 -143.960092 
L 360.424004 -141.34059 
L 361.421962 -138.721088 
L 360.026452 -136.101587 
L 357.361375 -133.482085 
L 354.805273 -130.862583 
L 352.662333 -128.243081 
L 351.158607 -125.623579 
L 350.227356 -123.004077 
L 349.983431 -120.384575 
L 350.331197 -117.765073 
L 350.446316 -115.145572 
L 349.668109 -112.52607 
L 348.842979 -109.906568 
L 348.363775 -107.287066 
L 348.111628 -104.667564 
L 347.961591 -102.048062 
L 347.865262 -99.42856 
L 347.808177 -96.809059 
L 347.780322 -94.189557 
L 347.766587 -91.570055 
L 347.744806 -88.950553 
L 347.722647 -86.331051 
L 347.695707 -83.711549 
L 347.691851 -81.092047 
L 347.678919 -78.472545 
L 347.671434 -75.853044 
L 347.666912 -73.233542 
L 347.667392 -70.61404 
L 347.667393 -67.994538 
L 347.663612 -65.375036 
L 347.662097 -62.755534 
L 347.663418 -60.136032 
L 347.666048 -57.51653 
z
" id="m8e887848e4" style="stroke:#404040;stroke-width:1.5;"/>
    </defs>
    <g clip-path="url(#p30a3d5fa2c)">
     <use style="fill:#a03434;stroke:#404040;stroke-width:1.5;" x="0" xlink:href="#m8e887848e4" y="337.998125"/>
    </g>
   </g>
   <g id="line2d_12">
    <path clip-path="url(#p30a3d5fa2c)" d="M 133.928378 195.690417 
L 167.393497 195.690417 
" style="fill:none;stroke:#404040;stroke-dasharray:3.375,3.375;stroke-dashoffset:0;stroke-width:1.5;"/>
   </g>
   <g id="line2d_13">
    <path clip-path="url(#p30a3d5fa2c)" d="M 106.628588 177.080216 
L 194.693287 177.080216 
" style="fill:none;stroke:#404040;stroke-dasharray:6.75,6.75;stroke-dashoffset:0;stroke-width:1.5;"/>
   </g>
   <g id="line2d_14">
    <path clip-path="url(#p30a3d5fa2c)" d="M 103.011153 152.659796 
L 198.310722 152.659796 
" style="fill:none;stroke:#404040;stroke-dasharray:3.375,3.375;stroke-dashoffset:0;stroke-width:1.5;"/>
   </g>
   <g id="line2d_15">
    <path clip-path="url(#p30a3d5fa2c)" d="M 301.751981 180.358861 
L 393.569894 180.358861 
" style="fill:none;stroke:#404040;stroke-dasharray:3.375,3.375;stroke-dashoffset:0;stroke-width:1.5;"/>
   </g>
   <g id="line2d_16">
    <path clip-path="url(#p30a3d5fa2c)" d="M 334.883642 168.347448 
L 360.438233 168.347448 
" style="fill:none;stroke:#404040;stroke-dasharray:6.75,6.75;stroke-dashoffset:0;stroke-width:1.5;"/>
   </g>
   <g id="line2d_17">
    <path clip-path="url(#p30a3d5fa2c)" d="M 282.243435 150.546382 
L 413.07844 150.546382 
" style="fill:none;stroke:#404040;stroke-dasharray:3.375,3.375;stroke-dashoffset:0;stroke-width:1.5;"/>
   </g>
   <g id="patch_3">
    <path d="M 52.160938 292.319159 
L 52.160938 16.826467 
" style="fill:none;stroke:#262626;stroke-linecap:square;stroke-linejoin:miter;stroke-width:0.8;"/>
   </g>
   <g id="patch_4">
    <path d="M 150.660938 314.12 
L 347.660938 314.12 
" style="fill:none;stroke:#262626;stroke-linecap:square;stroke-linejoin:miter;stroke-width:0.8;"/>
   </g>
   <g id="text_13">
    <text style="fill:#262626;font-family:DejaVu Sans;font-size:10px;font-stretch:normal;font-style:normal;font-weight:normal;text-anchor:middle;" transform="rotate(-0, 249.160938, 19.071222)" x="249.160938" y="19.071222">*</text>
   </g>
  </g>
 </g>
 <defs>
  <clipPath id="p30a3d5fa2c">
   <rect height="306.92" width="394" x="52.160938" y="7.2"/>
  </clipPath>
 </defs>
</svg>
