<?xml version="1.0" encoding="utf-8" standalone="no"?>
<!DOCTYPE svg PUBLIC "-//W3C//DTD SVG 1.1//EN"
  "http://www.w3.org/Graphics/SVG/1.1/DTD/svg11.dtd">
<!-- Created with matplotlib (https://matplotlib.org/) -->
<svg height="338.905312pt" version="1.1" viewBox="0 0 453.870625 338.905312" width="453.870625pt" xmlns="http://www.w3.org/2000/svg" xmlns:xlink="http://www.w3.org/1999/xlink">
 <metadata>
  <rdf:RDF xmlns:cc="http://creativecommons.org/ns#" xmlns:dc="http://purl.org/dc/elements/1.1/" xmlns:rdf="http://www.w3.org/1999/02/22-rdf-syntax-ns#">
   <cc:Work>
    <dc:type rdf:resource="http://purl.org/dc/dcmitype/StillImage"/>
    <dc:date>2023-03-28T13:02:30.510544</dc:date>
    <dc:format>image/svg+xml</dc:format>
    <dc:creator>
     <cc:Agent>
      <dc:title>Matplotlib v3.3.4, https://matplotlib.org/</dc:title>
     </cc:Agent>
    </dc:creator>
   </cc:Work>
  </rdf:RDF>
 </metadata>
 <defs>
  <style type="text/css">*{stroke-linecap:butt;stroke-linejoin:round;}</style>
 </defs>
 <g id="figure_1">
  <g id="patch_1">
   <path d="M 0 338.905312 
L 453.870625 338.905312 
L 453.870625 0 
L 0 0 
z
" style="fill:#ffffff;"/>
  </g>
  <g id="axes_1">
   <g id="patch_2">
    <path d="M 47.203125 315.56 
L 446.670625 315.56 
L 446.670625 7.2 
L 47.203125 7.2 
z
" style="fill:#ffffff;"/>
   </g>
   <g id="matplotlib.axis_1">
    <g id="xtick_1">
     <g id="line2d_1">
      <defs>
       <path d="M 0 0 
L 0 3.5 
" id="mcc789d584b" style="stroke:#262626;stroke-width:0.8;"/>
      </defs>
      <g>
       <use style="fill:#262626;stroke:#262626;stroke-width:0.8;" x="147.07" xlink:href="#mcc789d584b" y="315.56"/>
      </g>
     </g>
     <g id="text_1">
      <text style="fill:#262626;font-family:Arial;font-size:10px;font-stretch:normal;font-style:normal;font-weight:normal;text-anchor:middle;" transform="rotate(-0, 147.07, 329.717812)" x="147.07" y="329.717812">within network</text>
     </g>
    </g>
    <g id="xtick_2">
     <g id="line2d_2">
      <g>
       <use style="fill:#262626;stroke:#262626;stroke-width:0.8;" x="346.80375" xlink:href="#mcc789d584b" y="315.56"/>
      </g>
     </g>
     <g id="text_2">
      <text style="fill:#262626;font-family:Arial;font-size:10px;font-stretch:normal;font-style:normal;font-weight:normal;text-anchor:middle;" transform="rotate(-0, 346.80375, 329.717812)" x="346.80375" y="329.717812">between network</text>
     </g>
    </g>
   </g>
   <g id="matplotlib.axis_2">
    <g id="ytick_1">
     <g id="line2d_3">
      <defs>
       <path d="M 0 0 
L -3.5 0 
" id="mea0dd3081a" style="stroke:#262626;stroke-width:0.8;"/>
      </defs>
      <g>
       <use style="fill:#262626;stroke:#262626;stroke-width:0.8;" x="47.203125" xlink:href="#mea0dd3081a" y="298.515428"/>
      </g>
     </g>
     <g id="text_3">
      <text style="fill:#262626;font-family:Arial;font-size:10px;font-stretch:normal;font-style:normal;font-weight:normal;text-anchor:end;" transform="rotate(-0, 40.203125, 302.094334)" x="40.203125" y="302.094334">−5.0</text>
     </g>
    </g>
    <g id="ytick_2">
     <g id="line2d_4">
      <g>
       <use style="fill:#262626;stroke:#262626;stroke-width:0.8;" x="47.203125" xlink:href="#mea0dd3081a" y="261.103208"/>
      </g>
     </g>
     <g id="text_4">
      <text style="fill:#262626;font-family:Arial;font-size:10px;font-stretch:normal;font-style:normal;font-weight:normal;text-anchor:end;" transform="rotate(-0, 40.203125, 264.682114)" x="40.203125" y="264.682114">−2.5</text>
     </g>
    </g>
    <g id="ytick_3">
     <g id="line2d_5">
      <g>
       <use style="fill:#262626;stroke:#262626;stroke-width:0.8;" x="47.203125" xlink:href="#mea0dd3081a" y="223.690988"/>
      </g>
     </g>
     <g id="text_5">
      <text style="fill:#262626;font-family:Arial;font-size:10px;font-stretch:normal;font-style:normal;font-weight:normal;text-anchor:end;" transform="rotate(-0, 40.203125, 227.269894)" x="40.203125" y="227.269894">0.0</text>
     </g>
    </g>
    <g id="ytick_4">
     <g id="line2d_6">
      <g>
       <use style="fill:#262626;stroke:#262626;stroke-width:0.8;" x="47.203125" xlink:href="#mea0dd3081a" y="186.278768"/>
      </g>
     </g>
     <g id="text_6">
      <text style="fill:#262626;font-family:Arial;font-size:10px;font-stretch:normal;font-style:normal;font-weight:normal;text-anchor:end;" transform="rotate(-0, 40.203125, 189.857674)" x="40.203125" y="189.857674">2.5</text>
     </g>
    </g>
    <g id="ytick_5">
     <g id="line2d_7">
      <g>
       <use style="fill:#262626;stroke:#262626;stroke-width:0.8;" x="47.203125" xlink:href="#mea0dd3081a" y="148.866548"/>
      </g>
     </g>
     <g id="text_7">
      <text style="fill:#262626;font-family:Arial;font-size:10px;font-stretch:normal;font-style:normal;font-weight:normal;text-anchor:end;" transform="rotate(-0, 40.203125, 152.445454)" x="40.203125" y="152.445454">5.0</text>
     </g>
    </g>
    <g id="ytick_6">
     <g id="line2d_8">
      <g>
       <use style="fill:#262626;stroke:#262626;stroke-width:0.8;" x="47.203125" xlink:href="#mea0dd3081a" y="111.454328"/>
      </g>
     </g>
     <g id="text_8">
      <text style="fill:#262626;font-family:Arial;font-size:10px;font-stretch:normal;font-style:normal;font-weight:normal;text-anchor:end;" transform="rotate(-0, 40.203125, 115.033234)" x="40.203125" y="115.033234">7.5</text>
     </g>
    </g>
    <g id="ytick_7">
     <g id="line2d_9">
      <g>
       <use style="fill:#262626;stroke:#262626;stroke-width:0.8;" x="47.203125" xlink:href="#mea0dd3081a" y="74.042108"/>
      </g>
     </g>
     <g id="text_9">
      <text style="fill:#262626;font-family:Arial;font-size:10px;font-stretch:normal;font-style:normal;font-weight:normal;text-anchor:end;" transform="rotate(-0, 40.203125, 77.621014)" x="40.203125" y="77.621014">10.0</text>
     </g>
    </g>
    <g id="ytick_8">
     <g id="line2d_10">
      <g>
       <use style="fill:#262626;stroke:#262626;stroke-width:0.8;" x="47.203125" xlink:href="#mea0dd3081a" y="36.629888"/>
      </g>
     </g>
     <g id="text_10">
      <text style="fill:#262626;font-family:Arial;font-size:10px;font-stretch:normal;font-style:normal;font-weight:normal;text-anchor:end;" transform="rotate(-0, 40.203125, 40.208794)" x="40.203125" y="40.208794">12.5</text>
     </g>
    </g>
    <g id="text_11">
     <text style="fill:#262626;font-family:Arial;font-size:10px;font-stretch:normal;font-style:normal;font-weight:normal;text-anchor:middle;" transform="rotate(-90, 14.357813, 161.38)" x="14.357813" y="161.38">standardized shortest path length</text>
    </g>
   </g>
   <g id="PolyCollection_1">
    <defs>
     <path d="M 147.081121 -37.361676 
L 147.058879 -37.361676 
L 147.058189 -40.032724 
L 147.056474 -42.703773 
L 147.051453 -45.374821 
L 147.03781 -48.045869 
L 147.003543 -50.716917 
L 146.936415 -53.387965 
L 146.814499 -56.059013 
L 146.599908 -58.730062 
L 146.248581 -61.40111 
L 145.728822 -64.072158 
L 145.025077 -66.743206 
L 144.006476 -69.414254 
L 142.435644 -72.085303 
L 140.240616 -74.756351 
L 137.476442 -77.427399 
L 134.137301 -80.098447 
L 130.173082 -82.769495 
L 125.605035 -85.440543 
L 120.661942 -88.111592 
L 115.828455 -90.78264 
L 111.496478 -93.453688 
L 107.763907 -96.124736 
L 104.777699 -98.795784 
L 102.616626 -101.466833 
L 101.257516 -104.137881 
L 100.670684 -106.808929 
L 100.349571 -109.479977 
L 99.557097 -112.151025 
L 98.021523 -114.822073 
L 96.070229 -117.493122 
L 94.175879 -120.16417 
L 92.116528 -122.835218 
L 89.292678 -125.506266 
L 86.014672 -128.177314 
L 83.365833 -130.848363 
L 81.692275 -133.519411 
L 80.393107 -136.190459 
L 79.142556 -138.861507 
L 78.014004 -141.532555 
L 77.333773 -144.203603 
L 77.452046 -146.874652 
L 78.29467 -149.5457 
L 79.481734 -152.216748 
L 80.830609 -154.887796 
L 82.292067 -157.558844 
L 83.432622 -160.229893 
L 84.062658 -162.900941 
L 84.549923 -165.571989 
L 84.991063 -168.243037 
L 85.207901 -170.914085 
L 85.888873 -173.585133 
L 87.45994 -176.256182 
L 89.447207 -178.92723 
L 91.977183 -181.598278 
L 95.334051 -184.269326 
L 98.867356 -186.940374 
L 102.201959 -189.611423 
L 105.65621 -192.282471 
L 109.47785 -194.953519 
L 113.573646 -197.624567 
L 117.438429 -200.295615 
L 120.722245 -202.966664 
L 123.516198 -205.637712 
L 125.991714 -208.30876 
L 128.399922 -210.979808 
L 130.922087 -213.650856 
L 133.412161 -216.321904 
L 135.717971 -218.992953 
L 137.714484 -221.664001 
L 139.351343 -224.335049 
L 140.696522 -227.006097 
L 141.861936 -229.677145 
L 142.893323 -232.348194 
L 143.702976 -235.019242 
L 144.293931 -237.69029 
L 144.802656 -240.361338 
L 145.280584 -243.032386 
L 145.711146 -245.703434 
L 146.062887 -248.374483 
L 146.298026 -251.045531 
L 146.454606 -253.716579 
L 146.57241 -256.387627 
L 146.655872 -259.058675 
L 146.736112 -261.729724 
L 146.827474 -264.400772 
L 146.896756 -267.07182 
L 146.92493 -269.742868 
L 146.930564 -272.413916 
L 146.938852 -275.084964 
L 146.965174 -277.756013 
L 147.001402 -280.427061 
L 147.03402 -283.098109 
L 147.056464 -285.769157 
L 147.066752 -288.440205 
L 147.068911 -291.111254 
L 147.066387 -293.782302 
L 147.05962 -296.45335 
L 147.053069 -299.124398 
L 147.053851 -301.795446 
L 147.086149 -301.795446 
L 147.086149 -301.795446 
L 147.086931 -299.124398 
L 147.08038 -296.45335 
L 147.073613 -293.782302 
L 147.071089 -291.111254 
L 147.073248 -288.440205 
L 147.083536 -285.769157 
L 147.10598 -283.098109 
L 147.138598 -280.427061 
L 147.174826 -277.756013 
L 147.201148 -275.084964 
L 147.209436 -272.413916 
L 147.21507 -269.742868 
L 147.243244 -267.07182 
L 147.312526 -264.400772 
L 147.403888 -261.729724 
L 147.484128 -259.058675 
L 147.56759 -256.387627 
L 147.685394 -253.716579 
L 147.841974 -251.045531 
L 148.077113 -248.374483 
L 148.428854 -245.703434 
L 148.859416 -243.032386 
L 149.337344 -240.361338 
L 149.846069 -237.69029 
L 150.437024 -235.019242 
L 151.246677 -232.348194 
L 152.278064 -229.677145 
L 153.443478 -227.006097 
L 154.788657 -224.335049 
L 156.425516 -221.664001 
L 158.422029 -218.992953 
L 160.727839 -216.321904 
L 163.217913 -213.650856 
L 165.740078 -210.979808 
L 168.148286 -208.30876 
L 170.623802 -205.637712 
L 173.417755 -202.966664 
L 176.701571 -200.295615 
L 180.566354 -197.624567 
L 184.66215 -194.953519 
L 188.48379 -192.282471 
L 191.938041 -189.611423 
L 195.272644 -186.940374 
L 198.805949 -184.269326 
L 202.162817 -181.598278 
L 204.692793 -178.92723 
L 206.68006 -176.256182 
L 208.251127 -173.585133 
L 208.932099 -170.914085 
L 209.148937 -168.243037 
L 209.590077 -165.571989 
L 210.077342 -162.900941 
L 210.707378 -160.229893 
L 211.847933 -157.558844 
L 213.309391 -154.887796 
L 214.658266 -152.216748 
L 215.84533 -149.5457 
L 216.687954 -146.874652 
L 216.806227 -144.203603 
L 216.125996 -141.532555 
L 214.997444 -138.861507 
L 213.746893 -136.190459 
L 212.447725 -133.519411 
L 210.774167 -130.848363 
L 208.125328 -128.177314 
L 204.847322 -125.506266 
L 202.023472 -122.835218 
L 199.964121 -120.16417 
L 198.069771 -117.493122 
L 196.118477 -114.822073 
L 194.582903 -112.151025 
L 193.790429 -109.479977 
L 193.469316 -106.808929 
L 192.882484 -104.137881 
L 191.523374 -101.466833 
L 189.362301 -98.795784 
L 186.376093 -96.124736 
L 182.643522 -93.453688 
L 178.311545 -90.78264 
L 173.478058 -88.111592 
L 168.534965 -85.440543 
L 163.966918 -82.769495 
L 160.002699 -80.098447 
L 156.663558 -77.427399 
L 153.899384 -74.756351 
L 151.704356 -72.085303 
L 150.133524 -69.414254 
L 149.114923 -66.743206 
L 148.411178 -64.072158 
L 147.891419 -61.40111 
L 147.540092 -58.730062 
L 147.325501 -56.059013 
L 147.203585 -53.387965 
L 147.136457 -50.716917 
L 147.10219 -48.045869 
L 147.088547 -45.374821 
L 147.083526 -42.703773 
L 147.081811 -40.032724 
L 147.081121 -37.361676 
z
" id="m191cf7c036" style="stroke:#404040;stroke-width:1.5;"/>
    </defs>
    <g clip-path="url(#p653e2ec68a)">
     <use style="fill:#5573cd;stroke:#404040;stroke-width:1.5;" x="0" xlink:href="#m191cf7c036" y="338.905312"/>
    </g>
   </g>
   <g id="PolyCollection_2">
    <defs>
     <path d="M 346.812223 -54.503704 
L 346.795277 -54.503704 
L 346.78945 -57.162141 
L 346.77555 -59.820577 
L 346.742229 -62.479014 
L 346.673827 -65.137451 
L 346.557795 -67.795888 
L 346.348997 -70.454325 
L 346.05579 -73.112761 
L 345.629076 -75.771198 
L 344.950956 -78.429635 
L 343.990965 -81.088072 
L 342.565629 -83.746509 
L 340.825543 -86.404946 
L 338.7392 -89.063382 
L 336.010317 -91.721819 
L 332.876366 -94.380256 
L 329.507752 -97.038693 
L 326.19753 -99.69713 
L 323.496607 -102.355566 
L 321.413717 -105.014003 
L 319.530232 -107.67244 
L 318.376123 -110.330877 
L 317.363345 -112.989314 
L 315.760276 -115.647751 
L 313.536904 -118.306187 
L 310.953285 -120.964624 
L 308.330117 -123.623061 
L 304.858288 -126.281498 
L 300.25059 -128.939935 
L 294.952226 -131.598371 
L 290.142396 -134.256808 
L 286.199287 -136.915245 
L 282.616182 -139.573682 
L 278.878092 -142.232119 
L 276.088711 -144.890556 
L 274.481948 -147.548992 
L 272.967239 -150.207429 
L 271.389648 -152.865866 
L 269.747546 -155.524303 
L 268.726508 -158.18274 
L 268.216905 -160.841177 
L 267.621085 -163.499613 
L 267.257553 -166.15805 
L 266.91025 -168.816487 
L 266.99 -171.474924 
L 267.45369 -174.133361 
L 268.420596 -176.791797 
L 270.158797 -179.450234 
L 273.037447 -182.108671 
L 276.472792 -184.767108 
L 280.217477 -187.425545 
L 284.385672 -190.083982 
L 288.957132 -192.742418 
L 293.529427 -195.400855 
L 298.248422 -198.059292 
L 303.36281 -200.717729 
L 307.9624 -203.376166 
L 311.993129 -206.034602 
L 316.102219 -208.693039 
L 320.103909 -211.351476 
L 323.776496 -214.009913 
L 326.880496 -216.66835 
L 329.744142 -219.326787 
L 332.465741 -221.985223 
L 334.728082 -224.64366 
L 336.546962 -227.302097 
L 338.175578 -229.960534 
L 339.706292 -232.618971 
L 341.096794 -235.277407 
L 342.25242 -237.935844 
L 343.056335 -240.594281 
L 343.660905 -243.252718 
L 344.259047 -245.911155 
L 344.777577 -248.569592 
L 345.226253 -251.228028 
L 345.62213 -253.886465 
L 345.869827 -256.544902 
L 346.041898 -259.203339 
L 346.16822 -261.861776 
L 346.281569 -264.520212 
L 346.390888 -267.178649 
L 346.469812 -269.837086 
L 346.544619 -272.495523 
L 346.602321 -275.15396 
L 346.657465 -277.812397 
L 346.715888 -280.470833 
L 346.727993 -283.12927 
L 346.722479 -285.787707 
L 346.752246 -288.446144 
L 346.772795 -291.104581 
L 346.780576 -293.763017 
L 346.784384 -296.421454 
L 346.780823 -299.079891 
L 346.784299 -301.738328 
L 346.795643 -304.396765 
L 346.802427 -307.055202 
L 346.803683 -309.713638 
L 346.803602 -312.372075 
L 346.802283 -315.030512 
L 346.800592 -317.688949 
L 346.806908 -317.688949 
L 346.806908 -317.688949 
L 346.805217 -315.030512 
L 346.803898 -312.372075 
L 346.803817 -309.713638 
L 346.805073 -307.055202 
L 346.811857 -304.396765 
L 346.823201 -301.738328 
L 346.826677 -299.079891 
L 346.823116 -296.421454 
L 346.826924 -293.763017 
L 346.834705 -291.104581 
L 346.855254 -288.446144 
L 346.885021 -285.787707 
L 346.879507 -283.12927 
L 346.891612 -280.470833 
L 346.950035 -277.812397 
L 347.005179 -275.15396 
L 347.062881 -272.495523 
L 347.137688 -269.837086 
L 347.216612 -267.178649 
L 347.325931 -264.520212 
L 347.43928 -261.861776 
L 347.565602 -259.203339 
L 347.737673 -256.544902 
L 347.98537 -253.886465 
L 348.381247 -251.228028 
L 348.829923 -248.569592 
L 349.348453 -245.911155 
L 349.946595 -243.252718 
L 350.551165 -240.594281 
L 351.35508 -237.935844 
L 352.510706 -235.277407 
L 353.901208 -232.618971 
L 355.431922 -229.960534 
L 357.060538 -227.302097 
L 358.879418 -224.64366 
L 361.141759 -221.985223 
L 363.863358 -219.326787 
L 366.727004 -216.66835 
L 369.831004 -214.009913 
L 373.503591 -211.351476 
L 377.505281 -208.693039 
L 381.614371 -206.034602 
L 385.6451 -203.376166 
L 390.24469 -200.717729 
L 395.359078 -198.059292 
L 400.078073 -195.400855 
L 404.650368 -192.742418 
L 409.221828 -190.083982 
L 413.390023 -187.425545 
L 417.134708 -184.767108 
L 420.570053 -182.108671 
L 423.448703 -179.450234 
L 425.186904 -176.791797 
L 426.15381 -174.133361 
L 426.6175 -171.474924 
L 426.69725 -168.816487 
L 426.349947 -166.15805 
L 425.986415 -163.499613 
L 425.390595 -160.841177 
L 424.880992 -158.18274 
L 423.859954 -155.524303 
L 422.217852 -152.865866 
L 420.640261 -150.207429 
L 419.125552 -147.548992 
L 417.518789 -144.890556 
L 414.729408 -142.232119 
L 410.991318 -139.573682 
L 407.408213 -136.915245 
L 403.465104 -134.256808 
L 398.655274 -131.598371 
L 393.35691 -128.939935 
L 388.749212 -126.281498 
L 385.277383 -123.623061 
L 382.654215 -120.964624 
L 380.070596 -118.306187 
L 377.847224 -115.647751 
L 376.244155 -112.989314 
L 375.231377 -110.330877 
L 374.077268 -107.67244 
L 372.193783 -105.014003 
L 370.110893 -102.355566 
L 367.40997 -99.69713 
L 364.099748 -97.038693 
L 360.731134 -94.380256 
L 357.597183 -91.721819 
L 354.8683 -89.063382 
L 352.781957 -86.404946 
L 351.041871 -83.746509 
L 349.616535 -81.088072 
L 348.656544 -78.429635 
L 347.978424 -75.771198 
L 347.55171 -73.112761 
L 347.258503 -70.454325 
L 347.049705 -67.795888 
L 346.933673 -65.137451 
L 346.865271 -62.479014 
L 346.83195 -59.820577 
L 346.81805 -57.162141 
L 346.812223 -54.503704 
z
" id="m333485dbbf" style="stroke:#404040;stroke-width:1.5;"/>
    </defs>
    <g clip-path="url(#p653e2ec68a)">
     <use style="fill:#a03434;stroke:#404040;stroke-width:1.5;" x="0" xlink:href="#m333485dbbf" y="338.905312"/>
    </g>
   </g>
   <g id="line2d_11">
    <path clip-path="url(#p653e2ec68a)" d="M 92.666063 217.253451 
L 201.473937 217.253451 
" style="fill:none;stroke:#404040;stroke-dasharray:3.375,3.375;stroke-dashoffset:0;stroke-width:1.5;"/>
   </g>
   <g id="line2d_12">
    <path clip-path="url(#p653e2ec68a)" d="M 78.148225 190.813885 
L 215.991775 190.813885 
" style="fill:none;stroke:#404040;stroke-dasharray:6.75,6.75;stroke-dashoffset:0;stroke-width:1.5;"/>
   </g>
   <g id="line2d_13">
    <path clip-path="url(#p653e2ec68a)" d="M 86.500685 164.144487 
L 207.639315 164.144487 
" style="fill:none;stroke:#404040;stroke-dasharray:3.375,3.375;stroke-dashoffset:0;stroke-width:1.5;"/>
   </g>
   <g id="line2d_14">
    <path clip-path="url(#p653e2ec68a)" d="M 283.258058 199.515262 
L 410.349442 199.515262 
" style="fill:none;stroke:#404040;stroke-dasharray:3.375,3.375;stroke-dashoffset:0;stroke-width:1.5;"/>
   </g>
   <g id="line2d_15">
    <path clip-path="url(#p653e2ec68a)" d="M 268.412911 176.305624 
L 425.194589 176.305624 
" style="fill:none;stroke:#404040;stroke-dasharray:6.75,6.75;stroke-dashoffset:0;stroke-width:1.5;"/>
   </g>
   <g id="line2d_16">
    <path clip-path="url(#p653e2ec68a)" d="M 277.176102 154.366366 
L 416.431398 154.366366 
" style="fill:none;stroke:#404040;stroke-dasharray:3.375,3.375;stroke-dashoffset:0;stroke-width:1.5;"/>
   </g>
   <g id="patch_3">
    <path d="M 47.203125 298.515428 
L 47.203125 36.629888 
" style="fill:none;stroke:#262626;stroke-linecap:square;stroke-linejoin:miter;stroke-width:0.8;"/>
   </g>
   <g id="patch_4">
    <path d="M 147.07 315.56 
L 346.80375 315.56 
" style="fill:none;stroke:#262626;stroke-linecap:square;stroke-linejoin:miter;stroke-width:0.8;"/>
   </g>
   <g id="text_12">
    <text style="fill:#262626;font-family:Arial;font-size:10px;font-stretch:normal;font-style:normal;font-weight:normal;text-anchor:middle;" transform="rotate(-0, 246.936875, 19.228864)" x="246.936875" y="19.228864">*</text>
   </g>
  </g>
 </g>
 <defs>
  <clipPath id="p653e2ec68a">
   <rect height="308.36" width="399.4675" x="47.203125" y="7.2"/>
  </clipPath>
 </defs>
</svg>
