<?xml version="1.0" encoding="utf-8" standalone="no"?>
<!DOCTYPE svg PUBLIC "-//W3C//DTD SVG 1.1//EN"
  "http://www.w3.org/Graphics/SVG/1.1/DTD/svg11.dtd">
<svg height="337.998125pt" version="1.1" viewBox="0 0 453.360937 337.998125" width="453.360937pt" xmlns="http://www.w3.org/2000/svg" xmlns:xlink="http://www.w3.org/1999/xlink">
 <metadata>
  <rdf:RDF xmlns:cc="http://creativecommons.org/ns#" xmlns:dc="http://purl.org/dc/elements/1.1/" xmlns:rdf="http://www.w3.org/1999/02/22-rdf-syntax-ns#">
   <cc:Work>
    <dc:type rdf:resource="http://purl.org/dc/dcmitype/StillImage"/>
    <dc:date>2022-09-28T03:56:39.684347</dc:date>
    <dc:format>image/svg+xml</dc:format>
    <dc:creator>
     <cc:Agent>
      <dc:title>Matplotlib v3.4.3, https://matplotlib.org/</dc:title>
     </cc:Agent>
    </dc:creator>
   </cc:Work>
  </rdf:RDF>
 </metadata>
 <defs>
  <style type="text/css">*{stroke-linecap:butt;stroke-linejoin:round;}</style>
 </defs>
 <g id="figure_1">
  <g id="patch_1">
   <path d="M 0 337.998125 
L 453.360937 337.998125 
L 453.360937 0 
L 0 0 
z
" style="fill:#ffffff;"/>
  </g>
  <g id="axes_1">
   <g id="patch_2">
    <path d="M 52.160938 314.12 
L 446.160937 314.12 
L 446.160937 7.2 
L 52.160938 7.2 
z
" style="fill:#ffffff;"/>
   </g>
   <g id="matplotlib.axis_1">
    <g id="xtick_1">
     <g id="line2d_1">
      <defs>
       <path d="M 0 0 
L 0 3.5 
" id="mb1286f4f39" style="stroke:#262626;stroke-width:0.8;"/>
      </defs>
      <g>
       <use style="fill:#262626;stroke:#262626;stroke-width:0.8;" x="150.660938" xlink:href="#mb1286f4f39" y="314.12"/>
      </g>
     </g>
     <g id="text_1">
      <text style="fill:#262626;font-family:DejaVu Sans;font-size:10px;font-stretch:normal;font-style:normal;font-weight:normal;text-anchor:middle;" transform="rotate(-0, 150.660938, 328.718437)" x="150.660938" y="328.718437">within network</text>
     </g>
    </g>
    <g id="xtick_2">
     <g id="line2d_2">
      <g>
       <use style="fill:#262626;stroke:#262626;stroke-width:0.8;" x="347.660938" xlink:href="#mb1286f4f39" y="314.12"/>
      </g>
     </g>
     <g id="text_2">
      <text style="fill:#262626;font-family:DejaVu Sans;font-size:10px;font-stretch:normal;font-style:normal;font-weight:normal;text-anchor:middle;" transform="rotate(-0, 347.660938, 328.718437)" x="347.660938" y="328.718437">between network</text>
     </g>
    </g>
   </g>
   <g id="matplotlib.axis_2">
    <g id="ytick_1">
     <g id="line2d_3">
      <defs>
       <path d="M 0 0 
L -3.5 0 
" id="m0f3cd54382" style="stroke:#262626;stroke-width:0.8;"/>
      </defs>
      <g>
       <use style="fill:#262626;stroke:#262626;stroke-width:0.8;" x="52.160938" xlink:href="#m0f3cd54382" y="297.155024"/>
      </g>
     </g>
     <g id="text_3">
      <text style="fill:#262626;font-family:DejaVu Sans;font-size:10px;font-stretch:normal;font-style:normal;font-weight:normal;text-anchor:end;" transform="rotate(-0, 45.160938, 300.954242)" x="45.160938" y="300.954242">−5.0</text>
     </g>
    </g>
    <g id="ytick_2">
     <g id="line2d_4">
      <g>
       <use style="fill:#262626;stroke:#262626;stroke-width:0.8;" x="52.160938" xlink:href="#m0f3cd54382" y="259.917514"/>
      </g>
     </g>
     <g id="text_4">
      <text style="fill:#262626;font-family:DejaVu Sans;font-size:10px;font-stretch:normal;font-style:normal;font-weight:normal;text-anchor:end;" transform="rotate(-0, 45.160938, 263.716732)" x="45.160938" y="263.716732">−2.5</text>
     </g>
    </g>
    <g id="ytick_3">
     <g id="line2d_5">
      <g>
       <use style="fill:#262626;stroke:#262626;stroke-width:0.8;" x="52.160938" xlink:href="#m0f3cd54382" y="222.680004"/>
      </g>
     </g>
     <g id="text_5">
      <text style="fill:#262626;font-family:DejaVu Sans;font-size:10px;font-stretch:normal;font-style:normal;font-weight:normal;text-anchor:end;" transform="rotate(-0, 45.160938, 226.479222)" x="45.160938" y="226.479222">0.0</text>
     </g>
    </g>
    <g id="ytick_4">
     <g id="line2d_6">
      <g>
       <use style="fill:#262626;stroke:#262626;stroke-width:0.8;" x="52.160938" xlink:href="#m0f3cd54382" y="185.442494"/>
      </g>
     </g>
     <g id="text_6">
      <text style="fill:#262626;font-family:DejaVu Sans;font-size:10px;font-stretch:normal;font-style:normal;font-weight:normal;text-anchor:end;" transform="rotate(-0, 45.160938, 189.241713)" x="45.160938" y="189.241713">2.5</text>
     </g>
    </g>
    <g id="ytick_5">
     <g id="line2d_7">
      <g>
       <use style="fill:#262626;stroke:#262626;stroke-width:0.8;" x="52.160938" xlink:href="#m0f3cd54382" y="148.204984"/>
      </g>
     </g>
     <g id="text_7">
      <text style="fill:#262626;font-family:DejaVu Sans;font-size:10px;font-stretch:normal;font-style:normal;font-weight:normal;text-anchor:end;" transform="rotate(-0, 45.160938, 152.004203)" x="45.160938" y="152.004203">5.0</text>
     </g>
    </g>
    <g id="ytick_6">
     <g id="line2d_8">
      <g>
       <use style="fill:#262626;stroke:#262626;stroke-width:0.8;" x="52.160938" xlink:href="#m0f3cd54382" y="110.967474"/>
      </g>
     </g>
     <g id="text_8">
      <text style="fill:#262626;font-family:DejaVu Sans;font-size:10px;font-stretch:normal;font-style:normal;font-weight:normal;text-anchor:end;" transform="rotate(-0, 45.160938, 114.766693)" x="45.160938" y="114.766693">7.5</text>
     </g>
    </g>
    <g id="ytick_7">
     <g id="line2d_9">
      <g>
       <use style="fill:#262626;stroke:#262626;stroke-width:0.8;" x="52.160938" xlink:href="#m0f3cd54382" y="73.729964"/>
      </g>
     </g>
     <g id="text_9">
      <text style="fill:#262626;font-family:DejaVu Sans;font-size:10px;font-stretch:normal;font-style:normal;font-weight:normal;text-anchor:end;" transform="rotate(-0, 45.160938, 77.529183)" x="45.160938" y="77.529183">10.0</text>
     </g>
    </g>
    <g id="ytick_8">
     <g id="line2d_10">
      <g>
       <use style="fill:#262626;stroke:#262626;stroke-width:0.8;" x="52.160938" xlink:href="#m0f3cd54382" y="36.492454"/>
      </g>
     </g>
     <g id="text_10">
      <text style="fill:#262626;font-family:DejaVu Sans;font-size:10px;font-stretch:normal;font-style:normal;font-weight:normal;text-anchor:end;" transform="rotate(-0, 45.160938, 40.291673)" x="45.160938" y="40.291673">12.5</text>
     </g>
    </g>
    <g id="text_11">
     <text style="fill:#262626;font-family:DejaVu Sans;font-size:10px;font-stretch:normal;font-style:normal;font-weight:normal;text-anchor:middle;" transform="rotate(-90, 14.798438, 160.66)" x="14.798438" y="160.66">standardized shortest path length</text>
    </g>
   </g>
   <g id="PolyCollection_1">
    <defs>
     <path d="M 150.671906 -37.829034 
L 150.649969 -37.829034 
L 150.649288 -40.487609 
L 150.647597 -43.146184 
L 150.642644 -45.804758 
L 150.629188 -48.463333 
L 150.59539 -51.121908 
L 150.529181 -53.780483 
L 150.408934 -56.439057 
L 150.197279 -59.097632 
L 149.850761 -61.756207 
L 149.338117 -64.414782 
L 148.644003 -67.073356 
L 147.639344 -69.731931 
L 146.090011 -72.390506 
L 143.925027 -75.049081 
L 141.198686 -77.707655 
L 137.905248 -80.36623 
L 133.995287 -83.024805 
L 129.489762 -85.68338 
L 124.614326 -88.341954 
L 119.846995 -91.000529 
L 115.574309 -93.659104 
L 111.892826 -96.317678 
L 108.94749 -98.976253 
L 106.815995 -101.634828 
L 105.475488 -104.293403 
L 104.896688 -106.951977 
L 104.579969 -109.610552 
L 103.798342 -112.269127 
L 102.283786 -114.927702 
L 100.359199 -117.586276 
L 98.490777 -120.244851 
L 96.459612 -122.903426 
L 93.674412 -125.562001 
L 90.441272 -128.220575 
L 87.828687 -130.87915 
L 86.178035 -133.537725 
L 84.896649 -136.1963 
L 83.663214 -138.854874 
L 82.550109 -141.513449 
L 81.879189 -144.172024 
L 81.995842 -146.830599 
L 82.826933 -149.489173 
L 83.99775 -152.147748 
L 85.328163 -154.806323 
L 86.769618 -157.464898 
L 87.894562 -160.123472 
L 88.515975 -162.782047 
L 88.996571 -165.440622 
L 89.431673 -168.099197 
L 89.645543 -170.757771 
L 90.317195 -173.416346 
L 91.866759 -176.074921 
L 93.826826 -178.733496 
L 96.322174 -181.39207 
L 99.633097 -184.050645 
L 103.118041 -186.70922 
L 106.407004 -189.367795 
L 109.813977 -192.026369 
L 113.58331 -194.684944 
L 117.623047 -197.343519 
L 121.434933 -200.002094 
L 124.673804 -202.660668 
L 127.429516 -205.319243 
L 129.871149 -207.977818 
L 132.246396 -210.636393 
L 134.73404 -213.294967 
L 137.190033 -215.953542 
L 139.464284 -218.612117 
L 141.43347 -221.270692 
L 143.047925 -223.929266 
L 144.374694 -226.587841 
L 145.524156 -229.246416 
L 146.541427 -231.90499 
L 147.339998 -234.563565 
L 147.922864 -237.22214 
L 148.424627 -239.880715 
L 148.896013 -242.539289 
L 149.320682 -245.197864 
L 149.667609 -247.856439 
L 149.89953 -250.515014 
L 150.053967 -253.173588 
L 150.170158 -255.832163 
L 150.252478 -258.490738 
L 150.33162 -261.149313 
L 150.421731 -263.807887 
L 150.490065 -266.466462 
L 150.517853 -269.125037 
L 150.52341 -271.783612 
L 150.531584 -274.442186 
L 150.557546 -277.100761 
L 150.593278 -279.759336 
L 150.62545 -282.417911 
L 150.647586 -285.076485 
L 150.657734 -287.73506 
L 150.659863 -290.393635 
L 150.657374 -293.05221 
L 150.650699 -295.710784 
L 150.644238 -298.369359 
L 150.64501 -301.027934 
L 150.676865 -301.027934 
L 150.676865 -301.027934 
L 150.677637 -298.369359 
L 150.671176 -295.710784 
L 150.664501 -293.05221 
L 150.662012 -290.393635 
L 150.664141 -287.73506 
L 150.674289 -285.076485 
L 150.696425 -282.417911 
L 150.728597 -279.759336 
L 150.764329 -277.100761 
L 150.790291 -274.442186 
L 150.798465 -271.783612 
L 150.804022 -269.125037 
L 150.83181 -266.466462 
L 150.900144 -263.807887 
L 150.990255 -261.149313 
L 151.069397 -258.490738 
L 151.151717 -255.832163 
L 151.267908 -253.173588 
L 151.422345 -250.515014 
L 151.654266 -247.856439 
L 152.001193 -245.197864 
L 152.425862 -242.539289 
L 152.897248 -239.880715 
L 153.399011 -237.22214 
L 153.981877 -234.563565 
L 154.780448 -231.90499 
L 155.797719 -229.246416 
L 156.947181 -226.587841 
L 158.27395 -223.929266 
L 159.888405 -221.270692 
L 161.857591 -218.612117 
L 164.131842 -215.953542 
L 166.587835 -213.294967 
L 169.075479 -210.636393 
L 171.450726 -207.977818 
L 173.892359 -205.319243 
L 176.648071 -202.660668 
L 179.886942 -200.002094 
L 183.698828 -197.343519 
L 187.738565 -194.684944 
L 191.507898 -192.026369 
L 194.914871 -189.367795 
L 198.203834 -186.70922 
L 201.688778 -184.050645 
L 204.999701 -181.39207 
L 207.495049 -178.733496 
L 209.455116 -176.074921 
L 211.00468 -173.416346 
L 211.676332 -170.757771 
L 211.890202 -168.099197 
L 212.325304 -165.440622 
L 212.8059 -162.782047 
L 213.427313 -160.123472 
L 214.552257 -157.464898 
L 215.993712 -154.806323 
L 217.324125 -152.147748 
L 218.494942 -149.489173 
L 219.326033 -146.830599 
L 219.442686 -144.172024 
L 218.771766 -141.513449 
L 217.658661 -138.854874 
L 216.425226 -136.1963 
L 215.14384 -133.537725 
L 213.493188 -130.87915 
L 210.880603 -128.220575 
L 207.647463 -125.562001 
L 204.862263 -122.903426 
L 202.831098 -120.244851 
L 200.962676 -117.586276 
L 199.038089 -114.927702 
L 197.523533 -112.269127 
L 196.741906 -109.610552 
L 196.425187 -106.951977 
L 195.846387 -104.293403 
L 194.50588 -101.634828 
L 192.374385 -98.976253 
L 189.429049 -96.317678 
L 185.747566 -93.659104 
L 181.47488 -91.000529 
L 176.707549 -88.341954 
L 171.832113 -85.68338 
L 167.326588 -83.024805 
L 163.416627 -80.36623 
L 160.123189 -77.707655 
L 157.396848 -75.049081 
L 155.231864 -72.390506 
L 153.682531 -69.731931 
L 152.677872 -67.073356 
L 151.983758 -64.414782 
L 151.471114 -61.756207 
L 151.124596 -59.097632 
L 150.912941 -56.439057 
L 150.792694 -53.780483 
L 150.726485 -51.121908 
L 150.692687 -48.463333 
L 150.679231 -45.804758 
L 150.674278 -43.146184 
L 150.672587 -40.487609 
L 150.671906 -37.829034 
z
" id="m850e801ef2" style="stroke:#404040;stroke-width:1.5;"/>
    </defs>
    <g clip-path="url(#p19f8d7b310)">
     <use style="fill:#5573cd;stroke:#404040;stroke-width:1.5;" x="0" xlink:href="#m850e801ef2" y="337.998125"/>
    </g>
   </g>
   <g id="PolyCollection_2">
    <defs>
     <path d="M 347.669294 -54.891011 
L 347.652581 -54.891011 
L 347.646833 -57.537033 
L 347.633123 -60.183055 
L 347.600258 -62.829078 
L 347.532793 -65.4751 
L 347.418349 -68.121122 
L 347.212409 -70.767144 
L 346.923215 -73.413167 
L 346.502341 -76.059189 
L 345.833503 -78.705211 
L 344.886651 -81.351233 
L 343.480823 -83.997256 
L 341.764554 -86.643278 
L 339.706766 -89.2893 
L 337.015234 -91.935323 
L 333.924177 -94.581345 
L 330.60167 -97.227367 
L 327.336754 -99.873389 
L 324.672799 -102.519412 
L 322.618417 -105.165434 
L 320.760711 -107.811456 
L 319.622398 -110.457478 
L 318.623482 -113.103501 
L 317.042355 -115.749523 
L 314.849413 -118.395545 
L 312.301156 -121.041568 
L 309.713892 -123.68759 
L 306.289582 -126.333612 
L 301.744949 -128.979634 
L 296.519104 -131.625657 
L 291.775105 -134.271679 
L 287.885966 -136.917701 
L 284.351903 -139.563723 
L 280.664976 -142.209746 
L 277.913773 -144.855768 
L 276.329002 -147.50179 
L 274.835024 -150.147813 
L 273.279026 -152.793835 
L 271.6594 -155.439857 
L 270.652337 -158.085879 
L 270.149708 -160.731902 
L 269.562043 -163.377924 
L 269.203487 -166.023946 
L 268.860937 -168.669969 
L 268.939596 -171.315991 
L 269.39694 -173.962013 
L 270.350611 -176.608035 
L 272.065022 -179.254058 
L 274.904271 -181.90008 
L 278.292597 -184.546102 
L 281.986029 -187.192124 
L 286.097174 -189.838147 
L 290.606065 -192.484169 
L 295.115779 -195.130191 
L 299.770185 -197.776214 
L 304.814573 -200.422236 
L 309.351208 -203.068258 
L 313.326769 -205.71428 
L 317.379618 -208.360303 
L 321.326536 -211.006325 
L 324.948857 -213.652347 
L 328.010372 -216.298369 
L 330.834824 -218.944392 
L 333.519173 -221.590414 
L 335.750549 -224.236436 
L 337.544533 -226.882459 
L 339.150859 -229.528481 
L 340.660622 -232.174503 
L 342.032093 -234.820525 
L 343.171901 -237.466548 
L 343.964814 -240.11257 
L 344.561109 -242.758592 
L 345.151063 -245.404614 
L 345.662497 -248.050637 
L 346.105032 -250.696659 
L 346.49549 -253.342681 
L 346.739798 -255.988704 
L 346.909513 -258.634726 
L 347.034106 -261.280748 
L 347.145904 -263.92677 
L 347.253727 -266.572793 
L 347.33157 -269.218815 
L 347.405353 -271.864837 
L 347.462265 -274.51086 
L 347.516655 -277.156882 
L 347.574278 -279.802904 
L 347.586217 -282.448926 
L 347.580779 -285.094949 
L 347.610138 -287.740971 
L 347.630407 -290.386993 
L 347.63808 -293.033015 
L 347.641836 -295.679038 
L 347.638324 -298.32506 
L 347.641753 -300.971082 
L 347.652942 -303.617105 
L 347.659633 -306.263127 
L 347.660871 -308.909149 
L 347.660792 -311.555171 
L 347.65949 -314.201194 
L 347.657822 -316.847216 
L 347.664053 -316.847216 
L 347.664053 -316.847216 
L 347.662385 -314.201194 
L 347.661083 -311.555171 
L 347.661004 -308.909149 
L 347.662242 -306.263127 
L 347.668933 -303.617105 
L 347.680122 -300.971082 
L 347.683551 -298.32506 
L 347.680039 -295.679038 
L 347.683795 -293.033015 
L 347.691468 -290.386993 
L 347.711737 -287.740971 
L 347.741096 -285.094949 
L 347.735658 -282.448926 
L 347.747597 -279.802904 
L 347.80522 -277.156882 
L 347.85961 -274.51086 
L 347.916522 -271.864837 
L 347.990305 -269.218815 
L 348.068148 -266.572793 
L 348.175971 -263.92677 
L 348.287769 -261.280748 
L 348.412362 -258.634726 
L 348.582077 -255.988704 
L 348.826385 -253.342681 
L 349.216843 -250.696659 
L 349.659378 -248.050637 
L 350.170812 -245.404614 
L 350.760766 -242.758592 
L 351.357061 -240.11257 
L 352.149974 -237.466548 
L 353.289782 -234.820525 
L 354.661253 -232.174503 
L 356.171016 -229.528481 
L 357.777342 -226.882459 
L 359.571326 -224.236436 
L 361.802702 -221.590414 
L 364.487051 -218.944392 
L 367.311503 -216.298369 
L 370.373018 -213.652347 
L 373.995339 -211.006325 
L 377.942257 -208.360303 
L 381.995106 -205.71428 
L 385.970667 -203.068258 
L 390.507302 -200.422236 
L 395.55169 -197.776214 
L 400.206096 -195.130191 
L 404.71581 -192.484169 
L 409.224701 -189.838147 
L 413.335846 -187.192124 
L 417.029278 -184.546102 
L 420.417604 -181.90008 
L 423.256853 -179.254058 
L 424.971264 -176.608035 
L 425.924935 -173.962013 
L 426.382279 -171.315991 
L 426.460938 -168.669969 
L 426.118388 -166.023946 
L 425.759832 -163.377924 
L 425.172167 -160.731902 
L 424.669538 -158.085879 
L 423.662475 -155.439857 
L 422.042849 -152.793835 
L 420.486851 -150.147813 
L 418.992873 -147.50179 
L 417.408102 -144.855768 
L 414.656899 -142.209746 
L 410.969972 -139.563723 
L 407.435909 -136.917701 
L 403.54677 -134.271679 
L 398.802771 -131.625657 
L 393.576926 -128.979634 
L 389.032293 -126.333612 
L 385.607983 -123.68759 
L 383.020719 -121.041568 
L 380.472462 -118.395545 
L 378.27952 -115.749523 
L 376.698393 -113.103501 
L 375.699477 -110.457478 
L 374.561164 -107.811456 
L 372.703458 -105.165434 
L 370.649076 -102.519412 
L 367.985121 -99.873389 
L 364.720205 -97.227367 
L 361.397698 -94.581345 
L 358.306641 -91.935323 
L 355.615109 -89.2893 
L 353.557321 -86.643278 
L 351.841052 -83.997256 
L 350.435224 -81.351233 
L 349.488372 -78.705211 
L 348.819534 -76.059189 
L 348.39866 -73.413167 
L 348.109466 -70.767144 
L 347.903526 -68.121122 
L 347.789082 -65.4751 
L 347.721617 -62.829078 
L 347.688752 -60.183055 
L 347.675042 -57.537033 
L 347.669294 -54.891011 
z
" id="m8b3d4fc4d5" style="stroke:#404040;stroke-width:1.5;"/>
    </defs>
    <g clip-path="url(#p19f8d7b310)">
     <use style="fill:#a03434;stroke:#404040;stroke-width:1.5;" x="0" xlink:href="#m8b3d4fc4d5" y="337.998125"/>
    </g>
   </g>
   <g id="line2d_11">
    <path clip-path="url(#p19f8d7b310)" d="M 97.001625 216.272529 
L 204.32025 216.272529 
" style="fill:none;stroke:#404040;stroke-dasharray:3.375,3.375;stroke-dashoffset:0;stroke-width:1.5;"/>
   </g>
   <g id="line2d_12">
    <path clip-path="url(#p19f8d7b310)" d="M 82.682493 189.956433 
L 218.639382 189.956433 
" style="fill:none;stroke:#404040;stroke-dasharray:6.75,6.75;stroke-dashoffset:0;stroke-width:1.5;"/>
   </g>
   <g id="line2d_13">
    <path clip-path="url(#p19f8d7b310)" d="M 90.920633 163.411577 
L 210.401242 163.411577 
" style="fill:none;stroke:#404040;stroke-dasharray:3.375,3.375;stroke-dashoffset:0;stroke-width:1.5;"/>
   </g>
   <g id="line2d_14">
    <path clip-path="url(#p19f8d7b310)" d="M 284.984993 198.617176 
L 410.336882 198.617176 
" style="fill:none;stroke:#404040;stroke-dasharray:3.375,3.375;stroke-dashoffset:0;stroke-width:1.5;"/>
   </g>
   <g id="line2d_15">
    <path clip-path="url(#p19f8d7b310)" d="M 270.343032 175.515923 
L 424.978843 175.515923 
" style="fill:none;stroke:#404040;stroke-dasharray:6.75,6.75;stroke-dashoffset:0;stroke-width:1.5;"/>
   </g>
   <g id="line2d_16">
    <path clip-path="url(#p19f8d7b310)" d="M 278.986281 153.679119 
L 416.335594 153.679119 
" style="fill:none;stroke:#404040;stroke-dasharray:3.375,3.375;stroke-dashoffset:0;stroke-width:1.5;"/>
   </g>
   <g id="patch_3">
    <path d="M 52.160938 297.155024 
L 52.160938 36.492454 
" style="fill:none;stroke:#262626;stroke-linecap:square;stroke-linejoin:miter;stroke-width:0.8;"/>
   </g>
   <g id="patch_4">
    <path d="M 150.660938 314.12 
L 347.660938 314.12 
" style="fill:none;stroke:#262626;stroke-linecap:square;stroke-linejoin:miter;stroke-width:0.8;"/>
   </g>
   <g id="text_12">
    <text style="fill:#262626;font-family:DejaVu Sans;font-size:10px;font-stretch:normal;font-style:normal;font-weight:normal;text-anchor:middle;" transform="rotate(-0, 249.160938, 19.071222)" x="249.160938" y="19.071222">*</text>
   </g>
  </g>
 </g>
 <defs>
  <clipPath id="p19f8d7b310">
   <rect height="306.92" width="394" x="52.160938" y="7.2"/>
  </clipPath>
 </defs>
</svg>
