<?xml version="1.0" encoding="utf-8" standalone="no"?>
<!DOCTYPE svg PUBLIC "-//W3C//DTD SVG 1.1//EN"
  "http://www.w3.org/Graphics/SVG/1.1/DTD/svg11.dtd">
<!-- Created with matplotlib (https://matplotlib.org/) -->
<svg height="338.905312pt" version="1.1" viewBox="0 0 453.870625 338.905312" width="453.870625pt" xmlns="http://www.w3.org/2000/svg" xmlns:xlink="http://www.w3.org/1999/xlink">
 <metadata>
  <rdf:RDF xmlns:cc="http://creativecommons.org/ns#" xmlns:dc="http://purl.org/dc/elements/1.1/" xmlns:rdf="http://www.w3.org/1999/02/22-rdf-syntax-ns#">
   <cc:Work>
    <dc:type rdf:resource="http://purl.org/dc/dcmitype/StillImage"/>
    <dc:date>2023-01-29T20:43:38.371747</dc:date>
    <dc:format>image/svg+xml</dc:format>
    <dc:creator>
     <cc:Agent>
      <dc:title>Matplotlib v3.3.4, https://matplotlib.org/</dc:title>
     </cc:Agent>
    </dc:creator>
   </cc:Work>
  </rdf:RDF>
 </metadata>
 <defs>
  <style type="text/css">*{stroke-linecap:butt;stroke-linejoin:round;}</style>
 </defs>
 <g id="figure_1">
  <g id="patch_1">
   <path d="M 0 338.905312 
L 453.870625 338.905312 
L 453.870625 0 
L 0 0 
z
" style="fill:#ffffff;"/>
  </g>
  <g id="axes_1">
   <g id="patch_2">
    <path d="M 47.203125 315.56 
L 446.670625 315.56 
L 446.670625 7.2 
L 47.203125 7.2 
z
" style="fill:#ffffff;"/>
   </g>
   <g id="matplotlib.axis_1">
    <g id="xtick_1">
     <g id="line2d_1">
      <defs>
       <path d="M 0 0 
L 0 3.5 
" id="m53e2298e0e" style="stroke:#262626;stroke-width:0.8;"/>
      </defs>
      <g>
       <use style="fill:#262626;stroke:#262626;stroke-width:0.8;" x="147.07" xlink:href="#m53e2298e0e" y="315.56"/>
      </g>
     </g>
     <g id="text_1">
      <text style="fill:#262626;font-family:Arial;font-size:10px;font-stretch:normal;font-style:normal;font-weight:normal;text-anchor:middle;" transform="rotate(-0, 147.07, 329.717812)" x="147.07" y="329.717812">within network</text>
     </g>
    </g>
    <g id="xtick_2">
     <g id="line2d_2">
      <g>
       <use style="fill:#262626;stroke:#262626;stroke-width:0.8;" x="346.80375" xlink:href="#m53e2298e0e" y="315.56"/>
      </g>
     </g>
     <g id="text_2">
      <text style="fill:#262626;font-family:Arial;font-size:10px;font-stretch:normal;font-style:normal;font-weight:normal;text-anchor:middle;" transform="rotate(-0, 346.80375, 329.717812)" x="346.80375" y="329.717812">between network</text>
     </g>
    </g>
   </g>
   <g id="matplotlib.axis_2">
    <g id="ytick_1">
     <g id="line2d_3">
      <defs>
       <path d="M 0 0 
L -3.5 0 
" id="m31afb400d3" style="stroke:#262626;stroke-width:0.8;"/>
      </defs>
      <g>
       <use style="fill:#262626;stroke:#262626;stroke-width:0.8;" x="47.203125" xlink:href="#m31afb400d3" y="293.656874"/>
      </g>
     </g>
     <g id="text_3">
      <text style="fill:#262626;font-family:Arial;font-size:10px;font-stretch:normal;font-style:normal;font-weight:normal;text-anchor:end;" transform="rotate(-0, 40.203125, 297.235781)" x="40.203125" y="297.235781">−7.5</text>
     </g>
    </g>
    <g id="ytick_2">
     <g id="line2d_4">
      <g>
       <use style="fill:#262626;stroke:#262626;stroke-width:0.8;" x="47.203125" xlink:href="#m31afb400d3" y="259.058719"/>
      </g>
     </g>
     <g id="text_4">
      <text style="fill:#262626;font-family:Arial;font-size:10px;font-stretch:normal;font-style:normal;font-weight:normal;text-anchor:end;" transform="rotate(-0, 40.203125, 262.637625)" x="40.203125" y="262.637625">−5.0</text>
     </g>
    </g>
    <g id="ytick_3">
     <g id="line2d_5">
      <g>
       <use style="fill:#262626;stroke:#262626;stroke-width:0.8;" x="47.203125" xlink:href="#m31afb400d3" y="224.460564"/>
      </g>
     </g>
     <g id="text_5">
      <text style="fill:#262626;font-family:Arial;font-size:10px;font-stretch:normal;font-style:normal;font-weight:normal;text-anchor:end;" transform="rotate(-0, 40.203125, 228.03947)" x="40.203125" y="228.03947">−2.5</text>
     </g>
    </g>
    <g id="ytick_4">
     <g id="line2d_6">
      <g>
       <use style="fill:#262626;stroke:#262626;stroke-width:0.8;" x="47.203125" xlink:href="#m31afb400d3" y="189.862409"/>
      </g>
     </g>
     <g id="text_6">
      <text style="fill:#262626;font-family:Arial;font-size:10px;font-stretch:normal;font-style:normal;font-weight:normal;text-anchor:end;" transform="rotate(-0, 40.203125, 193.441315)" x="40.203125" y="193.441315">0.0</text>
     </g>
    </g>
    <g id="ytick_5">
     <g id="line2d_7">
      <g>
       <use style="fill:#262626;stroke:#262626;stroke-width:0.8;" x="47.203125" xlink:href="#m31afb400d3" y="155.264253"/>
      </g>
     </g>
     <g id="text_7">
      <text style="fill:#262626;font-family:Arial;font-size:10px;font-stretch:normal;font-style:normal;font-weight:normal;text-anchor:end;" transform="rotate(-0, 40.203125, 158.84316)" x="40.203125" y="158.84316">2.5</text>
     </g>
    </g>
    <g id="ytick_6">
     <g id="line2d_8">
      <g>
       <use style="fill:#262626;stroke:#262626;stroke-width:0.8;" x="47.203125" xlink:href="#m31afb400d3" y="120.666098"/>
      </g>
     </g>
     <g id="text_8">
      <text style="fill:#262626;font-family:Arial;font-size:10px;font-stretch:normal;font-style:normal;font-weight:normal;text-anchor:end;" transform="rotate(-0, 40.203125, 124.245005)" x="40.203125" y="124.245005">5.0</text>
     </g>
    </g>
    <g id="ytick_7">
     <g id="line2d_9">
      <g>
       <use style="fill:#262626;stroke:#262626;stroke-width:0.8;" x="47.203125" xlink:href="#m31afb400d3" y="86.067943"/>
      </g>
     </g>
     <g id="text_9">
      <text style="fill:#262626;font-family:Arial;font-size:10px;font-stretch:normal;font-style:normal;font-weight:normal;text-anchor:end;" transform="rotate(-0, 40.203125, 89.646849)" x="40.203125" y="89.646849">7.5</text>
     </g>
    </g>
    <g id="ytick_8">
     <g id="line2d_10">
      <g>
       <use style="fill:#262626;stroke:#262626;stroke-width:0.8;" x="47.203125" xlink:href="#m31afb400d3" y="51.469788"/>
      </g>
     </g>
     <g id="text_10">
      <text style="fill:#262626;font-family:Arial;font-size:10px;font-stretch:normal;font-style:normal;font-weight:normal;text-anchor:end;" transform="rotate(-0, 40.203125, 55.048694)" x="40.203125" y="55.048694">10.0</text>
     </g>
    </g>
    <g id="ytick_9">
     <g id="line2d_11">
      <g>
       <use style="fill:#262626;stroke:#262626;stroke-width:0.8;" x="47.203125" xlink:href="#m31afb400d3" y="16.871633"/>
      </g>
     </g>
     <g id="text_11">
      <text style="fill:#262626;font-family:Arial;font-size:10px;font-stretch:normal;font-style:normal;font-weight:normal;text-anchor:end;" transform="rotate(-0, 40.203125, 20.450539)" x="40.203125" y="20.450539">12.5</text>
     </g>
    </g>
    <g id="text_12">
     <text style="fill:#262626;font-family:Arial;font-size:10px;font-stretch:normal;font-style:normal;font-weight:normal;text-anchor:middle;" transform="rotate(-90, 14.357813, 161.38)" x="14.357813" y="161.38">standardized shortest path length</text>
    </g>
   </g>
   <g id="PolyCollection_1">
    <defs>
     <path d="M 147.073363 -37.361676 
L 147.066637 -37.361676 
L 147.066933 -39.890028 
L 147.063832 -42.418379 
L 147.060264 -44.94673 
L 147.064075 -47.475082 
L 147.066454 -50.003433 
L 147.064045 -52.531785 
L 147.061864 -55.060136 
L 147.059111 -57.588488 
L 147.052111 -60.116839 
L 147.039891 -62.64519 
L 147.024831 -65.173542 
L 147.007351 -67.701893 
L 146.984253 -70.230245 
L 146.941366 -72.758596 
L 146.884746 -75.286947 
L 146.809525 -77.815299 
L 146.714859 -80.34365 
L 146.593649 -82.872002 
L 146.426939 -85.400353 
L 146.295833 -87.928705 
L 146.1841 -90.457056 
L 146.031902 -92.985407 
L 145.842667 -95.513759 
L 145.678293 -98.04211 
L 145.486203 -100.570462 
L 145.113278 -103.098813 
L 144.40376 -105.627165 
L 143.133753 -108.155516 
L 141.284064 -110.683867 
L 139.502281 -113.212219 
L 139.030611 -115.74057 
L 140.085498 -118.268922 
L 141.220108 -120.797273 
L 140.981973 -123.325625 
L 139.470098 -125.853976 
L 137.102561 -128.382327 
L 133.811538 -130.910679 
L 129.819827 -133.43903 
L 125.8188 -135.967382 
L 123.396469 -138.495733 
L 124.880151 -141.024084 
L 129.933883 -143.552436 
L 135.34134 -146.080787 
L 137.997082 -148.609139 
L 135.500623 -151.13749 
L 125.355269 -153.665842 
L 109.723725 -156.194193 
L 99.728287 -158.722544 
L 101.975675 -161.250896 
L 111.642476 -163.779247 
L 121.989295 -166.307599 
L 130.126749 -168.83595 
L 135.672872 -171.364302 
L 139.208211 -173.892653 
L 141.053124 -176.421004 
L 140.198522 -178.949356 
L 132.144872 -181.477707 
L 113.201213 -184.006059 
L 98.270994 -186.53441 
L 106.028486 -189.062762 
L 124.590711 -191.591113 
L 136.527288 -194.119464 
L 141.620521 -196.647816 
L 143.861648 -199.176167 
L 144.948932 -201.704519 
L 145.269716 -204.23287 
L 144.820678 -206.761221 
L 143.686296 -209.289573 
L 142.355155 -211.817924 
L 141.595596 -214.346276 
L 141.78407 -216.874627 
L 142.630148 -219.402979 
L 143.65024 -221.93133 
L 144.558762 -224.459681 
L 145.279599 -226.988033 
L 145.848302 -229.516384 
L 146.253462 -232.044736 
L 146.505191 -234.573087 
L 146.662327 -237.101439 
L 146.774644 -239.62979 
L 146.865895 -242.158141 
L 146.933096 -244.686493 
L 146.969113 -247.214844 
L 146.983834 -249.743196 
L 146.984333 -252.271547 
L 146.9771 -254.799898 
L 146.990612 -257.32825 
L 147.008759 -259.856601 
L 147.022469 -262.384953 
L 147.03324 -264.913304 
L 147.036315 -267.441656 
L 147.039739 -269.970007 
L 147.046677 -272.498358 
L 147.050032 -275.02671 
L 147.053901 -277.555061 
L 147.06097 -280.083413 
L 147.065528 -282.611764 
L 147.065304 -285.140116 
L 147.063345 -287.668467 
L 147.076655 -287.668467 
L 147.076655 -287.668467 
L 147.074696 -285.140116 
L 147.074472 -282.611764 
L 147.07903 -280.083413 
L 147.086099 -277.555061 
L 147.089968 -275.02671 
L 147.093323 -272.498358 
L 147.100261 -269.970007 
L 147.103685 -267.441656 
L 147.10676 -264.913304 
L 147.117531 -262.384953 
L 147.131241 -259.856601 
L 147.149388 -257.32825 
L 147.1629 -254.799898 
L 147.155667 -252.271547 
L 147.156166 -249.743196 
L 147.170887 -247.214844 
L 147.206904 -244.686493 
L 147.274105 -242.158141 
L 147.365356 -239.62979 
L 147.477673 -237.101439 
L 147.634809 -234.573087 
L 147.886538 -232.044736 
L 148.291698 -229.516384 
L 148.860401 -226.988033 
L 149.581238 -224.459681 
L 150.48976 -221.93133 
L 151.509852 -219.402979 
L 152.35593 -216.874627 
L 152.544404 -214.346276 
L 151.784845 -211.817924 
L 150.453704 -209.289573 
L 149.319322 -206.761221 
L 148.870284 -204.23287 
L 149.191068 -201.704519 
L 150.278352 -199.176167 
L 152.519479 -196.647816 
L 157.612712 -194.119464 
L 169.549289 -191.591113 
L 188.111514 -189.062762 
L 195.869006 -186.53441 
L 180.938787 -184.006059 
L 161.995128 -181.477707 
L 153.941478 -178.949356 
L 153.086876 -176.421004 
L 154.931789 -173.892653 
L 158.467128 -171.364302 
L 164.013251 -168.83595 
L 172.150705 -166.307599 
L 182.497524 -163.779247 
L 192.164325 -161.250896 
L 194.411713 -158.722544 
L 184.416275 -156.194193 
L 168.784731 -153.665842 
L 158.639377 -151.13749 
L 156.142918 -148.609139 
L 158.79866 -146.080787 
L 164.206117 -143.552436 
L 169.259849 -141.024084 
L 170.743531 -138.495733 
L 168.3212 -135.967382 
L 164.320173 -133.43903 
L 160.328462 -130.910679 
L 157.037439 -128.382327 
L 154.669902 -125.853976 
L 153.158027 -123.325625 
L 152.919892 -120.797273 
L 154.054502 -118.268922 
L 155.109389 -115.74057 
L 154.637719 -113.212219 
L 152.855936 -110.683867 
L 151.006247 -108.155516 
L 149.73624 -105.627165 
L 149.026722 -103.098813 
L 148.653797 -100.570462 
L 148.461707 -98.04211 
L 148.297333 -95.513759 
L 148.108098 -92.985407 
L 147.9559 -90.457056 
L 147.844167 -87.928705 
L 147.713061 -85.400353 
L 147.546351 -82.872002 
L 147.425141 -80.34365 
L 147.330475 -77.815299 
L 147.255254 -75.286947 
L 147.198634 -72.758596 
L 147.155747 -70.230245 
L 147.132649 -67.701893 
L 147.115169 -65.173542 
L 147.100109 -62.64519 
L 147.087889 -60.116839 
L 147.080889 -57.588488 
L 147.078136 -55.060136 
L 147.075955 -52.531785 
L 147.073546 -50.003433 
L 147.075925 -47.475082 
L 147.079736 -44.94673 
L 147.076168 -42.418379 
L 147.073067 -39.890028 
L 147.073363 -37.361676 
z
" id="mf453922a28" style="stroke:#404040;stroke-width:1.5;"/>
    </defs>
    <g clip-path="url(#p3e8fbe6c6e)">
     <use style="fill:#5573cd;stroke:#404040;stroke-width:1.5;" x="0" xlink:href="#mf453922a28" y="338.905312"/>
    </g>
   </g>
   <g id="PolyCollection_2">
    <defs>
     <path d="M 346.808932 -57.141542 
L 346.798568 -57.141542 
L 346.801235 -59.773334 
L 346.802575 -62.405126 
L 346.801038 -65.036918 
L 346.797205 -67.66871 
L 346.797206 -70.300502 
L 346.797692 -72.932294 
L 346.793108 -75.564086 
L 346.785519 -78.195878 
L 346.772407 -80.82767 
L 346.768498 -83.459462 
L 346.741184 -86.091254 
L 346.718718 -88.723046 
L 346.696634 -91.354838 
L 346.682709 -93.98663 
L 346.654468 -96.618422 
L 346.59659 -99.250214 
L 346.498924 -101.882006 
L 346.346805 -104.513798 
L 346.091159 -107.14559 
L 345.605305 -109.777382 
L 344.768725 -112.409174 
L 343.979719 -115.040966 
L 344.096436 -117.672758 
L 344.449028 -120.30455 
L 344.201717 -122.936342 
L 343.257544 -125.568134 
L 341.732951 -128.199926 
L 339.560274 -130.831718 
L 336.9687 -133.46351 
L 334.26664 -136.095301 
L 332.851765 -138.727093 
L 333.863572 -141.358885 
L 336.644299 -143.990677 
L 339.609973 -146.622469 
L 340.772906 -149.254261 
L 337.338286 -151.886053 
L 322.422656 -154.517845 
L 299.787557 -157.149637 
L 292.946797 -159.781429 
L 302.733625 -162.413221 
L 316.307262 -165.045013 
L 327.000058 -167.676805 
L 333.71829 -170.308597 
L 337.763014 -172.940389 
L 339.874433 -175.572181 
L 340.615577 -178.203973 
L 336.245994 -180.835765 
L 308.325389 -183.467557 
L 266.91025 -186.099349 
L 279.808503 -188.731141 
L 318.02831 -191.362933 
L 334.65726 -193.994725 
L 340.540907 -196.626517 
L 342.973398 -199.258309 
L 344.050534 -201.890101 
L 344.36596 -204.521893 
L 343.482305 -207.153685 
L 341.10046 -209.785477 
L 338.489776 -212.417269 
L 337.489262 -215.049061 
L 338.460314 -217.680853 
L 340.562733 -220.312645 
L 342.298695 -222.944437 
L 343.655565 -225.576229 
L 344.657749 -228.208021 
L 345.308118 -230.839813 
L 345.762576 -233.471605 
L 346.082657 -236.103397 
L 346.281939 -238.735189 
L 346.391566 -241.366981 
L 346.487303 -243.998773 
L 346.530606 -246.630565 
L 346.579413 -249.262357 
L 346.610736 -251.894149 
L 346.627365 -254.525941 
L 346.661723 -257.157733 
L 346.699709 -259.789525 
L 346.718059 -262.421317 
L 346.734322 -265.053109 
L 346.747581 -267.684901 
L 346.752517 -270.316693 
L 346.763226 -272.948485 
L 346.774264 -275.580277 
L 346.786755 -278.212069 
L 346.792762 -280.843861 
L 346.794501 -283.475653 
L 346.796067 -286.107445 
L 346.799603 -288.739237 
L 346.802664 -291.371029 
L 346.800183 -294.002821 
L 346.800586 -296.634613 
L 346.80199 -299.266405 
L 346.801356 -301.898197 
L 346.801545 -304.529989 
L 346.802578 -307.161781 
L 346.803695 -309.793573 
L 346.803746 -312.425365 
L 346.803475 -315.057157 
L 346.802648 -317.688949 
L 346.804852 -317.688949 
L 346.804852 -317.688949 
L 346.804025 -315.057157 
L 346.803754 -312.425365 
L 346.803805 -309.793573 
L 346.804922 -307.161781 
L 346.805955 -304.529989 
L 346.806144 -301.898197 
L 346.80551 -299.266405 
L 346.806914 -296.634613 
L 346.807317 -294.002821 
L 346.804836 -291.371029 
L 346.807897 -288.739237 
L 346.811433 -286.107445 
L 346.812999 -283.475653 
L 346.814738 -280.843861 
L 346.820745 -278.212069 
L 346.833236 -275.580277 
L 346.844274 -272.948485 
L 346.854983 -270.316693 
L 346.859919 -267.684901 
L 346.873178 -265.053109 
L 346.889441 -262.421317 
L 346.907791 -259.789525 
L 346.945777 -257.157733 
L 346.980135 -254.525941 
L 346.996764 -251.894149 
L 347.028087 -249.262357 
L 347.076894 -246.630565 
L 347.120197 -243.998773 
L 347.215934 -241.366981 
L 347.325561 -238.735189 
L 347.524843 -236.103397 
L 347.844924 -233.471605 
L 348.299382 -230.839813 
L 348.949751 -228.208021 
L 349.951935 -225.576229 
L 351.308805 -222.944437 
L 353.044767 -220.312645 
L 355.147186 -217.680853 
L 356.118238 -215.049061 
L 355.117724 -212.417269 
L 352.50704 -209.785477 
L 350.125195 -207.153685 
L 349.24154 -204.521893 
L 349.556966 -201.890101 
L 350.634102 -199.258309 
L 353.066593 -196.626517 
L 358.95024 -193.994725 
L 375.57919 -191.362933 
L 413.798997 -188.731141 
L 426.69725 -186.099349 
L 385.282111 -183.467557 
L 357.361506 -180.835765 
L 352.991923 -178.203973 
L 353.733067 -175.572181 
L 355.844486 -172.940389 
L 359.88921 -170.308597 
L 366.607442 -167.676805 
L 377.300238 -165.045013 
L 390.873875 -162.413221 
L 400.660703 -159.781429 
L 393.819943 -157.149637 
L 371.184844 -154.517845 
L 356.269214 -151.886053 
L 352.834594 -149.254261 
L 353.997527 -146.622469 
L 356.963201 -143.990677 
L 359.743928 -141.358885 
L 360.755735 -138.727093 
L 359.34086 -136.095301 
L 356.6388 -133.46351 
L 354.047226 -130.831718 
L 351.874549 -128.199926 
L 350.349956 -125.568134 
L 349.405783 -122.936342 
L 349.158472 -120.30455 
L 349.511064 -117.672758 
L 349.627781 -115.040966 
L 348.838775 -112.409174 
L 348.002195 -109.777382 
L 347.516341 -107.14559 
L 347.260695 -104.513798 
L 347.108576 -101.882006 
L 347.01091 -99.250214 
L 346.953032 -96.618422 
L 346.924791 -93.98663 
L 346.910866 -91.354838 
L 346.888782 -88.723046 
L 346.866316 -86.091254 
L 346.839002 -83.459462 
L 346.835093 -80.82767 
L 346.821981 -78.195878 
L 346.814392 -75.564086 
L 346.809808 -72.932294 
L 346.810294 -70.300502 
L 346.810295 -67.66871 
L 346.806462 -65.036918 
L 346.804925 -62.405126 
L 346.806265 -59.773334 
L 346.808932 -57.141542 
z
" id="mb587f7753e" style="stroke:#404040;stroke-width:1.5;"/>
    </defs>
    <g clip-path="url(#p3e8fbe6c6e)">
     <use style="fill:#a03434;stroke:#404040;stroke-width:1.5;" x="0" xlink:href="#mb587f7753e" y="338.905312"/>
    </g>
   </g>
   <g id="line2d_12">
    <path clip-path="url(#p3e8fbe6c6e)" d="M 130.105244 196.574772 
L 164.034756 196.574772 
" style="fill:none;stroke:#404040;stroke-dasharray:3.375,3.375;stroke-dashoffset:0;stroke-width:1.5;"/>
   </g>
   <g id="line2d_13">
    <path clip-path="url(#p3e8fbe6c6e)" d="M 102.426618 177.877256 
L 191.713382 177.877256 
" style="fill:none;stroke:#404040;stroke-dasharray:6.75,6.75;stroke-dashoffset:0;stroke-width:1.5;"/>
   </g>
   <g id="line2d_14">
    <path clip-path="url(#p3e8fbe6c6e)" d="M 98.758984 153.342261 
L 195.381016 153.342261 
" style="fill:none;stroke:#404040;stroke-dasharray:3.375,3.375;stroke-dashoffset:0;stroke-width:1.5;"/>
   </g>
   <g id="line2d_15">
    <path clip-path="url(#p3e8fbe6c6e)" d="M 300.257719 181.171283 
L 393.349781 181.171283 
" style="fill:none;stroke:#404040;stroke-dasharray:3.375,3.375;stroke-dashoffset:0;stroke-width:1.5;"/>
   </g>
   <g id="line2d_16">
    <path clip-path="url(#p3e8fbe6c6e)" d="M 333.849145 169.103516 
L 359.758355 169.103516 
" style="fill:none;stroke:#404040;stroke-dasharray:6.75,6.75;stroke-dashoffset:0;stroke-width:1.5;"/>
   </g>
   <g id="line2d_17">
    <path clip-path="url(#p3e8fbe6c6e)" d="M 280.478455 151.218931 
L 413.129045 151.218931 
" style="fill:none;stroke:#404040;stroke-dasharray:3.375,3.375;stroke-dashoffset:0;stroke-width:1.5;"/>
   </g>
   <g id="patch_3">
    <path d="M 47.203125 293.656874 
L 47.203125 16.871633 
" style="fill:none;stroke:#262626;stroke-linecap:square;stroke-linejoin:miter;stroke-width:0.8;"/>
   </g>
   <g id="patch_4">
    <path d="M 147.07 315.56 
L 346.80375 315.56 
" style="fill:none;stroke:#262626;stroke-linecap:square;stroke-linejoin:miter;stroke-width:0.8;"/>
   </g>
   <g id="text_13">
    <text style="fill:#262626;font-family:Arial;font-size:10px;font-stretch:normal;font-style:normal;font-weight:normal;text-anchor:middle;" transform="rotate(-0, 246.936875, 19.228864)" x="246.936875" y="19.228864">*</text>
   </g>
  </g>
 </g>
 <defs>
  <clipPath id="p3e8fbe6c6e">
   <rect height="308.36" width="399.4675" x="47.203125" y="7.2"/>
  </clipPath>
 </defs>
</svg>
