<?xml version="1.0" encoding="utf-8" standalone="no"?>
<!DOCTYPE svg PUBLIC "-//W3C//DTD SVG 1.1//EN"
  "http://www.w3.org/Graphics/SVG/1.1/DTD/svg11.dtd">
<svg height="337.26016pt" version="1.1" viewBox="0 0 351.299942 337.26016" width="351.299942pt" xmlns="http://www.w3.org/2000/svg" xmlns:xlink="http://www.w3.org/1999/xlink">
 <metadata>
  <rdf:RDF xmlns:cc="http://creativecommons.org/ns#" xmlns:dc="http://purl.org/dc/elements/1.1/" xmlns:rdf="http://www.w3.org/1999/02/22-rdf-syntax-ns#">
   <cc:Work>
    <dc:type rdf:resource="http://purl.org/dc/dcmitype/StillImage"/>
    <dc:date>2022-09-28T02:09:22.292042</dc:date>
    <dc:format>image/svg+xml</dc:format>
    <dc:creator>
     <cc:Agent>
      <dc:title>Matplotlib v3.4.3, https://matplotlib.org/</dc:title>
     </cc:Agent>
    </dc:creator>
   </cc:Work>
  </rdf:RDF>
 </metadata>
 <defs>
  <style type="text/css">*{stroke-linecap:butt;stroke-linejoin:round;}</style>
 </defs>
 <g id="figure_1">
  <g id="patch_1">
   <path d="M 0 337.26016 
L 351.299942 337.26016 
L 351.299942 0 
L 0 0 
z
" style="fill:#ffffff;"/>
  </g>
  <g id="axes_1">
   <g id="patch_2">
    <path d="M 53.328125 299.70391 
L 344.099942 299.70391 
L 344.099942 8.932093 
L 53.328125 8.932093 
z
" style="fill:#ffffff;"/>
   </g>
   <g id="matplotlib.axis_1">
    <g id="xtick_1">
     <g id="line2d_1">
      <defs>
       <path d="M 0 0 
L 0 3.5 
" id="m4456b4f4c4" style="stroke:#262626;stroke-width:0.8;"/>
      </defs>
      <g>
       <use style="fill:#262626;stroke:#262626;stroke-width:0.8;" x="55.895" xlink:href="#m4456b4f4c4" y="299.70391"/>
      </g>
     </g>
     <g id="text_1">
      <text style="fill:#262626;font-family:DejaVu Sans;font-size:10px;font-stretch:normal;font-style:normal;font-weight:normal;text-anchor:middle;" transform="rotate(-0, 55.895, 314.302347)" x="55.895" y="314.302347">−7.5</text>
     </g>
    </g>
    <g id="xtick_2">
     <g id="line2d_2">
      <g>
       <use style="fill:#262626;stroke:#262626;stroke-width:0.8;" x="88.585004" xlink:href="#m4456b4f4c4" y="299.70391"/>
      </g>
     </g>
     <g id="text_2">
      <text style="fill:#262626;font-family:DejaVu Sans;font-size:10px;font-stretch:normal;font-style:normal;font-weight:normal;text-anchor:middle;" transform="rotate(-0, 88.585004, 314.302347)" x="88.585004" y="314.302347">−5.0</text>
     </g>
    </g>
    <g id="xtick_3">
     <g id="line2d_3">
      <g>
       <use style="fill:#262626;stroke:#262626;stroke-width:0.8;" x="121.275008" xlink:href="#m4456b4f4c4" y="299.70391"/>
      </g>
     </g>
     <g id="text_3">
      <text style="fill:#262626;font-family:DejaVu Sans;font-size:10px;font-stretch:normal;font-style:normal;font-weight:normal;text-anchor:middle;" transform="rotate(-0, 121.275008, 314.302347)" x="121.275008" y="314.302347">−2.5</text>
     </g>
    </g>
    <g id="xtick_4">
     <g id="line2d_4">
      <g>
       <use style="fill:#262626;stroke:#262626;stroke-width:0.8;" x="153.965011" xlink:href="#m4456b4f4c4" y="299.70391"/>
      </g>
     </g>
     <g id="text_4">
      <text style="fill:#262626;font-family:DejaVu Sans;font-size:10px;font-stretch:normal;font-style:normal;font-weight:normal;text-anchor:middle;" transform="rotate(-0, 153.965011, 314.302347)" x="153.965011" y="314.302347">0.0</text>
     </g>
    </g>
    <g id="xtick_5">
     <g id="line2d_5">
      <g>
       <use style="fill:#262626;stroke:#262626;stroke-width:0.8;" x="186.655015" xlink:href="#m4456b4f4c4" y="299.70391"/>
      </g>
     </g>
     <g id="text_5">
      <text style="fill:#262626;font-family:DejaVu Sans;font-size:10px;font-stretch:normal;font-style:normal;font-weight:normal;text-anchor:middle;" transform="rotate(-0, 186.655015, 314.302347)" x="186.655015" y="314.302347">2.5</text>
     </g>
    </g>
    <g id="xtick_6">
     <g id="line2d_6">
      <g>
       <use style="fill:#262626;stroke:#262626;stroke-width:0.8;" x="219.345019" xlink:href="#m4456b4f4c4" y="299.70391"/>
      </g>
     </g>
     <g id="text_6">
      <text style="fill:#262626;font-family:DejaVu Sans;font-size:10px;font-stretch:normal;font-style:normal;font-weight:normal;text-anchor:middle;" transform="rotate(-0, 219.345019, 314.302347)" x="219.345019" y="314.302347">5.0</text>
     </g>
    </g>
    <g id="xtick_7">
     <g id="line2d_7">
      <g>
       <use style="fill:#262626;stroke:#262626;stroke-width:0.8;" x="252.035023" xlink:href="#m4456b4f4c4" y="299.70391"/>
      </g>
     </g>
     <g id="text_7">
      <text style="fill:#262626;font-family:DejaVu Sans;font-size:10px;font-stretch:normal;font-style:normal;font-weight:normal;text-anchor:middle;" transform="rotate(-0, 252.035023, 314.302347)" x="252.035023" y="314.302347">7.5</text>
     </g>
    </g>
    <g id="xtick_8">
     <g id="line2d_8">
      <g>
       <use style="fill:#262626;stroke:#262626;stroke-width:0.8;" x="284.725027" xlink:href="#m4456b4f4c4" y="299.70391"/>
      </g>
     </g>
     <g id="text_8">
      <text style="fill:#262626;font-family:DejaVu Sans;font-size:10px;font-stretch:normal;font-style:normal;font-weight:normal;text-anchor:middle;" transform="rotate(-0, 284.725027, 314.302347)" x="284.725027" y="314.302347">10.0</text>
     </g>
    </g>
    <g id="xtick_9">
     <g id="line2d_9">
      <g>
       <use style="fill:#262626;stroke:#262626;stroke-width:0.8;" x="317.415031" xlink:href="#m4456b4f4c4" y="299.70391"/>
      </g>
     </g>
     <g id="text_9">
      <text style="fill:#262626;font-family:DejaVu Sans;font-size:10px;font-stretch:normal;font-style:normal;font-weight:normal;text-anchor:middle;" transform="rotate(-0, 317.415031, 314.302347)" x="317.415031" y="314.302347">12.5</text>
     </g>
    </g>
    <g id="text_10">
     <text style="fill:#262626;font-family:DejaVu Sans;font-size:10px;font-stretch:normal;font-style:normal;font-weight:normal;text-anchor:middle;" transform="rotate(-0, 198.714033, 327.980472)" x="198.714033" y="327.980472">standardized shortest path length</text>
    </g>
   </g>
   <g id="matplotlib.axis_2">
    <g id="ytick_1">
     <g id="line2d_10">
      <defs>
       <path d="M 0 0 
L -3.5 0 
" id="m217e2f2f1d" style="stroke:#262626;stroke-width:0.8;"/>
      </defs>
      <g>
       <use style="fill:#262626;stroke:#262626;stroke-width:0.8;" x="53.328125" xlink:href="#m217e2f2f1d" y="299.70391"/>
      </g>
     </g>
     <g id="text_11">
      <text style="fill:#262626;font-family:DejaVu Sans;font-size:10px;font-stretch:normal;font-style:normal;font-weight:normal;text-anchor:end;" transform="rotate(-0, 46.328125, 303.503128)" x="46.328125" y="303.503128">0</text>
     </g>
    </g>
    <g id="ytick_2">
     <g id="line2d_11">
      <g>
       <use style="fill:#262626;stroke:#262626;stroke-width:0.8;" x="53.328125" xlink:href="#m217e2f2f1d" y="241.962971"/>
      </g>
     </g>
     <g id="text_12">
      <text style="fill:#262626;font-family:DejaVu Sans;font-size:10px;font-stretch:normal;font-style:normal;font-weight:normal;text-anchor:end;" transform="rotate(-0, 46.328125, 245.76219)" x="46.328125" y="245.76219">500</text>
     </g>
    </g>
    <g id="ytick_3">
     <g id="line2d_12">
      <g>
       <use style="fill:#262626;stroke:#262626;stroke-width:0.8;" x="53.328125" xlink:href="#m217e2f2f1d" y="184.222033"/>
      </g>
     </g>
     <g id="text_13">
      <text style="fill:#262626;font-family:DejaVu Sans;font-size:10px;font-stretch:normal;font-style:normal;font-weight:normal;text-anchor:end;" transform="rotate(-0, 46.328125, 188.021252)" x="46.328125" y="188.021252">1000</text>
     </g>
    </g>
    <g id="ytick_4">
     <g id="line2d_13">
      <g>
       <use style="fill:#262626;stroke:#262626;stroke-width:0.8;" x="53.328125" xlink:href="#m217e2f2f1d" y="126.481095"/>
      </g>
     </g>
     <g id="text_14">
      <text style="fill:#262626;font-family:DejaVu Sans;font-size:10px;font-stretch:normal;font-style:normal;font-weight:normal;text-anchor:end;" transform="rotate(-0, 46.328125, 130.280314)" x="46.328125" y="130.280314">1500</text>
     </g>
    </g>
    <g id="ytick_5">
     <g id="line2d_14">
      <g>
       <use style="fill:#262626;stroke:#262626;stroke-width:0.8;" x="53.328125" xlink:href="#m217e2f2f1d" y="68.740157"/>
      </g>
     </g>
     <g id="text_15">
      <text style="fill:#262626;font-family:DejaVu Sans;font-size:10px;font-stretch:normal;font-style:normal;font-weight:normal;text-anchor:end;" transform="rotate(-0, 46.328125, 72.539376)" x="46.328125" y="72.539376">2000</text>
     </g>
    </g>
    <g id="ytick_6">
     <g id="line2d_15">
      <g>
       <use style="fill:#262626;stroke:#262626;stroke-width:0.8;" x="53.328125" xlink:href="#m217e2f2f1d" y="10.999219"/>
      </g>
     </g>
     <g id="text_16">
      <text style="fill:#262626;font-family:DejaVu Sans;font-size:10px;font-stretch:normal;font-style:normal;font-weight:normal;text-anchor:end;" transform="rotate(-0, 46.328125, 14.798437)" x="46.328125" y="14.798437">2500</text>
     </g>
    </g>
    <g id="text_17">
     <text style="fill:#262626;font-family:DejaVu Sans;font-size:10px;font-stretch:normal;font-style:normal;font-weight:normal;text-anchor:middle;" transform="rotate(-90, 14.798438, 154.318001)" x="14.798438" y="154.318001">Count</text>
    </g>
   </g>
   <g id="PolyCollection_1">
    <defs>
     <path d="M 66.545026 -37.671732 
L 66.545026 -37.55625 
L 66.918913 -37.55625 
L 66.918913 -37.55625 
L 67.292799 -37.55625 
L 67.292799 -37.55625 
L 67.666686 -37.55625 
L 67.666686 -37.55625 
L 68.040573 -37.55625 
L 68.040573 -37.55625 
L 68.41446 -37.55625 
L 68.41446 -37.55625 
L 68.788347 -37.55625 
L 68.788347 -37.55625 
L 69.162234 -37.55625 
L 69.162234 -37.55625 
L 69.536121 -37.55625 
L 69.536121 -37.55625 
L 69.910008 -37.55625 
L 69.910008 -37.55625 
L 70.283894 -37.55625 
L 70.283894 -37.55625 
L 70.657781 -37.55625 
L 70.657781 -37.55625 
L 71.031668 -37.55625 
L 71.031668 -37.55625 
L 71.405555 -37.55625 
L 71.405555 -37.55625 
L 71.779442 -37.55625 
L 71.779442 -37.55625 
L 72.153329 -37.55625 
L 72.153329 -37.55625 
L 72.527216 -37.55625 
L 72.527216 -37.55625 
L 72.901102 -37.55625 
L 72.901102 -37.55625 
L 73.274989 -37.55625 
L 73.274989 -37.55625 
L 73.648876 -37.55625 
L 73.648876 -37.55625 
L 74.022763 -37.55625 
L 74.022763 -37.55625 
L 74.39665 -37.55625 
L 74.39665 -37.55625 
L 74.770537 -37.55625 
L 74.770537 -37.55625 
L 75.144424 -37.55625 
L 75.144424 -37.55625 
L 75.518311 -37.55625 
L 75.518311 -37.55625 
L 75.892197 -37.55625 
L 75.892197 -37.55625 
L 76.266084 -37.55625 
L 76.266084 -37.55625 
L 76.639971 -37.55625 
L 76.639971 -37.55625 
L 77.013858 -37.55625 
L 77.013858 -37.55625 
L 77.387745 -37.55625 
L 77.387745 -37.55625 
L 77.761632 -37.55625 
L 77.761632 -37.55625 
L 78.135519 -37.55625 
L 78.135519 -37.55625 
L 78.509405 -37.55625 
L 78.509405 -37.55625 
L 78.883292 -37.55625 
L 78.883292 -37.55625 
L 79.257179 -37.55625 
L 79.257179 -37.55625 
L 79.631066 -37.55625 
L 79.631066 -37.55625 
L 80.004953 -37.55625 
L 80.004953 -37.55625 
L 80.37884 -37.55625 
L 80.37884 -37.55625 
L 80.752727 -37.55625 
L 80.752727 -37.55625 
L 81.126614 -37.55625 
L 81.126614 -37.55625 
L 81.5005 -37.55625 
L 81.5005 -37.55625 
L 81.874387 -37.55625 
L 81.874387 -37.55625 
L 82.248274 -37.55625 
L 82.248274 -37.55625 
L 82.622161 -37.55625 
L 82.622161 -37.55625 
L 82.996048 -37.55625 
L 82.996048 -37.55625 
L 83.369935 -37.55625 
L 83.369935 -37.55625 
L 83.743822 -37.55625 
L 83.743822 -37.55625 
L 84.117709 -37.55625 
L 84.117709 -37.55625 
L 84.491595 -37.55625 
L 84.491595 -37.55625 
L 84.865482 -37.55625 
L 84.865482 -37.55625 
L 85.239369 -37.55625 
L 85.239369 -37.55625 
L 85.613256 -37.55625 
L 85.613256 -37.55625 
L 85.987143 -37.55625 
L 85.987143 -37.55625 
L 86.36103 -37.55625 
L 86.36103 -37.55625 
L 86.734917 -37.55625 
L 86.734917 -37.55625 
L 87.108803 -37.55625 
L 87.108803 -37.55625 
L 87.48269 -37.55625 
L 87.48269 -37.55625 
L 87.856577 -37.55625 
L 87.856577 -37.55625 
L 88.230464 -37.55625 
L 88.230464 -37.55625 
L 88.604351 -37.55625 
L 88.604351 -37.55625 
L 88.978238 -37.55625 
L 88.978238 -37.55625 
L 89.352125 -37.55625 
L 89.352125 -37.55625 
L 89.726012 -37.55625 
L 89.726012 -37.55625 
L 90.099898 -37.55625 
L 90.099898 -37.55625 
L 90.473785 -37.55625 
L 90.473785 -37.55625 
L 90.847672 -37.55625 
L 90.847672 -37.55625 
L 91.221559 -37.55625 
L 91.221559 -37.55625 
L 91.595446 -37.55625 
L 91.595446 -37.55625 
L 91.969333 -37.55625 
L 91.969333 -37.55625 
L 92.34322 -37.55625 
L 92.34322 -37.55625 
L 92.717106 -37.55625 
L 92.717106 -37.55625 
L 93.090993 -37.55625 
L 93.090993 -37.55625 
L 93.46488 -37.55625 
L 93.46488 -37.55625 
L 93.838767 -37.55625 
L 93.838767 -37.55625 
L 94.212654 -37.55625 
L 94.212654 -37.55625 
L 94.586541 -37.55625 
L 94.586541 -37.55625 
L 94.960428 -37.55625 
L 94.960428 -37.55625 
L 95.334315 -37.55625 
L 95.334315 -37.55625 
L 95.708201 -37.55625 
L 95.708201 -37.55625 
L 96.082088 -37.55625 
L 96.082088 -37.55625 
L 96.455975 -37.55625 
L 96.455975 -37.55625 
L 96.829862 -37.55625 
L 96.829862 -37.55625 
L 97.203749 -37.55625 
L 97.203749 -37.55625 
L 97.577636 -37.55625 
L 97.577636 -37.55625 
L 97.951523 -37.55625 
L 97.951523 -37.55625 
L 98.325409 -37.55625 
L 98.325409 -37.55625 
L 98.699296 -37.55625 
L 98.699296 -37.55625 
L 99.073183 -37.55625 
L 99.073183 -37.55625 
L 99.44707 -37.55625 
L 99.44707 -37.55625 
L 99.820957 -37.55625 
L 99.820957 -37.55625 
L 100.194844 -37.55625 
L 100.194844 -37.55625 
L 100.568731 -37.55625 
L 100.568731 -37.55625 
L 100.942618 -37.55625 
L 100.942618 -37.55625 
L 101.316504 -37.55625 
L 101.316504 -37.55625 
L 101.690391 -37.55625 
L 101.690391 -37.55625 
L 102.064278 -37.55625 
L 102.064278 -37.55625 
L 102.438165 -37.55625 
L 102.438165 -37.55625 
L 102.812052 -37.55625 
L 102.812052 -37.55625 
L 103.185939 -37.55625 
L 103.185939 -37.55625 
L 103.559826 -37.55625 
L 103.559826 -37.55625 
L 103.933712 -37.55625 
L 103.933712 -37.55625 
L 104.307599 -37.55625 
L 104.307599 -37.55625 
L 104.681486 -37.55625 
L 104.681486 -37.55625 
L 105.055373 -37.55625 
L 105.055373 -37.55625 
L 105.42926 -37.55625 
L 105.42926 -37.55625 
L 105.803147 -37.55625 
L 105.803147 -37.55625 
L 106.177034 -37.55625 
L 106.177034 -37.55625 
L 106.550921 -37.55625 
L 106.550921 -37.55625 
L 106.924807 -37.55625 
L 106.924807 -37.55625 
L 107.298694 -37.55625 
L 107.298694 -37.55625 
L 107.672581 -37.55625 
L 107.672581 -37.55625 
L 108.046468 -37.55625 
L 108.046468 -37.55625 
L 108.420355 -37.55625 
L 108.420355 -37.55625 
L 108.794242 -37.55625 
L 108.794242 -37.55625 
L 109.168129 -37.55625 
L 109.168129 -37.55625 
L 109.542015 -37.55625 
L 109.542015 -37.55625 
L 109.915902 -37.55625 
L 109.915902 -37.55625 
L 110.289789 -37.55625 
L 110.289789 -37.55625 
L 110.663676 -37.55625 
L 110.663676 -37.55625 
L 111.037563 -37.55625 
L 111.037563 -37.55625 
L 111.41145 -37.55625 
L 111.41145 -37.55625 
L 111.785337 -37.55625 
L 111.785337 -37.55625 
L 112.159224 -37.55625 
L 112.159224 -37.55625 
L 112.53311 -37.55625 
L 112.53311 -37.55625 
L 112.906997 -37.55625 
L 112.906997 -37.55625 
L 113.280884 -37.55625 
L 113.280884 -37.55625 
L 113.654771 -37.55625 
L 113.654771 -37.55625 
L 114.028658 -37.55625 
L 114.028658 -37.55625 
L 114.402545 -37.55625 
L 114.402545 -37.55625 
L 114.776432 -37.55625 
L 114.776432 -37.55625 
L 115.150318 -37.55625 
L 115.150318 -37.55625 
L 115.524205 -37.55625 
L 115.524205 -37.55625 
L 115.898092 -37.55625 
L 115.898092 -37.55625 
L 116.271979 -37.55625 
L 116.271979 -37.55625 
L 116.645866 -37.55625 
L 116.645866 -37.55625 
L 117.019753 -37.55625 
L 117.019753 -37.55625 
L 117.39364 -37.55625 
L 117.39364 -37.55625 
L 117.767527 -37.55625 
L 117.767527 -37.55625 
L 118.141413 -37.55625 
L 118.141413 -37.55625 
L 118.5153 -37.55625 
L 118.5153 -37.55625 
L 118.889187 -37.55625 
L 118.889187 -37.55625 
L 119.263074 -37.55625 
L 119.263074 -37.55625 
L 119.636961 -37.55625 
L 119.636961 -37.55625 
L 120.010848 -37.55625 
L 120.010848 -37.55625 
L 120.384735 -37.55625 
L 120.384735 -37.55625 
L 120.758621 -37.55625 
L 120.758621 -37.55625 
L 121.132508 -37.55625 
L 121.132508 -37.55625 
L 121.506395 -37.55625 
L 121.506395 -37.55625 
L 121.880282 -37.55625 
L 121.880282 -37.55625 
L 122.254169 -37.55625 
L 122.254169 -37.55625 
L 122.628056 -37.55625 
L 122.628056 -37.55625 
L 123.001943 -37.55625 
L 123.001943 -37.55625 
L 123.37583 -37.55625 
L 123.37583 -37.55625 
L 123.749716 -37.55625 
L 123.749716 -37.55625 
L 124.123603 -37.55625 
L 124.123603 -37.55625 
L 124.49749 -37.55625 
L 124.49749 -37.55625 
L 124.871377 -37.55625 
L 124.871377 -37.55625 
L 125.245264 -37.55625 
L 125.245264 -37.55625 
L 125.619151 -37.55625 
L 125.619151 -37.55625 
L 125.993038 -37.55625 
L 125.993038 -37.55625 
L 126.366924 -37.55625 
L 126.366924 -37.55625 
L 126.740811 -37.55625 
L 126.740811 -37.55625 
L 127.114698 -37.55625 
L 127.114698 -37.55625 
L 127.488585 -37.55625 
L 127.488585 -37.55625 
L 127.862472 -37.55625 
L 127.862472 -37.55625 
L 128.236359 -37.55625 
L 128.236359 -37.55625 
L 128.610246 -37.55625 
L 128.610246 -37.55625 
L 128.984133 -37.55625 
L 128.984133 -37.55625 
L 129.358019 -37.55625 
L 129.358019 -37.55625 
L 129.731906 -37.55625 
L 129.731906 -37.55625 
L 130.105793 -37.55625 
L 130.105793 -37.55625 
L 130.47968 -37.55625 
L 130.47968 -37.55625 
L 130.853567 -37.55625 
L 130.853567 -37.55625 
L 131.227454 -37.55625 
L 131.227454 -37.55625 
L 131.601341 -37.55625 
L 131.601341 -37.55625 
L 131.975227 -37.55625 
L 131.975227 -37.55625 
L 132.349114 -37.55625 
L 132.349114 -37.55625 
L 132.723001 -37.55625 
L 132.723001 -37.55625 
L 133.096888 -37.55625 
L 133.096888 -37.55625 
L 133.470775 -37.55625 
L 133.470775 -37.55625 
L 133.844662 -37.55625 
L 133.844662 -37.55625 
L 134.218549 -37.55625 
L 134.218549 -37.55625 
L 134.592436 -37.55625 
L 134.592436 -37.55625 
L 134.966322 -37.55625 
L 134.966322 -37.55625 
L 135.340209 -37.55625 
L 135.340209 -37.55625 
L 135.714096 -37.55625 
L 135.714096 -37.55625 
L 136.087983 -37.55625 
L 136.087983 -37.55625 
L 136.46187 -37.55625 
L 136.46187 -37.55625 
L 136.835757 -37.55625 
L 136.835757 -37.55625 
L 137.209644 -37.55625 
L 137.209644 -37.55625 
L 137.58353 -37.55625 
L 137.58353 -37.55625 
L 137.957417 -37.55625 
L 137.957417 -37.55625 
L 138.331304 -37.55625 
L 138.331304 -37.55625 
L 138.705191 -37.55625 
L 138.705191 -37.55625 
L 139.079078 -37.55625 
L 139.079078 -37.55625 
L 139.452965 -37.55625 
L 139.452965 -37.55625 
L 139.826852 -37.55625 
L 139.826852 -37.55625 
L 140.200739 -37.55625 
L 140.200739 -37.55625 
L 140.574625 -37.55625 
L 140.574625 -37.55625 
L 140.948512 -37.55625 
L 140.948512 -37.55625 
L 141.322399 -37.55625 
L 141.322399 -37.55625 
L 141.696286 -37.55625 
L 141.696286 -37.55625 
L 142.070173 -37.55625 
L 142.070173 -37.55625 
L 142.44406 -37.55625 
L 142.44406 -37.55625 
L 142.817947 -37.55625 
L 142.817947 -37.55625 
L 143.191833 -37.55625 
L 143.191833 -37.55625 
L 143.56572 -37.55625 
L 143.56572 -37.55625 
L 143.939607 -37.55625 
L 143.939607 -37.55625 
L 144.313494 -37.55625 
L 144.313494 -37.55625 
L 144.687381 -37.55625 
L 144.687381 -37.55625 
L 145.061268 -37.55625 
L 145.061268 -37.55625 
L 145.435155 -37.55625 
L 145.435155 -37.55625 
L 145.809042 -37.55625 
L 145.809042 -37.55625 
L 146.182928 -37.55625 
L 146.182928 -37.55625 
L 146.556815 -37.55625 
L 146.556815 -37.55625 
L 146.930702 -37.55625 
L 146.930702 -37.55625 
L 147.304589 -37.55625 
L 147.304589 -37.55625 
L 147.678476 -37.55625 
L 147.678476 -37.55625 
L 148.052363 -37.55625 
L 148.052363 -37.55625 
L 148.42625 -37.55625 
L 148.42625 -37.55625 
L 148.800137 -37.55625 
L 148.800137 -37.55625 
L 149.174023 -37.55625 
L 149.174023 -37.55625 
L 149.54791 -37.55625 
L 149.54791 -37.55625 
L 149.921797 -37.55625 
L 149.921797 -37.55625 
L 150.295684 -37.55625 
L 150.295684 -37.55625 
L 150.669571 -37.55625 
L 150.669571 -37.55625 
L 151.043458 -37.55625 
L 151.043458 -37.55625 
L 151.417345 -37.55625 
L 151.417345 -37.55625 
L 151.791231 -37.55625 
L 151.791231 -37.55625 
L 152.165118 -37.55625 
L 152.165118 -37.55625 
L 152.539005 -37.55625 
L 152.539005 -37.55625 
L 152.912892 -37.55625 
L 152.912892 -37.55625 
L 153.286779 -37.55625 
L 153.286779 -37.55625 
L 153.660666 -37.55625 
L 153.660666 -37.55625 
L 154.034553 -37.55625 
L 154.034553 -37.55625 
L 154.40844 -37.55625 
L 154.40844 -37.55625 
L 154.782326 -37.55625 
L 154.782326 -37.55625 
L 155.156213 -37.55625 
L 155.156213 -37.55625 
L 155.5301 -37.55625 
L 155.5301 -37.55625 
L 155.903987 -37.55625 
L 155.903987 -37.55625 
L 156.277874 -37.55625 
L 156.277874 -37.55625 
L 156.651761 -37.55625 
L 156.651761 -37.55625 
L 157.025648 -37.55625 
L 157.025648 -37.55625 
L 157.399534 -37.55625 
L 157.399534 -37.55625 
L 157.773421 -37.55625 
L 157.773421 -37.55625 
L 158.147308 -37.55625 
L 158.147308 -37.55625 
L 158.521195 -37.55625 
L 158.521195 -37.55625 
L 158.895082 -37.55625 
L 158.895082 -37.55625 
L 159.268969 -37.55625 
L 159.268969 -37.55625 
L 159.642856 -37.55625 
L 159.642856 -37.55625 
L 160.016743 -37.55625 
L 160.016743 -37.55625 
L 160.390629 -37.55625 
L 160.390629 -37.55625 
L 160.764516 -37.55625 
L 160.764516 -37.55625 
L 161.138403 -37.55625 
L 161.138403 -37.55625 
L 161.51229 -37.55625 
L 161.51229 -37.55625 
L 161.886177 -37.55625 
L 161.886177 -37.55625 
L 162.260064 -37.55625 
L 162.260064 -37.55625 
L 162.633951 -37.55625 
L 162.633951 -37.55625 
L 163.007837 -37.55625 
L 163.007837 -37.55625 
L 163.381724 -37.55625 
L 163.381724 -37.55625 
L 163.755611 -37.55625 
L 163.755611 -37.55625 
L 164.129498 -37.55625 
L 164.129498 -37.55625 
L 164.503385 -37.55625 
L 164.503385 -37.55625 
L 164.877272 -37.55625 
L 164.877272 -37.55625 
L 165.251159 -37.55625 
L 165.251159 -37.55625 
L 165.625046 -37.55625 
L 165.625046 -37.55625 
L 165.998932 -37.55625 
L 165.998932 -37.55625 
L 166.372819 -37.55625 
L 166.372819 -37.55625 
L 166.746706 -37.55625 
L 166.746706 -37.55625 
L 167.120593 -37.55625 
L 167.120593 -37.55625 
L 167.49448 -37.55625 
L 167.49448 -37.55625 
L 167.868367 -37.55625 
L 167.868367 -37.55625 
L 168.242254 -37.55625 
L 168.242254 -37.55625 
L 168.61614 -37.55625 
L 168.61614 -37.55625 
L 168.990027 -37.55625 
L 168.990027 -37.55625 
L 169.363914 -37.55625 
L 169.363914 -37.55625 
L 169.737801 -37.55625 
L 169.737801 -37.55625 
L 170.111688 -37.55625 
L 170.111688 -37.55625 
L 170.485575 -37.55625 
L 170.485575 -37.55625 
L 170.859462 -37.55625 
L 170.859462 -37.55625 
L 171.233349 -37.55625 
L 171.233349 -37.55625 
L 171.607235 -37.55625 
L 171.607235 -37.55625 
L 171.981122 -37.55625 
L 171.981122 -37.55625 
L 172.355009 -37.55625 
L 172.355009 -37.55625 
L 172.728896 -37.55625 
L 172.728896 -37.55625 
L 173.102783 -37.55625 
L 173.102783 -37.55625 
L 173.47667 -37.55625 
L 173.47667 -37.55625 
L 173.850557 -37.55625 
L 173.850557 -37.55625 
L 174.224443 -37.55625 
L 174.224443 -37.55625 
L 174.59833 -37.55625 
L 174.59833 -37.55625 
L 174.972217 -37.55625 
L 174.972217 -37.55625 
L 175.346104 -37.55625 
L 175.346104 -37.55625 
L 175.719991 -37.55625 
L 175.719991 -37.55625 
L 176.093878 -37.55625 
L 176.093878 -37.55625 
L 176.467765 -37.55625 
L 176.467765 -37.55625 
L 176.841652 -37.55625 
L 176.841652 -37.55625 
L 177.215538 -37.55625 
L 177.215538 -37.55625 
L 177.589425 -37.55625 
L 177.589425 -37.55625 
L 177.963312 -37.55625 
L 177.963312 -37.55625 
L 178.337199 -37.55625 
L 178.337199 -37.55625 
L 178.711086 -37.55625 
L 178.711086 -37.55625 
L 179.084973 -37.55625 
L 179.084973 -37.55625 
L 179.45886 -37.55625 
L 179.45886 -37.55625 
L 179.832746 -37.55625 
L 179.832746 -37.55625 
L 180.206633 -37.55625 
L 180.206633 -37.55625 
L 180.58052 -37.55625 
L 180.58052 -37.55625 
L 180.954407 -37.55625 
L 180.954407 -37.55625 
L 181.328294 -37.55625 
L 181.328294 -37.55625 
L 181.702181 -37.55625 
L 181.702181 -37.55625 
L 182.076068 -37.55625 
L 182.076068 -37.55625 
L 182.449955 -37.55625 
L 182.449955 -37.55625 
L 182.823841 -37.55625 
L 182.823841 -37.55625 
L 183.197728 -37.55625 
L 183.197728 -37.55625 
L 183.571615 -37.55625 
L 183.571615 -37.55625 
L 183.945502 -37.55625 
L 183.945502 -37.55625 
L 184.319389 -37.55625 
L 184.319389 -37.55625 
L 184.693276 -37.55625 
L 184.693276 -37.55625 
L 185.067163 -37.55625 
L 185.067163 -37.55625 
L 185.441049 -37.55625 
L 185.441049 -37.55625 
L 185.814936 -37.55625 
L 185.814936 -37.55625 
L 186.188823 -37.55625 
L 186.188823 -37.55625 
L 186.56271 -37.55625 
L 186.56271 -37.55625 
L 186.936597 -37.55625 
L 186.936597 -37.55625 
L 187.310484 -37.55625 
L 187.310484 -37.55625 
L 187.684371 -37.55625 
L 187.684371 -37.55625 
L 188.058258 -37.55625 
L 188.058258 -37.55625 
L 188.432144 -37.55625 
L 188.432144 -37.55625 
L 188.806031 -37.55625 
L 188.806031 -37.55625 
L 189.179918 -37.55625 
L 189.179918 -37.55625 
L 189.553805 -37.55625 
L 189.553805 -37.55625 
L 189.927692 -37.55625 
L 189.927692 -37.55625 
L 190.301579 -37.55625 
L 190.301579 -37.55625 
L 190.675466 -37.55625 
L 190.675466 -37.55625 
L 191.049352 -37.55625 
L 191.049352 -37.55625 
L 191.423239 -37.55625 
L 191.423239 -37.55625 
L 191.797126 -37.55625 
L 191.797126 -37.55625 
L 192.171013 -37.55625 
L 192.171013 -37.55625 
L 192.5449 -37.55625 
L 192.5449 -37.55625 
L 192.918787 -37.55625 
L 192.918787 -37.55625 
L 193.292674 -37.55625 
L 193.292674 -37.55625 
L 193.666561 -37.55625 
L 193.666561 -37.55625 
L 194.040447 -37.55625 
L 194.040447 -37.55625 
L 194.414334 -37.55625 
L 194.414334 -37.55625 
L 194.788221 -37.55625 
L 194.788221 -37.55625 
L 195.162108 -37.55625 
L 195.162108 -37.55625 
L 195.535995 -37.55625 
L 195.535995 -37.55625 
L 195.909882 -37.55625 
L 195.909882 -37.55625 
L 196.283769 -37.55625 
L 196.283769 -37.55625 
L 196.657655 -37.55625 
L 196.657655 -37.55625 
L 197.031542 -37.55625 
L 197.031542 -37.55625 
L 197.405429 -37.55625 
L 197.405429 -37.55625 
L 197.779316 -37.55625 
L 197.779316 -37.55625 
L 198.153203 -37.55625 
L 198.153203 -37.55625 
L 198.52709 -37.55625 
L 198.52709 -37.55625 
L 198.900977 -37.55625 
L 198.900977 -37.55625 
L 199.274864 -37.55625 
L 199.274864 -37.55625 
L 199.64875 -37.55625 
L 199.64875 -37.55625 
L 200.022637 -37.55625 
L 200.022637 -37.55625 
L 200.396524 -37.55625 
L 200.396524 -37.55625 
L 200.770411 -37.55625 
L 200.770411 -37.55625 
L 201.144298 -37.55625 
L 201.144298 -37.55625 
L 201.518185 -37.55625 
L 201.518185 -37.55625 
L 201.892072 -37.55625 
L 201.892072 -37.55625 
L 202.265958 -37.55625 
L 202.265958 -37.55625 
L 202.639845 -37.55625 
L 202.639845 -37.55625 
L 203.013732 -37.55625 
L 203.013732 -37.55625 
L 203.387619 -37.55625 
L 203.387619 -37.55625 
L 203.761506 -37.55625 
L 203.761506 -37.55625 
L 204.135393 -37.55625 
L 204.135393 -37.55625 
L 204.50928 -37.55625 
L 204.50928 -37.55625 
L 204.883167 -37.55625 
L 204.883167 -37.55625 
L 205.257053 -37.55625 
L 205.257053 -37.55625 
L 205.63094 -37.55625 
L 205.63094 -37.55625 
L 206.004827 -37.55625 
L 206.004827 -37.55625 
L 206.378714 -37.55625 
L 206.378714 -37.55625 
L 206.752601 -37.55625 
L 206.752601 -37.55625 
L 207.126488 -37.55625 
L 207.126488 -37.55625 
L 207.500375 -37.55625 
L 207.500375 -37.55625 
L 207.874261 -37.55625 
L 207.874261 -37.55625 
L 208.248148 -37.55625 
L 208.248148 -37.55625 
L 208.622035 -37.55625 
L 208.622035 -37.55625 
L 208.995922 -37.55625 
L 208.995922 -37.55625 
L 209.369809 -37.55625 
L 209.369809 -37.55625 
L 209.743696 -37.55625 
L 209.743696 -37.55625 
L 210.117583 -37.55625 
L 210.117583 -37.55625 
L 210.49147 -37.55625 
L 210.49147 -37.55625 
L 210.865356 -37.55625 
L 210.865356 -37.55625 
L 211.239243 -37.55625 
L 211.239243 -37.55625 
L 211.61313 -37.55625 
L 211.61313 -37.55625 
L 211.987017 -37.55625 
L 211.987017 -37.55625 
L 212.360904 -37.55625 
L 212.360904 -37.55625 
L 212.734791 -37.55625 
L 212.734791 -37.55625 
L 213.108678 -37.55625 
L 213.108678 -37.55625 
L 213.482565 -37.55625 
L 213.482565 -37.55625 
L 213.856451 -37.55625 
L 213.856451 -37.55625 
L 214.230338 -37.55625 
L 214.230338 -37.55625 
L 214.604225 -37.55625 
L 214.604225 -37.55625 
L 214.978112 -37.55625 
L 214.978112 -37.55625 
L 215.351999 -37.55625 
L 215.351999 -37.55625 
L 215.725886 -37.55625 
L 215.725886 -37.55625 
L 216.099773 -37.55625 
L 216.099773 -37.55625 
L 216.473659 -37.55625 
L 216.473659 -37.55625 
L 216.847546 -37.55625 
L 216.847546 -37.55625 
L 217.221433 -37.55625 
L 217.221433 -37.55625 
L 217.59532 -37.55625 
L 217.59532 -37.55625 
L 217.969207 -37.55625 
L 217.969207 -37.55625 
L 218.343094 -37.55625 
L 218.343094 -37.55625 
L 218.716981 -37.55625 
L 218.716981 -37.55625 
L 219.090868 -37.55625 
L 219.090868 -37.55625 
L 219.464754 -37.55625 
L 219.464754 -37.55625 
L 219.838641 -37.55625 
L 219.838641 -37.55625 
L 220.212528 -37.55625 
L 220.212528 -37.55625 
L 220.586415 -37.55625 
L 220.586415 -37.55625 
L 220.960302 -37.55625 
L 220.960302 -37.55625 
L 221.334189 -37.55625 
L 221.334189 -37.55625 
L 221.708076 -37.55625 
L 221.708076 -37.55625 
L 222.081962 -37.55625 
L 222.081962 -37.55625 
L 222.455849 -37.55625 
L 222.455849 -37.55625 
L 222.829736 -37.55625 
L 222.829736 -37.55625 
L 223.203623 -37.55625 
L 223.203623 -37.55625 
L 223.57751 -37.55625 
L 223.57751 -37.55625 
L 223.951397 -37.55625 
L 223.951397 -37.55625 
L 224.325284 -37.55625 
L 224.325284 -37.55625 
L 224.699171 -37.55625 
L 224.699171 -37.55625 
L 225.073057 -37.55625 
L 225.073057 -37.55625 
L 225.446944 -37.55625 
L 225.446944 -37.55625 
L 225.820831 -37.55625 
L 225.820831 -37.55625 
L 226.194718 -37.55625 
L 226.194718 -37.55625 
L 226.568605 -37.55625 
L 226.568605 -37.55625 
L 226.942492 -37.55625 
L 226.942492 -37.55625 
L 227.316379 -37.55625 
L 227.316379 -37.55625 
L 227.690265 -37.55625 
L 227.690265 -37.55625 
L 228.064152 -37.55625 
L 228.064152 -37.55625 
L 228.438039 -37.55625 
L 228.438039 -37.55625 
L 228.811926 -37.55625 
L 228.811926 -37.55625 
L 229.185813 -37.55625 
L 229.185813 -37.55625 
L 229.5597 -37.55625 
L 229.5597 -37.55625 
L 229.933587 -37.55625 
L 229.933587 -37.55625 
L 230.307474 -37.55625 
L 230.307474 -37.55625 
L 230.68136 -37.55625 
L 230.68136 -37.55625 
L 231.055247 -37.55625 
L 231.055247 -37.55625 
L 231.429134 -37.55625 
L 231.429134 -37.55625 
L 231.803021 -37.55625 
L 231.803021 -37.55625 
L 232.176908 -37.55625 
L 232.176908 -37.55625 
L 232.550795 -37.55625 
L 232.550795 -37.55625 
L 232.924682 -37.55625 
L 232.924682 -37.55625 
L 233.298568 -37.55625 
L 233.298568 -37.55625 
L 233.672455 -37.55625 
L 233.672455 -37.55625 
L 234.046342 -37.55625 
L 234.046342 -37.55625 
L 234.420229 -37.55625 
L 234.420229 -37.55625 
L 234.794116 -37.55625 
L 234.794116 -37.55625 
L 235.168003 -37.55625 
L 235.168003 -37.55625 
L 235.54189 -37.55625 
L 235.54189 -37.55625 
L 235.915777 -37.55625 
L 235.915777 -37.55625 
L 236.289663 -37.55625 
L 236.289663 -37.55625 
L 236.66355 -37.55625 
L 236.66355 -37.55625 
L 237.037437 -37.55625 
L 237.037437 -37.55625 
L 237.411324 -37.55625 
L 237.411324 -37.55625 
L 237.785211 -37.55625 
L 237.785211 -37.55625 
L 238.159098 -37.55625 
L 238.159098 -37.55625 
L 238.532985 -37.55625 
L 238.532985 -37.55625 
L 238.906871 -37.55625 
L 238.906871 -37.55625 
L 239.280758 -37.55625 
L 239.280758 -37.55625 
L 239.654645 -37.55625 
L 239.654645 -37.55625 
L 240.028532 -37.55625 
L 240.028532 -37.55625 
L 240.402419 -37.55625 
L 240.402419 -37.55625 
L 240.776306 -37.55625 
L 240.776306 -37.55625 
L 241.150193 -37.55625 
L 241.150193 -37.55625 
L 241.52408 -37.55625 
L 241.52408 -37.55625 
L 241.897966 -37.55625 
L 241.897966 -37.55625 
L 242.271853 -37.55625 
L 242.271853 -37.55625 
L 242.64574 -37.55625 
L 242.64574 -37.55625 
L 243.019627 -37.55625 
L 243.019627 -37.55625 
L 243.393514 -37.55625 
L 243.393514 -37.55625 
L 243.767401 -37.55625 
L 243.767401 -37.55625 
L 244.141288 -37.55625 
L 244.141288 -37.55625 
L 244.515174 -37.55625 
L 244.515174 -37.55625 
L 244.889061 -37.55625 
L 244.889061 -37.55625 
L 245.262948 -37.55625 
L 245.262948 -37.55625 
L 245.636835 -37.55625 
L 245.636835 -37.55625 
L 246.010722 -37.55625 
L 246.010722 -37.55625 
L 246.384609 -37.55625 
L 246.384609 -37.55625 
L 246.758496 -37.55625 
L 246.758496 -37.55625 
L 247.132383 -37.55625 
L 247.132383 -37.55625 
L 247.506269 -37.55625 
L 247.506269 -37.55625 
L 247.880156 -37.55625 
L 247.880156 -37.55625 
L 248.254043 -37.55625 
L 248.254043 -37.55625 
L 248.62793 -37.55625 
L 248.62793 -37.55625 
L 249.001817 -37.55625 
L 249.001817 -37.55625 
L 249.375704 -37.55625 
L 249.375704 -37.55625 
L 249.749591 -37.55625 
L 249.749591 -37.55625 
L 250.123477 -37.55625 
L 250.123477 -37.55625 
L 250.497364 -37.55625 
L 250.497364 -37.55625 
L 250.871251 -37.55625 
L 250.871251 -37.55625 
L 251.245138 -37.55625 
L 251.245138 -37.55625 
L 251.619025 -37.55625 
L 251.619025 -37.55625 
L 251.992912 -37.55625 
L 251.992912 -37.55625 
L 252.366799 -37.55625 
L 252.366799 -37.55625 
L 252.740686 -37.55625 
L 252.740686 -37.55625 
L 253.114572 -37.55625 
L 253.114572 -37.55625 
L 253.488459 -37.55625 
L 253.488459 -37.55625 
L 253.862346 -37.55625 
L 253.862346 -37.55625 
L 254.236233 -37.55625 
L 254.236233 -37.55625 
L 254.61012 -37.55625 
L 254.61012 -37.55625 
L 254.984007 -37.55625 
L 254.984007 -37.55625 
L 255.357894 -37.55625 
L 255.357894 -37.55625 
L 255.73178 -37.55625 
L 255.73178 -37.55625 
L 256.105667 -37.55625 
L 256.105667 -37.55625 
L 256.479554 -37.55625 
L 256.479554 -37.55625 
L 256.853441 -37.55625 
L 256.853441 -37.55625 
L 257.227328 -37.55625 
L 257.227328 -37.55625 
L 257.601215 -37.55625 
L 257.601215 -37.55625 
L 257.975102 -37.55625 
L 257.975102 -37.55625 
L 258.348989 -37.55625 
L 258.348989 -37.55625 
L 258.722875 -37.55625 
L 258.722875 -37.55625 
L 259.096762 -37.55625 
L 259.096762 -37.55625 
L 259.470649 -37.55625 
L 259.470649 -37.55625 
L 259.844536 -37.55625 
L 259.844536 -37.55625 
L 260.218423 -37.55625 
L 260.218423 -37.55625 
L 260.59231 -37.55625 
L 260.59231 -37.55625 
L 260.966197 -37.55625 
L 260.966197 -37.55625 
L 261.340083 -37.55625 
L 261.340083 -37.55625 
L 261.71397 -37.55625 
L 261.71397 -37.55625 
L 262.087857 -37.55625 
L 262.087857 -37.55625 
L 262.461744 -37.55625 
L 262.461744 -37.55625 
L 262.835631 -37.55625 
L 262.835631 -37.55625 
L 263.209518 -37.55625 
L 263.209518 -37.55625 
L 263.583405 -37.55625 
L 263.583405 -37.55625 
L 263.957292 -37.55625 
L 263.957292 -37.55625 
L 264.331178 -37.55625 
L 264.331178 -37.55625 
L 264.705065 -37.55625 
L 264.705065 -37.55625 
L 265.078952 -37.55625 
L 265.078952 -37.55625 
L 265.452839 -37.55625 
L 265.452839 -37.55625 
L 265.826726 -37.55625 
L 265.826726 -37.55625 
L 266.200613 -37.55625 
L 266.200613 -37.55625 
L 266.5745 -37.55625 
L 266.5745 -37.55625 
L 266.948386 -37.55625 
L 266.948386 -37.55625 
L 267.322273 -37.55625 
L 267.322273 -37.55625 
L 267.69616 -37.55625 
L 267.69616 -37.55625 
L 268.070047 -37.55625 
L 268.070047 -37.55625 
L 268.443934 -37.55625 
L 268.443934 -37.55625 
L 268.817821 -37.55625 
L 268.817821 -37.55625 
L 269.191708 -37.55625 
L 269.191708 -37.55625 
L 269.565595 -37.55625 
L 269.565595 -37.55625 
L 269.939481 -37.55625 
L 269.939481 -37.55625 
L 270.313368 -37.55625 
L 270.313368 -37.55625 
L 270.687255 -37.55625 
L 270.687255 -37.55625 
L 271.061142 -37.55625 
L 271.061142 -37.55625 
L 271.435029 -37.55625 
L 271.435029 -37.55625 
L 271.808916 -37.55625 
L 271.808916 -37.55625 
L 272.182803 -37.55625 
L 272.182803 -37.55625 
L 272.55669 -37.55625 
L 272.55669 -37.55625 
L 272.930576 -37.55625 
L 272.930576 -37.55625 
L 273.304463 -37.55625 
L 273.304463 -37.55625 
L 273.67835 -37.55625 
L 273.67835 -37.55625 
L 274.052237 -37.55625 
L 274.052237 -37.55625 
L 274.426124 -37.55625 
L 274.426124 -37.55625 
L 274.800011 -37.55625 
L 274.800011 -37.55625 
L 275.173898 -37.55625 
L 275.173898 -37.55625 
L 275.547784 -37.55625 
L 275.547784 -37.55625 
L 275.921671 -37.55625 
L 275.921671 -37.55625 
L 276.295558 -37.55625 
L 276.295558 -37.55625 
L 276.669445 -37.55625 
L 276.669445 -37.55625 
L 277.043332 -37.55625 
L 277.043332 -37.55625 
L 277.417219 -37.55625 
L 277.417219 -37.55625 
L 277.791106 -37.55625 
L 277.791106 -37.55625 
L 278.164993 -37.55625 
L 278.164993 -37.55625 
L 278.538879 -37.55625 
L 278.538879 -37.55625 
L 278.912766 -37.55625 
L 278.912766 -37.55625 
L 279.286653 -37.55625 
L 279.286653 -37.55625 
L 279.66054 -37.55625 
L 279.66054 -37.55625 
L 280.034427 -37.55625 
L 280.034427 -37.55625 
L 280.408314 -37.55625 
L 280.408314 -37.55625 
L 280.782201 -37.55625 
L 280.782201 -37.55625 
L 281.156087 -37.55625 
L 281.156087 -37.55625 
L 281.529974 -37.55625 
L 281.529974 -37.55625 
L 281.903861 -37.55625 
L 281.903861 -37.55625 
L 282.277748 -37.55625 
L 282.277748 -37.55625 
L 282.651635 -37.55625 
L 282.651635 -37.55625 
L 283.025522 -37.55625 
L 283.025522 -37.55625 
L 283.399409 -37.55625 
L 283.399409 -37.55625 
L 283.773296 -37.55625 
L 283.773296 -37.55625 
L 284.147182 -37.55625 
L 284.147182 -37.55625 
L 284.521069 -37.55625 
L 284.521069 -37.55625 
L 284.894956 -37.55625 
L 284.894956 -37.55625 
L 285.268843 -37.55625 
L 285.268843 -37.55625 
L 285.64273 -37.55625 
L 285.64273 -37.55625 
L 286.016617 -37.55625 
L 286.016617 -37.55625 
L 286.390504 -37.55625 
L 286.390504 -37.55625 
L 286.76439 -37.55625 
L 286.76439 -37.55625 
L 287.138277 -37.55625 
L 287.138277 -37.55625 
L 287.512164 -37.55625 
L 287.512164 -37.55625 
L 287.886051 -37.55625 
L 287.886051 -37.55625 
L 288.259938 -37.55625 
L 288.259938 -37.55625 
L 288.633825 -37.55625 
L 288.633825 -37.55625 
L 289.007712 -37.55625 
L 289.007712 -37.55625 
L 289.381599 -37.55625 
L 289.381599 -37.55625 
L 289.755485 -37.55625 
L 289.755485 -37.55625 
L 290.129372 -37.55625 
L 290.129372 -37.55625 
L 290.503259 -37.55625 
L 290.503259 -37.55625 
L 290.877146 -37.55625 
L 290.877146 -37.55625 
L 291.251033 -37.55625 
L 291.251033 -37.55625 
L 291.62492 -37.55625 
L 291.62492 -37.55625 
L 291.998807 -37.55625 
L 291.998807 -37.55625 
L 292.372693 -37.55625 
L 292.372693 -37.55625 
L 292.74658 -37.55625 
L 292.74658 -37.55625 
L 293.120467 -37.55625 
L 293.120467 -37.55625 
L 293.494354 -37.55625 
L 293.494354 -37.55625 
L 293.868241 -37.55625 
L 293.868241 -37.55625 
L 294.242128 -37.55625 
L 294.242128 -37.55625 
L 294.616015 -37.55625 
L 294.616015 -37.55625 
L 294.989902 -37.55625 
L 294.989902 -37.55625 
L 295.363788 -37.55625 
L 295.363788 -37.55625 
L 295.737675 -37.55625 
L 295.737675 -37.55625 
L 296.111562 -37.55625 
L 296.111562 -37.55625 
L 296.485449 -37.55625 
L 296.485449 -37.55625 
L 296.859336 -37.55625 
L 296.859336 -37.55625 
L 297.233223 -37.55625 
L 297.233223 -37.55625 
L 297.60711 -37.55625 
L 297.60711 -37.55625 
L 297.980996 -37.55625 
L 297.980996 -37.55625 
L 298.354883 -37.55625 
L 298.354883 -37.55625 
L 298.72877 -37.55625 
L 298.72877 -37.55625 
L 299.102657 -37.55625 
L 299.102657 -37.55625 
L 299.476544 -37.55625 
L 299.476544 -37.55625 
L 299.850431 -37.55625 
L 299.850431 -37.55625 
L 300.224318 -37.55625 
L 300.224318 -37.55625 
L 300.598205 -37.55625 
L 300.598205 -37.55625 
L 300.972091 -37.55625 
L 300.972091 -37.55625 
L 301.345978 -37.55625 
L 301.345978 -37.55625 
L 301.719865 -37.55625 
L 301.719865 -37.55625 
L 302.093752 -37.55625 
L 302.093752 -37.55625 
L 302.467639 -37.55625 
L 302.467639 -37.55625 
L 302.841526 -37.55625 
L 302.841526 -37.55625 
L 303.215413 -37.55625 
L 303.215413 -37.55625 
L 303.589299 -37.55625 
L 303.589299 -37.55625 
L 303.963186 -37.55625 
L 303.963186 -37.55625 
L 304.337073 -37.55625 
L 304.337073 -37.55625 
L 304.71096 -37.55625 
L 304.71096 -37.55625 
L 305.084847 -37.55625 
L 305.084847 -37.55625 
L 305.458734 -37.55625 
L 305.458734 -37.55625 
L 305.832621 -37.55625 
L 305.832621 -37.55625 
L 306.206508 -37.55625 
L 306.206508 -37.55625 
L 306.580394 -37.55625 
L 306.580394 -37.55625 
L 306.954281 -37.55625 
L 306.954281 -37.55625 
L 307.328168 -37.55625 
L 307.328168 -37.55625 
L 307.702055 -37.55625 
L 307.702055 -37.55625 
L 308.075942 -37.55625 
L 308.075942 -37.55625 
L 308.449829 -37.55625 
L 308.449829 -37.55625 
L 308.823716 -37.55625 
L 308.823716 -37.55625 
L 309.197602 -37.55625 
L 309.197602 -37.55625 
L 309.571489 -37.55625 
L 309.571489 -37.55625 
L 309.945376 -37.55625 
L 309.945376 -37.55625 
L 310.319263 -37.55625 
L 310.319263 -37.55625 
L 310.69315 -37.55625 
L 310.69315 -37.55625 
L 311.067037 -37.55625 
L 311.067037 -37.55625 
L 311.440924 -37.55625 
L 311.440924 -37.55625 
L 311.814811 -37.55625 
L 311.814811 -37.55625 
L 312.188697 -37.55625 
L 312.188697 -37.55625 
L 312.562584 -37.55625 
L 312.562584 -37.55625 
L 312.936471 -37.55625 
L 312.936471 -37.55625 
L 313.310358 -37.55625 
L 313.310358 -37.55625 
L 313.684245 -37.55625 
L 313.684245 -37.55625 
L 314.058132 -37.55625 
L 314.058132 -37.55625 
L 314.432019 -37.55625 
L 314.432019 -37.55625 
L 314.805905 -37.55625 
L 314.805905 -37.55625 
L 315.179792 -37.55625 
L 315.179792 -37.55625 
L 315.553679 -37.55625 
L 315.553679 -37.55625 
L 315.927566 -37.55625 
L 315.927566 -37.55625 
L 316.301453 -37.55625 
L 316.301453 -37.55625 
L 316.67534 -37.55625 
L 316.67534 -37.55625 
L 317.049227 -37.55625 
L 317.049227 -37.55625 
L 317.423114 -37.55625 
L 317.423114 -37.55625 
L 317.797 -37.55625 
L 317.797 -37.55625 
L 318.170887 -37.55625 
L 318.170887 -37.55625 
L 318.544774 -37.55625 
L 318.544774 -37.55625 
L 318.918661 -37.55625 
L 318.918661 -37.55625 
L 319.292548 -37.55625 
L 319.292548 -37.55625 
L 319.666435 -37.55625 
L 319.666435 -37.55625 
L 320.040322 -37.55625 
L 320.040322 -37.55625 
L 320.414208 -37.55625 
L 320.414208 -37.55625 
L 320.788095 -37.55625 
L 320.788095 -37.55625 
L 321.161982 -37.55625 
L 321.161982 -37.55625 
L 321.535869 -37.55625 
L 321.535869 -37.55625 
L 321.909756 -37.55625 
L 321.909756 -37.55625 
L 322.283643 -37.55625 
L 322.283643 -37.55625 
L 322.65753 -37.55625 
L 322.65753 -37.55625 
L 323.031417 -37.55625 
L 323.031417 -37.55625 
L 323.405303 -37.55625 
L 323.405303 -37.55625 
L 323.77919 -37.55625 
L 323.77919 -37.55625 
L 324.153077 -37.55625 
L 324.153077 -37.55625 
L 324.526964 -37.55625 
L 324.526964 -37.55625 
L 324.900851 -37.55625 
L 324.900851 -37.55625 
L 325.274738 -37.55625 
L 325.274738 -37.55625 
L 325.648625 -37.55625 
L 325.648625 -37.55625 
L 326.022511 -37.55625 
L 326.022511 -37.55625 
L 326.396398 -37.55625 
L 326.396398 -37.55625 
L 326.770285 -37.55625 
L 326.770285 -37.55625 
L 327.144172 -37.55625 
L 327.144172 -37.55625 
L 327.518059 -37.55625 
L 327.518059 -37.55625 
L 327.891946 -37.55625 
L 327.891946 -37.55625 
L 328.265833 -37.55625 
L 328.265833 -37.55625 
L 328.63972 -37.55625 
L 328.63972 -37.55625 
L 329.013606 -37.55625 
L 329.013606 -37.55625 
L 329.387493 -37.55625 
L 329.387493 -37.55625 
L 329.76138 -37.55625 
L 329.76138 -37.55625 
L 330.135267 -37.55625 
L 330.135267 -37.55625 
L 330.509154 -37.55625 
L 330.509154 -37.55625 
L 330.883041 -37.55625 
L 330.883041 -37.55625 
L 330.883041 -37.671732 
L 330.883041 -37.671732 
L 330.883041 -37.671732 
L 330.509154 -37.671732 
L 330.509154 -37.55625 
L 330.135267 -37.55625 
L 330.135267 -37.55625 
L 329.76138 -37.55625 
L 329.76138 -37.55625 
L 329.387493 -37.55625 
L 329.387493 -37.55625 
L 329.013606 -37.55625 
L 329.013606 -37.55625 
L 328.63972 -37.55625 
L 328.63972 -37.55625 
L 328.265833 -37.55625 
L 328.265833 -37.55625 
L 327.891946 -37.55625 
L 327.891946 -37.55625 
L 327.518059 -37.55625 
L 327.518059 -37.55625 
L 327.144172 -37.55625 
L 327.144172 -37.55625 
L 326.770285 -37.55625 
L 326.770285 -37.55625 
L 326.396398 -37.55625 
L 326.396398 -37.55625 
L 326.022511 -37.55625 
L 326.022511 -37.55625 
L 325.648625 -37.55625 
L 325.648625 -37.55625 
L 325.274738 -37.55625 
L 325.274738 -37.55625 
L 324.900851 -37.55625 
L 324.900851 -37.55625 
L 324.526964 -37.55625 
L 324.526964 -37.55625 
L 324.153077 -37.55625 
L 324.153077 -37.55625 
L 323.77919 -37.55625 
L 323.77919 -37.55625 
L 323.405303 -37.55625 
L 323.405303 -37.55625 
L 323.031417 -37.55625 
L 323.031417 -37.55625 
L 322.65753 -37.55625 
L 322.65753 -37.55625 
L 322.283643 -37.55625 
L 322.283643 -37.55625 
L 321.909756 -37.55625 
L 321.909756 -37.55625 
L 321.535869 -37.55625 
L 321.535869 -37.55625 
L 321.161982 -37.55625 
L 321.161982 -37.55625 
L 320.788095 -37.55625 
L 320.788095 -37.55625 
L 320.414208 -37.55625 
L 320.414208 -37.55625 
L 320.040322 -37.55625 
L 320.040322 -37.55625 
L 319.666435 -37.55625 
L 319.666435 -37.55625 
L 319.292548 -37.55625 
L 319.292548 -37.55625 
L 318.918661 -37.55625 
L 318.918661 -37.55625 
L 318.544774 -37.55625 
L 318.544774 -37.671732 
L 318.170887 -37.671732 
L 318.170887 -37.55625 
L 317.797 -37.55625 
L 317.797 -37.671732 
L 317.423114 -37.671732 
L 317.423114 -37.55625 
L 317.049227 -37.55625 
L 317.049227 -37.787214 
L 316.67534 -37.787214 
L 316.67534 -37.55625 
L 316.301453 -37.55625 
L 316.301453 -37.55625 
L 315.927566 -37.55625 
L 315.927566 -37.787214 
L 315.553679 -37.787214 
L 315.553679 -37.671732 
L 315.179792 -37.671732 
L 315.179792 -37.671732 
L 314.805905 -37.671732 
L 314.805905 -37.55625 
L 314.432019 -37.55625 
L 314.432019 -37.671732 
L 314.058132 -37.671732 
L 314.058132 -37.671732 
L 313.684245 -37.671732 
L 313.684245 -37.55625 
L 313.310358 -37.55625 
L 313.310358 -37.671732 
L 312.936471 -37.671732 
L 312.936471 -37.671732 
L 312.562584 -37.671732 
L 312.562584 -37.55625 
L 312.188697 -37.55625 
L 312.188697 -37.55625 
L 311.814811 -37.55625 
L 311.814811 -37.671732 
L 311.440924 -37.671732 
L 311.440924 -37.55625 
L 311.067037 -37.55625 
L 311.067037 -37.55625 
L 310.69315 -37.55625 
L 310.69315 -37.55625 
L 310.319263 -37.55625 
L 310.319263 -37.671732 
L 309.945376 -37.671732 
L 309.945376 -37.671732 
L 309.571489 -37.671732 
L 309.571489 -37.55625 
L 309.197602 -37.55625 
L 309.197602 -37.671732 
L 308.823716 -37.671732 
L 308.823716 -37.671732 
L 308.449829 -37.671732 
L 308.449829 -37.787214 
L 308.075942 -37.787214 
L 308.075942 -37.55625 
L 307.702055 -37.55625 
L 307.702055 -37.671732 
L 307.328168 -37.671732 
L 307.328168 -37.55625 
L 306.954281 -37.55625 
L 306.954281 -37.671732 
L 306.580394 -37.671732 
L 306.580394 -37.55625 
L 306.206508 -37.55625 
L 306.206508 -37.787214 
L 305.832621 -37.787214 
L 305.832621 -37.55625 
L 305.458734 -37.55625 
L 305.458734 -37.671732 
L 305.084847 -37.671732 
L 305.084847 -37.671732 
L 304.71096 -37.671732 
L 304.71096 -37.55625 
L 304.337073 -37.55625 
L 304.337073 -37.902696 
L 303.963186 -37.902696 
L 303.963186 -37.671732 
L 303.589299 -37.671732 
L 303.589299 -37.902696 
L 303.215413 -37.902696 
L 303.215413 -38.364623 
L 302.841526 -38.364623 
L 302.841526 -37.902696 
L 302.467639 -37.902696 
L 302.467639 -37.671732 
L 302.093752 -37.671732 
L 302.093752 -37.55625 
L 301.719865 -37.55625 
L 301.719865 -37.787214 
L 301.345978 -37.787214 
L 301.345978 -38.018178 
L 300.972091 -38.018178 
L 300.972091 -37.902696 
L 300.598205 -37.902696 
L 300.598205 -37.902696 
L 300.224318 -37.902696 
L 300.224318 -37.671732 
L 299.850431 -37.671732 
L 299.850431 -37.55625 
L 299.476544 -37.55625 
L 299.476544 -37.55625 
L 299.102657 -37.55625 
L 299.102657 -37.55625 
L 298.72877 -37.55625 
L 298.72877 -37.671732 
L 298.354883 -37.671732 
L 298.354883 -38.133659 
L 297.980996 -38.133659 
L 297.980996 -37.787214 
L 297.60711 -37.787214 
L 297.60711 -37.902696 
L 297.233223 -37.902696 
L 297.233223 -37.787214 
L 296.859336 -37.787214 
L 296.859336 -38.595587 
L 296.485449 -38.595587 
L 296.485449 -37.671732 
L 296.111562 -37.671732 
L 296.111562 -38.018178 
L 295.737675 -38.018178 
L 295.737675 -38.133659 
L 295.363788 -38.133659 
L 295.363788 -38.018178 
L 294.989902 -38.018178 
L 294.989902 -38.249141 
L 294.616015 -38.249141 
L 294.616015 -38.249141 
L 294.242128 -38.249141 
L 294.242128 -38.595587 
L 293.868241 -38.595587 
L 293.868241 -38.018178 
L 293.494354 -38.018178 
L 293.494354 -38.133659 
L 293.120467 -38.133659 
L 293.120467 -38.018178 
L 292.74658 -38.018178 
L 292.74658 -38.595587 
L 292.372693 -38.595587 
L 292.372693 -38.595587 
L 291.998807 -38.595587 
L 291.998807 -38.595587 
L 291.62492 -38.595587 
L 291.62492 -37.902696 
L 291.251033 -37.902696 
L 291.251033 -37.902696 
L 290.877146 -37.902696 
L 290.877146 -38.942033 
L 290.503259 -38.942033 
L 290.503259 -38.249141 
L 290.129372 -38.249141 
L 290.129372 -38.711069 
L 289.755485 -38.711069 
L 289.755485 -38.480105 
L 289.381599 -38.480105 
L 289.381599 -38.480105 
L 289.007712 -38.480105 
L 289.007712 -38.595587 
L 288.633825 -38.595587 
L 288.633825 -39.519442 
L 288.259938 -39.519442 
L 288.259938 -38.364623 
L 287.886051 -38.364623 
L 287.886051 -38.480105 
L 287.512164 -38.480105 
L 287.512164 -38.711069 
L 287.138277 -38.711069 
L 287.138277 -38.942033 
L 286.76439 -38.942033 
L 286.76439 -38.595587 
L 286.390504 -38.595587 
L 286.390504 -38.595587 
L 286.016617 -38.595587 
L 286.016617 -39.519442 
L 285.64273 -39.519442 
L 285.64273 -38.364623 
L 285.268843 -38.364623 
L 285.268843 -38.711069 
L 284.894956 -38.711069 
L 284.894956 -39.634924 
L 284.521069 -39.634924 
L 284.521069 -39.40396 
L 284.147182 -39.40396 
L 284.147182 -39.288478 
L 283.773296 -39.288478 
L 283.773296 -39.634924 
L 283.399409 -39.634924 
L 283.399409 -39.172996 
L 283.025522 -39.172996 
L 283.025522 -39.634924 
L 282.651635 -39.634924 
L 282.651635 -39.288478 
L 282.277748 -39.288478 
L 282.277748 -39.865888 
L 281.903861 -39.865888 
L 281.903861 -39.750406 
L 281.529974 -39.750406 
L 281.529974 -40.096851 
L 281.156087 -40.096851 
L 281.156087 -39.40396 
L 280.782201 -39.40396 
L 280.782201 -39.519442 
L 280.408314 -39.519442 
L 280.408314 -39.634924 
L 280.034427 -39.634924 
L 280.034427 -39.750406 
L 279.66054 -39.750406 
L 279.66054 -40.905224 
L 279.286653 -40.905224 
L 279.286653 -39.40396 
L 278.912766 -39.40396 
L 278.912766 -40.558779 
L 278.538879 -40.558779 
L 278.538879 -40.558779 
L 278.164993 -40.558779 
L 278.164993 -41.020706 
L 277.791106 -41.020706 
L 277.791106 -40.443297 
L 277.417219 -40.443297 
L 277.417219 -39.981369 
L 277.043332 -39.981369 
L 277.043332 -40.327815 
L 276.669445 -40.327815 
L 276.669445 -40.212333 
L 276.295558 -40.212333 
L 276.295558 -41.367152 
L 275.921671 -41.367152 
L 275.921671 -41.482634 
L 275.547784 -41.482634 
L 275.547784 -40.327815 
L 275.173898 -40.327815 
L 275.173898 -42.175525 
L 274.800011 -42.175525 
L 274.800011 -40.789743 
L 274.426124 -40.789743 
L 274.426124 -41.020706 
L 274.052237 -41.020706 
L 274.052237 -42.060043 
L 273.67835 -42.060043 
L 273.67835 -42.521971 
L 273.304463 -42.521971 
L 273.304463 -42.868416 
L 272.930576 -42.868416 
L 272.930576 -41.944561 
L 272.55669 -41.944561 
L 272.55669 -43.792271 
L 272.182803 -43.792271 
L 272.182803 -42.637453 
L 271.808916 -42.637453 
L 271.808916 -42.868416 
L 271.435029 -42.868416 
L 271.435029 -43.792271 
L 271.061142 -43.792271 
L 271.061142 -43.445826 
L 270.687255 -43.445826 
L 270.687255 -45.293536 
L 270.313368 -45.293536 
L 270.313368 -44.369681 
L 269.939481 -44.369681 
L 269.939481 -43.445826 
L 269.565595 -43.445826 
L 269.565595 -44.94709 
L 269.191708 -44.94709 
L 269.191708 -43.561308 
L 268.817821 -43.561308 
L 268.817821 -44.023235 
L 268.443934 -44.023235 
L 268.443934 -46.101909 
L 268.070047 -46.101909 
L 268.070047 -45.178054 
L 267.69616 -45.178054 
L 267.69616 -47.372209 
L 267.322273 -47.372209 
L 267.322273 -46.332873 
L 266.948386 -46.332873 
L 266.948386 -48.411546 
L 266.5745 -48.411546 
L 266.5745 -47.949619 
L 266.200613 -47.949619 
L 266.200613 -48.411546 
L 265.826726 -48.411546 
L 265.826726 -46.563836 
L 265.452839 -46.563836 
L 265.452839 -48.873474 
L 265.078952 -48.873474 
L 265.078952 -48.411546 
L 264.705065 -48.411546 
L 264.705065 -47.256728 
L 264.331178 -47.256728 
L 264.331178 -49.566365 
L 263.957292 -49.566365 
L 263.957292 -48.411546 
L 263.583405 -48.411546 
L 263.583405 -49.566365 
L 263.209518 -49.566365 
L 263.209518 -51.183111 
L 262.835631 -51.183111 
L 262.835631 -51.414075 
L 262.461744 -51.414075 
L 262.461744 -49.450883 
L 262.087857 -49.450883 
L 262.087857 -52.222448 
L 261.71397 -52.222448 
L 261.71397 -51.183111 
L 261.340083 -51.183111 
L 261.340083 -54.532086 
L 260.966197 -54.532086 
L 260.966197 -52.684376 
L 260.59231 -52.684376 
L 260.59231 -50.605702 
L 260.218423 -50.605702 
L 260.218423 -52.684376 
L 259.844536 -52.684376 
L 259.844536 -54.18564 
L 259.470649 -54.18564 
L 259.470649 -55.571423 
L 259.096762 -55.571423 
L 259.096762 -57.534615 
L 258.722875 -57.534615 
L 258.722875 -54.994013 
L 258.348989 -54.994013 
L 258.348989 -57.534615 
L 257.975102 -57.534615 
L 257.975102 -59.266843 
L 257.601215 -59.266843 
L 257.601215 -58.227506 
L 257.227328 -58.227506 
L 257.227328 -60.190698 
L 256.853441 -60.190698 
L 256.853441 -60.30618 
L 256.479554 -60.30618 
L 256.479554 -60.421662 
L 256.105667 -60.421662 
L 256.105667 -59.844252 
L 255.73178 -59.844252 
L 255.73178 -63.770636 
L 255.357894 -63.770636 
L 255.357894 -63.655154 
L 254.984007 -63.655154 
L 254.984007 -61.807444 
L 254.61012 -61.807444 
L 254.61012 -67.581538 
L 254.236233 -67.581538 
L 254.236233 -64.348045 
L 253.862346 -64.348045 
L 253.862346 -68.96732 
L 253.488459 -68.96732 
L 253.488459 -68.158947 
L 253.114572 -68.158947 
L 253.114572 -70.353103 
L 252.740686 -70.353103 
L 252.740686 -70.353103 
L 252.366799 -70.353103 
L 252.366799 -69.198284 
L 251.992912 -69.198284 
L 251.992912 -70.353103 
L 251.619025 -70.353103 
L 251.619025 -70.699549 
L 251.245138 -70.699549 
L 251.245138 -71.623404 
L 250.871251 -71.623404 
L 250.871251 -74.972378 
L 250.497364 -74.972378 
L 250.497364 -75.665269 
L 250.123477 -75.665269 
L 250.123477 -76.242679 
L 249.749591 -76.242679 
L 249.749591 -79.129725 
L 249.375704 -79.129725 
L 249.375704 -79.591653 
L 249.001817 -79.591653 
L 249.001817 -74.394969 
L 248.62793 -74.394969 
L 248.62793 -78.090389 
L 248.254043 -78.090389 
L 248.254043 -84.095446 
L 247.880156 -84.095446 
L 247.880156 -79.707135 
L 247.506269 -79.707135 
L 247.506269 -84.903819 
L 247.132383 -84.903819 
L 247.132383 -87.675384 
L 246.758496 -87.675384 
L 246.758496 -90.331468 
L 246.384609 -90.331468 
L 246.384609 -86.520566 
L 246.010722 -86.520566 
L 246.010722 -85.943156 
L 245.636835 -85.943156 
L 245.636835 -90.100504 
L 245.262948 -90.100504 
L 245.262948 -93.449478 
L 244.889061 -93.449478 
L 244.889061 -97.491344 
L 244.515174 -97.491344 
L 244.515174 -95.874598 
L 244.141288 -95.874598 
L 244.141288 -96.336525 
L 243.767401 -96.336525 
L 243.767401 -100.147427 
L 243.393514 -100.147427 
L 243.393514 -103.842847 
L 243.019627 -103.842847 
L 243.019627 -103.38092 
L 242.64574 -103.38092 
L 242.64574 -104.535738 
L 242.271853 -104.535738 
L 242.271853 -106.383448 
L 241.897966 -106.383448 
L 241.897966 -104.420256 
L 241.52408 -104.420256 
L 241.52408 -105.459593 
L 241.150193 -105.459593 
L 241.150193 -112.273024 
L 240.776306 -112.273024 
L 240.776306 -111.580133 
L 240.402419 -111.580133 
L 240.402419 -117.123263 
L 240.028532 -117.123263 
L 240.028532 -117.238745 
L 239.654645 -117.238745 
L 239.654645 -112.503988 
L 239.280758 -112.503988 
L 239.280758 -120.01031 
L 238.906871 -120.01031 
L 238.906871 -121.396092 
L 238.532985 -121.396092 
L 238.532985 -125.206994 
L 238.159098 -125.206994 
L 238.159098 -124.97603 
L 237.785211 -124.97603 
L 237.785211 -128.902414 
L 237.411324 -128.902414 
L 237.411324 -130.51916 
L 237.037437 -130.51916 
L 237.037437 -136.870664 
L 236.66355 -136.870664 
L 236.66355 -133.752653 
L 236.289663 -133.752653 
L 236.289663 -140.33512 
L 235.915777 -140.33512 
L 235.915777 -139.064819 
L 235.54189 -139.064819 
L 235.54189 -137.217109 
L 235.168003 -137.217109 
L 235.168003 -144.03054 
L 234.794116 -144.03054 
L 234.794116 -145.531804 
L 234.420229 -145.531804 
L 234.420229 -143.799576 
L 234.046342 -143.799576 
L 234.046342 -147.956924 
L 233.672455 -147.956924 
L 233.672455 -151.42138 
L 233.298568 -151.42138 
L 233.298568 -156.271619 
L 232.924682 -156.271619 
L 232.924682 -158.927702 
L 232.550795 -158.927702 
L 232.550795 -160.775412 
L 232.176908 -160.775412 
L 232.176908 -166.318542 
L 231.803021 -166.318542 
L 231.803021 -160.313485 
L 231.429134 -160.313485 
L 231.429134 -162.50764 
L 231.055247 -162.50764 
L 231.055247 -163.893423 
L 230.68136 -163.893423 
L 230.68136 -165.856615 
L 230.307474 -165.856615 
L 230.307474 -168.05077 
L 229.933587 -168.05077 
L 229.933587 -175.788056 
L 229.5597 -175.788056 
L 229.5597 -174.979683 
L 229.185813 -174.979683 
L 229.185813 -184.68016 
L 228.811926 -184.68016 
L 228.811926 -180.753777 
L 228.438039 -180.753777 
L 228.438039 -179.367994 
L 228.064152 -179.367994 
L 228.064152 -187.798171 
L 227.690265 -187.798171 
L 227.690265 -189.068472 
L 227.316379 -189.068472 
L 227.316379 -189.645881 
L 226.942492 -189.645881 
L 226.942492 -200.270214 
L 226.568605 -200.270214 
L 226.568605 -199.577323 
L 226.194718 -199.577323 
L 226.194718 -203.850152 
L 225.820831 -203.850152 
L 225.820831 -204.312079 
L 225.446944 -204.312079 
L 225.446944 -205.928826 
L 225.073057 -205.928826 
L 225.073057 -207.661054 
L 224.699171 -207.661054 
L 224.699171 -222.673698 
L 224.325284 -222.673698 
L 224.325284 -209.624246 
L 223.951397 -209.624246 
L 223.951397 -218.631832 
L 223.57751 -218.631832 
L 223.57751 -215.39834 
L 223.203623 -215.39834 
L 223.203623 -220.710506 
L 222.829736 -220.710506 
L 222.829736 -220.94147 
L 222.455849 -220.94147 
L 222.455849 -226.715563 
L 222.081962 -226.715563 
L 222.081962 -235.261222 
L 221.708076 -235.261222 
L 221.708076 -236.531523 
L 221.334189 -236.531523 
L 221.334189 -231.219357 
L 220.960302 -231.219357 
L 220.960302 -238.956642 
L 220.586415 -238.956642 
L 220.586415 -237.801824 
L 220.212528 -237.801824 
L 220.212528 -238.841161 
L 219.838641 -238.841161 
L 219.838641 -250.50483 
L 219.464754 -250.50483 
L 219.464754 -243.11399 
L 219.090868 -243.11399 
L 219.090868 -249.927421 
L 218.716981 -249.927421 
L 218.716981 -252.468022 
L 218.343094 -252.468022 
L 218.343094 -261.244645 
L 217.969207 -261.244645 
L 217.969207 -259.74338 
L 217.59532 -259.74338 
L 217.59532 -255.355069 
L 217.221433 -255.355069 
L 217.221433 -259.050489 
L 216.847546 -259.050489 
L 216.847546 -264.824583 
L 216.473659 -264.824583 
L 216.473659 -266.325847 
L 216.099773 -266.325847 
L 216.099773 -258.011152 
L 215.725886 -258.011152 
L 215.725886 -270.714158 
L 215.351999 -270.714158 
L 215.351999 -273.370242 
L 214.978112 -273.370242 
L 214.978112 -276.603734 
L 214.604225 -276.603734 
L 214.604225 -277.527589 
L 214.230338 -277.527589 
L 214.230338 -270.367713 
L 213.856451 -270.367713 
L 213.856451 -277.758553 
L 213.482565 -277.758553 
L 213.482565 -279.144335 
L 213.108678 -279.144335 
L 213.108678 -278.913372 
L 212.734791 -278.913372 
L 212.734791 -297.736917 
L 212.360904 -297.736917 
L 212.360904 -295.311798 
L 211.987017 -295.311798 
L 211.987017 -285.495839 
L 211.61313 -285.495839 
L 211.61313 -295.773726 
L 211.239243 -295.773726 
L 211.239243 -283.301683 
L 210.865356 -283.301683 
L 210.865356 -294.387943 
L 210.49147 -294.387943 
L 210.49147 -297.505954 
L 210.117583 -297.505954 
L 210.117583 -298.776254 
L 209.743696 -298.776254 
L 209.743696 -302.240711 
L 209.369809 -302.240711 
L 209.369809 -301.547819 
L 208.995922 -301.547819 
L 208.995922 -304.66583 
L 208.622035 -304.66583 
L 208.622035 -299.353664 
L 208.248148 -299.353664 
L 208.248148 -295.889207 
L 207.874261 -295.889207 
L 207.874261 -307.552877 
L 207.500375 -307.552877 
L 207.500375 -301.547819 
L 207.126488 -301.547819 
L 207.126488 -296.813062 
L 206.752601 -296.813062 
L 206.752601 -307.899323 
L 206.378714 -307.899323 
L 206.378714 -303.626493 
L 206.004827 -303.626493 
L 206.004827 -312.172152 
L 205.63094 -312.172152 
L 205.63094 -302.125229 
L 205.257053 -302.125229 
L 205.257053 -302.471674 
L 204.883167 -302.471674 
L 204.883167 -310.20896 
L 204.50928 -310.20896 
L 204.50928 -313.788898 
L 204.135393 -313.788898 
L 204.135393 -313.788898 
L 203.761506 -313.788898 
L 203.761506 -312.865043 
L 203.387619 -312.865043 
L 203.387619 -307.552877 
L 203.013732 -307.552877 
L 203.013732 -296.466617 
L 202.639845 -296.466617 
L 202.639845 -312.403116 
L 202.265958 -312.403116 
L 202.265958 -306.744504 
L 201.892072 -306.744504 
L 201.892072 -306.51354 
L 201.518185 -306.51354 
L 201.518185 -308.938659 
L 201.144298 -308.938659 
L 201.144298 -307.090949 
L 200.770411 -307.090949 
L 200.770411 -314.48179 
L 200.396524 -314.48179 
L 200.396524 -308.014804 
L 200.022637 -308.014804 
L 200.022637 -298.545291 
L 199.64875 -298.545291 
L 199.64875 -307.321913 
L 199.274864 -307.321913 
L 199.274864 -312.172152 
L 198.900977 -312.172152 
L 198.900977 -313.211489 
L 198.52709 -313.211489 
L 198.52709 -302.009747 
L 198.153203 -302.009747 
L 198.153203 -311.825706 
L 197.779316 -311.825706 
L 197.779316 -304.550348 
L 197.405429 -304.550348 
L 197.405429 -304.203903 
L 197.031542 -304.203903 
L 197.031542 -304.203903 
L 196.657655 -304.203903 
L 196.657655 -309.516069 
L 196.283769 -309.516069 
L 196.283769 -303.626493 
L 195.909882 -303.626493 
L 195.909882 -312.63408 
L 195.535995 -312.63408 
L 195.535995 -310.093478 
L 195.162108 -310.093478 
L 195.162108 -307.552877 
L 194.788221 -307.552877 
L 194.788221 -310.439924 
L 194.414334 -310.439924 
L 194.414334 -298.314327 
L 194.040447 -298.314327 
L 194.040447 -306.51354 
L 193.666561 -306.51354 
L 193.666561 -295.196316 
L 193.292674 -295.196316 
L 193.292674 -304.66583 
L 192.918787 -304.66583 
L 192.918787 -304.203903 
L 192.5449 -304.203903 
L 192.5449 -307.899323 
L 192.171013 -307.899323 
L 192.171013 -292.655715 
L 191.797126 -292.655715 
L 191.797126 -310.555406 
L 191.423239 -310.555406 
L 191.423239 -309.977996 
L 191.049352 -309.977996 
L 191.049352 -304.203903 
L 190.675466 -304.203903 
L 190.675466 -312.980525 
L 190.301579 -312.980525 
L 190.301579 -293.117642 
L 189.927692 -293.117642 
L 189.927692 -302.356193 
L 189.553805 -302.356193 
L 189.553805 -304.781312 
L 189.179918 -304.781312 
L 189.179918 -305.589685 
L 188.806031 -305.589685 
L 188.806031 -301.316856 
L 188.432144 -301.316856 
L 188.432144 -306.975468 
L 188.058258 -306.975468 
L 188.058258 -302.933602 
L 187.684371 -302.933602 
L 187.684371 -307.552877 
L 187.310484 -307.552877 
L 187.310484 -278.682408 
L 186.936597 -278.682408 
L 186.936597 -295.773726 
L 186.56271 -295.773726 
L 186.56271 -291.73186 
L 186.188823 -291.73186 
L 186.188823 -306.859986 
L 185.814936 -306.859986 
L 185.814936 -297.852399 
L 185.441049 -297.852399 
L 185.441049 -299.238182 
L 185.067163 -299.238182 
L 185.067163 -295.542762 
L 184.693276 -295.542762 
L 184.693276 -285.149393 
L 184.319389 -285.149393 
L 184.319389 -296.928544 
L 183.945502 -296.928544 
L 183.945502 -294.503425 
L 183.571615 -294.503425 
L 183.571615 -299.353664 
L 183.197728 -299.353664 
L 183.197728 -284.687465 
L 182.823841 -284.687465 
L 182.823841 -293.57957 
L 182.449955 -293.57957 
L 182.449955 -292.193787 
L 182.076068 -292.193787 
L 182.076068 -288.844813 
L 181.702181 -288.844813 
L 181.702181 -288.382885 
L 181.328294 -288.382885 
L 181.328294 -291.500896 
L 180.954407 -291.500896 
L 180.954407 -281.338491 
L 180.58052 -281.338491 
L 180.58052 -291.616378 
L 180.206633 -291.616378 
L 180.206633 -284.802947 
L 179.832746 -284.802947 
L 179.832746 -301.201374 
L 179.45886 -301.201374 
L 179.45886 -279.606263 
L 179.084973 -279.606263 
L 179.084973 -284.687465 
L 178.711086 -284.687465 
L 178.711086 -283.76361 
L 178.337199 -283.76361 
L 178.337199 -286.304212 
L 177.963312 -286.304212 
L 177.963312 -276.141807 
L 177.589425 -276.141807 
L 177.589425 -284.802947 
L 177.215538 -284.802947 
L 177.215538 -275.910843 
L 176.841652 -275.910843 
L 176.841652 -274.986988 
L 176.467765 -274.986988 
L 176.467765 -268.404521 
L 176.093878 -268.404521 
L 176.093878 -267.249702 
L 175.719991 -267.249702 
L 175.719991 -264.247173 
L 175.346104 -264.247173 
L 175.346104 -267.71163 
L 174.972217 -267.71163 
L 174.972217 -262.514945 
L 174.59833 -262.514945 
L 174.59833 -258.704043 
L 174.224443 -258.704043 
L 174.224443 -257.433743 
L 173.850557 -257.433743 
L 173.850557 -257.549224 
L 173.47667 -257.549224 
L 173.47667 -260.898199 
L 173.102783 -260.898199 
L 173.102783 -258.588561 
L 172.728896 -258.588561 
L 172.728896 -262.861391 
L 172.355009 -262.861391 
L 172.355009 -249.234529 
L 171.981122 -249.234529 
L 171.981122 -246.001037 
L 171.607235 -246.001037 
L 171.607235 -251.082239 
L 171.233349 -251.082239 
L 171.233349 -239.41857 
L 170.859462 -239.41857 
L 170.859462 -238.841161 
L 170.485575 -238.841161 
L 170.485575 -243.806881 
L 170.111688 -243.806881 
L 170.111688 -245.770073 
L 169.737801 -245.770073 
L 169.737801 -239.072124 
L 169.363914 -239.072124 
L 169.363914 -231.681284 
L 168.990027 -231.681284 
L 168.990027 -231.912248 
L 168.61614 -231.912248 
L 168.61614 -223.366589 
L 168.242254 -223.366589 
L 168.242254 -237.108932 
L 167.868367 -237.108932 
L 167.868367 -227.985864 
L 167.49448 -227.985864 
L 167.49448 -220.133097 
L 167.120593 -220.133097 
L 167.120593 -221.056952 
L 166.746706 -221.056952 
L 166.746706 -213.435148 
L 166.372819 -213.435148 
L 166.372819 -211.12551 
L 165.998932 -211.12551 
L 165.998932 -208.122981 
L 165.625046 -208.122981 
L 165.625046 -204.658525 
L 165.251159 -204.658525 
L 165.251159 -203.619188 
L 164.877272 -203.619188 
L 164.877272 -204.427561 
L 164.503385 -204.427561 
L 164.503385 -202.233406 
L 164.129498 -202.233406 
L 164.129498 -193.687747 
L 163.755611 -193.687747 
L 163.755611 -197.614131 
L 163.381724 -197.614131 
L 163.381724 -189.645881 
L 163.007837 -189.645881 
L 163.007837 -189.183954 
L 162.633951 -189.183954 
L 162.633951 -186.181425 
L 162.260064 -186.181425 
L 162.260064 -183.40986 
L 161.886177 -183.40986 
L 161.886177 -186.065943 
L 161.51229 -186.065943 
L 161.51229 -180.407331 
L 161.138403 -180.407331 
L 161.138403 -173.824864 
L 160.764516 -173.824864 
L 160.764516 -185.719497 
L 160.390629 -185.719497 
L 160.390629 -175.903538 
L 160.016743 -175.903538 
L 160.016743 -177.86673 
L 159.642856 -177.86673 
L 159.642856 -179.13703 
L 159.268969 -179.13703 
L 159.268969 -179.483476 
L 158.895082 -179.483476 
L 158.895082 -169.89848 
L 158.521195 -169.89848 
L 158.521195 -171.977154 
L 158.147308 -171.977154 
L 158.147308 -172.901009 
L 157.773421 -172.901009 
L 157.773421 -170.013962 
L 157.399534 -170.013962 
L 157.399534 -173.5939 
L 157.025648 -173.5939 
L 157.025648 -165.163723 
L 156.651761 -165.163723 
L 156.651761 -162.738604 
L 156.277874 -162.738604 
L 156.277874 -162.50764 
L 155.903987 -162.50764 
L 155.903987 -160.082521 
L 155.5301 -160.082521 
L 155.5301 -163.777941 
L 155.156213 -163.777941 
L 155.156213 -158.465775 
L 154.782326 -158.465775 
L 154.782326 -160.198003 
L 154.40844 -160.198003 
L 154.40844 -156.849028 
L 154.034553 -156.849028 
L 154.034553 -153.153608 
L 153.660666 -153.153608 
L 153.660666 -154.308427 
L 153.286779 -154.308427 
L 153.286779 -157.195474 
L 152.912892 -157.195474 
L 152.912892 -155.578728 
L 152.539005 -155.578728 
L 152.539005 -148.765297 
L 152.165118 -148.765297 
L 152.165118 -158.234811 
L 151.791231 -158.234811 
L 151.791231 -148.649815 
L 151.417345 -148.649815 
L 151.417345 -147.148551 
L 151.043458 -147.148551 
L 151.043458 -148.187888 
L 150.669571 -148.187888 
L 150.669571 -150.497525 
L 150.295684 -150.497525 
L 150.295684 -148.303369 
L 149.921797 -148.303369 
L 149.921797 -148.072406 
L 149.54791 -148.072406 
L 149.54791 -147.494996 
L 149.174023 -147.494996 
L 149.174023 -151.074934 
L 148.800137 -151.074934 
L 148.800137 -151.536862 
L 148.42625 -151.536862 
L 148.42625 -143.568613 
L 148.052363 -143.568613 
L 148.052363 -154.539391 
L 147.678476 -154.539391 
L 147.678476 -143.568613 
L 147.304589 -143.568613 
L 147.304589 -142.991203 
L 146.930702 -142.991203 
L 146.930702 -145.993732 
L 146.556815 -145.993732 
L 146.556815 -143.568613 
L 146.182928 -143.568613 
L 146.182928 -144.723431 
L 145.809042 -144.723431 
L 145.809042 -142.529276 
L 145.435155 -142.529276 
L 145.435155 -141.605421 
L 145.061268 -141.605421 
L 145.061268 -139.988674 
L 144.687381 -139.988674 
L 144.687381 -137.910001 
L 144.313494 -137.910001 
L 144.313494 -137.448073 
L 143.939607 -137.448073 
L 143.939607 -137.794519 
L 143.56572 -137.794519 
L 143.56572 -131.789461 
L 143.191833 -131.789461 
L 143.191833 -137.679037 
L 142.817947 -137.679037 
L 142.817947 -135.484881 
L 142.44406 -135.484881 
L 142.44406 -134.79199 
L 142.070173 -134.79199 
L 142.070173 -134.214581 
L 141.696286 -134.214581 
L 141.696286 -132.020425 
L 141.322399 -132.020425 
L 141.322399 -126.246331 
L 140.948512 -126.246331 
L 140.948512 -124.629585 
L 140.574625 -124.629585 
L 140.574625 -123.590248 
L 140.200739 -123.590248 
L 140.200739 -125.784404 
L 139.826852 -125.784404 
L 139.826852 -125.784404 
L 139.452965 -125.784404 
L 139.452965 -118.509045 
L 139.079078 -118.509045 
L 139.079078 -120.587719 
L 138.705191 -120.587719 
L 138.705191 -113.081397 
L 138.331304 -113.081397 
L 138.331304 -117.007781 
L 137.957417 -117.007781 
L 137.957417 -115.73748 
L 137.58353 -115.73748 
L 137.58353 -112.965915 
L 137.209644 -112.965915 
L 137.209644 -105.806039 
L 136.835757 -105.806039 
L 136.835757 -109.039531 
L 136.46187 -109.039531 
L 136.46187 -102.918992 
L 136.087983 -102.918992 
L 136.087983 -103.611883 
L 135.714096 -103.611883 
L 135.714096 -99.800981 
L 135.340209 -99.800981 
L 135.340209 -100.609354 
L 134.966322 -100.609354 
L 134.966322 -101.879655 
L 134.592436 -101.879655 
L 134.592436 -97.606826 
L 134.218549 -97.606826 
L 134.218549 -93.911406 
L 133.844662 -93.911406 
L 133.844662 -98.184235 
L 133.470775 -98.184235 
L 133.470775 -87.906348 
L 133.096888 -87.906348 
L 133.096888 -85.943156 
L 132.723001 -85.943156 
L 132.723001 -90.908877 
L 132.349114 -90.908877 
L 132.349114 -88.252794 
L 131.975227 -88.252794 
L 131.975227 -87.906348 
L 131.601341 -87.906348 
L 131.601341 -84.210928 
L 131.227454 -84.210928 
L 131.227454 -83.402555 
L 130.853567 -83.402555 
L 130.853567 -82.4787 
L 130.47968 -82.4787 
L 130.47968 -80.169062 
L 130.105793 -80.169062 
L 130.105793 -75.549787 
L 129.731906 -75.549787 
L 129.731906 -77.859425 
L 129.358019 -77.859425 
L 129.358019 -74.048523 
L 128.984133 -74.048523 
L 128.984133 -75.203342 
L 128.610246 -75.203342 
L 128.610246 -74.048523 
L 128.236359 -74.048523 
L 128.236359 -72.893704 
L 127.862472 -72.893704 
L 127.862472 -76.127197 
L 127.488585 -76.127197 
L 127.488585 -73.702077 
L 127.114698 -73.702077 
L 127.114698 -72.085331 
L 126.740811 -72.085331 
L 126.740811 -71.276958 
L 126.366924 -71.276958 
L 126.366924 -70.122139 
L 125.993038 -70.122139 
L 125.993038 -66.426719 
L 125.619151 -66.426719 
L 125.619151 -67.466056 
L 125.245264 -67.466056 
L 125.245264 -68.620875 
L 124.871377 -68.620875 
L 124.871377 -67.11961 
L 124.49749 -67.11961 
L 124.49749 -64.117082 
L 124.123603 -64.117082 
L 124.123603 -67.004128 
L 123.749716 -67.004128 
L 123.749716 -64.579009 
L 123.37583 -64.579009 
L 123.37583 -63.42419 
L 123.001943 -63.42419 
L 123.001943 -64.925455 
L 122.628056 -64.925455 
L 122.628056 -62.846781 
L 122.254169 -62.846781 
L 122.254169 -64.579009 
L 121.880282 -64.579009 
L 121.880282 -63.077745 
L 121.506395 -63.077745 
L 121.506395 -59.959734 
L 121.132508 -59.959734 
L 121.132508 -59.72877 
L 120.758621 -59.72877 
L 120.758621 -60.652625 
L 120.384735 -60.652625 
L 120.384735 -62.038408 
L 120.010848 -62.038408 
L 120.010848 -61.57648 
L 119.636961 -61.57648 
L 119.636961 -59.497807 
L 119.263074 -59.497807 
L 119.263074 -60.883589 
L 118.889187 -60.883589 
L 118.889187 -58.227506 
L 118.5153 -58.227506 
L 118.5153 -60.190698 
L 118.141413 -60.190698 
L 118.141413 -57.650096 
L 117.767527 -57.650096 
L 117.767527 -57.996542 
L 117.39364 -57.996542 
L 117.39364 -58.573951 
L 117.019753 -58.573951 
L 117.019753 -60.999071 
L 116.645866 -60.999071 
L 116.645866 -56.264314 
L 116.271979 -56.264314 
L 116.271979 -59.497807 
L 115.898092 -59.497807 
L 115.898092 -57.534615 
L 115.524205 -57.534615 
L 115.524205 -56.148832 
L 115.150318 -56.148832 
L 115.150318 -56.148832 
L 114.776432 -56.148832 
L 114.776432 -56.841723 
L 114.402545 -56.841723 
L 114.402545 -57.765578 
L 114.028658 -57.765578 
L 114.028658 -55.224977 
L 113.654771 -55.224977 
L 113.654771 -55.224977 
L 113.280884 -55.224977 
L 113.280884 -57.188169 
L 112.906997 -57.188169 
L 112.906997 -56.264314 
L 112.53311 -56.264314 
L 112.53311 -54.18564 
L 112.159224 -54.18564 
L 112.159224 -53.723713 
L 111.785337 -53.723713 
L 111.785337 -54.416604 
L 111.41145 -54.416604 
L 111.41145 -52.684376 
L 111.037563 -52.684376 
L 111.037563 -53.261785 
L 110.663676 -53.261785 
L 110.663676 -54.18564 
L 110.289789 -54.18564 
L 110.289789 -55.224977 
L 109.915902 -55.224977 
L 109.915902 -52.453412 
L 109.542015 -52.453412 
L 109.542015 -51.645039 
L 109.168129 -51.645039 
L 109.168129 -52.453412 
L 108.794242 -52.453412 
L 108.794242 -51.414075 
L 108.420355 -51.414075 
L 108.420355 -51.760521 
L 108.046468 -51.760521 
L 108.046468 -51.298593 
L 107.672581 -51.298593 
L 107.672581 -50.49022 
L 107.298694 -50.49022 
L 107.298694 -52.799858 
L 106.924807 -52.799858 
L 106.924807 -50.143775 
L 106.550921 -50.143775 
L 106.550921 -48.988956 
L 106.177034 -48.988956 
L 106.177034 -50.028293 
L 105.803147 -50.028293 
L 105.803147 -48.527028 
L 105.42926 -48.527028 
L 105.42926 -48.988956 
L 105.055373 -48.988956 
L 105.055373 -50.49022 
L 104.681486 -50.49022 
L 104.681486 -50.374738 
L 104.307599 -50.374738 
L 104.307599 -46.679318 
L 103.933712 -46.679318 
L 103.933712 -48.988956 
L 103.559826 -48.988956 
L 103.559826 -47.256728 
L 103.185939 -47.256728 
L 103.185939 -48.065101 
L 102.812052 -48.065101 
L 102.812052 -48.527028 
L 102.438165 -48.527028 
L 102.438165 -47.834137 
L 102.064278 -47.834137 
L 102.064278 -45.639981 
L 101.690391 -45.639981 
L 101.690391 -45.639981 
L 101.316504 -45.639981 
L 101.316504 -45.870945 
L 100.942618 -45.870945 
L 100.942618 -47.372209 
L 100.568731 -47.372209 
L 100.568731 -43.792271 
L 100.194844 -43.792271 
L 100.194844 -45.062572 
L 99.820957 -45.062572 
L 99.820957 -43.445826 
L 99.44707 -43.445826 
L 99.44707 -42.868416 
L 99.073183 -42.868416 
L 99.073183 -44.716126 
L 98.699296 -44.716126 
L 98.699296 -44.138717 
L 98.325409 -44.138717 
L 98.325409 -44.138717 
L 97.951523 -44.138717 
L 97.951523 -43.330344 
L 97.577636 -43.330344 
L 97.577636 -43.792271 
L 97.203749 -43.792271 
L 97.203749 -42.868416 
L 96.829862 -42.868416 
L 96.829862 -44.716126 
L 96.455975 -44.716126 
L 96.455975 -42.521971 
L 96.082088 -42.521971 
L 96.082088 -41.944561 
L 95.708201 -41.944561 
L 95.708201 -41.829079 
L 95.334315 -41.829079 
L 95.334315 -42.175525 
L 94.960428 -42.175525 
L 94.960428 -41.482634 
L 94.586541 -41.482634 
L 94.586541 -42.406489 
L 94.212654 -42.406489 
L 94.212654 -41.944561 
L 93.838767 -41.944561 
L 93.838767 -40.443297 
L 93.46488 -40.443297 
L 93.46488 -40.789743 
L 93.090993 -40.789743 
L 93.090993 -41.713598 
L 92.717106 -41.713598 
L 92.717106 -40.327815 
L 92.34322 -40.327815 
L 92.34322 -40.327815 
L 91.969333 -40.327815 
L 91.969333 -40.443297 
L 91.595446 -40.443297 
L 91.595446 -40.674261 
L 91.221559 -40.674261 
L 91.221559 -39.057514 
L 90.847672 -39.057514 
L 90.847672 -39.057514 
L 90.473785 -39.057514 
L 90.473785 -40.096851 
L 90.099898 -40.096851 
L 90.099898 -39.288478 
L 89.726012 -39.288478 
L 89.726012 -39.865888 
L 89.352125 -39.865888 
L 89.352125 -39.057514 
L 88.978238 -39.057514 
L 88.978238 -39.057514 
L 88.604351 -39.057514 
L 88.604351 -38.942033 
L 88.230464 -38.942033 
L 88.230464 -38.595587 
L 87.856577 -38.595587 
L 87.856577 -38.942033 
L 87.48269 -38.942033 
L 87.48269 -38.711069 
L 87.108803 -38.711069 
L 87.108803 -38.480105 
L 86.734917 -38.480105 
L 86.734917 -38.826551 
L 86.36103 -38.826551 
L 86.36103 -38.595587 
L 85.987143 -38.595587 
L 85.987143 -38.595587 
L 85.613256 -38.595587 
L 85.613256 -38.249141 
L 85.239369 -38.249141 
L 85.239369 -38.480105 
L 84.865482 -38.480105 
L 84.865482 -38.133659 
L 84.491595 -38.133659 
L 84.491595 -38.364623 
L 84.117709 -38.364623 
L 84.117709 -38.133659 
L 83.743822 -38.133659 
L 83.743822 -38.364623 
L 83.369935 -38.364623 
L 83.369935 -38.249141 
L 82.996048 -38.249141 
L 82.996048 -38.018178 
L 82.622161 -38.018178 
L 82.622161 -37.902696 
L 82.248274 -37.902696 
L 82.248274 -37.902696 
L 81.874387 -37.902696 
L 81.874387 -37.902696 
L 81.5005 -37.902696 
L 81.5005 -38.018178 
L 81.126614 -38.018178 
L 81.126614 -37.902696 
L 80.752727 -37.902696 
L 80.752727 -38.133659 
L 80.37884 -38.133659 
L 80.37884 -37.671732 
L 80.004953 -37.671732 
L 80.004953 -37.902696 
L 79.631066 -37.902696 
L 79.631066 -37.787214 
L 79.257179 -37.787214 
L 79.257179 -37.787214 
L 78.883292 -37.787214 
L 78.883292 -37.902696 
L 78.509405 -37.902696 
L 78.509405 -37.55625 
L 78.135519 -37.55625 
L 78.135519 -37.787214 
L 77.761632 -37.787214 
L 77.761632 -37.787214 
L 77.387745 -37.787214 
L 77.387745 -37.55625 
L 77.013858 -37.55625 
L 77.013858 -37.787214 
L 76.639971 -37.787214 
L 76.639971 -37.671732 
L 76.266084 -37.671732 
L 76.266084 -37.55625 
L 75.892197 -37.55625 
L 75.892197 -37.671732 
L 75.518311 -37.671732 
L 75.518311 -37.55625 
L 75.144424 -37.55625 
L 75.144424 -37.55625 
L 74.770537 -37.55625 
L 74.770537 -37.55625 
L 74.39665 -37.55625 
L 74.39665 -37.55625 
L 74.022763 -37.55625 
L 74.022763 -37.787214 
L 73.648876 -37.787214 
L 73.648876 -37.55625 
L 73.274989 -37.55625 
L 73.274989 -37.55625 
L 72.901102 -37.55625 
L 72.901102 -37.55625 
L 72.527216 -37.55625 
L 72.527216 -37.671732 
L 72.153329 -37.671732 
L 72.153329 -37.55625 
L 71.779442 -37.55625 
L 71.779442 -37.55625 
L 71.405555 -37.55625 
L 71.405555 -37.55625 
L 71.031668 -37.55625 
L 71.031668 -37.671732 
L 70.657781 -37.671732 
L 70.657781 -37.902696 
L 70.283894 -37.902696 
L 70.283894 -37.55625 
L 69.910008 -37.55625 
L 69.910008 -37.55625 
L 69.536121 -37.55625 
L 69.536121 -37.55625 
L 69.162234 -37.55625 
L 69.162234 -37.671732 
L 68.788347 -37.671732 
L 68.788347 -37.55625 
L 68.41446 -37.55625 
L 68.41446 -37.55625 
L 68.040573 -37.55625 
L 68.040573 -37.55625 
L 67.666686 -37.55625 
L 67.666686 -37.55625 
L 67.292799 -37.55625 
L 67.292799 -37.55625 
L 66.918913 -37.55625 
L 66.918913 -37.671732 
L 66.545026 -37.671732 
z
" id="m837ae8c55a" style="stroke:#1f77b4;"/>
    </defs>
    <g clip-path="url(#pe18f89f5a8)">
     <use style="fill:#1f77b4;fill-opacity:0.75;stroke:#1f77b4;" x="0" xlink:href="#m837ae8c55a" y="337.26016"/>
    </g>
   </g>
   <g id="patch_3">
    <path d="M 53.328125 299.70391 
L 53.328125 8.932093 
" style="fill:none;stroke:#262626;stroke-linecap:square;stroke-linejoin:miter;stroke-width:0.8;"/>
   </g>
   <g id="patch_4">
    <path d="M 53.328125 299.70391 
L 344.099942 299.70391 
" style="fill:none;stroke:#262626;stroke-linecap:square;stroke-linejoin:miter;stroke-width:0.8;"/>
   </g>
  </g>
 </g>
 <defs>
  <clipPath id="pe18f89f5a8">
   <rect height="290.771817" width="290.771817" x="53.328125" y="8.932093"/>
  </clipPath>
 </defs>
</svg>
