<?xml version="1.0" encoding="utf-8" standalone="no"?>
<!DOCTYPE svg PUBLIC "-//W3C//DTD SVG 1.1//EN"
  "http://www.w3.org/Graphics/SVG/1.1/DTD/svg11.dtd">
<!-- Created with matplotlib (https://matplotlib.org/) -->
<svg height="339.235312pt" version="1.1" viewBox="0 0 358.241961 339.235312" width="358.241961pt" xmlns="http://www.w3.org/2000/svg" xmlns:xlink="http://www.w3.org/1999/xlink">
 <metadata>
  <rdf:RDF xmlns:cc="http://creativecommons.org/ns#" xmlns:dc="http://purl.org/dc/elements/1.1/" xmlns:rdf="http://www.w3.org/1999/02/22-rdf-syntax-ns#">
   <cc:Work>
    <dc:type rdf:resource="http://purl.org/dc/dcmitype/StillImage"/>
    <dc:date>2023-01-29T19:47:15.084954</dc:date>
    <dc:format>image/svg+xml</dc:format>
    <dc:creator>
     <cc:Agent>
      <dc:title>Matplotlib v3.3.4, https://matplotlib.org/</dc:title>
     </cc:Agent>
    </dc:creator>
   </cc:Work>
  </rdf:RDF>
 </metadata>
 <defs>
  <style type="text/css">*{stroke-linecap:butt;stroke-linejoin:round;}</style>
 </defs>
 <g id="figure_1">
  <g id="patch_1">
   <path d="M 0 339.235312 
L 358.241961 339.235312 
L 358.241961 0 
L 0 0 
z
" style="fill:#ffffff;"/>
  </g>
  <g id="axes_1">
   <g id="patch_2">
    <path d="M 55.15 302.6275 
L 350.5775 302.6275 
L 350.5775 7.2 
L 55.15 7.2 
z
" style="fill:#ffffff;"/>
   </g>
   <g id="matplotlib.axis_1">
    <g id="xtick_1">
     <g id="line2d_1">
      <defs>
       <path d="M 0 0 
L 0 3.5 
" id="mfc749f741a" style="stroke:#262626;stroke-width:0.8;"/>
      </defs>
      <g>
       <use style="fill:#262626;stroke:#262626;stroke-width:0.8;" x="76.134517" xlink:href="#mfc749f741a" y="302.6275"/>
      </g>
     </g>
     <g id="text_1">
      <text style="fill:#262626;font-family:Arial;font-size:10px;font-stretch:normal;font-style:normal;font-weight:normal;text-anchor:middle;" transform="rotate(-0, 76.134517, 316.785312)" x="76.134517" y="316.785312">−7.5</text>
     </g>
    </g>
    <g id="xtick_2">
     <g id="line2d_2">
      <g>
       <use style="fill:#262626;stroke:#262626;stroke-width:0.8;" x="109.281639" xlink:href="#mfc749f741a" y="302.6275"/>
      </g>
     </g>
     <g id="text_2">
      <text style="fill:#262626;font-family:Arial;font-size:10px;font-stretch:normal;font-style:normal;font-weight:normal;text-anchor:middle;" transform="rotate(-0, 109.281639, 316.785312)" x="109.281639" y="316.785312">−5.0</text>
     </g>
    </g>
    <g id="xtick_3">
     <g id="line2d_3">
      <g>
       <use style="fill:#262626;stroke:#262626;stroke-width:0.8;" x="142.428761" xlink:href="#mfc749f741a" y="302.6275"/>
      </g>
     </g>
     <g id="text_3">
      <text style="fill:#262626;font-family:Arial;font-size:10px;font-stretch:normal;font-style:normal;font-weight:normal;text-anchor:middle;" transform="rotate(-0, 142.428761, 316.785312)" x="142.428761" y="316.785312">−2.5</text>
     </g>
    </g>
    <g id="xtick_4">
     <g id="line2d_4">
      <g>
       <use style="fill:#262626;stroke:#262626;stroke-width:0.8;" x="175.575883" xlink:href="#mfc749f741a" y="302.6275"/>
      </g>
     </g>
     <g id="text_4">
      <text style="fill:#262626;font-family:Arial;font-size:10px;font-stretch:normal;font-style:normal;font-weight:normal;text-anchor:middle;" transform="rotate(-0, 175.575883, 316.785312)" x="175.575883" y="316.785312">0.0</text>
     </g>
    </g>
    <g id="xtick_5">
     <g id="line2d_5">
      <g>
       <use style="fill:#262626;stroke:#262626;stroke-width:0.8;" x="208.723004" xlink:href="#mfc749f741a" y="302.6275"/>
      </g>
     </g>
     <g id="text_5">
      <text style="fill:#262626;font-family:Arial;font-size:10px;font-stretch:normal;font-style:normal;font-weight:normal;text-anchor:middle;" transform="rotate(-0, 208.723004, 316.785312)" x="208.723004" y="316.785312">2.5</text>
     </g>
    </g>
    <g id="xtick_6">
     <g id="line2d_6">
      <g>
       <use style="fill:#262626;stroke:#262626;stroke-width:0.8;" x="241.870126" xlink:href="#mfc749f741a" y="302.6275"/>
      </g>
     </g>
     <g id="text_6">
      <text style="fill:#262626;font-family:Arial;font-size:10px;font-stretch:normal;font-style:normal;font-weight:normal;text-anchor:middle;" transform="rotate(-0, 241.870126, 316.785312)" x="241.870126" y="316.785312">5.0</text>
     </g>
    </g>
    <g id="xtick_7">
     <g id="line2d_7">
      <g>
       <use style="fill:#262626;stroke:#262626;stroke-width:0.8;" x="275.017248" xlink:href="#mfc749f741a" y="302.6275"/>
      </g>
     </g>
     <g id="text_7">
      <text style="fill:#262626;font-family:Arial;font-size:10px;font-stretch:normal;font-style:normal;font-weight:normal;text-anchor:middle;" transform="rotate(-0, 275.017248, 316.785312)" x="275.017248" y="316.785312">7.5</text>
     </g>
    </g>
    <g id="xtick_8">
     <g id="line2d_8">
      <g>
       <use style="fill:#262626;stroke:#262626;stroke-width:0.8;" x="308.16437" xlink:href="#mfc749f741a" y="302.6275"/>
      </g>
     </g>
     <g id="text_8">
      <text style="fill:#262626;font-family:Arial;font-size:10px;font-stretch:normal;font-style:normal;font-weight:normal;text-anchor:middle;" transform="rotate(-0, 308.16437, 316.785312)" x="308.16437" y="316.785312">10.0</text>
     </g>
    </g>
    <g id="xtick_9">
     <g id="line2d_9">
      <g>
       <use style="fill:#262626;stroke:#262626;stroke-width:0.8;" x="341.311492" xlink:href="#mfc749f741a" y="302.6275"/>
      </g>
     </g>
     <g id="text_9">
      <text style="fill:#262626;font-family:Arial;font-size:10px;font-stretch:normal;font-style:normal;font-weight:normal;text-anchor:middle;" transform="rotate(-0, 341.311492, 316.785312)" x="341.311492" y="316.785312">12.5</text>
     </g>
    </g>
    <g id="text_10">
     <text style="fill:#262626;font-family:Arial;font-size:10px;font-stretch:normal;font-style:normal;font-weight:normal;text-anchor:middle;" transform="rotate(-0, 202.86375, 329.930625)" x="202.86375" y="329.930625">standardized shortest path length</text>
    </g>
   </g>
   <g id="matplotlib.axis_2">
    <g id="ytick_1">
     <g id="line2d_10">
      <defs>
       <path d="M 0 0 
L -3.5 0 
" id="m46592e67c0" style="stroke:#262626;stroke-width:0.8;"/>
      </defs>
      <g>
       <use style="fill:#262626;stroke:#262626;stroke-width:0.8;" x="55.15" xlink:href="#m46592e67c0" y="302.6275"/>
      </g>
     </g>
     <g id="text_11">
      <text style="fill:#262626;font-family:Arial;font-size:10px;font-stretch:normal;font-style:normal;font-weight:normal;text-anchor:end;" transform="rotate(-0, 48.15, 306.206406)" x="48.15" y="306.206406">0</text>
     </g>
    </g>
    <g id="ytick_2">
     <g id="line2d_11">
      <g>
       <use style="fill:#262626;stroke:#262626;stroke-width:0.8;" x="55.15" xlink:href="#m46592e67c0" y="261.030882"/>
      </g>
     </g>
     <g id="text_12">
      <text style="fill:#262626;font-family:Arial;font-size:10px;font-stretch:normal;font-style:normal;font-weight:normal;text-anchor:end;" transform="rotate(-0, 48.15, 264.609788)" x="48.15" y="264.609788">2000</text>
     </g>
    </g>
    <g id="ytick_3">
     <g id="line2d_12">
      <g>
       <use style="fill:#262626;stroke:#262626;stroke-width:0.8;" x="55.15" xlink:href="#m46592e67c0" y="219.434264"/>
      </g>
     </g>
     <g id="text_13">
      <text style="fill:#262626;font-family:Arial;font-size:10px;font-stretch:normal;font-style:normal;font-weight:normal;text-anchor:end;" transform="rotate(-0, 48.15, 223.01317)" x="48.15" y="223.01317">4000</text>
     </g>
    </g>
    <g id="ytick_4">
     <g id="line2d_13">
      <g>
       <use style="fill:#262626;stroke:#262626;stroke-width:0.8;" x="55.15" xlink:href="#m46592e67c0" y="177.837646"/>
      </g>
     </g>
     <g id="text_14">
      <text style="fill:#262626;font-family:Arial;font-size:10px;font-stretch:normal;font-style:normal;font-weight:normal;text-anchor:end;" transform="rotate(-0, 48.15, 181.416552)" x="48.15" y="181.416552">6000</text>
     </g>
    </g>
    <g id="ytick_5">
     <g id="line2d_14">
      <g>
       <use style="fill:#262626;stroke:#262626;stroke-width:0.8;" x="55.15" xlink:href="#m46592e67c0" y="136.241028"/>
      </g>
     </g>
     <g id="text_15">
      <text style="fill:#262626;font-family:Arial;font-size:10px;font-stretch:normal;font-style:normal;font-weight:normal;text-anchor:end;" transform="rotate(-0, 48.15, 139.819934)" x="48.15" y="139.819934">8000</text>
     </g>
    </g>
    <g id="ytick_6">
     <g id="line2d_15">
      <g>
       <use style="fill:#262626;stroke:#262626;stroke-width:0.8;" x="55.15" xlink:href="#m46592e67c0" y="94.64441"/>
      </g>
     </g>
     <g id="text_16">
      <text style="fill:#262626;font-family:Arial;font-size:10px;font-stretch:normal;font-style:normal;font-weight:normal;text-anchor:end;" transform="rotate(-0, 48.15, 98.223317)" x="48.15" y="98.223317">10000</text>
     </g>
    </g>
    <g id="ytick_7">
     <g id="line2d_16">
      <g>
       <use style="fill:#262626;stroke:#262626;stroke-width:0.8;" x="55.15" xlink:href="#m46592e67c0" y="53.047792"/>
      </g>
     </g>
     <g id="text_17">
      <text style="fill:#262626;font-family:Arial;font-size:10px;font-stretch:normal;font-style:normal;font-weight:normal;text-anchor:end;" transform="rotate(-0, 48.15, 56.626699)" x="48.15" y="56.626699">12000</text>
     </g>
    </g>
    <g id="ytick_8">
     <g id="line2d_17">
      <g>
       <use style="fill:#262626;stroke:#262626;stroke-width:0.8;" x="55.15" xlink:href="#m46592e67c0" y="11.451174"/>
      </g>
     </g>
     <g id="text_18">
      <text style="fill:#262626;font-family:Arial;font-size:10px;font-stretch:normal;font-style:normal;font-weight:normal;text-anchor:end;" transform="rotate(-0, 48.15, 15.030081)" x="48.15" y="15.030081">14000</text>
     </g>
    </g>
    <g id="text_19">
     <text style="fill:#262626;font-family:Arial;font-size:10px;font-stretch:normal;font-style:normal;font-weight:normal;text-anchor:middle;" transform="rotate(-90, 14.357813, 154.91375)" x="14.357813" y="154.91375">Count</text>
    </g>
   </g>
   <g id="PolyCollection_1">
    <defs>
     <path d="M 68.578523 -36.628611 
L 68.578523 -36.607813 
L 68.958396 -36.607813 
L 68.958396 -36.607813 
L 69.338269 -36.607813 
L 69.338269 -36.607813 
L 69.718143 -36.607813 
L 69.718143 -36.607813 
L 70.098016 -36.607813 
L 70.098016 -36.607813 
L 70.477889 -36.607813 
L 70.477889 -36.607813 
L 70.857763 -36.607813 
L 70.857763 -36.607813 
L 71.237636 -36.607813 
L 71.237636 -36.607813 
L 71.617509 -36.607813 
L 71.617509 -36.607813 
L 71.997383 -36.607813 
L 71.997383 -36.607813 
L 72.377256 -36.607813 
L 72.377256 -36.607813 
L 72.75713 -36.607813 
L 72.75713 -36.607813 
L 73.137003 -36.607813 
L 73.137003 -36.607813 
L 73.516876 -36.607813 
L 73.516876 -36.607813 
L 73.89675 -36.607813 
L 73.89675 -36.607813 
L 74.276623 -36.607813 
L 74.276623 -36.607813 
L 74.656496 -36.607813 
L 74.656496 -36.607813 
L 75.03637 -36.607813 
L 75.03637 -36.607813 
L 75.416243 -36.607813 
L 75.416243 -36.607813 
L 75.796116 -36.607813 
L 75.796116 -36.607813 
L 76.17599 -36.607813 
L 76.17599 -36.607813 
L 76.555863 -36.607813 
L 76.555863 -36.607813 
L 76.935736 -36.607813 
L 76.935736 -36.607813 
L 77.31561 -36.607813 
L 77.31561 -36.607813 
L 77.695483 -36.607813 
L 77.695483 -36.607813 
L 78.075356 -36.607813 
L 78.075356 -36.607813 
L 78.45523 -36.607813 
L 78.45523 -36.607813 
L 78.835103 -36.607813 
L 78.835103 -36.607813 
L 79.214976 -36.607813 
L 79.214976 -36.607813 
L 79.59485 -36.607813 
L 79.59485 -36.607813 
L 79.974723 -36.607813 
L 79.974723 -36.607813 
L 80.354596 -36.607813 
L 80.354596 -36.607813 
L 80.73447 -36.607813 
L 80.73447 -36.607813 
L 81.114343 -36.607813 
L 81.114343 -36.607813 
L 81.494216 -36.607813 
L 81.494216 -36.607813 
L 81.87409 -36.607813 
L 81.87409 -36.607813 
L 82.253963 -36.607813 
L 82.253963 -36.607813 
L 82.633836 -36.607813 
L 82.633836 -36.607813 
L 83.01371 -36.607813 
L 83.01371 -36.607813 
L 83.393583 -36.607813 
L 83.393583 -36.607813 
L 83.773457 -36.607813 
L 83.773457 -36.607813 
L 84.15333 -36.607813 
L 84.15333 -36.607813 
L 84.533203 -36.607813 
L 84.533203 -36.607813 
L 84.913077 -36.607813 
L 84.913077 -36.607813 
L 85.29295 -36.607813 
L 85.29295 -36.607813 
L 85.672823 -36.607813 
L 85.672823 -36.607813 
L 86.052697 -36.607813 
L 86.052697 -36.607813 
L 86.43257 -36.607813 
L 86.43257 -36.607813 
L 86.812443 -36.607813 
L 86.812443 -36.607813 
L 87.192317 -36.607813 
L 87.192317 -36.607813 
L 87.57219 -36.607813 
L 87.57219 -36.607813 
L 87.952063 -36.607813 
L 87.952063 -36.607813 
L 88.331937 -36.607813 
L 88.331937 -36.607813 
L 88.71181 -36.607813 
L 88.71181 -36.607813 
L 89.091683 -36.607813 
L 89.091683 -36.607813 
L 89.471557 -36.607813 
L 89.471557 -36.607813 
L 89.85143 -36.607813 
L 89.85143 -36.607813 
L 90.231303 -36.607813 
L 90.231303 -36.607813 
L 90.611177 -36.607813 
L 90.611177 -36.607813 
L 90.99105 -36.607813 
L 90.99105 -36.607813 
L 91.370923 -36.607813 
L 91.370923 -36.607813 
L 91.750797 -36.607813 
L 91.750797 -36.607813 
L 92.13067 -36.607813 
L 92.13067 -36.607813 
L 92.510543 -36.607813 
L 92.510543 -36.607813 
L 92.890417 -36.607813 
L 92.890417 -36.607813 
L 93.27029 -36.607813 
L 93.27029 -36.607813 
L 93.650163 -36.607813 
L 93.650163 -36.607813 
L 94.030037 -36.607813 
L 94.030037 -36.607813 
L 94.40991 -36.607813 
L 94.40991 -36.607813 
L 94.789783 -36.607813 
L 94.789783 -36.607813 
L 95.169657 -36.607813 
L 95.169657 -36.607813 
L 95.54953 -36.607813 
L 95.54953 -36.607813 
L 95.929404 -36.607813 
L 95.929404 -36.607813 
L 96.309277 -36.607813 
L 96.309277 -36.607813 
L 96.68915 -36.607813 
L 96.68915 -36.607813 
L 97.069024 -36.607813 
L 97.069024 -36.607813 
L 97.448897 -36.607813 
L 97.448897 -36.607813 
L 97.82877 -36.607813 
L 97.82877 -36.607813 
L 98.208644 -36.607813 
L 98.208644 -36.607813 
L 98.588517 -36.607813 
L 98.588517 -36.607813 
L 98.96839 -36.607813 
L 98.96839 -36.607813 
L 99.348264 -36.607813 
L 99.348264 -36.607813 
L 99.728137 -36.607813 
L 99.728137 -36.607813 
L 100.10801 -36.607813 
L 100.10801 -36.607813 
L 100.487884 -36.607813 
L 100.487884 -36.607813 
L 100.867757 -36.607813 
L 100.867757 -36.607813 
L 101.24763 -36.607813 
L 101.24763 -36.607813 
L 101.627504 -36.607813 
L 101.627504 -36.607813 
L 102.007377 -36.607813 
L 102.007377 -36.607813 
L 102.38725 -36.607813 
L 102.38725 -36.607813 
L 102.767124 -36.607813 
L 102.767124 -36.607813 
L 103.146997 -36.607813 
L 103.146997 -36.607813 
L 103.52687 -36.607813 
L 103.52687 -36.607813 
L 103.906744 -36.607813 
L 103.906744 -36.607813 
L 104.286617 -36.607813 
L 104.286617 -36.607813 
L 104.66649 -36.607813 
L 104.66649 -36.607813 
L 105.046364 -36.607813 
L 105.046364 -36.607813 
L 105.426237 -36.607813 
L 105.426237 -36.607813 
L 105.80611 -36.607813 
L 105.80611 -36.607813 
L 106.185984 -36.607813 
L 106.185984 -36.607813 
L 106.565857 -36.607813 
L 106.565857 -36.607813 
L 106.945731 -36.607813 
L 106.945731 -36.607813 
L 107.325604 -36.607813 
L 107.325604 -36.607813 
L 107.705477 -36.607813 
L 107.705477 -36.607813 
L 108.085351 -36.607813 
L 108.085351 -36.607813 
L 108.465224 -36.607813 
L 108.465224 -36.607813 
L 108.845097 -36.607813 
L 108.845097 -36.607813 
L 109.224971 -36.607813 
L 109.224971 -36.607813 
L 109.604844 -36.607813 
L 109.604844 -36.607813 
L 109.984717 -36.607813 
L 109.984717 -36.607813 
L 110.364591 -36.607813 
L 110.364591 -36.607813 
L 110.744464 -36.607813 
L 110.744464 -36.607813 
L 111.124337 -36.607813 
L 111.124337 -36.607813 
L 111.504211 -36.607813 
L 111.504211 -36.607813 
L 111.884084 -36.607813 
L 111.884084 -36.607813 
L 112.263957 -36.607813 
L 112.263957 -36.607813 
L 112.643831 -36.607813 
L 112.643831 -36.607813 
L 113.023704 -36.607813 
L 113.023704 -36.607813 
L 113.403577 -36.607813 
L 113.403577 -36.607813 
L 113.783451 -36.607813 
L 113.783451 -36.607813 
L 114.163324 -36.607813 
L 114.163324 -36.607813 
L 114.543197 -36.607813 
L 114.543197 -36.607813 
L 114.923071 -36.607813 
L 114.923071 -36.607813 
L 115.302944 -36.607813 
L 115.302944 -36.607813 
L 115.682817 -36.607813 
L 115.682817 -36.607813 
L 116.062691 -36.607813 
L 116.062691 -36.607813 
L 116.442564 -36.607813 
L 116.442564 -36.607813 
L 116.822437 -36.607813 
L 116.822437 -36.607813 
L 117.202311 -36.607813 
L 117.202311 -36.607813 
L 117.582184 -36.607813 
L 117.582184 -36.607813 
L 117.962058 -36.607813 
L 117.962058 -36.607813 
L 118.341931 -36.607813 
L 118.341931 -36.607813 
L 118.721804 -36.607813 
L 118.721804 -36.607813 
L 119.101678 -36.607813 
L 119.101678 -36.607813 
L 119.481551 -36.607813 
L 119.481551 -36.607813 
L 119.861424 -36.607813 
L 119.861424 -36.607813 
L 120.241298 -36.607813 
L 120.241298 -36.607813 
L 120.621171 -36.607813 
L 120.621171 -36.607813 
L 121.001044 -36.607813 
L 121.001044 -36.607813 
L 121.380918 -36.607813 
L 121.380918 -36.607813 
L 121.760791 -36.607813 
L 121.760791 -36.607813 
L 122.140664 -36.607813 
L 122.140664 -36.607813 
L 122.520538 -36.607813 
L 122.520538 -36.607813 
L 122.900411 -36.607813 
L 122.900411 -36.607813 
L 123.280284 -36.607813 
L 123.280284 -36.607813 
L 123.660158 -36.607813 
L 123.660158 -36.607813 
L 124.040031 -36.607813 
L 124.040031 -36.607813 
L 124.419904 -36.607813 
L 124.419904 -36.607813 
L 124.799778 -36.607813 
L 124.799778 -36.607813 
L 125.179651 -36.607813 
L 125.179651 -36.607813 
L 125.559524 -36.607813 
L 125.559524 -36.607813 
L 125.939398 -36.607813 
L 125.939398 -36.607813 
L 126.319271 -36.607813 
L 126.319271 -36.607813 
L 126.699144 -36.607813 
L 126.699144 -36.607813 
L 127.079018 -36.607813 
L 127.079018 -36.607813 
L 127.458891 -36.607813 
L 127.458891 -36.607813 
L 127.838764 -36.607813 
L 127.838764 -36.607813 
L 128.218638 -36.607813 
L 128.218638 -36.607813 
L 128.598511 -36.607813 
L 128.598511 -36.607813 
L 128.978384 -36.607813 
L 128.978384 -36.607813 
L 129.358258 -36.607813 
L 129.358258 -36.607813 
L 129.738131 -36.607813 
L 129.738131 -36.607813 
L 130.118005 -36.607813 
L 130.118005 -36.607813 
L 130.497878 -36.607813 
L 130.497878 -36.607813 
L 130.877751 -36.607813 
L 130.877751 -36.607813 
L 131.257625 -36.607813 
L 131.257625 -36.607813 
L 131.637498 -36.607813 
L 131.637498 -36.607813 
L 132.017371 -36.607813 
L 132.017371 -36.607813 
L 132.397245 -36.607813 
L 132.397245 -36.607813 
L 132.777118 -36.607813 
L 132.777118 -36.607813 
L 133.156991 -36.607813 
L 133.156991 -36.607813 
L 133.536865 -36.607813 
L 133.536865 -36.607813 
L 133.916738 -36.607813 
L 133.916738 -36.607813 
L 134.296611 -36.607813 
L 134.296611 -36.607813 
L 134.676485 -36.607813 
L 134.676485 -36.607813 
L 135.056358 -36.607813 
L 135.056358 -36.607813 
L 135.436231 -36.607813 
L 135.436231 -36.607813 
L 135.816105 -36.607813 
L 135.816105 -36.607813 
L 136.195978 -36.607813 
L 136.195978 -36.607813 
L 136.575851 -36.607813 
L 136.575851 -36.607813 
L 136.955725 -36.607813 
L 136.955725 -36.607813 
L 137.335598 -36.607813 
L 137.335598 -36.607813 
L 137.715471 -36.607813 
L 137.715471 -36.607813 
L 138.095345 -36.607813 
L 138.095345 -36.607813 
L 138.475218 -36.607813 
L 138.475218 -36.607813 
L 138.855091 -36.607813 
L 138.855091 -36.607813 
L 139.234965 -36.607813 
L 139.234965 -36.607813 
L 139.614838 -36.607813 
L 139.614838 -36.607813 
L 139.994711 -36.607813 
L 139.994711 -36.607813 
L 140.374585 -36.607813 
L 140.374585 -36.607813 
L 140.754458 -36.607813 
L 140.754458 -36.607813 
L 141.134332 -36.607813 
L 141.134332 -36.607813 
L 141.514205 -36.607813 
L 141.514205 -36.607813 
L 141.894078 -36.607813 
L 141.894078 -36.607813 
L 142.273952 -36.607813 
L 142.273952 -36.607813 
L 142.653825 -36.607813 
L 142.653825 -36.607813 
L 143.033698 -36.607813 
L 143.033698 -36.607813 
L 143.413572 -36.607813 
L 143.413572 -36.607813 
L 143.793445 -36.607813 
L 143.793445 -36.607813 
L 144.173318 -36.607813 
L 144.173318 -36.607813 
L 144.553192 -36.607813 
L 144.553192 -36.607813 
L 144.933065 -36.607813 
L 144.933065 -36.607813 
L 145.312938 -36.607813 
L 145.312938 -36.607813 
L 145.692812 -36.607813 
L 145.692812 -36.607813 
L 146.072685 -36.607813 
L 146.072685 -36.607813 
L 146.452558 -36.607813 
L 146.452558 -36.607813 
L 146.832432 -36.607813 
L 146.832432 -36.607813 
L 147.212305 -36.607813 
L 147.212305 -36.607813 
L 147.592178 -36.607813 
L 147.592178 -36.607813 
L 147.972052 -36.607813 
L 147.972052 -36.607813 
L 148.351925 -36.607813 
L 148.351925 -36.607813 
L 148.731798 -36.607813 
L 148.731798 -36.607813 
L 149.111672 -36.607813 
L 149.111672 -36.607813 
L 149.491545 -36.607813 
L 149.491545 -36.607813 
L 149.871418 -36.607813 
L 149.871418 -36.607813 
L 150.251292 -36.607813 
L 150.251292 -36.607813 
L 150.631165 -36.607813 
L 150.631165 -36.607813 
L 151.011038 -36.607813 
L 151.011038 -36.607813 
L 151.390912 -36.607813 
L 151.390912 -36.607813 
L 151.770785 -36.607813 
L 151.770785 -36.607813 
L 152.150659 -36.607813 
L 152.150659 -36.607813 
L 152.530532 -36.607813 
L 152.530532 -36.607813 
L 152.910405 -36.607813 
L 152.910405 -36.607813 
L 153.290279 -36.607813 
L 153.290279 -36.607813 
L 153.670152 -36.607813 
L 153.670152 -36.607813 
L 154.050025 -36.607813 
L 154.050025 -36.607813 
L 154.429899 -36.607813 
L 154.429899 -36.607813 
L 154.809772 -36.607813 
L 154.809772 -36.607813 
L 155.189645 -36.607813 
L 155.189645 -36.607813 
L 155.569519 -36.607813 
L 155.569519 -36.607813 
L 155.949392 -36.607813 
L 155.949392 -36.607813 
L 156.329265 -36.607813 
L 156.329265 -36.607813 
L 156.709139 -36.607813 
L 156.709139 -36.607813 
L 157.089012 -36.607813 
L 157.089012 -36.607813 
L 157.468885 -36.607813 
L 157.468885 -36.607813 
L 157.848759 -36.607813 
L 157.848759 -36.607813 
L 158.228632 -36.607813 
L 158.228632 -36.607813 
L 158.608505 -36.607813 
L 158.608505 -36.607813 
L 158.988379 -36.607813 
L 158.988379 -36.607813 
L 159.368252 -36.607813 
L 159.368252 -36.607813 
L 159.748125 -36.607813 
L 159.748125 -36.607813 
L 160.127999 -36.607813 
L 160.127999 -36.607813 
L 160.507872 -36.607813 
L 160.507872 -36.607813 
L 160.887745 -36.607813 
L 160.887745 -36.607813 
L 161.267619 -36.607813 
L 161.267619 -36.607813 
L 161.647492 -36.607813 
L 161.647492 -36.607813 
L 162.027365 -36.607813 
L 162.027365 -36.607813 
L 162.407239 -36.607813 
L 162.407239 -36.607813 
L 162.787112 -36.607813 
L 162.787112 -36.607813 
L 163.166986 -36.607813 
L 163.166986 -36.607813 
L 163.546859 -36.607813 
L 163.546859 -36.607813 
L 163.926732 -36.607813 
L 163.926732 -36.607813 
L 164.306606 -36.607813 
L 164.306606 -36.607813 
L 164.686479 -36.607813 
L 164.686479 -36.607813 
L 165.066352 -36.607813 
L 165.066352 -36.607813 
L 165.446226 -36.607813 
L 165.446226 -36.607813 
L 165.826099 -36.607813 
L 165.826099 -36.607813 
L 166.205972 -36.607813 
L 166.205972 -36.607813 
L 166.585846 -36.607813 
L 166.585846 -36.607813 
L 166.965719 -36.607813 
L 166.965719 -36.607813 
L 167.345592 -36.607813 
L 167.345592 -36.607813 
L 167.725466 -36.607813 
L 167.725466 -36.607813 
L 168.105339 -36.607813 
L 168.105339 -36.607813 
L 168.485212 -36.607813 
L 168.485212 -36.607813 
L 168.865086 -36.607813 
L 168.865086 -36.607813 
L 169.244959 -36.607813 
L 169.244959 -36.607813 
L 169.624832 -36.607813 
L 169.624832 -36.607813 
L 170.004706 -36.607813 
L 170.004706 -36.607813 
L 170.384579 -36.607813 
L 170.384579 -36.607813 
L 170.764452 -36.607813 
L 170.764452 -36.607813 
L 171.144326 -36.607813 
L 171.144326 -36.607813 
L 171.524199 -36.607813 
L 171.524199 -36.607813 
L 171.904072 -36.607813 
L 171.904072 -36.607813 
L 172.283946 -36.607813 
L 172.283946 -36.607813 
L 172.663819 -36.607813 
L 172.663819 -36.607813 
L 173.043692 -36.607813 
L 173.043692 -36.607813 
L 173.423566 -36.607813 
L 173.423566 -36.607813 
L 173.803439 -36.607813 
L 173.803439 -36.607813 
L 174.183312 -36.607813 
L 174.183312 -36.607813 
L 174.563186 -36.607813 
L 174.563186 -36.607813 
L 174.943059 -36.607813 
L 174.943059 -36.607813 
L 175.322933 -36.607813 
L 175.322933 -36.607813 
L 175.702806 -36.607813 
L 175.702806 -36.607813 
L 176.082679 -36.607813 
L 176.082679 -36.607813 
L 176.462553 -36.607813 
L 176.462553 -36.607813 
L 176.842426 -36.607813 
L 176.842426 -36.607813 
L 177.222299 -36.607813 
L 177.222299 -36.607813 
L 177.602173 -36.607813 
L 177.602173 -36.607813 
L 177.982046 -36.607813 
L 177.982046 -36.607813 
L 178.361919 -36.607813 
L 178.361919 -36.607813 
L 178.741793 -36.607813 
L 178.741793 -36.607813 
L 179.121666 -36.607813 
L 179.121666 -36.607813 
L 179.501539 -36.607813 
L 179.501539 -36.607813 
L 179.881413 -36.607813 
L 179.881413 -36.607813 
L 180.261286 -36.607813 
L 180.261286 -36.607813 
L 180.641159 -36.607813 
L 180.641159 -36.607813 
L 181.021033 -36.607813 
L 181.021033 -36.607813 
L 181.400906 -36.607813 
L 181.400906 -36.607813 
L 181.780779 -36.607813 
L 181.780779 -36.607813 
L 182.160653 -36.607813 
L 182.160653 -36.607813 
L 182.540526 -36.607813 
L 182.540526 -36.607813 
L 182.920399 -36.607813 
L 182.920399 -36.607813 
L 183.300273 -36.607813 
L 183.300273 -36.607813 
L 183.680146 -36.607813 
L 183.680146 -36.607813 
L 184.060019 -36.607813 
L 184.060019 -36.607813 
L 184.439893 -36.607813 
L 184.439893 -36.607813 
L 184.819766 -36.607813 
L 184.819766 -36.607813 
L 185.199639 -36.607813 
L 185.199639 -36.607813 
L 185.579513 -36.607813 
L 185.579513 -36.607813 
L 185.959386 -36.607813 
L 185.959386 -36.607813 
L 186.33926 -36.607813 
L 186.33926 -36.607813 
L 186.719133 -36.607813 
L 186.719133 -36.607813 
L 187.099006 -36.607813 
L 187.099006 -36.607813 
L 187.47888 -36.607813 
L 187.47888 -36.607813 
L 187.858753 -36.607813 
L 187.858753 -36.607813 
L 188.238626 -36.607813 
L 188.238626 -36.607813 
L 188.6185 -36.607813 
L 188.6185 -36.607813 
L 188.998373 -36.607813 
L 188.998373 -36.607813 
L 189.378246 -36.607813 
L 189.378246 -36.607813 
L 189.75812 -36.607813 
L 189.75812 -36.607813 
L 190.137993 -36.607813 
L 190.137993 -36.607813 
L 190.517866 -36.607813 
L 190.517866 -36.607813 
L 190.89774 -36.607813 
L 190.89774 -36.607813 
L 191.277613 -36.607813 
L 191.277613 -36.607813 
L 191.657486 -36.607813 
L 191.657486 -36.607813 
L 192.03736 -36.607813 
L 192.03736 -36.607813 
L 192.417233 -36.607813 
L 192.417233 -36.607813 
L 192.797106 -36.607813 
L 192.797106 -36.607813 
L 193.17698 -36.607813 
L 193.17698 -36.607813 
L 193.556853 -36.607813 
L 193.556853 -36.607813 
L 193.936726 -36.607813 
L 193.936726 -36.607813 
L 194.3166 -36.607813 
L 194.3166 -36.607813 
L 194.696473 -36.607813 
L 194.696473 -36.607813 
L 195.076346 -36.607813 
L 195.076346 -36.607813 
L 195.45622 -36.607813 
L 195.45622 -36.607813 
L 195.836093 -36.607813 
L 195.836093 -36.607813 
L 196.215966 -36.607813 
L 196.215966 -36.607813 
L 196.59584 -36.607813 
L 196.59584 -36.607813 
L 196.975713 -36.607813 
L 196.975713 -36.607813 
L 197.355587 -36.607813 
L 197.355587 -36.607813 
L 197.73546 -36.607813 
L 197.73546 -36.607813 
L 198.115333 -36.607813 
L 198.115333 -36.607813 
L 198.495207 -36.607813 
L 198.495207 -36.607813 
L 198.87508 -36.607813 
L 198.87508 -36.607813 
L 199.254953 -36.607813 
L 199.254953 -36.607813 
L 199.634827 -36.607813 
L 199.634827 -36.607813 
L 200.0147 -36.607813 
L 200.0147 -36.607813 
L 200.394573 -36.607813 
L 200.394573 -36.607813 
L 200.774447 -36.607813 
L 200.774447 -36.607813 
L 201.15432 -36.607813 
L 201.15432 -36.607813 
L 201.534193 -36.607813 
L 201.534193 -36.607813 
L 201.914067 -36.607813 
L 201.914067 -36.607813 
L 202.29394 -36.607813 
L 202.29394 -36.607813 
L 202.673813 -36.607813 
L 202.673813 -36.607813 
L 203.053687 -36.607813 
L 203.053687 -36.607813 
L 203.43356 -36.607813 
L 203.43356 -36.607813 
L 203.813433 -36.607813 
L 203.813433 -36.607813 
L 204.193307 -36.607813 
L 204.193307 -36.607813 
L 204.57318 -36.607813 
L 204.57318 -36.607813 
L 204.953053 -36.607813 
L 204.953053 -36.607813 
L 205.332927 -36.607813 
L 205.332927 -36.607813 
L 205.7128 -36.607813 
L 205.7128 -36.607813 
L 206.092673 -36.607813 
L 206.092673 -36.607813 
L 206.472547 -36.607813 
L 206.472547 -36.607813 
L 206.85242 -36.607813 
L 206.85242 -36.607813 
L 207.232293 -36.607813 
L 207.232293 -36.607813 
L 207.612167 -36.607813 
L 207.612167 -36.607813 
L 207.99204 -36.607813 
L 207.99204 -36.607813 
L 208.371913 -36.607813 
L 208.371913 -36.607813 
L 208.751787 -36.607813 
L 208.751787 -36.607813 
L 209.13166 -36.607813 
L 209.13166 -36.607813 
L 209.511534 -36.607813 
L 209.511534 -36.607813 
L 209.891407 -36.607813 
L 209.891407 -36.607813 
L 210.27128 -36.607813 
L 210.27128 -36.607813 
L 210.651154 -36.607813 
L 210.651154 -36.607813 
L 211.031027 -36.607813 
L 211.031027 -36.607813 
L 211.4109 -36.607813 
L 211.4109 -36.607813 
L 211.790774 -36.607813 
L 211.790774 -36.607813 
L 212.170647 -36.607813 
L 212.170647 -36.607813 
L 212.55052 -36.607813 
L 212.55052 -36.607813 
L 212.930394 -36.607813 
L 212.930394 -36.607813 
L 213.310267 -36.607813 
L 213.310267 -36.607813 
L 213.69014 -36.607813 
L 213.69014 -36.607813 
L 214.070014 -36.607813 
L 214.070014 -36.607813 
L 214.449887 -36.607813 
L 214.449887 -36.607813 
L 214.82976 -36.607813 
L 214.82976 -36.607813 
L 215.209634 -36.607813 
L 215.209634 -36.607813 
L 215.589507 -36.607813 
L 215.589507 -36.607813 
L 215.96938 -36.607813 
L 215.96938 -36.607813 
L 216.349254 -36.607813 
L 216.349254 -36.607813 
L 216.729127 -36.607813 
L 216.729127 -36.607813 
L 217.109 -36.607813 
L 217.109 -36.607813 
L 217.488874 -36.607813 
L 217.488874 -36.607813 
L 217.868747 -36.607813 
L 217.868747 -36.607813 
L 218.24862 -36.607813 
L 218.24862 -36.607813 
L 218.628494 -36.607813 
L 218.628494 -36.607813 
L 219.008367 -36.607813 
L 219.008367 -36.607813 
L 219.38824 -36.607813 
L 219.38824 -36.607813 
L 219.768114 -36.607813 
L 219.768114 -36.607813 
L 220.147987 -36.607813 
L 220.147987 -36.607813 
L 220.527861 -36.607813 
L 220.527861 -36.607813 
L 220.907734 -36.607813 
L 220.907734 -36.607813 
L 221.287607 -36.607813 
L 221.287607 -36.607813 
L 221.667481 -36.607813 
L 221.667481 -36.607813 
L 222.047354 -36.607813 
L 222.047354 -36.607813 
L 222.427227 -36.607813 
L 222.427227 -36.607813 
L 222.807101 -36.607813 
L 222.807101 -36.607813 
L 223.186974 -36.607813 
L 223.186974 -36.607813 
L 223.566847 -36.607813 
L 223.566847 -36.607813 
L 223.946721 -36.607813 
L 223.946721 -36.607813 
L 224.326594 -36.607813 
L 224.326594 -36.607813 
L 224.706467 -36.607813 
L 224.706467 -36.607813 
L 225.086341 -36.607813 
L 225.086341 -36.607813 
L 225.466214 -36.607813 
L 225.466214 -36.607813 
L 225.846087 -36.607813 
L 225.846087 -36.607813 
L 226.225961 -36.607813 
L 226.225961 -36.607813 
L 226.605834 -36.607813 
L 226.605834 -36.607813 
L 226.985707 -36.607813 
L 226.985707 -36.607813 
L 227.365581 -36.607813 
L 227.365581 -36.607813 
L 227.745454 -36.607813 
L 227.745454 -36.607813 
L 228.125327 -36.607813 
L 228.125327 -36.607813 
L 228.505201 -36.607813 
L 228.505201 -36.607813 
L 228.885074 -36.607813 
L 228.885074 -36.607813 
L 229.264947 -36.607813 
L 229.264947 -36.607813 
L 229.644821 -36.607813 
L 229.644821 -36.607813 
L 230.024694 -36.607813 
L 230.024694 -36.607813 
L 230.404567 -36.607813 
L 230.404567 -36.607813 
L 230.784441 -36.607813 
L 230.784441 -36.607813 
L 231.164314 -36.607813 
L 231.164314 -36.607813 
L 231.544188 -36.607813 
L 231.544188 -36.607813 
L 231.924061 -36.607813 
L 231.924061 -36.607813 
L 232.303934 -36.607813 
L 232.303934 -36.607813 
L 232.683808 -36.607813 
L 232.683808 -36.607813 
L 233.063681 -36.607813 
L 233.063681 -36.607813 
L 233.443554 -36.607813 
L 233.443554 -36.607813 
L 233.823428 -36.607813 
L 233.823428 -36.607813 
L 234.203301 -36.607813 
L 234.203301 -36.607813 
L 234.583174 -36.607813 
L 234.583174 -36.607813 
L 234.963048 -36.607813 
L 234.963048 -36.607813 
L 235.342921 -36.607813 
L 235.342921 -36.607813 
L 235.722794 -36.607813 
L 235.722794 -36.607813 
L 236.102668 -36.607813 
L 236.102668 -36.607813 
L 236.482541 -36.607813 
L 236.482541 -36.607813 
L 236.862414 -36.607813 
L 236.862414 -36.607813 
L 237.242288 -36.607813 
L 237.242288 -36.607813 
L 237.622161 -36.607813 
L 237.622161 -36.607813 
L 238.002034 -36.607813 
L 238.002034 -36.607813 
L 238.381908 -36.607813 
L 238.381908 -36.607813 
L 238.761781 -36.607813 
L 238.761781 -36.607813 
L 239.141654 -36.607813 
L 239.141654 -36.607813 
L 239.521528 -36.607813 
L 239.521528 -36.607813 
L 239.901401 -36.607813 
L 239.901401 -36.607813 
L 240.281274 -36.607813 
L 240.281274 -36.607813 
L 240.661148 -36.607813 
L 240.661148 -36.607813 
L 241.041021 -36.607813 
L 241.041021 -36.607813 
L 241.420894 -36.607813 
L 241.420894 -36.607813 
L 241.800768 -36.607813 
L 241.800768 -36.607813 
L 242.180641 -36.607813 
L 242.180641 -36.607813 
L 242.560514 -36.607813 
L 242.560514 -36.607813 
L 242.940388 -36.607813 
L 242.940388 -36.607813 
L 243.320261 -36.607813 
L 243.320261 -36.607813 
L 243.700135 -36.607813 
L 243.700135 -36.607813 
L 244.080008 -36.607813 
L 244.080008 -36.607813 
L 244.459881 -36.607813 
L 244.459881 -36.607813 
L 244.839755 -36.607813 
L 244.839755 -36.607813 
L 245.219628 -36.607813 
L 245.219628 -36.607813 
L 245.599501 -36.607813 
L 245.599501 -36.607813 
L 245.979375 -36.607813 
L 245.979375 -36.607813 
L 246.359248 -36.607813 
L 246.359248 -36.607813 
L 246.739121 -36.607813 
L 246.739121 -36.607813 
L 247.118995 -36.607813 
L 247.118995 -36.607813 
L 247.498868 -36.607813 
L 247.498868 -36.607813 
L 247.878741 -36.607813 
L 247.878741 -36.607813 
L 248.258615 -36.607813 
L 248.258615 -36.607813 
L 248.638488 -36.607813 
L 248.638488 -36.607813 
L 249.018361 -36.607813 
L 249.018361 -36.607813 
L 249.398235 -36.607813 
L 249.398235 -36.607813 
L 249.778108 -36.607813 
L 249.778108 -36.607813 
L 250.157981 -36.607813 
L 250.157981 -36.607813 
L 250.537855 -36.607813 
L 250.537855 -36.607813 
L 250.917728 -36.607813 
L 250.917728 -36.607813 
L 251.297601 -36.607813 
L 251.297601 -36.607813 
L 251.677475 -36.607813 
L 251.677475 -36.607813 
L 252.057348 -36.607813 
L 252.057348 -36.607813 
L 252.437221 -36.607813 
L 252.437221 -36.607813 
L 252.817095 -36.607813 
L 252.817095 -36.607813 
L 253.196968 -36.607813 
L 253.196968 -36.607813 
L 253.576841 -36.607813 
L 253.576841 -36.607813 
L 253.956715 -36.607813 
L 253.956715 -36.607813 
L 254.336588 -36.607813 
L 254.336588 -36.607813 
L 254.716462 -36.607813 
L 254.716462 -36.607813 
L 255.096335 -36.607813 
L 255.096335 -36.607813 
L 255.476208 -36.607813 
L 255.476208 -36.607813 
L 255.856082 -36.607813 
L 255.856082 -36.607813 
L 256.235955 -36.607813 
L 256.235955 -36.607813 
L 256.615828 -36.607813 
L 256.615828 -36.607813 
L 256.995702 -36.607813 
L 256.995702 -36.607813 
L 257.375575 -36.607813 
L 257.375575 -36.607813 
L 257.755448 -36.607813 
L 257.755448 -36.607813 
L 258.135322 -36.607813 
L 258.135322 -36.607813 
L 258.515195 -36.607813 
L 258.515195 -36.607813 
L 258.895068 -36.607813 
L 258.895068 -36.607813 
L 259.274942 -36.607813 
L 259.274942 -36.607813 
L 259.654815 -36.607813 
L 259.654815 -36.607813 
L 260.034688 -36.607813 
L 260.034688 -36.607813 
L 260.414562 -36.607813 
L 260.414562 -36.607813 
L 260.794435 -36.607813 
L 260.794435 -36.607813 
L 261.174308 -36.607813 
L 261.174308 -36.607813 
L 261.554182 -36.607813 
L 261.554182 -36.607813 
L 261.934055 -36.607813 
L 261.934055 -36.607813 
L 262.313928 -36.607813 
L 262.313928 -36.607813 
L 262.693802 -36.607813 
L 262.693802 -36.607813 
L 263.073675 -36.607813 
L 263.073675 -36.607813 
L 263.453548 -36.607813 
L 263.453548 -36.607813 
L 263.833422 -36.607813 
L 263.833422 -36.607813 
L 264.213295 -36.607813 
L 264.213295 -36.607813 
L 264.593168 -36.607813 
L 264.593168 -36.607813 
L 264.973042 -36.607813 
L 264.973042 -36.607813 
L 265.352915 -36.607813 
L 265.352915 -36.607813 
L 265.732789 -36.607813 
L 265.732789 -36.607813 
L 266.112662 -36.607813 
L 266.112662 -36.607813 
L 266.492535 -36.607813 
L 266.492535 -36.607813 
L 266.872409 -36.607813 
L 266.872409 -36.607813 
L 267.252282 -36.607813 
L 267.252282 -36.607813 
L 267.632155 -36.607813 
L 267.632155 -36.607813 
L 268.012029 -36.607813 
L 268.012029 -36.607813 
L 268.391902 -36.607813 
L 268.391902 -36.607813 
L 268.771775 -36.607813 
L 268.771775 -36.607813 
L 269.151649 -36.607813 
L 269.151649 -36.607813 
L 269.531522 -36.607813 
L 269.531522 -36.607813 
L 269.911395 -36.607813 
L 269.911395 -36.607813 
L 270.291269 -36.607813 
L 270.291269 -36.607813 
L 270.671142 -36.607813 
L 270.671142 -36.607813 
L 271.051015 -36.607813 
L 271.051015 -36.607813 
L 271.430889 -36.607813 
L 271.430889 -36.607813 
L 271.810762 -36.607813 
L 271.810762 -36.607813 
L 272.190635 -36.607813 
L 272.190635 -36.607813 
L 272.570509 -36.607813 
L 272.570509 -36.607813 
L 272.950382 -36.607813 
L 272.950382 -36.607813 
L 273.330255 -36.607813 
L 273.330255 -36.607813 
L 273.710129 -36.607813 
L 273.710129 -36.607813 
L 274.090002 -36.607813 
L 274.090002 -36.607813 
L 274.469875 -36.607813 
L 274.469875 -36.607813 
L 274.849749 -36.607813 
L 274.849749 -36.607813 
L 275.229622 -36.607813 
L 275.229622 -36.607813 
L 275.609495 -36.607813 
L 275.609495 -36.607813 
L 275.989369 -36.607813 
L 275.989369 -36.607813 
L 276.369242 -36.607813 
L 276.369242 -36.607813 
L 276.749116 -36.607813 
L 276.749116 -36.607813 
L 277.128989 -36.607813 
L 277.128989 -36.607813 
L 277.508862 -36.607813 
L 277.508862 -36.607813 
L 277.888736 -36.607813 
L 277.888736 -36.607813 
L 278.268609 -36.607813 
L 278.268609 -36.607813 
L 278.648482 -36.607813 
L 278.648482 -36.607813 
L 279.028356 -36.607813 
L 279.028356 -36.607813 
L 279.408229 -36.607813 
L 279.408229 -36.607813 
L 279.788102 -36.607813 
L 279.788102 -36.607813 
L 280.167976 -36.607813 
L 280.167976 -36.607813 
L 280.547849 -36.607813 
L 280.547849 -36.607813 
L 280.927722 -36.607813 
L 280.927722 -36.607813 
L 281.307596 -36.607813 
L 281.307596 -36.607813 
L 281.687469 -36.607813 
L 281.687469 -36.607813 
L 282.067342 -36.607813 
L 282.067342 -36.607813 
L 282.447216 -36.607813 
L 282.447216 -36.607813 
L 282.827089 -36.607813 
L 282.827089 -36.607813 
L 283.206962 -36.607813 
L 283.206962 -36.607813 
L 283.586836 -36.607813 
L 283.586836 -36.607813 
L 283.966709 -36.607813 
L 283.966709 -36.607813 
L 284.346582 -36.607813 
L 284.346582 -36.607813 
L 284.726456 -36.607813 
L 284.726456 -36.607813 
L 285.106329 -36.607813 
L 285.106329 -36.607813 
L 285.486202 -36.607813 
L 285.486202 -36.607813 
L 285.866076 -36.607813 
L 285.866076 -36.607813 
L 286.245949 -36.607813 
L 286.245949 -36.607813 
L 286.625822 -36.607813 
L 286.625822 -36.607813 
L 287.005696 -36.607813 
L 287.005696 -36.607813 
L 287.385569 -36.607813 
L 287.385569 -36.607813 
L 287.765442 -36.607813 
L 287.765442 -36.607813 
L 288.145316 -36.607813 
L 288.145316 -36.607813 
L 288.525189 -36.607813 
L 288.525189 -36.607813 
L 288.905063 -36.607813 
L 288.905063 -36.607813 
L 289.284936 -36.607813 
L 289.284936 -36.607813 
L 289.664809 -36.607813 
L 289.664809 -36.607813 
L 290.044683 -36.607813 
L 290.044683 -36.607813 
L 290.424556 -36.607813 
L 290.424556 -36.607813 
L 290.804429 -36.607813 
L 290.804429 -36.607813 
L 291.184303 -36.607813 
L 291.184303 -36.607813 
L 291.564176 -36.607813 
L 291.564176 -36.607813 
L 291.944049 -36.607813 
L 291.944049 -36.607813 
L 292.323923 -36.607813 
L 292.323923 -36.607813 
L 292.703796 -36.607813 
L 292.703796 -36.607813 
L 293.083669 -36.607813 
L 293.083669 -36.607813 
L 293.463543 -36.607813 
L 293.463543 -36.607813 
L 293.843416 -36.607813 
L 293.843416 -36.607813 
L 294.223289 -36.607813 
L 294.223289 -36.607813 
L 294.603163 -36.607813 
L 294.603163 -36.607813 
L 294.983036 -36.607813 
L 294.983036 -36.607813 
L 295.362909 -36.607813 
L 295.362909 -36.607813 
L 295.742783 -36.607813 
L 295.742783 -36.607813 
L 296.122656 -36.607813 
L 296.122656 -36.607813 
L 296.502529 -36.607813 
L 296.502529 -36.607813 
L 296.882403 -36.607813 
L 296.882403 -36.607813 
L 297.262276 -36.607813 
L 297.262276 -36.607813 
L 297.642149 -36.607813 
L 297.642149 -36.607813 
L 298.022023 -36.607813 
L 298.022023 -36.607813 
L 298.401896 -36.607813 
L 298.401896 -36.607813 
L 298.781769 -36.607813 
L 298.781769 -36.607813 
L 299.161643 -36.607813 
L 299.161643 -36.607813 
L 299.541516 -36.607813 
L 299.541516 -36.607813 
L 299.92139 -36.607813 
L 299.92139 -36.607813 
L 300.301263 -36.607813 
L 300.301263 -36.607813 
L 300.681136 -36.607813 
L 300.681136 -36.607813 
L 301.06101 -36.607813 
L 301.06101 -36.607813 
L 301.440883 -36.607813 
L 301.440883 -36.607813 
L 301.820756 -36.607813 
L 301.820756 -36.607813 
L 302.20063 -36.607813 
L 302.20063 -36.607813 
L 302.580503 -36.607813 
L 302.580503 -36.607813 
L 302.960376 -36.607813 
L 302.960376 -36.607813 
L 303.34025 -36.607813 
L 303.34025 -36.607813 
L 303.720123 -36.607813 
L 303.720123 -36.607813 
L 304.099996 -36.607813 
L 304.099996 -36.607813 
L 304.47987 -36.607813 
L 304.47987 -36.607813 
L 304.859743 -36.607813 
L 304.859743 -36.607813 
L 305.239616 -36.607813 
L 305.239616 -36.607813 
L 305.61949 -36.607813 
L 305.61949 -36.607813 
L 305.999363 -36.607813 
L 305.999363 -36.607813 
L 306.379236 -36.607813 
L 306.379236 -36.607813 
L 306.75911 -36.607813 
L 306.75911 -36.607813 
L 307.138983 -36.607813 
L 307.138983 -36.607813 
L 307.518856 -36.607813 
L 307.518856 -36.607813 
L 307.89873 -36.607813 
L 307.89873 -36.607813 
L 308.278603 -36.607813 
L 308.278603 -36.607813 
L 308.658476 -36.607813 
L 308.658476 -36.607813 
L 309.03835 -36.607813 
L 309.03835 -36.607813 
L 309.418223 -36.607813 
L 309.418223 -36.607813 
L 309.798096 -36.607813 
L 309.798096 -36.607813 
L 310.17797 -36.607813 
L 310.17797 -36.607813 
L 310.557843 -36.607813 
L 310.557843 -36.607813 
L 310.937717 -36.607813 
L 310.937717 -36.607813 
L 311.31759 -36.607813 
L 311.31759 -36.607813 
L 311.697463 -36.607813 
L 311.697463 -36.607813 
L 312.077337 -36.607813 
L 312.077337 -36.607813 
L 312.45721 -36.607813 
L 312.45721 -36.607813 
L 312.837083 -36.607813 
L 312.837083 -36.607813 
L 313.216957 -36.607813 
L 313.216957 -36.607813 
L 313.59683 -36.607813 
L 313.59683 -36.607813 
L 313.976703 -36.607813 
L 313.976703 -36.607813 
L 314.356577 -36.607813 
L 314.356577 -36.607813 
L 314.73645 -36.607813 
L 314.73645 -36.607813 
L 315.116323 -36.607813 
L 315.116323 -36.607813 
L 315.496197 -36.607813 
L 315.496197 -36.607813 
L 315.87607 -36.607813 
L 315.87607 -36.607813 
L 316.255943 -36.607813 
L 316.255943 -36.607813 
L 316.635817 -36.607813 
L 316.635817 -36.607813 
L 317.01569 -36.607813 
L 317.01569 -36.607813 
L 317.395563 -36.607813 
L 317.395563 -36.607813 
L 317.775437 -36.607813 
L 317.775437 -36.607813 
L 318.15531 -36.607813 
L 318.15531 -36.607813 
L 318.535183 -36.607813 
L 318.535183 -36.607813 
L 318.915057 -36.607813 
L 318.915057 -36.607813 
L 319.29493 -36.607813 
L 319.29493 -36.607813 
L 319.674803 -36.607813 
L 319.674803 -36.607813 
L 320.054677 -36.607813 
L 320.054677 -36.607813 
L 320.43455 -36.607813 
L 320.43455 -36.607813 
L 320.814423 -36.607813 
L 320.814423 -36.607813 
L 321.194297 -36.607813 
L 321.194297 -36.607813 
L 321.57417 -36.607813 
L 321.57417 -36.607813 
L 321.954043 -36.607813 
L 321.954043 -36.607813 
L 322.333917 -36.607813 
L 322.333917 -36.607813 
L 322.71379 -36.607813 
L 322.71379 -36.607813 
L 323.093664 -36.607813 
L 323.093664 -36.607813 
L 323.473537 -36.607813 
L 323.473537 -36.607813 
L 323.85341 -36.607813 
L 323.85341 -36.607813 
L 324.233284 -36.607813 
L 324.233284 -36.607813 
L 324.613157 -36.607813 
L 324.613157 -36.607813 
L 324.99303 -36.607813 
L 324.99303 -36.607813 
L 325.372904 -36.607813 
L 325.372904 -36.607813 
L 325.752777 -36.607813 
L 325.752777 -36.607813 
L 326.13265 -36.607813 
L 326.13265 -36.607813 
L 326.512524 -36.607813 
L 326.512524 -36.607813 
L 326.892397 -36.607813 
L 326.892397 -36.607813 
L 327.27227 -36.607813 
L 327.27227 -36.607813 
L 327.652144 -36.607813 
L 327.652144 -36.607813 
L 328.032017 -36.607813 
L 328.032017 -36.607813 
L 328.41189 -36.607813 
L 328.41189 -36.607813 
L 328.791764 -36.607813 
L 328.791764 -36.607813 
L 329.171637 -36.607813 
L 329.171637 -36.607813 
L 329.55151 -36.607813 
L 329.55151 -36.607813 
L 329.931384 -36.607813 
L 329.931384 -36.607813 
L 330.311257 -36.607813 
L 330.311257 -36.607813 
L 330.69113 -36.607813 
L 330.69113 -36.607813 
L 331.071004 -36.607813 
L 331.071004 -36.607813 
L 331.450877 -36.607813 
L 331.450877 -36.607813 
L 331.83075 -36.607813 
L 331.83075 -36.607813 
L 332.210624 -36.607813 
L 332.210624 -36.607813 
L 332.590497 -36.607813 
L 332.590497 -36.607813 
L 332.97037 -36.607813 
L 332.97037 -36.607813 
L 333.350244 -36.607813 
L 333.350244 -36.607813 
L 333.730117 -36.607813 
L 333.730117 -36.607813 
L 334.109991 -36.607813 
L 334.109991 -36.607813 
L 334.489864 -36.607813 
L 334.489864 -36.607813 
L 334.869737 -36.607813 
L 334.869737 -36.607813 
L 335.249611 -36.607813 
L 335.249611 -36.607813 
L 335.629484 -36.607813 
L 335.629484 -36.607813 
L 336.009357 -36.607813 
L 336.009357 -36.607813 
L 336.389231 -36.607813 
L 336.389231 -36.607813 
L 336.769104 -36.607813 
L 336.769104 -36.607813 
L 337.148977 -36.607813 
L 337.148977 -36.607813 
L 337.148977 -36.628611 
L 337.148977 -36.628611 
L 337.148977 -36.628611 
L 336.769104 -36.628611 
L 336.769104 -36.607813 
L 336.389231 -36.607813 
L 336.389231 -36.607813 
L 336.009357 -36.607813 
L 336.009357 -36.607813 
L 335.629484 -36.607813 
L 335.629484 -36.607813 
L 335.249611 -36.607813 
L 335.249611 -36.607813 
L 334.869737 -36.607813 
L 334.869737 -36.607813 
L 334.489864 -36.607813 
L 334.489864 -36.607813 
L 334.109991 -36.607813 
L 334.109991 -36.607813 
L 333.730117 -36.607813 
L 333.730117 -36.607813 
L 333.350244 -36.607813 
L 333.350244 -36.607813 
L 332.97037 -36.607813 
L 332.97037 -36.607813 
L 332.590497 -36.607813 
L 332.590497 -36.607813 
L 332.210624 -36.607813 
L 332.210624 -36.607813 
L 331.83075 -36.607813 
L 331.83075 -36.607813 
L 331.450877 -36.607813 
L 331.450877 -36.607813 
L 331.071004 -36.607813 
L 331.071004 -36.607813 
L 330.69113 -36.607813 
L 330.69113 -36.607813 
L 330.311257 -36.607813 
L 330.311257 -36.607813 
L 329.931384 -36.607813 
L 329.931384 -36.607813 
L 329.55151 -36.607813 
L 329.55151 -36.607813 
L 329.171637 -36.607813 
L 329.171637 -36.607813 
L 328.791764 -36.607813 
L 328.791764 -36.607813 
L 328.41189 -36.607813 
L 328.41189 -36.607813 
L 328.032017 -36.607813 
L 328.032017 -36.607813 
L 327.652144 -36.607813 
L 327.652144 -36.607813 
L 327.27227 -36.607813 
L 327.27227 -36.607813 
L 326.892397 -36.607813 
L 326.892397 -36.607813 
L 326.512524 -36.607813 
L 326.512524 -36.607813 
L 326.13265 -36.607813 
L 326.13265 -36.628611 
L 325.752777 -36.628611 
L 325.752777 -36.607813 
L 325.372904 -36.607813 
L 325.372904 -36.607813 
L 324.99303 -36.607813 
L 324.99303 -36.628611 
L 324.613157 -36.628611 
L 324.613157 -36.607813 
L 324.233284 -36.607813 
L 324.233284 -36.607813 
L 323.85341 -36.607813 
L 323.85341 -36.607813 
L 323.473537 -36.607813 
L 323.473537 -36.607813 
L 323.093664 -36.607813 
L 323.093664 -36.607813 
L 322.71379 -36.607813 
L 322.71379 -36.607813 
L 322.333917 -36.607813 
L 322.333917 -36.607813 
L 321.954043 -36.607813 
L 321.954043 -36.649409 
L 321.57417 -36.649409 
L 321.57417 -36.607813 
L 321.194297 -36.607813 
L 321.194297 -36.607813 
L 320.814423 -36.607813 
L 320.814423 -36.607813 
L 320.43455 -36.607813 
L 320.43455 -36.607813 
L 320.054677 -36.607813 
L 320.054677 -36.607813 
L 319.674803 -36.607813 
L 319.674803 -36.607813 
L 319.29493 -36.607813 
L 319.29493 -36.607813 
L 318.915057 -36.607813 
L 318.915057 -36.607813 
L 318.535183 -36.607813 
L 318.535183 -36.607813 
L 318.15531 -36.607813 
L 318.15531 -36.628611 
L 317.775437 -36.628611 
L 317.775437 -36.607813 
L 317.395563 -36.607813 
L 317.395563 -36.607813 
L 317.01569 -36.607813 
L 317.01569 -36.628611 
L 316.635817 -36.628611 
L 316.635817 -36.607813 
L 316.255943 -36.607813 
L 316.255943 -36.607813 
L 315.87607 -36.607813 
L 315.87607 -36.607813 
L 315.496197 -36.607813 
L 315.496197 -36.628611 
L 315.116323 -36.628611 
L 315.116323 -36.607813 
L 314.73645 -36.607813 
L 314.73645 -36.649409 
L 314.356577 -36.649409 
L 314.356577 -36.607813 
L 313.976703 -36.607813 
L 313.976703 -36.607813 
L 313.59683 -36.607813 
L 313.59683 -36.607813 
L 313.216957 -36.607813 
L 313.216957 -36.607813 
L 312.837083 -36.607813 
L 312.837083 -36.607813 
L 312.45721 -36.607813 
L 312.45721 -36.607813 
L 312.077337 -36.607813 
L 312.077337 -36.607813 
L 311.697463 -36.607813 
L 311.697463 -36.607813 
L 311.31759 -36.607813 
L 311.31759 -36.607813 
L 310.937717 -36.607813 
L 310.937717 -36.607813 
L 310.557843 -36.607813 
L 310.557843 -36.607813 
L 310.17797 -36.607813 
L 310.17797 -36.607813 
L 309.798096 -36.607813 
L 309.798096 -36.628611 
L 309.418223 -36.628611 
L 309.418223 -36.607813 
L 309.03835 -36.607813 
L 309.03835 -36.607813 
L 308.658476 -36.607813 
L 308.658476 -36.691006 
L 308.278603 -36.691006 
L 308.278603 -36.628611 
L 307.89873 -36.628611 
L 307.89873 -36.607813 
L 307.518856 -36.607813 
L 307.518856 -36.607813 
L 307.138983 -36.607813 
L 307.138983 -36.607813 
L 306.75911 -36.607813 
L 306.75911 -36.649409 
L 306.379236 -36.649409 
L 306.379236 -36.607813 
L 305.999363 -36.607813 
L 305.999363 -36.607813 
L 305.61949 -36.607813 
L 305.61949 -36.670207 
L 305.239616 -36.670207 
L 305.239616 -36.628611 
L 304.859743 -36.628611 
L 304.859743 -36.607813 
L 304.47987 -36.607813 
L 304.47987 -36.607813 
L 304.099996 -36.607813 
L 304.099996 -36.607813 
L 303.720123 -36.607813 
L 303.720123 -36.607813 
L 303.34025 -36.607813 
L 303.34025 -36.691006 
L 302.960376 -36.691006 
L 302.960376 -36.607813 
L 302.580503 -36.607813 
L 302.580503 -36.691006 
L 302.20063 -36.691006 
L 302.20063 -36.607813 
L 301.820756 -36.607813 
L 301.820756 -36.628611 
L 301.440883 -36.628611 
L 301.440883 -36.607813 
L 301.06101 -36.607813 
L 301.06101 -36.628611 
L 300.681136 -36.628611 
L 300.681136 -36.628611 
L 300.301263 -36.628611 
L 300.301263 -36.607813 
L 299.92139 -36.607813 
L 299.92139 -36.649409 
L 299.541516 -36.649409 
L 299.541516 -36.607813 
L 299.161643 -36.607813 
L 299.161643 -36.711804 
L 298.781769 -36.711804 
L 298.781769 -36.607813 
L 298.401896 -36.607813 
L 298.401896 -36.794997 
L 298.022023 -36.794997 
L 298.022023 -36.607813 
L 297.642149 -36.607813 
L 297.642149 -36.607813 
L 297.262276 -36.607813 
L 297.262276 -36.607813 
L 296.882403 -36.607813 
L 296.882403 -36.670207 
L 296.502529 -36.670207 
L 296.502529 -36.815796 
L 296.122656 -36.815796 
L 296.122656 -36.607813 
L 295.742783 -36.607813 
L 295.742783 -36.607813 
L 295.362909 -36.607813 
L 295.362909 -36.836594 
L 294.983036 -36.836594 
L 294.983036 -36.732602 
L 294.603163 -36.732602 
L 294.603163 -36.691006 
L 294.223289 -36.691006 
L 294.223289 -36.691006 
L 293.843416 -36.691006 
L 293.843416 -36.607813 
L 293.463543 -36.607813 
L 293.463543 -36.607813 
L 293.083669 -36.607813 
L 293.083669 -36.607813 
L 292.703796 -36.607813 
L 292.703796 -36.774199 
L 292.323923 -36.774199 
L 292.323923 -37.00298 
L 291.944049 -37.00298 
L 291.944049 -36.774199 
L 291.564176 -36.774199 
L 291.564176 -36.607813 
L 291.184303 -36.607813 
L 291.184303 -36.607813 
L 290.804429 -36.607813 
L 290.804429 -36.670207 
L 290.424556 -36.670207 
L 290.424556 -36.711804 
L 290.044683 -36.711804 
L 290.044683 -36.774199 
L 289.664809 -36.774199 
L 289.664809 -36.711804 
L 289.284936 -36.711804 
L 289.284936 -36.878191 
L 288.905063 -36.878191 
L 288.905063 -36.711804 
L 288.525189 -36.711804 
L 288.525189 -36.794997 
L 288.145316 -36.794997 
L 288.145316 -36.607813 
L 287.765442 -36.607813 
L 287.765442 -36.607813 
L 287.385569 -36.607813 
L 287.385569 -36.607813 
L 287.005696 -36.607813 
L 287.005696 -37.00298 
L 286.625822 -37.00298 
L 286.625822 -36.607813 
L 286.245949 -36.607813 
L 286.245949 -37.044577 
L 285.866076 -37.044577 
L 285.866076 -36.691006 
L 285.486202 -36.691006 
L 285.486202 -36.607813 
L 285.106329 -36.607813 
L 285.106329 -36.982182 
L 284.726456 -36.982182 
L 284.726456 -36.670207 
L 284.346582 -36.670207 
L 284.346582 -36.607813 
L 283.966709 -36.607813 
L 283.966709 -36.940585 
L 283.586836 -36.940585 
L 283.586836 -36.940585 
L 283.206962 -36.940585 
L 283.206962 -36.794997 
L 282.827089 -36.794997 
L 282.827089 -36.774199 
L 282.447216 -36.774199 
L 282.447216 -36.774199 
L 282.067342 -36.774199 
L 282.067342 -36.732602 
L 281.687469 -36.732602 
L 281.687469 -36.857392 
L 281.307596 -36.857392 
L 281.307596 -37.106972 
L 280.927722 -37.106972 
L 280.927722 -36.607813 
L 280.547849 -36.607813 
L 280.547849 -36.836594 
L 280.167976 -36.836594 
L 280.167976 -36.607813 
L 279.788102 -36.607813 
L 279.788102 -37.00298 
L 279.408229 -37.00298 
L 279.408229 -37.190165 
L 279.028356 -37.190165 
L 279.028356 -36.878191 
L 278.648482 -36.878191 
L 278.648482 -36.628611 
L 278.268609 -36.628611 
L 278.268609 -37.231762 
L 277.888736 -37.231762 
L 277.888736 -36.774199 
L 277.508862 -36.774199 
L 277.508862 -36.836594 
L 277.128989 -36.836594 
L 277.128989 -37.25256 
L 276.749116 -37.25256 
L 276.749116 -37.335753 
L 276.369242 -37.335753 
L 276.369242 -36.815796 
L 275.989369 -36.815796 
L 275.989369 -36.815796 
L 275.609495 -36.815796 
L 275.609495 -37.210963 
L 275.229622 -37.210963 
L 275.229622 -36.774199 
L 274.849749 -36.774199 
L 274.849749 -37.273358 
L 274.469875 -37.273358 
L 274.469875 -36.628611 
L 274.090002 -36.628611 
L 274.090002 -37.335753 
L 273.710129 -37.335753 
L 273.710129 -36.774199 
L 273.330255 -36.774199 
L 273.330255 -36.961384 
L 272.950382 -36.961384 
L 272.950382 -37.086174 
L 272.570509 -37.086174 
L 272.570509 -36.794997 
L 272.190635 -36.794997 
L 272.190635 -37.418947 
L 271.810762 -37.418947 
L 271.810762 -37.418947 
L 271.430889 -37.418947 
L 271.430889 -37.086174 
L 271.051015 -37.086174 
L 271.051015 -36.857392 
L 270.671142 -36.857392 
L 270.671142 -36.857392 
L 270.291269 -36.857392 
L 270.291269 -37.00298 
L 269.911395 -37.00298 
L 269.911395 -37.023779 
L 269.531522 -37.023779 
L 269.531522 -37.481341 
L 269.151649 -37.481341 
L 269.151649 -37.25256 
L 268.771775 -37.25256 
L 268.771775 -36.691006 
L 268.391902 -36.691006 
L 268.391902 -37.356552 
L 268.012029 -37.356552 
L 268.012029 -37.938904 
L 267.632155 -37.938904 
L 267.632155 -36.898989 
L 267.252282 -36.898989 
L 267.252282 -37.294157 
L 266.872409 -37.294157 
L 266.872409 -37.086174 
L 266.492535 -37.086174 
L 266.492535 -36.982182 
L 266.112662 -36.982182 
L 266.112662 -36.774199 
L 265.732789 -36.774199 
L 265.732789 -37.398148 
L 265.352915 -37.398148 
L 265.352915 -37.959703 
L 264.973042 -37.959703 
L 264.973042 -36.961384 
L 264.593168 -36.961384 
L 264.593168 -38.042896 
L 264.213295 -38.042896 
L 264.213295 -37.50214 
L 263.833422 -37.50214 
L 263.833422 -37.25256 
L 263.453548 -37.25256 
L 263.453548 -38.230081 
L 263.073675 -38.230081 
L 263.073675 -36.836594 
L 262.693802 -36.836594 
L 262.693802 -37.023779 
L 262.313928 -37.023779 
L 262.313928 -38.47966 
L 261.934055 -38.47966 
L 261.934055 -38.833232 
L 261.554182 -38.833232 
L 261.554182 -37.543736 
L 261.174308 -37.543736 
L 261.174308 -37.273358 
L 260.794435 -37.273358 
L 260.794435 -36.919787 
L 260.414562 -36.919787 
L 260.414562 -36.711804 
L 260.034688 -36.711804 
L 260.034688 -38.583652 
L 259.654815 -38.583652 
L 259.654815 -37.086174 
L 259.274942 -37.086174 
L 259.274942 -42.202558 
L 258.895068 -42.202558 
L 258.895068 -36.711804 
L 258.515195 -36.711804 
L 258.515195 -37.106972 
L 258.135322 -37.106972 
L 258.135322 -38.063694 
L 257.755448 -38.063694 
L 257.755448 -37.065375 
L 257.375575 -37.065375 
L 257.375575 -37.065375 
L 256.995702 -37.065375 
L 256.995702 -45.779867 
L 256.615828 -45.779867 
L 256.615828 -36.961384 
L 256.235955 -36.961384 
L 256.235955 -36.898989 
L 255.856082 -36.898989 
L 255.856082 -37.751719 
L 255.476208 -37.751719 
L 255.476208 -38.292476 
L 255.096335 -38.292476 
L 255.096335 -41.43302 
L 254.716462 -41.43302 
L 254.716462 -42.701717 
L 254.336588 -42.701717 
L 254.336588 -37.25256 
L 253.956715 -37.25256 
L 253.956715 -38.188484 
L 253.576841 -38.188484 
L 253.576841 -41.93218 
L 253.196968 -41.93218 
L 253.196968 -36.857392 
L 252.817095 -36.857392 
L 252.817095 -43.824826 
L 252.437221 -43.824826 
L 252.437221 -40.018735 
L 252.057348 -40.018735 
L 252.057348 -42.764112 
L 251.677475 -42.764112 
L 251.677475 -38.562854 
L 251.297601 -38.562854 
L 251.297601 -41.93218 
L 250.917728 -41.93218 
L 250.917728 -39.810752 
L 250.537855 -39.810752 
L 250.537855 -46.362219 
L 250.157981 -46.362219 
L 250.157981 -38.271677 
L 249.778108 -38.271677 
L 249.778108 -42.077768 
L 249.398235 -42.077768 
L 249.398235 -46.611799 
L 249.018361 -46.611799 
L 249.018361 -43.554448 
L 248.638488 -43.554448 
L 248.638488 -37.938904 
L 248.258615 -37.938904 
L 248.258615 -51.561797 
L 247.878741 -51.561797 
L 247.878741 -37.398148 
L 247.498868 -37.398148 
L 247.498868 -50.230705 
L 247.118995 -50.230705 
L 247.118995 -48.421252 
L 246.739121 -48.421252 
L 246.739121 -37.065375 
L 246.359248 -37.065375 
L 246.359248 -51.686587 
L 245.979375 -51.686587 
L 245.979375 -47.797303 
L 245.599501 -47.797303 
L 245.599501 -47.006967 
L 245.219628 -47.006967 
L 245.219628 -51.39541 
L 244.839755 -51.39541 
L 244.839755 -43.055288 
L 244.459881 -43.055288 
L 244.459881 -50.917049 
L 244.080008 -50.917049 
L 244.080008 -51.187427 
L 243.700135 -51.187427 
L 243.700135 -44.116002 
L 243.320261 -44.116002 
L 243.320261 -55.513475 
L 242.940388 -55.513475 
L 242.940388 -52.726502 
L 242.560514 -52.726502 
L 242.560514 -48.774823 
L 242.180641 -48.774823 
L 242.180641 -58.27965 
L 241.800768 -58.27965 
L 241.800768 -53.9744 
L 241.420894 -53.9744 
L 241.420894 -56.594987 
L 241.041021 -56.594987 
L 241.041021 -55.57587 
L 240.661148 -55.57587 
L 240.661148 -57.343727 
L 240.281274 -57.343727 
L 240.281274 -57.718096 
L 239.901401 -57.718096 
L 239.901401 -50.272301 
L 239.521528 -50.272301 
L 239.521528 -53.620829 
L 239.141654 -53.620829 
L 239.141654 -56.095828 
L 238.761781 -56.095828 
L 238.761781 -56.283013 
L 238.381908 -56.283013 
L 238.381908 -67.472503 
L 238.002034 -67.472503 
L 238.002034 -74.27355 
L 237.622161 -74.27355 
L 237.622161 -44.531968 
L 237.242288 -44.531968 
L 237.242288 -51.790578 
L 236.862414 -51.790578 
L 236.862414 -51.14583 
L 236.482541 -51.14583 
L 236.482541 -51.312217 
L 236.102668 -51.312217 
L 236.102668 -61.025027 
L 235.722794 -61.025027 
L 235.722794 -65.247084 
L 235.342921 -65.247084 
L 235.342921 -47.027765 
L 234.963048 -47.027765 
L 234.963048 -48.899613 
L 234.583174 -48.899613 
L 234.583174 -43.40886 
L 234.203301 -43.40886 
L 234.203301 -48.296462 
L 233.823428 -48.296462 
L 233.823428 -51.998561 
L 233.443554 -51.998561 
L 233.443554 -57.697298 
L 233.063681 -57.697298 
L 233.063681 -40.58029 
L 232.683808 -40.58029 
L 232.683808 -43.325666 
L 232.303934 -43.325666 
L 232.303934 -41.890583 
L 231.924061 -41.890583 
L 231.924061 -48.546042 
L 231.544188 -48.546042 
L 231.544188 -42.972095 
L 231.164314 -42.972095 
L 231.164314 -40.434701 
L 230.784441 -40.434701 
L 230.784441 -41.349827 
L 230.404567 -41.349827 
L 230.404567 -44.116002 
L 230.024694 -44.116002 
L 230.024694 -41.287432 
L 229.644821 -41.287432 
L 229.644821 -39.935542 
L 229.264947 -39.935542 
L 229.264947 -45.509489 
L 228.885074 -45.509489 
L 228.885074 -39.332391 
L 228.505201 -39.332391 
L 228.505201 -39.706761 
L 228.125327 -39.706761 
L 228.125327 -46.154236 
L 227.745454 -46.154236 
L 227.745454 -38.396467 
L 227.365581 -38.396467 
L 227.365581 -40.663483 
L 226.985707 -40.663483 
L 226.985707 -46.091841 
L 226.605834 -46.091841 
L 226.605834 -37.62693 
L 226.225961 -37.62693 
L 226.225961 -42.78491 
L 225.846087 -42.78491 
L 225.846087 -46.029446 
L 225.466214 -46.029446 
L 225.466214 -39.914744 
L 225.086341 -39.914744 
L 225.086341 -44.885539 
L 224.706467 -44.885539 
L 224.706467 -45.176716 
L 224.326594 -45.176716 
L 224.326594 -43.824826 
L 223.946721 -43.824826 
L 223.946721 -45.031128 
L 223.566847 -45.031128 
L 223.566847 -44.323985 
L 223.186974 -44.323985 
L 223.186974 -43.429658 
L 222.807101 -43.429658 
L 222.807101 -44.095204 
L 222.427227 -44.095204 
L 222.427227 -50.667469 
L 222.047354 -50.667469 
L 222.047354 -48.254866 
L 221.667481 -48.254866 
L 221.667481 -42.348146 
L 221.287607 -42.348146 
L 221.287607 -55.534274 
L 220.907734 -55.534274 
L 220.907734 -51.832175 
L 220.527861 -51.832175 
L 220.527861 -49.877134 
L 220.147987 -49.877134 
L 220.147987 -56.532592 
L 219.768114 -56.532592 
L 219.768114 -45.842262 
L 219.38824 -45.842262 
L 219.38824 -62.252127 
L 219.008367 -62.252127 
L 219.008367 -65.933428 
L 218.628494 -65.933428 
L 218.628494 -46.757387 
L 218.24862 -46.757387 
L 218.24862 -69.781115 
L 217.868747 -69.781115 
L 217.868747 -66.786159 
L 217.488874 -66.786159 
L 217.488874 -85.088671 
L 217.109 -85.088671 
L 217.109 -53.24646 
L 216.729127 -53.24646 
L 216.729127 -96.985303 
L 216.349254 -96.985303 
L 216.349254 -85.296654 
L 215.96938 -85.296654 
L 215.96938 -111.252943 
L 215.589507 -111.252943 
L 215.589507 -79.140354 
L 215.209634 -79.140354 
L 215.209634 -120.445796 
L 214.82976 -120.445796 
L 214.82976 -124.127097 
L 214.449887 -124.127097 
L 214.449887 -143.490322 
L 214.070014 -143.490322 
L 214.070014 -148.960278 
L 213.69014 -148.960278 
L 213.69014 -223.376627 
L 213.310267 -223.376627 
L 213.310267 -279.0537 
L 212.930394 -279.0537 
L 212.930394 -244.070945 
L 212.55052 -244.070945 
L 212.55052 -162.811951 
L 212.170647 -162.811951 
L 212.170647 -231.051203 
L 211.790774 -231.051203 
L 211.790774 -317.613765 
L 211.4109 -317.613765 
L 211.4109 -317.967336 
L 211.031027 -317.967336 
L 211.031027 -161.460061 
L 210.651154 -161.460061 
L 210.651154 -162.978338 
L 210.27128 -162.978338 
L 210.27128 -308.171333 
L 209.891407 -308.171333 
L 209.891407 -151.435276 
L 209.511534 -151.435276 
L 209.511534 -117.409243 
L 209.13166 -117.409243 
L 209.13166 -115.662185 
L 208.751787 -115.662185 
L 208.751787 -137.874779 
L 208.371913 -137.874779 
L 208.371913 -65.122294 
L 207.99204 -65.122294 
L 207.99204 -73.504013 
L 207.612167 -73.504013 
L 207.612167 -78.932371 
L 207.232293 -78.932371 
L 207.232293 -50.313898 
L 206.85242 -50.313898 
L 206.85242 -55.201501 
L 206.472547 -55.201501 
L 206.472547 -55.180702 
L 206.092673 -55.180702 
L 206.092673 -48.629235 
L 205.7128 -48.629235 
L 205.7128 -51.27062 
L 205.332927 -51.27062 
L 205.332927 -52.518519 
L 204.953053 -52.518519 
L 204.953053 -47.152555 
L 204.57318 -47.152555 
L 204.57318 -48.44205 
L 204.193307 -48.44205 
L 204.193307 -49.960327 
L 203.813433 -49.960327 
L 203.813433 -50.126713 
L 203.43356 -50.126713 
L 203.43356 -53.184065 
L 203.053687 -53.184065 
L 203.053687 -46.902975 
L 202.673813 -46.902975 
L 202.673813 -46.944572 
L 202.29394 -46.944572 
L 202.29394 -54.140787 
L 201.914067 -54.140787 
L 201.914067 -48.026084 
L 201.534193 -48.026084 
L 201.534193 -55.388686 
L 201.15432 -55.388686 
L 201.15432 -47.256547 
L 200.774447 -47.256547 
L 200.774447 -56.012635 
L 200.394573 -56.012635 
L 200.394573 -53.038477 
L 200.0147 -53.038477 
L 200.0147 -55.409484 
L 199.634827 -55.409484 
L 199.634827 -52.87209 
L 199.254953 -52.87209 
L 199.254953 -51.000242 
L 198.87508 -51.000242 
L 198.87508 -56.07503 
L 198.495207 -56.07503 
L 198.495207 -59.236373 
L 198.115333 -59.236373 
L 198.115333 -58.258852 
L 197.73546 -58.258852 
L 197.73546 -57.801289 
L 197.355587 -57.801289 
L 197.355587 -62.418514 
L 196.975713 -62.418514 
L 196.975713 -58.154861 
L 196.59584 -58.154861 
L 196.59584 -72.963257 
L 196.215966 -72.963257 
L 196.215966 -57.530911 
L 195.836093 -57.530911 
L 195.836093 -73.919979 
L 195.45622 -73.919979 
L 195.45622 -63.479228 
L 195.076346 -63.479228 
L 195.076346 -74.335945 
L 194.696473 -74.335945 
L 194.696473 -69.84351 
L 194.3166 -69.84351 
L 194.3166 -75.708633 
L 193.936726 -75.708633 
L 193.936726 -81.885731 
L 193.556853 -81.885731 
L 193.556853 -80.263463 
L 193.17698 -80.263463 
L 193.17698 -85.982998 
L 192.797106 -85.982998 
L 192.797106 -86.045393 
L 192.417233 -86.045393 
L 192.417233 -87.06451 
L 192.03736 -87.06451 
L 192.03736 -98.004421 
L 191.657486 -98.004421 
L 191.657486 -93.449591 
L 191.277613 -93.449591 
L 191.277613 -103.599166 
L 190.89774 -103.599166 
L 190.89774 -113.561556 
L 190.517866 -113.561556 
L 190.517866 -108.361978 
L 190.137993 -108.361978 
L 190.137993 -111.481725 
L 189.75812 -111.481725 
L 189.75812 -134.547049 
L 189.378246 -134.547049 
L 189.378246 -128.64033 
L 188.998373 -128.64033 
L 188.998373 -119.842645 
L 188.6185 -119.842645 
L 188.6185 -153.5983 
L 188.238626 -153.5983 
L 188.238626 -126.310919 
L 187.858753 -126.310919 
L 187.858753 -159.900188 
L 187.47888 -159.900188 
L 187.47888 -146.859648 
L 187.099006 -146.859648 
L 187.099006 -163.207119 
L 186.719133 -163.207119 
L 186.719133 -167.366781 
L 186.33926 -167.366781 
L 186.33926 -146.672464 
L 185.959386 -146.672464 
L 185.959386 -166.680437 
L 185.579513 -166.680437 
L 185.579513 -184.171815 
L 185.199639 -184.171815 
L 185.199639 -172.587157 
L 184.819766 -172.587157 
L 184.819766 -162.063212 
L 184.439893 -162.063212 
L 184.439893 -153.244729 
L 184.060019 -153.244729 
L 184.060019 -172.503963 
L 183.680146 -172.503963 
L 183.680146 -151.726453 
L 183.300273 -151.726453 
L 183.300273 -158.548298 
L 182.920399 -158.548298 
L 182.920399 -145.48696 
L 182.540526 -145.48696 
L 182.540526 -136.148519 
L 182.160653 -136.148519 
L 182.160653 -109.381096 
L 181.780779 -109.381096 
L 181.780779 -101.144965 
L 181.400906 -101.144965 
L 181.400906 -101.228158 
L 181.021033 -101.228158 
L 181.021033 -84.735099 
L 180.641159 -84.735099 
L 180.641159 -81.033 
L 180.261286 -81.033 
L 180.261286 -71.923341 
L 179.881413 -71.923341 
L 179.881413 -59.589944 
L 179.501539 -59.589944 
L 179.501539 -65.163891 
L 179.121666 -65.163891 
L 179.121666 -55.991836 
L 178.741793 -55.991836 
L 178.741793 -57.42692 
L 178.361919 -57.42692 
L 178.361919 -54.847929 
L 177.982046 -54.847929 
L 177.982046 -50.688268 
L 177.602173 -50.688268 
L 177.602173 -53.350451 
L 177.222299 -53.350451 
L 177.222299 -50.833856 
L 176.842426 -50.833856 
L 176.842426 -51.062637 
L 176.462553 -51.062637 
L 176.462553 -49.981125 
L 176.082679 -49.981125 
L 176.082679 -47.651715 
L 175.702806 -47.651715 
L 175.702806 -47.568521 
L 175.322933 -47.568521 
L 175.322933 -53.24646 
L 174.943059 -53.24646 
L 174.943059 -50.064318 
L 174.563186 -50.064318 
L 174.563186 -50.709066 
L 174.183312 -50.709066 
L 174.183312 -50.605074 
L 173.803439 -50.605074 
L 173.803439 -54.515157 
L 173.423566 -54.515157 
L 173.423566 -52.62251 
L 173.043692 -52.62251 
L 173.043692 -54.556753 
L 172.663819 -54.556753 
L 172.663819 -56.407803 
L 172.283946 -56.407803 
L 172.283946 -55.57587 
L 171.904072 -55.57587 
L 171.904072 -60.089103 
L 171.524199 -60.089103 
L 171.524199 -62.397716 
L 171.144326 -62.397716 
L 171.144326 -61.752968 
L 170.764452 -61.752968 
L 170.764452 -63.20885 
L 170.384579 -63.20885 
L 170.384579 -61.295405 
L 170.004706 -61.295405 
L 170.004706 -64.935109 
L 169.624832 -64.935109 
L 169.624832 -68.678805 
L 169.244959 -68.678805 
L 169.244959 -67.950864 
L 168.865086 -67.950864 
L 168.865086 -71.632165 
L 168.485212 -71.632165 
L 168.485212 -72.048131 
L 168.105339 -72.048131 
L 168.105339 -72.817668 
L 167.725466 -72.817668 
L 167.725466 -73.836786 
L 167.345592 -73.836786 
L 167.345592 -70.030695 
L 166.965719 -70.030695 
L 166.965719 -75.043087 
L 166.585846 -75.043087 
L 166.585846 -76.810944 
L 166.205972 -76.810944 
L 166.205972 -74.02397 
L 165.826099 -74.02397 
L 165.826099 -72.838467 
L 165.446226 -72.838467 
L 165.446226 -79.015564 
L 165.066352 -79.015564 
L 165.066352 -73.04645 
L 164.686479 -73.04645 
L 164.686479 -74.419138 
L 164.306606 -74.419138 
L 164.306606 -71.590568 
L 163.926732 -71.590568 
L 163.926732 -73.836786 
L 163.546859 -73.836786 
L 163.546859 -63.146455 
L 163.166986 -63.146455 
L 163.166986 -74.793508 
L 162.787112 -74.793508 
L 162.787112 -62.95927 
L 162.407239 -62.95927 
L 162.407239 -74.564726 
L 162.027365 -74.564726 
L 162.027365 -61.503388 
L 161.647492 -61.503388 
L 161.647492 -61.149817 
L 161.267619 -61.149817 
L 161.267619 -70.529854 
L 160.887745 -70.529854 
L 160.887745 -60.588263 
L 160.507872 -60.588263 
L 160.507872 -57.489315 
L 160.127999 -57.489315 
L 160.127999 -60.297086 
L 159.748125 -60.297086 
L 159.748125 -63.832799 
L 159.368252 -63.832799 
L 159.368252 -61.73217 
L 158.988379 -61.73217 
L 158.988379 -56.241416 
L 158.608505 -56.241416 
L 158.608505 -54.307173 
L 158.228632 -54.307173 
L 158.228632 -55.991836 
L 157.848759 -55.991836 
L 157.848759 -55.305492 
L 157.468885 -55.305492 
L 157.468885 -54.951921 
L 157.089012 -54.951921 
L 157.089012 -49.315579 
L 156.709139 -49.315579 
L 156.709139 -46.23743 
L 156.329265 -46.23743 
L 156.329265 -49.190789 
L 155.949392 -49.190789 
L 155.949392 -52.705704 
L 155.569519 -52.705704 
L 155.569519 -52.456124 
L 155.189645 -52.456124 
L 155.189645 -51.686587 
L 154.809772 -51.686587 
L 154.809772 -38.146887 
L 154.429899 -38.146887 
L 154.429899 -51.748981 
L 154.050025 -51.748981 
L 154.050025 -51.416208 
L 153.670152 -51.416208 
L 153.670152 -43.596044 
L 153.290279 -43.596044 
L 153.290279 -45.114321 
L 152.910405 -45.114321 
L 152.910405 -49.585957 
L 152.530532 -49.585957 
L 152.530532 -38.188484 
L 152.150659 -38.188484 
L 152.150659 -50.563478 
L 151.770785 -50.563478 
L 151.770785 -47.485328 
L 151.390912 -47.485328 
L 151.390912 -39.873147 
L 151.011038 -39.873147 
L 151.011038 -45.883858 
L 150.631165 -45.883858 
L 150.631165 -39.935542 
L 150.251292 -39.935542 
L 150.251292 -46.570202 
L 149.871418 -46.570202 
L 149.871418 -40.393105 
L 149.491545 -40.393105 
L 149.491545 -46.258228 
L 149.111672 -46.258228 
L 149.111672 -40.434701 
L 148.731798 -40.434701 
L 148.731798 -38.791635 
L 148.351925 -38.791635 
L 148.351925 -47.901294 
L 147.972052 -47.901294 
L 147.972052 -39.249198 
L 147.592178 -39.249198 
L 147.592178 -46.96537 
L 147.212305 -46.96537 
L 147.212305 -40.538693 
L 146.832432 -40.538693 
L 146.832432 -43.908019 
L 146.452558 -43.908019 
L 146.452558 -46.96537 
L 146.072685 -46.96537 
L 146.072685 -44.1368 
L 145.692812 -44.1368 
L 145.692812 -44.51117 
L 145.312938 -44.51117 
L 145.312938 -43.804027 
L 144.933065 -43.804027 
L 144.933065 -47.21495 
L 144.553192 -47.21495 
L 144.553192 -43.887221 
L 144.173318 -43.887221 
L 144.173318 -45.634279 
L 143.793445 -45.634279 
L 143.793445 -50.272301 
L 143.413572 -50.272301 
L 143.413572 -44.448775 
L 143.033698 -44.448775 
L 143.033698 -44.1368 
L 142.653825 -44.1368 
L 142.653825 -51.208225 
L 142.273952 -51.208225 
L 142.273952 -42.722515 
L 141.894078 -42.722515 
L 141.894078 -43.866422 
L 141.514205 -43.866422 
L 141.514205 -47.506126 
L 141.134332 -47.506126 
L 141.134332 -44.864741 
L 140.754458 -44.864741 
L 140.754458 -42.431339 
L 140.374585 -42.431339 
L 140.374585 -40.351508 
L 139.994711 -40.351508 
L 139.994711 -45.031128 
L 139.614838 -45.031128 
L 139.614838 -42.701717 
L 139.234965 -42.701717 
L 139.234965 -40.517895 
L 138.855091 -40.517895 
L 138.855091 -41.537012 
L 138.475218 -41.537012 
L 138.475218 -39.789954 
L 138.095345 -39.789954 
L 138.095345 -43.200876 
L 137.715471 -43.200876 
L 137.715471 -40.4555 
L 137.335598 -40.4555 
L 137.335598 -39.706761 
L 136.955725 -39.706761 
L 136.955725 -39.602769 
L 136.575851 -39.602769 
L 136.575851 -38.833232 
L 136.195978 -38.833232 
L 136.195978 -39.623567 
L 135.816105 -39.623567 
L 135.816105 -38.812433 
L 135.436231 -38.812433 
L 135.436231 -39.540374 
L 135.056358 -39.540374 
L 135.056358 -38.937223 
L 134.676485 -38.937223 
L 134.676485 -39.020416 
L 134.296611 -39.020416 
L 134.296611 -38.500459 
L 133.916738 -38.500459 
L 133.916738 -38.001299 
L 133.536865 -38.001299 
L 133.536865 -38.937223 
L 133.156991 -38.937223 
L 133.156991 -38.666845 
L 132.777118 -38.666845 
L 132.777118 -37.834913 
L 132.397245 -37.834913 
L 132.397245 -38.042896 
L 132.017371 -38.042896 
L 132.017371 -38.583652 
L 131.637498 -38.583652 
L 131.637498 -38.35487 
L 131.257625 -38.35487 
L 131.257625 -37.12777 
L 130.877751 -37.12777 
L 130.877751 -38.500459 
L 130.497878 -38.500459 
L 130.497878 -36.649409 
L 130.118005 -36.649409 
L 130.118005 -38.72924 
L 129.738131 -38.72924 
L 129.738131 -37.834913 
L 129.358258 -37.834913 
L 129.358258 -37.335753 
L 128.978384 -37.335753 
L 128.978384 -38.063694 
L 128.598511 -38.063694 
L 128.598511 -36.711804 
L 128.218638 -36.711804 
L 128.218638 -38.271677 
L 127.838764 -38.271677 
L 127.838764 -36.774199 
L 127.458891 -36.774199 
L 127.458891 -38.666845 
L 127.079018 -38.666845 
L 127.079018 -36.815796 
L 126.699144 -36.815796 
L 126.699144 -38.250879 
L 126.319271 -38.250879 
L 126.319271 -36.649409 
L 125.939398 -36.649409 
L 125.939398 -37.959703 
L 125.559524 -37.959703 
L 125.559524 -36.878191 
L 125.179651 -36.878191 
L 125.179651 -38.209282 
L 124.799778 -38.209282 
L 124.799778 -37.00298 
L 124.419904 -37.00298 
L 124.419904 -37.585333 
L 124.040031 -37.585333 
L 124.040031 -37.356552 
L 123.660158 -37.356552 
L 123.660158 -36.898989 
L 123.280284 -36.898989 
L 123.280284 -37.876509 
L 122.900411 -37.876509 
L 122.900411 -36.711804 
L 122.520538 -36.711804 
L 122.520538 -37.62693 
L 122.140664 -37.62693 
L 122.140664 -37.335753 
L 121.760791 -37.335753 
L 121.760791 -36.815796 
L 121.380918 -36.815796 
L 121.380918 -37.439745 
L 121.001044 -37.439745 
L 121.001044 -37.335753 
L 120.621171 -37.335753 
L 120.621171 -36.774199 
L 120.241298 -36.774199 
L 120.241298 -37.647728 
L 119.861424 -37.647728 
L 119.861424 -37.335753 
L 119.481551 -37.335753 
L 119.481551 -36.836594 
L 119.101678 -36.836594 
L 119.101678 -37.460543 
L 118.721804 -37.460543 
L 118.721804 -36.649409 
L 118.341931 -36.649409 
L 118.341931 -37.356552 
L 117.962058 -37.356552 
L 117.962058 -37.210963 
L 117.582184 -37.210963 
L 117.582184 -36.836594 
L 117.202311 -36.836594 
L 117.202311 -37.12777 
L 116.822437 -37.12777 
L 116.822437 -36.940585 
L 116.442564 -36.940585 
L 116.442564 -37.418947 
L 116.062691 -37.418947 
L 116.062691 -36.898989 
L 115.682817 -36.898989 
L 115.682817 -37.190165 
L 115.302944 -37.190165 
L 115.302944 -36.628611 
L 114.923071 -36.628611 
L 114.923071 -37.460543 
L 114.543197 -37.460543 
L 114.543197 -37.148569 
L 114.163324 -37.148569 
L 114.163324 -36.961384 
L 113.783451 -36.961384 
L 113.783451 -36.607813 
L 113.403577 -36.607813 
L 113.403577 -36.836594 
L 113.023704 -36.836594 
L 113.023704 -36.919787 
L 112.643831 -36.919787 
L 112.643831 -36.774199 
L 112.263957 -36.774199 
L 112.263957 -36.815796 
L 111.884084 -36.815796 
L 111.884084 -36.670207 
L 111.504211 -36.670207 
L 111.504211 -36.898989 
L 111.124337 -36.898989 
L 111.124337 -37.044577 
L 110.744464 -37.044577 
L 110.744464 -36.774199 
L 110.364591 -36.774199 
L 110.364591 -36.857392 
L 109.984717 -36.857392 
L 109.984717 -36.670207 
L 109.604844 -36.670207 
L 109.604844 -37.00298 
L 109.224971 -37.00298 
L 109.224971 -36.649409 
L 108.845097 -36.649409 
L 108.845097 -36.815796 
L 108.465224 -36.815796 
L 108.465224 -36.794997 
L 108.085351 -36.794997 
L 108.085351 -36.898989 
L 107.705477 -36.898989 
L 107.705477 -36.607813 
L 107.325604 -36.607813 
L 107.325604 -36.753401 
L 106.945731 -36.753401 
L 106.945731 -36.607813 
L 106.565857 -36.607813 
L 106.565857 -36.732602 
L 106.185984 -36.732602 
L 106.185984 -36.732602 
L 105.80611 -36.732602 
L 105.80611 -36.774199 
L 105.426237 -36.774199 
L 105.426237 -36.691006 
L 105.046364 -36.691006 
L 105.046364 -36.753401 
L 104.66649 -36.753401 
L 104.66649 -36.607813 
L 104.286617 -36.607813 
L 104.286617 -36.628611 
L 103.906744 -36.628611 
L 103.906744 -36.794997 
L 103.52687 -36.794997 
L 103.52687 -36.732602 
L 103.146997 -36.732602 
L 103.146997 -36.670207 
L 102.767124 -36.670207 
L 102.767124 -36.628611 
L 102.38725 -36.628611 
L 102.38725 -36.691006 
L 102.007377 -36.691006 
L 102.007377 -36.607813 
L 101.627504 -36.607813 
L 101.627504 -36.628611 
L 101.24763 -36.628611 
L 101.24763 -36.607813 
L 100.867757 -36.607813 
L 100.867757 -36.670207 
L 100.487884 -36.670207 
L 100.487884 -36.691006 
L 100.10801 -36.691006 
L 100.10801 -36.732602 
L 99.728137 -36.732602 
L 99.728137 -36.607813 
L 99.348264 -36.607813 
L 99.348264 -36.691006 
L 98.96839 -36.691006 
L 98.96839 -36.607813 
L 98.588517 -36.607813 
L 98.588517 -36.607813 
L 98.208644 -36.607813 
L 98.208644 -36.607813 
L 97.82877 -36.607813 
L 97.82877 -36.607813 
L 97.448897 -36.607813 
L 97.448897 -36.670207 
L 97.069024 -36.670207 
L 97.069024 -36.774199 
L 96.68915 -36.774199 
L 96.68915 -36.649409 
L 96.309277 -36.649409 
L 96.309277 -36.607813 
L 95.929404 -36.607813 
L 95.929404 -36.670207 
L 95.54953 -36.670207 
L 95.54953 -36.607813 
L 95.169657 -36.607813 
L 95.169657 -36.607813 
L 94.789783 -36.607813 
L 94.789783 -36.607813 
L 94.40991 -36.607813 
L 94.40991 -36.607813 
L 94.030037 -36.607813 
L 94.030037 -36.607813 
L 93.650163 -36.607813 
L 93.650163 -36.607813 
L 93.27029 -36.607813 
L 93.27029 -36.649409 
L 92.890417 -36.649409 
L 92.890417 -36.649409 
L 92.510543 -36.649409 
L 92.510543 -36.628611 
L 92.13067 -36.628611 
L 92.13067 -36.649409 
L 91.750797 -36.649409 
L 91.750797 -36.607813 
L 91.370923 -36.607813 
L 91.370923 -36.607813 
L 90.99105 -36.607813 
L 90.99105 -36.607813 
L 90.611177 -36.607813 
L 90.611177 -36.607813 
L 90.231303 -36.607813 
L 90.231303 -36.607813 
L 89.85143 -36.607813 
L 89.85143 -36.607813 
L 89.471557 -36.607813 
L 89.471557 -36.607813 
L 89.091683 -36.607813 
L 89.091683 -36.607813 
L 88.71181 -36.607813 
L 88.71181 -36.649409 
L 88.331937 -36.649409 
L 88.331937 -36.649409 
L 87.952063 -36.649409 
L 87.952063 -36.607813 
L 87.57219 -36.607813 
L 87.57219 -36.670207 
L 87.192317 -36.670207 
L 87.192317 -36.607813 
L 86.812443 -36.607813 
L 86.812443 -36.607813 
L 86.43257 -36.607813 
L 86.43257 -36.607813 
L 86.052697 -36.607813 
L 86.052697 -36.607813 
L 85.672823 -36.607813 
L 85.672823 -36.607813 
L 85.29295 -36.607813 
L 85.29295 -36.628611 
L 84.913077 -36.628611 
L 84.913077 -36.607813 
L 84.533203 -36.607813 
L 84.533203 -36.607813 
L 84.15333 -36.607813 
L 84.15333 -36.607813 
L 83.773457 -36.607813 
L 83.773457 -36.607813 
L 83.393583 -36.607813 
L 83.393583 -36.607813 
L 83.01371 -36.607813 
L 83.01371 -36.628611 
L 82.633836 -36.628611 
L 82.633836 -36.607813 
L 82.253963 -36.607813 
L 82.253963 -36.607813 
L 81.87409 -36.607813 
L 81.87409 -36.607813 
L 81.494216 -36.607813 
L 81.494216 -36.607813 
L 81.114343 -36.607813 
L 81.114343 -36.607813 
L 80.73447 -36.607813 
L 80.73447 -36.607813 
L 80.354596 -36.607813 
L 80.354596 -36.607813 
L 79.974723 -36.607813 
L 79.974723 -36.607813 
L 79.59485 -36.607813 
L 79.59485 -36.607813 
L 79.214976 -36.607813 
L 79.214976 -36.607813 
L 78.835103 -36.607813 
L 78.835103 -36.607813 
L 78.45523 -36.607813 
L 78.45523 -36.607813 
L 78.075356 -36.607813 
L 78.075356 -36.607813 
L 77.695483 -36.607813 
L 77.695483 -36.607813 
L 77.31561 -36.607813 
L 77.31561 -36.607813 
L 76.935736 -36.607813 
L 76.935736 -36.607813 
L 76.555863 -36.607813 
L 76.555863 -36.628611 
L 76.17599 -36.628611 
L 76.17599 -36.607813 
L 75.796116 -36.607813 
L 75.796116 -36.628611 
L 75.416243 -36.628611 
L 75.416243 -36.628611 
L 75.03637 -36.628611 
L 75.03637 -36.607813 
L 74.656496 -36.607813 
L 74.656496 -36.607813 
L 74.276623 -36.607813 
L 74.276623 -36.607813 
L 73.89675 -36.607813 
L 73.89675 -36.607813 
L 73.516876 -36.607813 
L 73.516876 -36.607813 
L 73.137003 -36.607813 
L 73.137003 -36.607813 
L 72.75713 -36.607813 
L 72.75713 -36.607813 
L 72.377256 -36.607813 
L 72.377256 -36.607813 
L 71.997383 -36.607813 
L 71.997383 -36.607813 
L 71.617509 -36.607813 
L 71.617509 -36.607813 
L 71.237636 -36.607813 
L 71.237636 -36.607813 
L 70.857763 -36.607813 
L 70.857763 -36.607813 
L 70.477889 -36.607813 
L 70.477889 -36.607813 
L 70.098016 -36.607813 
L 70.098016 -36.607813 
L 69.718143 -36.607813 
L 69.718143 -36.607813 
L 69.338269 -36.607813 
L 69.338269 -36.607813 
L 68.958396 -36.607813 
L 68.958396 -36.628611 
L 68.578523 -36.628611 
z
" id="mc72f0179ab" style="stroke:#1f77b4;"/>
    </defs>
    <g clip-path="url(#p84e0acb083)">
     <use style="fill:#1f77b4;fill-opacity:0.75;stroke:#1f77b4;" x="0" xlink:href="#mc72f0179ab" y="339.235312"/>
    </g>
   </g>
   <g id="patch_3">
    <path d="M 55.15 302.6275 
L 55.15 7.2 
" style="fill:none;stroke:#262626;stroke-linecap:square;stroke-linejoin:miter;stroke-width:0.8;"/>
   </g>
   <g id="patch_4">
    <path d="M 55.15 302.6275 
L 350.5775 302.6275 
" style="fill:none;stroke:#262626;stroke-linecap:square;stroke-linejoin:miter;stroke-width:0.8;"/>
   </g>
  </g>
 </g>
 <defs>
  <clipPath id="p84e0acb083">
   <rect height="295.4275" width="295.4275" x="55.15" y="7.2"/>
  </clipPath>
 </defs>
</svg>
