<?xml version="1.0" encoding="utf-8" standalone="no"?>
<!DOCTYPE svg PUBLIC "-//W3C//DTD SVG 1.1//EN"
  "http://www.w3.org/Graphics/SVG/1.1/DTD/svg11.dtd">
<!-- Created with matplotlib (https://matplotlib.org/) -->
<svg height="339.375396pt" version="1.1" viewBox="0 0 350.868379 339.375396" width="350.868379pt" xmlns="http://www.w3.org/2000/svg" xmlns:xlink="http://www.w3.org/1999/xlink">
 <metadata>
  <rdf:RDF xmlns:cc="http://creativecommons.org/ns#" xmlns:dc="http://purl.org/dc/elements/1.1/" xmlns:rdf="http://www.w3.org/1999/02/22-rdf-syntax-ns#">
   <cc:Work>
    <dc:type rdf:resource="http://purl.org/dc/dcmitype/StillImage"/>
    <dc:date>2023-01-29T19:47:15.283398</dc:date>
    <dc:format>image/svg+xml</dc:format>
    <dc:creator>
     <cc:Agent>
      <dc:title>Matplotlib v3.3.4, https://matplotlib.org/</dc:title>
     </cc:Agent>
    </dc:creator>
   </cc:Work>
  </rdf:RDF>
 </metadata>
 <defs>
  <style type="text/css">*{stroke-linecap:butt;stroke-linejoin:round;}</style>
 </defs>
 <g id="figure_1">
  <g id="patch_1">
   <path d="M 0 339.375396 
L 350.868379 339.375396 
L 350.868379 0 
L 0 0 
z
" style="fill:#ffffff;"/>
  </g>
  <g id="axes_1">
   <g id="patch_2">
    <path d="M 49.589063 302.767584 
L 343.668379 302.767584 
L 343.668379 8.688267 
L 49.589063 8.688267 
z
" style="fill:#ffffff;"/>
   </g>
   <g id="matplotlib.axis_1">
    <g id="xtick_1">
     <g id="line2d_1">
      <defs>
       <path d="M 0 0 
L 0 3.5 
" id="m0097d272ea" style="stroke:#262626;stroke-width:0.8;"/>
      </defs>
      <g>
       <use style="fill:#262626;stroke:#262626;stroke-width:0.8;" x="52.185135" xlink:href="#m0097d272ea" y="302.767584"/>
      </g>
     </g>
     <g id="text_1">
      <text style="fill:#262626;font-family:Arial;font-size:10px;font-stretch:normal;font-style:normal;font-weight:normal;text-anchor:middle;" transform="rotate(-0, 52.185135, 316.925396)" x="52.185135" y="316.925396">−7.5</text>
     </g>
    </g>
    <g id="xtick_2">
     <g id="line2d_2">
      <g>
       <use style="fill:#262626;stroke:#262626;stroke-width:0.8;" x="85.246985" xlink:href="#m0097d272ea" y="302.767584"/>
      </g>
     </g>
     <g id="text_2">
      <text style="fill:#262626;font-family:Arial;font-size:10px;font-stretch:normal;font-style:normal;font-weight:normal;text-anchor:middle;" transform="rotate(-0, 85.246985, 316.925396)" x="85.246985" y="316.925396">−5.0</text>
     </g>
    </g>
    <g id="xtick_3">
     <g id="line2d_3">
      <g>
       <use style="fill:#262626;stroke:#262626;stroke-width:0.8;" x="118.308834" xlink:href="#m0097d272ea" y="302.767584"/>
      </g>
     </g>
     <g id="text_3">
      <text style="fill:#262626;font-family:Arial;font-size:10px;font-stretch:normal;font-style:normal;font-weight:normal;text-anchor:middle;" transform="rotate(-0, 118.308834, 316.925396)" x="118.308834" y="316.925396">−2.5</text>
     </g>
    </g>
    <g id="xtick_4">
     <g id="line2d_4">
      <g>
       <use style="fill:#262626;stroke:#262626;stroke-width:0.8;" x="151.370683" xlink:href="#m0097d272ea" y="302.767584"/>
      </g>
     </g>
     <g id="text_4">
      <text style="fill:#262626;font-family:Arial;font-size:10px;font-stretch:normal;font-style:normal;font-weight:normal;text-anchor:middle;" transform="rotate(-0, 151.370683, 316.925396)" x="151.370683" y="316.925396">0.0</text>
     </g>
    </g>
    <g id="xtick_5">
     <g id="line2d_5">
      <g>
       <use style="fill:#262626;stroke:#262626;stroke-width:0.8;" x="184.432533" xlink:href="#m0097d272ea" y="302.767584"/>
      </g>
     </g>
     <g id="text_5">
      <text style="fill:#262626;font-family:Arial;font-size:10px;font-stretch:normal;font-style:normal;font-weight:normal;text-anchor:middle;" transform="rotate(-0, 184.432533, 316.925396)" x="184.432533" y="316.925396">2.5</text>
     </g>
    </g>
    <g id="xtick_6">
     <g id="line2d_6">
      <g>
       <use style="fill:#262626;stroke:#262626;stroke-width:0.8;" x="217.494382" xlink:href="#m0097d272ea" y="302.767584"/>
      </g>
     </g>
     <g id="text_6">
      <text style="fill:#262626;font-family:Arial;font-size:10px;font-stretch:normal;font-style:normal;font-weight:normal;text-anchor:middle;" transform="rotate(-0, 217.494382, 316.925396)" x="217.494382" y="316.925396">5.0</text>
     </g>
    </g>
    <g id="xtick_7">
     <g id="line2d_7">
      <g>
       <use style="fill:#262626;stroke:#262626;stroke-width:0.8;" x="250.556231" xlink:href="#m0097d272ea" y="302.767584"/>
      </g>
     </g>
     <g id="text_7">
      <text style="fill:#262626;font-family:Arial;font-size:10px;font-stretch:normal;font-style:normal;font-weight:normal;text-anchor:middle;" transform="rotate(-0, 250.556231, 316.925396)" x="250.556231" y="316.925396">7.5</text>
     </g>
    </g>
    <g id="xtick_8">
     <g id="line2d_8">
      <g>
       <use style="fill:#262626;stroke:#262626;stroke-width:0.8;" x="283.618081" xlink:href="#m0097d272ea" y="302.767584"/>
      </g>
     </g>
     <g id="text_8">
      <text style="fill:#262626;font-family:Arial;font-size:10px;font-stretch:normal;font-style:normal;font-weight:normal;text-anchor:middle;" transform="rotate(-0, 283.618081, 316.925396)" x="283.618081" y="316.925396">10.0</text>
     </g>
    </g>
    <g id="xtick_9">
     <g id="line2d_9">
      <g>
       <use style="fill:#262626;stroke:#262626;stroke-width:0.8;" x="316.67993" xlink:href="#m0097d272ea" y="302.767584"/>
      </g>
     </g>
     <g id="text_9">
      <text style="fill:#262626;font-family:Arial;font-size:10px;font-stretch:normal;font-style:normal;font-weight:normal;text-anchor:middle;" transform="rotate(-0, 316.67993, 316.925396)" x="316.67993" y="316.925396">12.5</text>
     </g>
    </g>
    <g id="text_10">
     <text style="fill:#262626;font-family:Arial;font-size:10px;font-stretch:normal;font-style:normal;font-weight:normal;text-anchor:middle;" transform="rotate(-0, 196.628721, 330.070709)" x="196.628721" y="330.070709">standardized shortest path length</text>
    </g>
   </g>
   <g id="matplotlib.axis_2">
    <g id="ytick_1">
     <g id="line2d_10">
      <defs>
       <path d="M 0 0 
L -3.5 0 
" id="m1fb314ce4e" style="stroke:#262626;stroke-width:0.8;"/>
      </defs>
      <g>
       <use style="fill:#262626;stroke:#262626;stroke-width:0.8;" x="49.589063" xlink:href="#m1fb314ce4e" y="302.767584"/>
      </g>
     </g>
     <g id="text_11">
      <text style="fill:#262626;font-family:Arial;font-size:10px;font-stretch:normal;font-style:normal;font-weight:normal;text-anchor:end;" transform="rotate(-0, 42.589063, 306.34649)" x="42.589063" y="306.34649">0</text>
     </g>
    </g>
    <g id="ytick_2">
     <g id="line2d_11">
      <g>
       <use style="fill:#262626;stroke:#262626;stroke-width:0.8;" x="49.589063" xlink:href="#m1fb314ce4e" y="244.369848"/>
      </g>
     </g>
     <g id="text_12">
      <text style="fill:#262626;font-family:Arial;font-size:10px;font-stretch:normal;font-style:normal;font-weight:normal;text-anchor:end;" transform="rotate(-0, 42.589063, 247.948755)" x="42.589063" y="247.948755">500</text>
     </g>
    </g>
    <g id="ytick_3">
     <g id="line2d_12">
      <g>
       <use style="fill:#262626;stroke:#262626;stroke-width:0.8;" x="49.589063" xlink:href="#m1fb314ce4e" y="185.972113"/>
      </g>
     </g>
     <g id="text_13">
      <text style="fill:#262626;font-family:Arial;font-size:10px;font-stretch:normal;font-style:normal;font-weight:normal;text-anchor:end;" transform="rotate(-0, 42.589063, 189.551019)" x="42.589063" y="189.551019">1000</text>
     </g>
    </g>
    <g id="ytick_4">
     <g id="line2d_13">
      <g>
       <use style="fill:#262626;stroke:#262626;stroke-width:0.8;" x="49.589063" xlink:href="#m1fb314ce4e" y="127.574377"/>
      </g>
     </g>
     <g id="text_14">
      <text style="fill:#262626;font-family:Arial;font-size:10px;font-stretch:normal;font-style:normal;font-weight:normal;text-anchor:end;" transform="rotate(-0, 42.589063, 131.153284)" x="42.589063" y="131.153284">1500</text>
     </g>
    </g>
    <g id="ytick_5">
     <g id="line2d_14">
      <g>
       <use style="fill:#262626;stroke:#262626;stroke-width:0.8;" x="49.589063" xlink:href="#m1fb314ce4e" y="69.176642"/>
      </g>
     </g>
     <g id="text_15">
      <text style="fill:#262626;font-family:Arial;font-size:10px;font-stretch:normal;font-style:normal;font-weight:normal;text-anchor:end;" transform="rotate(-0, 42.589063, 72.755548)" x="42.589063" y="72.755548">2000</text>
     </g>
    </g>
    <g id="ytick_6">
     <g id="line2d_15">
      <g>
       <use style="fill:#262626;stroke:#262626;stroke-width:0.8;" x="49.589063" xlink:href="#m1fb314ce4e" y="10.778906"/>
      </g>
     </g>
     <g id="text_16">
      <text style="fill:#262626;font-family:Arial;font-size:10px;font-stretch:normal;font-style:normal;font-weight:normal;text-anchor:end;" transform="rotate(-0, 42.589063, 14.357812)" x="42.589063" y="14.357812">2500</text>
     </g>
    </g>
    <g id="text_17">
     <text style="fill:#262626;font-family:Arial;font-size:10px;font-stretch:normal;font-style:normal;font-weight:normal;text-anchor:middle;" transform="rotate(-90, 14.357813, 155.727926)" x="14.357813" y="155.727926">Count</text>
    </g>
   </g>
   <g id="PolyCollection_1">
    <defs>
     <path d="M 62.956304 -36.724608 
L 62.956304 -36.607813 
L 63.334444 -36.607813 
L 63.334444 -36.607813 
L 63.712584 -36.607813 
L 63.712584 -36.607813 
L 64.090724 -36.607813 
L 64.090724 -36.607813 
L 64.468863 -36.607813 
L 64.468863 -36.607813 
L 64.847003 -36.607813 
L 64.847003 -36.607813 
L 65.225143 -36.607813 
L 65.225143 -36.607813 
L 65.603283 -36.607813 
L 65.603283 -36.607813 
L 65.981422 -36.607813 
L 65.981422 -36.607813 
L 66.359562 -36.607813 
L 66.359562 -36.607813 
L 66.737702 -36.607813 
L 66.737702 -36.607813 
L 67.115842 -36.607813 
L 67.115842 -36.607813 
L 67.493982 -36.607813 
L 67.493982 -36.607813 
L 67.872121 -36.607813 
L 67.872121 -36.607813 
L 68.250261 -36.607813 
L 68.250261 -36.607813 
L 68.628401 -36.607813 
L 68.628401 -36.607813 
L 69.006541 -36.607813 
L 69.006541 -36.607813 
L 69.384681 -36.607813 
L 69.384681 -36.607813 
L 69.76282 -36.607813 
L 69.76282 -36.607813 
L 70.14096 -36.607813 
L 70.14096 -36.607813 
L 70.5191 -36.607813 
L 70.5191 -36.607813 
L 70.89724 -36.607813 
L 70.89724 -36.607813 
L 71.27538 -36.607813 
L 71.27538 -36.607813 
L 71.653519 -36.607813 
L 71.653519 -36.607813 
L 72.031659 -36.607813 
L 72.031659 -36.607813 
L 72.409799 -36.607813 
L 72.409799 -36.607813 
L 72.787939 -36.607813 
L 72.787939 -36.607813 
L 73.166079 -36.607813 
L 73.166079 -36.607813 
L 73.544218 -36.607813 
L 73.544218 -36.607813 
L 73.922358 -36.607813 
L 73.922358 -36.607813 
L 74.300498 -36.607813 
L 74.300498 -36.607813 
L 74.678638 -36.607813 
L 74.678638 -36.607813 
L 75.056778 -36.607813 
L 75.056778 -36.607813 
L 75.434917 -36.607813 
L 75.434917 -36.607813 
L 75.813057 -36.607813 
L 75.813057 -36.607813 
L 76.191197 -36.607813 
L 76.191197 -36.607813 
L 76.569337 -36.607813 
L 76.569337 -36.607813 
L 76.947476 -36.607813 
L 76.947476 -36.607813 
L 77.325616 -36.607813 
L 77.325616 -36.607813 
L 77.703756 -36.607813 
L 77.703756 -36.607813 
L 78.081896 -36.607813 
L 78.081896 -36.607813 
L 78.460036 -36.607813 
L 78.460036 -36.607813 
L 78.838175 -36.607813 
L 78.838175 -36.607813 
L 79.216315 -36.607813 
L 79.216315 -36.607813 
L 79.594455 -36.607813 
L 79.594455 -36.607813 
L 79.972595 -36.607813 
L 79.972595 -36.607813 
L 80.350735 -36.607813 
L 80.350735 -36.607813 
L 80.728874 -36.607813 
L 80.728874 -36.607813 
L 81.107014 -36.607813 
L 81.107014 -36.607813 
L 81.485154 -36.607813 
L 81.485154 -36.607813 
L 81.863294 -36.607813 
L 81.863294 -36.607813 
L 82.241434 -36.607813 
L 82.241434 -36.607813 
L 82.619573 -36.607813 
L 82.619573 -36.607813 
L 82.997713 -36.607813 
L 82.997713 -36.607813 
L 83.375853 -36.607813 
L 83.375853 -36.607813 
L 83.753993 -36.607813 
L 83.753993 -36.607813 
L 84.132133 -36.607813 
L 84.132133 -36.607813 
L 84.510272 -36.607813 
L 84.510272 -36.607813 
L 84.888412 -36.607813 
L 84.888412 -36.607813 
L 85.266552 -36.607813 
L 85.266552 -36.607813 
L 85.644692 -36.607813 
L 85.644692 -36.607813 
L 86.022831 -36.607813 
L 86.022831 -36.607813 
L 86.400971 -36.607813 
L 86.400971 -36.607813 
L 86.779111 -36.607813 
L 86.779111 -36.607813 
L 87.157251 -36.607813 
L 87.157251 -36.607813 
L 87.535391 -36.607813 
L 87.535391 -36.607813 
L 87.91353 -36.607813 
L 87.91353 -36.607813 
L 88.29167 -36.607813 
L 88.29167 -36.607813 
L 88.66981 -36.607813 
L 88.66981 -36.607813 
L 89.04795 -36.607813 
L 89.04795 -36.607813 
L 89.42609 -36.607813 
L 89.42609 -36.607813 
L 89.804229 -36.607813 
L 89.804229 -36.607813 
L 90.182369 -36.607813 
L 90.182369 -36.607813 
L 90.560509 -36.607813 
L 90.560509 -36.607813 
L 90.938649 -36.607813 
L 90.938649 -36.607813 
L 91.316789 -36.607813 
L 91.316789 -36.607813 
L 91.694928 -36.607813 
L 91.694928 -36.607813 
L 92.073068 -36.607813 
L 92.073068 -36.607813 
L 92.451208 -36.607813 
L 92.451208 -36.607813 
L 92.829348 -36.607813 
L 92.829348 -36.607813 
L 93.207488 -36.607813 
L 93.207488 -36.607813 
L 93.585627 -36.607813 
L 93.585627 -36.607813 
L 93.963767 -36.607813 
L 93.963767 -36.607813 
L 94.341907 -36.607813 
L 94.341907 -36.607813 
L 94.720047 -36.607813 
L 94.720047 -36.607813 
L 95.098187 -36.607813 
L 95.098187 -36.607813 
L 95.476326 -36.607813 
L 95.476326 -36.607813 
L 95.854466 -36.607813 
L 95.854466 -36.607813 
L 96.232606 -36.607813 
L 96.232606 -36.607813 
L 96.610746 -36.607813 
L 96.610746 -36.607813 
L 96.988885 -36.607813 
L 96.988885 -36.607813 
L 97.367025 -36.607813 
L 97.367025 -36.607813 
L 97.745165 -36.607813 
L 97.745165 -36.607813 
L 98.123305 -36.607813 
L 98.123305 -36.607813 
L 98.501445 -36.607813 
L 98.501445 -36.607813 
L 98.879584 -36.607813 
L 98.879584 -36.607813 
L 99.257724 -36.607813 
L 99.257724 -36.607813 
L 99.635864 -36.607813 
L 99.635864 -36.607813 
L 100.014004 -36.607813 
L 100.014004 -36.607813 
L 100.392144 -36.607813 
L 100.392144 -36.607813 
L 100.770283 -36.607813 
L 100.770283 -36.607813 
L 101.148423 -36.607813 
L 101.148423 -36.607813 
L 101.526563 -36.607813 
L 101.526563 -36.607813 
L 101.904703 -36.607813 
L 101.904703 -36.607813 
L 102.282843 -36.607813 
L 102.282843 -36.607813 
L 102.660982 -36.607813 
L 102.660982 -36.607813 
L 103.039122 -36.607813 
L 103.039122 -36.607813 
L 103.417262 -36.607813 
L 103.417262 -36.607813 
L 103.795402 -36.607813 
L 103.795402 -36.607813 
L 104.173542 -36.607813 
L 104.173542 -36.607813 
L 104.551681 -36.607813 
L 104.551681 -36.607813 
L 104.929821 -36.607813 
L 104.929821 -36.607813 
L 105.307961 -36.607813 
L 105.307961 -36.607813 
L 105.686101 -36.607813 
L 105.686101 -36.607813 
L 106.06424 -36.607813 
L 106.06424 -36.607813 
L 106.44238 -36.607813 
L 106.44238 -36.607813 
L 106.82052 -36.607813 
L 106.82052 -36.607813 
L 107.19866 -36.607813 
L 107.19866 -36.607813 
L 107.5768 -36.607813 
L 107.5768 -36.607813 
L 107.954939 -36.607813 
L 107.954939 -36.607813 
L 108.333079 -36.607813 
L 108.333079 -36.607813 
L 108.711219 -36.607813 
L 108.711219 -36.607813 
L 109.089359 -36.607813 
L 109.089359 -36.607813 
L 109.467499 -36.607813 
L 109.467499 -36.607813 
L 109.845638 -36.607813 
L 109.845638 -36.607813 
L 110.223778 -36.607813 
L 110.223778 -36.607813 
L 110.601918 -36.607813 
L 110.601918 -36.607813 
L 110.980058 -36.607813 
L 110.980058 -36.607813 
L 111.358198 -36.607813 
L 111.358198 -36.607813 
L 111.736337 -36.607813 
L 111.736337 -36.607813 
L 112.114477 -36.607813 
L 112.114477 -36.607813 
L 112.492617 -36.607813 
L 112.492617 -36.607813 
L 112.870757 -36.607813 
L 112.870757 -36.607813 
L 113.248897 -36.607813 
L 113.248897 -36.607813 
L 113.627036 -36.607813 
L 113.627036 -36.607813 
L 114.005176 -36.607813 
L 114.005176 -36.607813 
L 114.383316 -36.607813 
L 114.383316 -36.607813 
L 114.761456 -36.607813 
L 114.761456 -36.607813 
L 115.139596 -36.607813 
L 115.139596 -36.607813 
L 115.517735 -36.607813 
L 115.517735 -36.607813 
L 115.895875 -36.607813 
L 115.895875 -36.607813 
L 116.274015 -36.607813 
L 116.274015 -36.607813 
L 116.652155 -36.607813 
L 116.652155 -36.607813 
L 117.030294 -36.607813 
L 117.030294 -36.607813 
L 117.408434 -36.607813 
L 117.408434 -36.607813 
L 117.786574 -36.607813 
L 117.786574 -36.607813 
L 118.164714 -36.607813 
L 118.164714 -36.607813 
L 118.542854 -36.607813 
L 118.542854 -36.607813 
L 118.920993 -36.607813 
L 118.920993 -36.607813 
L 119.299133 -36.607813 
L 119.299133 -36.607813 
L 119.677273 -36.607813 
L 119.677273 -36.607813 
L 120.055413 -36.607813 
L 120.055413 -36.607813 
L 120.433553 -36.607813 
L 120.433553 -36.607813 
L 120.811692 -36.607813 
L 120.811692 -36.607813 
L 121.189832 -36.607813 
L 121.189832 -36.607813 
L 121.567972 -36.607813 
L 121.567972 -36.607813 
L 121.946112 -36.607813 
L 121.946112 -36.607813 
L 122.324252 -36.607813 
L 122.324252 -36.607813 
L 122.702391 -36.607813 
L 122.702391 -36.607813 
L 123.080531 -36.607813 
L 123.080531 -36.607813 
L 123.458671 -36.607813 
L 123.458671 -36.607813 
L 123.836811 -36.607813 
L 123.836811 -36.607813 
L 124.214951 -36.607813 
L 124.214951 -36.607813 
L 124.59309 -36.607813 
L 124.59309 -36.607813 
L 124.97123 -36.607813 
L 124.97123 -36.607813 
L 125.34937 -36.607813 
L 125.34937 -36.607813 
L 125.72751 -36.607813 
L 125.72751 -36.607813 
L 126.105649 -36.607813 
L 126.105649 -36.607813 
L 126.483789 -36.607813 
L 126.483789 -36.607813 
L 126.861929 -36.607813 
L 126.861929 -36.607813 
L 127.240069 -36.607813 
L 127.240069 -36.607813 
L 127.618209 -36.607813 
L 127.618209 -36.607813 
L 127.996348 -36.607813 
L 127.996348 -36.607813 
L 128.374488 -36.607813 
L 128.374488 -36.607813 
L 128.752628 -36.607813 
L 128.752628 -36.607813 
L 129.130768 -36.607813 
L 129.130768 -36.607813 
L 129.508908 -36.607813 
L 129.508908 -36.607813 
L 129.887047 -36.607813 
L 129.887047 -36.607813 
L 130.265187 -36.607813 
L 130.265187 -36.607813 
L 130.643327 -36.607813 
L 130.643327 -36.607813 
L 131.021467 -36.607813 
L 131.021467 -36.607813 
L 131.399607 -36.607813 
L 131.399607 -36.607813 
L 131.777746 -36.607813 
L 131.777746 -36.607813 
L 132.155886 -36.607813 
L 132.155886 -36.607813 
L 132.534026 -36.607813 
L 132.534026 -36.607813 
L 132.912166 -36.607813 
L 132.912166 -36.607813 
L 133.290306 -36.607813 
L 133.290306 -36.607813 
L 133.668445 -36.607813 
L 133.668445 -36.607813 
L 134.046585 -36.607813 
L 134.046585 -36.607813 
L 134.424725 -36.607813 
L 134.424725 -36.607813 
L 134.802865 -36.607813 
L 134.802865 -36.607813 
L 135.181004 -36.607813 
L 135.181004 -36.607813 
L 135.559144 -36.607813 
L 135.559144 -36.607813 
L 135.937284 -36.607813 
L 135.937284 -36.607813 
L 136.315424 -36.607813 
L 136.315424 -36.607813 
L 136.693564 -36.607813 
L 136.693564 -36.607813 
L 137.071703 -36.607813 
L 137.071703 -36.607813 
L 137.449843 -36.607813 
L 137.449843 -36.607813 
L 137.827983 -36.607813 
L 137.827983 -36.607813 
L 138.206123 -36.607813 
L 138.206123 -36.607813 
L 138.584263 -36.607813 
L 138.584263 -36.607813 
L 138.962402 -36.607813 
L 138.962402 -36.607813 
L 139.340542 -36.607813 
L 139.340542 -36.607813 
L 139.718682 -36.607813 
L 139.718682 -36.607813 
L 140.096822 -36.607813 
L 140.096822 -36.607813 
L 140.474962 -36.607813 
L 140.474962 -36.607813 
L 140.853101 -36.607813 
L 140.853101 -36.607813 
L 141.231241 -36.607813 
L 141.231241 -36.607813 
L 141.609381 -36.607813 
L 141.609381 -36.607813 
L 141.987521 -36.607813 
L 141.987521 -36.607813 
L 142.365661 -36.607813 
L 142.365661 -36.607813 
L 142.7438 -36.607813 
L 142.7438 -36.607813 
L 143.12194 -36.607813 
L 143.12194 -36.607813 
L 143.50008 -36.607813 
L 143.50008 -36.607813 
L 143.87822 -36.607813 
L 143.87822 -36.607813 
L 144.25636 -36.607813 
L 144.25636 -36.607813 
L 144.634499 -36.607813 
L 144.634499 -36.607813 
L 145.012639 -36.607813 
L 145.012639 -36.607813 
L 145.390779 -36.607813 
L 145.390779 -36.607813 
L 145.768919 -36.607813 
L 145.768919 -36.607813 
L 146.147058 -36.607813 
L 146.147058 -36.607813 
L 146.525198 -36.607813 
L 146.525198 -36.607813 
L 146.903338 -36.607813 
L 146.903338 -36.607813 
L 147.281478 -36.607813 
L 147.281478 -36.607813 
L 147.659618 -36.607813 
L 147.659618 -36.607813 
L 148.037757 -36.607813 
L 148.037757 -36.607813 
L 148.415897 -36.607813 
L 148.415897 -36.607813 
L 148.794037 -36.607813 
L 148.794037 -36.607813 
L 149.172177 -36.607813 
L 149.172177 -36.607813 
L 149.550317 -36.607813 
L 149.550317 -36.607813 
L 149.928456 -36.607813 
L 149.928456 -36.607813 
L 150.306596 -36.607813 
L 150.306596 -36.607813 
L 150.684736 -36.607813 
L 150.684736 -36.607813 
L 151.062876 -36.607813 
L 151.062876 -36.607813 
L 151.441016 -36.607813 
L 151.441016 -36.607813 
L 151.819155 -36.607813 
L 151.819155 -36.607813 
L 152.197295 -36.607813 
L 152.197295 -36.607813 
L 152.575435 -36.607813 
L 152.575435 -36.607813 
L 152.953575 -36.607813 
L 152.953575 -36.607813 
L 153.331715 -36.607813 
L 153.331715 -36.607813 
L 153.709854 -36.607813 
L 153.709854 -36.607813 
L 154.087994 -36.607813 
L 154.087994 -36.607813 
L 154.466134 -36.607813 
L 154.466134 -36.607813 
L 154.844274 -36.607813 
L 154.844274 -36.607813 
L 155.222413 -36.607813 
L 155.222413 -36.607813 
L 155.600553 -36.607813 
L 155.600553 -36.607813 
L 155.978693 -36.607813 
L 155.978693 -36.607813 
L 156.356833 -36.607813 
L 156.356833 -36.607813 
L 156.734973 -36.607813 
L 156.734973 -36.607813 
L 157.113112 -36.607813 
L 157.113112 -36.607813 
L 157.491252 -36.607813 
L 157.491252 -36.607813 
L 157.869392 -36.607813 
L 157.869392 -36.607813 
L 158.247532 -36.607813 
L 158.247532 -36.607813 
L 158.625672 -36.607813 
L 158.625672 -36.607813 
L 159.003811 -36.607813 
L 159.003811 -36.607813 
L 159.381951 -36.607813 
L 159.381951 -36.607813 
L 159.760091 -36.607813 
L 159.760091 -36.607813 
L 160.138231 -36.607813 
L 160.138231 -36.607813 
L 160.516371 -36.607813 
L 160.516371 -36.607813 
L 160.89451 -36.607813 
L 160.89451 -36.607813 
L 161.27265 -36.607813 
L 161.27265 -36.607813 
L 161.65079 -36.607813 
L 161.65079 -36.607813 
L 162.02893 -36.607813 
L 162.02893 -36.607813 
L 162.40707 -36.607813 
L 162.40707 -36.607813 
L 162.785209 -36.607813 
L 162.785209 -36.607813 
L 163.163349 -36.607813 
L 163.163349 -36.607813 
L 163.541489 -36.607813 
L 163.541489 -36.607813 
L 163.919629 -36.607813 
L 163.919629 -36.607813 
L 164.297769 -36.607813 
L 164.297769 -36.607813 
L 164.675908 -36.607813 
L 164.675908 -36.607813 
L 165.054048 -36.607813 
L 165.054048 -36.607813 
L 165.432188 -36.607813 
L 165.432188 -36.607813 
L 165.810328 -36.607813 
L 165.810328 -36.607813 
L 166.188467 -36.607813 
L 166.188467 -36.607813 
L 166.566607 -36.607813 
L 166.566607 -36.607813 
L 166.944747 -36.607813 
L 166.944747 -36.607813 
L 167.322887 -36.607813 
L 167.322887 -36.607813 
L 167.701027 -36.607813 
L 167.701027 -36.607813 
L 168.079166 -36.607813 
L 168.079166 -36.607813 
L 168.457306 -36.607813 
L 168.457306 -36.607813 
L 168.835446 -36.607813 
L 168.835446 -36.607813 
L 169.213586 -36.607813 
L 169.213586 -36.607813 
L 169.591726 -36.607813 
L 169.591726 -36.607813 
L 169.969865 -36.607813 
L 169.969865 -36.607813 
L 170.348005 -36.607813 
L 170.348005 -36.607813 
L 170.726145 -36.607813 
L 170.726145 -36.607813 
L 171.104285 -36.607813 
L 171.104285 -36.607813 
L 171.482425 -36.607813 
L 171.482425 -36.607813 
L 171.860564 -36.607813 
L 171.860564 -36.607813 
L 172.238704 -36.607813 
L 172.238704 -36.607813 
L 172.616844 -36.607813 
L 172.616844 -36.607813 
L 172.994984 -36.607813 
L 172.994984 -36.607813 
L 173.373124 -36.607813 
L 173.373124 -36.607813 
L 173.751263 -36.607813 
L 173.751263 -36.607813 
L 174.129403 -36.607813 
L 174.129403 -36.607813 
L 174.507543 -36.607813 
L 174.507543 -36.607813 
L 174.885683 -36.607813 
L 174.885683 -36.607813 
L 175.263822 -36.607813 
L 175.263822 -36.607813 
L 175.641962 -36.607813 
L 175.641962 -36.607813 
L 176.020102 -36.607813 
L 176.020102 -36.607813 
L 176.398242 -36.607813 
L 176.398242 -36.607813 
L 176.776382 -36.607813 
L 176.776382 -36.607813 
L 177.154521 -36.607813 
L 177.154521 -36.607813 
L 177.532661 -36.607813 
L 177.532661 -36.607813 
L 177.910801 -36.607813 
L 177.910801 -36.607813 
L 178.288941 -36.607813 
L 178.288941 -36.607813 
L 178.667081 -36.607813 
L 178.667081 -36.607813 
L 179.04522 -36.607813 
L 179.04522 -36.607813 
L 179.42336 -36.607813 
L 179.42336 -36.607813 
L 179.8015 -36.607813 
L 179.8015 -36.607813 
L 180.17964 -36.607813 
L 180.17964 -36.607813 
L 180.55778 -36.607813 
L 180.55778 -36.607813 
L 180.935919 -36.607813 
L 180.935919 -36.607813 
L 181.314059 -36.607813 
L 181.314059 -36.607813 
L 181.692199 -36.607813 
L 181.692199 -36.607813 
L 182.070339 -36.607813 
L 182.070339 -36.607813 
L 182.448479 -36.607813 
L 182.448479 -36.607813 
L 182.826618 -36.607813 
L 182.826618 -36.607813 
L 183.204758 -36.607813 
L 183.204758 -36.607813 
L 183.582898 -36.607813 
L 183.582898 -36.607813 
L 183.961038 -36.607813 
L 183.961038 -36.607813 
L 184.339178 -36.607813 
L 184.339178 -36.607813 
L 184.717317 -36.607813 
L 184.717317 -36.607813 
L 185.095457 -36.607813 
L 185.095457 -36.607813 
L 185.473597 -36.607813 
L 185.473597 -36.607813 
L 185.851737 -36.607813 
L 185.851737 -36.607813 
L 186.229876 -36.607813 
L 186.229876 -36.607813 
L 186.608016 -36.607813 
L 186.608016 -36.607813 
L 186.986156 -36.607813 
L 186.986156 -36.607813 
L 187.364296 -36.607813 
L 187.364296 -36.607813 
L 187.742436 -36.607813 
L 187.742436 -36.607813 
L 188.120575 -36.607813 
L 188.120575 -36.607813 
L 188.498715 -36.607813 
L 188.498715 -36.607813 
L 188.876855 -36.607813 
L 188.876855 -36.607813 
L 189.254995 -36.607813 
L 189.254995 -36.607813 
L 189.633135 -36.607813 
L 189.633135 -36.607813 
L 190.011274 -36.607813 
L 190.011274 -36.607813 
L 190.389414 -36.607813 
L 190.389414 -36.607813 
L 190.767554 -36.607813 
L 190.767554 -36.607813 
L 191.145694 -36.607813 
L 191.145694 -36.607813 
L 191.523834 -36.607813 
L 191.523834 -36.607813 
L 191.901973 -36.607813 
L 191.901973 -36.607813 
L 192.280113 -36.607813 
L 192.280113 -36.607813 
L 192.658253 -36.607813 
L 192.658253 -36.607813 
L 193.036393 -36.607813 
L 193.036393 -36.607813 
L 193.414533 -36.607813 
L 193.414533 -36.607813 
L 193.792672 -36.607813 
L 193.792672 -36.607813 
L 194.170812 -36.607813 
L 194.170812 -36.607813 
L 194.548952 -36.607813 
L 194.548952 -36.607813 
L 194.927092 -36.607813 
L 194.927092 -36.607813 
L 195.305231 -36.607813 
L 195.305231 -36.607813 
L 195.683371 -36.607813 
L 195.683371 -36.607813 
L 196.061511 -36.607813 
L 196.061511 -36.607813 
L 196.439651 -36.607813 
L 196.439651 -36.607813 
L 196.817791 -36.607813 
L 196.817791 -36.607813 
L 197.19593 -36.607813 
L 197.19593 -36.607813 
L 197.57407 -36.607813 
L 197.57407 -36.607813 
L 197.95221 -36.607813 
L 197.95221 -36.607813 
L 198.33035 -36.607813 
L 198.33035 -36.607813 
L 198.70849 -36.607813 
L 198.70849 -36.607813 
L 199.086629 -36.607813 
L 199.086629 -36.607813 
L 199.464769 -36.607813 
L 199.464769 -36.607813 
L 199.842909 -36.607813 
L 199.842909 -36.607813 
L 200.221049 -36.607813 
L 200.221049 -36.607813 
L 200.599189 -36.607813 
L 200.599189 -36.607813 
L 200.977328 -36.607813 
L 200.977328 -36.607813 
L 201.355468 -36.607813 
L 201.355468 -36.607813 
L 201.733608 -36.607813 
L 201.733608 -36.607813 
L 202.111748 -36.607813 
L 202.111748 -36.607813 
L 202.489888 -36.607813 
L 202.489888 -36.607813 
L 202.868027 -36.607813 
L 202.868027 -36.607813 
L 203.246167 -36.607813 
L 203.246167 -36.607813 
L 203.624307 -36.607813 
L 203.624307 -36.607813 
L 204.002447 -36.607813 
L 204.002447 -36.607813 
L 204.380587 -36.607813 
L 204.380587 -36.607813 
L 204.758726 -36.607813 
L 204.758726 -36.607813 
L 205.136866 -36.607813 
L 205.136866 -36.607813 
L 205.515006 -36.607813 
L 205.515006 -36.607813 
L 205.893146 -36.607813 
L 205.893146 -36.607813 
L 206.271285 -36.607813 
L 206.271285 -36.607813 
L 206.649425 -36.607813 
L 206.649425 -36.607813 
L 207.027565 -36.607813 
L 207.027565 -36.607813 
L 207.405705 -36.607813 
L 207.405705 -36.607813 
L 207.783845 -36.607813 
L 207.783845 -36.607813 
L 208.161984 -36.607813 
L 208.161984 -36.607813 
L 208.540124 -36.607813 
L 208.540124 -36.607813 
L 208.918264 -36.607813 
L 208.918264 -36.607813 
L 209.296404 -36.607813 
L 209.296404 -36.607813 
L 209.674544 -36.607813 
L 209.674544 -36.607813 
L 210.052683 -36.607813 
L 210.052683 -36.607813 
L 210.430823 -36.607813 
L 210.430823 -36.607813 
L 210.808963 -36.607813 
L 210.808963 -36.607813 
L 211.187103 -36.607813 
L 211.187103 -36.607813 
L 211.565243 -36.607813 
L 211.565243 -36.607813 
L 211.943382 -36.607813 
L 211.943382 -36.607813 
L 212.321522 -36.607813 
L 212.321522 -36.607813 
L 212.699662 -36.607813 
L 212.699662 -36.607813 
L 213.077802 -36.607813 
L 213.077802 -36.607813 
L 213.455942 -36.607813 
L 213.455942 -36.607813 
L 213.834081 -36.607813 
L 213.834081 -36.607813 
L 214.212221 -36.607813 
L 214.212221 -36.607813 
L 214.590361 -36.607813 
L 214.590361 -36.607813 
L 214.968501 -36.607813 
L 214.968501 -36.607813 
L 215.34664 -36.607813 
L 215.34664 -36.607813 
L 215.72478 -36.607813 
L 215.72478 -36.607813 
L 216.10292 -36.607813 
L 216.10292 -36.607813 
L 216.48106 -36.607813 
L 216.48106 -36.607813 
L 216.8592 -36.607813 
L 216.8592 -36.607813 
L 217.237339 -36.607813 
L 217.237339 -36.607813 
L 217.615479 -36.607813 
L 217.615479 -36.607813 
L 217.993619 -36.607813 
L 217.993619 -36.607813 
L 218.371759 -36.607813 
L 218.371759 -36.607813 
L 218.749899 -36.607813 
L 218.749899 -36.607813 
L 219.128038 -36.607813 
L 219.128038 -36.607813 
L 219.506178 -36.607813 
L 219.506178 -36.607813 
L 219.884318 -36.607813 
L 219.884318 -36.607813 
L 220.262458 -36.607813 
L 220.262458 -36.607813 
L 220.640598 -36.607813 
L 220.640598 -36.607813 
L 221.018737 -36.607813 
L 221.018737 -36.607813 
L 221.396877 -36.607813 
L 221.396877 -36.607813 
L 221.775017 -36.607813 
L 221.775017 -36.607813 
L 222.153157 -36.607813 
L 222.153157 -36.607813 
L 222.531297 -36.607813 
L 222.531297 -36.607813 
L 222.909436 -36.607813 
L 222.909436 -36.607813 
L 223.287576 -36.607813 
L 223.287576 -36.607813 
L 223.665716 -36.607813 
L 223.665716 -36.607813 
L 224.043856 -36.607813 
L 224.043856 -36.607813 
L 224.421995 -36.607813 
L 224.421995 -36.607813 
L 224.800135 -36.607813 
L 224.800135 -36.607813 
L 225.178275 -36.607813 
L 225.178275 -36.607813 
L 225.556415 -36.607813 
L 225.556415 -36.607813 
L 225.934555 -36.607813 
L 225.934555 -36.607813 
L 226.312694 -36.607813 
L 226.312694 -36.607813 
L 226.690834 -36.607813 
L 226.690834 -36.607813 
L 227.068974 -36.607813 
L 227.068974 -36.607813 
L 227.447114 -36.607813 
L 227.447114 -36.607813 
L 227.825254 -36.607813 
L 227.825254 -36.607813 
L 228.203393 -36.607813 
L 228.203393 -36.607813 
L 228.581533 -36.607813 
L 228.581533 -36.607813 
L 228.959673 -36.607813 
L 228.959673 -36.607813 
L 229.337813 -36.607813 
L 229.337813 -36.607813 
L 229.715953 -36.607813 
L 229.715953 -36.607813 
L 230.094092 -36.607813 
L 230.094092 -36.607813 
L 230.472232 -36.607813 
L 230.472232 -36.607813 
L 230.850372 -36.607813 
L 230.850372 -36.607813 
L 231.228512 -36.607813 
L 231.228512 -36.607813 
L 231.606652 -36.607813 
L 231.606652 -36.607813 
L 231.984791 -36.607813 
L 231.984791 -36.607813 
L 232.362931 -36.607813 
L 232.362931 -36.607813 
L 232.741071 -36.607813 
L 232.741071 -36.607813 
L 233.119211 -36.607813 
L 233.119211 -36.607813 
L 233.497351 -36.607813 
L 233.497351 -36.607813 
L 233.87549 -36.607813 
L 233.87549 -36.607813 
L 234.25363 -36.607813 
L 234.25363 -36.607813 
L 234.63177 -36.607813 
L 234.63177 -36.607813 
L 235.00991 -36.607813 
L 235.00991 -36.607813 
L 235.388049 -36.607813 
L 235.388049 -36.607813 
L 235.766189 -36.607813 
L 235.766189 -36.607813 
L 236.144329 -36.607813 
L 236.144329 -36.607813 
L 236.522469 -36.607813 
L 236.522469 -36.607813 
L 236.900609 -36.607813 
L 236.900609 -36.607813 
L 237.278748 -36.607813 
L 237.278748 -36.607813 
L 237.656888 -36.607813 
L 237.656888 -36.607813 
L 238.035028 -36.607813 
L 238.035028 -36.607813 
L 238.413168 -36.607813 
L 238.413168 -36.607813 
L 238.791308 -36.607813 
L 238.791308 -36.607813 
L 239.169447 -36.607813 
L 239.169447 -36.607813 
L 239.547587 -36.607813 
L 239.547587 -36.607813 
L 239.925727 -36.607813 
L 239.925727 -36.607813 
L 240.303867 -36.607813 
L 240.303867 -36.607813 
L 240.682007 -36.607813 
L 240.682007 -36.607813 
L 241.060146 -36.607813 
L 241.060146 -36.607813 
L 241.438286 -36.607813 
L 241.438286 -36.607813 
L 241.816426 -36.607813 
L 241.816426 -36.607813 
L 242.194566 -36.607813 
L 242.194566 -36.607813 
L 242.572706 -36.607813 
L 242.572706 -36.607813 
L 242.950845 -36.607813 
L 242.950845 -36.607813 
L 243.328985 -36.607813 
L 243.328985 -36.607813 
L 243.707125 -36.607813 
L 243.707125 -36.607813 
L 244.085265 -36.607813 
L 244.085265 -36.607813 
L 244.463404 -36.607813 
L 244.463404 -36.607813 
L 244.841544 -36.607813 
L 244.841544 -36.607813 
L 245.219684 -36.607813 
L 245.219684 -36.607813 
L 245.597824 -36.607813 
L 245.597824 -36.607813 
L 245.975964 -36.607813 
L 245.975964 -36.607813 
L 246.354103 -36.607813 
L 246.354103 -36.607813 
L 246.732243 -36.607813 
L 246.732243 -36.607813 
L 247.110383 -36.607813 
L 247.110383 -36.607813 
L 247.488523 -36.607813 
L 247.488523 -36.607813 
L 247.866663 -36.607813 
L 247.866663 -36.607813 
L 248.244802 -36.607813 
L 248.244802 -36.607813 
L 248.622942 -36.607813 
L 248.622942 -36.607813 
L 249.001082 -36.607813 
L 249.001082 -36.607813 
L 249.379222 -36.607813 
L 249.379222 -36.607813 
L 249.757362 -36.607813 
L 249.757362 -36.607813 
L 250.135501 -36.607813 
L 250.135501 -36.607813 
L 250.513641 -36.607813 
L 250.513641 -36.607813 
L 250.891781 -36.607813 
L 250.891781 -36.607813 
L 251.269921 -36.607813 
L 251.269921 -36.607813 
L 251.648061 -36.607813 
L 251.648061 -36.607813 
L 252.0262 -36.607813 
L 252.0262 -36.607813 
L 252.40434 -36.607813 
L 252.40434 -36.607813 
L 252.78248 -36.607813 
L 252.78248 -36.607813 
L 253.16062 -36.607813 
L 253.16062 -36.607813 
L 253.53876 -36.607813 
L 253.53876 -36.607813 
L 253.916899 -36.607813 
L 253.916899 -36.607813 
L 254.295039 -36.607813 
L 254.295039 -36.607813 
L 254.673179 -36.607813 
L 254.673179 -36.607813 
L 255.051319 -36.607813 
L 255.051319 -36.607813 
L 255.429458 -36.607813 
L 255.429458 -36.607813 
L 255.807598 -36.607813 
L 255.807598 -36.607813 
L 256.185738 -36.607813 
L 256.185738 -36.607813 
L 256.563878 -36.607813 
L 256.563878 -36.607813 
L 256.942018 -36.607813 
L 256.942018 -36.607813 
L 257.320157 -36.607813 
L 257.320157 -36.607813 
L 257.698297 -36.607813 
L 257.698297 -36.607813 
L 258.076437 -36.607813 
L 258.076437 -36.607813 
L 258.454577 -36.607813 
L 258.454577 -36.607813 
L 258.832717 -36.607813 
L 258.832717 -36.607813 
L 259.210856 -36.607813 
L 259.210856 -36.607813 
L 259.588996 -36.607813 
L 259.588996 -36.607813 
L 259.967136 -36.607813 
L 259.967136 -36.607813 
L 260.345276 -36.607813 
L 260.345276 -36.607813 
L 260.723416 -36.607813 
L 260.723416 -36.607813 
L 261.101555 -36.607813 
L 261.101555 -36.607813 
L 261.479695 -36.607813 
L 261.479695 -36.607813 
L 261.857835 -36.607813 
L 261.857835 -36.607813 
L 262.235975 -36.607813 
L 262.235975 -36.607813 
L 262.614115 -36.607813 
L 262.614115 -36.607813 
L 262.992254 -36.607813 
L 262.992254 -36.607813 
L 263.370394 -36.607813 
L 263.370394 -36.607813 
L 263.748534 -36.607813 
L 263.748534 -36.607813 
L 264.126674 -36.607813 
L 264.126674 -36.607813 
L 264.504813 -36.607813 
L 264.504813 -36.607813 
L 264.882953 -36.607813 
L 264.882953 -36.607813 
L 265.261093 -36.607813 
L 265.261093 -36.607813 
L 265.639233 -36.607813 
L 265.639233 -36.607813 
L 266.017373 -36.607813 
L 266.017373 -36.607813 
L 266.395512 -36.607813 
L 266.395512 -36.607813 
L 266.773652 -36.607813 
L 266.773652 -36.607813 
L 267.151792 -36.607813 
L 267.151792 -36.607813 
L 267.529932 -36.607813 
L 267.529932 -36.607813 
L 267.908072 -36.607813 
L 267.908072 -36.607813 
L 268.286211 -36.607813 
L 268.286211 -36.607813 
L 268.664351 -36.607813 
L 268.664351 -36.607813 
L 269.042491 -36.607813 
L 269.042491 -36.607813 
L 269.420631 -36.607813 
L 269.420631 -36.607813 
L 269.798771 -36.607813 
L 269.798771 -36.607813 
L 270.17691 -36.607813 
L 270.17691 -36.607813 
L 270.55505 -36.607813 
L 270.55505 -36.607813 
L 270.93319 -36.607813 
L 270.93319 -36.607813 
L 271.31133 -36.607813 
L 271.31133 -36.607813 
L 271.68947 -36.607813 
L 271.68947 -36.607813 
L 272.067609 -36.607813 
L 272.067609 -36.607813 
L 272.445749 -36.607813 
L 272.445749 -36.607813 
L 272.823889 -36.607813 
L 272.823889 -36.607813 
L 273.202029 -36.607813 
L 273.202029 -36.607813 
L 273.580169 -36.607813 
L 273.580169 -36.607813 
L 273.958308 -36.607813 
L 273.958308 -36.607813 
L 274.336448 -36.607813 
L 274.336448 -36.607813 
L 274.714588 -36.607813 
L 274.714588 -36.607813 
L 275.092728 -36.607813 
L 275.092728 -36.607813 
L 275.470867 -36.607813 
L 275.470867 -36.607813 
L 275.849007 -36.607813 
L 275.849007 -36.607813 
L 276.227147 -36.607813 
L 276.227147 -36.607813 
L 276.605287 -36.607813 
L 276.605287 -36.607813 
L 276.983427 -36.607813 
L 276.983427 -36.607813 
L 277.361566 -36.607813 
L 277.361566 -36.607813 
L 277.739706 -36.607813 
L 277.739706 -36.607813 
L 278.117846 -36.607813 
L 278.117846 -36.607813 
L 278.495986 -36.607813 
L 278.495986 -36.607813 
L 278.874126 -36.607813 
L 278.874126 -36.607813 
L 279.252265 -36.607813 
L 279.252265 -36.607813 
L 279.630405 -36.607813 
L 279.630405 -36.607813 
L 280.008545 -36.607813 
L 280.008545 -36.607813 
L 280.386685 -36.607813 
L 280.386685 -36.607813 
L 280.764825 -36.607813 
L 280.764825 -36.607813 
L 281.142964 -36.607813 
L 281.142964 -36.607813 
L 281.521104 -36.607813 
L 281.521104 -36.607813 
L 281.899244 -36.607813 
L 281.899244 -36.607813 
L 282.277384 -36.607813 
L 282.277384 -36.607813 
L 282.655524 -36.607813 
L 282.655524 -36.607813 
L 283.033663 -36.607813 
L 283.033663 -36.607813 
L 283.411803 -36.607813 
L 283.411803 -36.607813 
L 283.789943 -36.607813 
L 283.789943 -36.607813 
L 284.168083 -36.607813 
L 284.168083 -36.607813 
L 284.546222 -36.607813 
L 284.546222 -36.607813 
L 284.924362 -36.607813 
L 284.924362 -36.607813 
L 285.302502 -36.607813 
L 285.302502 -36.607813 
L 285.680642 -36.607813 
L 285.680642 -36.607813 
L 286.058782 -36.607813 
L 286.058782 -36.607813 
L 286.436921 -36.607813 
L 286.436921 -36.607813 
L 286.815061 -36.607813 
L 286.815061 -36.607813 
L 287.193201 -36.607813 
L 287.193201 -36.607813 
L 287.571341 -36.607813 
L 287.571341 -36.607813 
L 287.949481 -36.607813 
L 287.949481 -36.607813 
L 288.32762 -36.607813 
L 288.32762 -36.607813 
L 288.70576 -36.607813 
L 288.70576 -36.607813 
L 289.0839 -36.607813 
L 289.0839 -36.607813 
L 289.46204 -36.607813 
L 289.46204 -36.607813 
L 289.84018 -36.607813 
L 289.84018 -36.607813 
L 290.218319 -36.607813 
L 290.218319 -36.607813 
L 290.596459 -36.607813 
L 290.596459 -36.607813 
L 290.974599 -36.607813 
L 290.974599 -36.607813 
L 291.352739 -36.607813 
L 291.352739 -36.607813 
L 291.730879 -36.607813 
L 291.730879 -36.607813 
L 292.109018 -36.607813 
L 292.109018 -36.607813 
L 292.487158 -36.607813 
L 292.487158 -36.607813 
L 292.865298 -36.607813 
L 292.865298 -36.607813 
L 293.243438 -36.607813 
L 293.243438 -36.607813 
L 293.621577 -36.607813 
L 293.621577 -36.607813 
L 293.999717 -36.607813 
L 293.999717 -36.607813 
L 294.377857 -36.607813 
L 294.377857 -36.607813 
L 294.755997 -36.607813 
L 294.755997 -36.607813 
L 295.134137 -36.607813 
L 295.134137 -36.607813 
L 295.512276 -36.607813 
L 295.512276 -36.607813 
L 295.890416 -36.607813 
L 295.890416 -36.607813 
L 296.268556 -36.607813 
L 296.268556 -36.607813 
L 296.646696 -36.607813 
L 296.646696 -36.607813 
L 297.024836 -36.607813 
L 297.024836 -36.607813 
L 297.402975 -36.607813 
L 297.402975 -36.607813 
L 297.781115 -36.607813 
L 297.781115 -36.607813 
L 298.159255 -36.607813 
L 298.159255 -36.607813 
L 298.537395 -36.607813 
L 298.537395 -36.607813 
L 298.915535 -36.607813 
L 298.915535 -36.607813 
L 299.293674 -36.607813 
L 299.293674 -36.607813 
L 299.671814 -36.607813 
L 299.671814 -36.607813 
L 300.049954 -36.607813 
L 300.049954 -36.607813 
L 300.428094 -36.607813 
L 300.428094 -36.607813 
L 300.806234 -36.607813 
L 300.806234 -36.607813 
L 301.184373 -36.607813 
L 301.184373 -36.607813 
L 301.562513 -36.607813 
L 301.562513 -36.607813 
L 301.940653 -36.607813 
L 301.940653 -36.607813 
L 302.318793 -36.607813 
L 302.318793 -36.607813 
L 302.696933 -36.607813 
L 302.696933 -36.607813 
L 303.075072 -36.607813 
L 303.075072 -36.607813 
L 303.453212 -36.607813 
L 303.453212 -36.607813 
L 303.831352 -36.607813 
L 303.831352 -36.607813 
L 304.209492 -36.607813 
L 304.209492 -36.607813 
L 304.587631 -36.607813 
L 304.587631 -36.607813 
L 304.965771 -36.607813 
L 304.965771 -36.607813 
L 305.343911 -36.607813 
L 305.343911 -36.607813 
L 305.722051 -36.607813 
L 305.722051 -36.607813 
L 306.100191 -36.607813 
L 306.100191 -36.607813 
L 306.47833 -36.607813 
L 306.47833 -36.607813 
L 306.85647 -36.607813 
L 306.85647 -36.607813 
L 307.23461 -36.607813 
L 307.23461 -36.607813 
L 307.61275 -36.607813 
L 307.61275 -36.607813 
L 307.99089 -36.607813 
L 307.99089 -36.607813 
L 308.369029 -36.607813 
L 308.369029 -36.607813 
L 308.747169 -36.607813 
L 308.747169 -36.607813 
L 309.125309 -36.607813 
L 309.125309 -36.607813 
L 309.503449 -36.607813 
L 309.503449 -36.607813 
L 309.881589 -36.607813 
L 309.881589 -36.607813 
L 310.259728 -36.607813 
L 310.259728 -36.607813 
L 310.637868 -36.607813 
L 310.637868 -36.607813 
L 311.016008 -36.607813 
L 311.016008 -36.607813 
L 311.394148 -36.607813 
L 311.394148 -36.607813 
L 311.772288 -36.607813 
L 311.772288 -36.607813 
L 312.150427 -36.607813 
L 312.150427 -36.607813 
L 312.528567 -36.607813 
L 312.528567 -36.607813 
L 312.906707 -36.607813 
L 312.906707 -36.607813 
L 313.284847 -36.607813 
L 313.284847 -36.607813 
L 313.662986 -36.607813 
L 313.662986 -36.607813 
L 314.041126 -36.607813 
L 314.041126 -36.607813 
L 314.419266 -36.607813 
L 314.419266 -36.607813 
L 314.797406 -36.607813 
L 314.797406 -36.607813 
L 315.175546 -36.607813 
L 315.175546 -36.607813 
L 315.553685 -36.607813 
L 315.553685 -36.607813 
L 315.931825 -36.607813 
L 315.931825 -36.607813 
L 316.309965 -36.607813 
L 316.309965 -36.607813 
L 316.688105 -36.607813 
L 316.688105 -36.607813 
L 317.066245 -36.607813 
L 317.066245 -36.607813 
L 317.444384 -36.607813 
L 317.444384 -36.607813 
L 317.822524 -36.607813 
L 317.822524 -36.607813 
L 318.200664 -36.607813 
L 318.200664 -36.607813 
L 318.578804 -36.607813 
L 318.578804 -36.607813 
L 318.956944 -36.607813 
L 318.956944 -36.607813 
L 319.335083 -36.607813 
L 319.335083 -36.607813 
L 319.713223 -36.607813 
L 319.713223 -36.607813 
L 320.091363 -36.607813 
L 320.091363 -36.607813 
L 320.469503 -36.607813 
L 320.469503 -36.607813 
L 320.847643 -36.607813 
L 320.847643 -36.607813 
L 321.225782 -36.607813 
L 321.225782 -36.607813 
L 321.603922 -36.607813 
L 321.603922 -36.607813 
L 321.982062 -36.607813 
L 321.982062 -36.607813 
L 322.360202 -36.607813 
L 322.360202 -36.607813 
L 322.738342 -36.607813 
L 322.738342 -36.607813 
L 323.116481 -36.607813 
L 323.116481 -36.607813 
L 323.494621 -36.607813 
L 323.494621 -36.607813 
L 323.872761 -36.607813 
L 323.872761 -36.607813 
L 324.250901 -36.607813 
L 324.250901 -36.607813 
L 324.62904 -36.607813 
L 324.62904 -36.607813 
L 325.00718 -36.607813 
L 325.00718 -36.607813 
L 325.38532 -36.607813 
L 325.38532 -36.607813 
L 325.76346 -36.607813 
L 325.76346 -36.607813 
L 326.1416 -36.607813 
L 326.1416 -36.607813 
L 326.519739 -36.607813 
L 326.519739 -36.607813 
L 326.897879 -36.607813 
L 326.897879 -36.607813 
L 327.276019 -36.607813 
L 327.276019 -36.607813 
L 327.654159 -36.607813 
L 327.654159 -36.607813 
L 328.032299 -36.607813 
L 328.032299 -36.607813 
L 328.410438 -36.607813 
L 328.410438 -36.607813 
L 328.788578 -36.607813 
L 328.788578 -36.607813 
L 329.166718 -36.607813 
L 329.166718 -36.607813 
L 329.544858 -36.607813 
L 329.544858 -36.607813 
L 329.922998 -36.607813 
L 329.922998 -36.607813 
L 330.301137 -36.607813 
L 330.301137 -36.607813 
L 330.301137 -36.724608 
L 330.301137 -36.724608 
L 330.301137 -36.724608 
L 329.922998 -36.724608 
L 329.922998 -36.607813 
L 329.544858 -36.607813 
L 329.544858 -36.607813 
L 329.166718 -36.607813 
L 329.166718 -36.607813 
L 328.788578 -36.607813 
L 328.788578 -36.607813 
L 328.410438 -36.607813 
L 328.410438 -36.607813 
L 328.032299 -36.607813 
L 328.032299 -36.607813 
L 327.654159 -36.607813 
L 327.654159 -36.607813 
L 327.276019 -36.607813 
L 327.276019 -36.607813 
L 326.897879 -36.607813 
L 326.897879 -36.607813 
L 326.519739 -36.607813 
L 326.519739 -36.607813 
L 326.1416 -36.607813 
L 326.1416 -36.607813 
L 325.76346 -36.607813 
L 325.76346 -36.607813 
L 325.38532 -36.607813 
L 325.38532 -36.607813 
L 325.00718 -36.607813 
L 325.00718 -36.607813 
L 324.62904 -36.607813 
L 324.62904 -36.607813 
L 324.250901 -36.607813 
L 324.250901 -36.607813 
L 323.872761 -36.607813 
L 323.872761 -36.607813 
L 323.494621 -36.607813 
L 323.494621 -36.607813 
L 323.116481 -36.607813 
L 323.116481 -36.607813 
L 322.738342 -36.607813 
L 322.738342 -36.607813 
L 322.360202 -36.607813 
L 322.360202 -36.607813 
L 321.982062 -36.607813 
L 321.982062 -36.607813 
L 321.603922 -36.607813 
L 321.603922 -36.607813 
L 321.225782 -36.607813 
L 321.225782 -36.607813 
L 320.847643 -36.607813 
L 320.847643 -36.607813 
L 320.469503 -36.607813 
L 320.469503 -36.607813 
L 320.091363 -36.607813 
L 320.091363 -36.607813 
L 319.713223 -36.607813 
L 319.713223 -36.607813 
L 319.335083 -36.607813 
L 319.335083 -36.607813 
L 318.956944 -36.607813 
L 318.956944 -36.607813 
L 318.578804 -36.607813 
L 318.578804 -36.607813 
L 318.200664 -36.607813 
L 318.200664 -36.607813 
L 317.822524 -36.607813 
L 317.822524 -36.724608 
L 317.444384 -36.724608 
L 317.444384 -36.607813 
L 317.066245 -36.607813 
L 317.066245 -36.724608 
L 316.688105 -36.724608 
L 316.688105 -36.607813 
L 316.309965 -36.607813 
L 316.309965 -36.841403 
L 315.931825 -36.841403 
L 315.931825 -36.607813 
L 315.553685 -36.607813 
L 315.553685 -36.607813 
L 315.175546 -36.607813 
L 315.175546 -36.841403 
L 314.797406 -36.841403 
L 314.797406 -36.724608 
L 314.419266 -36.724608 
L 314.419266 -36.724608 
L 314.041126 -36.724608 
L 314.041126 -36.607813 
L 313.662986 -36.607813 
L 313.662986 -36.724608 
L 313.284847 -36.724608 
L 313.284847 -36.724608 
L 312.906707 -36.724608 
L 312.906707 -36.607813 
L 312.528567 -36.607813 
L 312.528567 -36.724608 
L 312.150427 -36.724608 
L 312.150427 -36.724608 
L 311.772288 -36.724608 
L 311.772288 -36.607813 
L 311.394148 -36.607813 
L 311.394148 -36.607813 
L 311.016008 -36.607813 
L 311.016008 -36.724608 
L 310.637868 -36.724608 
L 310.637868 -36.607813 
L 310.259728 -36.607813 
L 310.259728 -36.607813 
L 309.881589 -36.607813 
L 309.881589 -36.607813 
L 309.503449 -36.607813 
L 309.503449 -36.724608 
L 309.125309 -36.724608 
L 309.125309 -36.724608 
L 308.747169 -36.724608 
L 308.747169 -36.607813 
L 308.369029 -36.607813 
L 308.369029 -36.724608 
L 307.99089 -36.724608 
L 307.99089 -36.724608 
L 307.61275 -36.724608 
L 307.61275 -36.841403 
L 307.23461 -36.841403 
L 307.23461 -36.607813 
L 306.85647 -36.607813 
L 306.85647 -36.724608 
L 306.47833 -36.724608 
L 306.47833 -36.607813 
L 306.100191 -36.607813 
L 306.100191 -36.724608 
L 305.722051 -36.724608 
L 305.722051 -36.607813 
L 305.343911 -36.607813 
L 305.343911 -36.841403 
L 304.965771 -36.841403 
L 304.965771 -36.607813 
L 304.587631 -36.607813 
L 304.587631 -36.724608 
L 304.209492 -36.724608 
L 304.209492 -36.724608 
L 303.831352 -36.724608 
L 303.831352 -36.607813 
L 303.453212 -36.607813 
L 303.453212 -36.958199 
L 303.075072 -36.958199 
L 303.075072 -36.724608 
L 302.696933 -36.724608 
L 302.696933 -36.958199 
L 302.318793 -36.958199 
L 302.318793 -37.425381 
L 301.940653 -37.425381 
L 301.940653 -36.958199 
L 301.562513 -36.958199 
L 301.562513 -36.724608 
L 301.184373 -36.724608 
L 301.184373 -36.607813 
L 300.806234 -36.607813 
L 300.806234 -36.841403 
L 300.428094 -36.841403 
L 300.428094 -37.074994 
L 300.049954 -37.074994 
L 300.049954 -36.958199 
L 299.671814 -36.958199 
L 299.671814 -36.958199 
L 299.293674 -36.958199 
L 299.293674 -36.724608 
L 298.915535 -36.724608 
L 298.915535 -36.607813 
L 298.537395 -36.607813 
L 298.537395 -36.607813 
L 298.159255 -36.607813 
L 298.159255 -36.607813 
L 297.781115 -36.607813 
L 297.781115 -36.724608 
L 297.402975 -36.724608 
L 297.402975 -37.19179 
L 297.024836 -37.19179 
L 297.024836 -36.841403 
L 296.646696 -36.841403 
L 296.646696 -36.958199 
L 296.268556 -36.958199 
L 296.268556 -36.841403 
L 295.890416 -36.841403 
L 295.890416 -37.658972 
L 295.512276 -37.658972 
L 295.512276 -36.724608 
L 295.134137 -36.724608 
L 295.134137 -37.074994 
L 294.755997 -37.074994 
L 294.755997 -37.19179 
L 294.377857 -37.19179 
L 294.377857 -37.074994 
L 293.999717 -37.074994 
L 293.999717 -37.308585 
L 293.621577 -37.308585 
L 293.621577 -37.308585 
L 293.243438 -37.308585 
L 293.243438 -37.658972 
L 292.865298 -37.658972 
L 292.865298 -37.074994 
L 292.487158 -37.074994 
L 292.487158 -37.19179 
L 292.109018 -37.19179 
L 292.109018 -37.074994 
L 291.730879 -37.074994 
L 291.730879 -37.658972 
L 291.352739 -37.658972 
L 291.352739 -37.658972 
L 290.974599 -37.658972 
L 290.974599 -37.658972 
L 290.596459 -37.658972 
L 290.596459 -36.958199 
L 290.218319 -36.958199 
L 290.218319 -36.958199 
L 289.84018 -36.958199 
L 289.84018 -38.009358 
L 289.46204 -38.009358 
L 289.46204 -37.308585 
L 289.0839 -37.308585 
L 289.0839 -37.775767 
L 288.70576 -37.775767 
L 288.70576 -37.542176 
L 288.32762 -37.542176 
L 288.32762 -37.542176 
L 287.949481 -37.542176 
L 287.949481 -37.658972 
L 287.571341 -37.658972 
L 287.571341 -38.593336 
L 287.193201 -38.593336 
L 287.193201 -37.425381 
L 286.815061 -37.425381 
L 286.815061 -37.542176 
L 286.436921 -37.542176 
L 286.436921 -37.775767 
L 286.058782 -37.775767 
L 286.058782 -38.009358 
L 285.680642 -38.009358 
L 285.680642 -37.658972 
L 285.302502 -37.658972 
L 285.302502 -37.658972 
L 284.924362 -37.658972 
L 284.924362 -38.593336 
L 284.546222 -38.593336 
L 284.546222 -37.425381 
L 284.168083 -37.425381 
L 284.168083 -37.775767 
L 283.789943 -37.775767 
L 283.789943 -38.710131 
L 283.411803 -38.710131 
L 283.411803 -38.47654 
L 283.033663 -38.47654 
L 283.033663 -38.359745 
L 282.655524 -38.359745 
L 282.655524 -38.710131 
L 282.277384 -38.710131 
L 282.277384 -38.242949 
L 281.899244 -38.242949 
L 281.899244 -38.710131 
L 281.521104 -38.710131 
L 281.521104 -38.359745 
L 281.142964 -38.359745 
L 281.142964 -38.943722 
L 280.764825 -38.943722 
L 280.764825 -38.826926 
L 280.386685 -38.826926 
L 280.386685 -39.177313 
L 280.008545 -39.177313 
L 280.008545 -38.47654 
L 279.630405 -38.47654 
L 279.630405 -38.593336 
L 279.252265 -38.593336 
L 279.252265 -38.710131 
L 278.874126 -38.710131 
L 278.874126 -38.826926 
L 278.495986 -38.826926 
L 278.495986 -39.994881 
L 278.117846 -39.994881 
L 278.117846 -38.47654 
L 277.739706 -38.47654 
L 277.739706 -39.644495 
L 277.361566 -39.644495 
L 277.361566 -39.644495 
L 276.983427 -39.644495 
L 276.983427 -40.111677 
L 276.605287 -40.111677 
L 276.605287 -39.527699 
L 276.227147 -39.527699 
L 276.227147 -39.060517 
L 275.849007 -39.060517 
L 275.849007 -39.410904 
L 275.470867 -39.410904 
L 275.470867 -39.294108 
L 275.092728 -39.294108 
L 275.092728 -40.462063 
L 274.714588 -40.462063 
L 274.714588 -40.578859 
L 274.336448 -40.578859 
L 274.336448 -39.410904 
L 273.958308 -39.410904 
L 273.958308 -41.279631 
L 273.580169 -41.279631 
L 273.580169 -39.878086 
L 273.202029 -39.878086 
L 273.202029 -40.111677 
L 272.823889 -40.111677 
L 272.823889 -41.162836 
L 272.445749 -41.162836 
L 272.445749 -41.630018 
L 272.067609 -41.630018 
L 272.067609 -41.980404 
L 271.68947 -41.980404 
L 271.68947 -41.04604 
L 271.31133 -41.04604 
L 271.31133 -42.914768 
L 270.93319 -42.914768 
L 270.93319 -41.746813 
L 270.55505 -41.746813 
L 270.55505 -41.980404 
L 270.17691 -41.980404 
L 270.17691 -42.914768 
L 269.798771 -42.914768 
L 269.798771 -42.564382 
L 269.420631 -42.564382 
L 269.420631 -44.433109 
L 269.042491 -44.433109 
L 269.042491 -43.498745 
L 268.664351 -43.498745 
L 268.664351 -42.564382 
L 268.286211 -42.564382 
L 268.286211 -44.082723 
L 267.908072 -44.082723 
L 267.908072 -42.681177 
L 267.529932 -42.681177 
L 267.529932 -43.148359 
L 267.151792 -43.148359 
L 267.151792 -45.250677 
L 266.773652 -45.250677 
L 266.773652 -44.316314 
L 266.395512 -44.316314 
L 266.395512 -46.535428 
L 266.017373 -46.535428 
L 266.017373 -45.484268 
L 265.639233 -45.484268 
L 265.639233 -47.586587 
L 265.261093 -47.586587 
L 265.261093 -47.119405 
L 264.882953 -47.119405 
L 264.882953 -47.586587 
L 264.504813 -47.586587 
L 264.504813 -45.717859 
L 264.126674 -45.717859 
L 264.126674 -48.053769 
L 263.748534 -48.053769 
L 263.748534 -47.586587 
L 263.370394 -47.586587 
L 263.370394 -46.418632 
L 262.992254 -46.418632 
L 262.992254 -48.754541 
L 262.614115 -48.754541 
L 262.614115 -47.586587 
L 262.235975 -47.586587 
L 262.235975 -48.754541 
L 261.857835 -48.754541 
L 261.857835 -50.389678 
L 261.479695 -50.389678 
L 261.479695 -50.623269 
L 261.101555 -50.623269 
L 261.101555 -48.637746 
L 260.723416 -48.637746 
L 260.723416 -51.440837 
L 260.345276 -51.440837 
L 260.345276 -50.389678 
L 259.967136 -50.389678 
L 259.967136 -53.776747 
L 259.588996 -53.776747 
L 259.588996 -51.908019 
L 259.210856 -51.908019 
L 259.210856 -49.805701 
L 258.832717 -49.805701 
L 258.832717 -51.908019 
L 258.454577 -51.908019 
L 258.454577 -53.42636 
L 258.076437 -53.42636 
L 258.076437 -54.827906 
L 257.698297 -54.827906 
L 257.698297 -56.813429 
L 257.320157 -56.813429 
L 257.320157 -54.243929 
L 256.942018 -54.243929 
L 256.942018 -56.813429 
L 256.563878 -56.813429 
L 256.563878 -58.565361 
L 256.185738 -58.565361 
L 256.185738 -57.514202 
L 255.807598 -57.514202 
L 255.807598 -59.499725 
L 255.429458 -59.499725 
L 255.429458 -59.61652 
L 255.051319 -59.61652 
L 255.051319 -59.733316 
L 254.673179 -59.733316 
L 254.673179 -59.149338 
L 254.295039 -59.149338 
L 254.295039 -63.120384 
L 253.916899 -63.120384 
L 253.916899 -63.003589 
L 253.53876 -63.003589 
L 253.53876 -61.134861 
L 253.16062 -61.134861 
L 253.16062 -66.974635 
L 252.78248 -66.974635 
L 252.78248 -63.704362 
L 252.40434 -63.704362 
L 252.40434 -68.376181 
L 252.0262 -68.376181 
L 252.0262 -67.558612 
L 251.648061 -67.558612 
L 251.648061 -69.777726 
L 251.269921 -69.777726 
L 251.269921 -69.777726 
L 250.891781 -69.777726 
L 250.891781 -68.609772 
L 250.513641 -68.609772 
L 250.513641 -69.777726 
L 250.135501 -69.777726 
L 250.135501 -70.128113 
L 249.757362 -70.128113 
L 249.757362 -71.062476 
L 249.379222 -71.062476 
L 249.379222 -74.449545 
L 249.001082 -74.449545 
L 249.001082 -75.150318 
L 248.622942 -75.150318 
L 248.622942 -75.734295 
L 248.244802 -75.734295 
L 248.244802 -78.654182 
L 247.866663 -78.654182 
L 247.866663 -79.121364 
L 247.488523 -79.121364 
L 247.488523 -73.865568 
L 247.110383 -73.865568 
L 247.110383 -77.603023 
L 246.732243 -77.603023 
L 246.732243 -83.676387 
L 246.354103 -83.676387 
L 246.354103 -79.238159 
L 245.975964 -79.238159 
L 245.975964 -84.493956 
L 245.597824 -84.493956 
L 245.597824 -87.297047 
L 245.219684 -87.297047 
L 245.219684 -89.983343 
L 244.841544 -89.983343 
L 244.841544 -86.129092 
L 244.463404 -86.129092 
L 244.463404 -85.545115 
L 244.085265 -85.545115 
L 244.085265 -89.749752 
L 243.707125 -89.749752 
L 243.707125 -93.13682 
L 243.328985 -93.13682 
L 243.328985 -97.224662 
L 242.950845 -97.224662 
L 242.950845 -95.589525 
L 242.572706 -95.589525 
L 242.572706 -96.056707 
L 242.194566 -96.056707 
L 242.194566 -99.910958 
L 241.816426 -99.910958 
L 241.816426 -103.648413 
L 241.438286 -103.648413 
L 241.438286 -103.181231 
L 241.060146 -103.181231 
L 241.060146 -104.349186 
L 240.682007 -104.349186 
L 240.682007 -106.217913 
L 240.303867 -106.217913 
L 240.303867 -104.23239 
L 239.925727 -104.23239 
L 239.925727 -105.283549 
L 239.547587 -105.283549 
L 239.547587 -112.174482 
L 239.169447 -112.174482 
L 239.169447 -111.473709 
L 238.791308 -111.473709 
L 238.791308 -117.079892 
L 238.413168 -117.079892 
L 238.413168 -117.196688 
L 238.035028 -117.196688 
L 238.035028 -112.408073 
L 237.656888 -112.408073 
L 237.656888 -119.999779 
L 237.278748 -119.999779 
L 237.278748 -121.401324 
L 236.900609 -121.401324 
L 236.900609 -125.255575 
L 236.522469 -125.255575 
L 236.522469 -125.021984 
L 236.144329 -125.021984 
L 236.144329 -128.99303 
L 235.766189 -128.99303 
L 235.766189 -130.628167 
L 235.388049 -130.628167 
L 235.388049 -137.051918 
L 235.00991 -137.051918 
L 235.00991 -133.89844 
L 234.63177 -133.89844 
L 234.63177 -140.555782 
L 234.25363 -140.555782 
L 234.25363 -139.271032 
L 233.87549 -139.271032 
L 233.87549 -137.402304 
L 233.497351 -137.402304 
L 233.497351 -144.293237 
L 233.119211 -144.293237 
L 233.119211 -145.811578 
L 232.741071 -145.811578 
L 232.741071 -144.059646 
L 232.362931 -144.059646 
L 232.362931 -148.264283 
L 231.984791 -148.264283 
L 231.984791 -151.768147 
L 231.606652 -151.768147 
L 231.606652 -156.673557 
L 231.228512 -156.673557 
L 231.228512 -159.359853 
L 230.850372 -159.359853 
L 230.850372 -161.22858 
L 230.472232 -161.22858 
L 230.472232 -166.834763 
L 230.094092 -166.834763 
L 230.094092 -160.761398 
L 229.715953 -160.761398 
L 229.715953 -162.980512 
L 229.337813 -162.980512 
L 229.337813 -164.382058 
L 228.959673 -164.382058 
L 228.959673 -166.367581 
L 228.581533 -166.367581 
L 228.581533 -168.586695 
L 228.203393 -168.586695 
L 228.203393 -176.411991 
L 227.825254 -176.411991 
L 227.825254 -175.594423 
L 227.447114 -175.594423 
L 227.447114 -185.405243 
L 227.068974 -185.405243 
L 227.068974 -181.434197 
L 226.690834 -181.434197 
L 226.690834 -180.032651 
L 226.312694 -180.032651 
L 226.312694 -188.55872 
L 225.934555 -188.55872 
L 225.934555 -189.84347 
L 225.556415 -189.84347 
L 225.556415 -190.427448 
L 225.178275 -190.427448 
L 225.178275 -201.172631 
L 224.800135 -201.172631 
L 224.800135 -200.471858 
L 224.421995 -200.471858 
L 224.421995 -204.793291 
L 224.043856 -204.793291 
L 224.043856 -205.260473 
L 223.665716 -205.260473 
L 223.665716 -206.895609 
L 223.287576 -206.895609 
L 223.287576 -208.647541 
L 222.909436 -208.647541 
L 222.909436 -223.830953 
L 222.531297 -223.830953 
L 222.531297 -210.633064 
L 222.153157 -210.633064 
L 222.153157 -219.743111 
L 221.775017 -219.743111 
L 221.775017 -216.472838 
L 221.396877 -216.472838 
L 221.396877 -221.84543 
L 221.018737 -221.84543 
L 221.018737 -222.079021 
L 220.640598 -222.079021 
L 220.640598 -227.918794 
L 220.262458 -227.918794 
L 220.262458 -236.561659 
L 219.884318 -236.561659 
L 219.884318 -237.846409 
L 219.506178 -237.846409 
L 219.506178 -232.473817 
L 219.128038 -232.473817 
L 219.128038 -240.299114 
L 218.749899 -240.299114 
L 218.749899 -239.131159 
L 218.371759 -239.131159 
L 218.371759 -240.182319 
L 217.993619 -240.182319 
L 217.993619 -251.978661 
L 217.615479 -251.978661 
L 217.615479 -244.503751 
L 217.237339 -244.503751 
L 217.237339 -251.394684 
L 216.8592 -251.394684 
L 216.8592 -253.964184 
L 216.48106 -253.964184 
L 216.48106 -262.84064 
L 216.10292 -262.84064 
L 216.10292 -261.322299 
L 215.72478 -261.322299 
L 215.72478 -256.884071 
L 215.34664 -256.884071 
L 215.34664 -260.621526 
L 214.968501 -260.621526 
L 214.968501 -266.461299 
L 214.590361 -266.461299 
L 214.590361 -267.979641 
L 214.212221 -267.979641 
L 214.212221 -259.570367 
L 213.834081 -259.570367 
L 213.834081 -272.417869 
L 213.455942 -272.417869 
L 213.455942 -275.104164 
L 213.077802 -275.104164 
L 213.077802 -278.374438 
L 212.699662 -278.374438 
L 212.699662 -279.308801 
L 212.321522 -279.308801 
L 212.321522 -272.067482 
L 211.943382 -272.067482 
L 211.943382 -279.542392 
L 211.565243 -279.542392 
L 211.565243 -280.943938 
L 211.187103 -280.943938 
L 211.187103 -280.710347 
L 210.808963 -280.710347 
L 210.808963 -299.748009 
L 210.430823 -299.748009 
L 210.430823 -297.295304 
L 210.052683 -297.295304 
L 210.052683 -287.367689 
L 209.674544 -287.367689 
L 209.674544 -297.762486 
L 209.296404 -297.762486 
L 209.296404 -285.148575 
L 208.918264 -285.148575 
L 208.918264 -296.36094 
L 208.540124 -296.36094 
L 208.540124 -299.514418 
L 208.161984 -299.514418 
L 208.161984 -300.799168 
L 207.783845 -300.799168 
L 207.783845 -304.303032 
L 207.405705 -304.303032 
L 207.405705 -303.602259 
L 207.027565 -303.602259 
L 207.027565 -306.755737 
L 206.649425 -306.755737 
L 206.649425 -301.383145 
L 206.271285 -301.383145 
L 206.271285 -297.879281 
L 205.893146 -297.879281 
L 205.893146 -309.675624 
L 205.515006 -309.675624 
L 205.515006 -303.602259 
L 205.136866 -303.602259 
L 205.136866 -298.813645 
L 204.758726 -298.813645 
L 204.758726 -310.02601 
L 204.380587 -310.02601 
L 204.380587 -305.704578 
L 204.002447 -305.704578 
L 204.002447 -314.347443 
L 203.624307 -314.347443 
L 203.624307 -304.186237 
L 203.246167 -304.186237 
L 203.246167 -304.536623 
L 202.868027 -304.536623 
L 202.868027 -312.36192 
L 202.489888 -312.36192 
L 202.489888 -315.982579 
L 202.111748 -315.982579 
L 202.111748 -315.982579 
L 201.733608 -315.982579 
L 201.733608 -315.048215 
L 201.355468 -315.048215 
L 201.355468 -309.675624 
L 200.977328 -309.675624 
L 200.977328 -298.463259 
L 200.599189 -298.463259 
L 200.599189 -314.581034 
L 200.221049 -314.581034 
L 200.221049 -308.858055 
L 199.842909 -308.858055 
L 199.842909 -308.624465 
L 199.464769 -308.624465 
L 199.464769 -311.077169 
L 199.086629 -311.077169 
L 199.086629 -309.208442 
L 198.70849 -309.208442 
L 198.70849 -316.683352 
L 198.33035 -316.683352 
L 198.33035 -310.142806 
L 197.95221 -310.142806 
L 197.95221 -300.565577 
L 197.57407 -300.565577 
L 197.57407 -309.442033 
L 197.19593 -309.442033 
L 197.19593 -314.347443 
L 196.817791 -314.347443 
L 196.817791 -315.398602 
L 196.439651 -315.398602 
L 196.439651 -304.069441 
L 196.061511 -304.069441 
L 196.061511 -313.997056 
L 195.683371 -313.997056 
L 195.683371 -306.638942 
L 195.305231 -306.638942 
L 195.305231 -306.288555 
L 194.927092 -306.288555 
L 194.927092 -306.288555 
L 194.548952 -306.288555 
L 194.548952 -311.661147 
L 194.170812 -311.661147 
L 194.170812 -305.704578 
L 193.792672 -305.704578 
L 193.792672 -314.814625 
L 193.414533 -314.814625 
L 193.414533 -312.245124 
L 193.036393 -312.245124 
L 193.036393 -309.675624 
L 192.658253 -309.675624 
L 192.658253 -312.595511 
L 192.280113 -312.595511 
L 192.280113 -300.331986 
L 191.901973 -300.331986 
L 191.901973 -308.624465 
L 191.523834 -308.624465 
L 191.523834 -297.178508 
L 191.145694 -297.178508 
L 191.145694 -306.755737 
L 190.767554 -306.755737 
L 190.767554 -306.288555 
L 190.389414 -306.288555 
L 190.389414 -310.02601 
L 190.011274 -310.02601 
L 190.011274 -294.609008 
L 189.633135 -294.609008 
L 189.633135 -312.712306 
L 189.254995 -312.712306 
L 189.254995 -312.128329 
L 188.876855 -312.128329 
L 188.876855 -306.288555 
L 188.498715 -306.288555 
L 188.498715 -315.165011 
L 188.120575 -315.165011 
L 188.120575 -295.07619 
L 187.742436 -295.07619 
L 187.742436 -304.419828 
L 187.364296 -304.419828 
L 187.364296 -306.872532 
L 186.986156 -306.872532 
L 186.986156 -307.690101 
L 186.608016 -307.690101 
L 186.608016 -303.368668 
L 186.229876 -303.368668 
L 186.229876 -309.091646 
L 185.851737 -309.091646 
L 185.851737 -305.003805 
L 185.473597 -305.003805 
L 185.473597 -309.675624 
L 185.095457 -309.675624 
L 185.095457 -280.476756 
L 184.717317 -280.476756 
L 184.717317 -297.762486 
L 184.339178 -297.762486 
L 184.339178 -293.674644 
L 183.961038 -293.674644 
L 183.961038 -308.974851 
L 183.582898 -308.974851 
L 183.582898 -299.864804 
L 183.204758 -299.864804 
L 183.204758 -301.26635 
L 182.826618 -301.26635 
L 182.826618 -297.528895 
L 182.448479 -297.528895 
L 182.448479 -287.017302 
L 182.070339 -287.017302 
L 182.070339 -298.93044 
L 181.692199 -298.93044 
L 181.692199 -296.477736 
L 181.314059 -296.477736 
L 181.314059 -301.383145 
L 180.935919 -301.383145 
L 180.935919 -286.550121 
L 180.55778 -286.550121 
L 180.55778 -295.543372 
L 180.17964 -295.543372 
L 180.17964 -294.141826 
L 179.8015 -294.141826 
L 179.8015 -290.754757 
L 179.42336 -290.754757 
L 179.42336 -290.287576 
L 179.04522 -290.287576 
L 179.04522 -293.441053 
L 178.667081 -293.441053 
L 178.667081 -283.163052 
L 178.288941 -283.163052 
L 178.288941 -293.557849 
L 177.910801 -293.557849 
L 177.910801 -286.666916 
L 177.532661 -286.666916 
L 177.532661 -303.251873 
L 177.154521 -303.251873 
L 177.154521 -281.41112 
L 176.776382 -281.41112 
L 176.776382 -286.550121 
L 176.398242 -286.550121 
L 176.398242 -285.615757 
L 176.020102 -285.615757 
L 176.020102 -288.185257 
L 175.641962 -288.185257 
L 175.641962 -277.907256 
L 175.263822 -277.907256 
L 175.263822 -286.666916 
L 174.885683 -286.666916 
L 174.885683 -277.673665 
L 174.507543 -277.673665 
L 174.507543 -276.739301 
L 174.129403 -276.739301 
L 174.129403 -270.081959 
L 173.751263 -270.081959 
L 173.751263 -268.914004 
L 173.373124 -268.914004 
L 173.373124 -265.877322 
L 172.994984 -265.877322 
L 172.994984 -269.381186 
L 172.616844 -269.381186 
L 172.616844 -264.12539 
L 172.238704 -264.12539 
L 172.238704 -260.27114 
L 171.860564 -260.27114 
L 171.860564 -258.986389 
L 171.482425 -258.986389 
L 171.482425 -259.103185 
L 171.104285 -259.103185 
L 171.104285 -262.490253 
L 170.726145 -262.490253 
L 170.726145 -260.154344 
L 170.348005 -260.154344 
L 170.348005 -264.475776 
L 169.969865 -264.475776 
L 169.969865 -250.693911 
L 169.591726 -250.693911 
L 169.591726 -247.423638 
L 169.213586 -247.423638 
L 169.213586 -252.562638 
L 168.835446 -252.562638 
L 168.835446 -240.766296 
L 168.457306 -240.766296 
L 168.457306 -240.182319 
L 168.079166 -240.182319 
L 168.079166 -245.204524 
L 167.701027 -245.204524 
L 167.701027 -247.190047 
L 167.322887 -247.190047 
L 167.322887 -240.415909 
L 166.944747 -240.415909 
L 166.944747 -232.940999 
L 166.566607 -232.940999 
L 166.566607 -233.17459 
L 166.188467 -233.17459 
L 166.188467 -224.531725 
L 165.810328 -224.531725 
L 165.810328 -238.430386 
L 165.432188 -238.430386 
L 165.432188 -229.203544 
L 165.054048 -229.203544 
L 165.054048 -221.261452 
L 164.675908 -221.261452 
L 164.675908 -222.195816 
L 164.297769 -222.195816 
L 164.297769 -214.487315 
L 163.919629 -214.487315 
L 163.919629 -212.151405 
L 163.541489 -212.151405 
L 163.541489 -209.114723 
L 163.163349 -209.114723 
L 163.163349 -205.610859 
L 162.785209 -205.610859 
L 162.785209 -204.5597 
L 162.40707 -204.5597 
L 162.40707 -205.377268 
L 162.02893 -205.377268 
L 162.02893 -203.158154 
L 161.65079 -203.158154 
L 161.65079 -194.515289 
L 161.27265 -194.515289 
L 161.27265 -198.486335 
L 160.89451 -198.486335 
L 160.89451 -190.427448 
L 160.516371 -190.427448 
L 160.516371 -189.960266 
L 160.138231 -189.960266 
L 160.138231 -186.923584 
L 159.760091 -186.923584 
L 159.760091 -184.120492 
L 159.381951 -184.120492 
L 159.381951 -186.806788 
L 159.003811 -186.806788 
L 159.003811 -181.08381 
L 158.625672 -181.08381 
L 158.625672 -174.426468 
L 158.247532 -174.426468 
L 158.247532 -186.456402 
L 157.869392 -186.456402 
L 157.869392 -176.528787 
L 157.491252 -176.528787 
L 157.491252 -178.51431 
L 157.113112 -178.51431 
L 157.113112 -179.79906 
L 156.734973 -179.79906 
L 156.734973 -180.149446 
L 156.356833 -180.149446 
L 156.356833 -170.455422 
L 155.978693 -170.455422 
L 155.978693 -172.557741 
L 155.600553 -172.557741 
L 155.600553 -173.492105 
L 155.222413 -173.492105 
L 155.222413 -170.572218 
L 154.844274 -170.572218 
L 154.844274 -174.192877 
L 154.466134 -174.192877 
L 154.466134 -165.666808 
L 154.087994 -165.666808 
L 154.087994 -163.214103 
L 153.709854 -163.214103 
L 153.709854 -162.980512 
L 153.331715 -162.980512 
L 153.331715 -160.527807 
L 152.953575 -160.527807 
L 152.953575 -164.265262 
L 152.575435 -164.265262 
L 152.575435 -158.892671 
L 152.197295 -158.892671 
L 152.197295 -160.644603 
L 151.819155 -160.644603 
L 151.819155 -157.257534 
L 151.441016 -157.257534 
L 151.441016 -153.520079 
L 151.062876 -153.520079 
L 151.062876 -154.688034 
L 150.684736 -154.688034 
L 150.684736 -157.60792 
L 150.306596 -157.60792 
L 150.306596 -155.972784 
L 149.928456 -155.972784 
L 149.928456 -149.081851 
L 149.550317 -149.081851 
L 149.550317 -158.65908 
L 149.172177 -158.65908 
L 149.172177 -148.965056 
L 148.794037 -148.965056 
L 148.794037 -147.446715 
L 148.415897 -147.446715 
L 148.415897 -148.497874 
L 148.037757 -148.497874 
L 148.037757 -150.833783 
L 147.659618 -150.833783 
L 147.659618 -148.614669 
L 147.281478 -148.614669 
L 147.281478 -148.381078 
L 146.903338 -148.381078 
L 146.903338 -147.797101 
L 146.525198 -147.797101 
L 146.525198 -151.417761 
L 146.147058 -151.417761 
L 146.147058 -151.884942 
L 145.768919 -151.884942 
L 145.768919 -143.826055 
L 145.390779 -143.826055 
L 145.390779 -154.921625 
L 145.012639 -154.921625 
L 145.012639 -143.826055 
L 144.634499 -143.826055 
L 144.634499 -143.242078 
L 144.25636 -143.242078 
L 144.25636 -146.27876 
L 143.87822 -146.27876 
L 143.87822 -143.826055 
L 143.50008 -143.826055 
L 143.50008 -144.99401 
L 143.12194 -144.99401 
L 143.12194 -142.774896 
L 142.7438 -142.774896 
L 142.7438 -141.840532 
L 142.365661 -141.840532 
L 142.365661 -140.205395 
L 141.987521 -140.205395 
L 141.987521 -138.103077 
L 141.609381 -138.103077 
L 141.609381 -137.635895 
L 141.231241 -137.635895 
L 141.231241 -137.986281 
L 140.853101 -137.986281 
L 140.853101 -131.912917 
L 140.474962 -131.912917 
L 140.474962 -137.869486 
L 140.096822 -137.869486 
L 140.096822 -135.650372 
L 139.718682 -135.650372 
L 139.718682 -134.949599 
L 139.340542 -134.949599 
L 139.340542 -134.365622 
L 138.962402 -134.365622 
L 138.962402 -132.146508 
L 138.584263 -132.146508 
L 138.584263 -126.306734 
L 138.206123 -126.306734 
L 138.206123 -124.671598 
L 137.827983 -124.671598 
L 137.827983 -123.620438 
L 137.449843 -123.620438 
L 137.449843 -125.839552 
L 137.071703 -125.839552 
L 137.071703 -125.839552 
L 136.693564 -125.839552 
L 136.693564 -118.481438 
L 136.315424 -118.481438 
L 136.315424 -120.583756 
L 135.937284 -120.583756 
L 135.937284 -112.992051 
L 135.559144 -112.992051 
L 135.559144 -116.963097 
L 135.181004 -116.963097 
L 135.181004 -115.678346 
L 134.802865 -115.678346 
L 134.802865 -112.875255 
L 134.424725 -112.875255 
L 134.424725 -105.633936 
L 134.046585 -105.633936 
L 134.046585 -108.904209 
L 133.668445 -108.904209 
L 133.668445 -102.714049 
L 133.290306 -102.714049 
L 133.290306 -103.414822 
L 132.912166 -103.414822 
L 132.912166 -99.560571 
L 132.534026 -99.560571 
L 132.534026 -100.37814 
L 132.155886 -100.37814 
L 132.155886 -101.66289 
L 131.777746 -101.66289 
L 131.777746 -97.341457 
L 131.399607 -97.341457 
L 131.399607 -93.604002 
L 131.021467 -93.604002 
L 131.021467 -97.925435 
L 130.643327 -97.925435 
L 130.643327 -87.530638 
L 130.265187 -87.530638 
L 130.265187 -85.545115 
L 129.887047 -85.545115 
L 129.887047 -90.56732 
L 129.508908 -90.56732 
L 129.508908 -87.881024 
L 129.130768 -87.881024 
L 129.130768 -87.530638 
L 128.752628 -87.530638 
L 128.752628 -83.793183 
L 128.374488 -83.793183 
L 128.374488 -82.975615 
L 127.996348 -82.975615 
L 127.996348 -82.041251 
L 127.618209 -82.041251 
L 127.618209 -79.705341 
L 127.240069 -79.705341 
L 127.240069 -75.033522 
L 126.861929 -75.033522 
L 126.861929 -77.369432 
L 126.483789 -77.369432 
L 126.483789 -73.515181 
L 126.105649 -73.515181 
L 126.105649 -74.683136 
L 125.72751 -74.683136 
L 125.72751 -73.515181 
L 125.34937 -73.515181 
L 125.34937 -72.347227 
L 124.97123 -72.347227 
L 124.97123 -75.6175 
L 124.59309 -75.6175 
L 124.59309 -73.164795 
L 124.214951 -73.164795 
L 124.214951 -71.529658 
L 123.836811 -71.529658 
L 123.836811 -70.71209 
L 123.458671 -70.71209 
L 123.458671 -69.544135 
L 123.080531 -69.544135 
L 123.080531 -65.80668 
L 122.702391 -65.80668 
L 122.702391 -66.857839 
L 122.324252 -66.857839 
L 122.324252 -68.025794 
L 121.946112 -68.025794 
L 121.946112 -66.507453 
L 121.567972 -66.507453 
L 121.567972 -63.470771 
L 121.189832 -63.470771 
L 121.189832 -66.390658 
L 120.811692 -66.390658 
L 120.811692 -63.937953 
L 120.433553 -63.937953 
L 120.433553 -62.769998 
L 120.055413 -62.769998 
L 120.055413 -64.288339 
L 119.677273 -64.288339 
L 119.677273 -62.186021 
L 119.299133 -62.186021 
L 119.299133 -63.937953 
L 118.920993 -63.937953 
L 118.920993 -62.419612 
L 118.542854 -62.419612 
L 118.542854 -59.266134 
L 118.164714 -59.266134 
L 118.164714 -59.032543 
L 117.786574 -59.032543 
L 117.786574 -59.966907 
L 117.408434 -59.966907 
L 117.408434 -61.368452 
L 117.030294 -61.368452 
L 117.030294 -60.90127 
L 116.652155 -60.90127 
L 116.652155 -58.798952 
L 116.274015 -58.798952 
L 116.274015 -60.200498 
L 115.895875 -60.200498 
L 115.895875 -57.514202 
L 115.517735 -57.514202 
L 115.517735 -59.499725 
L 115.139596 -59.499725 
L 115.139596 -56.930224 
L 114.761456 -56.930224 
L 114.761456 -57.280611 
L 114.383316 -57.280611 
L 114.383316 -57.864588 
L 114.005176 -57.864588 
L 114.005176 -60.317293 
L 113.627036 -60.317293 
L 113.627036 -55.528679 
L 113.248897 -55.528679 
L 113.248897 -58.798952 
L 112.870757 -58.798952 
L 112.870757 -56.813429 
L 112.492617 -56.813429 
L 112.492617 -55.411883 
L 112.114477 -55.411883 
L 112.114477 -55.411883 
L 111.736337 -55.411883 
L 111.736337 -56.112656 
L 111.358198 -56.112656 
L 111.358198 -57.04702 
L 110.980058 -57.04702 
L 110.980058 -54.47752 
L 110.601918 -54.47752 
L 110.601918 -54.47752 
L 110.223778 -54.47752 
L 110.223778 -56.463043 
L 109.845638 -56.463043 
L 109.845638 -55.528679 
L 109.467499 -55.528679 
L 109.467499 -53.42636 
L 109.089359 -53.42636 
L 109.089359 -52.959178 
L 108.711219 -52.959178 
L 108.711219 -53.659951 
L 108.333079 -53.659951 
L 108.333079 -51.908019 
L 107.954939 -51.908019 
L 107.954939 -52.491997 
L 107.5768 -52.491997 
L 107.5768 -53.42636 
L 107.19866 -53.42636 
L 107.19866 -54.47752 
L 106.82052 -54.47752 
L 106.82052 -51.674428 
L 106.44238 -51.674428 
L 106.44238 -50.85686 
L 106.06424 -50.85686 
L 106.06424 -51.674428 
L 105.686101 -51.674428 
L 105.686101 -50.623269 
L 105.307961 -50.623269 
L 105.307961 -50.973655 
L 104.929821 -50.973655 
L 104.929821 -50.506474 
L 104.551681 -50.506474 
L 104.551681 -49.688905 
L 104.173542 -49.688905 
L 104.173542 -52.024815 
L 103.795402 -52.024815 
L 103.795402 -49.338519 
L 103.417262 -49.338519 
L 103.417262 -48.170564 
L 103.039122 -48.170564 
L 103.039122 -49.221723 
L 102.660982 -49.221723 
L 102.660982 -47.703382 
L 102.282843 -47.703382 
L 102.282843 -48.170564 
L 101.904703 -48.170564 
L 101.904703 -49.688905 
L 101.526563 -49.688905 
L 101.526563 -49.57211 
L 101.148423 -49.57211 
L 101.148423 -45.834655 
L 100.770283 -45.834655 
L 100.770283 -48.170564 
L 100.392144 -48.170564 
L 100.392144 -46.418632 
L 100.014004 -46.418632 
L 100.014004 -47.2362 
L 99.635864 -47.2362 
L 99.635864 -47.703382 
L 99.257724 -47.703382 
L 99.257724 -47.002609 
L 98.879584 -47.002609 
L 98.879584 -44.783495 
L 98.501445 -44.783495 
L 98.501445 -44.783495 
L 98.123305 -44.783495 
L 98.123305 -45.017086 
L 97.745165 -45.017086 
L 97.745165 -46.535428 
L 97.367025 -46.535428 
L 97.367025 -42.914768 
L 96.988885 -42.914768 
L 96.988885 -44.199518 
L 96.610746 -44.199518 
L 96.610746 -42.564382 
L 96.232606 -42.564382 
L 96.232606 -41.980404 
L 95.854466 -41.980404 
L 95.854466 -43.849132 
L 95.476326 -43.849132 
L 95.476326 -43.265154 
L 95.098187 -43.265154 
L 95.098187 -43.265154 
L 94.720047 -43.265154 
L 94.720047 -42.447586 
L 94.341907 -42.447586 
L 94.341907 -42.914768 
L 93.963767 -42.914768 
L 93.963767 -41.980404 
L 93.585627 -41.980404 
L 93.585627 -43.849132 
L 93.207488 -43.849132 
L 93.207488 -41.630018 
L 92.829348 -41.630018 
L 92.829348 -41.04604 
L 92.451208 -41.04604 
L 92.451208 -40.929245 
L 92.073068 -40.929245 
L 92.073068 -41.279631 
L 91.694928 -41.279631 
L 91.694928 -40.578859 
L 91.316789 -40.578859 
L 91.316789 -41.513222 
L 90.938649 -41.513222 
L 90.938649 -41.04604 
L 90.560509 -41.04604 
L 90.560509 -39.527699 
L 90.182369 -39.527699 
L 90.182369 -39.878086 
L 89.804229 -39.878086 
L 89.804229 -40.812449 
L 89.42609 -40.812449 
L 89.42609 -39.410904 
L 89.04795 -39.410904 
L 89.04795 -39.410904 
L 88.66981 -39.410904 
L 88.66981 -39.527699 
L 88.29167 -39.527699 
L 88.29167 -39.76129 
L 87.91353 -39.76129 
L 87.91353 -38.126154 
L 87.535391 -38.126154 
L 87.535391 -38.126154 
L 87.157251 -38.126154 
L 87.157251 -39.177313 
L 86.779111 -39.177313 
L 86.779111 -38.359745 
L 86.400971 -38.359745 
L 86.400971 -38.943722 
L 86.022831 -38.943722 
L 86.022831 -38.126154 
L 85.644692 -38.126154 
L 85.644692 -38.126154 
L 85.266552 -38.126154 
L 85.266552 -38.009358 
L 84.888412 -38.009358 
L 84.888412 -37.658972 
L 84.510272 -37.658972 
L 84.510272 -38.009358 
L 84.132133 -38.009358 
L 84.132133 -37.775767 
L 83.753993 -37.775767 
L 83.753993 -37.542176 
L 83.375853 -37.542176 
L 83.375853 -37.892563 
L 82.997713 -37.892563 
L 82.997713 -37.658972 
L 82.619573 -37.658972 
L 82.619573 -37.658972 
L 82.241434 -37.658972 
L 82.241434 -37.308585 
L 81.863294 -37.308585 
L 81.863294 -37.542176 
L 81.485154 -37.542176 
L 81.485154 -37.19179 
L 81.107014 -37.19179 
L 81.107014 -37.425381 
L 80.728874 -37.425381 
L 80.728874 -37.19179 
L 80.350735 -37.19179 
L 80.350735 -37.425381 
L 79.972595 -37.425381 
L 79.972595 -37.308585 
L 79.594455 -37.308585 
L 79.594455 -37.074994 
L 79.216315 -37.074994 
L 79.216315 -36.958199 
L 78.838175 -36.958199 
L 78.838175 -36.958199 
L 78.460036 -36.958199 
L 78.460036 -36.958199 
L 78.081896 -36.958199 
L 78.081896 -37.074994 
L 77.703756 -37.074994 
L 77.703756 -36.958199 
L 77.325616 -36.958199 
L 77.325616 -37.19179 
L 76.947476 -37.19179 
L 76.947476 -36.724608 
L 76.569337 -36.724608 
L 76.569337 -36.958199 
L 76.191197 -36.958199 
L 76.191197 -36.841403 
L 75.813057 -36.841403 
L 75.813057 -36.841403 
L 75.434917 -36.841403 
L 75.434917 -36.958199 
L 75.056778 -36.958199 
L 75.056778 -36.607813 
L 74.678638 -36.607813 
L 74.678638 -36.841403 
L 74.300498 -36.841403 
L 74.300498 -36.841403 
L 73.922358 -36.841403 
L 73.922358 -36.607813 
L 73.544218 -36.607813 
L 73.544218 -36.841403 
L 73.166079 -36.841403 
L 73.166079 -36.724608 
L 72.787939 -36.724608 
L 72.787939 -36.607813 
L 72.409799 -36.607813 
L 72.409799 -36.724608 
L 72.031659 -36.724608 
L 72.031659 -36.607813 
L 71.653519 -36.607813 
L 71.653519 -36.607813 
L 71.27538 -36.607813 
L 71.27538 -36.607813 
L 70.89724 -36.607813 
L 70.89724 -36.607813 
L 70.5191 -36.607813 
L 70.5191 -36.841403 
L 70.14096 -36.841403 
L 70.14096 -36.607813 
L 69.76282 -36.607813 
L 69.76282 -36.607813 
L 69.384681 -36.607813 
L 69.384681 -36.607813 
L 69.006541 -36.607813 
L 69.006541 -36.724608 
L 68.628401 -36.724608 
L 68.628401 -36.607813 
L 68.250261 -36.607813 
L 68.250261 -36.607813 
L 67.872121 -36.607813 
L 67.872121 -36.607813 
L 67.493982 -36.607813 
L 67.493982 -36.724608 
L 67.115842 -36.724608 
L 67.115842 -36.958199 
L 66.737702 -36.958199 
L 66.737702 -36.607813 
L 66.359562 -36.607813 
L 66.359562 -36.607813 
L 65.981422 -36.607813 
L 65.981422 -36.607813 
L 65.603283 -36.607813 
L 65.603283 -36.724608 
L 65.225143 -36.724608 
L 65.225143 -36.607813 
L 64.847003 -36.607813 
L 64.847003 -36.607813 
L 64.468863 -36.607813 
L 64.468863 -36.607813 
L 64.090724 -36.607813 
L 64.090724 -36.607813 
L 63.712584 -36.607813 
L 63.712584 -36.607813 
L 63.334444 -36.607813 
L 63.334444 -36.724608 
L 62.956304 -36.724608 
z
" id="mfce90e4c6f" style="stroke:#1f77b4;"/>
    </defs>
    <g clip-path="url(#pce4f61a678)">
     <use style="fill:#1f77b4;fill-opacity:0.75;stroke:#1f77b4;" x="0" xlink:href="#mfce90e4c6f" y="339.375396"/>
    </g>
   </g>
   <g id="patch_3">
    <path d="M 49.589063 302.767584 
L 49.589063 8.688267 
" style="fill:none;stroke:#262626;stroke-linecap:square;stroke-linejoin:miter;stroke-width:0.8;"/>
   </g>
   <g id="patch_4">
    <path d="M 49.589063 302.767584 
L 343.668379 302.767584 
" style="fill:none;stroke:#262626;stroke-linecap:square;stroke-linejoin:miter;stroke-width:0.8;"/>
   </g>
  </g>
 </g>
 <defs>
  <clipPath id="pce4f61a678">
   <rect height="294.079317" width="294.079317" x="49.589063" y="8.688267"/>
  </clipPath>
 </defs>
</svg>
