<?xml version="1.0" encoding="utf-8" standalone="no"?>
<!DOCTYPE svg PUBLIC "-//W3C//DTD SVG 1.1//EN"
  "http://www.w3.org/Graphics/SVG/1.1/DTD/svg11.dtd">
<svg height="337.465577pt" version="1.1" viewBox="0 0 361.552011 337.465577" width="361.552011pt" xmlns="http://www.w3.org/2000/svg" xmlns:xlink="http://www.w3.org/1999/xlink">
 <metadata>
  <rdf:RDF xmlns:cc="http://creativecommons.org/ns#" xmlns:dc="http://purl.org/dc/elements/1.1/" xmlns:rdf="http://www.w3.org/1999/02/22-rdf-syntax-ns#">
   <cc:Work>
    <dc:type rdf:resource="http://purl.org/dc/dcmitype/StillImage"/>
    <dc:date>2022-09-28T02:09:22.058407</dc:date>
    <dc:format>image/svg+xml</dc:format>
    <dc:creator>
     <cc:Agent>
      <dc:title>Matplotlib v3.4.3, https://matplotlib.org/</dc:title>
     </cc:Agent>
    </dc:creator>
   </cc:Work>
  </rdf:RDF>
 </metadata>
 <defs>
  <style type="text/css">*{stroke-linecap:butt;stroke-linejoin:round;}</style>
 </defs>
 <g id="figure_1">
  <g id="patch_1">
   <path d="M 0 337.465577 
L 361.552011 337.465577 
L 361.552011 0 
L 0 0 
z
" style="fill:#ffffff;"/>
  </g>
  <g id="axes_1">
   <g id="patch_2">
    <path d="M 59.690625 299.909327 
L 352.399952 299.909327 
L 352.399952 7.2 
L 59.690625 7.2 
z
" style="fill:#ffffff;"/>
   </g>
   <g id="matplotlib.axis_1">
    <g id="xtick_1">
     <g id="line2d_1">
      <defs>
       <path d="M 0 0 
L 0 3.5 
" id="m384b7222cf" style="stroke:#262626;stroke-width:0.8;"/>
      </defs>
      <g>
       <use style="fill:#262626;stroke:#262626;stroke-width:0.8;" x="80.482067" xlink:href="#m384b7222cf" y="299.909327"/>
      </g>
     </g>
     <g id="text_1">
      <text style="fill:#262626;font-family:DejaVu Sans;font-size:10px;font-stretch:normal;font-style:normal;font-weight:normal;text-anchor:middle;" transform="rotate(-0, 80.482067, 314.507765)" x="80.482067" y="314.507765">−7.5</text>
     </g>
    </g>
    <g id="xtick_2">
     <g id="line2d_2">
      <g>
       <use style="fill:#262626;stroke:#262626;stroke-width:0.8;" x="113.324209" xlink:href="#m384b7222cf" y="299.909327"/>
      </g>
     </g>
     <g id="text_2">
      <text style="fill:#262626;font-family:DejaVu Sans;font-size:10px;font-stretch:normal;font-style:normal;font-weight:normal;text-anchor:middle;" transform="rotate(-0, 113.324209, 314.507765)" x="113.324209" y="314.507765">−5.0</text>
     </g>
    </g>
    <g id="xtick_3">
     <g id="line2d_3">
      <g>
       <use style="fill:#262626;stroke:#262626;stroke-width:0.8;" x="146.16635" xlink:href="#m384b7222cf" y="299.909327"/>
      </g>
     </g>
     <g id="text_3">
      <text style="fill:#262626;font-family:DejaVu Sans;font-size:10px;font-stretch:normal;font-style:normal;font-weight:normal;text-anchor:middle;" transform="rotate(-0, 146.16635, 314.507765)" x="146.16635" y="314.507765">−2.5</text>
     </g>
    </g>
    <g id="xtick_4">
     <g id="line2d_4">
      <g>
       <use style="fill:#262626;stroke:#262626;stroke-width:0.8;" x="179.008492" xlink:href="#m384b7222cf" y="299.909327"/>
      </g>
     </g>
     <g id="text_4">
      <text style="fill:#262626;font-family:DejaVu Sans;font-size:10px;font-stretch:normal;font-style:normal;font-weight:normal;text-anchor:middle;" transform="rotate(-0, 179.008492, 314.507765)" x="179.008492" y="314.507765">0.0</text>
     </g>
    </g>
    <g id="xtick_5">
     <g id="line2d_5">
      <g>
       <use style="fill:#262626;stroke:#262626;stroke-width:0.8;" x="211.850633" xlink:href="#m384b7222cf" y="299.909327"/>
      </g>
     </g>
     <g id="text_5">
      <text style="fill:#262626;font-family:DejaVu Sans;font-size:10px;font-stretch:normal;font-style:normal;font-weight:normal;text-anchor:middle;" transform="rotate(-0, 211.850633, 314.507765)" x="211.850633" y="314.507765">2.5</text>
     </g>
    </g>
    <g id="xtick_6">
     <g id="line2d_6">
      <g>
       <use style="fill:#262626;stroke:#262626;stroke-width:0.8;" x="244.692775" xlink:href="#m384b7222cf" y="299.909327"/>
      </g>
     </g>
     <g id="text_6">
      <text style="fill:#262626;font-family:DejaVu Sans;font-size:10px;font-stretch:normal;font-style:normal;font-weight:normal;text-anchor:middle;" transform="rotate(-0, 244.692775, 314.507765)" x="244.692775" y="314.507765">5.0</text>
     </g>
    </g>
    <g id="xtick_7">
     <g id="line2d_7">
      <g>
       <use style="fill:#262626;stroke:#262626;stroke-width:0.8;" x="277.534916" xlink:href="#m384b7222cf" y="299.909327"/>
      </g>
     </g>
     <g id="text_7">
      <text style="fill:#262626;font-family:DejaVu Sans;font-size:10px;font-stretch:normal;font-style:normal;font-weight:normal;text-anchor:middle;" transform="rotate(-0, 277.534916, 314.507765)" x="277.534916" y="314.507765">7.5</text>
     </g>
    </g>
    <g id="xtick_8">
     <g id="line2d_8">
      <g>
       <use style="fill:#262626;stroke:#262626;stroke-width:0.8;" x="310.377057" xlink:href="#m384b7222cf" y="299.909327"/>
      </g>
     </g>
     <g id="text_8">
      <text style="fill:#262626;font-family:DejaVu Sans;font-size:10px;font-stretch:normal;font-style:normal;font-weight:normal;text-anchor:middle;" transform="rotate(-0, 310.377057, 314.507765)" x="310.377057" y="314.507765">10.0</text>
     </g>
    </g>
    <g id="xtick_9">
     <g id="line2d_9">
      <g>
       <use style="fill:#262626;stroke:#262626;stroke-width:0.8;" x="343.219199" xlink:href="#m384b7222cf" y="299.909327"/>
      </g>
     </g>
     <g id="text_9">
      <text style="fill:#262626;font-family:DejaVu Sans;font-size:10px;font-stretch:normal;font-style:normal;font-weight:normal;text-anchor:middle;" transform="rotate(-0, 343.219199, 314.507765)" x="343.219199" y="314.507765">12.5</text>
     </g>
    </g>
    <g id="text_10">
     <text style="fill:#262626;font-family:DejaVu Sans;font-size:10px;font-stretch:normal;font-style:normal;font-weight:normal;text-anchor:middle;" transform="rotate(-0, 206.045289, 328.18589)" x="206.045289" y="328.18589">standardized shortest path length</text>
    </g>
   </g>
   <g id="matplotlib.axis_2">
    <g id="ytick_1">
     <g id="line2d_10">
      <defs>
       <path d="M 0 0 
L -3.5 0 
" id="m0ac483ea3e" style="stroke:#262626;stroke-width:0.8;"/>
      </defs>
      <g>
       <use style="fill:#262626;stroke:#262626;stroke-width:0.8;" x="59.690625" xlink:href="#m0ac483ea3e" y="299.909327"/>
      </g>
     </g>
     <g id="text_11">
      <text style="fill:#262626;font-family:DejaVu Sans;font-size:10px;font-stretch:normal;font-style:normal;font-weight:normal;text-anchor:end;" transform="rotate(-0, 52.690625, 303.708546)" x="52.690625" y="303.708546">0</text>
     </g>
    </g>
    <g id="ytick_2">
     <g id="line2d_11">
      <g>
       <use style="fill:#262626;stroke:#262626;stroke-width:0.8;" x="59.690625" xlink:href="#m0ac483ea3e" y="258.695432"/>
      </g>
     </g>
     <g id="text_12">
      <text style="fill:#262626;font-family:DejaVu Sans;font-size:10px;font-stretch:normal;font-style:normal;font-weight:normal;text-anchor:end;" transform="rotate(-0, 52.690625, 262.49465)" x="52.690625" y="262.49465">2000</text>
     </g>
    </g>
    <g id="ytick_3">
     <g id="line2d_12">
      <g>
       <use style="fill:#262626;stroke:#262626;stroke-width:0.8;" x="59.690625" xlink:href="#m0ac483ea3e" y="217.481536"/>
      </g>
     </g>
     <g id="text_13">
      <text style="fill:#262626;font-family:DejaVu Sans;font-size:10px;font-stretch:normal;font-style:normal;font-weight:normal;text-anchor:end;" transform="rotate(-0, 52.690625, 221.280755)" x="52.690625" y="221.280755">4000</text>
     </g>
    </g>
    <g id="ytick_4">
     <g id="line2d_13">
      <g>
       <use style="fill:#262626;stroke:#262626;stroke-width:0.8;" x="59.690625" xlink:href="#m0ac483ea3e" y="176.267641"/>
      </g>
     </g>
     <g id="text_14">
      <text style="fill:#262626;font-family:DejaVu Sans;font-size:10px;font-stretch:normal;font-style:normal;font-weight:normal;text-anchor:end;" transform="rotate(-0, 52.690625, 180.06686)" x="52.690625" y="180.06686">6000</text>
     </g>
    </g>
    <g id="ytick_5">
     <g id="line2d_14">
      <g>
       <use style="fill:#262626;stroke:#262626;stroke-width:0.8;" x="59.690625" xlink:href="#m0ac483ea3e" y="135.053746"/>
      </g>
     </g>
     <g id="text_15">
      <text style="fill:#262626;font-family:DejaVu Sans;font-size:10px;font-stretch:normal;font-style:normal;font-weight:normal;text-anchor:end;" transform="rotate(-0, 52.690625, 138.852965)" x="52.690625" y="138.852965">8000</text>
     </g>
    </g>
    <g id="ytick_6">
     <g id="line2d_15">
      <g>
       <use style="fill:#262626;stroke:#262626;stroke-width:0.8;" x="59.690625" xlink:href="#m0ac483ea3e" y="93.839851"/>
      </g>
     </g>
     <g id="text_16">
      <text style="fill:#262626;font-family:DejaVu Sans;font-size:10px;font-stretch:normal;font-style:normal;font-weight:normal;text-anchor:end;" transform="rotate(-0, 52.690625, 97.639069)" x="52.690625" y="97.639069">10000</text>
     </g>
    </g>
    <g id="ytick_7">
     <g id="line2d_16">
      <g>
       <use style="fill:#262626;stroke:#262626;stroke-width:0.8;" x="59.690625" xlink:href="#m0ac483ea3e" y="52.625955"/>
      </g>
     </g>
     <g id="text_17">
      <text style="fill:#262626;font-family:DejaVu Sans;font-size:10px;font-stretch:normal;font-style:normal;font-weight:normal;text-anchor:end;" transform="rotate(-0, 52.690625, 56.425174)" x="52.690625" y="56.425174">12000</text>
     </g>
    </g>
    <g id="ytick_8">
     <g id="line2d_17">
      <g>
       <use style="fill:#262626;stroke:#262626;stroke-width:0.8;" x="59.690625" xlink:href="#m0ac483ea3e" y="11.41206"/>
      </g>
     </g>
     <g id="text_18">
      <text style="fill:#262626;font-family:DejaVu Sans;font-size:10px;font-stretch:normal;font-style:normal;font-weight:normal;text-anchor:end;" transform="rotate(-0, 52.690625, 15.211279)" x="52.690625" y="15.211279">14000</text>
     </g>
    </g>
    <g id="text_19">
     <text style="fill:#262626;font-family:DejaVu Sans;font-size:10px;font-stretch:normal;font-style:normal;font-weight:normal;text-anchor:middle;" transform="rotate(-90, 14.798438, 153.554664)" x="14.798438" y="153.554664">Count</text>
    </g>
   </g>
   <g id="PolyCollection_1">
    <defs>
     <path d="M 72.995594 -37.576857 
L 72.995594 -37.55625 
L 73.371973 -37.55625 
L 73.371973 -37.55625 
L 73.748351 -37.55625 
L 73.748351 -37.55625 
L 74.124729 -37.55625 
L 74.124729 -37.55625 
L 74.501107 -37.55625 
L 74.501107 -37.55625 
L 74.877485 -37.55625 
L 74.877485 -37.55625 
L 75.253864 -37.55625 
L 75.253864 -37.55625 
L 75.630242 -37.55625 
L 75.630242 -37.55625 
L 76.00662 -37.55625 
L 76.00662 -37.55625 
L 76.382998 -37.55625 
L 76.382998 -37.55625 
L 76.759376 -37.55625 
L 76.759376 -37.55625 
L 77.135755 -37.55625 
L 77.135755 -37.55625 
L 77.512133 -37.55625 
L 77.512133 -37.55625 
L 77.888511 -37.55625 
L 77.888511 -37.55625 
L 78.264889 -37.55625 
L 78.264889 -37.55625 
L 78.641267 -37.55625 
L 78.641267 -37.55625 
L 79.017646 -37.55625 
L 79.017646 -37.55625 
L 79.394024 -37.55625 
L 79.394024 -37.55625 
L 79.770402 -37.55625 
L 79.770402 -37.55625 
L 80.14678 -37.55625 
L 80.14678 -37.55625 
L 80.523158 -37.55625 
L 80.523158 -37.55625 
L 80.899537 -37.55625 
L 80.899537 -37.55625 
L 81.275915 -37.55625 
L 81.275915 -37.55625 
L 81.652293 -37.55625 
L 81.652293 -37.55625 
L 82.028671 -37.55625 
L 82.028671 -37.55625 
L 82.405049 -37.55625 
L 82.405049 -37.55625 
L 82.781428 -37.55625 
L 82.781428 -37.55625 
L 83.157806 -37.55625 
L 83.157806 -37.55625 
L 83.534184 -37.55625 
L 83.534184 -37.55625 
L 83.910562 -37.55625 
L 83.910562 -37.55625 
L 84.28694 -37.55625 
L 84.28694 -37.55625 
L 84.663319 -37.55625 
L 84.663319 -37.55625 
L 85.039697 -37.55625 
L 85.039697 -37.55625 
L 85.416075 -37.55625 
L 85.416075 -37.55625 
L 85.792453 -37.55625 
L 85.792453 -37.55625 
L 86.168831 -37.55625 
L 86.168831 -37.55625 
L 86.54521 -37.55625 
L 86.54521 -37.55625 
L 86.921588 -37.55625 
L 86.921588 -37.55625 
L 87.297966 -37.55625 
L 87.297966 -37.55625 
L 87.674344 -37.55625 
L 87.674344 -37.55625 
L 88.050722 -37.55625 
L 88.050722 -37.55625 
L 88.427101 -37.55625 
L 88.427101 -37.55625 
L 88.803479 -37.55625 
L 88.803479 -37.55625 
L 89.179857 -37.55625 
L 89.179857 -37.55625 
L 89.556235 -37.55625 
L 89.556235 -37.55625 
L 89.932613 -37.55625 
L 89.932613 -37.55625 
L 90.308992 -37.55625 
L 90.308992 -37.55625 
L 90.68537 -37.55625 
L 90.68537 -37.55625 
L 91.061748 -37.55625 
L 91.061748 -37.55625 
L 91.438126 -37.55625 
L 91.438126 -37.55625 
L 91.814504 -37.55625 
L 91.814504 -37.55625 
L 92.190883 -37.55625 
L 92.190883 -37.55625 
L 92.567261 -37.55625 
L 92.567261 -37.55625 
L 92.943639 -37.55625 
L 92.943639 -37.55625 
L 93.320017 -37.55625 
L 93.320017 -37.55625 
L 93.696395 -37.55625 
L 93.696395 -37.55625 
L 94.072774 -37.55625 
L 94.072774 -37.55625 
L 94.449152 -37.55625 
L 94.449152 -37.55625 
L 94.82553 -37.55625 
L 94.82553 -37.55625 
L 95.201908 -37.55625 
L 95.201908 -37.55625 
L 95.578286 -37.55625 
L 95.578286 -37.55625 
L 95.954665 -37.55625 
L 95.954665 -37.55625 
L 96.331043 -37.55625 
L 96.331043 -37.55625 
L 96.707421 -37.55625 
L 96.707421 -37.55625 
L 97.083799 -37.55625 
L 97.083799 -37.55625 
L 97.460177 -37.55625 
L 97.460177 -37.55625 
L 97.836556 -37.55625 
L 97.836556 -37.55625 
L 98.212934 -37.55625 
L 98.212934 -37.55625 
L 98.589312 -37.55625 
L 98.589312 -37.55625 
L 98.96569 -37.55625 
L 98.96569 -37.55625 
L 99.342068 -37.55625 
L 99.342068 -37.55625 
L 99.718447 -37.55625 
L 99.718447 -37.55625 
L 100.094825 -37.55625 
L 100.094825 -37.55625 
L 100.471203 -37.55625 
L 100.471203 -37.55625 
L 100.847581 -37.55625 
L 100.847581 -37.55625 
L 101.223959 -37.55625 
L 101.223959 -37.55625 
L 101.600338 -37.55625 
L 101.600338 -37.55625 
L 101.976716 -37.55625 
L 101.976716 -37.55625 
L 102.353094 -37.55625 
L 102.353094 -37.55625 
L 102.729472 -37.55625 
L 102.729472 -37.55625 
L 103.105851 -37.55625 
L 103.105851 -37.55625 
L 103.482229 -37.55625 
L 103.482229 -37.55625 
L 103.858607 -37.55625 
L 103.858607 -37.55625 
L 104.234985 -37.55625 
L 104.234985 -37.55625 
L 104.611363 -37.55625 
L 104.611363 -37.55625 
L 104.987742 -37.55625 
L 104.987742 -37.55625 
L 105.36412 -37.55625 
L 105.36412 -37.55625 
L 105.740498 -37.55625 
L 105.740498 -37.55625 
L 106.116876 -37.55625 
L 106.116876 -37.55625 
L 106.493254 -37.55625 
L 106.493254 -37.55625 
L 106.869633 -37.55625 
L 106.869633 -37.55625 
L 107.246011 -37.55625 
L 107.246011 -37.55625 
L 107.622389 -37.55625 
L 107.622389 -37.55625 
L 107.998767 -37.55625 
L 107.998767 -37.55625 
L 108.375145 -37.55625 
L 108.375145 -37.55625 
L 108.751524 -37.55625 
L 108.751524 -37.55625 
L 109.127902 -37.55625 
L 109.127902 -37.55625 
L 109.50428 -37.55625 
L 109.50428 -37.55625 
L 109.880658 -37.55625 
L 109.880658 -37.55625 
L 110.257036 -37.55625 
L 110.257036 -37.55625 
L 110.633415 -37.55625 
L 110.633415 -37.55625 
L 111.009793 -37.55625 
L 111.009793 -37.55625 
L 111.386171 -37.55625 
L 111.386171 -37.55625 
L 111.762549 -37.55625 
L 111.762549 -37.55625 
L 112.138927 -37.55625 
L 112.138927 -37.55625 
L 112.515306 -37.55625 
L 112.515306 -37.55625 
L 112.891684 -37.55625 
L 112.891684 -37.55625 
L 113.268062 -37.55625 
L 113.268062 -37.55625 
L 113.64444 -37.55625 
L 113.64444 -37.55625 
L 114.020818 -37.55625 
L 114.020818 -37.55625 
L 114.397197 -37.55625 
L 114.397197 -37.55625 
L 114.773575 -37.55625 
L 114.773575 -37.55625 
L 115.149953 -37.55625 
L 115.149953 -37.55625 
L 115.526331 -37.55625 
L 115.526331 -37.55625 
L 115.902709 -37.55625 
L 115.902709 -37.55625 
L 116.279088 -37.55625 
L 116.279088 -37.55625 
L 116.655466 -37.55625 
L 116.655466 -37.55625 
L 117.031844 -37.55625 
L 117.031844 -37.55625 
L 117.408222 -37.55625 
L 117.408222 -37.55625 
L 117.7846 -37.55625 
L 117.7846 -37.55625 
L 118.160979 -37.55625 
L 118.160979 -37.55625 
L 118.537357 -37.55625 
L 118.537357 -37.55625 
L 118.913735 -37.55625 
L 118.913735 -37.55625 
L 119.290113 -37.55625 
L 119.290113 -37.55625 
L 119.666491 -37.55625 
L 119.666491 -37.55625 
L 120.04287 -37.55625 
L 120.04287 -37.55625 
L 120.419248 -37.55625 
L 120.419248 -37.55625 
L 120.795626 -37.55625 
L 120.795626 -37.55625 
L 121.172004 -37.55625 
L 121.172004 -37.55625 
L 121.548382 -37.55625 
L 121.548382 -37.55625 
L 121.924761 -37.55625 
L 121.924761 -37.55625 
L 122.301139 -37.55625 
L 122.301139 -37.55625 
L 122.677517 -37.55625 
L 122.677517 -37.55625 
L 123.053895 -37.55625 
L 123.053895 -37.55625 
L 123.430273 -37.55625 
L 123.430273 -37.55625 
L 123.806652 -37.55625 
L 123.806652 -37.55625 
L 124.18303 -37.55625 
L 124.18303 -37.55625 
L 124.559408 -37.55625 
L 124.559408 -37.55625 
L 124.935786 -37.55625 
L 124.935786 -37.55625 
L 125.312164 -37.55625 
L 125.312164 -37.55625 
L 125.688543 -37.55625 
L 125.688543 -37.55625 
L 126.064921 -37.55625 
L 126.064921 -37.55625 
L 126.441299 -37.55625 
L 126.441299 -37.55625 
L 126.817677 -37.55625 
L 126.817677 -37.55625 
L 127.194055 -37.55625 
L 127.194055 -37.55625 
L 127.570434 -37.55625 
L 127.570434 -37.55625 
L 127.946812 -37.55625 
L 127.946812 -37.55625 
L 128.32319 -37.55625 
L 128.32319 -37.55625 
L 128.699568 -37.55625 
L 128.699568 -37.55625 
L 129.075946 -37.55625 
L 129.075946 -37.55625 
L 129.452325 -37.55625 
L 129.452325 -37.55625 
L 129.828703 -37.55625 
L 129.828703 -37.55625 
L 130.205081 -37.55625 
L 130.205081 -37.55625 
L 130.581459 -37.55625 
L 130.581459 -37.55625 
L 130.957837 -37.55625 
L 130.957837 -37.55625 
L 131.334216 -37.55625 
L 131.334216 -37.55625 
L 131.710594 -37.55625 
L 131.710594 -37.55625 
L 132.086972 -37.55625 
L 132.086972 -37.55625 
L 132.46335 -37.55625 
L 132.46335 -37.55625 
L 132.839728 -37.55625 
L 132.839728 -37.55625 
L 133.216107 -37.55625 
L 133.216107 -37.55625 
L 133.592485 -37.55625 
L 133.592485 -37.55625 
L 133.968863 -37.55625 
L 133.968863 -37.55625 
L 134.345241 -37.55625 
L 134.345241 -37.55625 
L 134.721619 -37.55625 
L 134.721619 -37.55625 
L 135.097998 -37.55625 
L 135.097998 -37.55625 
L 135.474376 -37.55625 
L 135.474376 -37.55625 
L 135.850754 -37.55625 
L 135.850754 -37.55625 
L 136.227132 -37.55625 
L 136.227132 -37.55625 
L 136.60351 -37.55625 
L 136.60351 -37.55625 
L 136.979889 -37.55625 
L 136.979889 -37.55625 
L 137.356267 -37.55625 
L 137.356267 -37.55625 
L 137.732645 -37.55625 
L 137.732645 -37.55625 
L 138.109023 -37.55625 
L 138.109023 -37.55625 
L 138.485401 -37.55625 
L 138.485401 -37.55625 
L 138.86178 -37.55625 
L 138.86178 -37.55625 
L 139.238158 -37.55625 
L 139.238158 -37.55625 
L 139.614536 -37.55625 
L 139.614536 -37.55625 
L 139.990914 -37.55625 
L 139.990914 -37.55625 
L 140.367292 -37.55625 
L 140.367292 -37.55625 
L 140.743671 -37.55625 
L 140.743671 -37.55625 
L 141.120049 -37.55625 
L 141.120049 -37.55625 
L 141.496427 -37.55625 
L 141.496427 -37.55625 
L 141.872805 -37.55625 
L 141.872805 -37.55625 
L 142.249183 -37.55625 
L 142.249183 -37.55625 
L 142.625562 -37.55625 
L 142.625562 -37.55625 
L 143.00194 -37.55625 
L 143.00194 -37.55625 
L 143.378318 -37.55625 
L 143.378318 -37.55625 
L 143.754696 -37.55625 
L 143.754696 -37.55625 
L 144.131074 -37.55625 
L 144.131074 -37.55625 
L 144.507453 -37.55625 
L 144.507453 -37.55625 
L 144.883831 -37.55625 
L 144.883831 -37.55625 
L 145.260209 -37.55625 
L 145.260209 -37.55625 
L 145.636587 -37.55625 
L 145.636587 -37.55625 
L 146.012965 -37.55625 
L 146.012965 -37.55625 
L 146.389344 -37.55625 
L 146.389344 -37.55625 
L 146.765722 -37.55625 
L 146.765722 -37.55625 
L 147.1421 -37.55625 
L 147.1421 -37.55625 
L 147.518478 -37.55625 
L 147.518478 -37.55625 
L 147.894856 -37.55625 
L 147.894856 -37.55625 
L 148.271235 -37.55625 
L 148.271235 -37.55625 
L 148.647613 -37.55625 
L 148.647613 -37.55625 
L 149.023991 -37.55625 
L 149.023991 -37.55625 
L 149.400369 -37.55625 
L 149.400369 -37.55625 
L 149.776747 -37.55625 
L 149.776747 -37.55625 
L 150.153126 -37.55625 
L 150.153126 -37.55625 
L 150.529504 -37.55625 
L 150.529504 -37.55625 
L 150.905882 -37.55625 
L 150.905882 -37.55625 
L 151.28226 -37.55625 
L 151.28226 -37.55625 
L 151.658638 -37.55625 
L 151.658638 -37.55625 
L 152.035017 -37.55625 
L 152.035017 -37.55625 
L 152.411395 -37.55625 
L 152.411395 -37.55625 
L 152.787773 -37.55625 
L 152.787773 -37.55625 
L 153.164151 -37.55625 
L 153.164151 -37.55625 
L 153.540529 -37.55625 
L 153.540529 -37.55625 
L 153.916908 -37.55625 
L 153.916908 -37.55625 
L 154.293286 -37.55625 
L 154.293286 -37.55625 
L 154.669664 -37.55625 
L 154.669664 -37.55625 
L 155.046042 -37.55625 
L 155.046042 -37.55625 
L 155.42242 -37.55625 
L 155.42242 -37.55625 
L 155.798799 -37.55625 
L 155.798799 -37.55625 
L 156.175177 -37.55625 
L 156.175177 -37.55625 
L 156.551555 -37.55625 
L 156.551555 -37.55625 
L 156.927933 -37.55625 
L 156.927933 -37.55625 
L 157.304311 -37.55625 
L 157.304311 -37.55625 
L 157.68069 -37.55625 
L 157.68069 -37.55625 
L 158.057068 -37.55625 
L 158.057068 -37.55625 
L 158.433446 -37.55625 
L 158.433446 -37.55625 
L 158.809824 -37.55625 
L 158.809824 -37.55625 
L 159.186202 -37.55625 
L 159.186202 -37.55625 
L 159.562581 -37.55625 
L 159.562581 -37.55625 
L 159.938959 -37.55625 
L 159.938959 -37.55625 
L 160.315337 -37.55625 
L 160.315337 -37.55625 
L 160.691715 -37.55625 
L 160.691715 -37.55625 
L 161.068093 -37.55625 
L 161.068093 -37.55625 
L 161.444472 -37.55625 
L 161.444472 -37.55625 
L 161.82085 -37.55625 
L 161.82085 -37.55625 
L 162.197228 -37.55625 
L 162.197228 -37.55625 
L 162.573606 -37.55625 
L 162.573606 -37.55625 
L 162.949984 -37.55625 
L 162.949984 -37.55625 
L 163.326363 -37.55625 
L 163.326363 -37.55625 
L 163.702741 -37.55625 
L 163.702741 -37.55625 
L 164.079119 -37.55625 
L 164.079119 -37.55625 
L 164.455497 -37.55625 
L 164.455497 -37.55625 
L 164.831875 -37.55625 
L 164.831875 -37.55625 
L 165.208254 -37.55625 
L 165.208254 -37.55625 
L 165.584632 -37.55625 
L 165.584632 -37.55625 
L 165.96101 -37.55625 
L 165.96101 -37.55625 
L 166.337388 -37.55625 
L 166.337388 -37.55625 
L 166.713766 -37.55625 
L 166.713766 -37.55625 
L 167.090145 -37.55625 
L 167.090145 -37.55625 
L 167.466523 -37.55625 
L 167.466523 -37.55625 
L 167.842901 -37.55625 
L 167.842901 -37.55625 
L 168.219279 -37.55625 
L 168.219279 -37.55625 
L 168.595657 -37.55625 
L 168.595657 -37.55625 
L 168.972036 -37.55625 
L 168.972036 -37.55625 
L 169.348414 -37.55625 
L 169.348414 -37.55625 
L 169.724792 -37.55625 
L 169.724792 -37.55625 
L 170.10117 -37.55625 
L 170.10117 -37.55625 
L 170.477549 -37.55625 
L 170.477549 -37.55625 
L 170.853927 -37.55625 
L 170.853927 -37.55625 
L 171.230305 -37.55625 
L 171.230305 -37.55625 
L 171.606683 -37.55625 
L 171.606683 -37.55625 
L 171.983061 -37.55625 
L 171.983061 -37.55625 
L 172.35944 -37.55625 
L 172.35944 -37.55625 
L 172.735818 -37.55625 
L 172.735818 -37.55625 
L 173.112196 -37.55625 
L 173.112196 -37.55625 
L 173.488574 -37.55625 
L 173.488574 -37.55625 
L 173.864952 -37.55625 
L 173.864952 -37.55625 
L 174.241331 -37.55625 
L 174.241331 -37.55625 
L 174.617709 -37.55625 
L 174.617709 -37.55625 
L 174.994087 -37.55625 
L 174.994087 -37.55625 
L 175.370465 -37.55625 
L 175.370465 -37.55625 
L 175.746843 -37.55625 
L 175.746843 -37.55625 
L 176.123222 -37.55625 
L 176.123222 -37.55625 
L 176.4996 -37.55625 
L 176.4996 -37.55625 
L 176.875978 -37.55625 
L 176.875978 -37.55625 
L 177.252356 -37.55625 
L 177.252356 -37.55625 
L 177.628734 -37.55625 
L 177.628734 -37.55625 
L 178.005113 -37.55625 
L 178.005113 -37.55625 
L 178.381491 -37.55625 
L 178.381491 -37.55625 
L 178.757869 -37.55625 
L 178.757869 -37.55625 
L 179.134247 -37.55625 
L 179.134247 -37.55625 
L 179.510625 -37.55625 
L 179.510625 -37.55625 
L 179.887004 -37.55625 
L 179.887004 -37.55625 
L 180.263382 -37.55625 
L 180.263382 -37.55625 
L 180.63976 -37.55625 
L 180.63976 -37.55625 
L 181.016138 -37.55625 
L 181.016138 -37.55625 
L 181.392516 -37.55625 
L 181.392516 -37.55625 
L 181.768895 -37.55625 
L 181.768895 -37.55625 
L 182.145273 -37.55625 
L 182.145273 -37.55625 
L 182.521651 -37.55625 
L 182.521651 -37.55625 
L 182.898029 -37.55625 
L 182.898029 -37.55625 
L 183.274407 -37.55625 
L 183.274407 -37.55625 
L 183.650786 -37.55625 
L 183.650786 -37.55625 
L 184.027164 -37.55625 
L 184.027164 -37.55625 
L 184.403542 -37.55625 
L 184.403542 -37.55625 
L 184.77992 -37.55625 
L 184.77992 -37.55625 
L 185.156298 -37.55625 
L 185.156298 -37.55625 
L 185.532677 -37.55625 
L 185.532677 -37.55625 
L 185.909055 -37.55625 
L 185.909055 -37.55625 
L 186.285433 -37.55625 
L 186.285433 -37.55625 
L 186.661811 -37.55625 
L 186.661811 -37.55625 
L 187.038189 -37.55625 
L 187.038189 -37.55625 
L 187.414568 -37.55625 
L 187.414568 -37.55625 
L 187.790946 -37.55625 
L 187.790946 -37.55625 
L 188.167324 -37.55625 
L 188.167324 -37.55625 
L 188.543702 -37.55625 
L 188.543702 -37.55625 
L 188.92008 -37.55625 
L 188.92008 -37.55625 
L 189.296459 -37.55625 
L 189.296459 -37.55625 
L 189.672837 -37.55625 
L 189.672837 -37.55625 
L 190.049215 -37.55625 
L 190.049215 -37.55625 
L 190.425593 -37.55625 
L 190.425593 -37.55625 
L 190.801971 -37.55625 
L 190.801971 -37.55625 
L 191.17835 -37.55625 
L 191.17835 -37.55625 
L 191.554728 -37.55625 
L 191.554728 -37.55625 
L 191.931106 -37.55625 
L 191.931106 -37.55625 
L 192.307484 -37.55625 
L 192.307484 -37.55625 
L 192.683862 -37.55625 
L 192.683862 -37.55625 
L 193.060241 -37.55625 
L 193.060241 -37.55625 
L 193.436619 -37.55625 
L 193.436619 -37.55625 
L 193.812997 -37.55625 
L 193.812997 -37.55625 
L 194.189375 -37.55625 
L 194.189375 -37.55625 
L 194.565753 -37.55625 
L 194.565753 -37.55625 
L 194.942132 -37.55625 
L 194.942132 -37.55625 
L 195.31851 -37.55625 
L 195.31851 -37.55625 
L 195.694888 -37.55625 
L 195.694888 -37.55625 
L 196.071266 -37.55625 
L 196.071266 -37.55625 
L 196.447644 -37.55625 
L 196.447644 -37.55625 
L 196.824023 -37.55625 
L 196.824023 -37.55625 
L 197.200401 -37.55625 
L 197.200401 -37.55625 
L 197.576779 -37.55625 
L 197.576779 -37.55625 
L 197.953157 -37.55625 
L 197.953157 -37.55625 
L 198.329535 -37.55625 
L 198.329535 -37.55625 
L 198.705914 -37.55625 
L 198.705914 -37.55625 
L 199.082292 -37.55625 
L 199.082292 -37.55625 
L 199.45867 -37.55625 
L 199.45867 -37.55625 
L 199.835048 -37.55625 
L 199.835048 -37.55625 
L 200.211426 -37.55625 
L 200.211426 -37.55625 
L 200.587805 -37.55625 
L 200.587805 -37.55625 
L 200.964183 -37.55625 
L 200.964183 -37.55625 
L 201.340561 -37.55625 
L 201.340561 -37.55625 
L 201.716939 -37.55625 
L 201.716939 -37.55625 
L 202.093317 -37.55625 
L 202.093317 -37.55625 
L 202.469696 -37.55625 
L 202.469696 -37.55625 
L 202.846074 -37.55625 
L 202.846074 -37.55625 
L 203.222452 -37.55625 
L 203.222452 -37.55625 
L 203.59883 -37.55625 
L 203.59883 -37.55625 
L 203.975208 -37.55625 
L 203.975208 -37.55625 
L 204.351587 -37.55625 
L 204.351587 -37.55625 
L 204.727965 -37.55625 
L 204.727965 -37.55625 
L 205.104343 -37.55625 
L 205.104343 -37.55625 
L 205.480721 -37.55625 
L 205.480721 -37.55625 
L 205.857099 -37.55625 
L 205.857099 -37.55625 
L 206.233478 -37.55625 
L 206.233478 -37.55625 
L 206.609856 -37.55625 
L 206.609856 -37.55625 
L 206.986234 -37.55625 
L 206.986234 -37.55625 
L 207.362612 -37.55625 
L 207.362612 -37.55625 
L 207.73899 -37.55625 
L 207.73899 -37.55625 
L 208.115369 -37.55625 
L 208.115369 -37.55625 
L 208.491747 -37.55625 
L 208.491747 -37.55625 
L 208.868125 -37.55625 
L 208.868125 -37.55625 
L 209.244503 -37.55625 
L 209.244503 -37.55625 
L 209.620881 -37.55625 
L 209.620881 -37.55625 
L 209.99726 -37.55625 
L 209.99726 -37.55625 
L 210.373638 -37.55625 
L 210.373638 -37.55625 
L 210.750016 -37.55625 
L 210.750016 -37.55625 
L 211.126394 -37.55625 
L 211.126394 -37.55625 
L 211.502772 -37.55625 
L 211.502772 -37.55625 
L 211.879151 -37.55625 
L 211.879151 -37.55625 
L 212.255529 -37.55625 
L 212.255529 -37.55625 
L 212.631907 -37.55625 
L 212.631907 -37.55625 
L 213.008285 -37.55625 
L 213.008285 -37.55625 
L 213.384663 -37.55625 
L 213.384663 -37.55625 
L 213.761042 -37.55625 
L 213.761042 -37.55625 
L 214.13742 -37.55625 
L 214.13742 -37.55625 
L 214.513798 -37.55625 
L 214.513798 -37.55625 
L 214.890176 -37.55625 
L 214.890176 -37.55625 
L 215.266554 -37.55625 
L 215.266554 -37.55625 
L 215.642933 -37.55625 
L 215.642933 -37.55625 
L 216.019311 -37.55625 
L 216.019311 -37.55625 
L 216.395689 -37.55625 
L 216.395689 -37.55625 
L 216.772067 -37.55625 
L 216.772067 -37.55625 
L 217.148445 -37.55625 
L 217.148445 -37.55625 
L 217.524824 -37.55625 
L 217.524824 -37.55625 
L 217.901202 -37.55625 
L 217.901202 -37.55625 
L 218.27758 -37.55625 
L 218.27758 -37.55625 
L 218.653958 -37.55625 
L 218.653958 -37.55625 
L 219.030336 -37.55625 
L 219.030336 -37.55625 
L 219.406715 -37.55625 
L 219.406715 -37.55625 
L 219.783093 -37.55625 
L 219.783093 -37.55625 
L 220.159471 -37.55625 
L 220.159471 -37.55625 
L 220.535849 -37.55625 
L 220.535849 -37.55625 
L 220.912227 -37.55625 
L 220.912227 -37.55625 
L 221.288606 -37.55625 
L 221.288606 -37.55625 
L 221.664984 -37.55625 
L 221.664984 -37.55625 
L 222.041362 -37.55625 
L 222.041362 -37.55625 
L 222.41774 -37.55625 
L 222.41774 -37.55625 
L 222.794118 -37.55625 
L 222.794118 -37.55625 
L 223.170497 -37.55625 
L 223.170497 -37.55625 
L 223.546875 -37.55625 
L 223.546875 -37.55625 
L 223.923253 -37.55625 
L 223.923253 -37.55625 
L 224.299631 -37.55625 
L 224.299631 -37.55625 
L 224.676009 -37.55625 
L 224.676009 -37.55625 
L 225.052388 -37.55625 
L 225.052388 -37.55625 
L 225.428766 -37.55625 
L 225.428766 -37.55625 
L 225.805144 -37.55625 
L 225.805144 -37.55625 
L 226.181522 -37.55625 
L 226.181522 -37.55625 
L 226.5579 -37.55625 
L 226.5579 -37.55625 
L 226.934279 -37.55625 
L 226.934279 -37.55625 
L 227.310657 -37.55625 
L 227.310657 -37.55625 
L 227.687035 -37.55625 
L 227.687035 -37.55625 
L 228.063413 -37.55625 
L 228.063413 -37.55625 
L 228.439791 -37.55625 
L 228.439791 -37.55625 
L 228.81617 -37.55625 
L 228.81617 -37.55625 
L 229.192548 -37.55625 
L 229.192548 -37.55625 
L 229.568926 -37.55625 
L 229.568926 -37.55625 
L 229.945304 -37.55625 
L 229.945304 -37.55625 
L 230.321682 -37.55625 
L 230.321682 -37.55625 
L 230.698061 -37.55625 
L 230.698061 -37.55625 
L 231.074439 -37.55625 
L 231.074439 -37.55625 
L 231.450817 -37.55625 
L 231.450817 -37.55625 
L 231.827195 -37.55625 
L 231.827195 -37.55625 
L 232.203573 -37.55625 
L 232.203573 -37.55625 
L 232.579952 -37.55625 
L 232.579952 -37.55625 
L 232.95633 -37.55625 
L 232.95633 -37.55625 
L 233.332708 -37.55625 
L 233.332708 -37.55625 
L 233.709086 -37.55625 
L 233.709086 -37.55625 
L 234.085464 -37.55625 
L 234.085464 -37.55625 
L 234.461843 -37.55625 
L 234.461843 -37.55625 
L 234.838221 -37.55625 
L 234.838221 -37.55625 
L 235.214599 -37.55625 
L 235.214599 -37.55625 
L 235.590977 -37.55625 
L 235.590977 -37.55625 
L 235.967356 -37.55625 
L 235.967356 -37.55625 
L 236.343734 -37.55625 
L 236.343734 -37.55625 
L 236.720112 -37.55625 
L 236.720112 -37.55625 
L 237.09649 -37.55625 
L 237.09649 -37.55625 
L 237.472868 -37.55625 
L 237.472868 -37.55625 
L 237.849247 -37.55625 
L 237.849247 -37.55625 
L 238.225625 -37.55625 
L 238.225625 -37.55625 
L 238.602003 -37.55625 
L 238.602003 -37.55625 
L 238.978381 -37.55625 
L 238.978381 -37.55625 
L 239.354759 -37.55625 
L 239.354759 -37.55625 
L 239.731138 -37.55625 
L 239.731138 -37.55625 
L 240.107516 -37.55625 
L 240.107516 -37.55625 
L 240.483894 -37.55625 
L 240.483894 -37.55625 
L 240.860272 -37.55625 
L 240.860272 -37.55625 
L 241.23665 -37.55625 
L 241.23665 -37.55625 
L 241.613029 -37.55625 
L 241.613029 -37.55625 
L 241.989407 -37.55625 
L 241.989407 -37.55625 
L 242.365785 -37.55625 
L 242.365785 -37.55625 
L 242.742163 -37.55625 
L 242.742163 -37.55625 
L 243.118541 -37.55625 
L 243.118541 -37.55625 
L 243.49492 -37.55625 
L 243.49492 -37.55625 
L 243.871298 -37.55625 
L 243.871298 -37.55625 
L 244.247676 -37.55625 
L 244.247676 -37.55625 
L 244.624054 -37.55625 
L 244.624054 -37.55625 
L 245.000432 -37.55625 
L 245.000432 -37.55625 
L 245.376811 -37.55625 
L 245.376811 -37.55625 
L 245.753189 -37.55625 
L 245.753189 -37.55625 
L 246.129567 -37.55625 
L 246.129567 -37.55625 
L 246.505945 -37.55625 
L 246.505945 -37.55625 
L 246.882323 -37.55625 
L 246.882323 -37.55625 
L 247.258702 -37.55625 
L 247.258702 -37.55625 
L 247.63508 -37.55625 
L 247.63508 -37.55625 
L 248.011458 -37.55625 
L 248.011458 -37.55625 
L 248.387836 -37.55625 
L 248.387836 -37.55625 
L 248.764214 -37.55625 
L 248.764214 -37.55625 
L 249.140593 -37.55625 
L 249.140593 -37.55625 
L 249.516971 -37.55625 
L 249.516971 -37.55625 
L 249.893349 -37.55625 
L 249.893349 -37.55625 
L 250.269727 -37.55625 
L 250.269727 -37.55625 
L 250.646105 -37.55625 
L 250.646105 -37.55625 
L 251.022484 -37.55625 
L 251.022484 -37.55625 
L 251.398862 -37.55625 
L 251.398862 -37.55625 
L 251.77524 -37.55625 
L 251.77524 -37.55625 
L 252.151618 -37.55625 
L 252.151618 -37.55625 
L 252.527996 -37.55625 
L 252.527996 -37.55625 
L 252.904375 -37.55625 
L 252.904375 -37.55625 
L 253.280753 -37.55625 
L 253.280753 -37.55625 
L 253.657131 -37.55625 
L 253.657131 -37.55625 
L 254.033509 -37.55625 
L 254.033509 -37.55625 
L 254.409887 -37.55625 
L 254.409887 -37.55625 
L 254.786266 -37.55625 
L 254.786266 -37.55625 
L 255.162644 -37.55625 
L 255.162644 -37.55625 
L 255.539022 -37.55625 
L 255.539022 -37.55625 
L 255.9154 -37.55625 
L 255.9154 -37.55625 
L 256.291778 -37.55625 
L 256.291778 -37.55625 
L 256.668157 -37.55625 
L 256.668157 -37.55625 
L 257.044535 -37.55625 
L 257.044535 -37.55625 
L 257.420913 -37.55625 
L 257.420913 -37.55625 
L 257.797291 -37.55625 
L 257.797291 -37.55625 
L 258.173669 -37.55625 
L 258.173669 -37.55625 
L 258.550048 -37.55625 
L 258.550048 -37.55625 
L 258.926426 -37.55625 
L 258.926426 -37.55625 
L 259.302804 -37.55625 
L 259.302804 -37.55625 
L 259.679182 -37.55625 
L 259.679182 -37.55625 
L 260.05556 -37.55625 
L 260.05556 -37.55625 
L 260.431939 -37.55625 
L 260.431939 -37.55625 
L 260.808317 -37.55625 
L 260.808317 -37.55625 
L 261.184695 -37.55625 
L 261.184695 -37.55625 
L 261.561073 -37.55625 
L 261.561073 -37.55625 
L 261.937451 -37.55625 
L 261.937451 -37.55625 
L 262.31383 -37.55625 
L 262.31383 -37.55625 
L 262.690208 -37.55625 
L 262.690208 -37.55625 
L 263.066586 -37.55625 
L 263.066586 -37.55625 
L 263.442964 -37.55625 
L 263.442964 -37.55625 
L 263.819342 -37.55625 
L 263.819342 -37.55625 
L 264.195721 -37.55625 
L 264.195721 -37.55625 
L 264.572099 -37.55625 
L 264.572099 -37.55625 
L 264.948477 -37.55625 
L 264.948477 -37.55625 
L 265.324855 -37.55625 
L 265.324855 -37.55625 
L 265.701233 -37.55625 
L 265.701233 -37.55625 
L 266.077612 -37.55625 
L 266.077612 -37.55625 
L 266.45399 -37.55625 
L 266.45399 -37.55625 
L 266.830368 -37.55625 
L 266.830368 -37.55625 
L 267.206746 -37.55625 
L 267.206746 -37.55625 
L 267.583124 -37.55625 
L 267.583124 -37.55625 
L 267.959503 -37.55625 
L 267.959503 -37.55625 
L 268.335881 -37.55625 
L 268.335881 -37.55625 
L 268.712259 -37.55625 
L 268.712259 -37.55625 
L 269.088637 -37.55625 
L 269.088637 -37.55625 
L 269.465015 -37.55625 
L 269.465015 -37.55625 
L 269.841394 -37.55625 
L 269.841394 -37.55625 
L 270.217772 -37.55625 
L 270.217772 -37.55625 
L 270.59415 -37.55625 
L 270.59415 -37.55625 
L 270.970528 -37.55625 
L 270.970528 -37.55625 
L 271.346906 -37.55625 
L 271.346906 -37.55625 
L 271.723285 -37.55625 
L 271.723285 -37.55625 
L 272.099663 -37.55625 
L 272.099663 -37.55625 
L 272.476041 -37.55625 
L 272.476041 -37.55625 
L 272.852419 -37.55625 
L 272.852419 -37.55625 
L 273.228797 -37.55625 
L 273.228797 -37.55625 
L 273.605176 -37.55625 
L 273.605176 -37.55625 
L 273.981554 -37.55625 
L 273.981554 -37.55625 
L 274.357932 -37.55625 
L 274.357932 -37.55625 
L 274.73431 -37.55625 
L 274.73431 -37.55625 
L 275.110688 -37.55625 
L 275.110688 -37.55625 
L 275.487067 -37.55625 
L 275.487067 -37.55625 
L 275.863445 -37.55625 
L 275.863445 -37.55625 
L 276.239823 -37.55625 
L 276.239823 -37.55625 
L 276.616201 -37.55625 
L 276.616201 -37.55625 
L 276.992579 -37.55625 
L 276.992579 -37.55625 
L 277.368958 -37.55625 
L 277.368958 -37.55625 
L 277.745336 -37.55625 
L 277.745336 -37.55625 
L 278.121714 -37.55625 
L 278.121714 -37.55625 
L 278.498092 -37.55625 
L 278.498092 -37.55625 
L 278.87447 -37.55625 
L 278.87447 -37.55625 
L 279.250849 -37.55625 
L 279.250849 -37.55625 
L 279.627227 -37.55625 
L 279.627227 -37.55625 
L 280.003605 -37.55625 
L 280.003605 -37.55625 
L 280.379983 -37.55625 
L 280.379983 -37.55625 
L 280.756361 -37.55625 
L 280.756361 -37.55625 
L 281.13274 -37.55625 
L 281.13274 -37.55625 
L 281.509118 -37.55625 
L 281.509118 -37.55625 
L 281.885496 -37.55625 
L 281.885496 -37.55625 
L 282.261874 -37.55625 
L 282.261874 -37.55625 
L 282.638252 -37.55625 
L 282.638252 -37.55625 
L 283.014631 -37.55625 
L 283.014631 -37.55625 
L 283.391009 -37.55625 
L 283.391009 -37.55625 
L 283.767387 -37.55625 
L 283.767387 -37.55625 
L 284.143765 -37.55625 
L 284.143765 -37.55625 
L 284.520143 -37.55625 
L 284.520143 -37.55625 
L 284.896522 -37.55625 
L 284.896522 -37.55625 
L 285.2729 -37.55625 
L 285.2729 -37.55625 
L 285.649278 -37.55625 
L 285.649278 -37.55625 
L 286.025656 -37.55625 
L 286.025656 -37.55625 
L 286.402034 -37.55625 
L 286.402034 -37.55625 
L 286.778413 -37.55625 
L 286.778413 -37.55625 
L 287.154791 -37.55625 
L 287.154791 -37.55625 
L 287.531169 -37.55625 
L 287.531169 -37.55625 
L 287.907547 -37.55625 
L 287.907547 -37.55625 
L 288.283925 -37.55625 
L 288.283925 -37.55625 
L 288.660304 -37.55625 
L 288.660304 -37.55625 
L 289.036682 -37.55625 
L 289.036682 -37.55625 
L 289.41306 -37.55625 
L 289.41306 -37.55625 
L 289.789438 -37.55625 
L 289.789438 -37.55625 
L 290.165816 -37.55625 
L 290.165816 -37.55625 
L 290.542195 -37.55625 
L 290.542195 -37.55625 
L 290.918573 -37.55625 
L 290.918573 -37.55625 
L 291.294951 -37.55625 
L 291.294951 -37.55625 
L 291.671329 -37.55625 
L 291.671329 -37.55625 
L 292.047707 -37.55625 
L 292.047707 -37.55625 
L 292.424086 -37.55625 
L 292.424086 -37.55625 
L 292.800464 -37.55625 
L 292.800464 -37.55625 
L 293.176842 -37.55625 
L 293.176842 -37.55625 
L 293.55322 -37.55625 
L 293.55322 -37.55625 
L 293.929598 -37.55625 
L 293.929598 -37.55625 
L 294.305977 -37.55625 
L 294.305977 -37.55625 
L 294.682355 -37.55625 
L 294.682355 -37.55625 
L 295.058733 -37.55625 
L 295.058733 -37.55625 
L 295.435111 -37.55625 
L 295.435111 -37.55625 
L 295.811489 -37.55625 
L 295.811489 -37.55625 
L 296.187868 -37.55625 
L 296.187868 -37.55625 
L 296.564246 -37.55625 
L 296.564246 -37.55625 
L 296.940624 -37.55625 
L 296.940624 -37.55625 
L 297.317002 -37.55625 
L 297.317002 -37.55625 
L 297.69338 -37.55625 
L 297.69338 -37.55625 
L 298.069759 -37.55625 
L 298.069759 -37.55625 
L 298.446137 -37.55625 
L 298.446137 -37.55625 
L 298.822515 -37.55625 
L 298.822515 -37.55625 
L 299.198893 -37.55625 
L 299.198893 -37.55625 
L 299.575271 -37.55625 
L 299.575271 -37.55625 
L 299.95165 -37.55625 
L 299.95165 -37.55625 
L 300.328028 -37.55625 
L 300.328028 -37.55625 
L 300.704406 -37.55625 
L 300.704406 -37.55625 
L 301.080784 -37.55625 
L 301.080784 -37.55625 
L 301.457163 -37.55625 
L 301.457163 -37.55625 
L 301.833541 -37.55625 
L 301.833541 -37.55625 
L 302.209919 -37.55625 
L 302.209919 -37.55625 
L 302.586297 -37.55625 
L 302.586297 -37.55625 
L 302.962675 -37.55625 
L 302.962675 -37.55625 
L 303.339054 -37.55625 
L 303.339054 -37.55625 
L 303.715432 -37.55625 
L 303.715432 -37.55625 
L 304.09181 -37.55625 
L 304.09181 -37.55625 
L 304.468188 -37.55625 
L 304.468188 -37.55625 
L 304.844566 -37.55625 
L 304.844566 -37.55625 
L 305.220945 -37.55625 
L 305.220945 -37.55625 
L 305.597323 -37.55625 
L 305.597323 -37.55625 
L 305.973701 -37.55625 
L 305.973701 -37.55625 
L 306.350079 -37.55625 
L 306.350079 -37.55625 
L 306.726457 -37.55625 
L 306.726457 -37.55625 
L 307.102836 -37.55625 
L 307.102836 -37.55625 
L 307.479214 -37.55625 
L 307.479214 -37.55625 
L 307.855592 -37.55625 
L 307.855592 -37.55625 
L 308.23197 -37.55625 
L 308.23197 -37.55625 
L 308.608348 -37.55625 
L 308.608348 -37.55625 
L 308.984727 -37.55625 
L 308.984727 -37.55625 
L 309.361105 -37.55625 
L 309.361105 -37.55625 
L 309.737483 -37.55625 
L 309.737483 -37.55625 
L 310.113861 -37.55625 
L 310.113861 -37.55625 
L 310.490239 -37.55625 
L 310.490239 -37.55625 
L 310.866618 -37.55625 
L 310.866618 -37.55625 
L 311.242996 -37.55625 
L 311.242996 -37.55625 
L 311.619374 -37.55625 
L 311.619374 -37.55625 
L 311.995752 -37.55625 
L 311.995752 -37.55625 
L 312.37213 -37.55625 
L 312.37213 -37.55625 
L 312.748509 -37.55625 
L 312.748509 -37.55625 
L 313.124887 -37.55625 
L 313.124887 -37.55625 
L 313.501265 -37.55625 
L 313.501265 -37.55625 
L 313.877643 -37.55625 
L 313.877643 -37.55625 
L 314.254021 -37.55625 
L 314.254021 -37.55625 
L 314.6304 -37.55625 
L 314.6304 -37.55625 
L 315.006778 -37.55625 
L 315.006778 -37.55625 
L 315.383156 -37.55625 
L 315.383156 -37.55625 
L 315.759534 -37.55625 
L 315.759534 -37.55625 
L 316.135912 -37.55625 
L 316.135912 -37.55625 
L 316.512291 -37.55625 
L 316.512291 -37.55625 
L 316.888669 -37.55625 
L 316.888669 -37.55625 
L 317.265047 -37.55625 
L 317.265047 -37.55625 
L 317.641425 -37.55625 
L 317.641425 -37.55625 
L 318.017803 -37.55625 
L 318.017803 -37.55625 
L 318.394182 -37.55625 
L 318.394182 -37.55625 
L 318.77056 -37.55625 
L 318.77056 -37.55625 
L 319.146938 -37.55625 
L 319.146938 -37.55625 
L 319.523316 -37.55625 
L 319.523316 -37.55625 
L 319.899694 -37.55625 
L 319.899694 -37.55625 
L 320.276073 -37.55625 
L 320.276073 -37.55625 
L 320.652451 -37.55625 
L 320.652451 -37.55625 
L 321.028829 -37.55625 
L 321.028829 -37.55625 
L 321.405207 -37.55625 
L 321.405207 -37.55625 
L 321.781585 -37.55625 
L 321.781585 -37.55625 
L 322.157964 -37.55625 
L 322.157964 -37.55625 
L 322.534342 -37.55625 
L 322.534342 -37.55625 
L 322.91072 -37.55625 
L 322.91072 -37.55625 
L 323.287098 -37.55625 
L 323.287098 -37.55625 
L 323.663476 -37.55625 
L 323.663476 -37.55625 
L 324.039855 -37.55625 
L 324.039855 -37.55625 
L 324.416233 -37.55625 
L 324.416233 -37.55625 
L 324.792611 -37.55625 
L 324.792611 -37.55625 
L 325.168989 -37.55625 
L 325.168989 -37.55625 
L 325.545367 -37.55625 
L 325.545367 -37.55625 
L 325.921746 -37.55625 
L 325.921746 -37.55625 
L 326.298124 -37.55625 
L 326.298124 -37.55625 
L 326.674502 -37.55625 
L 326.674502 -37.55625 
L 327.05088 -37.55625 
L 327.05088 -37.55625 
L 327.427258 -37.55625 
L 327.427258 -37.55625 
L 327.803637 -37.55625 
L 327.803637 -37.55625 
L 328.180015 -37.55625 
L 328.180015 -37.55625 
L 328.556393 -37.55625 
L 328.556393 -37.55625 
L 328.932771 -37.55625 
L 328.932771 -37.55625 
L 329.309149 -37.55625 
L 329.309149 -37.55625 
L 329.685528 -37.55625 
L 329.685528 -37.55625 
L 330.061906 -37.55625 
L 330.061906 -37.55625 
L 330.438284 -37.55625 
L 330.438284 -37.55625 
L 330.814662 -37.55625 
L 330.814662 -37.55625 
L 331.19104 -37.55625 
L 331.19104 -37.55625 
L 331.567419 -37.55625 
L 331.567419 -37.55625 
L 331.943797 -37.55625 
L 331.943797 -37.55625 
L 332.320175 -37.55625 
L 332.320175 -37.55625 
L 332.696553 -37.55625 
L 332.696553 -37.55625 
L 333.072931 -37.55625 
L 333.072931 -37.55625 
L 333.44931 -37.55625 
L 333.44931 -37.55625 
L 333.825688 -37.55625 
L 333.825688 -37.55625 
L 334.202066 -37.55625 
L 334.202066 -37.55625 
L 334.578444 -37.55625 
L 334.578444 -37.55625 
L 334.954822 -37.55625 
L 334.954822 -37.55625 
L 335.331201 -37.55625 
L 335.331201 -37.55625 
L 335.707579 -37.55625 
L 335.707579 -37.55625 
L 336.083957 -37.55625 
L 336.083957 -37.55625 
L 336.460335 -37.55625 
L 336.460335 -37.55625 
L 336.836713 -37.55625 
L 336.836713 -37.55625 
L 337.213092 -37.55625 
L 337.213092 -37.55625 
L 337.58947 -37.55625 
L 337.58947 -37.55625 
L 337.965848 -37.55625 
L 337.965848 -37.55625 
L 338.342226 -37.55625 
L 338.342226 -37.55625 
L 338.718604 -37.55625 
L 338.718604 -37.55625 
L 339.094983 -37.55625 
L 339.094983 -37.55625 
L 339.094983 -37.576857 
L 339.094983 -37.576857 
L 339.094983 -37.576857 
L 338.718604 -37.576857 
L 338.718604 -37.55625 
L 338.342226 -37.55625 
L 338.342226 -37.55625 
L 337.965848 -37.55625 
L 337.965848 -37.55625 
L 337.58947 -37.55625 
L 337.58947 -37.55625 
L 337.213092 -37.55625 
L 337.213092 -37.55625 
L 336.836713 -37.55625 
L 336.836713 -37.55625 
L 336.460335 -37.55625 
L 336.460335 -37.55625 
L 336.083957 -37.55625 
L 336.083957 -37.55625 
L 335.707579 -37.55625 
L 335.707579 -37.55625 
L 335.331201 -37.55625 
L 335.331201 -37.55625 
L 334.954822 -37.55625 
L 334.954822 -37.55625 
L 334.578444 -37.55625 
L 334.578444 -37.55625 
L 334.202066 -37.55625 
L 334.202066 -37.55625 
L 333.825688 -37.55625 
L 333.825688 -37.55625 
L 333.44931 -37.55625 
L 333.44931 -37.55625 
L 333.072931 -37.55625 
L 333.072931 -37.55625 
L 332.696553 -37.55625 
L 332.696553 -37.55625 
L 332.320175 -37.55625 
L 332.320175 -37.55625 
L 331.943797 -37.55625 
L 331.943797 -37.55625 
L 331.567419 -37.55625 
L 331.567419 -37.55625 
L 331.19104 -37.55625 
L 331.19104 -37.55625 
L 330.814662 -37.55625 
L 330.814662 -37.55625 
L 330.438284 -37.55625 
L 330.438284 -37.55625 
L 330.061906 -37.55625 
L 330.061906 -37.55625 
L 329.685528 -37.55625 
L 329.685528 -37.55625 
L 329.309149 -37.55625 
L 329.309149 -37.55625 
L 328.932771 -37.55625 
L 328.932771 -37.55625 
L 328.556393 -37.55625 
L 328.556393 -37.55625 
L 328.180015 -37.55625 
L 328.180015 -37.576857 
L 327.803637 -37.576857 
L 327.803637 -37.55625 
L 327.427258 -37.55625 
L 327.427258 -37.55625 
L 327.05088 -37.55625 
L 327.05088 -37.576857 
L 326.674502 -37.576857 
L 326.674502 -37.55625 
L 326.298124 -37.55625 
L 326.298124 -37.55625 
L 325.921746 -37.55625 
L 325.921746 -37.55625 
L 325.545367 -37.55625 
L 325.545367 -37.55625 
L 325.168989 -37.55625 
L 325.168989 -37.55625 
L 324.792611 -37.55625 
L 324.792611 -37.55625 
L 324.416233 -37.55625 
L 324.416233 -37.55625 
L 324.039855 -37.55625 
L 324.039855 -37.597464 
L 323.663476 -37.597464 
L 323.663476 -37.55625 
L 323.287098 -37.55625 
L 323.287098 -37.55625 
L 322.91072 -37.55625 
L 322.91072 -37.55625 
L 322.534342 -37.55625 
L 322.534342 -37.55625 
L 322.157964 -37.55625 
L 322.157964 -37.55625 
L 321.781585 -37.55625 
L 321.781585 -37.55625 
L 321.405207 -37.55625 
L 321.405207 -37.55625 
L 321.028829 -37.55625 
L 321.028829 -37.55625 
L 320.652451 -37.55625 
L 320.652451 -37.55625 
L 320.276073 -37.55625 
L 320.276073 -37.576857 
L 319.899694 -37.576857 
L 319.899694 -37.55625 
L 319.523316 -37.55625 
L 319.523316 -37.55625 
L 319.146938 -37.55625 
L 319.146938 -37.576857 
L 318.77056 -37.576857 
L 318.77056 -37.55625 
L 318.394182 -37.55625 
L 318.394182 -37.55625 
L 318.017803 -37.55625 
L 318.017803 -37.55625 
L 317.641425 -37.55625 
L 317.641425 -37.576857 
L 317.265047 -37.576857 
L 317.265047 -37.55625 
L 316.888669 -37.55625 
L 316.888669 -37.597464 
L 316.512291 -37.597464 
L 316.512291 -37.55625 
L 316.135912 -37.55625 
L 316.135912 -37.55625 
L 315.759534 -37.55625 
L 315.759534 -37.55625 
L 315.383156 -37.55625 
L 315.383156 -37.55625 
L 315.006778 -37.55625 
L 315.006778 -37.55625 
L 314.6304 -37.55625 
L 314.6304 -37.55625 
L 314.254021 -37.55625 
L 314.254021 -37.55625 
L 313.877643 -37.55625 
L 313.877643 -37.55625 
L 313.501265 -37.55625 
L 313.501265 -37.55625 
L 313.124887 -37.55625 
L 313.124887 -37.55625 
L 312.748509 -37.55625 
L 312.748509 -37.55625 
L 312.37213 -37.55625 
L 312.37213 -37.55625 
L 311.995752 -37.55625 
L 311.995752 -37.576857 
L 311.619374 -37.576857 
L 311.619374 -37.55625 
L 311.242996 -37.55625 
L 311.242996 -37.55625 
L 310.866618 -37.55625 
L 310.866618 -37.638678 
L 310.490239 -37.638678 
L 310.490239 -37.576857 
L 310.113861 -37.576857 
L 310.113861 -37.55625 
L 309.737483 -37.55625 
L 309.737483 -37.55625 
L 309.361105 -37.55625 
L 309.361105 -37.55625 
L 308.984727 -37.55625 
L 308.984727 -37.597464 
L 308.608348 -37.597464 
L 308.608348 -37.55625 
L 308.23197 -37.55625 
L 308.23197 -37.55625 
L 307.855592 -37.55625 
L 307.855592 -37.618071 
L 307.479214 -37.618071 
L 307.479214 -37.576857 
L 307.102836 -37.576857 
L 307.102836 -37.55625 
L 306.726457 -37.55625 
L 306.726457 -37.55625 
L 306.350079 -37.55625 
L 306.350079 -37.55625 
L 305.973701 -37.55625 
L 305.973701 -37.55625 
L 305.597323 -37.55625 
L 305.597323 -37.638678 
L 305.220945 -37.638678 
L 305.220945 -37.55625 
L 304.844566 -37.55625 
L 304.844566 -37.638678 
L 304.468188 -37.638678 
L 304.468188 -37.55625 
L 304.09181 -37.55625 
L 304.09181 -37.576857 
L 303.715432 -37.576857 
L 303.715432 -37.55625 
L 303.339054 -37.55625 
L 303.339054 -37.576857 
L 302.962675 -37.576857 
L 302.962675 -37.576857 
L 302.586297 -37.576857 
L 302.586297 -37.55625 
L 302.209919 -37.55625 
L 302.209919 -37.597464 
L 301.833541 -37.597464 
L 301.833541 -37.55625 
L 301.457163 -37.55625 
L 301.457163 -37.659285 
L 301.080784 -37.659285 
L 301.080784 -37.55625 
L 300.704406 -37.55625 
L 300.704406 -37.741713 
L 300.328028 -37.741713 
L 300.328028 -37.55625 
L 299.95165 -37.55625 
L 299.95165 -37.55625 
L 299.575271 -37.55625 
L 299.575271 -37.55625 
L 299.198893 -37.55625 
L 299.198893 -37.618071 
L 298.822515 -37.618071 
L 298.822515 -37.762319 
L 298.446137 -37.762319 
L 298.446137 -37.55625 
L 298.069759 -37.55625 
L 298.069759 -37.55625 
L 297.69338 -37.55625 
L 297.69338 -37.782926 
L 297.317002 -37.782926 
L 297.317002 -37.679892 
L 296.940624 -37.679892 
L 296.940624 -37.638678 
L 296.564246 -37.638678 
L 296.564246 -37.638678 
L 296.187868 -37.638678 
L 296.187868 -37.55625 
L 295.811489 -37.55625 
L 295.811489 -37.55625 
L 295.435111 -37.55625 
L 295.435111 -37.55625 
L 295.058733 -37.55625 
L 295.058733 -37.721106 
L 294.682355 -37.721106 
L 294.682355 -37.947782 
L 294.305977 -37.947782 
L 294.305977 -37.721106 
L 293.929598 -37.721106 
L 293.929598 -37.55625 
L 293.55322 -37.55625 
L 293.55322 -37.55625 
L 293.176842 -37.55625 
L 293.176842 -37.618071 
L 292.800464 -37.618071 
L 292.800464 -37.659285 
L 292.424086 -37.659285 
L 292.424086 -37.721106 
L 292.047707 -37.721106 
L 292.047707 -37.659285 
L 291.671329 -37.659285 
L 291.671329 -37.82414 
L 291.294951 -37.82414 
L 291.294951 -37.659285 
L 290.918573 -37.659285 
L 290.918573 -37.741713 
L 290.542195 -37.741713 
L 290.542195 -37.55625 
L 290.165816 -37.55625 
L 290.165816 -37.55625 
L 289.789438 -37.55625 
L 289.789438 -37.55625 
L 289.41306 -37.55625 
L 289.41306 -37.947782 
L 289.036682 -37.947782 
L 289.036682 -37.55625 
L 288.660304 -37.55625 
L 288.660304 -37.988996 
L 288.283925 -37.988996 
L 288.283925 -37.638678 
L 287.907547 -37.638678 
L 287.907547 -37.55625 
L 287.531169 -37.55625 
L 287.531169 -37.927175 
L 287.154791 -37.927175 
L 287.154791 -37.618071 
L 286.778413 -37.618071 
L 286.778413 -37.55625 
L 286.402034 -37.55625 
L 286.402034 -37.885961 
L 286.025656 -37.885961 
L 286.025656 -37.885961 
L 285.649278 -37.885961 
L 285.649278 -37.741713 
L 285.2729 -37.741713 
L 285.2729 -37.721106 
L 284.896522 -37.721106 
L 284.896522 -37.721106 
L 284.520143 -37.721106 
L 284.520143 -37.679892 
L 284.143765 -37.679892 
L 284.143765 -37.803533 
L 283.767387 -37.803533 
L 283.767387 -38.050817 
L 283.391009 -38.050817 
L 283.391009 -37.55625 
L 283.014631 -37.55625 
L 283.014631 -37.782926 
L 282.638252 -37.782926 
L 282.638252 -37.55625 
L 282.261874 -37.55625 
L 282.261874 -37.947782 
L 281.885496 -37.947782 
L 281.885496 -38.133245 
L 281.509118 -38.133245 
L 281.509118 -37.82414 
L 281.13274 -37.82414 
L 281.13274 -37.576857 
L 280.756361 -37.576857 
L 280.756361 -38.174458 
L 280.379983 -38.174458 
L 280.379983 -37.721106 
L 280.003605 -37.721106 
L 280.003605 -37.782926 
L 279.627227 -37.782926 
L 279.627227 -38.195065 
L 279.250849 -38.195065 
L 279.250849 -38.277493 
L 278.87447 -38.277493 
L 278.87447 -37.762319 
L 278.498092 -37.762319 
L 278.498092 -37.762319 
L 278.121714 -37.762319 
L 278.121714 -38.153851 
L 277.745336 -38.153851 
L 277.745336 -37.721106 
L 277.368958 -37.721106 
L 277.368958 -38.215672 
L 276.992579 -38.215672 
L 276.992579 -37.576857 
L 276.616201 -37.576857 
L 276.616201 -38.277493 
L 276.239823 -38.277493 
L 276.239823 -37.721106 
L 275.863445 -37.721106 
L 275.863445 -37.906568 
L 275.487067 -37.906568 
L 275.487067 -38.03021 
L 275.110688 -38.03021 
L 275.110688 -37.741713 
L 274.73431 -37.741713 
L 274.73431 -38.359921 
L 274.357932 -38.359921 
L 274.357932 -38.359921 
L 273.981554 -38.359921 
L 273.981554 -38.03021 
L 273.605176 -38.03021 
L 273.605176 -37.803533 
L 273.228797 -37.803533 
L 273.228797 -37.803533 
L 272.852419 -37.803533 
L 272.852419 -37.947782 
L 272.476041 -37.947782 
L 272.476041 -37.968389 
L 272.099663 -37.968389 
L 272.099663 -38.421742 
L 271.723285 -38.421742 
L 271.723285 -38.195065 
L 271.346906 -38.195065 
L 271.346906 -37.638678 
L 270.970528 -37.638678 
L 270.970528 -38.2981 
L 270.59415 -38.2981 
L 270.59415 -38.875095 
L 270.217772 -38.875095 
L 270.217772 -37.844747 
L 269.841394 -37.844747 
L 269.841394 -38.236279 
L 269.465015 -38.236279 
L 269.465015 -38.03021 
L 269.088637 -38.03021 
L 269.088637 -37.927175 
L 268.712259 -37.927175 
L 268.712259 -37.721106 
L 268.335881 -37.721106 
L 268.335881 -38.339314 
L 267.959503 -38.339314 
L 267.959503 -38.895702 
L 267.583124 -38.895702 
L 267.583124 -37.906568 
L 267.206746 -37.906568 
L 267.206746 -38.978129 
L 266.830368 -38.978129 
L 266.830368 -38.442349 
L 266.45399 -38.442349 
L 266.45399 -38.195065 
L 266.077612 -38.195065 
L 266.077612 -39.163592 
L 265.701233 -39.163592 
L 265.701233 -37.782926 
L 265.324855 -37.782926 
L 265.324855 -37.968389 
L 264.948477 -37.968389 
L 264.948477 -39.410875 
L 264.572099 -39.410875 
L 264.572099 -39.761193 
L 264.195721 -39.761193 
L 264.195721 -38.483563 
L 263.819342 -38.483563 
L 263.819342 -38.215672 
L 263.442964 -38.215672 
L 263.442964 -37.865354 
L 263.066586 -37.865354 
L 263.066586 -37.659285 
L 262.690208 -37.659285 
L 262.690208 -39.51391 
L 262.31383 -39.51391 
L 262.31383 -38.03021 
L 261.937451 -38.03021 
L 261.937451 -43.099519 
L 261.561073 -43.099519 
L 261.561073 -37.659285 
L 261.184695 -37.659285 
L 261.184695 -38.050817 
L 260.808317 -38.050817 
L 260.808317 -38.998736 
L 260.431939 -38.998736 
L 260.431939 -38.009603 
L 260.05556 -38.009603 
L 260.05556 -38.009603 
L 259.679182 -38.009603 
L 259.679182 -46.643914 
L 259.302804 -46.643914 
L 259.302804 -37.906568 
L 258.926426 -37.906568 
L 258.926426 -37.844747 
L 258.550048 -37.844747 
L 258.550048 -38.689632 
L 258.173669 -38.689632 
L 258.173669 -39.225413 
L 257.797291 -39.225413 
L 257.797291 -42.337062 
L 257.420913 -42.337062 
L 257.420913 -43.594086 
L 257.044535 -43.594086 
L 257.044535 -38.195065 
L 256.668157 -38.195065 
L 256.668157 -39.122378 
L 256.291778 -39.122378 
L 256.291778 -42.831629 
L 255.9154 -42.831629 
L 255.9154 -37.803533 
L 255.539022 -37.803533 
L 255.539022 -44.706861 
L 255.162644 -44.706861 
L 255.162644 -40.935789 
L 254.786266 -40.935789 
L 254.786266 -43.655907 
L 254.409887 -43.655907 
L 254.409887 -39.493303 
L 254.033509 -39.493303 
L 254.033509 -42.831629 
L 253.657131 -42.831629 
L 253.657131 -40.72972 
L 253.280753 -40.72972 
L 253.280753 -47.220908 
L 252.904375 -47.220908 
L 252.904375 -39.204806 
L 252.527996 -39.204806 
L 252.527996 -42.975877 
L 252.151618 -42.975877 
L 252.151618 -47.468192 
L 251.77524 -47.468192 
L 251.77524 -44.438971 
L 251.398862 -44.438971 
L 251.398862 -38.875095 
L 251.022484 -38.875095 
L 251.022484 -52.372645 
L 250.646105 -52.372645 
L 250.646105 -38.339314 
L 250.269727 -38.339314 
L 250.269727 -51.053801 
L 249.893349 -51.053801 
L 249.893349 -49.260996 
L 249.516971 -49.260996 
L 249.516971 -38.009603 
L 249.140593 -38.009603 
L 249.140593 -52.496287 
L 248.764214 -52.496287 
L 248.764214 -48.642788 
L 248.387836 -48.642788 
L 248.387836 -47.859724 
L 248.011458 -47.859724 
L 248.011458 -52.20779 
L 247.63508 -52.20779 
L 247.63508 -43.944404 
L 247.258702 -43.944404 
L 247.258702 -51.73383 
L 246.882323 -51.73383 
L 246.882323 -52.00172 
L 246.505945 -52.00172 
L 246.505945 -44.995358 
L 246.129567 -44.995358 
L 246.129567 -56.287965 
L 245.753189 -56.287965 
L 245.753189 -53.526634 
L 245.376811 -53.526634 
L 245.376811 -49.611314 
L 245.000432 -49.611314 
L 245.000432 -59.028689 
L 244.624054 -59.028689 
L 244.624054 -54.763051 
L 244.247676 -54.763051 
L 244.247676 -57.359527 
L 243.871298 -57.359527 
L 243.871298 -56.349786 
L 243.49492 -56.349786 
L 243.49492 -58.101377 
L 243.118541 -58.101377 
L 243.118541 -58.472302 
L 242.742163 -58.472302 
L 242.742163 -51.095015 
L 242.365785 -51.095015 
L 242.365785 -54.412733 
L 241.989407 -54.412733 
L 241.989407 -56.86496 
L 241.613029 -56.86496 
L 241.613029 -57.050422 
L 241.23665 -57.050422 
L 241.23665 -68.13696 
L 240.860272 -68.13696 
L 240.860272 -74.875432 
L 240.483894 -74.875432 
L 240.483894 -45.407497 
L 240.107516 -45.407497 
L 240.107516 -52.599322 
L 239.731138 -52.599322 
L 239.731138 -51.960506 
L 239.354759 -51.960506 
L 239.354759 -52.125362 
L 238.978381 -52.125362 
L 238.978381 -61.748807 
L 238.602003 -61.748807 
L 238.602003 -65.932017 
L 238.225625 -65.932017 
L 238.225625 -47.880331 
L 237.849247 -47.880331 
L 237.849247 -49.734956 
L 237.472868 -49.734956 
L 237.472868 -44.294722 
L 237.09649 -44.294722 
L 237.09649 -49.137355 
L 236.720112 -49.137355 
L 236.720112 -52.805391 
L 236.343734 -52.805391 
L 236.343734 -58.451695 
L 235.967356 -58.451695 
L 235.967356 -41.492177 
L 235.590977 -41.492177 
L 235.590977 -44.212294 
L 235.214599 -44.212294 
L 235.214599 -42.790415 
L 234.838221 -42.790415 
L 234.838221 -49.384638 
L 234.461843 -49.384638 
L 234.461843 -43.861976 
L 234.085464 -43.861976 
L 234.085464 -41.347928 
L 233.709086 -41.347928 
L 233.709086 -42.254634 
L 233.332708 -42.254634 
L 233.332708 -44.995358 
L 232.95633 -44.995358 
L 232.95633 -42.192813 
L 232.579952 -42.192813 
L 232.579952 -40.853362 
L 232.203573 -40.853362 
L 232.203573 -46.376024 
L 231.827195 -46.376024 
L 231.827195 -40.25576 
L 231.450817 -40.25576 
L 231.450817 -40.626685 
L 231.074439 -40.626685 
L 231.074439 -47.014839 
L 230.698061 -47.014839 
L 230.698061 -39.328447 
L 230.321682 -39.328447 
L 230.321682 -41.574605 
L 229.945304 -41.574605 
L 229.945304 -46.953018 
L 229.568926 -46.953018 
L 229.568926 -38.56599 
L 229.192548 -38.56599 
L 229.192548 -43.676513 
L 228.81617 -43.676513 
L 228.81617 -46.891197 
L 228.439791 -46.891197 
L 228.439791 -40.832755 
L 228.063413 -40.832755 
L 228.063413 -45.757815 
L 227.687035 -45.757815 
L 227.687035 -46.046312 
L 227.310657 -46.046312 
L 227.310657 -44.706861 
L 226.934279 -44.706861 
L 226.934279 -45.902064 
L 226.5579 -45.902064 
L 226.5579 -45.201428 
L 226.181522 -45.201428 
L 226.181522 -44.315329 
L 225.805144 -44.315329 
L 225.805144 -44.974751 
L 225.428766 -44.974751 
L 225.428766 -51.486547 
L 225.052388 -51.486547 
L 225.052388 -49.096141 
L 224.676009 -49.096141 
L 224.676009 -43.243768 
L 224.299631 -43.243768 
L 224.299631 -56.308572 
L 223.923253 -56.308572 
L 223.923253 -52.640536 
L 223.546875 -52.640536 
L 223.546875 -50.703483 
L 223.170497 -50.703483 
L 223.170497 -57.297706 
L 222.794118 -57.297706 
L 222.794118 -46.705735 
L 222.41774 -46.705735 
L 222.41774 -62.964616 
L 222.041362 -62.964616 
L 222.041362 -66.612046 
L 221.664984 -66.612046 
L 221.664984 -47.61244 
L 221.288606 -47.61244 
L 221.288606 -70.424331 
L 220.912227 -70.424331 
L 220.912227 -67.456931 
L 220.535849 -67.456931 
L 220.535849 -85.591045 
L 220.159471 -85.591045 
L 220.159471 -54.041808 
L 219.783093 -54.041808 
L 219.783093 -97.378219 
L 219.406715 -97.378219 
L 219.406715 -85.797114 
L 219.030336 -85.797114 
L 219.030336 -111.514585 
L 218.653958 -111.514585 
L 218.653958 -79.697458 
L 218.27758 -79.697458 
L 218.27758 -120.622856 
L 217.901202 -120.622856 
L 217.901202 -124.270286 
L 217.524824 -124.270286 
L 217.524824 -143.455354 
L 217.148445 -143.455354 
L 217.148445 -148.874981 
L 216.772067 -148.874981 
L 216.772067 -222.60664 
L 216.395689 -222.60664 
L 216.395689 -277.771439 
L 216.019311 -277.771439 
L 216.019311 -243.110553 
L 215.642933 -243.110553 
L 215.642933 -162.599208 
L 215.266554 -162.599208 
L 215.266554 -230.210603 
L 214.890176 -230.210603 
L 214.890176 -315.97672 
L 214.513798 -315.97672 
L 214.513798 -316.327038 
L 214.13742 -316.327038 
L 214.13742 -161.259757 
L 213.761042 -161.259757 
L 213.761042 -162.764064 
L 213.384663 -162.764064 
L 213.384663 -306.621165 
L 213.008285 -306.621165 
L 213.008285 -151.327208 
L 212.631907 -151.327208 
L 212.631907 -117.614242 
L 212.255529 -117.614242 
L 212.255529 -115.883258 
L 211.879151 -115.883258 
L 211.879151 -137.891478 
L 211.502772 -137.891478 
L 211.502772 -65.808375 
L 211.126394 -65.808375 
L 211.126394 -74.112975 
L 210.750016 -74.112975 
L 210.750016 -79.491388 
L 210.373638 -79.491388 
L 210.373638 -51.136228 
L 209.99726 -51.136228 
L 209.99726 -55.978861 
L 209.620881 -55.978861 
L 209.620881 -55.958254 
L 209.244503 -55.958254 
L 209.244503 -49.467066 
L 208.868125 -49.467066 
L 208.868125 -52.084148 
L 208.491747 -52.084148 
L 208.491747 -53.320565 
L 208.115369 -53.320565 
L 208.115369 -48.003972 
L 207.73899 -48.003972 
L 207.73899 -49.281603 
L 207.362612 -49.281603 
L 207.362612 -50.78591 
L 206.986234 -50.78591 
L 206.986234 -50.950766 
L 206.609856 -50.950766 
L 206.609856 -53.979987 
L 206.233478 -53.979987 
L 206.233478 -47.756689 
L 205.857099 -47.756689 
L 205.857099 -47.797903 
L 205.480721 -47.797903 
L 205.480721 -54.927907 
L 205.104343 -54.927907 
L 205.104343 -48.869464 
L 204.727965 -48.869464 
L 204.727965 -56.164324 
L 204.351587 -56.164324 
L 204.351587 -48.107007 
L 203.975208 -48.107007 
L 203.975208 -56.782532 
L 203.59883 -56.782532 
L 203.59883 -53.835739 
L 203.222452 -53.835739 
L 203.222452 -56.184931 
L 202.846074 -56.184931 
L 202.846074 -53.670883 
L 202.469696 -53.670883 
L 202.469696 -51.816258 
L 202.093317 -51.816258 
L 202.093317 -56.844353 
L 201.716939 -56.844353 
L 201.716939 -59.976609 
L 201.340561 -59.976609 
L 201.340561 -59.008082 
L 200.964183 -59.008082 
L 200.964183 -58.55473 
L 200.587805 -58.55473 
L 200.587805 -63.129472 
L 200.211426 -63.129472 
L 200.211426 -58.905048 
L 199.835048 -58.905048 
L 199.835048 -73.577194 
L 199.45867 -73.577194 
L 199.45867 -58.286839 
L 199.082292 -58.286839 
L 199.082292 -74.525114 
L 198.705914 -74.525114 
L 198.705914 -64.180426 
L 198.329535 -64.180426 
L 198.329535 -74.937253 
L 197.953157 -74.937253 
L 197.953157 -70.486152 
L 197.576779 -70.486152 
L 197.576779 -76.297312 
L 197.200401 -76.297312 
L 197.200401 -82.417575 
L 196.824023 -82.417575 
L 196.824023 -80.810233 
L 196.447644 -80.810233 
L 196.447644 -86.477144 
L 196.071266 -86.477144 
L 196.071266 -86.538965 
L 195.694888 -86.538965 
L 195.694888 -87.548705 
L 195.31851 -87.548705 
L 195.31851 -98.387959 
L 194.942132 -98.387959 
L 194.942132 -93.875038 
L 194.565753 -93.875038 
L 194.565753 -103.931228 
L 194.189375 -103.931228 
L 194.189375 -113.801956 
L 193.812997 -113.801956 
L 193.812997 -108.650219 
L 193.436619 -108.650219 
L 193.436619 -111.741261 
L 193.060241 -111.741261 
L 193.060241 -134.594366 
L 192.683862 -134.594366 
L 192.683862 -128.741993 
L 192.307484 -128.741993 
L 192.307484 -120.025254 
L 191.931106 -120.025254 
L 191.931106 -153.47033 
L 191.554728 -153.47033 
L 191.554728 -126.434015 
L 191.17835 -126.434015 
L 191.17835 -159.714236 
L 190.801971 -159.714236 
L 190.801971 -146.793679 
L 190.425593 -146.793679 
L 190.425593 -162.99074 
L 190.049215 -162.99074 
L 190.049215 -167.11213 
L 189.672837 -167.11213 
L 189.672837 -146.608217 
L 189.296459 -146.608217 
L 189.296459 -166.432101 
L 188.92008 -166.432101 
L 188.92008 -183.762543 
L 188.543702 -183.762543 
L 188.543702 -172.284474 
L 188.167324 -172.284474 
L 188.167324 -161.857358 
L 187.790946 -161.857358 
L 187.790946 -153.120012 
L 187.414568 -153.120012 
L 187.414568 -172.202046 
L 187.038189 -172.202046 
L 187.038189 -151.615705 
L 186.661811 -151.615705 
L 186.661811 -158.374784 
L 186.285433 -158.374784 
L 186.285433 -145.433621 
L 185.909055 -145.433621 
L 185.909055 -136.181101 
L 185.532677 -136.181101 
L 185.532677 -109.65996 
L 185.156298 -109.65996 
L 185.156298 -101.499609 
L 184.77992 -101.499609 
L 184.77992 -101.582036 
L 184.403542 -101.582036 
L 184.403542 -85.240727 
L 184.027164 -85.240727 
L 184.027164 -81.57269 
L 183.650786 -81.57269 
L 183.650786 -72.546847 
L 183.274407 -72.546847 
L 183.274407 -60.326927 
L 182.898029 -60.326927 
L 182.898029 -65.849589 
L 182.521651 -65.849589 
L 182.521651 -56.761925 
L 182.145273 -56.761925 
L 182.145273 -58.183805 
L 181.768895 -58.183805 
L 181.768895 -55.628543 
L 181.392516 -55.628543 
L 181.392516 -51.507154 
L 181.016138 -51.507154 
L 181.016138 -54.144843 
L 180.63976 -54.144843 
L 180.63976 -51.651402 
L 180.263382 -51.651402 
L 180.263382 -51.878079 
L 179.887004 -51.878079 
L 179.887004 -50.806517 
L 179.510625 -50.806517 
L 179.510625 -48.498539 
L 179.134247 -48.498539 
L 179.134247 -48.416111 
L 178.757869 -48.416111 
L 178.757869 -54.041808 
L 178.381491 -54.041808 
L 178.381491 -50.888945 
L 178.005113 -50.888945 
L 178.005113 -51.52776 
L 177.628734 -51.52776 
L 177.628734 -51.424726 
L 177.252356 -51.424726 
L 177.252356 -55.298832 
L 176.875978 -55.298832 
L 176.875978 -53.4236 
L 176.4996 -53.4236 
L 176.4996 -55.340046 
L 176.123222 -55.340046 
L 176.123222 -57.174064 
L 175.746843 -57.174064 
L 175.746843 -56.349786 
L 175.370465 -56.349786 
L 175.370465 -60.821494 
L 174.994087 -60.821494 
L 174.994087 -63.108865 
L 174.617709 -63.108865 
L 174.617709 -62.47005 
L 174.241331 -62.47005 
L 174.241331 -63.912536 
L 173.864952 -63.912536 
L 173.864952 -62.016697 
L 173.488574 -62.016697 
L 173.488574 -65.622913 
L 173.112196 -65.622913 
L 173.112196 -69.332163 
L 172.735818 -69.332163 
L 172.735818 -68.61092 
L 172.35944 -68.61092 
L 172.35944 -72.25835 
L 171.983061 -72.25835 
L 171.983061 -72.670489 
L 171.606683 -72.670489 
L 171.606683 -73.432946 
L 171.230305 -73.432946 
L 171.230305 -74.442686 
L 170.853927 -74.442686 
L 170.853927 -70.671615 
L 170.477549 -70.671615 
L 170.477549 -75.637889 
L 170.10117 -75.637889 
L 170.10117 -77.38948 
L 169.724792 -77.38948 
L 169.724792 -74.628149 
L 169.348414 -74.628149 
L 169.348414 -73.453553 
L 168.972036 -73.453553 
L 168.972036 -79.573816 
L 168.595657 -79.573816 
L 168.595657 -73.659622 
L 168.219279 -73.659622 
L 168.219279 -75.019681 
L 167.842901 -75.019681 
L 167.842901 -72.217136 
L 167.466523 -72.217136 
L 167.466523 -74.442686 
L 167.090145 -74.442686 
L 167.090145 -63.850715 
L 166.713766 -63.850715 
L 166.713766 -75.390606 
L 166.337388 -75.390606 
L 166.337388 -63.665253 
L 165.96101 -63.665253 
L 165.96101 -75.163929 
L 165.584632 -75.163929 
L 165.584632 -62.222766 
L 165.208254 -62.222766 
L 165.208254 -61.872448 
L 164.831875 -61.872448 
L 164.831875 -71.166182 
L 164.455497 -71.166182 
L 164.455497 -61.316061 
L 164.079119 -61.316061 
L 164.079119 -58.245625 
L 163.702741 -58.245625 
L 163.702741 -61.027563 
L 163.326363 -61.027563 
L 163.326363 -64.530744 
L 162.949984 -64.530744 
L 162.949984 -62.449443 
L 162.573606 -62.449443 
L 162.573606 -57.009209 
L 162.197228 -57.009209 
L 162.197228 -55.092762 
L 161.82085 -55.092762 
L 161.82085 -56.761925 
L 161.444472 -56.761925 
L 161.444472 -56.081896 
L 161.068093 -56.081896 
L 161.068093 -55.731578 
L 160.691715 -55.731578 
L 160.691715 -50.147095 
L 160.315337 -50.147095 
L 160.315337 -47.097267 
L 159.938959 -47.097267 
L 159.938959 -50.023453 
L 159.562581 -50.023453 
L 159.562581 -53.506027 
L 159.186202 -53.506027 
L 159.186202 -53.258744 
L 158.809824 -53.258744 
L 158.809824 -52.496287 
L 158.433446 -52.496287 
L 158.433446 -39.081164 
L 158.057068 -39.081164 
L 158.057068 -52.558108 
L 157.68069 -52.558108 
L 157.68069 -52.228397 
L 157.304311 -52.228397 
L 157.304311 -44.480184 
L 156.927933 -44.480184 
L 156.927933 -45.984492 
L 156.551555 -45.984492 
L 156.551555 -50.414985 
L 156.175177 -50.414985 
L 156.175177 -39.122378 
L 155.798799 -39.122378 
L 155.798799 -51.383512 
L 155.42242 -51.383512 
L 155.42242 -48.333684 
L 155.046042 -48.333684 
L 155.046042 -40.791541 
L 154.669664 -40.791541 
L 154.669664 -46.746949 
L 154.293286 -46.746949 
L 154.293286 -40.853362 
L 153.916908 -40.853362 
L 153.916908 -47.426978 
L 153.540529 -47.426978 
L 153.540529 -41.306714 
L 153.164151 -41.306714 
L 153.164151 -47.117874 
L 152.787773 -47.117874 
L 152.787773 -41.347928 
L 152.411395 -41.347928 
L 152.411395 -39.71998 
L 152.035017 -39.71998 
L 152.035017 -48.745823 
L 151.658638 -48.745823 
L 151.658638 -40.173332 
L 151.28226 -40.173332 
L 151.28226 -47.81851 
L 150.905882 -47.81851 
L 150.905882 -41.450963 
L 150.529504 -41.450963 
L 150.529504 -44.789289 
L 150.153126 -44.789289 
L 150.153126 -47.81851 
L 149.776747 -47.81851 
L 149.776747 -45.015965 
L 149.400369 -45.015965 
L 149.400369 -45.38689 
L 149.023991 -45.38689 
L 149.023991 -44.686254 
L 148.647613 -44.686254 
L 148.647613 -48.065793 
L 148.271235 -48.065793 
L 148.271235 -44.768682 
L 147.894856 -44.768682 
L 147.894856 -46.499665 
L 147.518478 -46.499665 
L 147.518478 -51.095015 
L 147.1421 -51.095015 
L 147.1421 -45.325069 
L 146.765722 -45.325069 
L 146.765722 -45.015965 
L 146.389344 -45.015965 
L 146.389344 -52.022327 
L 146.012965 -52.022327 
L 146.012965 -43.614693 
L 145.636587 -43.614693 
L 145.636587 -44.748075 
L 145.260209 -44.748075 
L 145.260209 -48.354291 
L 144.883831 -48.354291 
L 144.883831 -45.737208 
L 144.507453 -45.737208 
L 144.507453 -43.326195 
L 144.131074 -43.326195 
L 144.131074 -41.265501 
L 143.754696 -41.265501 
L 143.754696 -45.902064 
L 143.378318 -45.902064 
L 143.378318 -43.594086 
L 143.00194 -43.594086 
L 143.00194 -41.430356 
L 142.625562 -41.430356 
L 142.625562 -42.440097 
L 142.249183 -42.440097 
L 142.249183 -40.709113 
L 141.872805 -40.709113 
L 141.872805 -44.088652 
L 141.496427 -44.088652 
L 141.496427 -41.368535 
L 141.120049 -41.368535 
L 141.120049 -40.626685 
L 140.743671 -40.626685 
L 140.743671 -40.52365 
L 140.367292 -40.52365 
L 140.367292 -39.761193 
L 139.990914 -39.761193 
L 139.990914 -40.544257 
L 139.614536 -40.544257 
L 139.614536 -39.740586 
L 139.238158 -39.740586 
L 139.238158 -40.46183 
L 138.86178 -40.46183 
L 138.86178 -39.864228 
L 138.485401 -39.864228 
L 138.485401 -39.946656 
L 138.109023 -39.946656 
L 138.109023 -39.431482 
L 137.732645 -39.431482 
L 137.732645 -38.936915 
L 137.356267 -38.936915 
L 137.356267 -39.864228 
L 136.979889 -39.864228 
L 136.979889 -39.596338 
L 136.60351 -39.596338 
L 136.60351 -38.77206 
L 136.227132 -38.77206 
L 136.227132 -38.978129 
L 135.850754 -38.978129 
L 135.850754 -39.51391 
L 135.474376 -39.51391 
L 135.474376 -39.287234 
L 135.097998 -39.287234 
L 135.097998 -38.071424 
L 134.721619 -38.071424 
L 134.721619 -39.431482 
L 134.345241 -39.431482 
L 134.345241 -37.597464 
L 133.968863 -37.597464 
L 133.968863 -39.658159 
L 133.592485 -39.658159 
L 133.592485 -38.77206 
L 133.216107 -38.77206 
L 133.216107 -38.277493 
L 132.839728 -38.277493 
L 132.839728 -38.998736 
L 132.46335 -38.998736 
L 132.46335 -37.659285 
L 132.086972 -37.659285 
L 132.086972 -39.204806 
L 131.710594 -39.204806 
L 131.710594 -37.721106 
L 131.334216 -37.721106 
L 131.334216 -39.596338 
L 130.957837 -39.596338 
L 130.957837 -37.762319 
L 130.581459 -37.762319 
L 130.581459 -39.184199 
L 130.205081 -39.184199 
L 130.205081 -37.597464 
L 129.828703 -37.597464 
L 129.828703 -38.895702 
L 129.452325 -38.895702 
L 129.452325 -37.82414 
L 129.075946 -37.82414 
L 129.075946 -39.142985 
L 128.699568 -39.142985 
L 128.699568 -37.947782 
L 128.32319 -37.947782 
L 128.32319 -38.524777 
L 127.946812 -38.524777 
L 127.946812 -38.2981 
L 127.570434 -38.2981 
L 127.570434 -37.844747 
L 127.194055 -37.844747 
L 127.194055 -38.813274 
L 126.817677 -38.813274 
L 126.817677 -37.659285 
L 126.441299 -37.659285 
L 126.441299 -38.56599 
L 126.064921 -38.56599 
L 126.064921 -38.277493 
L 125.688543 -38.277493 
L 125.688543 -37.762319 
L 125.312164 -37.762319 
L 125.312164 -38.380528 
L 124.935786 -38.380528 
L 124.935786 -38.277493 
L 124.559408 -38.277493 
L 124.559408 -37.721106 
L 124.18303 -37.721106 
L 124.18303 -38.586597 
L 123.806652 -38.586597 
L 123.806652 -38.277493 
L 123.430273 -38.277493 
L 123.430273 -37.782926 
L 123.053895 -37.782926 
L 123.053895 -38.401135 
L 122.677517 -38.401135 
L 122.677517 -37.597464 
L 122.301139 -37.597464 
L 122.301139 -38.2981 
L 121.924761 -38.2981 
L 121.924761 -38.153851 
L 121.548382 -38.153851 
L 121.548382 -37.782926 
L 121.172004 -37.782926 
L 121.172004 -38.071424 
L 120.795626 -38.071424 
L 120.795626 -37.885961 
L 120.419248 -37.885961 
L 120.419248 -38.359921 
L 120.04287 -38.359921 
L 120.04287 -37.844747 
L 119.666491 -37.844747 
L 119.666491 -38.133245 
L 119.290113 -38.133245 
L 119.290113 -37.576857 
L 118.913735 -37.576857 
L 118.913735 -38.401135 
L 118.537357 -38.401135 
L 118.537357 -38.092031 
L 118.160979 -38.092031 
L 118.160979 -37.906568 
L 117.7846 -37.906568 
L 117.7846 -37.55625 
L 117.408222 -37.55625 
L 117.408222 -37.782926 
L 117.031844 -37.782926 
L 117.031844 -37.865354 
L 116.655466 -37.865354 
L 116.655466 -37.721106 
L 116.279088 -37.721106 
L 116.279088 -37.762319 
L 115.902709 -37.762319 
L 115.902709 -37.618071 
L 115.526331 -37.618071 
L 115.526331 -37.844747 
L 115.149953 -37.844747 
L 115.149953 -37.988996 
L 114.773575 -37.988996 
L 114.773575 -37.721106 
L 114.397197 -37.721106 
L 114.397197 -37.803533 
L 114.020818 -37.803533 
L 114.020818 -37.618071 
L 113.64444 -37.618071 
L 113.64444 -37.947782 
L 113.268062 -37.947782 
L 113.268062 -37.597464 
L 112.891684 -37.597464 
L 112.891684 -37.762319 
L 112.515306 -37.762319 
L 112.515306 -37.741713 
L 112.138927 -37.741713 
L 112.138927 -37.844747 
L 111.762549 -37.844747 
L 111.762549 -37.55625 
L 111.386171 -37.55625 
L 111.386171 -37.700499 
L 111.009793 -37.700499 
L 111.009793 -37.55625 
L 110.633415 -37.55625 
L 110.633415 -37.679892 
L 110.257036 -37.679892 
L 110.257036 -37.679892 
L 109.880658 -37.679892 
L 109.880658 -37.721106 
L 109.50428 -37.721106 
L 109.50428 -37.638678 
L 109.127902 -37.638678 
L 109.127902 -37.700499 
L 108.751524 -37.700499 
L 108.751524 -37.55625 
L 108.375145 -37.55625 
L 108.375145 -37.576857 
L 107.998767 -37.576857 
L 107.998767 -37.741713 
L 107.622389 -37.741713 
L 107.622389 -37.679892 
L 107.246011 -37.679892 
L 107.246011 -37.618071 
L 106.869633 -37.618071 
L 106.869633 -37.576857 
L 106.493254 -37.576857 
L 106.493254 -37.638678 
L 106.116876 -37.638678 
L 106.116876 -37.55625 
L 105.740498 -37.55625 
L 105.740498 -37.576857 
L 105.36412 -37.576857 
L 105.36412 -37.55625 
L 104.987742 -37.55625 
L 104.987742 -37.618071 
L 104.611363 -37.618071 
L 104.611363 -37.638678 
L 104.234985 -37.638678 
L 104.234985 -37.679892 
L 103.858607 -37.679892 
L 103.858607 -37.55625 
L 103.482229 -37.55625 
L 103.482229 -37.638678 
L 103.105851 -37.638678 
L 103.105851 -37.55625 
L 102.729472 -37.55625 
L 102.729472 -37.55625 
L 102.353094 -37.55625 
L 102.353094 -37.55625 
L 101.976716 -37.55625 
L 101.976716 -37.55625 
L 101.600338 -37.55625 
L 101.600338 -37.618071 
L 101.223959 -37.618071 
L 101.223959 -37.721106 
L 100.847581 -37.721106 
L 100.847581 -37.597464 
L 100.471203 -37.597464 
L 100.471203 -37.55625 
L 100.094825 -37.55625 
L 100.094825 -37.618071 
L 99.718447 -37.618071 
L 99.718447 -37.55625 
L 99.342068 -37.55625 
L 99.342068 -37.55625 
L 98.96569 -37.55625 
L 98.96569 -37.55625 
L 98.589312 -37.55625 
L 98.589312 -37.55625 
L 98.212934 -37.55625 
L 98.212934 -37.55625 
L 97.836556 -37.55625 
L 97.836556 -37.55625 
L 97.460177 -37.55625 
L 97.460177 -37.597464 
L 97.083799 -37.597464 
L 97.083799 -37.597464 
L 96.707421 -37.597464 
L 96.707421 -37.576857 
L 96.331043 -37.576857 
L 96.331043 -37.597464 
L 95.954665 -37.597464 
L 95.954665 -37.55625 
L 95.578286 -37.55625 
L 95.578286 -37.55625 
L 95.201908 -37.55625 
L 95.201908 -37.55625 
L 94.82553 -37.55625 
L 94.82553 -37.55625 
L 94.449152 -37.55625 
L 94.449152 -37.55625 
L 94.072774 -37.55625 
L 94.072774 -37.55625 
L 93.696395 -37.55625 
L 93.696395 -37.55625 
L 93.320017 -37.55625 
L 93.320017 -37.55625 
L 92.943639 -37.55625 
L 92.943639 -37.597464 
L 92.567261 -37.597464 
L 92.567261 -37.597464 
L 92.190883 -37.597464 
L 92.190883 -37.55625 
L 91.814504 -37.55625 
L 91.814504 -37.618071 
L 91.438126 -37.618071 
L 91.438126 -37.55625 
L 91.061748 -37.55625 
L 91.061748 -37.55625 
L 90.68537 -37.55625 
L 90.68537 -37.55625 
L 90.308992 -37.55625 
L 90.308992 -37.55625 
L 89.932613 -37.55625 
L 89.932613 -37.55625 
L 89.556235 -37.55625 
L 89.556235 -37.576857 
L 89.179857 -37.576857 
L 89.179857 -37.55625 
L 88.803479 -37.55625 
L 88.803479 -37.55625 
L 88.427101 -37.55625 
L 88.427101 -37.55625 
L 88.050722 -37.55625 
L 88.050722 -37.55625 
L 87.674344 -37.55625 
L 87.674344 -37.55625 
L 87.297966 -37.55625 
L 87.297966 -37.576857 
L 86.921588 -37.576857 
L 86.921588 -37.55625 
L 86.54521 -37.55625 
L 86.54521 -37.55625 
L 86.168831 -37.55625 
L 86.168831 -37.55625 
L 85.792453 -37.55625 
L 85.792453 -37.55625 
L 85.416075 -37.55625 
L 85.416075 -37.55625 
L 85.039697 -37.55625 
L 85.039697 -37.55625 
L 84.663319 -37.55625 
L 84.663319 -37.55625 
L 84.28694 -37.55625 
L 84.28694 -37.55625 
L 83.910562 -37.55625 
L 83.910562 -37.55625 
L 83.534184 -37.55625 
L 83.534184 -37.55625 
L 83.157806 -37.55625 
L 83.157806 -37.55625 
L 82.781428 -37.55625 
L 82.781428 -37.55625 
L 82.405049 -37.55625 
L 82.405049 -37.55625 
L 82.028671 -37.55625 
L 82.028671 -37.55625 
L 81.652293 -37.55625 
L 81.652293 -37.55625 
L 81.275915 -37.55625 
L 81.275915 -37.55625 
L 80.899537 -37.55625 
L 80.899537 -37.576857 
L 80.523158 -37.576857 
L 80.523158 -37.55625 
L 80.14678 -37.55625 
L 80.14678 -37.576857 
L 79.770402 -37.576857 
L 79.770402 -37.576857 
L 79.394024 -37.576857 
L 79.394024 -37.55625 
L 79.017646 -37.55625 
L 79.017646 -37.55625 
L 78.641267 -37.55625 
L 78.641267 -37.55625 
L 78.264889 -37.55625 
L 78.264889 -37.55625 
L 77.888511 -37.55625 
L 77.888511 -37.55625 
L 77.512133 -37.55625 
L 77.512133 -37.55625 
L 77.135755 -37.55625 
L 77.135755 -37.55625 
L 76.759376 -37.55625 
L 76.759376 -37.55625 
L 76.382998 -37.55625 
L 76.382998 -37.55625 
L 76.00662 -37.55625 
L 76.00662 -37.55625 
L 75.630242 -37.55625 
L 75.630242 -37.55625 
L 75.253864 -37.55625 
L 75.253864 -37.55625 
L 74.877485 -37.55625 
L 74.877485 -37.55625 
L 74.501107 -37.55625 
L 74.501107 -37.55625 
L 74.124729 -37.55625 
L 74.124729 -37.55625 
L 73.748351 -37.55625 
L 73.748351 -37.55625 
L 73.371973 -37.55625 
L 73.371973 -37.576857 
L 72.995594 -37.576857 
z
" id="m295d86f1c8" style="stroke:#1f77b4;"/>
    </defs>
    <g clip-path="url(#p9bf37baa85)">
     <use style="fill:#1f77b4;fill-opacity:0.75;stroke:#1f77b4;" x="0" xlink:href="#m295d86f1c8" y="337.465577"/>
    </g>
   </g>
   <g id="patch_3">
    <path d="M 59.690625 299.909327 
L 59.690625 7.2 
" style="fill:none;stroke:#262626;stroke-linecap:square;stroke-linejoin:miter;stroke-width:0.8;"/>
   </g>
   <g id="patch_4">
    <path d="M 59.690625 299.909327 
L 352.399952 299.909327 
" style="fill:none;stroke:#262626;stroke-linecap:square;stroke-linejoin:miter;stroke-width:0.8;"/>
   </g>
  </g>
 </g>
 <defs>
  <clipPath id="p9bf37baa85">
   <rect height="292.709327" width="292.709327" x="59.690625" y="7.2"/>
  </clipPath>
 </defs>
</svg>
